Project Version="3.1.1" TempoMode="FamiStudio" Name="Solstice" Author="Tim Follin" Copyright="1989 CSG Imagesoft, Inc."
	Instrument Name="Duty 0"
	Instrument Name="Duty 2"
		Envelope Type="DutyCycle" Length="1" Values="2"
	Instrument Name="Duty 3"
		Envelope Type="DutyCycle" Length="1" Values="3"
	Song Name="Song 6" Length="42" LoopPoint="0" PatternLength="32" BeatLength="4" NoteLength="8" Groove="8" GroovePaddingMode="Middle"
		Channel Type="Square1"
			Pattern Name="Pattern 1"
				Note Time="0" Value="C3" Duration="16" Instrument="Duty 0" Volume="1"
				Note Time="1" Volume="2"
				Note Time="15" Volume="1"
				Note Time="16" Value="E3" Duration="6" Instrument="Duty 0" FinePitch="1"
				Note Time="17" Volume="2"
				Note Time="21" Volume="1"
				Note Time="24" Value="G3" Duration="6" Instrument="Duty 0"
				Note Time="25" Volume="2"
				Note Time="29" Volume="1"
				Note Time="32" Value="F3" Duration="16" Instrument="Duty 0"
				Note Time="33" Volume="2"
				Note Time="47" Volume="1"
				Note Time="48" Value="D3" Duration="5" Instrument="Duty 0" FinePitch="0"
				Note Time="49" Volume="2"
				Note Time="52" Volume="1"
				Note Time="64" Value="E3" Duration="5" Instrument="Duty 0" FinePitch="1"
				Note Time="65" Volume="2"
				Note Time="68" Volume="1"
				Note Time="80" Value="C3" Duration="5" Instrument="Duty 0" FinePitch="0"
				Note Time="81" Volume="2"
				Note Time="84" Volume="1"
				Note Time="96" Value="G2" Duration="160" Instrument="Duty 0"
				Note Time="97" Volume="2"
				Note Time="255" Volume="1"
			Pattern Name="Pattern 2"
				Note Time="0" Value="C3" Duration="16" Instrument="Duty 0"
				Note Time="1" Volume="2"
				Note Time="15" Volume="1"
				Note Time="16" Value="E3" Duration="6" Instrument="Duty 0" FinePitch="1"
				Note Time="17" Volume="2"
				Note Time="21" Volume="1"
				Note Time="24" Value="G3" Duration="6" Instrument="Duty 0"
				Note Time="25" Volume="2"
				Note Time="29" Volume="1"
				Note Time="32" Value="F3" Duration="16" Instrument="Duty 0"
				Note Time="33" Volume="2"
				Note Time="47" Volume="1"
				Note Time="48" Value="D3" Duration="5" Instrument="Duty 0" FinePitch="0"
				Note Time="49" Volume="2"
				Note Time="52" Volume="1"
				Note Time="64" Value="E3" Duration="5" Instrument="Duty 0" FinePitch="1"
				Note Time="65" Volume="2"
				Note Time="68" Volume="1"
				Note Time="80" Value="C3" Duration="5" Instrument="Duty 0" FinePitch="0"
				Note Time="81" Volume="2"
				Note Time="84" Volume="1"
				Note Time="96" Value="G2" Duration="96" Instrument="Duty 0"
				Note Time="97" Volume="2"
				Note Time="191" Volume="1"
				Note Time="192" Value="E2" Duration="32" Instrument="Duty 0"
				Note Time="193" Volume="2"
				Note Time="223" Volume="1"
				Note Time="224" Value="C1" Duration="32" Instrument="Duty 0" FinePitch="1"
				Note Time="225" Volume="2"
				Note Time="255" Volume="1"
			Pattern Name="Pattern 3"
				Note Time="0" Value="E3" Duration="2" Instrument="Duty 2" Volume="4"
				Note Time="2" Value="E4" Duration="1" Instrument="Duty 2" FinePitch="0"
				Note Time="3" Value="G#3" Duration="2" Instrument="Duty 2" FinePitch="1"
				Note Time="5" Value="G#4" Duration="1" Instrument="Duty 2" FinePitch="0"
				Note Time="6" Value="B3" Duration="2" Instrument="Duty 2" FinePitch="1"
				Note Time="8" Value="B4" Duration="1" Instrument="Duty 2"
				Note Time="9" Value="E4" Duration="2" Instrument="Duty 2" FinePitch="0"
				Note Time="11" Value="E5" Duration="1" Instrument="Duty 2"
				Note Time="12" Value="F#4" Duration="2" Instrument="Duty 2" FinePitch="1"
				Note Time="14" Value="F#5" Duration="1" Instrument="Duty 2" FinePitch="0"
				Note Time="15" Value="B4" Duration="2" Instrument="Duty 2" FinePitch="1"
				Note Time="17" Value="B5" Duration="1" Instrument="Duty 2" FinePitch="0"
				Note Time="18" Value="E5" Duration="2" Instrument="Duty 2"
				Note Time="20" Value="E6" Duration="1" Instrument="Duty 2" FinePitch="1"
				Note Time="21" Value="F#5" Duration="2" Instrument="Duty 2" FinePitch="0"
				Note Time="23" Value="F#6" Duration="1" Instrument="Duty 2"
				Note Time="24" Value="B5" Duration="2" Instrument="Duty 2"
				Note Time="26" Value="A#6" Duration="1" Instrument="Duty 2" FinePitch="-1"
				Note Time="27" Value="G#5" Duration="2" Instrument="Duty 2" FinePitch="1"
				Note Time="29" Value="G#6" Duration="1" Instrument="Duty 2" FinePitch="0"
				Note Time="30" Value="F#5" Duration="2" Instrument="Duty 2"
				Note Time="32" Value="F#6" Duration="1" Instrument="Duty 2"
				Note Time="33" Value="B4" Duration="2" Instrument="Duty 2" FinePitch="1"
				Note Time="35" Value="B5" Duration="1" Instrument="Duty 2" FinePitch="0"
				Note Time="36" Value="G#4" Duration="2" Instrument="Duty 2"
				Note Time="38" Value="G#5" Duration="1" Instrument="Duty 2" FinePitch="1"
				Note Time="39" Value="E4" Duration="2" Instrument="Duty 2" FinePitch="0"
				Note Time="41" Value="E5" Duration="1" Instrument="Duty 2"
				Note Time="42" Value="B3" Duration="2" Instrument="Duty 2" FinePitch="1"
				Note Time="44" Value="B4" Duration="1" Instrument="Duty 2"
				Note Time="45" Value="F#3" Duration="2" Instrument="Duty 2"
				Note Time="47" Value="F#4" Duration="1" Instrument="Duty 2"
				Note Time="48" Value="E3" Duration="2" Instrument="Duty 2"
				Note Time="50" Value="E4" Duration="1" Instrument="Duty 2" FinePitch="0"
				Note Time="51" Value="A3" Duration="2" Instrument="Duty 2" FinePitch="1"
				Note Time="53" Value="A4" Duration="1" Instrument="Duty 2"
				Note Time="54" Value="C#4" Duration="2" Instrument="Duty 2" FinePitch="0"
				Note Time="56" Value="C#5" Duration="1" Instrument="Duty 2"
				Note Time="57" Value="E4" Duration="2" Instrument="Duty 2"
				Note Time="59" Value="E5" Duration="1" Instrument="Duty 2"
				Note Time="60" Value="A4" Duration="2" Instrument="Duty 2" FinePitch="1"
				Note Time="62" Value="A5" Duration="1" Instrument="Duty 2" FinePitch="0"
				Note Time="63" Value="C#5" Duration="2" Instrument="Duty 2"
				Note Time="65" Value="C#6" Duration="1" Instrument="Duty 2" FinePitch="1"
				Note Time="66" Value="E5" Duration="2" Instrument="Duty 2" FinePitch="0"
				Note Time="68" Value="E6" Duration="1" Instrument="Duty 2" FinePitch="1"
				Note Time="69" Value="A5" Duration="2" Instrument="Duty 2" FinePitch="0"
				Note Time="71" Value="A6" Duration="1" Instrument="Duty 2"
				Note Time="72" Value="C#6" Duration="2" Instrument="Duty 2" FinePitch="1"
				Note Time="74" Value="C7" Duration="1" Instrument="Duty 2" FinePitch="-1"
				Note Time="75" Value="A5" Duration="2" Instrument="Duty 2" FinePitch="0"
				Note Time="77" Value="A6" Duration="1" Instrument="Duty 2"
				Note Time="78" Value="E5" Duration="2" Instrument="Duty 2"
				Note Time="80" Value="E6" Duration="1" Instrument="Duty 2" FinePitch="1"
				Note Time="81" Value="C#5" Duration="2" Instrument="Duty 2" FinePitch="0"
				Note Time="83" Value="C#6" Duration="1" Instrument="Duty 2" FinePitch="1"
				Note Time="84" Value="A4" Duration="2" Instrument="Duty 2"
				Note Time="86" Value="A5" Duration="1" Instrument="Duty 2" FinePitch="0"
				Note Time="87" Value="E4" Duration="2" Instrument="Duty 2"
				Note Time="89" Value="E5" Duration="1" Instrument="Duty 2"
				Note Time="90" Value="C#4" Duration="2" Instrument="Duty 2"
				Note Time="92" Value="C#5" Duration="1" Instrument="Duty 2"
				Note Time="93" Value="A3" Duration="2" Instrument="Duty 2" FinePitch="1"
				Note Time="95" Value="A4" Duration="1" Instrument="Duty 2"
				Note Time="96" Value="C#5" Duration="4" Instrument="Duty 3" Volume="2" FinePitch="0"
				Note Time="100" Value="C#6" Duration="4" Instrument="Duty 3" FinePitch="1"
				Note Time="102" Volume="3"
				Note Time="104" Value="A4" Duration="4" Instrument="Duty 3"
				Note Time="108" Value="A5" Duration="4" Instrument="Duty 3" FinePitch="0"
				Note Time="112" Value="G#4" Duration="4" Instrument="Duty 3"
				Note Time="116" Value="G#5" Duration="4" Instrument="Duty 3" FinePitch="1"
				Note Time="120" Value="E4" Duration="4" Instrument="Duty 3" FinePitch="0"
				Note Time="124" Value="E5" Duration="4" Instrument="Duty 3"
				Note Time="126" Volume="4"
				Note Time="128" Value="G#4" Duration="4" Instrument="Duty 3"
				Note Time="132" Value="G#5" Duration="4" Instrument="Duty 3" FinePitch="1"
				Note Time="136" Value="A4" Duration="4" Instrument="Duty 3"
				Note Time="140" Value="A5" Duration="4" Instrument="Duty 3" FinePitch="0"
				Note Time="144" Value="C#5" Duration="4" Instrument="Duty 3"
				Note Time="148" Value="C#6" Duration="4" Instrument="Duty 3" FinePitch="1"
				Note Time="150" Volume="5"
				Note Time="152" Value="A4" Duration="4" Instrument="Duty 3"
				Note Time="156" Value="A5" Duration="4" Instrument="Duty 3" FinePitch="0"
				Note Time="160" Value="G#4" Duration="4" Instrument="Duty 3"
				Note Time="164" Value="G#5" Duration="4" Instrument="Duty 3" FinePitch="1"
				Note Time="168" Value="E4" Duration="4" Instrument="Duty 3" FinePitch="0"
				Note Time="172" Value="E5" Duration="4" Instrument="Duty 3"
				Note Time="174" Volume="6"
				Note Time="176" Value="G#4" Duration="4" Instrument="Duty 3"
				Note Time="180" Value="G#5" Duration="4" Instrument="Duty 3" FinePitch="1"
				Note Time="184" Value="A4" Duration="4" Instrument="Duty 3"
				Note Time="188" Value="A5" Duration="4" Instrument="Duty 3" FinePitch="0"
				Note Time="192" Value="E3" Duration="2" Instrument="Duty 2" Volume="4" FinePitch="1"
				Note Time="194" Value="E4" Duration="1" Instrument="Duty 2" FinePitch="0"
				Note Time="195" Value="F#3" Duration="2" Instrument="Duty 2" FinePitch="1"
				Note Time="197" Value="F#4" Duration="1" Instrument="Duty 2"
				Note Time="198" Value="B3" Duration="2" Instrument="Duty 2"
				Note Time="200" Value="B4" Duration="1" Instrument="Duty 2"
				Note Time="201" Value="E4" Duration="2" Instrument="Duty 2" FinePitch="0"
				Note Time="203" Value="E5" Duration="1" Instrument="Duty 2"
				Note Time="204" Value="G#4" Duration="2" Instrument="Duty 2"
				Note Time="206" Value="G#5" Duration="1" Instrument="Duty 2" FinePitch="1"
				Note Time="207" Value="B4" Duration="2" Instrument="Duty 2"
				Note Time="209" Value="B5" Duration="1" Instrument="Duty 2" FinePitch="0"
				Note Time="210" Value="F#5" Duration="2" Instrument="Duty 2"
				Note Time="212" Value="F#6" Duration="1" Instrument="Duty 2"
				Note Time="213" Value="G#5" Duration="2" Instrument="Duty 2" FinePitch="1"
				Note Time="215" Value="G#6" Duration="1" Instrument="Duty 2" FinePitch="0"
				Note Time="216" Value="B5" Duration="2" Instrument="Duty 2"
				Note Time="218" Value="A#6" Duration="1" Instrument="Duty 2" FinePitch="-1"
				Note Time="219" Value="G#5" Duration="2" Instrument="Duty 2" FinePitch="1"
				Note Time="221" Value="G#6" Duration="1" Instrument="Duty 2" FinePitch="0"
				Note Time="222" Value="E5" Duration="2" Instrument="Duty 2"
				Note Time="224" Value="E6" Duration="1" Instrument="Duty 2" FinePitch="1"
				Note Time="225" Value="B4" Duration="2" Instrument="Duty 2"
				Note Time="227" Value="B5" Duration="1" Instrument="Duty 2" FinePitch="0"
				Note Time="228" Value="G#4" Duration="2" Instrument="Duty 2"
				Note Time="230" Value="G#5" Duration="1" Instrument="Duty 2" FinePitch="1"
				Note Time="231" Value="E4" Duration="2" Instrument="Duty 2" FinePitch="0"
				Note Time="233" Value="E5" Duration="1" Instrument="Duty 2"
				Note Time="234" Value="B3" Duration="2" Instrument="Duty 2" FinePitch="1"
				Note Time="236" Value="B4" Duration="1" Instrument="Duty 2"
				Note Time="237" Value="G#3" Duration="2" Instrument="Duty 2"
				Note Time="239" Value="G#4" Duration="1" Instrument="Duty 2" FinePitch="0"
				Note Time="240" Value="D3" Duration="2" Instrument="Duty 2"
				Note Time="242" Value="D4" Duration="1" Instrument="Duty 2" FinePitch="1"
				Note Time="243" Value="G3" Duration="2" Instrument="Duty 2"
				Note Time="245" Value="G4" Duration="1" Instrument="Duty 2" FinePitch="0"
				Note Time="246" Value="B3" Duration="2" Instrument="Duty 2" FinePitch="1"
				Note Time="248" Value="B4" Duration="1" Instrument="Duty 2"
				Note Time="249" Value="D4" Duration="2" Instrument="Duty 2"
				Note Time="251" Value="D5" Duration="1" Instrument="Duty 2"
				Note Time="252" Value="G4" Duration="2" Instrument="Duty 2" FinePitch="0"
				Note Time="254" Value="G5" Duration="1" Instrument="Duty 2" FinePitch="1"
				Note Time="255" Value="B4" Duration="2" Instrument="Duty 2"
			Pattern Name="Pattern 4"
				Note Time="1" Value="B5" Duration="1" Instrument="Duty 2" FinePitch="0"
				Note Time="2" Value="D5" Duration="2" Instrument="Duty 2" FinePitch="1"
				Note Time="4" Value="D6" Duration="1" Instrument="Duty 2" FinePitch="0"
				Note Time="5" Value="G5" Duration="2" Instrument="Duty 2" FinePitch="1"
				Note Time="7" Value="G6" Duration="1" Instrument="Duty 2" FinePitch="0"
				Note Time="8" Value="B5" Duration="2" Instrument="Duty 2"
				Note Time="10" Value="A#6" Duration="1" Instrument="Duty 2" FinePitch="-1"
				Note Time="11" Value="G5" Duration="2" Instrument="Duty 2" FinePitch="1"
				Note Time="13" Value="G6" Duration="1" Instrument="Duty 2" FinePitch="0"
				Note Time="14" Value="D5" Duration="2" Instrument="Duty 2" FinePitch="1"
				Note Time="16" Value="D6" Duration="1" Instrument="Duty 2" FinePitch="0"
				Note Time="17" Value="B4" Duration="2" Instrument="Duty 2" FinePitch="1"
				Note Time="19" Value="B5" Duration="1" Instrument="Duty 2" FinePitch="0"
				Note Time="20" Value="G4" Duration="2" Instrument="Duty 2"
				Note Time="22" Value="G5" Duration="1" Instrument="Duty 2" FinePitch="1"
				Note Time="23" Value="D4" Duration="2" Instrument="Duty 2"
				Note Time="25" Value="D5" Duration="1" Instrument="Duty 2"
				Note Time="26" Value="B3" Duration="2" Instrument="Duty 2"
				Note Time="28" Value="B4" Duration="1" Instrument="Duty 2"
				Note Time="29" Value="G3" Duration="2" Instrument="Duty 2"
				Note Time="31" Value="G4" Duration="1" Instrument="Duty 2" FinePitch="0"
				Note Time="32" Value="B4" Duration="1" Instrument="Duty 2" Volume="2" FinePitch="-1"
				Note Time="33" Value="E6" Duration="1" Instrument="Duty 2" Volume="4"
				Note Time="34" Value="B4" Duration="10" Instrument="Duty 2" FinePitch="0"
				Note Time="43" Volume="2"
				Note Time="44" Value="A4" Duration="1" Instrument="Duty 2" FinePitch="1"
				Note Time="45" Value="E6" Duration="1" Instrument="Duty 2" Volume="4"
				Note Time="46" Value="A4" Duration="2" Instrument="Duty 2" FinePitch="2"
				Note Time="47" Volume="2"
				Note Time="48" Value="B4" Duration="1" Instrument="Duty 2" FinePitch="1"
				Note Time="49" Value="F#6" Duration="1" Instrument="Duty 2" Volume="4" FinePitch="0"
				Note Time="50" Value="B4" Duration="2" Instrument="Duty 2" FinePitch="2"
				Note Time="51" Volume="2"
				Note Time="52" Value="A4" Duration="1" Instrument="Duty 2" FinePitch="1"
				Note Time="53" Value="E6" Duration="1" Instrument="Duty 2" Volume="4"
				Note Time="54" Value="A4" Duration="2" Instrument="Duty 2" FinePitch="2"
				Note Time="55" Volume="2"
				Note Time="56" Value="F#4" Duration="1" Instrument="Duty 2" FinePitch="0"
				Note Time="57" Value="B5" Duration="1" Instrument="Duty 2" Volume="4" FinePitch="-1"
				Note Time="58" Value="F#4" Duration="10" Instrument="Duty 2" FinePitch="1"
				Note Time="67" Volume="2"
				Note Time="68" Value="A4" Duration="1" Instrument="Duty 2"
				Note Time="69" Value="E6" Duration="1" Instrument="Duty 2" Volume="4"
				Note Time="70" Value="A4" Duration="10" Instrument="Duty 2" FinePitch="2"
				Note Time="79" Volume="2"
				Note Time="80" Value="G4" Duration="1" Instrument="Duty 2" FinePitch="0"
				Note Time="81" Value="D6" Duration="1" Instrument="Duty 2" Volume="4"
				Note Time="82" Value="G4" Duration="2" Instrument="Duty 2" FinePitch="1"
				Note Time="83" Volume="2"
				Note Time="84" Value="A4" Duration="1" Instrument="Duty 2"
				Note Time="85" Value="E6" Duration="1" Instrument="Duty 2" Volume="4"
				Note Time="86" Value="A4" Duration="2" Instrument="Duty 2" FinePitch="2"
				Note Time="87" Volume="2"
				Note Time="88" Value="G4" Duration="1" Instrument="Duty 2" FinePitch="0"
				Note Time="89" Value="D6" Duration="1" Instrument="Duty 2" Volume="4"
				Note Time="90" Value="G4" Duration="2" Instrument="Duty 2" FinePitch="1"
				Note Time="91" Volume="2"
				Note Time="92" Value="E4" Duration="1" Instrument="Duty 2" FinePitch="0"
				Note Time="93" Value="B5" Duration="1" Instrument="Duty 2" Volume="4"
				Note Time="94" Value="E4" Duration="10" Instrument="Duty 2" FinePitch="1"
				Note Time="103" Volume="2"
				Note Time="104" Value="G4" Duration="1" Instrument="Duty 2" FinePitch="0"
				Note Time="105" Value="D6" Duration="1" Instrument="Duty 2" Volume="4"
				Note Time="106" Value="G4" Duration="10" Instrument="Duty 2" FinePitch="1"
				Note Time="115" Volume="2"
				Note Time="116" Value="F#4" Duration="1" Instrument="Duty 2"
				Note Time="117" Value="C#6" Duration="1" Instrument="Duty 2" Volume="4"
				Note Time="118" Value="F#4" Duration="6" Instrument="Duty 2" FinePitch="2"
				Note Time="123" Volume="2"
				Note Time="128" Value="E3" Duration="2" Instrument="Duty 2" Volume="4" FinePitch="1"
				Note Time="130" Value="E4" Duration="1" Instrument="Duty 2" FinePitch="0"
				Note Time="131" Value="G#3" Duration="2" Instrument="Duty 2" FinePitch="1"
				Note Time="133" Value="G#4" Duration="1" Instrument="Duty 2" FinePitch="0"
				Note Time="134" Value="B3" Duration="2" Instrument="Duty 2" FinePitch="1"
				Note Time="136" Value="B4" Duration="1" Instrument="Duty 2"
				Note Time="137" Value="E4" Duration="2" Instrument="Duty 2" FinePitch="0"
				Note Time="139" Value="E5" Duration="1" Instrument="Duty 2"
				Note Time="140" Value="F#4" Duration="2" Instrument="Duty 2" FinePitch="1"
				Note Time="142" Value="F#5" Duration="1" Instrument="Duty 2" FinePitch="0"
				Note Time="143" Value="B4" Duration="2" Instrument="Duty 2" FinePitch="1"
				Note Time="145" Value="B5" Duration="1" Instrument="Duty 2" FinePitch="0"
				Note Time="146" Value="E5" Duration="2" Instrument="Duty 2"
				Note Time="148" Value="E6" Duration="1" Instrument="Duty 2" FinePitch="1"
				Note Time="149" Value="F#5" Duration="2" Instrument="Duty 2" FinePitch="0"
				Note Time="151" Value="F#6" Duration="1" Instrument="Duty 2"
				Note Time="152" Value="B5" Duration="2" Instrument="Duty 2"
				Note Time="154" Value="A#6" Duration="1" Instrument="Duty 2" FinePitch="-1"
				Note Time="155" Value="G#5" Duration="2" Instrument="Duty 2" FinePitch="1"
				Note Time="157" Value="G#6" Duration="1" Instrument="Duty 2" FinePitch="0"
				Note Time="158" Value="F#5" Duration="2" Instrument="Duty 2"
				Note Time="160" Value="F#6" Duration="1" Instrument="Duty 2"
				Note Time="161" Value="B4" Duration="2" Instrument="Duty 2" FinePitch="1"
				Note Time="163" Value="B5" Duration="1" Instrument="Duty 2" FinePitch="0"
				Note Time="164" Value="G#4" Duration="2" Instrument="Duty 2"
				Note Time="166" Value="G#5" Duration="1" Instrument="Duty 2" FinePitch="1"
				Note Time="167" Value="E4" Duration="2" Instrument="Duty 2" FinePitch="0"
				Note Time="169" Value="E5" Duration="1" Instrument="Duty 2"
				Note Time="170" Value="B3" Duration="2" Instrument="Duty 2" FinePitch="1"
				Note Time="172" Value="B4" Duration="1" Instrument="Duty 2"
				Note Time="173" Value="F#3" Duration="2" Instrument="Duty 2"
				Note Time="175" Value="F#4" Duration="1" Instrument="Duty 2"
				Note Time="176" Value="E3" Duration="2" Instrument="Duty 2"
				Note Time="178" Value="E4" Duration="1" Instrument="Duty 2" FinePitch="0"
				Note Time="179" Value="A3" Duration="2" Instrument="Duty 2" FinePitch="1"
				Note Time="181" Value="A4" Duration="1" Instrument="Duty 2"
				Note Time="182" Value="C#4" Duration="2" Instrument="Duty 2" FinePitch="0"
				Note Time="184" Value="C#5" Duration="1" Instrument="Duty 2"
				Note Time="185" Value="E4" Duration="2" Instrument="Duty 2"
				Note Time="187" Value="E5" Duration="1" Instrument="Duty 2"
				Note Time="188" Value="A4" Duration="2" Instrument="Duty 2" FinePitch="1"
				Note Time="190" Value="A5" Duration="1" Instrument="Duty 2" FinePitch="0"
				Note Time="191" Value="C#5" Duration="2" Instrument="Duty 2"
				Note Time="193" Value="C#6" Duration="1" Instrument="Duty 2" FinePitch="1"
				Note Time="194" Value="E5" Duration="2" Instrument="Duty 2" FinePitch="0"
				Note Time="196" Value="E6" Duration="1" Instrument="Duty 2" FinePitch="1"
				Note Time="197" Value="A5" Duration="2" Instrument="Duty 2" FinePitch="0"
				Note Time="199" Value="A6" Duration="1" Instrument="Duty 2"
				Note Time="200" Value="C#6" Duration="2" Instrument="Duty 2" FinePitch="1"
				Note Time="202" Value="C7" Duration="1" Instrument="Duty 2" FinePitch="-1"
				Note Time="203" Value="A5" Duration="2" Instrument="Duty 2" FinePitch="0"
				Note Time="205" Value="A6" Duration="1" Instrument="Duty 2"
				Note Time="206" Value="E5" Duration="2" Instrument="Duty 2"
				Note Time="208" Value="E6" Duration="1" Instrument="Duty 2" FinePitch="1"
				Note Time="209" Value="C#5" Duration="2" Instrument="Duty 2" FinePitch="0"
				Note Time="211" Value="C#6" Duration="1" Instrument="Duty 2" FinePitch="1"
				Note Time="212" Value="A4" Duration="2" Instrument="Duty 2"
				Note Time="214" Value="A5" Duration="1" Instrument="Duty 2" FinePitch="0"
				Note Time="215" Value="E4" Duration="2" Instrument="Duty 2"
				Note Time="217" Value="E5" Duration="1" Instrument="Duty 2"
				Note Time="218" Value="C#4" Duration="2" Instrument="Duty 2"
				Note Time="220" Value="C#5" Duration="1" Instrument="Duty 2"
				Note Time="221" Value="A3" Duration="2" Instrument="Duty 2" FinePitch="1"
				Note Time="223" Value="A4" Duration="1" Instrument="Duty 2"
				Note Time="224" Value="C#5" Duration="4" Instrument="Duty 3" Volume="2" FinePitch="0"
				Note Time="228" Value="C#6" Duration="4" Instrument="Duty 3" FinePitch="1"
				Note Time="230" Volume="3"
				Note Time="232" Value="A4" Duration="4" Instrument="Duty 3"
				Note Time="236" Value="A5" Duration="4" Instrument="Duty 3" FinePitch="0"
				Note Time="240" Value="G#4" Duration="4" Instrument="Duty 3"
				Note Time="244" Value="G#5" Duration="4" Instrument="Duty 3" FinePitch="1"
				Note Time="248" Value="E4" Duration="4" Instrument="Duty 3" FinePitch="0"
				Note Time="252" Value="E5" Duration="4" Instrument="Duty 3"
				Note Time="254" Volume="4"
			Pattern Name="Pattern 5"
				Note Time="0" Value="G#4" Duration="4" Instrument="Duty 3"
				Note Time="4" Value="G#5" Duration="4" Instrument="Duty 3" FinePitch="1"
				Note Time="8" Value="A4" Duration="4" Instrument="Duty 3"
				Note Time="12" Value="A5" Duration="4" Instrument="Duty 3" FinePitch="0"
				Note Time="16" Value="C#5" Duration="4" Instrument="Duty 3"
				Note Time="20" Value="C#6" Duration="4" Instrument="Duty 3" FinePitch="1"
				Note Time="22" Volume="5"
				Note Time="24" Value="A4" Duration="4" Instrument="Duty 3"
				Note Time="28" Value="A5" Duration="4" Instrument="Duty 3" FinePitch="0"
				Note Time="32" Value="G#4" Duration="4" Instrument="Duty 3"
				Note Time="36" Value="G#5" Duration="4" Instrument="Duty 3" FinePitch="1"
				Note Time="40" Value="E4" Duration="4" Instrument="Duty 3" FinePitch="0"
				Note Time="44" Value="E5" Duration="4" Instrument="Duty 3"
				Note Time="46" Volume="6"
				Note Time="48" Value="G#4" Duration="4" Instrument="Duty 3"
				Note Time="52" Value="G#5" Duration="4" Instrument="Duty 3" FinePitch="1"
				Note Time="56" Value="A4" Duration="4" Instrument="Duty 3"
				Note Time="60" Value="A5" Duration="4" Instrument="Duty 3" FinePitch="0"
				Note Time="64" Value="E3" Duration="2" Instrument="Duty 2" Volume="4" FinePitch="1"
				Note Time="66" Value="E4" Duration="1" Instrument="Duty 2" FinePitch="0"
				Note Time="67" Value="F#3" Duration="2" Instrument="Duty 2" FinePitch="1"
				Note Time="69" Value="F#4" Duration="1" Instrument="Duty 2"
				Note Time="70" Value="B3" Duration="2" Instrument="Duty 2"
				Note Time="72" Value="B4" Duration="1" Instrument="Duty 2"
				Note Time="73" Value="E4" Duration="2" Instrument="Duty 2" FinePitch="0"
				Note Time="75" Value="E5" Duration="1" Instrument="Duty 2"
				Note Time="76" Value="G#4" Duration="2" Instrument="Duty 2"
				Note Time="78" Value="G#5" Duration="1" Instrument="Duty 2" FinePitch="1"
				Note Time="79" Value="B4" Duration="2" Instrument="Duty 2"
				Note Time="81" Value="B5" Duration="1" Instrument="Duty 2" FinePitch="0"
				Note Time="82" Value="F#5" Duration="2" Instrument="Duty 2"
				Note Time="84" Value="F#6" Duration="1" Instrument="Duty 2"
				Note Time="85" Value="G#5" Duration="2" Instrument="Duty 2" FinePitch="1"
				Note Time="87" Value="G#6" Duration="1" Instrument="Duty 2" FinePitch="0"
				Note Time="88" Value="B5" Duration="2" Instrument="Duty 2"
				Note Time="90" Value="A#6" Duration="1" Instrument="Duty 2" FinePitch="-1"
				Note Time="91" Value="G#5" Duration="2" Instrument="Duty 2" FinePitch="1"
				Note Time="93" Value="G#6" Duration="1" Instrument="Duty 2" FinePitch="0"
				Note Time="94" Value="E5" Duration="2" Instrument="Duty 2"
				Note Time="96" Value="E6" Duration="1" Instrument="Duty 2" FinePitch="1"
				Note Time="97" Value="B4" Duration="2" Instrument="Duty 2"
				Note Time="99" Value="B5" Duration="1" Instrument="Duty 2" FinePitch="0"
				Note Time="100" Value="G#4" Duration="2" Instrument="Duty 2"
				Note Time="102" Value="G#5" Duration="1" Instrument="Duty 2" FinePitch="1"
				Note Time="103" Value="E4" Duration="2" Instrument="Duty 2" FinePitch="0"
				Note Time="105" Value="E5" Duration="1" Instrument="Duty 2"
				Note Time="106" Value="B3" Duration="2" Instrument="Duty 2" FinePitch="1"
				Note Time="108" Value="B4" Duration="1" Instrument="Duty 2"
				Note Time="109" Value="G#3" Duration="2" Instrument="Duty 2"
				Note Time="111" Value="G#4" Duration="1" Instrument="Duty 2" FinePitch="0"
				Note Time="112" Value="D3" Duration="2" Instrument="Duty 2"
				Note Time="114" Value="D4" Duration="1" Instrument="Duty 2" FinePitch="1"
				Note Time="115" Value="G3" Duration="2" Instrument="Duty 2"
				Note Time="117" Value="G4" Duration="1" Instrument="Duty 2" FinePitch="0"
				Note Time="118" Value="B3" Duration="2" Instrument="Duty 2" FinePitch="1"
				Note Time="120" Value="B4" Duration="1" Instrument="Duty 2"
				Note Time="121" Value="D4" Duration="2" Instrument="Duty 2"
				Note Time="123" Value="D5" Duration="1" Instrument="Duty 2"
				Note Time="124" Value="G4" Duration="2" Instrument="Duty 2" FinePitch="0"
				Note Time="126" Value="G5" Duration="1" Instrument="Duty 2" FinePitch="1"
				Note Time="127" Value="B4" Duration="2" Instrument="Duty 2"
				Note Time="129" Value="B5" Duration="1" Instrument="Duty 2" FinePitch="0"
				Note Time="130" Value="D5" Duration="2" Instrument="Duty 2" FinePitch="1"
				Note Time="132" Value="D6" Duration="1" Instrument="Duty 2" FinePitch="0"
				Note Time="133" Value="G5" Duration="2" Instrument="Duty 2" FinePitch="1"
				Note Time="135" Value="G6" Duration="1" Instrument="Duty 2" FinePitch="0"
				Note Time="136" Value="B5" Duration="2" Instrument="Duty 2"
				Note Time="138" Value="A#6" Duration="1" Instrument="Duty 2" FinePitch="-1"
				Note Time="139" Value="G5" Duration="2" Instrument="Duty 2" FinePitch="1"
				Note Time="141" Value="G6" Duration="1" Instrument="Duty 2" FinePitch="0"
				Note Time="142" Value="D5" Duration="2" Instrument="Duty 2" FinePitch="1"
				Note Time="144" Value="D6" Duration="1" Instrument="Duty 2" FinePitch="0"
				Note Time="145" Value="B4" Duration="2" Instrument="Duty 2" FinePitch="1"
				Note Time="147" Value="B5" Duration="1" Instrument="Duty 2" FinePitch="0"
				Note Time="148" Value="G4" Duration="2" Instrument="Duty 2"
				Note Time="150" Value="G5" Duration="1" Instrument="Duty 2" FinePitch="1"
				Note Time="151" Value="D4" Duration="2" Instrument="Duty 2"
				Note Time="153" Value="D5" Duration="1" Instrument="Duty 2"
				Note Time="154" Value="B3" Duration="2" Instrument="Duty 2"
				Note Time="156" Value="B4" Duration="1" Instrument="Duty 2"
				Note Time="157" Value="G3" Duration="2" Instrument="Duty 2"
				Note Time="159" Value="G4" Duration="1" Instrument="Duty 2" FinePitch="0"
				Note Time="160" Value="B4" Duration="1" Instrument="Duty 2" Volume="2" FinePitch="-1"
				Note Time="161" Value="E6" Duration="1" Instrument="Duty 2" Volume="4"
				Note Time="162" Value="B4" Duration="10" Instrument="Duty 2" FinePitch="0"
				Note Time="171" Volume="2"
				Note Time="172" Value="A4" Duration="1" Instrument="Duty 2" FinePitch="1"
				Note Time="173" Value="E6" Duration="1" Instrument="Duty 2" Volume="4"
				Note Time="174" Value="A4" Duration="2" Instrument="Duty 2" FinePitch="2"
				Note Time="175" Volume="2"
				Note Time="176" Value="B4" Duration="1" Instrument="Duty 2" FinePitch="1"
				Note Time="177" Value="F#6" Duration="1" Instrument="Duty 2" Volume="4" FinePitch="0"
				Note Time="178" Value="B4" Duration="2" Instrument="Duty 2" FinePitch="2"
				Note Time="179" Volume="2"
				Note Time="180" Value="A4" Duration="1" Instrument="Duty 2" FinePitch="1"
				Note Time="181" Value="E6" Duration="1" Instrument="Duty 2" Volume="4"
				Note Time="182" Value="A4" Duration="2" Instrument="Duty 2" FinePitch="2"
				Note Time="183" Volume="2"
				Note Time="184" Value="F#4" Duration="1" Instrument="Duty 2" FinePitch="0"
				Note Time="185" Value="B5" Duration="1" Instrument="Duty 2" Volume="4" FinePitch="-1"
				Note Time="186" Value="F#4" Duration="10" Instrument="Duty 2" FinePitch="1"
				Note Time="195" Volume="2"
				Note Time="196" Value="A4" Duration="1" Instrument="Duty 2"
				Note Time="197" Value="E6" Duration="1" Instrument="Duty 2" Volume="4"
				Note Time="198" Value="A4" Duration="10" Instrument="Duty 2" FinePitch="2"
				Note Time="207" Volume="2"
				Note Time="208" Value="G4" Duration="1" Instrument="Duty 2" FinePitch="0"
				Note Time="209" Value="D6" Duration="1" Instrument="Duty 2" Volume="4"
				Note Time="210" Value="G4" Duration="2" Instrument="Duty 2" FinePitch="1"
				Note Time="211" Volume="2"
				Note Time="212" Value="A4" Duration="1" Instrument="Duty 2"
				Note Time="213" Value="E6" Duration="1" Instrument="Duty 2" Volume="4"
				Note Time="214" Value="A4" Duration="2" Instrument="Duty 2" FinePitch="2"
				Note Time="215" Volume="2"
				Note Time="216" Value="G4" Duration="1" Instrument="Duty 2" FinePitch="0"
				Note Time="217" Value="D6" Duration="1" Instrument="Duty 2" Volume="4"
				Note Time="218" Value="G4" Duration="2" Instrument="Duty 2" FinePitch="1"
				Note Time="219" Volume="2"
				Note Time="220" Value="E4" Duration="1" Instrument="Duty 2" FinePitch="0"
				Note Time="221" Value="B5" Duration="1" Instrument="Duty 2" Volume="4"
				Note Time="222" Value="E4" Duration="10" Instrument="Duty 2" FinePitch="1"
				Note Time="231" Volume="2"
				Note Time="232" Value="G4" Duration="1" Instrument="Duty 2" FinePitch="0"
				Note Time="233" Value="D6" Duration="1" Instrument="Duty 2" Volume="4"
				Note Time="234" Value="G4" Duration="10" Instrument="Duty 2" FinePitch="1"
				Note Time="243" Volume="2"
				Note Time="244" Value="F#4" Duration="1" Instrument="Duty 2"
				Note Time="245" Value="C#6" Duration="1" Instrument="Duty 2" Volume="4"
				Note Time="246" Value="F#4" Duration="6" Instrument="Duty 2" FinePitch="2"
				Note Time="251" Volume="2"
			Pattern Name="Pattern 6"
				Note Time="0" Value="D4" Duration="12" Instrument="Duty 2" Volume="1" FinePitch="1"
				Note Time="1" Volume="2"
				Note Time="11" Volume="1"
				Note Time="12" Value="F#4" Duration="12" Instrument="Duty 2"
				Note Time="13" Volume="2"
				Note Time="23" Volume="1"
				Note Time="24" Value="E4" Duration="4" Instrument="Duty 2" FinePitch="0"
				Note Time="25" Volume="2"
				Note Time="27" Volume="1"
				Note Time="28" Value="F#4" Duration="4" Instrument="Duty 2" FinePitch="1"
				Note Time="29" Volume="2"
				Note Time="31" Volume="1"
				Note Time="32" Value="E4" Duration="4" Instrument="Duty 2" FinePitch="0"
				Note Time="33" Volume="2"
				Note Time="35" Volume="1"
				Note Time="36" Value="C#4" Duration="12" Instrument="Duty 2"
				Note Time="37" Volume="2"
				Note Time="47" Volume="1"
				Note Time="48" Value="E4" Duration="12" Instrument="Duty 2"
				Note Time="49" Volume="2"
				Note Time="59" Volume="1"
				Note Time="60" Value="D4" Duration="4" Instrument="Duty 2" FinePitch="1"
				Note Time="61" Volume="2"
				Note Time="63" Volume="1"
				Note Time="64" Value="E4" Duration="4" Instrument="Duty 2" FinePitch="0"
				Note Time="65" Volume="2"
				Note Time="67" Volume="1"
				Note Time="68" Value="D4" Duration="4" Instrument="Duty 2" FinePitch="1"
				Note Time="69" Volume="2"
				Note Time="71" Volume="1"
				Note Time="72" Value="B3" Duration="12" Instrument="Duty 2"
				Note Time="73" Volume="2"
				Note Time="83" Volume="1"
				Note Time="84" Value="D4" Duration="12" Instrument="Duty 2"
				Note Time="85" Volume="2"
				Note Time="95" Volume="1"
				Note Time="96" Value="C#4" Duration="4" Instrument="Duty 2" FinePitch="0"
				Note Time="97" Volume="2"
				Note Time="99" Volume="1"
				Note Time="100" Value="D4" Duration="4" Instrument="Duty 2" FinePitch="1"
				Note Time="101" Volume="2"
				Note Time="103" Volume="1"
				Note Time="104" Value="C#4" Duration="4" Instrument="Duty 2" FinePitch="0"
				Note Time="105" Volume="2"
				Note Time="107" Volume="1"
				Note Time="108" Value="A3" Duration="12" Instrument="Duty 2" FinePitch="1"
				Note Time="109" Volume="2"
				Note Time="119" Volume="1"
				Note Time="120" Value="C#4" Duration="12" Instrument="Duty 2" FinePitch="0"
				Note Time="121" Volume="2"
				Note Time="131" Volume="1"
				Note Time="132" Value="B3" Duration="4" Instrument="Duty 2" FinePitch="1"
				Note Time="133" Volume="2"
				Note Time="135" Volume="1"
				Note Time="136" Value="C#4" Duration="4" Instrument="Duty 2" FinePitch="0"
				Note Time="137" Volume="2"
				Note Time="139" Volume="1"
				Note Time="140" Value="B3" Duration="4" Instrument="Duty 2" FinePitch="1"
				Note Time="141" Volume="2"
				Note Time="143" Volume="1"
				Note Time="144" Value="G3" Duration="12" Instrument="Duty 2"
				Note Time="145" Volume="2"
				Note Time="155" Volume="1"
				Note Time="156" Value="B3" Duration="7" Instrument="Duty 2"
				Note Time="157" Volume="2"
				Note Time="162" Volume="1"
				Note Time="168" Value="A3" Duration="4" Instrument="Duty 2"
				Note Time="169" Volume="2"
				Note Time="171" Volume="1"
				Note Time="172" Value="B3" Duration="4" Instrument="Duty 2"
				Note Time="173" Volume="2"
				Note Time="175" Volume="1"
				Note Time="176" Value="A3" Duration="4" Instrument="Duty 2"
				Note Time="177" Volume="2"
				Note Time="179" Volume="1"
				Note Time="180" Value="F#3" Duration="12" Instrument="Duty 2"
				Note Time="181" Volume="2"
				Note Time="191" Volume="1"
				Note Time="192" Value="E3" Duration="8" Instrument="Duty 2" Volume="3"
				Note Time="200" Value="F#3" Duration="8" Instrument="Duty 2"
				Note Time="208" Value="G3" Duration="6" Instrument="Duty 2"
				Note Time="213" Volume="1"
				Note Time="216" Value="B3" Duration="8" Instrument="Duty 2" Volume="3"
				Note Time="224" Value="C#4" Duration="8" Instrument="Duty 2" FinePitch="0"
				Note Time="232" Value="D4" Duration="6" Instrument="Duty 2" FinePitch="1"
				Note Time="237" Volume="1"
				Note Time="240" Value="E4" Duration="8" Instrument="Duty 2" Volume="3" FinePitch="0"
				Note Time="248" Value="D4" Duration="3" Instrument="Duty 2" FinePitch="1"
				Note Time="251" Value="E4" Duration="2" Instrument="Duty 2" FinePitch="0"
				Note Time="253" Value="D4" Duration="3" Instrument="Duty 2" FinePitch="1"
			Pattern Name="Pattern 7"
				Note Time="0" Value="B3" Duration="6" Instrument="Duty 2"
				Note Time="5" Volume="1"
				Note Time="8" Value="D4" Duration="8" Instrument="Duty 2" Volume="3"
				Note Time="16" Value="C#4" Duration="3" Instrument="Duty 2" FinePitch="0"
				Note Time="19" Value="D4" Duration="2" Instrument="Duty 2" FinePitch="1"
				Note Time="21" Value="C#4" Duration="3" Instrument="Duty 2" FinePitch="0"
				Note Time="24" Value="A3" Duration="6" Instrument="Duty 2" FinePitch="1"
				Note Time="29" Volume="1"
				Note Time="32" Value="B3" Duration="8" Instrument="Duty 2" Volume="3"
				Note Time="40" Value="C#4" Duration="8" Instrument="Duty 2" FinePitch="0"
				Note Time="48" Value="D4" Duration="6" Instrument="Duty 2" FinePitch="1"
				Note Time="53" Volume="1"
				Note Time="56" Value="D4" Duration="8" Instrument="Duty 2" Volume="3"
				Note Time="64" Value="C#4" Duration="8" Instrument="Duty 2" FinePitch="0"
				Note Time="72" Value="B3" Duration="5" Instrument="Duty 2" FinePitch="1"
				Note Time="76" Volume="1"
				Note Time="80" Value="B4" Duration="1" Instrument="Duty 2" Volume="3"
				Note Time="81" Value="A4" Duration="7" Instrument="Duty 2"
				Note Time="88" Value="E4" Duration="8" Instrument="Duty 2" FinePitch="0"
				Note Time="96" Value="D4" Duration="7" Instrument="Duty 2" FinePitch="1"
				Note Time="103" Value="E4" Duration="1" Instrument="Duty 2" FinePitch="0"
				Note Time="104" Value="C#4" Duration="8" Instrument="Duty 2"
				Note Time="112" Value="B3" Duration="8" Instrument="Duty 2" FinePitch="1"
				Note Time="120" Value="A3" Duration="8" Instrument="Duty 2"
				Note Time="128" Value="E3" Duration="8" Instrument="Duty 2"
				Note Time="136" Value="F#3" Duration="8" Instrument="Duty 2"
				Note Time="144" Value="G3" Duration="6" Instrument="Duty 2"
				Note Time="149" Volume="1"
				Note Time="152" Value="B3" Duration="8" Instrument="Duty 2" Volume="3"
				Note Time="160" Value="C#4" Duration="8" Instrument="Duty 2" FinePitch="0"
				Note Time="168" Value="D4" Duration="6" Instrument="Duty 2" FinePitch="1"
				Note Time="173" Volume="1"
				Note Time="176" Value="E4" Duration="8" Instrument="Duty 2" Volume="3" FinePitch="0"
				Note Time="184" Value="D4" Duration="3" Instrument="Duty 2" FinePitch="1"
				Note Time="187" Value="E4" Duration="2" Instrument="Duty 2" FinePitch="0"
				Note Time="189" Value="D4" Duration="3" Instrument="Duty 2" FinePitch="1"
				Note Time="192" Value="B3" Duration="6" Instrument="Duty 2"
				Note Time="197" Volume="1"
				Note Time="200" Value="D4" Duration="8" Instrument="Duty 2" Volume="3"
				Note Time="208" Value="C#4" Duration="3" Instrument="Duty 2" FinePitch="0"
				Note Time="211" Value="D4" Duration="2" Instrument="Duty 2" FinePitch="1"
				Note Time="213" Value="C#4" Duration="3" Instrument="Duty 2" FinePitch="0"
				Note Time="216" Value="A3" Duration="6" Instrument="Duty 2" FinePitch="1"
				Note Time="221" Volume="1"
				Note Time="224" Value="B3" Duration="8" Instrument="Duty 2" Volume="3"
				Note Time="232" Value="C#4" Duration="8" Instrument="Duty 2" FinePitch="0"
				Note Time="240" Value="D4" Duration="6" Instrument="Duty 2" FinePitch="1"
				Note Time="245" Volume="1"
				Note Time="248" Value="D4" Duration="8" Instrument="Duty 2" Volume="3"
			Pattern Name="Pattern 8"
				Note Time="0" Value="C#4" Duration="8" Instrument="Duty 2" FinePitch="0"
				Note Time="8" Value="B3" Duration="5" Instrument="Duty 2" FinePitch="1"
				Note Time="12" Volume="1"
				Note Time="16" Value="B4" Duration="1" Instrument="Duty 2" Volume="3"
				Note Time="17" Value="A4" Duration="7" Instrument="Duty 2"
				Note Time="24" Value="E4" Duration="8" Instrument="Duty 2" FinePitch="0"
				Note Time="32" Value="D4" Duration="7" Instrument="Duty 2" FinePitch="1"
				Note Time="39" Value="E4" Duration="1" Instrument="Duty 2" FinePitch="0"
				Note Time="40" Value="C#4" Duration="8" Instrument="Duty 2"
				Note Time="48" Value="B3" Duration="8" Instrument="Duty 2" FinePitch="1"
				Note Time="56" Value="A3" Duration="8" Instrument="Duty 2"
				Note Time="64" Value="E3" Duration="8" Instrument="Duty 2"
				Note Time="72" Value="F#3" Duration="8" Instrument="Duty 2"
				Note Time="80" Value="G3" Duration="6" Instrument="Duty 2"
				Note Time="85" Volume="1"
				Note Time="88" Value="B3" Duration="8" Instrument="Duty 2" Volume="3"
				Note Time="96" Value="C#4" Duration="8" Instrument="Duty 2" FinePitch="0"
				Note Time="104" Value="D4" Duration="6" Instrument="Duty 2" FinePitch="1"
				Note Time="109" Volume="1"
				Note Time="112" Value="E4" Duration="8" Instrument="Duty 2" Volume="3" FinePitch="0"
				Note Time="120" Value="D4" Duration="3" Instrument="Duty 2" FinePitch="1"
				Note Time="123" Value="E4" Duration="2" Instrument="Duty 2" FinePitch="0"
				Note Time="125" Value="D4" Duration="3" Instrument="Duty 2" FinePitch="1"
				Note Time="128" Value="B3" Duration="6" Instrument="Duty 2"
				Note Time="133" Volume="1"
				Note Time="136" Value="D4" Duration="8" Instrument="Duty 2" Volume="3"
				Note Time="144" Value="C#4" Duration="3" Instrument="Duty 2" FinePitch="0"
				Note Time="147" Value="D4" Duration="2" Instrument="Duty 2" FinePitch="1"
				Note Time="149" Value="C#4" Duration="3" Instrument="Duty 2" FinePitch="0"
				Note Time="152" Value="A3" Duration="6" Instrument="Duty 2" FinePitch="1"
				Note Time="157" Volume="1"
				Note Time="160" Value="B3" Duration="8" Instrument="Duty 2" Volume="3"
				Note Time="168" Value="C#4" Duration="8" Instrument="Duty 2" FinePitch="0"
				Note Time="176" Value="D4" Duration="6" Instrument="Duty 2" FinePitch="1"
				Note Time="181" Volume="1"
				Note Time="184" Value="D4" Duration="8" Instrument="Duty 2" Volume="3"
				Note Time="192" Value="C#4" Duration="8" Instrument="Duty 2" FinePitch="0"
				Note Time="200" Value="B3" Duration="5" Instrument="Duty 2" FinePitch="1"
				Note Time="204" Volume="1"
				Note Time="208" Value="B4" Duration="1" Instrument="Duty 2" Volume="3"
				Note Time="209" Value="A4" Duration="7" Instrument="Duty 2"
				Note Time="216" Value="E4" Duration="8" Instrument="Duty 2" FinePitch="0"
				Note Time="224" Value="D4" Duration="7" Instrument="Duty 2" FinePitch="1"
				Note Time="231" Value="E4" Duration="1" Instrument="Duty 2" FinePitch="0"
				Note Time="232" Value="C#4" Duration="8" Instrument="Duty 2"
				Note Time="240" Value="B3" Duration="8" Instrument="Duty 2" FinePitch="1"
				Note Time="248" Value="A3" Duration="8" Instrument="Duty 2"
			Pattern Name="Pattern 9"
				Note Time="0" Value="E3" Duration="8" Instrument="Duty 2"
				Note Time="8" Value="F#3" Duration="8" Instrument="Duty 2"
				Note Time="16" Value="G3" Duration="6" Instrument="Duty 2"
				Note Time="21" Volume="1"
				Note Time="24" Value="B3" Duration="8" Instrument="Duty 2" Volume="3"
				Note Time="32" Value="C#4" Duration="8" Instrument="Duty 2" FinePitch="0"
				Note Time="40" Value="D4" Duration="6" Instrument="Duty 2" FinePitch="1"
				Note Time="45" Volume="1"
				Note Time="48" Value="E4" Duration="8" Instrument="Duty 2" Volume="3" FinePitch="0"
				Note Time="56" Value="D4" Duration="3" Instrument="Duty 2" FinePitch="1"
				Note Time="59" Value="E4" Duration="2" Instrument="Duty 2" FinePitch="0"
				Note Time="61" Value="D4" Duration="3" Instrument="Duty 2" FinePitch="1"
				Note Time="64" Value="B3" Duration="6" Instrument="Duty 2"
				Note Time="69" Volume="1"
				Note Time="72" Value="D4" Duration="8" Instrument="Duty 2" Volume="3"
				Note Time="80" Value="C#4" Duration="3" Instrument="Duty 2" FinePitch="0"
				Note Time="83" Value="D4" Duration="2" Instrument="Duty 2" FinePitch="1"
				Note Time="85" Value="C#4" Duration="3" Instrument="Duty 2" FinePitch="0"
				Note Time="88" Value="A3" Duration="6" Instrument="Duty 2" FinePitch="1"
				Note Time="93" Volume="1"
				Note Time="96" Value="B3" Duration="8" Instrument="Duty 2" Volume="3"
				Note Time="104" Value="C#4" Duration="8" Instrument="Duty 2" FinePitch="0"
				Note Time="112" Value="D4" Duration="6" Instrument="Duty 2" FinePitch="1"
				Note Time="117" Volume="1"
				Note Time="120" Value="D4" Duration="8" Instrument="Duty 2" Volume="3"
				Note Time="128" Value="C#4" Duration="8" Instrument="Duty 2" FinePitch="0"
				Note Time="136" Value="B3" Duration="5" Instrument="Duty 2" FinePitch="1"
				Note Time="140" Volume="1"
				Note Time="144" Value="B4" Duration="1" Instrument="Duty 2" Volume="3"
				Note Time="145" Value="A4" Duration="7" Instrument="Duty 2"
				Note Time="152" Value="E4" Duration="8" Instrument="Duty 2" FinePitch="0"
				Note Time="160" Value="D4" Duration="7" Instrument="Duty 2" FinePitch="1"
				Note Time="167" Value="E4" Duration="1" Instrument="Duty 2" FinePitch="0"
				Note Time="168" Value="C#4" Duration="8" Instrument="Duty 2"
				Note Time="176" Value="B3" Duration="8" Instrument="Duty 2" FinePitch="1"
				Note Time="184" Value="A3" Duration="8" Instrument="Duty 2"
				Note Time="192" Value="F#2" Duration="3" Instrument="Duty 0" Volume="4" FinePitch="0"
				Note Time="195" Value="D3" Duration="3" Instrument="Duty 0"
				Note Time="197" Volume="3"
				Note Time="198" Value="F#2" Duration="3" Instrument="Duty 0" FinePitch="1"
				Note Time="201" Value="D3" Duration="3" Instrument="Duty 0" FinePitch="0"
				Note Time="203" Volume="2"
				Note Time="204" Value="F#2" Duration="3" Instrument="Duty 0" FinePitch="1"
				Note Time="207" Value="D3" Duration="1" Instrument="Duty 0" FinePitch="0"
				Note Time="208" Value="E2" Duration="3" Instrument="Duty 0" Volume="4"
				Note Time="211" Value="C#3" Duration="3" Instrument="Duty 0"
				Note Time="213" Volume="3"
				Note Time="214" Value="E2" Duration="2" Instrument="Duty 0" FinePitch="1"
				Note Time="216" Value="F#2" Duration="3" Instrument="Duty 0" Volume="4" FinePitch="0"
				Note Time="219" Value="D3" Duration="3" Instrument="Duty 0"
				Note Time="221" Volume="3"
				Note Time="222" Value="F#2" Duration="3" Instrument="Duty 0" FinePitch="1"
				Note Time="225" Value="D3" Duration="3" Instrument="Duty 0" FinePitch="0"
				Note Time="227" Volume="2"
				Note Time="228" Value="F#2" Duration="3" Instrument="Duty 0" FinePitch="1"
				Note Time="231" Value="D3" Duration="1" Instrument="Duty 0" FinePitch="0"
				Note Time="232" Value="G#2" Duration="3" Instrument="Duty 0" Volume="4"
				Note Time="235" Value="E3" Duration="3" Instrument="Duty 0" FinePitch="1"
				Note Time="237" Volume="3"
				Note Time="238" Value="G#2" Duration="2" Instrument="Duty 0"
				Note Time="240" Value="A2" Duration="3" Instrument="Duty 0" Volume="4"
				Note Time="243" Value="F#3" Duration="3" Instrument="Duty 0"
				Note Time="245" Volume="3"
				Note Time="246" Value="A2" Duration="2" Instrument="Duty 0" FinePitch="2"
				Note Time="248" Value="G#2" Duration="3" Instrument="Duty 0" Volume="4" FinePitch="0"
				Note Time="251" Value="E3" Duration="3" Instrument="Duty 0" FinePitch="1"
				Note Time="253" Volume="3"
				Note Time="254" Value="G#2" Duration="2" Instrument="Duty 0"
			Pattern Name="Pattern 10"
				Note Time="0" Value="F#2" Duration="3" Instrument="Duty 0" Volume="4" FinePitch="0"
				Note Time="3" Value="D3" Duration="3" Instrument="Duty 0"
				Note Time="5" Volume="3"
				Note Time="6" Value="F#2" Duration="3" Instrument="Duty 0" FinePitch="1"
				Note Time="9" Value="D3" Duration="3" Instrument="Duty 0" FinePitch="0"
				Note Time="11" Volume="2"
				Note Time="12" Value="F#2" Duration="3" Instrument="Duty 0" FinePitch="1"
				Note Time="15" Value="D3" Duration="1" Instrument="Duty 0" FinePitch="0"
				Note Time="16" Value="E2" Duration="3" Instrument="Duty 0" Volume="4"
				Note Time="19" Value="C#3" Duration="3" Instrument="Duty 0"
				Note Time="21" Volume="3"
				Note Time="22" Value="E2" Duration="3" Instrument="Duty 0" FinePitch="1"
				Note Time="25" Value="C#3" Duration="3" Instrument="Duty 0" FinePitch="0"
				Note Time="27" Volume="2"
				Note Time="28" Value="E2" Duration="3" Instrument="Duty 0" FinePitch="1"
				Note Time="31" Value="C#3" Duration="1" Instrument="Duty 0" FinePitch="0"
				Note Time="32" Value="F#2" Duration="3" Instrument="Duty 0" Volume="4"
				Note Time="35" Value="D3" Duration="3" Instrument="Duty 0"
				Note Time="37" Volume="3"
				Note Time="38" Value="F#2" Duration="3" Instrument="Duty 0" FinePitch="1"
				Note Time="41" Value="D3" Duration="3" Instrument="Duty 0" FinePitch="0"
				Note Time="43" Volume="2"
				Note Time="44" Value="F#2" Duration="3" Instrument="Duty 0" FinePitch="1"
				Note Time="47" Value="D3" Duration="3" Instrument="Duty 0" FinePitch="0"
				Note Time="49" Volume="1"
				Note Time="50" Value="F#2" Duration="3" Instrument="Duty 0" FinePitch="1"
				Note Time="53" Value="D3" Duration="2" Instrument="Duty 0" FinePitch="0"
				Note Time="56" Value="B2" Duration="3" Instrument="Duty 0" Volume="4"
				Note Time="59" Value="G#3" Duration="3" Instrument="Duty 0" FinePitch="1"
				Note Time="61" Volume="3"
				Note Time="62" Value="B2" Duration="3" Instrument="Duty 0"
				Note Time="65" Value="G#3" Duration="3" Instrument="Duty 0"
				Note Time="67" Volume="2"
				Note Time="68" Value="B2" Duration="3" Instrument="Duty 0"
				Note Time="71" Value="G#3" Duration="3" Instrument="Duty 0"
				Note Time="73" Volume="1"
				Note Time="74" Value="B2" Duration="3" Instrument="Duty 0"
				Note Time="77" Value="G#3" Duration="2" Instrument="Duty 0"
				Note Time="80" Value="A2" Duration="3" Instrument="Duty 0" Volume="4"
				Note Time="83" Value="F#3" Duration="3" Instrument="Duty 0"
				Note Time="85" Volume="3"
				Note Time="86" Value="A2" Duration="3" Instrument="Duty 0" FinePitch="2"
				Note Time="89" Value="F#3" Duration="3" Instrument="Duty 0" FinePitch="1"
				Note Time="91" Volume="2"
				Note Time="92" Value="A2" Duration="3" Instrument="Duty 0" FinePitch="2"
				Note Time="95" Value="F#3" Duration="3" Instrument="Duty 0" FinePitch="1"
				Note Time="97" Volume="1"
				Note Time="98" Value="A2" Duration="3" Instrument="Duty 0" FinePitch="2"
				Note Time="101" Value="F#3" Duration="2" Instrument="Duty 0" FinePitch="1"
				Note Time="104" Value="G#2" Duration="3" Instrument="Duty 0" Volume="4" FinePitch="0"
				Note Time="107" Value="E3" Duration="3" Instrument="Duty 0" FinePitch="1"
				Note Time="109" Volume="3"
				Note Time="110" Value="G#2" Duration="3" Instrument="Duty 0"
				Note Time="113" Value="E3" Duration="3" Instrument="Duty 0"
				Note Time="115" Volume="2"
				Note Time="116" Value="G#2" Duration="3" Instrument="Duty 0"
				Note Time="119" Value="E3" Duration="3" Instrument="Duty 0"
				Note Time="121" Volume="1"
				Note Time="122" Value="G#2" Duration="3" Instrument="Duty 0"
				Note Time="125" Value="E3" Duration="2" Instrument="Duty 0"
				Note Time="128" Value="F#2" Duration="3" Instrument="Duty 0" Volume="4" FinePitch="0"
				Note Time="131" Value="D3" Duration="3" Instrument="Duty 0"
				Note Time="133" Volume="3"
				Note Time="134" Value="F#2" Duration="3" Instrument="Duty 0" FinePitch="1"
				Note Time="137" Value="D3" Duration="3" Instrument="Duty 0" FinePitch="0"
				Note Time="139" Volume="2"
				Note Time="140" Value="F#2" Duration="3" Instrument="Duty 0" FinePitch="1"
				Note Time="143" Value="D3" Duration="1" Instrument="Duty 0" FinePitch="0"
				Note Time="144" Value="E2" Duration="3" Instrument="Duty 0" Volume="4"
				Note Time="147" Value="C#3" Duration="3" Instrument="Duty 0"
				Note Time="149" Volume="3"
				Note Time="150" Value="E2" Duration="2" Instrument="Duty 0" FinePitch="1"
				Note Time="152" Value="F#2" Duration="3" Instrument="Duty 0" Volume="4" FinePitch="0"
				Note Time="155" Value="D3" Duration="3" Instrument="Duty 0"
				Note Time="157" Volume="3"
				Note Time="158" Value="F#2" Duration="3" Instrument="Duty 0" FinePitch="1"
				Note Time="161" Value="D3" Duration="3" Instrument="Duty 0" FinePitch="0"
				Note Time="163" Volume="2"
				Note Time="164" Value="F#2" Duration="3" Instrument="Duty 0" FinePitch="1"
				Note Time="167" Value="D3" Duration="1" Instrument="Duty 0" FinePitch="0"
				Note Time="168" Value="G#2" Duration="3" Instrument="Duty 0" Volume="4"
				Note Time="171" Value="E3" Duration="3" Instrument="Duty 0" FinePitch="1"
				Note Time="173" Volume="3"
				Note Time="174" Value="G#2" Duration="2" Instrument="Duty 0"
				Note Time="176" Value="A2" Duration="3" Instrument="Duty 0" Volume="4"
				Note Time="179" Value="F#3" Duration="3" Instrument="Duty 0"
				Note Time="181" Volume="3"
				Note Time="182" Value="A2" Duration="2" Instrument="Duty 0" FinePitch="2"
				Note Time="184" Value="G#2" Duration="3" Instrument="Duty 0" Volume="4" FinePitch="0"
				Note Time="187" Value="E3" Duration="3" Instrument="Duty 0" FinePitch="1"
				Note Time="189" Volume="3"
				Note Time="190" Value="G#2" Duration="2" Instrument="Duty 0"
				Note Time="192" Value="F#2" Duration="3" Instrument="Duty 0" Volume="4" FinePitch="0"
				Note Time="195" Value="D3" Duration="3" Instrument="Duty 0"
				Note Time="197" Volume="3"
				Note Time="198" Value="F#2" Duration="3" Instrument="Duty 0" FinePitch="1"
				Note Time="201" Value="D3" Duration="3" Instrument="Duty 0" FinePitch="0"
				Note Time="203" Volume="2"
				Note Time="204" Value="F#2" Duration="3" Instrument="Duty 0" FinePitch="1"
				Note Time="207" Value="D3" Duration="1" Instrument="Duty 0" FinePitch="0"
				Note Time="208" Value="E2" Duration="3" Instrument="Duty 0" Volume="4"
				Note Time="211" Value="C#3" Duration="3" Instrument="Duty 0"
				Note Time="213" Volume="3"
				Note Time="214" Value="E2" Duration="3" Instrument="Duty 0" FinePitch="1"
				Note Time="217" Value="C#3" Duration="3" Instrument="Duty 0" FinePitch="0"
				Note Time="219" Volume="2"
				Note Time="220" Value="E2" Duration="3" Instrument="Duty 0" FinePitch="1"
				Note Time="223" Value="C#3" Duration="1" Instrument="Duty 0" FinePitch="0"
				Note Time="224" Value="F#2" Duration="3" Instrument="Duty 0" Volume="4"
				Note Time="227" Value="D3" Duration="3" Instrument="Duty 0"
				Note Time="229" Volume="3"
				Note Time="230" Value="F#2" Duration="3" Instrument="Duty 0" FinePitch="1"
				Note Time="233" Value="D3" Duration="3" Instrument="Duty 0" FinePitch="0"
				Note Time="235" Volume="2"
				Note Time="236" Value="F#2" Duration="3" Instrument="Duty 0" FinePitch="1"
				Note Time="239" Value="D3" Duration="3" Instrument="Duty 0" FinePitch="0"
				Note Time="241" Volume="1"
				Note Time="242" Value="F#2" Duration="3" Instrument="Duty 0" FinePitch="1"
				Note Time="245" Value="D3" Duration="2" Instrument="Duty 0" FinePitch="0"
				Note Time="248" Value="B2" Duration="3" Instrument="Duty 0" Volume="4"
				Note Time="251" Value="G#3" Duration="3" Instrument="Duty 0" FinePitch="1"
				Note Time="253" Volume="3"
				Note Time="254" Value="B2" Duration="3" Instrument="Duty 0"
			Pattern Name="Pattern 11"
				Note Time="1" Value="G#3" Duration="3" Instrument="Duty 0"
				Note Time="3" Volume="2"
				Note Time="4" Value="B2" Duration="3" Instrument="Duty 0"
				Note Time="7" Value="G#3" Duration="3" Instrument="Duty 0"
				Note Time="9" Volume="1"
				Note Time="10" Value="B2" Duration="3" Instrument="Duty 0"
				Note Time="13" Value="G#3" Duration="2" Instrument="Duty 0"
				Note Time="16" Value="A2" Duration="3" Instrument="Duty 0" Volume="4"
				Note Time="19" Value="F#3" Duration="3" Instrument="Duty 0"
				Note Time="21" Volume="3"
				Note Time="22" Value="A2" Duration="3" Instrument="Duty 0" FinePitch="2"
				Note Time="25" Value="F#3" Duration="3" Instrument="Duty 0" FinePitch="1"
				Note Time="27" Volume="2"
				Note Time="28" Value="A2" Duration="3" Instrument="Duty 0" FinePitch="2"
				Note Time="31" Value="F#3" Duration="3" Instrument="Duty 0" FinePitch="1"
				Note Time="33" Volume="1"
				Note Time="34" Value="A2" Duration="3" Instrument="Duty 0" FinePitch="2"
				Note Time="37" Value="F#3" Duration="2" Instrument="Duty 0" FinePitch="1"
				Note Time="40" Value="G#2" Duration="3" Instrument="Duty 0" Volume="4" FinePitch="0"
				Note Time="43" Value="E3" Duration="3" Instrument="Duty 0" FinePitch="1"
				Note Time="45" Volume="3"
				Note Time="46" Value="G#2" Duration="3" Instrument="Duty 0"
				Note Time="49" Value="E3" Duration="3" Instrument="Duty 0"
				Note Time="51" Volume="2"
				Note Time="52" Value="G#2" Duration="3" Instrument="Duty 0"
				Note Time="55" Value="E3" Duration="3" Instrument="Duty 0"
				Note Time="57" Volume="1"
				Note Time="58" Value="G#2" Duration="3" Instrument="Duty 0"
				Note Time="61" Value="E3" Duration="2" Instrument="Duty 0"
				Note Time="64" Value="F#2" Duration="3" Instrument="Duty 0" Volume="4" FinePitch="0"
				Note Time="67" Value="D3" Duration="3" Instrument="Duty 0"
				Note Time="69" Volume="3"
				Note Time="70" Value="F#2" Duration="3" Instrument="Duty 0" FinePitch="1"
				Note Time="73" Value="D3" Duration="3" Instrument="Duty 0" FinePitch="0"
				Note Time="75" Volume="2"
				Note Time="76" Value="F#2" Duration="3" Instrument="Duty 0" FinePitch="1"
				Note Time="79" Value="D3" Duration="1" Instrument="Duty 0" FinePitch="0"
				Note Time="80" Value="E2" Duration="3" Instrument="Duty 0" Volume="4"
				Note Time="83" Value="C#3" Duration="3" Instrument="Duty 0"
				Note Time="85" Volume="3"
				Note Time="86" Value="E2" Duration="2" Instrument="Duty 0" FinePitch="1"
				Note Time="88" Value="F#2" Duration="3" Instrument="Duty 0" Volume="4" FinePitch="0"
				Note Time="91" Value="D3" Duration="3" Instrument="Duty 0"
				Note Time="93" Volume="3"
				Note Time="94" Value="F#2" Duration="3" Instrument="Duty 0" FinePitch="1"
				Note Time="97" Value="D3" Duration="3" Instrument="Duty 0" FinePitch="0"
				Note Time="99" Volume="2"
				Note Time="100" Value="F#2" Duration="3" Instrument="Duty 0" FinePitch="1"
				Note Time="103" Value="D3" Duration="1" Instrument="Duty 0" FinePitch="0"
				Note Time="104" Value="G#2" Duration="3" Instrument="Duty 0" Volume="4"
				Note Time="107" Value="E3" Duration="3" Instrument="Duty 0" FinePitch="1"
				Note Time="109" Volume="3"
				Note Time="110" Value="G#2" Duration="2" Instrument="Duty 0"
				Note Time="112" Value="A2" Duration="3" Instrument="Duty 0" Volume="4"
				Note Time="115" Value="F#3" Duration="3" Instrument="Duty 0"
				Note Time="117" Volume="3"
				Note Time="118" Value="A2" Duration="2" Instrument="Duty 0" FinePitch="2"
				Note Time="120" Value="G#2" Duration="3" Instrument="Duty 0" Volume="4" FinePitch="0"
				Note Time="123" Value="E3" Duration="3" Instrument="Duty 0" FinePitch="1"
				Note Time="125" Volume="3"
				Note Time="126" Value="G#2" Duration="2" Instrument="Duty 0"
				Note Time="128" Value="F#2" Duration="3" Instrument="Duty 0" Volume="4" FinePitch="0"
				Note Time="131" Value="D3" Duration="3" Instrument="Duty 0"
				Note Time="133" Volume="3"
				Note Time="134" Value="F#2" Duration="3" Instrument="Duty 0" FinePitch="1"
				Note Time="137" Value="D3" Duration="3" Instrument="Duty 0" FinePitch="0"
				Note Time="139" Volume="2"
				Note Time="140" Value="F#2" Duration="3" Instrument="Duty 0" FinePitch="1"
				Note Time="143" Value="D3" Duration="1" Instrument="Duty 0" FinePitch="0"
				Note Time="144" Value="E2" Duration="3" Instrument="Duty 0" Volume="4"
				Note Time="147" Value="C#3" Duration="3" Instrument="Duty 0"
				Note Time="149" Volume="3"
				Note Time="150" Value="E2" Duration="3" Instrument="Duty 0" FinePitch="1"
				Note Time="153" Value="C#3" Duration="3" Instrument="Duty 0" FinePitch="0"
				Note Time="155" Volume="2"
				Note Time="156" Value="E2" Duration="3" Instrument="Duty 0" FinePitch="1"
				Note Time="159" Value="C#3" Duration="1" Instrument="Duty 0" FinePitch="0"
				Note Time="160" Value="F#2" Duration="3" Instrument="Duty 0" Volume="4"
				Note Time="163" Value="D3" Duration="3" Instrument="Duty 0"
				Note Time="165" Volume="3"
				Note Time="166" Value="F#2" Duration="3" Instrument="Duty 0" FinePitch="1"
				Note Time="169" Value="D3" Duration="3" Instrument="Duty 0" FinePitch="0"
				Note Time="171" Volume="2"
				Note Time="172" Value="F#2" Duration="3" Instrument="Duty 0" FinePitch="1"
				Note Time="175" Value="D3" Duration="3" Instrument="Duty 0" FinePitch="0"
				Note Time="177" Volume="1"
				Note Time="178" Value="F#2" Duration="3" Instrument="Duty 0" FinePitch="1"
				Note Time="181" Value="D3" Duration="2" Instrument="Duty 0" FinePitch="0"
				Note Time="184" Value="B2" Duration="3" Instrument="Duty 0" Volume="4"
				Note Time="187" Value="G#3" Duration="3" Instrument="Duty 0" FinePitch="1"
				Note Time="189" Volume="3"
				Note Time="190" Value="B2" Duration="3" Instrument="Duty 0"
				Note Time="193" Value="G#3" Duration="3" Instrument="Duty 0"
				Note Time="195" Volume="2"
				Note Time="196" Value="B2" Duration="3" Instrument="Duty 0"
				Note Time="199" Value="G#3" Duration="3" Instrument="Duty 0"
				Note Time="201" Volume="1"
				Note Time="202" Value="B2" Duration="3" Instrument="Duty 0"
				Note Time="205" Value="G#3" Duration="2" Instrument="Duty 0"
				Note Time="208" Value="A2" Duration="3" Instrument="Duty 0" Volume="4"
				Note Time="211" Value="F#3" Duration="3" Instrument="Duty 0"
				Note Time="213" Volume="3"
				Note Time="214" Value="A2" Duration="3" Instrument="Duty 0" FinePitch="2"
				Note Time="217" Value="F#3" Duration="3" Instrument="Duty 0" FinePitch="1"
				Note Time="219" Volume="2"
				Note Time="220" Value="A2" Duration="3" Instrument="Duty 0" FinePitch="2"
				Note Time="223" Value="F#3" Duration="3" Instrument="Duty 0" FinePitch="1"
				Note Time="225" Volume="1"
				Note Time="226" Value="A2" Duration="3" Instrument="Duty 0" FinePitch="2"
				Note Time="229" Value="F#3" Duration="2" Instrument="Duty 0" FinePitch="1"
				Note Time="232" Value="G#2" Duration="3" Instrument="Duty 0" Volume="4" FinePitch="0"
				Note Time="235" Value="E3" Duration="3" Instrument="Duty 0" FinePitch="1"
				Note Time="237" Volume="3"
				Note Time="238" Value="G#2" Duration="3" Instrument="Duty 0"
				Note Time="241" Value="E3" Duration="3" Instrument="Duty 0"
				Note Time="243" Volume="2"
				Note Time="244" Value="G#2" Duration="3" Instrument="Duty 0"
				Note Time="247" Value="E3" Duration="3" Instrument="Duty 0"
				Note Time="249" Volume="1"
				Note Time="250" Value="G#2" Duration="3" Instrument="Duty 0"
				Note Time="253" Value="E3" Duration="2" Instrument="Duty 0"
			Pattern Name="Pattern 12"
				Note Time="0" Value="F#2" Duration="3" Instrument="Duty 0" Volume="4" FinePitch="0"
				Note Time="3" Value="D3" Duration="3" Instrument="Duty 0"
				Note Time="5" Volume="3"
				Note Time="6" Value="F#2" Duration="3" Instrument="Duty 0" FinePitch="1"
				Note Time="9" Value="D3" Duration="3" Instrument="Duty 0" FinePitch="0"
				Note Time="11" Volume="2"
				Note Time="12" Value="F#2" Duration="3" Instrument="Duty 0" FinePitch="1"
				Note Time="15" Value="D3" Duration="1" Instrument="Duty 0" FinePitch="0"
				Note Time="16" Value="E2" Duration="3" Instrument="Duty 0" Volume="4"
				Note Time="19" Value="C#3" Duration="3" Instrument="Duty 0"
				Note Time="21" Volume="3"
				Note Time="22" Value="E2" Duration="2" Instrument="Duty 0" FinePitch="1"
				Note Time="24" Value="F#2" Duration="3" Instrument="Duty 0" Volume="4" FinePitch="0"
				Note Time="27" Value="D3" Duration="3" Instrument="Duty 0"
				Note Time="29" Volume="3"
				Note Time="30" Value="F#2" Duration="3" Instrument="Duty 0" FinePitch="1"
				Note Time="33" Value="D3" Duration="3" Instrument="Duty 0" FinePitch="0"
				Note Time="35" Volume="2"
				Note Time="36" Value="F#2" Duration="3" Instrument="Duty 0" FinePitch="1"
				Note Time="39" Value="D3" Duration="1" Instrument="Duty 0" FinePitch="0"
				Note Time="40" Value="G#2" Duration="3" Instrument="Duty 0" Volume="4"
				Note Time="43" Value="E3" Duration="3" Instrument="Duty 0" FinePitch="1"
				Note Time="45" Volume="3"
				Note Time="46" Value="G#2" Duration="2" Instrument="Duty 0"
				Note Time="48" Value="A2" Duration="3" Instrument="Duty 0" Volume="4"
				Note Time="51" Value="F#3" Duration="3" Instrument="Duty 0"
				Note Time="53" Volume="3"
				Note Time="54" Value="A2" Duration="2" Instrument="Duty 0" FinePitch="2"
				Note Time="56" Value="G#2" Duration="3" Instrument="Duty 0" Volume="4" FinePitch="0"
				Note Time="59" Value="E3" Duration="3" Instrument="Duty 0" FinePitch="1"
				Note Time="61" Volume="3"
				Note Time="62" Value="G#2" Duration="2" Instrument="Duty 0"
				Note Time="64" Value="F#2" Duration="3" Instrument="Duty 0" Volume="4" FinePitch="0"
				Note Time="67" Value="D3" Duration="3" Instrument="Duty 0"
				Note Time="69" Volume="3"
				Note Time="70" Value="F#2" Duration="3" Instrument="Duty 0" FinePitch="1"
				Note Time="73" Value="D3" Duration="3" Instrument="Duty 0" FinePitch="0"
				Note Time="75" Volume="2"
				Note Time="76" Value="F#2" Duration="3" Instrument="Duty 0" FinePitch="1"
				Note Time="79" Value="D3" Duration="1" Instrument="Duty 0" FinePitch="0"
				Note Time="80" Value="E2" Duration="3" Instrument="Duty 0" Volume="4"
				Note Time="83" Value="C#3" Duration="3" Instrument="Duty 0"
				Note Time="85" Volume="3"
				Note Time="86" Value="E2" Duration="3" Instrument="Duty 0" FinePitch="1"
				Note Time="89" Value="C#3" Duration="3" Instrument="Duty 0" FinePitch="0"
				Note Time="91" Volume="2"
				Note Time="92" Value="E2" Duration="3" Instrument="Duty 0" FinePitch="1"
				Note Time="95" Value="C#3" Duration="1" Instrument="Duty 0" FinePitch="0"
				Note Time="96" Value="F#2" Duration="3" Instrument="Duty 0" Volume="4"
				Note Time="99" Value="D3" Duration="3" Instrument="Duty 0"
				Note Time="101" Volume="3"
				Note Time="102" Value="F#2" Duration="3" Instrument="Duty 0" FinePitch="1"
				Note Time="105" Value="D3" Duration="3" Instrument="Duty 0" FinePitch="0"
				Note Time="107" Volume="2"
				Note Time="108" Value="F#2" Duration="3" Instrument="Duty 0" FinePitch="1"
				Note Time="111" Value="D3" Duration="3" Instrument="Duty 0" FinePitch="0"
				Note Time="113" Volume="1"
				Note Time="114" Value="F#2" Duration="3" Instrument="Duty 0" FinePitch="1"
				Note Time="117" Value="D3" Duration="2" Instrument="Duty 0" FinePitch="0"
				Note Time="120" Value="B2" Duration="3" Instrument="Duty 0" Volume="4"
				Note Time="123" Value="G#3" Duration="3" Instrument="Duty 0" FinePitch="1"
				Note Time="125" Volume="3"
				Note Time="126" Value="B2" Duration="3" Instrument="Duty 0"
				Note Time="129" Value="G#3" Duration="3" Instrument="Duty 0"
				Note Time="131" Volume="2"
				Note Time="132" Value="B2" Duration="3" Instrument="Duty 0"
				Note Time="135" Value="G#3" Duration="3" Instrument="Duty 0"
				Note Time="137" Volume="1"
				Note Time="138" Value="B2" Duration="3" Instrument="Duty 0"
				Note Time="141" Value="G#3" Duration="2" Instrument="Duty 0"
				Note Time="144" Value="A2" Duration="3" Instrument="Duty 0" Volume="4"
				Note Time="147" Value="F#3" Duration="3" Instrument="Duty 0"
				Note Time="149" Volume="3"
				Note Time="150" Value="A2" Duration="3" Instrument="Duty 0" FinePitch="2"
				Note Time="153" Value="F#3" Duration="3" Instrument="Duty 0" FinePitch="1"
				Note Time="155" Volume="2"
				Note Time="156" Value="A2" Duration="3" Instrument="Duty 0" FinePitch="2"
				Note Time="159" Value="F#3" Duration="3" Instrument="Duty 0" FinePitch="1"
				Note Time="161" Volume="1"
				Note Time="162" Value="A2" Duration="3" Instrument="Duty 0" FinePitch="2"
				Note Time="165" Value="F#3" Duration="2" Instrument="Duty 0" FinePitch="1"
				Note Time="168" Value="G#2" Duration="3" Instrument="Duty 0" Volume="4" FinePitch="0"
				Note Time="171" Value="E3" Duration="3" Instrument="Duty 0" FinePitch="1"
				Note Time="173" Volume="3"
				Note Time="174" Value="G#2" Duration="3" Instrument="Duty 0"
				Note Time="177" Value="E3" Duration="3" Instrument="Duty 0"
				Note Time="179" Volume="2"
				Note Time="180" Value="G#2" Duration="3" Instrument="Duty 0"
				Note Time="183" Value="E3" Duration="3" Instrument="Duty 0"
				Note Time="185" Volume="1"
				Note Time="186" Value="G#2" Duration="3" Instrument="Duty 0"
				Note Time="189" Value="E3" Duration="2" Instrument="Duty 0"
				Note Time="192" Value="F#3" Duration="2" Instrument="Duty 0"
				Note Time="194" Value="C#3" Duration="2" Instrument="Duty 0" FinePitch="0"
				Note Time="196" Value="G#2" Duration="2" Instrument="Duty 0"
				Note Time="198" Value="F#3" Duration="2" Instrument="Duty 0" FinePitch="1"
				Note Time="200" Value="C#3" Duration="2" Instrument="Duty 0" FinePitch="0"
				Note Time="202" Value="G#2" Duration="2" Instrument="Duty 0"
				Note Time="204" Value="F#3" Duration="2" Instrument="Duty 0" FinePitch="1"
				Note Time="206" Value="C#3" Duration="2" Instrument="Duty 0" FinePitch="0"
				Note Time="207" Volume="2"
				Note Time="208" Value="G#2" Duration="2" Instrument="Duty 0"
				Note Time="210" Value="F#3" Duration="2" Instrument="Duty 0" FinePitch="1"
				Note Time="212" Value="C#3" Duration="2" Instrument="Duty 0" FinePitch="0"
				Note Time="214" Value="G#2" Duration="2" Instrument="Duty 0"
				Note Time="216" Value="F#3" Duration="2" Instrument="Duty 0" FinePitch="1"
				Note Time="218" Value="C#3" Duration="2" Instrument="Duty 0" FinePitch="0"
				Note Time="220" Value="G#2" Duration="2" Instrument="Duty 0"
				Note Time="222" Value="F#3" Duration="2" Instrument="Duty 0" FinePitch="1"
				Note Time="223" Volume="3"
				Note Time="224" Value="C#3" Duration="2" Instrument="Duty 0" FinePitch="0"
				Note Time="226" Value="G#2" Duration="2" Instrument="Duty 0"
				Note Time="228" Value="F#3" Duration="2" Instrument="Duty 0" FinePitch="1"
				Note Time="230" Value="C#3" Duration="2" Instrument="Duty 0" FinePitch="0"
				Note Time="232" Value="G#2" Duration="2" Instrument="Duty 0"
				Note Time="234" Value="F#3" Duration="2" Instrument="Duty 0" FinePitch="1"
				Note Time="236" Value="C#3" Duration="2" Instrument="Duty 0" FinePitch="0"
				Note Time="238" Value="G#2" Duration="2" Instrument="Duty 0"
				Note Time="239" Volume="4"
				Note Time="240" Value="A3" Duration="2" Instrument="Duty 0" Volume="3" FinePitch="1"
				Note Time="242" Value="E3" Duration="2" Instrument="Duty 0"
				Note Time="244" Value="B2" Duration="2" Instrument="Duty 0" FinePitch="0"
				Note Time="246" Value="A3" Duration="2" Instrument="Duty 0" FinePitch="1"
				Note Time="248" Value="E3" Duration="2" Instrument="Duty 0"
				Note Time="250" Value="B2" Duration="2" Instrument="Duty 0" FinePitch="0"
				Note Time="252" Value="A3" Duration="2" Instrument="Duty 0" FinePitch="1"
				Note Time="254" Value="E3" Duration="2" Instrument="Duty 0"
			Pattern Name="Pattern 13"
				Note Time="0" Value="B2" Duration="2" Instrument="Duty 0" FinePitch="0"
				Note Time="2" Value="A3" Duration="2" Instrument="Duty 0" FinePitch="1"
				Note Time="4" Value="E3" Duration="2" Instrument="Duty 0"
				Note Time="6" Value="B2" Duration="2" Instrument="Duty 0" FinePitch="0"
				Note Time="8" Value="A3" Duration="2" Instrument="Duty 0" FinePitch="1"
				Note Time="10" Value="E3" Duration="2" Instrument="Duty 0"
				Note Time="12" Value="B2" Duration="2" Instrument="Duty 0" FinePitch="0"
				Note Time="14" Value="A3" Duration="2" Instrument="Duty 0" FinePitch="1"
				Note Time="16" Value="E3" Duration="2" Instrument="Duty 0"
				Note Time="18" Value="B2" Duration="2" Instrument="Duty 0" FinePitch="0"
				Note Time="20" Value="A3" Duration="2" Instrument="Duty 0" FinePitch="1"
				Note Time="22" Value="E3" Duration="2" Instrument="Duty 0"
				Note Time="24" Value="B2" Duration="2" Instrument="Duty 0" FinePitch="0"
				Note Time="26" Value="A3" Duration="2" Instrument="Duty 0" FinePitch="1"
				Note Time="28" Value="E3" Duration="2" Instrument="Duty 0"
				Note Time="30" Value="B2" Duration="2" Instrument="Duty 0" FinePitch="0"
				Note Time="32" Value="B3" Duration="2" Instrument="Duty 0" FinePitch="1"
				Note Time="34" Value="F#3" Duration="2" Instrument="Duty 0"
				Note Time="36" Value="C#3" Duration="2" Instrument="Duty 0" FinePitch="0"
				Note Time="38" Value="B3" Duration="2" Instrument="Duty 0" FinePitch="1"
				Note Time="40" Value="F#3" Duration="2" Instrument="Duty 0"
				Note Time="42" Value="C#3" Duration="2" Instrument="Duty 0" FinePitch="0"
				Note Time="44" Value="B3" Duration="2" Instrument="Duty 0" FinePitch="1"
				Note Time="46" Value="F#3" Duration="2" Instrument="Duty 0"
				Note Time="48" Value="C#3" Duration="2" Instrument="Duty 0" FinePitch="0"
				Note Time="50" Value="B3" Duration="2" Instrument="Duty 0" FinePitch="1"
				Note Time="52" Value="F#3" Duration="2" Instrument="Duty 0"
				Note Time="54" Value="C#3" Duration="2" Instrument="Duty 0" FinePitch="0"
				Note Time="56" Value="B3" Duration="2" Instrument="Duty 0" FinePitch="1"
				Note Time="58" Value="F#3" Duration="2" Instrument="Duty 0"
				Note Time="60" Value="C#3" Duration="2" Instrument="Duty 0" FinePitch="0"
				Note Time="62" Value="B3" Duration="2" Instrument="Duty 0" FinePitch="1"
				Note Time="64" Value="F#3" Duration="2" Instrument="Duty 0"
				Note Time="66" Value="C#3" Duration="2" Instrument="Duty 0" FinePitch="0"
				Note Time="68" Value="B3" Duration="2" Instrument="Duty 0" FinePitch="1"
				Note Time="70" Value="F#3" Duration="2" Instrument="Duty 0"
				Note Time="72" Value="C#3" Duration="2" Instrument="Duty 0" FinePitch="0"
				Note Time="74" Value="B3" Duration="2" Instrument="Duty 0" FinePitch="1"
				Note Time="76" Value="F#3" Duration="2" Instrument="Duty 0"
				Note Time="78" Value="C#3" Duration="2" Instrument="Duty 0" FinePitch="0"
				Note Time="80" Value="E3" Duration="2" Instrument="Duty 0" Volume="4" FinePitch="1"
				Note Time="82" Value="A3" Duration="2" Instrument="Duty 0"
				Note Time="83" Volume="3"
				Note Time="84" Value="B3" Duration="2" Instrument="Duty 0"
				Note Time="86" Value="E4" Duration="2" Instrument="Duty 0" FinePitch="0"
				Note Time="87" Volume="2"
				Note Time="88" Value="E3" Duration="2" Instrument="Duty 0" FinePitch="1"
				Note Time="90" Value="A3" Duration="2" Instrument="Duty 0"
				Note Time="91" Volume="1"
				Note Time="92" Value="B3" Duration="2" Instrument="Duty 0"
				Note Time="94" Value="E4" Duration="1" Instrument="Duty 0" FinePitch="0"
				Note Time="96" Value="E3" Duration="2" Instrument="Duty 0" Volume="4" FinePitch="1"
				Note Time="98" Value="A3" Duration="2" Instrument="Duty 0"
				Note Time="99" Volume="3"
				Note Time="100" Value="B3" Duration="2" Instrument="Duty 0"
				Note Time="102" Value="E4" Duration="2" Instrument="Duty 0" FinePitch="0"
				Note Time="103" Volume="2"
				Note Time="104" Value="E3" Duration="2" Instrument="Duty 0" FinePitch="1"
				Note Time="106" Value="A3" Duration="2" Instrument="Duty 0"
				Note Time="107" Volume="1"
				Note Time="108" Value="B3" Duration="2" Instrument="Duty 0"
				Note Time="110" Value="E4" Duration="1" Instrument="Duty 0" FinePitch="0"
				Note Time="112" Value="E3" Duration="2" Instrument="Duty 0" Volume="4" FinePitch="1"
				Note Time="114" Value="A3" Duration="2" Instrument="Duty 0"
				Note Time="115" Volume="3"
				Note Time="116" Value="B3" Duration="2" Instrument="Duty 0"
				Note Time="118" Value="E4" Duration="2" Instrument="Duty 0" FinePitch="0"
				Note Time="119" Volume="2"
				Note Time="120" Value="E3" Duration="2" Instrument="Duty 0" FinePitch="1"
				Note Time="122" Value="A3" Duration="2" Instrument="Duty 0"
				Note Time="123" Volume="1"
				Note Time="124" Value="B3" Duration="2" Instrument="Duty 0"
				Note Time="126" Value="E4" Duration="1" Instrument="Duty 0" FinePitch="0"
				Note Time="128" Value="F#3" Duration="2" Instrument="Duty 0" FinePitch="1"
				Note Time="130" Value="C#3" Duration="2" Instrument="Duty 0" FinePitch="0"
				Note Time="132" Value="G#2" Duration="2" Instrument="Duty 0"
				Note Time="134" Value="F#3" Duration="2" Instrument="Duty 0" FinePitch="1"
				Note Time="136" Value="C#3" Duration="2" Instrument="Duty 0" FinePitch="0"
				Note Time="138" Value="G#2" Duration="2" Instrument="Duty 0"
				Note Time="140" Value="F#3" Duration="2" Instrument="Duty 0" FinePitch="1"
				Note Time="142" Value="C#3" Duration="2" Instrument="Duty 0" FinePitch="0"
				Note Time="143" Volume="2"
				Note Time="144" Value="G#2" Duration="2" Instrument="Duty 0"
				Note Time="146" Value="F#3" Duration="2" Instrument="Duty 0" FinePitch="1"
				Note Time="148" Value="C#3" Duration="2" Instrument="Duty 0" FinePitch="0"
				Note Time="150" Value="G#2" Duration="2" Instrument="Duty 0"
				Note Time="152" Value="F#3" Duration="2" Instrument="Duty 0" FinePitch="1"
				Note Time="154" Value="C#3" Duration="2" Instrument="Duty 0" FinePitch="0"
				Note Time="156" Value="G#2" Duration="2" Instrument="Duty 0"
				Note Time="158" Value="F#3" Duration="2" Instrument="Duty 0" FinePitch="1"
				Note Time="159" Volume="3"
				Note Time="160" Value="C#3" Duration="2" Instrument="Duty 0" FinePitch="0"
				Note Time="162" Value="G#2" Duration="2" Instrument="Duty 0"
				Note Time="164" Value="F#3" Duration="2" Instrument="Duty 0" FinePitch="1"
				Note Time="166" Value="C#3" Duration="2" Instrument="Duty 0" FinePitch="0"
				Note Time="168" Value="G#2" Duration="2" Instrument="Duty 0"
				Note Time="170" Value="F#3" Duration="2" Instrument="Duty 0" FinePitch="1"
				Note Time="172" Value="C#3" Duration="2" Instrument="Duty 0" FinePitch="0"
				Note Time="174" Value="G#2" Duration="2" Instrument="Duty 0"
				Note Time="175" Volume="4"
				Note Time="176" Value="A3" Duration="2" Instrument="Duty 0" Volume="3" FinePitch="1"
				Note Time="178" Value="E3" Duration="2" Instrument="Duty 0"
				Note Time="180" Value="B2" Duration="2" Instrument="Duty 0" FinePitch="0"
				Note Time="182" Value="A3" Duration="2" Instrument="Duty 0" FinePitch="1"
				Note Time="184" Value="E3" Duration="2" Instrument="Duty 0"
				Note Time="186" Value="B2" Duration="2" Instrument="Duty 0" FinePitch="0"
				Note Time="188" Value="A3" Duration="2" Instrument="Duty 0" FinePitch="1"
				Note Time="190" Value="E3" Duration="2" Instrument="Duty 0"
				Note Time="192" Value="B2" Duration="2" Instrument="Duty 0" FinePitch="0"
				Note Time="194" Value="A3" Duration="2" Instrument="Duty 0" FinePitch="1"
				Note Time="196" Value="E3" Duration="2" Instrument="Duty 0"
				Note Time="198" Value="B2" Duration="2" Instrument="Duty 0" FinePitch="0"
				Note Time="200" Value="A3" Duration="2" Instrument="Duty 0" FinePitch="1"
				Note Time="202" Value="E3" Duration="2" Instrument="Duty 0"
				Note Time="204" Value="B2" Duration="2" Instrument="Duty 0" FinePitch="0"
				Note Time="206" Value="A3" Duration="2" Instrument="Duty 0" FinePitch="1"
				Note Time="208" Value="E3" Duration="2" Instrument="Duty 0"
				Note Time="210" Value="B2" Duration="2" Instrument="Duty 0" FinePitch="0"
				Note Time="212" Value="A3" Duration="2" Instrument="Duty 0" FinePitch="1"
				Note Time="214" Value="E3" Duration="2" Instrument="Duty 0"
				Note Time="216" Value="B2" Duration="2" Instrument="Duty 0" FinePitch="0"
				Note Time="218" Value="A3" Duration="2" Instrument="Duty 0" FinePitch="1"
				Note Time="220" Value="E3" Duration="2" Instrument="Duty 0"
				Note Time="222" Value="B2" Duration="2" Instrument="Duty 0" FinePitch="0"
				Note Time="224" Value="B3" Duration="2" Instrument="Duty 0" FinePitch="1"
				Note Time="226" Value="F#3" Duration="2" Instrument="Duty 0"
				Note Time="228" Value="C#3" Duration="2" Instrument="Duty 0" FinePitch="0"
				Note Time="230" Value="B3" Duration="2" Instrument="Duty 0" FinePitch="1"
				Note Time="232" Value="F#3" Duration="2" Instrument="Duty 0"
				Note Time="234" Value="C#3" Duration="2" Instrument="Duty 0" FinePitch="0"
				Note Time="236" Value="B3" Duration="2" Instrument="Duty 0" FinePitch="1"
				Note Time="238" Value="F#3" Duration="2" Instrument="Duty 0"
				Note Time="240" Value="C#3" Duration="2" Instrument="Duty 0" FinePitch="0"
				Note Time="242" Value="B3" Duration="2" Instrument="Duty 0" FinePitch="1"
				Note Time="244" Value="F#3" Duration="2" Instrument="Duty 0"
				Note Time="246" Value="C#3" Duration="2" Instrument="Duty 0" FinePitch="0"
				Note Time="248" Value="B3" Duration="2" Instrument="Duty 0" FinePitch="1"
				Note Time="250" Value="F#3" Duration="2" Instrument="Duty 0"
				Note Time="252" Value="C#3" Duration="2" Instrument="Duty 0" FinePitch="0"
				Note Time="254" Value="B3" Duration="2" Instrument="Duty 0" FinePitch="1"
			Pattern Name="Pattern 14"
				Note Time="0" Value="F#3" Duration="2" Instrument="Duty 0"
				Note Time="2" Value="C#3" Duration="2" Instrument="Duty 0" FinePitch="0"
				Note Time="4" Value="B3" Duration="2" Instrument="Duty 0" FinePitch="1"
				Note Time="6" Value="F#3" Duration="2" Instrument="Duty 0"
				Note Time="8" Value="C#3" Duration="2" Instrument="Duty 0" FinePitch="0"
				Note Time="10" Value="B3" Duration="2" Instrument="Duty 0" FinePitch="1"
				Note Time="12" Value="F#3" Duration="2" Instrument="Duty 0"
				Note Time="14" Value="C#3" Duration="2" Instrument="Duty 0" FinePitch="0"
				Note Time="16" Value="E3" Duration="2" Instrument="Duty 0" Volume="4" FinePitch="1"
				Note Time="18" Value="A3" Duration="2" Instrument="Duty 0"
				Note Time="19" Volume="3"
				Note Time="20" Value="B3" Duration="2" Instrument="Duty 0"
				Note Time="22" Value="E4" Duration="2" Instrument="Duty 0" FinePitch="0"
				Note Time="23" Volume="2"
				Note Time="24" Value="E3" Duration="2" Instrument="Duty 0" FinePitch="1"
				Note Time="26" Value="A3" Duration="2" Instrument="Duty 0"
				Note Time="27" Volume="1"
				Note Time="28" Value="B3" Duration="2" Instrument="Duty 0"
				Note Time="30" Value="E4" Duration="1" Instrument="Duty 0" FinePitch="0"
				Note Time="32" Value="E3" Duration="2" Instrument="Duty 0" Volume="4" FinePitch="1"
				Note Time="34" Value="A3" Duration="2" Instrument="Duty 0"
				Note Time="35" Volume="3"
				Note Time="36" Value="B3" Duration="2" Instrument="Duty 0"
				Note Time="38" Value="E4" Duration="2" Instrument="Duty 0" FinePitch="0"
				Note Time="39" Volume="2"
				Note Time="40" Value="E3" Duration="2" Instrument="Duty 0" FinePitch="1"
				Note Time="42" Value="A3" Duration="2" Instrument="Duty 0"
				Note Time="43" Volume="1"
				Note Time="44" Value="B3" Duration="2" Instrument="Duty 0"
				Note Time="46" Value="E4" Duration="1" Instrument="Duty 0" FinePitch="0"
				Note Time="48" Value="E3" Duration="2" Instrument="Duty 0" Volume="4" FinePitch="1"
				Note Time="50" Value="A3" Duration="2" Instrument="Duty 0"
				Note Time="51" Volume="3"
				Note Time="52" Value="B3" Duration="2" Instrument="Duty 0"
				Note Time="54" Value="E4" Duration="2" Instrument="Duty 0" FinePitch="0"
				Note Time="55" Volume="2"
				Note Time="56" Value="E3" Duration="2" Instrument="Duty 0" FinePitch="1"
				Note Time="58" Value="A3" Duration="2" Instrument="Duty 0"
				Note Time="59" Volume="1"
				Note Time="60" Value="B3" Duration="2" Instrument="Duty 0"
				Note Time="62" Value="E4" Duration="1" Instrument="Duty 0" FinePitch="0"
				Note Time="64" Value="F#3" Duration="2" Instrument="Duty 0" FinePitch="1"
				Note Time="66" Value="C#3" Duration="2" Instrument="Duty 0" FinePitch="0"
				Note Time="68" Value="G#2" Duration="2" Instrument="Duty 0"
				Note Time="70" Value="F#3" Duration="2" Instrument="Duty 0" FinePitch="1"
				Note Time="72" Value="C#3" Duration="2" Instrument="Duty 0" FinePitch="0"
				Note Time="74" Value="G#2" Duration="2" Instrument="Duty 0"
				Note Time="76" Value="F#3" Duration="2" Instrument="Duty 0" FinePitch="1"
				Note Time="78" Value="C#3" Duration="2" Instrument="Duty 0" FinePitch="0"
				Note Time="79" Volume="2"
				Note Time="80" Value="G#2" Duration="2" Instrument="Duty 0"
				Note Time="82" Value="F#3" Duration="2" Instrument="Duty 0" FinePitch="1"
				Note Time="84" Value="C#3" Duration="2" Instrument="Duty 0" FinePitch="0"
				Note Time="86" Value="G#2" Duration="2" Instrument="Duty 0"
				Note Time="88" Value="F#3" Duration="2" Instrument="Duty 0" FinePitch="1"
				Note Time="90" Value="C#3" Duration="2" Instrument="Duty 0" FinePitch="0"
				Note Time="92" Value="G#2" Duration="2" Instrument="Duty 0"
				Note Time="94" Value="F#3" Duration="2" Instrument="Duty 0" FinePitch="1"
				Note Time="95" Volume="3"
				Note Time="96" Value="C#3" Duration="2" Instrument="Duty 0" FinePitch="0"
				Note Time="98" Value="G#2" Duration="2" Instrument="Duty 0"
				Note Time="100" Value="F#3" Duration="2" Instrument="Duty 0" FinePitch="1"
				Note Time="102" Value="C#3" Duration="2" Instrument="Duty 0" FinePitch="0"
				Note Time="104" Value="G#2" Duration="2" Instrument="Duty 0"
				Note Time="106" Value="F#3" Duration="2" Instrument="Duty 0" FinePitch="1"
				Note Time="108" Value="C#3" Duration="2" Instrument="Duty 0" FinePitch="0"
				Note Time="110" Value="G#2" Duration="2" Instrument="Duty 0"
				Note Time="111" Volume="4"
				Note Time="112" Value="A3" Duration="2" Instrument="Duty 0" Volume="3" FinePitch="1"
				Note Time="114" Value="E3" Duration="2" Instrument="Duty 0"
				Note Time="116" Value="B2" Duration="2" Instrument="Duty 0" FinePitch="0"
				Note Time="118" Value="A3" Duration="2" Instrument="Duty 0" FinePitch="1"
				Note Time="120" Value="E3" Duration="2" Instrument="Duty 0"
				Note Time="122" Value="B2" Duration="2" Instrument="Duty 0" FinePitch="0"
				Note Time="124" Value="A3" Duration="2" Instrument="Duty 0" FinePitch="1"
				Note Time="126" Value="E3" Duration="2" Instrument="Duty 0"
				Note Time="128" Value="B2" Duration="2" Instrument="Duty 0" FinePitch="0"
				Note Time="130" Value="A3" Duration="2" Instrument="Duty 0" FinePitch="1"
				Note Time="132" Value="E3" Duration="2" Instrument="Duty 0"
				Note Time="134" Value="B2" Duration="2" Instrument="Duty 0" FinePitch="0"
				Note Time="136" Value="A3" Duration="2" Instrument="Duty 0" FinePitch="1"
				Note Time="138" Value="E3" Duration="2" Instrument="Duty 0"
				Note Time="140" Value="B2" Duration="2" Instrument="Duty 0" FinePitch="0"
				Note Time="142" Value="A3" Duration="2" Instrument="Duty 0" FinePitch="1"
				Note Time="144" Value="E3" Duration="2" Instrument="Duty 0"
				Note Time="146" Value="B2" Duration="2" Instrument="Duty 0" FinePitch="0"
				Note Time="148" Value="A3" Duration="2" Instrument="Duty 0" FinePitch="1"
				Note Time="150" Value="E3" Duration="2" Instrument="Duty 0"
				Note Time="152" Value="B2" Duration="2" Instrument="Duty 0" FinePitch="0"
				Note Time="154" Value="A3" Duration="2" Instrument="Duty 0" FinePitch="1"
				Note Time="156" Value="E3" Duration="2" Instrument="Duty 0"
				Note Time="158" Value="B2" Duration="2" Instrument="Duty 0" FinePitch="0"
				Note Time="160" Value="B3" Duration="2" Instrument="Duty 0" FinePitch="1"
				Note Time="162" Value="F#3" Duration="2" Instrument="Duty 0"
				Note Time="164" Value="C#3" Duration="2" Instrument="Duty 0" FinePitch="0"
				Note Time="166" Value="B3" Duration="2" Instrument="Duty 0" FinePitch="1"
				Note Time="168" Value="F#3" Duration="2" Instrument="Duty 0"
				Note Time="170" Value="C#3" Duration="2" Instrument="Duty 0" FinePitch="0"
				Note Time="172" Value="B3" Duration="2" Instrument="Duty 0" FinePitch="1"
				Note Time="174" Value="F#3" Duration="2" Instrument="Duty 0"
				Note Time="176" Value="C#3" Duration="2" Instrument="Duty 0" FinePitch="0"
				Note Time="178" Value="B3" Duration="2" Instrument="Duty 0" FinePitch="1"
				Note Time="180" Value="F#3" Duration="2" Instrument="Duty 0"
				Note Time="182" Value="C#3" Duration="2" Instrument="Duty 0" FinePitch="0"
				Note Time="184" Value="B3" Duration="2" Instrument="Duty 0" FinePitch="1"
				Note Time="186" Value="F#3" Duration="2" Instrument="Duty 0"
				Note Time="188" Value="C#3" Duration="2" Instrument="Duty 0" FinePitch="0"
				Note Time="190" Value="B3" Duration="2" Instrument="Duty 0" FinePitch="1"
				Note Time="192" Value="F#3" Duration="2" Instrument="Duty 0"
				Note Time="194" Value="C#3" Duration="2" Instrument="Duty 0" FinePitch="0"
				Note Time="196" Value="B3" Duration="2" Instrument="Duty 0" FinePitch="1"
				Note Time="198" Value="F#3" Duration="2" Instrument="Duty 0"
				Note Time="200" Value="C#3" Duration="2" Instrument="Duty 0" FinePitch="0"
				Note Time="202" Value="B3" Duration="2" Instrument="Duty 0" FinePitch="1"
				Note Time="204" Value="F#3" Duration="2" Instrument="Duty 0"
				Note Time="206" Value="C#3" Duration="2" Instrument="Duty 0" FinePitch="0"
				Note Time="208" Value="E3" Duration="2" Instrument="Duty 0" Volume="4" FinePitch="1"
				Note Time="210" Value="A3" Duration="2" Instrument="Duty 0"
				Note Time="211" Volume="3"
				Note Time="212" Value="B3" Duration="2" Instrument="Duty 0"
				Note Time="214" Value="E4" Duration="2" Instrument="Duty 0" FinePitch="0"
				Note Time="215" Volume="2"
				Note Time="216" Value="E3" Duration="2" Instrument="Duty 0" FinePitch="1"
				Note Time="218" Value="A3" Duration="2" Instrument="Duty 0"
				Note Time="219" Volume="1"
				Note Time="220" Value="B3" Duration="2" Instrument="Duty 0"
				Note Time="222" Value="E4" Duration="1" Instrument="Duty 0" FinePitch="0"
				Note Time="224" Value="E3" Duration="2" Instrument="Duty 0" Volume="4" FinePitch="1"
				Note Time="226" Value="A3" Duration="2" Instrument="Duty 0"
				Note Time="227" Volume="3"
				Note Time="228" Value="B3" Duration="2" Instrument="Duty 0"
				Note Time="230" Value="E4" Duration="2" Instrument="Duty 0" FinePitch="0"
				Note Time="231" Volume="2"
				Note Time="232" Value="E3" Duration="2" Instrument="Duty 0" FinePitch="1"
				Note Time="234" Value="A3" Duration="2" Instrument="Duty 0"
				Note Time="235" Volume="1"
				Note Time="236" Value="B3" Duration="2" Instrument="Duty 0"
				Note Time="238" Value="E4" Duration="1" Instrument="Duty 0" FinePitch="0"
				Note Time="240" Value="E3" Duration="2" Instrument="Duty 0" Volume="4" FinePitch="1"
				Note Time="242" Value="A3" Duration="2" Instrument="Duty 0"
				Note Time="243" Volume="3"
				Note Time="244" Value="B3" Duration="2" Instrument="Duty 0"
				Note Time="246" Value="E4" Duration="2" Instrument="Duty 0" FinePitch="0"
				Note Time="247" Volume="2"
				Note Time="248" Value="E3" Duration="2" Instrument="Duty 0" FinePitch="1"
				Note Time="250" Value="A3" Duration="2" Instrument="Duty 0"
				Note Time="251" Volume="1"
				Note Time="252" Value="B3" Duration="2" Instrument="Duty 0"
				Note Time="254" Value="E4" Duration="1" Instrument="Duty 0" FinePitch="0"
			Pattern Name="Pattern 15"
				Note Time="0" Value="F#3" Duration="2" Instrument="Duty 0" FinePitch="1"
				Note Time="2" Value="C#3" Duration="2" Instrument="Duty 0" FinePitch="0"
				Note Time="4" Value="G#2" Duration="2" Instrument="Duty 0"
				Note Time="6" Value="F#3" Duration="2" Instrument="Duty 0" FinePitch="1"
				Note Time="8" Value="C#3" Duration="2" Instrument="Duty 0" FinePitch="0"
				Note Time="10" Value="G#2" Duration="2" Instrument="Duty 0"
				Note Time="12" Value="F#3" Duration="2" Instrument="Duty 0" FinePitch="1"
				Note Time="14" Value="C#3" Duration="2" Instrument="Duty 0" FinePitch="0"
				Note Time="15" Volume="2"
				Note Time="16" Value="G#2" Duration="2" Instrument="Duty 0"
				Note Time="18" Value="F#3" Duration="2" Instrument="Duty 0" FinePitch="1"
				Note Time="20" Value="C#3" Duration="2" Instrument="Duty 0" FinePitch="0"
				Note Time="22" Value="G#2" Duration="2" Instrument="Duty 0"
				Note Time="24" Value="F#3" Duration="2" Instrument="Duty 0" FinePitch="1"
				Note Time="26" Value="C#3" Duration="2" Instrument="Duty 0" FinePitch="0"
				Note Time="28" Value="G#2" Duration="2" Instrument="Duty 0"
				Note Time="30" Value="F#3" Duration="2" Instrument="Duty 0" FinePitch="1"
				Note Time="31" Volume="3"
				Note Time="32" Value="C#3" Duration="2" Instrument="Duty 0" FinePitch="0"
				Note Time="34" Value="G#2" Duration="2" Instrument="Duty 0"
				Note Time="36" Value="F#3" Duration="2" Instrument="Duty 0" FinePitch="1"
				Note Time="38" Value="C#3" Duration="2" Instrument="Duty 0" FinePitch="0"
				Note Time="40" Value="G#2" Duration="2" Instrument="Duty 0"
				Note Time="42" Value="F#3" Duration="2" Instrument="Duty 0" FinePitch="1"
				Note Time="44" Value="C#3" Duration="2" Instrument="Duty 0" FinePitch="0"
				Note Time="46" Value="G#2" Duration="2" Instrument="Duty 0"
				Note Time="47" Volume="4"
				Note Time="48" Value="A3" Duration="2" Instrument="Duty 0" Volume="3" FinePitch="1"
				Note Time="50" Value="E3" Duration="2" Instrument="Duty 0"
				Note Time="52" Value="B2" Duration="2" Instrument="Duty 0" FinePitch="0"
				Note Time="54" Value="A3" Duration="2" Instrument="Duty 0" FinePitch="1"
				Note Time="56" Value="E3" Duration="2" Instrument="Duty 0"
				Note Time="58" Value="B2" Duration="2" Instrument="Duty 0" FinePitch="0"
				Note Time="60" Value="A3" Duration="2" Instrument="Duty 0" FinePitch="1"
				Note Time="62" Value="E3" Duration="2" Instrument="Duty 0"
				Note Time="64" Value="B2" Duration="2" Instrument="Duty 0" FinePitch="0"
				Note Time="66" Value="A3" Duration="2" Instrument="Duty 0" FinePitch="1"
				Note Time="68" Value="E3" Duration="2" Instrument="Duty 0"
				Note Time="70" Value="B2" Duration="2" Instrument="Duty 0" FinePitch="0"
				Note Time="72" Value="A3" Duration="2" Instrument="Duty 0" FinePitch="1"
				Note Time="74" Value="E3" Duration="2" Instrument="Duty 0"
				Note Time="76" Value="B2" Duration="2" Instrument="Duty 0" FinePitch="0"
				Note Time="78" Value="A3" Duration="2" Instrument="Duty 0" FinePitch="1"
				Note Time="80" Value="E3" Duration="2" Instrument="Duty 0"
				Note Time="82" Value="B2" Duration="2" Instrument="Duty 0" FinePitch="0"
				Note Time="84" Value="A3" Duration="2" Instrument="Duty 0" FinePitch="1"
				Note Time="86" Value="E3" Duration="2" Instrument="Duty 0"
				Note Time="88" Value="B2" Duration="2" Instrument="Duty 0" FinePitch="0"
				Note Time="90" Value="A3" Duration="2" Instrument="Duty 0" FinePitch="1"
				Note Time="92" Value="E3" Duration="2" Instrument="Duty 0"
				Note Time="94" Value="B2" Duration="2" Instrument="Duty 0" FinePitch="0"
				Note Time="96" Value="B3" Duration="2" Instrument="Duty 0" FinePitch="1"
				Note Time="98" Value="F#3" Duration="2" Instrument="Duty 0"
				Note Time="100" Value="C#3" Duration="2" Instrument="Duty 0" FinePitch="0"
				Note Time="102" Value="B3" Duration="2" Instrument="Duty 0" FinePitch="1"
				Note Time="104" Value="F#3" Duration="2" Instrument="Duty 0"
				Note Time="106" Value="C#3" Duration="2" Instrument="Duty 0" FinePitch="0"
				Note Time="108" Value="B3" Duration="2" Instrument="Duty 0" FinePitch="1"
				Note Time="110" Value="F#3" Duration="2" Instrument="Duty 0"
				Note Time="112" Value="C#3" Duration="2" Instrument="Duty 0" FinePitch="0"
				Note Time="114" Value="B3" Duration="2" Instrument="Duty 0" FinePitch="1"
				Note Time="116" Value="F#3" Duration="2" Instrument="Duty 0"
				Note Time="118" Value="C#3" Duration="2" Instrument="Duty 0" FinePitch="0"
				Note Time="120" Value="B3" Duration="2" Instrument="Duty 0" FinePitch="1"
				Note Time="122" Value="F#3" Duration="2" Instrument="Duty 0"
				Note Time="124" Value="C#3" Duration="2" Instrument="Duty 0" FinePitch="0"
				Note Time="126" Value="B3" Duration="2" Instrument="Duty 0" FinePitch="1"
				Note Time="128" Value="F#3" Duration="2" Instrument="Duty 0"
				Note Time="130" Value="C#3" Duration="2" Instrument="Duty 0" FinePitch="0"
				Note Time="132" Value="B3" Duration="2" Instrument="Duty 0" FinePitch="1"
				Note Time="134" Value="F#3" Duration="2" Instrument="Duty 0"
				Note Time="136" Value="C#3" Duration="2" Instrument="Duty 0" FinePitch="0"
				Note Time="138" Value="B3" Duration="2" Instrument="Duty 0" FinePitch="1"
				Note Time="140" Value="F#3" Duration="2" Instrument="Duty 0"
				Note Time="142" Value="C#3" Duration="2" Instrument="Duty 0" FinePitch="0"
				Note Time="144" Value="E3" Duration="2" Instrument="Duty 0" Volume="4" FinePitch="1"
				Note Time="146" Value="A3" Duration="2" Instrument="Duty 0"
				Note Time="147" Volume="3"
				Note Time="148" Value="B3" Duration="2" Instrument="Duty 0"
				Note Time="150" Value="E4" Duration="2" Instrument="Duty 0" FinePitch="0"
				Note Time="151" Volume="2"
				Note Time="152" Value="E3" Duration="2" Instrument="Duty 0" FinePitch="1"
				Note Time="154" Value="A3" Duration="2" Instrument="Duty 0"
				Note Time="155" Volume="1"
				Note Time="156" Value="B3" Duration="2" Instrument="Duty 0"
				Note Time="158" Value="E4" Duration="1" Instrument="Duty 0" FinePitch="0"
				Note Time="160" Value="E3" Duration="2" Instrument="Duty 0" Volume="4" FinePitch="1"
				Note Time="162" Value="A3" Duration="2" Instrument="Duty 0"
				Note Time="163" Volume="3"
				Note Time="164" Value="B3" Duration="2" Instrument="Duty 0"
				Note Time="166" Value="E4" Duration="2" Instrument="Duty 0" FinePitch="0"
				Note Time="167" Volume="2"
				Note Time="168" Value="E3" Duration="2" Instrument="Duty 0" FinePitch="1"
				Note Time="170" Value="A3" Duration="2" Instrument="Duty 0"
				Note Time="171" Volume="1"
				Note Time="172" Value="B3" Duration="2" Instrument="Duty 0"
				Note Time="174" Value="E4" Duration="1" Instrument="Duty 0" FinePitch="0"
				Note Time="176" Value="E3" Duration="2" Instrument="Duty 0" Volume="4" FinePitch="1"
				Note Time="178" Value="A3" Duration="2" Instrument="Duty 0"
				Note Time="179" Volume="3"
				Note Time="180" Value="B3" Duration="2" Instrument="Duty 0"
				Note Time="182" Value="E4" Duration="2" Instrument="Duty 0" FinePitch="0"
				Note Time="183" Volume="2"
				Note Time="184" Value="E3" Duration="2" Instrument="Duty 0" FinePitch="1"
				Note Time="186" Value="A3" Duration="2" Instrument="Duty 0"
				Note Time="187" Volume="1"
				Note Time="188" Value="B3" Duration="2" Instrument="Duty 0"
				Note Time="190" Value="E4" Duration="1" Instrument="Duty 0" FinePitch="0"
				Note Time="192" Value="C#4" Duration="2" Instrument="Duty 0" Volume="2"
				Note Time="194" Value="G#3" Duration="2" Instrument="Duty 0" FinePitch="1"
				Note Time="196" Value="D#3" Duration="2" Instrument="Duty 0" FinePitch="0"
				Note Time="198" Value="C#4" Duration="2" Instrument="Duty 0"
				Note Time="200" Value="G#3" Duration="2" Instrument="Duty 0" FinePitch="1"
				Note Time="202" Value="D#3" Duration="2" Instrument="Duty 0" FinePitch="0"
				Note Time="204" Value="C#4" Duration="2" Instrument="Duty 0"
				Note Time="206" Value="G#3" Duration="2" Instrument="Duty 0" FinePitch="1"
				Note Time="208" Value="D#3" Duration="2" Instrument="Duty 0" FinePitch="0"
				Note Time="210" Value="C#4" Duration="2" Instrument="Duty 0"
				Note Time="212" Value="G#3" Duration="2" Instrument="Duty 0" FinePitch="1"
				Note Time="214" Value="D#3" Duration="2" Instrument="Duty 0" FinePitch="0"
				Note Time="216" Value="C#4" Duration="2" Instrument="Duty 0"
				Note Time="218" Value="G#3" Duration="2" Instrument="Duty 0" FinePitch="1"
				Note Time="220" Value="D#3" Duration="2" Instrument="Duty 0" FinePitch="0"
				Note Time="222" Value="C#4" Duration="2" Instrument="Duty 0"
				Note Time="224" Value="G#3" Duration="2" Instrument="Duty 0" FinePitch="1"
				Note Time="226" Value="D#3" Duration="2" Instrument="Duty 0" FinePitch="0"
				Note Time="228" Value="C#4" Duration="2" Instrument="Duty 0"
				Note Time="230" Value="G#3" Duration="2" Instrument="Duty 0" FinePitch="1"
				Note Time="232" Value="D#3" Duration="2" Instrument="Duty 0" FinePitch="0"
				Note Time="234" Value="C#4" Duration="2" Instrument="Duty 0"
				Note Time="236" Value="G#3" Duration="2" Instrument="Duty 0" FinePitch="1"
				Note Time="238" Value="D#3" Duration="2" Instrument="Duty 0" FinePitch="0"
				Note Time="240" Value="A3" Duration="1" Instrument="Duty 0" Volume="8" FinePitch="1"
				Note Time="241" Value="D4" Duration="1" Instrument="Duty 0" Volume="7"
				Note Time="242" Value="E4" Duration="1" Instrument="Duty 0" Volume="6" FinePitch="0"
				Note Time="243" Value="A4" Duration="1" Instrument="Duty 0" Volume="5" FinePitch="1"
				Note Time="244" Value="A3" Duration="1" Instrument="Duty 0" Volume="4"
				Note Time="245" Value="D4" Duration="1" Instrument="Duty 0" Volume="3"
				Note Time="246" Value="E4" Duration="1" Instrument="Duty 0" Volume="2" FinePitch="0"
				Note Time="247" Value="A4" Duration="1" Instrument="Duty 0" Volume="1" FinePitch="1"
				Note Time="248" Value="A3" Duration="1" Instrument="Duty 0" Volume="8"
				Note Time="249" Value="D4" Duration="1" Instrument="Duty 0" Volume="7"
				Note Time="250" Value="E4" Duration="1" Instrument="Duty 0" Volume="6" FinePitch="0"
				Note Time="251" Value="A4" Duration="1" Instrument="Duty 0" Volume="5" FinePitch="1"
				Note Time="252" Value="A3" Duration="1" Instrument="Duty 0" Volume="4"
				Note Time="253" Value="D4" Duration="1" Instrument="Duty 0" Volume="3"
				Note Time="254" Value="E4" Duration="1" Instrument="Duty 0" Volume="2" FinePitch="0"
				Note Time="255" Value="A4" Duration="1" Instrument="Duty 0" Volume="1" FinePitch="1"
			Pattern Name="Pattern 16"
				Note Time="0" Value="A3" Duration="1" Instrument="Duty 0" Volume="8"
				Note Time="1" Value="D4" Duration="1" Instrument="Duty 0" Volume="7"
				Note Time="2" Value="E4" Duration="1" Instrument="Duty 0" Volume="6" FinePitch="0"
				Note Time="3" Value="A4" Duration="1" Instrument="Duty 0" Volume="5" FinePitch="1"
				Note Time="4" Value="A3" Duration="1" Instrument="Duty 0" Volume="4"
				Note Time="5" Value="D4" Duration="1" Instrument="Duty 0" Volume="3"
				Note Time="6" Value="E4" Duration="1" Instrument="Duty 0" Volume="2" FinePitch="0"
				Note Time="7" Value="A4" Duration="1" Instrument="Duty 0" Volume="1" FinePitch="1"
				Note Time="9" FinePitch="0"
				Note Time="16" Value="A3" Duration="1" Instrument="Duty 0" Volume="8" FinePitch="1"
				Note Time="17" Value="D4" Duration="1" Instrument="Duty 0" Volume="7"
				Note Time="18" Value="E4" Duration="1" Instrument="Duty 0" Volume="6" FinePitch="0"
				Note Time="19" Value="A4" Duration="1" Instrument="Duty 0" Volume="5" FinePitch="1"
				Note Time="20" Value="A3" Duration="1" Instrument="Duty 0" Volume="4"
				Note Time="21" Value="D4" Duration="1" Instrument="Duty 0" Volume="3"
				Note Time="22" Value="E4" Duration="1" Instrument="Duty 0" Volume="2" FinePitch="0"
				Note Time="23" Value="A4" Duration="1" Instrument="Duty 0" Volume="1" FinePitch="1"
				Note Time="25" FinePitch="0"
				Note Time="32" Value="C#4" Duration="2" Instrument="Duty 0" Volume="2"
				Note Time="34" Value="G#3" Duration="2" Instrument="Duty 0" FinePitch="1"
				Note Time="36" Value="D#3" Duration="2" Instrument="Duty 0" FinePitch="0"
				Note Time="38" Value="C#4" Duration="2" Instrument="Duty 0"
				Note Time="40" Value="G#3" Duration="2" Instrument="Duty 0" FinePitch="1"
				Note Time="42" Value="D#3" Duration="2" Instrument="Duty 0" FinePitch="0"
				Note Time="44" Value="C#4" Duration="2" Instrument="Duty 0"
				Note Time="46" Value="G#3" Duration="2" Instrument="Duty 0" FinePitch="1"
				Note Time="48" Value="D#3" Duration="2" Instrument="Duty 0" FinePitch="0"
				Note Time="50" Value="C#4" Duration="2" Instrument="Duty 0"
				Note Time="52" Value="G#3" Duration="2" Instrument="Duty 0" FinePitch="1"
				Note Time="54" Value="D#3" Duration="2" Instrument="Duty 0" FinePitch="0"
				Note Time="56" Value="C#4" Duration="2" Instrument="Duty 0"
				Note Time="58" Value="G#3" Duration="2" Instrument="Duty 0" FinePitch="1"
				Note Time="60" Value="D#3" Duration="2" Instrument="Duty 0" FinePitch="0"
				Note Time="62" Value="C#4" Duration="2" Instrument="Duty 0"
				Note Time="64" Value="G#3" Duration="2" Instrument="Duty 0" FinePitch="1"
				Note Time="66" Value="D#3" Duration="2" Instrument="Duty 0" FinePitch="0"
				Note Time="68" Value="C#4" Duration="2" Instrument="Duty 0"
				Note Time="70" Value="G#3" Duration="2" Instrument="Duty 0" FinePitch="1"
				Note Time="72" Value="D#3" Duration="2" Instrument="Duty 0" FinePitch="0"
				Note Time="74" Value="C#4" Duration="2" Instrument="Duty 0"
				Note Time="76" Value="G#3" Duration="2" Instrument="Duty 0" FinePitch="1"
				Note Time="78" Value="D#3" Duration="2" Instrument="Duty 0" FinePitch="0"
				Note Time="80" Value="A3" Duration="1" Instrument="Duty 0" Volume="8" FinePitch="1"
				Note Time="81" Value="D4" Duration="1" Instrument="Duty 0" Volume="7"
				Note Time="82" Value="E4" Duration="1" Instrument="Duty 0" Volume="6" FinePitch="0"
				Note Time="83" Value="A4" Duration="1" Instrument="Duty 0" Volume="5" FinePitch="1"
				Note Time="84" Value="A3" Duration="1" Instrument="Duty 0" Volume="4"
				Note Time="85" Value="D4" Duration="1" Instrument="Duty 0" Volume="3"
				Note Time="86" Value="E4" Duration="1" Instrument="Duty 0" Volume="2" FinePitch="0"
				Note Time="87" Value="A4" Duration="1" Instrument="Duty 0" Volume="1" FinePitch="1"
				Note Time="88" Value="A3" Duration="1" Instrument="Duty 0" Volume="8"
				Note Time="89" Value="D4" Duration="1" Instrument="Duty 0" Volume="7"
				Note Time="90" Value="E4" Duration="1" Instrument="Duty 0" Volume="6" FinePitch="0"
				Note Time="91" Value="A4" Duration="1" Instrument="Duty 0" Volume="5" FinePitch="1"
				Note Time="92" Value="A3" Duration="1" Instrument="Duty 0" Volume="4"
				Note Time="93" Value="D4" Duration="1" Instrument="Duty 0" Volume="3"
				Note Time="94" Value="E4" Duration="1" Instrument="Duty 0" Volume="2" FinePitch="0"
				Note Time="95" Value="A4" Duration="1" Instrument="Duty 0" Volume="1" FinePitch="1"
				Note Time="96" Value="A3" Duration="1" Instrument="Duty 0" Volume="8"
				Note Time="97" Value="D4" Duration="1" Instrument="Duty 0" Volume="7"
				Note Time="98" Value="E4" Duration="1" Instrument="Duty 0" Volume="6" FinePitch="0"
				Note Time="99" Value="A4" Duration="1" Instrument="Duty 0" Volume="5" FinePitch="1"
				Note Time="100" Value="A3" Duration="1" Instrument="Duty 0" Volume="4"
				Note Time="101" Value="D4" Duration="1" Instrument="Duty 0" Volume="3"
				Note Time="102" Value="E4" Duration="1" Instrument="Duty 0" Volume="2" FinePitch="0"
				Note Time="103" Value="A4" Duration="1" Instrument="Duty 0" Volume="1" FinePitch="1"
				Note Time="105" FinePitch="0"
				Note Time="112" Value="A3" Duration="1" Instrument="Duty 0" Volume="8" FinePitch="1"
				Note Time="113" Value="D4" Duration="1" Instrument="Duty 0" Volume="7"
				Note Time="114" Value="E4" Duration="1" Instrument="Duty 0" Volume="6" FinePitch="0"
				Note Time="115" Value="A4" Duration="1" Instrument="Duty 0" Volume="5" FinePitch="1"
				Note Time="116" Value="A3" Duration="1" Instrument="Duty 0" Volume="4"
				Note Time="117" Value="D4" Duration="1" Instrument="Duty 0" Volume="3"
				Note Time="118" Value="E4" Duration="1" Instrument="Duty 0" Volume="2" FinePitch="0"
				Note Time="119" Value="A4" Duration="1" Instrument="Duty 0" Volume="1" FinePitch="1"
				Note Time="121" FinePitch="0"
				Note Time="128" Value="C#4" Duration="2" Instrument="Duty 0" Volume="2"
				Note Time="130" Value="G#3" Duration="2" Instrument="Duty 0" FinePitch="1"
				Note Time="132" Value="D#3" Duration="2" Instrument="Duty 0" FinePitch="0"
				Note Time="134" Value="C#4" Duration="2" Instrument="Duty 0"
				Note Time="136" Value="G#3" Duration="2" Instrument="Duty 0" FinePitch="1"
				Note Time="138" Value="D#3" Duration="2" Instrument="Duty 0" FinePitch="0"
				Note Time="140" Value="C#4" Duration="2" Instrument="Duty 0"
				Note Time="142" Value="G#3" Duration="2" Instrument="Duty 0" FinePitch="1"
				Note Time="144" Value="D#3" Duration="2" Instrument="Duty 0" FinePitch="0"
				Note Time="146" Value="C#4" Duration="2" Instrument="Duty 0"
				Note Time="148" Value="G#3" Duration="2" Instrument="Duty 0" FinePitch="1"
				Note Time="150" Value="D#3" Duration="2" Instrument="Duty 0" FinePitch="0"
				Note Time="152" Value="C#4" Duration="2" Instrument="Duty 0"
				Note Time="154" Value="G#3" Duration="2" Instrument="Duty 0" FinePitch="1"
				Note Time="156" Value="D#3" Duration="2" Instrument="Duty 0" FinePitch="0"
				Note Time="158" Value="C#4" Duration="2" Instrument="Duty 0"
				Note Time="160" Value="G#3" Duration="2" Instrument="Duty 0" FinePitch="1"
				Note Time="162" Value="D#3" Duration="2" Instrument="Duty 0" FinePitch="0"
				Note Time="164" Value="C#4" Duration="2" Instrument="Duty 0"
				Note Time="166" Value="G#3" Duration="2" Instrument="Duty 0" FinePitch="1"
				Note Time="168" Value="D#3" Duration="2" Instrument="Duty 0" FinePitch="0"
				Note Time="170" Value="C#4" Duration="2" Instrument="Duty 0"
				Note Time="172" Value="G#3" Duration="2" Instrument="Duty 0" FinePitch="1"
				Note Time="174" Value="D#3" Duration="2" Instrument="Duty 0" FinePitch="0"
				Note Time="176" Value="A3" Duration="1" Instrument="Duty 0" Volume="8" FinePitch="1"
				Note Time="177" Value="D4" Duration="1" Instrument="Duty 0" Volume="7"
				Note Time="178" Value="E4" Duration="1" Instrument="Duty 0" Volume="6" FinePitch="0"
				Note Time="179" Value="A4" Duration="1" Instrument="Duty 0" Volume="5" FinePitch="1"
				Note Time="180" Value="A3" Duration="1" Instrument="Duty 0" Volume="4"
				Note Time="181" Value="D4" Duration="1" Instrument="Duty 0" Volume="3"
				Note Time="182" Value="E4" Duration="1" Instrument="Duty 0" Volume="2" FinePitch="0"
				Note Time="183" Value="A4" Duration="1" Instrument="Duty 0" Volume="1" FinePitch="1"
				Note Time="184" Value="A3" Duration="1" Instrument="Duty 0" Volume="8"
				Note Time="185" Value="D4" Duration="1" Instrument="Duty 0" Volume="7"
				Note Time="186" Value="E4" Duration="1" Instrument="Duty 0" Volume="6" FinePitch="0"
				Note Time="187" Value="A4" Duration="1" Instrument="Duty 0" Volume="5" FinePitch="1"
				Note Time="188" Value="A3" Duration="1" Instrument="Duty 0" Volume="4"
				Note Time="189" Value="D4" Duration="1" Instrument="Duty 0" Volume="3"
				Note Time="190" Value="E4" Duration="1" Instrument="Duty 0" Volume="2" FinePitch="0"
				Note Time="191" Value="A4" Duration="1" Instrument="Duty 0" Volume="1" FinePitch="1"
				Note Time="192" Value="A3" Duration="1" Instrument="Duty 0" Volume="8"
				Note Time="193" Value="D4" Duration="1" Instrument="Duty 0" Volume="7"
				Note Time="194" Value="E4" Duration="1" Instrument="Duty 0" Volume="6" FinePitch="0"
				Note Time="195" Value="A4" Duration="1" Instrument="Duty 0" Volume="5" FinePitch="1"
				Note Time="196" Value="A3" Duration="1" Instrument="Duty 0" Volume="4"
				Note Time="197" Value="D4" Duration="1" Instrument="Duty 0" Volume="3"
				Note Time="198" Value="E4" Duration="1" Instrument="Duty 0" Volume="2" FinePitch="0"
				Note Time="199" Value="A4" Duration="1" Instrument="Duty 0" Volume="1" FinePitch="1"
				Note Time="201" FinePitch="0"
				Note Time="208" Value="A3" Duration="1" Instrument="Duty 0" Volume="8" FinePitch="1"
				Note Time="209" Value="D4" Duration="1" Instrument="Duty 0" Volume="7"
				Note Time="210" Value="E4" Duration="1" Instrument="Duty 0" Volume="6" FinePitch="0"
				Note Time="211" Value="A4" Duration="1" Instrument="Duty 0" Volume="5" FinePitch="1"
				Note Time="212" Value="A3" Duration="1" Instrument="Duty 0" Volume="4"
				Note Time="213" Value="D4" Duration="1" Instrument="Duty 0" Volume="3"
				Note Time="214" Value="E4" Duration="1" Instrument="Duty 0" Volume="2" FinePitch="0"
				Note Time="215" Value="A4" Duration="1" Instrument="Duty 0" Volume="1" FinePitch="1"
				Note Time="217" FinePitch="0"
				Note Time="224" Value="C#4" Duration="2" Instrument="Duty 0" Volume="2"
				Note Time="226" Value="G#3" Duration="2" Instrument="Duty 0" FinePitch="1"
				Note Time="228" Value="D#3" Duration="2" Instrument="Duty 0" FinePitch="0"
				Note Time="230" Value="C#4" Duration="2" Instrument="Duty 0"
				Note Time="232" Value="G#3" Duration="2" Instrument="Duty 0" FinePitch="1"
				Note Time="234" Value="D#3" Duration="2" Instrument="Duty 0" FinePitch="0"
				Note Time="236" Value="C#4" Duration="2" Instrument="Duty 0"
				Note Time="238" Value="G#3" Duration="2" Instrument="Duty 0" FinePitch="1"
				Note Time="240" Value="D#3" Duration="2" Instrument="Duty 0" FinePitch="0"
				Note Time="242" Value="C#4" Duration="2" Instrument="Duty 0"
				Note Time="244" Value="G#3" Duration="2" Instrument="Duty 0" FinePitch="1"
				Note Time="246" Value="D#3" Duration="2" Instrument="Duty 0" FinePitch="0"
				Note Time="248" Value="C#4" Duration="2" Instrument="Duty 0"
				Note Time="250" Value="G#3" Duration="2" Instrument="Duty 0" FinePitch="1"
				Note Time="252" Value="D#3" Duration="2" Instrument="Duty 0" FinePitch="0"
				Note Time="254" Value="C#4" Duration="2" Instrument="Duty 0"
			Pattern Name="Pattern 17"
				Note Time="0" Value="G#3" Duration="2" Instrument="Duty 0" FinePitch="1"
				Note Time="2" Value="D#3" Duration="2" Instrument="Duty 0" FinePitch="0"
				Note Time="4" Value="C#4" Duration="2" Instrument="Duty 0"
				Note Time="6" Value="G#3" Duration="2" Instrument="Duty 0" FinePitch="1"
				Note Time="8" Value="D#3" Duration="2" Instrument="Duty 0" FinePitch="0"
				Note Time="10" Value="C#4" Duration="2" Instrument="Duty 0"
				Note Time="12" Value="G#3" Duration="2" Instrument="Duty 0" FinePitch="1"
				Note Time="14" Value="D#3" Duration="2" Instrument="Duty 0" FinePitch="0"
				Note Time="16" Value="A3" Duration="1" Instrument="Duty 0" Volume="8" FinePitch="1"
				Note Time="17" Value="D4" Duration="1" Instrument="Duty 0" Volume="7"
				Note Time="18" Value="E4" Duration="1" Instrument="Duty 0" Volume="6" FinePitch="0"
				Note Time="19" Value="A4" Duration="1" Instrument="Duty 0" Volume="5" FinePitch="1"
				Note Time="20" Value="A3" Duration="1" Instrument="Duty 0" Volume="4"
				Note Time="21" Value="D4" Duration="1" Instrument="Duty 0" Volume="3"
				Note Time="22" Value="E4" Duration="1" Instrument="Duty 0" Volume="2" FinePitch="0"
				Note Time="23" Value="A4" Duration="1" Instrument="Duty 0" Volume="1" FinePitch="1"
				Note Time="24" Value="A3" Duration="1" Instrument="Duty 0" Volume="8"
				Note Time="25" Value="D4" Duration="1" Instrument="Duty 0" Volume="7"
				Note Time="26" Value="E4" Duration="1" Instrument="Duty 0" Volume="6" FinePitch="0"
				Note Time="27" Value="A4" Duration="1" Instrument="Duty 0" Volume="5" FinePitch="1"
				Note Time="28" Value="A3" Duration="1" Instrument="Duty 0" Volume="4"
				Note Time="29" Value="D4" Duration="1" Instrument="Duty 0" Volume="3"
				Note Time="30" Value="E4" Duration="1" Instrument="Duty 0" Volume="2" FinePitch="0"
				Note Time="31" Value="A4" Duration="1" Instrument="Duty 0" Volume="1" FinePitch="1"
				Note Time="32" Value="A3" Duration="1" Instrument="Duty 0" Volume="8"
				Note Time="33" Value="D4" Duration="1" Instrument="Duty 0" Volume="7"
				Note Time="34" Value="E4" Duration="1" Instrument="Duty 0" Volume="6" FinePitch="0"
				Note Time="35" Value="A4" Duration="1" Instrument="Duty 0" Volume="5" FinePitch="1"
				Note Time="36" Value="A3" Duration="1" Instrument="Duty 0" Volume="4"
				Note Time="37" Value="D4" Duration="1" Instrument="Duty 0" Volume="3"
				Note Time="38" Value="E4" Duration="1" Instrument="Duty 0" Volume="2" FinePitch="0"
				Note Time="39" Value="A4" Duration="1" Instrument="Duty 0" Volume="1" FinePitch="1"
				Note Time="41" FinePitch="0"
				Note Time="48" Value="A3" Duration="1" Instrument="Duty 0" Volume="8" FinePitch="1"
				Note Time="49" Value="D4" Duration="1" Instrument="Duty 0" Volume="7"
				Note Time="50" Value="E4" Duration="1" Instrument="Duty 0" Volume="6" FinePitch="0"
				Note Time="51" Value="A4" Duration="1" Instrument="Duty 0" Volume="5" FinePitch="1"
				Note Time="52" Value="A3" Duration="1" Instrument="Duty 0" Volume="4"
				Note Time="53" Value="D4" Duration="1" Instrument="Duty 0" Volume="3"
				Note Time="54" Value="E4" Duration="1" Instrument="Duty 0" Volume="2" FinePitch="0"
				Note Time="55" Value="A4" Duration="1" Instrument="Duty 0" Volume="1" FinePitch="1"
				Note Time="57" FinePitch="0"
				Note Time="64" Value="D4" Duration="16" Instrument="Duty 0" FinePitch="1"
				Note Time="80" Value="A3" Duration="1" Instrument="Duty 0" Volume="8"
				Note Time="81" Value="D4" Duration="1" Instrument="Duty 0" Volume="7"
				Note Time="82" Value="E4" Duration="1" Instrument="Duty 0" Volume="6" FinePitch="0"
				Note Time="83" Value="A4" Duration="1" Instrument="Duty 0" Volume="5" FinePitch="1"
				Note Time="84" Value="A3" Duration="1" Instrument="Duty 0" Volume="4"
				Note Time="85" Value="D4" Duration="1" Instrument="Duty 0" Volume="3"
				Note Time="86" Value="E4" Duration="1" Instrument="Duty 0" Volume="2" FinePitch="0"
				Note Time="87" Value="A4" Duration="1" Instrument="Duty 0" Volume="1" FinePitch="1"
				Note Time="88" Value="A3" Duration="1" Instrument="Duty 0" Volume="8"
				Note Time="89" Value="D4" Duration="1" Instrument="Duty 0" Volume="7"
				Note Time="90" Value="E4" Duration="1" Instrument="Duty 0" Volume="6" FinePitch="0"
				Note Time="91" Value="A4" Duration="1" Instrument="Duty 0" Volume="5" FinePitch="1"
				Note Time="92" Value="A3" Duration="1" Instrument="Duty 0" Volume="4"
				Note Time="93" Value="D4" Duration="1" Instrument="Duty 0" Volume="3"
				Note Time="94" Value="E4" Duration="1" Instrument="Duty 0" Volume="2" FinePitch="0"
				Note Time="95" Value="A4" Duration="1" Instrument="Duty 0" Volume="1" FinePitch="1"
				Note Time="96" Value="A3" Duration="1" Instrument="Duty 0" Volume="8"
				Note Time="97" Value="D4" Duration="1" Instrument="Duty 0" Volume="7"
				Note Time="98" Value="E4" Duration="1" Instrument="Duty 0" Volume="6" FinePitch="0"
				Note Time="99" Value="A4" Duration="1" Instrument="Duty 0" Volume="5" FinePitch="1"
				Note Time="100" Value="A3" Duration="1" Instrument="Duty 0" Volume="4"
				Note Time="101" Value="D4" Duration="1" Instrument="Duty 0" Volume="3"
				Note Time="102" Value="E4" Duration="1" Instrument="Duty 0" Volume="2" FinePitch="0"
				Note Time="103" Value="A4" Duration="1" Instrument="Duty 0" Volume="1" FinePitch="1"
				Note Time="105" FinePitch="0"
				Note Time="112" Value="D#4" Duration="12" Instrument="Duty 2"
				Note Time="113" Volume="2"
				Note Time="124" Value="C#4" Duration="4" Instrument="Duty 2" Volume="1"
				Note Time="125" Volume="2"
				Note Time="128" Value="D#4" Duration="4" Instrument="Duty 2" Volume="1"
				Note Time="129" Volume="2"
				Note Time="132" Value="C#4" Duration="4" Instrument="Duty 2" Volume="1"
				Note Time="133" Volume="2"
				Note Time="136" Value="A#3" Duration="7" Instrument="Duty 2" Volume="1"
				Note Time="137" Volume="2"
				Note Time="142" Volume="1"
				Note Time="148" Value="C#4" Duration="12" Instrument="Duty 2"
				Note Time="149" Volume="2"
				Note Time="160" Value="C4" Duration="9" Instrument="Duty 2" Volume="1"
				Note Time="161" Volume="2"
				Note Time="168" Volume="1"
				Note Time="172" Value="G#3" Duration="9" Instrument="Duty 2" FinePitch="1"
				Note Time="173" Volume="2"
				Note Time="180" Volume="1"
				Note Time="184" Value="G3" Duration="12" Instrument="Duty 2"
				Note Time="185" Volume="2"
				Note Time="196" Value="G#3" Duration="7" Instrument="Duty 2" Volume="1"
				Note Time="197" Volume="2"
				Note Time="202" Volume="1"
				Note Time="208" Value="F3" Duration="12" Instrument="Duty 2"
				Note Time="209" Volume="2"
				Note Time="220" Value="G3" Duration="7" Instrument="Duty 2" Volume="1"
				Note Time="221" Volume="2"
				Note Time="226" Volume="1"
				Note Time="232" Value="D#3" Duration="19" Instrument="Duty 2" FinePitch="0"
				Note Time="233" Volume="2"
				Note Time="250" Volume="1"
			Pattern Name="Pattern 18"
				Note Time="0" Value="C3" Duration="6" Instrument="Duty 2"
				Note Time="1" Volume="2"
				Note Time="6" Value="C#3" Duration="6" Instrument="Duty 2" Volume="1"
				Note Time="7" Volume="2"
				Note Time="12" Value="D#3" Duration="12" Instrument="Duty 2" Volume="1"
				Note Time="13" Volume="2"
				Note Time="24" Value="C#3" Duration="6" Instrument="Duty 2" Volume="1"
				Note Time="25" Volume="2"
				Note Time="30" Value="D#3" Duration="6" Instrument="Duty 2" Volume="1"
				Note Time="31" Volume="2"
				Note Time="36" Value="F3" Duration="12" Instrument="Duty 2" Volume="1" FinePitch="1"
				Note Time="37" Volume="2"
				Note Time="48" Value="D#3" Duration="6" Instrument="Duty 2" Volume="1" FinePitch="0"
				Note Time="49" Volume="2"
				Note Time="54" Value="F3" Duration="6" Instrument="Duty 2" Volume="1" FinePitch="1"
				Note Time="55" Volume="2"
				Note Time="60" Value="G3" Duration="12" Instrument="Duty 2" Volume="1"
				Note Time="61" Volume="2"
				Note Time="72" Value="G#3" Duration="12" Instrument="Duty 2" Volume="1"
				Note Time="73" Volume="2"
				Note Time="84" Value="G3" Duration="7" Instrument="Duty 2" Volume="1"
				Note Time="85" Volume="2"
				Note Time="90" Volume="1"
				Note Time="96" Value="G#3" Duration="7" Instrument="Duty 2"
				Note Time="97" Volume="2"
				Note Time="102" Volume="1"
				Note Time="108" Value="A#3" Duration="12" Instrument="Duty 2" FinePitch="0"
				Note Time="109" Volume="2"
				Note Time="120" Value="C4" Duration="7" Instrument="Duty 2" Volume="1"
				Note Time="121" Volume="2"
				Note Time="126" Volume="1"
				Note Time="132" Value="C#4" Duration="7" Instrument="Duty 2"
				Note Time="133" Volume="2"
				Note Time="138" Volume="1"
				Note Time="144" Value="D#4" Duration="12" Instrument="Duty 2"
				Note Time="145" Volume="2"
				Note Time="156" Value="C#4" Duration="4" Instrument="Duty 2" Volume="1"
				Note Time="157" Volume="2"
				Note Time="160" Value="D#4" Duration="4" Instrument="Duty 2" Volume="1"
				Note Time="161" Volume="2"
				Note Time="164" Value="C#4" Duration="4" Instrument="Duty 2" Volume="1"
				Note Time="165" Volume="2"
				Note Time="168" Value="A#3" Duration="7" Instrument="Duty 2" Volume="1"
				Note Time="169" Volume="2"
				Note Time="174" Volume="1"
				Note Time="180" Value="C#4" Duration="12" Instrument="Duty 2"
				Note Time="181" Volume="2"
				Note Time="192" Value="C4" Duration="9" Instrument="Duty 2" Volume="1"
				Note Time="193" Volume="2"
				Note Time="200" Volume="1"
				Note Time="204" Value="G#3" Duration="9" Instrument="Duty 2" FinePitch="1"
				Note Time="205" Volume="2"
				Note Time="212" Volume="1"
				Note Time="216" Value="G3" Duration="12" Instrument="Duty 2"
				Note Time="217" Volume="2"
				Note Time="228" Value="G#3" Duration="7" Instrument="Duty 2" Volume="1"
				Note Time="229" Volume="2"
				Note Time="234" Volume="1"
				Note Time="240" Value="F3" Duration="12" Instrument="Duty 2"
				Note Time="241" Volume="2"
				Note Time="252" Value="G3" Duration="7" Instrument="Duty 2" Volume="1"
				Note Time="253" Volume="2"
			Pattern Name="Pattern 19"
				Note Time="2" Volume="1"
				Note Time="8" Value="D#3" Duration="19" Instrument="Duty 2" FinePitch="0"
				Note Time="9" Volume="2"
				Note Time="26" Volume="1"
				Note Time="32" Value="C3" Duration="6" Instrument="Duty 2"
				Note Time="33" Volume="2"
				Note Time="38" Value="C#3" Duration="6" Instrument="Duty 2" Volume="1"
				Note Time="39" Volume="2"
				Note Time="44" Value="D#3" Duration="12" Instrument="Duty 2" Volume="1"
				Note Time="45" Volume="2"
				Note Time="56" Value="C#3" Duration="6" Instrument="Duty 2" Volume="1"
				Note Time="57" Volume="2"
				Note Time="62" Value="D#3" Duration="6" Instrument="Duty 2" Volume="1"
				Note Time="63" Volume="2"
				Note Time="68" Value="F3" Duration="12" Instrument="Duty 2" Volume="1" FinePitch="1"
				Note Time="69" Volume="2"
				Note Time="80" Value="D#3" Duration="6" Instrument="Duty 2" Volume="1" FinePitch="0"
				Note Time="81" Volume="2"
				Note Time="86" Value="F3" Duration="6" Instrument="Duty 2" Volume="1" FinePitch="1"
				Note Time="87" Volume="2"
				Note Time="92" Value="G3" Duration="12" Instrument="Duty 2" Volume="1"
				Note Time="93" Volume="2"
				Note Time="104" Value="G#3" Duration="12" Instrument="Duty 2" Volume="1"
				Note Time="105" Volume="2"
				Note Time="116" Value="G3" Duration="7" Instrument="Duty 2" Volume="1"
				Note Time="117" Volume="2"
				Note Time="122" Volume="1"
				Note Time="128" Value="G#3" Duration="7" Instrument="Duty 2"
				Note Time="129" Volume="2"
				Note Time="134" Volume="1"
				Note Time="140" Value="A#3" Duration="12" Instrument="Duty 2" FinePitch="0"
				Note Time="141" Volume="2"
				Note Time="152" Value="C4" Duration="7" Instrument="Duty 2" Volume="1"
				Note Time="153" Volume="2"
				Note Time="158" Volume="1"
				Note Time="164" Value="C#4" Duration="7" Instrument="Duty 2"
				Note Time="165" Volume="2"
				Note Time="170" Volume="1"
				Note Time="176" Value="E5" Duration="11" Instrument="Duty 3" Volume="4"
				Note Time="187" Value="D#5" Duration="1" Instrument="Duty 3" FinePitch="1"
				Note Time="188" Value="D5" Duration="1" Instrument="Duty 3" FinePitch="2"
				Note Time="189" Value="C#5" Duration="1" Instrument="Duty 3" FinePitch="1"
				Note Time="190" Value="C5" Duration="1" Instrument="Duty 3"
				Note Time="191" Value="B4" Duration="1" Instrument="Duty 3" FinePitch="2"
				Note Time="192" Value="A#4" Duration="1" Instrument="Duty 3" FinePitch="1"
				Note Time="193" Value="A4" Duration="1" Instrument="Duty 3" FinePitch="2"
				Note Time="194" Value="G#4" Duration="1" Instrument="Duty 3" FinePitch="1"
				Note Time="195" Value="G4" Duration="1" Instrument="Duty 3"
				Note Time="196" Value="E5" Duration="11" Instrument="Duty 3" Volume="2" FinePitch="0"
				Note Time="207" Value="D#5" Duration="1" Instrument="Duty 3" FinePitch="1"
				Note Time="208" Value="D5" Duration="1" Instrument="Duty 3" FinePitch="2"
				Note Time="209" Value="C#5" Duration="1" Instrument="Duty 3" FinePitch="1"
				Note Time="210" Value="C5" Duration="1" Instrument="Duty 3"
				Note Time="211" Value="B4" Duration="1" Instrument="Duty 3" FinePitch="2"
				Note Time="212" Value="D5" Duration="11" Instrument="Duty 3" Volume="4" FinePitch="1"
				Note Time="223" Value="C#5" Duration="1" Instrument="Duty 3"
				Note Time="224" Value="C5" Duration="1" Instrument="Duty 3"
				Note Time="225" Value="B4" Duration="1" Instrument="Duty 3" FinePitch="2"
				Note Time="226" Value="A#4" Duration="1" Instrument="Duty 3" FinePitch="1"
				Note Time="227" Value="A4" Duration="1" Instrument="Duty 3" FinePitch="2"
				Note Time="228" Value="G#4" Duration="1" Instrument="Duty 3" FinePitch="1"
				Note Time="229" Value="G4" Duration="1" Instrument="Duty 3"
				Note Time="230" Value="F#4" Duration="1" Instrument="Duty 3" FinePitch="2"
				Note Time="231" Value="F4" Duration="1" Instrument="Duty 3"
				Note Time="232" Value="D5" Duration="11" Instrument="Duty 3" Volume="2" FinePitch="1"
				Note Time="243" Value="C#5" Duration="1" Instrument="Duty 3"
				Note Time="244" Value="C5" Duration="1" Instrument="Duty 3"
				Note Time="245" Value="B4" Duration="1" Instrument="Duty 3" FinePitch="2"
				Note Time="246" Value="A#4" Duration="1" Instrument="Duty 3" FinePitch="1"
				Note Time="247" Value="A4" Duration="1" Instrument="Duty 3" FinePitch="2"
				Note Time="248" Value="C#5" Duration="11" Instrument="Duty 3" Volume="4" FinePitch="0"
			Pattern Name="Pattern 20"
				Note Time="3" Value="C5" Duration="1" Instrument="Duty 3" FinePitch="1"
				Note Time="4" Value="B4" Duration="1" Instrument="Duty 3" FinePitch="2"
				Note Time="5" Value="A#4" Duration="1" Instrument="Duty 3" FinePitch="1"
				Note Time="6" Value="A4" Duration="1" Instrument="Duty 3" FinePitch="2"
				Note Time="7" Value="G#4" Duration="1" Instrument="Duty 3" FinePitch="1"
				Note Time="8" Value="G4" Duration="1" Instrument="Duty 3"
				Note Time="9" Value="F#4" Duration="1" Instrument="Duty 3" FinePitch="2"
				Note Time="10" Value="F4" Duration="1" Instrument="Duty 3"
				Note Time="11" Value="E4" Duration="1" Instrument="Duty 3" FinePitch="1"
				Note Time="12" Value="C#5" Duration="11" Instrument="Duty 3" Volume="2" FinePitch="0"
				Note Time="23" Value="C5" Duration="1" Instrument="Duty 3" FinePitch="1"
				Note Time="24" Value="B4" Duration="1" Instrument="Duty 3" FinePitch="2"
				Note Time="25" Value="A#4" Duration="1" Instrument="Duty 3" FinePitch="1"
				Note Time="26" Value="A4" Duration="1" Instrument="Duty 3" FinePitch="2"
				Note Time="27" Value="G#4" Duration="1" Instrument="Duty 3" FinePitch="1"
				Note Time="28" Value="B4" Duration="11" Instrument="Duty 3" Volume="4"
				Note Time="39" Value="A#4" Duration="1" Instrument="Duty 3"
				Note Time="40" Value="A4" Duration="1" Instrument="Duty 3" FinePitch="2"
				Note Time="41" Value="G#4" Duration="1" Instrument="Duty 3" FinePitch="1"
				Note Time="42" Value="G4" Duration="1" Instrument="Duty 3"
				Note Time="43" Value="F#4" Duration="1" Instrument="Duty 3" FinePitch="2"
				Note Time="44" Value="F4" Duration="1" Instrument="Duty 3"
				Note Time="45" Value="E4" Duration="1" Instrument="Duty 3" FinePitch="1"
				Note Time="46" Value="D#4" Duration="1" Instrument="Duty 3"
				Note Time="47" Value="D4" Duration="1" Instrument="Duty 3" FinePitch="2"
				Note Time="48" Value="B4" Duration="11" Instrument="Duty 3" Volume="2" FinePitch="1"
				Note Time="59" Value="A#4" Duration="1" Instrument="Duty 3"
				Note Time="60" Value="A4" Duration="1" Instrument="Duty 3" FinePitch="2"
				Note Time="61" Value="G#4" Duration="1" Instrument="Duty 3" FinePitch="1"
				Note Time="62" Value="G4" Duration="1" Instrument="Duty 3"
				Note Time="63" Value="F#4" Duration="1" Instrument="Duty 3" FinePitch="2"
				Note Time="64" Value="E6" Duration="13" Instrument="Duty 2" Volume="3" FinePitch="1"
				Note Time="77" Value="D#6" Duration="1" Instrument="Duty 2"
				Note Time="78" Value="C#6" Duration="1" Instrument="Duty 2" FinePitch="-1"
				Note Time="79" Value="C6" Duration="1" Instrument="Duty 2"
				Note Time="80" Value="B5" Duration="2" Instrument="Duty 2" FinePitch="-2"
				Note Time="81" FinePitch="1"
				Note Time="82" Value="A#5" Duration="1" Instrument="Duty 2"
				Note Time="83" Value="A5" Duration="1" Instrument="Duty 2"
				Note Time="84" Value="E6" Duration="13" Instrument="Duty 2" Volume="2"
				Note Time="97" Value="D#6" Duration="1" Instrument="Duty 2"
				Note Time="98" Value="C#6" Duration="1" Instrument="Duty 2" FinePitch="-1"
				Note Time="99" Value="C6" Duration="1" Instrument="Duty 2"
				Note Time="100" Value="D6" Duration="13" Instrument="Duty 2" Volume="3" FinePitch="0"
				Note Time="113" Value="C6" Duration="1" Instrument="Duty 2" FinePitch="-1"
				Note Time="114" Value="B5" Duration="2" Instrument="Duty 2" FinePitch="-2"
				Note Time="115" FinePitch="1"
				Note Time="116" Value="A#5" Duration="1" Instrument="Duty 2"
				Note Time="117" Value="A5" Duration="1" Instrument="Duty 2"
				Note Time="118" Value="G5" Duration="2" Instrument="Duty 2" FinePitch="-2"
				Note Time="119" FinePitch="2"
				Note Time="120" Value="D6" Duration="13" Instrument="Duty 2" Volume="2" FinePitch="0"
				Note Time="133" Value="C6" Duration="1" Instrument="Duty 2" FinePitch="-1"
				Note Time="134" Value="B5" Duration="2" Instrument="Duty 2" FinePitch="-2"
				Note Time="135" FinePitch="1"
				Note Time="136" Value="C#6" Duration="13" Instrument="Duty 2" Volume="3"
				Note Time="149" Value="B5" Duration="2" Instrument="Duty 2" FinePitch="-2"
				Note Time="150" FinePitch="1"
				Note Time="151" Value="A#5" Duration="1" Instrument="Duty 2"
				Note Time="152" Value="A5" Duration="1" Instrument="Duty 2"
				Note Time="153" Value="G5" Duration="2" Instrument="Duty 2" FinePitch="-2"
				Note Time="154" FinePitch="2"
				Note Time="155" Value="F#5" Duration="1" Instrument="Duty 2" FinePitch="1"
				Note Time="156" Value="C#6" Duration="13" Instrument="Duty 2" Volume="2"
				Note Time="169" Value="B5" Duration="2" Instrument="Duty 2" FinePitch="-2"
				Note Time="170" FinePitch="1"
				Note Time="171" Value="A#5" Duration="1" Instrument="Duty 2"
				Note Time="172" Value="B5" Duration="13" Instrument="Duty 2" Volume="3" FinePitch="0"
				Note Time="185" Value="A#5" Duration="1" Instrument="Duty 2" FinePitch="1"
				Note Time="186" Value="A5" Duration="1" Instrument="Duty 2"
				Note Time="187" Value="G5" Duration="2" Instrument="Duty 2" FinePitch="-2"
				Note Time="188" FinePitch="2"
				Note Time="189" Value="F#5" Duration="1" Instrument="Duty 2" FinePitch="1"
				Note Time="190" Value="F5" Duration="1" Instrument="Duty 2" FinePitch="2"
				Note Time="191" Value="E5" Duration="1" Instrument="Duty 2" FinePitch="1"
				Note Time="192" Value="B5" Duration="13" Instrument="Duty 2" Volume="2" FinePitch="0"
				Note Time="205" Value="A#5" Duration="1" Instrument="Duty 2" FinePitch="1"
				Note Time="206" Value="A5" Duration="1" Instrument="Duty 2"
				Note Time="207" Value="G5" Duration="1" Instrument="Duty 2" FinePitch="-2"
				Note Time="208" Value="G#5" Duration="1" Instrument="Duty 2" FinePitch="1"
				Note Time="209" Value="F#5" Duration="1" Instrument="Duty 2" Volume="4"
				Note Time="210" Value="E5" Duration="11" Instrument="Duty 2"
				Note Time="220" Volume="2" FinePitch="0"
				Note Time="221" Value="D5" Duration="4" Instrument="Duty 2" Volume="4" FinePitch="2"
				Note Time="224" Volume="2" FinePitch="1"
				Note Time="225" Value="E5" Duration="4" Instrument="Duty 2" Volume="4"
				Note Time="228" Volume="2" FinePitch="0"
				Note Time="229" Value="D5" Duration="4" Instrument="Duty 2" Volume="4" FinePitch="2"
				Note Time="232" Volume="2" FinePitch="1"
				Note Time="233" Value="C5" Duration="1" Instrument="Duty 2" Volume="4"
				Note Time="234" Value="B4" Duration="5" Instrument="Duty 2"
				Note Time="238" Volume="2"
				Note Time="244" Value="B4" Duration="1" Instrument="Duty 2"
				Note Time="245" Value="C#5" Duration="1" Instrument="Duty 2" Volume="4" FinePitch="0"
				Note Time="246" Value="D5" Duration="11" Instrument="Duty 2" FinePitch="2"
			Pattern Name="Pattern 21"
				Note Time="0" Volume="2" FinePitch="1"
				Note Time="1" Value="C#5" Duration="8" Instrument="Duty 2" Volume="4" FinePitch="0"
				Note Time="8" Volume="2"
				Note Time="12" Value="C#5" Duration="1" Instrument="Duty 2"
				Note Time="13" Value="B4" Duration="1" Instrument="Duty 2" Volume="4" FinePitch="2"
				Note Time="14" Value="A4" Duration="7" Instrument="Duty 2"
				Note Time="20" Volume="2"
				Note Time="24" Value="A4" Duration="1" Instrument="Duty 2" FinePitch="1"
				Note Time="25" Value="G#4" Duration="12" Instrument="Duty 2" Volume="4" FinePitch="0"
				Note Time="36" Volume="2"
				Note Time="37" Value="A4" Duration="6" Instrument="Duty 2" Volume="4" FinePitch="2"
				Note Time="42" Volume="2"
				Note Time="48" Value="A4" Duration="1" Instrument="Duty 2" FinePitch="1"
				Note Time="49" Value="G4" Duration="1" Instrument="Duty 2" Volume="4"
				Note Time="50" Value="F#4" Duration="11" Instrument="Duty 2"
				Note Time="60" Volume="2"
				Note Time="61" Value="G#4" Duration="6" Instrument="Duty 2" Volume="4"
				Note Time="66" Volume="2"
				Note Time="72" Value="G#4" Duration="1" Instrument="Duty 2" FinePitch="0"
				Note Time="73" Value="F#4" Duration="1" Instrument="Duty 2" Volume="4" FinePitch="2"
				Note Time="74" Value="E4" Duration="17" Instrument="Duty 2" FinePitch="1"
				Note Time="90" Volume="2"
				Note Time="96" Value="E4" Duration="1" Instrument="Duty 2" FinePitch="0"
				Note Time="97" Value="D4" Duration="1" Instrument="Duty 2" Volume="4" FinePitch="2"
				Note Time="98" Value="C#4" Duration="5" Instrument="Duty 2" FinePitch="0"
				Note Time="102" Volume="2"
				Note Time="103" Value="D4" Duration="6" Instrument="Duty 2" Volume="4" FinePitch="2"
				Note Time="108" Volume="2" FinePitch="1"
				Note Time="109" Value="E4" Duration="12" Instrument="Duty 2" Volume="4"
				Note Time="120" Volume="2" FinePitch="0"
				Note Time="121" Value="D4" Duration="6" Instrument="Duty 2" Volume="4" FinePitch="2"
				Note Time="126" Volume="2" FinePitch="1"
				Note Time="127" Value="E4" Duration="6" Instrument="Duty 2" Volume="4"
				Note Time="132" Volume="2" FinePitch="0"
				Note Time="133" Value="F#4" Duration="12" Instrument="Duty 2" Volume="4" FinePitch="2"
				Note Time="144" Volume="2" FinePitch="1"
				Note Time="145" Value="E4" Duration="6" Instrument="Duty 2" Volume="4"
				Note Time="150" Volume="2" FinePitch="0"
				Note Time="151" Value="F#4" Duration="6" Instrument="Duty 2" Volume="4" FinePitch="2"
				Note Time="156" Volume="2" FinePitch="1"
				Note Time="157" Value="G#4" Duration="12" Instrument="Duty 2" Volume="4"
				Note Time="168" Volume="2" FinePitch="0"
				Note Time="169" Value="A4" Duration="12" Instrument="Duty 2" Volume="4" FinePitch="2"
				Note Time="180" Volume="2" FinePitch="1"
				Note Time="181" Value="G#4" Duration="6" Instrument="Duty 2" Volume="4" FinePitch="0"
				Note Time="186" Volume="2"
				Note Time="192" Value="G#4" Duration="1" Instrument="Duty 2"
				Note Time="193" Value="A4" Duration="6" Instrument="Duty 2" Volume="4" FinePitch="2"
				Note Time="198" Volume="2"
				Note Time="204" Value="A4" Duration="1" Instrument="Duty 2" FinePitch="1"
				Note Time="205" Value="B4" Duration="12" Instrument="Duty 2" Volume="4" FinePitch="2"
				Note Time="216" Volume="2" FinePitch="1"
				Note Time="217" Value="C#5" Duration="6" Instrument="Duty 2" Volume="4"
				Note Time="222" Volume="2"
				Note Time="228" Value="C#5" Duration="1" Instrument="Duty 2" FinePitch="0"
				Note Time="229" Value="D5" Duration="6" Instrument="Duty 2" Volume="4" FinePitch="2"
				Note Time="234" Volume="2"
				Note Time="240" Value="G#3" Duration="1" Instrument="Duty 2" Volume="1"
				Note Time="241" Value="D#5" Duration="1" Instrument="Duty 2" Volume="3" FinePitch="0"
				Note Time="242" Value="G#3" Duration="4" Instrument="Duty 2" FinePitch="2"
				Note Time="246" Value="C#4" Duration="1" Instrument="Duty 2" Volume="1" FinePitch="1"
				Note Time="247" Value="G#5" Duration="1" Instrument="Duty 2" Volume="3"
				Note Time="248" Value="C#4" Duration="4" Instrument="Duty 2"
				Note Time="252" Value="F4" Duration="1" Instrument="Duty 2" Volume="1" FinePitch="2"
				Note Time="253" Value="C6" Duration="1" Instrument="Duty 2" Volume="3" FinePitch="1"
				Note Time="254" Value="F4" Duration="10" Instrument="Duty 2" FinePitch="2"
			Pattern Name="Pattern 22"
				Note Time="8" Value="C#4" Duration="1" Instrument="Duty 2" Volume="1" FinePitch="1"
				Note Time="9" Value="G#5" Duration="1" Instrument="Duty 2" Volume="3"
				Note Time="10" Value="C#4" Duration="4" Instrument="Duty 2"
				Note Time="14" Value="F4" Duration="1" Instrument="Duty 2" Volume="1" FinePitch="2"
				Note Time="15" Value="C6" Duration="1" Instrument="Duty 2" Volume="3" FinePitch="1"
				Note Time="16" Value="F4" Duration="4" Instrument="Duty 2" FinePitch="2"
				Note Time="20" Value="G#4" Duration="1" Instrument="Duty 2" Volume="1" FinePitch="1"
				Note Time="21" Value="D#6" Duration="1" Instrument="Duty 2" Volume="3" FinePitch="0"
				Note Time="22" Value="G#4" Duration="10" Instrument="Duty 2" FinePitch="1"
				Note Time="32" Value="F4" Duration="1" Instrument="Duty 2" Volume="1" FinePitch="2"
				Note Time="33" Value="C6" Duration="1" Instrument="Duty 2" Volume="3" FinePitch="1"
				Note Time="34" Value="F4" Duration="4" Instrument="Duty 2" FinePitch="2"
				Note Time="38" Value="G#4" Duration="1" Instrument="Duty 2" Volume="1" FinePitch="1"
				Note Time="39" Value="D#6" Duration="1" Instrument="Duty 2" Volume="3" FinePitch="0"
				Note Time="40" Value="G#4" Duration="4" Instrument="Duty 2" FinePitch="1"
				Note Time="44" Value="C#5" Duration="1" Instrument="Duty 2" Volume="1"
				Note Time="45" Value="G#6" Duration="1" Instrument="Duty 2" Volume="3" FinePitch="0"
				Note Time="46" Value="C#5" Duration="10" Instrument="Duty 2" FinePitch="1"
				Note Time="56" Value="D#5" Duration="1" Instrument="Duty 2" Volume="1"
				Note Time="57" Value="A#6" Duration="1" Instrument="Duty 2" Volume="3" FinePitch="0"
				Note Time="58" Value="D#5" Duration="10" Instrument="Duty 2" FinePitch="1"
				Note Time="68" Value="C#5" Duration="1" Instrument="Duty 2" Volume="1"
				Note Time="69" Value="G#6" Duration="1" Instrument="Duty 2" Volume="3" FinePitch="0"
				Note Time="70" Value="C#5" Duration="2" Instrument="Duty 2" FinePitch="1"
				Note Time="72" Value="D#5" Duration="1" Instrument="Duty 2" Volume="1"
				Note Time="73" Value="A#6" Duration="1" Instrument="Duty 2" Volume="3" FinePitch="0"
				Note Time="74" Value="D#5" Duration="2" Instrument="Duty 2" FinePitch="1"
				Note Time="76" Value="C#5" Duration="1" Instrument="Duty 2" Volume="1"
				Note Time="77" Value="G#6" Duration="1" Instrument="Duty 2" Volume="3" FinePitch="0"
				Note Time="78" Value="C#5" Duration="2" Instrument="Duty 2" FinePitch="1"
				Note Time="80" Value="F4" Duration="1" Instrument="Duty 2" Volume="1" FinePitch="2"
				Note Time="81" Value="C6" Duration="1" Instrument="Duty 2" Volume="3" FinePitch="1"
				Note Time="82" Value="F4" Duration="10" Instrument="Duty 2" FinePitch="2"
				Note Time="92" Value="G4" Duration="1" Instrument="Duty 2" Volume="1" FinePitch="1"
				Note Time="93" Value="D6" Duration="1" Instrument="Duty 2" Volume="3" FinePitch="0"
				Note Time="94" Value="G4" Duration="10" Instrument="Duty 2" FinePitch="1"
				Note Time="104" Value="G#4" Duration="1" Instrument="Duty 2" Volume="1"
				Note Time="105" Value="D#6" Duration="1" Instrument="Duty 2" Volume="3" FinePitch="0"
				Note Time="106" Value="G#4" Duration="10" Instrument="Duty 2" FinePitch="1"
				Note Time="116" Value="C#5" Duration="1" Instrument="Duty 2" Volume="1"
				Note Time="117" Value="G#6" Duration="1" Instrument="Duty 2" Volume="3" FinePitch="0"
				Note Time="118" Value="C#5" Duration="10" Instrument="Duty 2" FinePitch="1"
				Note Time="128" Value="B4" Duration="1" Instrument="Duty 2" Volume="1" FinePitch="2"
				Note Time="129" Value="F#6" Duration="1" Instrument="Duty 2" Volume="3" FinePitch="0"
				Note Time="130" Value="B4" Duration="10" Instrument="Duty 2" FinePitch="2"
				Note Time="140" Value="A#4" Duration="1" Instrument="Duty 2" Volume="1" FinePitch="1"
				Note Time="141" Value="E6" Duration="1" Instrument="Duty 2" Volume="3" FinePitch="-1"
				Note Time="142" Value="A#4" Duration="2" Instrument="Duty 2" FinePitch="1"
				Note Time="144" Value="B4" Duration="1" Instrument="Duty 2" Volume="1" FinePitch="2"
				Note Time="145" Value="F#6" Duration="1" Instrument="Duty 2" Volume="3" FinePitch="0"
				Note Time="146" Value="B4" Duration="2" Instrument="Duty 2" FinePitch="2"
				Note Time="148" Value="A#4" Duration="1" Instrument="Duty 2" Volume="1" FinePitch="1"
				Note Time="149" Value="E6" Duration="1" Instrument="Duty 2" Volume="3" FinePitch="-1"
				Note Time="150" Value="A#4" Duration="2" Instrument="Duty 2" FinePitch="1"
				Note Time="152" Value="G#4" Duration="1" Instrument="Duty 2" Volume="1"
				Note Time="153" Value="D#6" Duration="1" Instrument="Duty 2" Volume="3" FinePitch="0"
				Note Time="154" Value="G#4" Duration="10" Instrument="Duty 2" FinePitch="1"
				Note Time="164" Value="F#4" Duration="1" Instrument="Duty 2" Volume="1" FinePitch="2"
				Note Time="165" Value="C#6" Duration="1" Instrument="Duty 2" Volume="3" FinePitch="1"
				Note Time="166" Value="F#4" Duration="10" Instrument="Duty 2" FinePitch="2"
				Note Time="176" Value="F4" Duration="1" Instrument="Duty 2" Volume="1"
				Note Time="177" Value="C6" Duration="1" Instrument="Duty 2" Volume="3" FinePitch="1"
				Note Time="178" Value="F4" Duration="2" Instrument="Duty 2" FinePitch="2"
				Note Time="180" Value="F#4" Duration="1" Instrument="Duty 2" Volume="1"
				Note Time="181" Value="C#6" Duration="1" Instrument="Duty 2" Volume="3" FinePitch="1"
				Note Time="182" Value="F#4" Duration="2" Instrument="Duty 2" FinePitch="2"
				Note Time="184" Value="F4" Duration="1" Instrument="Duty 2" Volume="1"
				Note Time="185" Value="C6" Duration="1" Instrument="Duty 2" Volume="3" FinePitch="1"
				Note Time="186" Value="F4" Duration="2" Instrument="Duty 2" FinePitch="2"
				Note Time="188" Value="D#4" Duration="1" Instrument="Duty 2" Volume="1" FinePitch="1"
				Note Time="189" Value="A#5" Duration="1" Instrument="Duty 2" Volume="3" FinePitch="0"
				Note Time="190" Value="D#4" Duration="10" Instrument="Duty 2" FinePitch="1"
				Note Time="200" Value="F4" Duration="1" Instrument="Duty 2" Volume="1" FinePitch="2"
				Note Time="201" Value="C6" Duration="1" Instrument="Duty 2" Volume="3" FinePitch="1"
				Note Time="202" Value="F4" Duration="10" Instrument="Duty 2" FinePitch="2"
				Note Time="212" Value="F#4" Duration="1" Instrument="Duty 2" Volume="1"
				Note Time="213" Value="C#6" Duration="1" Instrument="Duty 2" Volume="3" FinePitch="1"
				Note Time="214" Value="F#4" Duration="10" Instrument="Duty 2" FinePitch="2"
				Note Time="224" Value="D#4" Duration="1" Instrument="Duty 2" Volume="1" FinePitch="1"
				Note Time="225" Value="A#5" Duration="1" Instrument="Duty 2" Volume="3" FinePitch="0"
				Note Time="226" Value="D#4" Duration="10" Instrument="Duty 2" FinePitch="1"
				Note Time="236" Value="C#4" Duration="1" Instrument="Duty 2" Volume="1"
				Note Time="237" Value="G#5" Duration="1" Instrument="Duty 2" Volume="3"
				Note Time="238" Value="C#4" Duration="10" Instrument="Duty 2"
				Note Time="248" Value="B3" Duration="1" Instrument="Duty 2" Volume="1" FinePitch="2"
				Note Time="249" Value="F#5" Duration="1" Instrument="Duty 2" Volume="3" FinePitch="0"
				Note Time="250" Value="B3" Duration="10" Instrument="Duty 2" FinePitch="2"
			Pattern Name="Pattern 23"
				Note Time="4" Value="C#4" Duration="1" Instrument="Duty 2" Volume="1" FinePitch="1"
				Note Time="5" Value="G#5" Duration="1" Instrument="Duty 2" Volume="3"
				Note Time="6" Value="C#4" Duration="10" Instrument="Duty 2"
				Note Time="16" Value="A3" Duration="1" Instrument="Duty 2" Volume="1" FinePitch="2"
				Note Time="17" Value="E5" Duration="1" Instrument="Duty 2" Volume="3" FinePitch="0"
				Note Time="18" Value="A3" Duration="4" Instrument="Duty 2" FinePitch="2"
				Note Time="22" Value="E3" Duration="1" Instrument="Duty 2" Volume="1"
				Note Time="23" Value="B4" Duration="1" Instrument="Duty 2" Volume="3" FinePitch="1"
				Note Time="24" Value="E3" Duration="4" Instrument="Duty 2" FinePitch="2"
				Note Time="28" Value="A3" Duration="1" Instrument="Duty 2" Volume="1"
				Note Time="29" Value="E5" Duration="1" Instrument="Duty 2" Volume="3" FinePitch="0"
				Note Time="30" Value="A3" Duration="4" Instrument="Duty 2" FinePitch="2"
				Note Time="34" Value="C#4" Duration="1" Instrument="Duty 2" Volume="1" FinePitch="1"
				Note Time="35" Value="G#5" Duration="1" Instrument="Duty 2" Volume="3"
				Note Time="36" Value="C#4" Duration="4" Instrument="Duty 2"
				Note Time="40" Value="E4" Duration="1" Instrument="Duty 2" Volume="1"
				Note Time="41" Value="B5" Duration="1" Instrument="Duty 2" Volume="3" FinePitch="0"
				Note Time="42" Value="E4" Duration="10" Instrument="Duty 2" FinePitch="1"
				Note Time="52" Value="D#4" Duration="1" Instrument="Duty 2" Volume="1"
				Note Time="53" Value="A#5" Duration="1" Instrument="Duty 2" Volume="3" FinePitch="0"
				Note Time="54" Value="D#4" Duration="4" Instrument="Duty 2" FinePitch="1"
				Note Time="58" Value="E4" Duration="1" Instrument="Duty 2" Volume="1"
				Note Time="59" Value="B5" Duration="1" Instrument="Duty 2" Volume="3" FinePitch="0"
				Note Time="60" Value="E4" Duration="4" Instrument="Duty 2" FinePitch="1"
				Note Time="64" Value="D#4" Duration="1" Instrument="Duty 2" Volume="1"
				Note Time="65" Value="A#5" Duration="1" Instrument="Duty 2" Volume="3" FinePitch="0"
				Note Time="66" Value="D#4" Duration="4" Instrument="Duty 2" FinePitch="1"
				Note Time="70" Value="E4" Duration="1" Instrument="Duty 2" Volume="1"
				Note Time="71" Value="B5" Duration="1" Instrument="Duty 2" Volume="3" FinePitch="0"
				Note Time="72" Value="E4" Duration="4" Instrument="Duty 2" FinePitch="1"
				Note Time="76" Value="A4" Duration="1" Instrument="Duty 2" Volume="1" FinePitch="2"
				Note Time="77" Value="E6" Duration="1" Instrument="Duty 2" Volume="3" FinePitch="1"
				Note Time="78" Value="A4" Duration="10" Instrument="Duty 2" FinePitch="2"
				Note Time="88" Value="B4" Duration="1" Instrument="Duty 2" Volume="1"
				Note Time="89" Value="F#6" Duration="1" Instrument="Duty 2" Volume="3" FinePitch="0"
				Note Time="90" Value="B4" Duration="10" Instrument="Duty 2" FinePitch="2"
				Note Time="100" Value="A4" Duration="1" Instrument="Duty 2" Volume="1"
				Note Time="101" Value="E6" Duration="1" Instrument="Duty 2" Volume="3" FinePitch="1"
				Note Time="102" Value="A4" Duration="10" Instrument="Duty 2" FinePitch="2"
				Note Time="112" Value="G#4" Duration="1" Instrument="Duty 2" Volume="1" FinePitch="1"
				Note Time="113" Value="D#6" Duration="1" Instrument="Duty 2" Volume="3" FinePitch="0"
				Note Time="114" Value="G#4" Duration="10" Instrument="Duty 2" FinePitch="1"
				Note Time="124" Value="A4" Duration="1" Instrument="Duty 2" Volume="1" FinePitch="2"
				Note Time="125" Value="E6" Duration="1" Instrument="Duty 2" Volume="3" FinePitch="1"
				Note Time="126" Value="A4" Duration="10" Instrument="Duty 2" FinePitch="2"
				Note Time="136" Value="E4" Duration="1" Instrument="Duty 2" Volume="1" FinePitch="1"
				Note Time="137" Value="B5" Duration="1" Instrument="Duty 2" Volume="3" FinePitch="0"
				Note Time="138" Value="E4" Duration="10" Instrument="Duty 2" FinePitch="1"
				Note Time="148" Value="C#4" Duration="1" Instrument="Duty 2" Volume="1"
				Note Time="149" Value="G#5" Duration="1" Instrument="Duty 2" Volume="3"
				Note Time="150" Value="C#4" Duration="10" Instrument="Duty 2"
				Note Time="160" Value="D4" Duration="1" Instrument="Duty 2" Volume="1" FinePitch="2"
				Note Time="161" Value="A5" Duration="1" Instrument="Duty 2" Volume="3" FinePitch="0"
				Note Time="162" Value="D4" Duration="4" Instrument="Duty 2" FinePitch="2"
				Note Time="166" Value="C#4" Duration="1" Instrument="Duty 2" Volume="1" FinePitch="1"
				Note Time="167" Value="G#5" Duration="1" Instrument="Duty 2" Volume="3"
				Note Time="168" Value="C#4" Duration="4" Instrument="Duty 2"
				Note Time="172" Value="B3" Duration="1" Instrument="Duty 2" Volume="1" FinePitch="2"
				Note Time="173" Value="F#5" Duration="1" Instrument="Duty 2" Volume="3" FinePitch="0"
				Note Time="174" Value="B3" Duration="10" Instrument="Duty 2" FinePitch="2"
				Note Time="184" Value="C#4" Duration="1" Instrument="Duty 2" Volume="1" FinePitch="1"
				Note Time="185" Value="G#5" Duration="1" Instrument="Duty 2" Volume="3"
				Note Time="186" Value="C#4" Duration="4" Instrument="Duty 2"
				Note Time="190" Value="B3" Duration="1" Instrument="Duty 2" Volume="1" FinePitch="2"
				Note Time="191" Value="F#5" Duration="1" Instrument="Duty 2" Volume="3" FinePitch="0"
				Note Time="192" Value="B3" Duration="4" Instrument="Duty 2" FinePitch="2"
				Note Time="196" Value="A3" Duration="1" Instrument="Duty 2" Volume="1"
				Note Time="197" Value="E5" Duration="1" Instrument="Duty 2" Volume="3" FinePitch="0"
				Note Time="198" Value="A3" Duration="10" Instrument="Duty 2" FinePitch="2"
				Note Time="208" Value="B3" Duration="1" Instrument="Duty 2" Volume="1"
				Note Time="209" Value="F#5" Duration="1" Instrument="Duty 2" Volume="3" FinePitch="0"
				Note Time="210" Value="B3" Duration="4" Instrument="Duty 2" FinePitch="2"
				Note Time="214" Value="A3" Duration="1" Instrument="Duty 2" Volume="1"
				Note Time="215" Value="E5" Duration="1" Instrument="Duty 2" Volume="3" FinePitch="0"
				Note Time="216" Value="A3" Duration="4" Instrument="Duty 2" FinePitch="2"
				Note Time="220" Value="G3" Duration="1" Instrument="Duty 2" Volume="1"
				Note Time="221" Value="D5" Duration="1" Instrument="Duty 2" Volume="3" FinePitch="1"
				Note Time="222" Value="G3" Duration="10" Instrument="Duty 2" FinePitch="2"
				Note Time="232" Value="F#2" Duration="1" Instrument="Duty 2" Volume="1" FinePitch="1"
				Note Time="233" Value="C#4" Duration="1" Instrument="Duty 2" Volume="3" FinePitch="0"
				Note Time="234" Value="F#2" Duration="4" Instrument="Duty 2" FinePitch="1"
				Note Time="238" Value="G2" Duration="1" Instrument="Duty 2" Volume="1"
				Note Time="239" Value="D4" Duration="1" Instrument="Duty 2" Volume="3"
				Note Time="240" Value="G2" Duration="4" Instrument="Duty 2"
				Note Time="244" Value="B2" Duration="1" Instrument="Duty 2" Volume="1"
				Note Time="245" Value="F#4" Duration="1" Instrument="Duty 2" Volume="3"
				Note Time="246" Value="B2" Duration="4" Instrument="Duty 2"
				Note Time="250" Value="C#3" Duration="1" Instrument="Duty 2" Volume="1"
				Note Time="251" Value="G#4" Duration="1" Instrument="Duty 2" Volume="3" FinePitch="0"
				Note Time="252" Value="C#3" Duration="4" Instrument="Duty 2" FinePitch="1"
			Pattern Name="Pattern 24"
				Note Time="0" Value="D3" Duration="1" Instrument="Duty 2" Volume="1"
				Note Time="1" Value="A4" Duration="1" Instrument="Duty 2" Volume="3"
				Note Time="2" Value="D3" Duration="4" Instrument="Duty 2"
				Note Time="6" Value="F#3" Duration="1" Instrument="Duty 2" Volume="1" FinePitch="2"
				Note Time="7" Value="C#5" Duration="1" Instrument="Duty 2" Volume="3" FinePitch="0"
				Note Time="8" Value="F#3" Duration="4" Instrument="Duty 2" FinePitch="2"
				Note Time="12" Value="G3" Duration="1" Instrument="Duty 2" Volume="1"
				Note Time="13" Value="D5" Duration="1" Instrument="Duty 2" Volume="3" FinePitch="1"
				Note Time="14" Value="G3" Duration="4" Instrument="Duty 2" FinePitch="2"
				Note Time="18" Value="B3" Duration="1" Instrument="Duty 2" Volume="1"
				Note Time="19" Value="F#5" Duration="1" Instrument="Duty 2" Volume="3" FinePitch="0"
				Note Time="20" Value="B3" Duration="4" Instrument="Duty 2" FinePitch="2"
				Note Time="24" Value="C#4" Duration="1" Instrument="Duty 2" Volume="1" FinePitch="1"
				Note Time="25" Value="G#5" Duration="1" Instrument="Duty 2" Volume="3"
				Note Time="26" Value="C#4" Duration="4" Instrument="Duty 2"
				Note Time="30" Value="D4" Duration="1" Instrument="Duty 2" Volume="1" FinePitch="2"
				Note Time="31" Value="A5" Duration="1" Instrument="Duty 2" Volume="3" FinePitch="0"
				Note Time="32" Value="D4" Duration="4" Instrument="Duty 2" FinePitch="2"
				Note Time="36" Value="F#4" Duration="1" Instrument="Duty 2" Volume="1"
				Note Time="37" Value="C#6" Duration="1" Instrument="Duty 2" Volume="3" FinePitch="1"
				Note Time="38" Value="F#4" Duration="4" Instrument="Duty 2" FinePitch="2"
				Note Time="42" Value="G4" Duration="1" Instrument="Duty 2" Volume="1" FinePitch="1"
				Note Time="43" Value="D6" Duration="1" Instrument="Duty 2" Volume="3" FinePitch="0"
				Note Time="44" Value="G4" Duration="4" Instrument="Duty 2" FinePitch="1"
				Note Time="48" Value="C#5" Duration="12" Instrument="Duty 2" Volume="1" FinePitch="0"
				Note Time="49" Volume="2"
				Note Time="60" Value="B4" Duration="4" Instrument="Duty 2" Volume="1" FinePitch="1"
				Note Time="61" Volume="2"
				Note Time="64" Value="C#5" Duration="4" Instrument="Duty 2" Volume="1" FinePitch="0"
				Note Time="65" Volume="2"
				Note Time="68" Value="B4" Duration="4" Instrument="Duty 2" Volume="1" FinePitch="1"
				Note Time="69" Volume="2"
				Note Time="72" Value="G#4" Duration="7" Instrument="Duty 2" Volume="1" FinePitch="0"
				Note Time="73" Volume="2"
				Note Time="78" Volume="1"
				Note Time="84" Value="B4" Duration="12" Instrument="Duty 2" FinePitch="1"
				Note Time="85" Volume="2"
				Note Time="96" Value="A#4" Duration="9" Instrument="Duty 2" Volume="1" FinePitch="0"
				Note Time="97" Volume="2"
				Note Time="104" Volume="1"
				Note Time="108" Value="F#4" Duration="9" Instrument="Duty 2" FinePitch="1"
				Note Time="109" Volume="2"
				Note Time="116" Volume="1"
				Note Time="120" Value="F4" Duration="12" Instrument="Duty 2"
				Note Time="121" Volume="2"
				Note Time="132" Value="F#4" Duration="7" Instrument="Duty 2" Volume="1"
				Note Time="133" Volume="2"
				Note Time="138" Volume="1"
				Note Time="144" Value="D#4" Duration="12" Instrument="Duty 2" FinePitch="0"
				Note Time="145" Volume="2"
				Note Time="156" Value="F4" Duration="7" Instrument="Duty 2" Volume="1" FinePitch="1"
				Note Time="157" Volume="2"
				Note Time="162" Volume="1"
				Note Time="168" Value="C#4" Duration="19" Instrument="Duty 2" FinePitch="0"
				Note Time="169" Volume="2"
				Note Time="186" Volume="1"
				Note Time="192" Value="A#3" Duration="6" Instrument="Duty 2"
				Note Time="193" Volume="2"
				Note Time="198" Value="B3" Duration="6" Instrument="Duty 2" Volume="1" FinePitch="1"
				Note Time="199" Volume="2"
				Note Time="204" Value="C#4" Duration="12" Instrument="Duty 2" Volume="1" FinePitch="0"
				Note Time="205" Volume="2"
				Note Time="216" Value="B3" Duration="6" Instrument="Duty 2" Volume="1" FinePitch="1"
				Note Time="217" Volume="2"
				Note Time="222" Value="C#4" Duration="6" Instrument="Duty 2" Volume="1" FinePitch="0"
				Note Time="223" Volume="2"
				Note Time="228" Value="D#4" Duration="12" Instrument="Duty 2" Volume="1"
				Note Time="229" Volume="2"
				Note Time="240" Value="C#4" Duration="6" Instrument="Duty 2" Volume="1"
				Note Time="241" Volume="2"
				Note Time="246" Value="D#4" Duration="6" Instrument="Duty 2" Volume="1"
				Note Time="247" Volume="2"
				Note Time="252" Value="F4" Duration="12" Instrument="Duty 2" Volume="1" FinePitch="1"
				Note Time="253" Volume="2"
			Pattern Name="Pattern 25"
				Note Time="8" Value="F#4" Duration="12" Instrument="Duty 2" Volume="1"
				Note Time="9" Volume="2"
				Note Time="20" Value="F4" Duration="7" Instrument="Duty 2" Volume="1"
				Note Time="21" Volume="2"
				Note Time="26" Volume="1"
				Note Time="32" Value="F#4" Duration="7" Instrument="Duty 2"
				Note Time="33" Volume="2"
				Note Time="38" Volume="1"
				Note Time="44" Value="G#4" Duration="12" Instrument="Duty 2" FinePitch="0"
				Note Time="45" Volume="2"
				Note Time="56" Value="A#4" Duration="7" Instrument="Duty 2" Volume="1"
				Note Time="57" Volume="2"
				Note Time="62" Volume="1"
				Note Time="68" Value="B4" Duration="7" Instrument="Duty 2" FinePitch="1"
				Note Time="69" Volume="2"
				Note Time="74" Volume="1"
				Note Time="80" Value="C#5" Duration="12" Instrument="Duty 2" FinePitch="0"
				Note Time="81" Volume="2"
				Note Time="92" Value="B4" Duration="4" Instrument="Duty 2" Volume="1" FinePitch="1"
				Note Time="93" Volume="2"
				Note Time="96" Value="C#5" Duration="4" Instrument="Duty 2" Volume="1" FinePitch="0"
				Note Time="97" Volume="2"
				Note Time="100" Value="B4" Duration="4" Instrument="Duty 2" Volume="1" FinePitch="1"
				Note Time="101" Volume="2"
				Note Time="104" Value="G#4" Duration="7" Instrument="Duty 2" Volume="1" FinePitch="0"
				Note Time="105" Volume="2"
				Note Time="110" Volume="1"
				Note Time="116" Value="B4" Duration="12" Instrument="Duty 2" FinePitch="1"
				Note Time="117" Volume="2"
				Note Time="128" Value="A#4" Duration="9" Instrument="Duty 2" Volume="1" FinePitch="0"
				Note Time="129" Volume="2"
				Note Time="136" Volume="1"
				Note Time="140" Value="F#4" Duration="9" Instrument="Duty 2" FinePitch="1"
				Note Time="141" Volume="2"
				Note Time="148" Volume="1"
				Note Time="152" Value="F4" Duration="12" Instrument="Duty 2"
				Note Time="153" Volume="2"
				Note Time="164" Value="F#4" Duration="7" Instrument="Duty 2" Volume="1"
				Note Time="165" Volume="2"
				Note Time="170" Volume="1"
				Note Time="176" Value="D#4" Duration="12" Instrument="Duty 2" FinePitch="0"
				Note Time="177" Volume="2"
				Note Time="188" Value="F4" Duration="7" Instrument="Duty 2" Volume="1" FinePitch="1"
				Note Time="189" Volume="2"
				Note Time="194" Volume="1"
				Note Time="200" Value="C#4" Duration="19" Instrument="Duty 2" FinePitch="0"
				Note Time="201" Volume="2"
				Note Time="218" Volume="1"
				Note Time="224" Value="A#3" Duration="6" Instrument="Duty 2"
				Note Time="225" Volume="2"
				Note Time="230" Value="B3" Duration="6" Instrument="Duty 2" Volume="1" FinePitch="1"
				Note Time="231" Volume="2"
				Note Time="236" Value="C#4" Duration="12" Instrument="Duty 2" Volume="1" FinePitch="0"
				Note Time="237" Volume="2"
				Note Time="248" Value="B3" Duration="6" Instrument="Duty 2" Volume="1" FinePitch="1"
				Note Time="249" Volume="2"
				Note Time="254" Value="C#4" Duration="6" Instrument="Duty 2" Volume="1" FinePitch="0"
				Note Time="255" Volume="2"
			Pattern Name="Pattern 26"
				Note Time="4" Value="D#4" Duration="12" Instrument="Duty 2" Volume="1"
				Note Time="5" Volume="2"
				Note Time="16" Value="C#4" Duration="6" Instrument="Duty 2" Volume="1"
				Note Time="17" Volume="2"
				Note Time="22" Value="D#4" Duration="6" Instrument="Duty 2" Volume="1"
				Note Time="23" Volume="2"
				Note Time="28" Value="F4" Duration="12" Instrument="Duty 2" Volume="1" FinePitch="1"
				Note Time="29" Volume="2"
				Note Time="40" Value="F#4" Duration="12" Instrument="Duty 2" Volume="1"
				Note Time="41" Volume="2"
				Note Time="52" Value="F4" Duration="7" Instrument="Duty 2" Volume="1"
				Note Time="53" Volume="2"
				Note Time="58" Volume="1"
				Note Time="64" Value="F#4" Duration="7" Instrument="Duty 2"
				Note Time="65" Volume="2"
				Note Time="70" Volume="1"
				Note Time="76" Value="G#4" Duration="12" Instrument="Duty 2" FinePitch="0"
				Note Time="77" Volume="2"
				Note Time="88" Value="A#4" Duration="7" Instrument="Duty 2" Volume="1"
				Note Time="89" Volume="2"
				Note Time="94" Volume="1"
				Note Time="100" Value="B4" Duration="7" Instrument="Duty 2" FinePitch="1"
				Note Time="101" Volume="2"
				Note Time="106" Volume="1"
				Note Time="112" Value="C#5" Duration="12" Instrument="Duty 2" FinePitch="0"
				Note Time="113" Volume="2"
				Note Time="124" Value="B4" Duration="4" Instrument="Duty 2" Volume="1" FinePitch="1"
				Note Time="125" Volume="2"
				Note Time="128" Value="C#5" Duration="4" Instrument="Duty 2" Volume="1" FinePitch="0"
				Note Time="129" Volume="2"
				Note Time="132" Value="B4" Duration="4" Instrument="Duty 2" Volume="1" FinePitch="1"
				Note Time="133" Volume="2"
				Note Time="136" Value="G#4" Duration="7" Instrument="Duty 2" Volume="1" FinePitch="0"
				Note Time="137" Volume="2"
				Note Time="142" Volume="1"
				Note Time="148" Value="B4" Duration="12" Instrument="Duty 2" FinePitch="1"
				Note Time="149" Volume="2"
				Note Time="160" Value="A#4" Duration="9" Instrument="Duty 2" Volume="1" FinePitch="0"
				Note Time="161" Volume="2"
				Note Time="168" Volume="1"
				Note Time="172" Value="F#4" Duration="9" Instrument="Duty 2" FinePitch="1"
				Note Time="173" Volume="2"
				Note Time="180" Volume="1"
				Note Time="184" Value="F4" Duration="12" Instrument="Duty 2"
				Note Time="185" Volume="2"
				Note Time="196" Value="F#4" Duration="7" Instrument="Duty 2" Volume="1"
				Note Time="197" Volume="2"
				Note Time="202" Volume="1"
				Note Time="208" Value="D#4" Duration="12" Instrument="Duty 2" FinePitch="0"
				Note Time="209" Volume="2"
				Note Time="220" Value="F4" Duration="7" Instrument="Duty 2" Volume="1" FinePitch="1"
				Note Time="221" Volume="2"
				Note Time="226" Volume="1"
				Note Time="232" Value="C#4" Duration="19" Instrument="Duty 2" FinePitch="0"
				Note Time="233" Volume="2"
				Note Time="250" Volume="1"
			Pattern Name="Pattern 27"
				Note Time="0" Value="A#3" Duration="6" Instrument="Duty 2"
				Note Time="1" Volume="2"
				Note Time="6" Value="B3" Duration="6" Instrument="Duty 2" Volume="1" FinePitch="1"
				Note Time="7" Volume="2"
				Note Time="12" Value="C#4" Duration="12" Instrument="Duty 2" Volume="1" FinePitch="0"
				Note Time="13" Volume="2"
				Note Time="24" Value="B3" Duration="6" Instrument="Duty 2" Volume="1" FinePitch="1"
				Note Time="25" Volume="2"
				Note Time="30" Value="C#4" Duration="6" Instrument="Duty 2" Volume="1" FinePitch="0"
				Note Time="31" Volume="2"
				Note Time="36" Value="D#4" Duration="12" Instrument="Duty 2" Volume="1"
				Note Time="37" Volume="2"
				Note Time="48" Value="C#4" Duration="6" Instrument="Duty 2" Volume="1"
				Note Time="49" Volume="2"
				Note Time="54" Value="D#4" Duration="6" Instrument="Duty 2" Volume="1"
				Note Time="55" Volume="2"
				Note Time="60" Value="F4" Duration="12" Instrument="Duty 2" Volume="1" FinePitch="1"
				Note Time="61" Volume="2"
				Note Time="72" Value="F#4" Duration="12" Instrument="Duty 2" Volume="1"
				Note Time="73" Volume="2"
				Note Time="84" Value="F4" Duration="7" Instrument="Duty 2" Volume="1"
				Note Time="85" Volume="2"
				Note Time="90" Volume="1"
				Note Time="96" Value="F#4" Duration="7" Instrument="Duty 2"
				Note Time="97" Volume="2"
				Note Time="102" Volume="1"
				Note Time="108" Value="G#4" Duration="12" Instrument="Duty 2" FinePitch="0"
				Note Time="109" Volume="2"
				Note Time="120" Value="A#4" Duration="7" Instrument="Duty 2" Volume="1"
				Note Time="121" Volume="2"
				Note Time="126" Volume="1"
				Note Time="132" Value="B4" Duration="7" Instrument="Duty 2" FinePitch="1"
				Note Time="133" Volume="2"
				Note Time="138" Volume="1"
				Note Time="144" Value="C#5" Duration="12" Instrument="Duty 2" FinePitch="0"
				Note Time="145" Volume="2"
				Note Time="156" Value="B4" Duration="4" Instrument="Duty 2" Volume="1" FinePitch="1"
				Note Time="157" Volume="2"
				Note Time="160" Value="C#5" Duration="4" Instrument="Duty 2" Volume="1" FinePitch="0"
				Note Time="161" Volume="2"
				Note Time="164" Value="B4" Duration="4" Instrument="Duty 2" Volume="1" FinePitch="1"
				Note Time="165" Volume="2"
				Note Time="168" Value="G#4" Duration="7" Instrument="Duty 2" Volume="1" FinePitch="0"
				Note Time="169" Volume="2"
				Note Time="174" Volume="1"
				Note Time="180" Value="B4" Duration="12" Instrument="Duty 2" FinePitch="1"
				Note Time="181" Volume="2"
				Note Time="192" Value="A#4" Duration="9" Instrument="Duty 2" Volume="1" FinePitch="0"
				Note Time="193" Volume="2"
				Note Time="200" Volume="1"
				Note Time="204" Value="F#4" Duration="9" Instrument="Duty 2" FinePitch="1"
				Note Time="205" Volume="2"
				Note Time="212" Volume="1"
				Note Time="216" Value="F4" Duration="12" Instrument="Duty 2"
				Note Time="217" Volume="2"
				Note Time="228" Value="F#4" Duration="7" Instrument="Duty 2" Volume="1"
				Note Time="229" Volume="2"
				Note Time="234" Volume="1"
				Note Time="240" Value="D#4" Duration="12" Instrument="Duty 2" FinePitch="0"
				Note Time="241" Volume="2"
				Note Time="252" Value="F4" Duration="7" Instrument="Duty 2" Volume="1" FinePitch="1"
				Note Time="253" Volume="2"
			Pattern Name="Pattern 28"
				Note Time="2" Volume="1"
				Note Time="8" Value="C#4" Duration="19" Instrument="Duty 2" FinePitch="0"
				Note Time="9" Volume="2"
				Note Time="26" Volume="1"
				Note Time="32" Value="A#3" Duration="6" Instrument="Duty 2"
				Note Time="33" Volume="2"
				Note Time="38" Value="B3" Duration="6" Instrument="Duty 2" Volume="1" FinePitch="1"
				Note Time="39" Volume="2"
				Note Time="44" Value="C#4" Duration="12" Instrument="Duty 2" Volume="1" FinePitch="0"
				Note Time="45" Volume="2"
				Note Time="56" Value="B3" Duration="6" Instrument="Duty 2" Volume="1" FinePitch="1"
				Note Time="57" Volume="2"
				Note Time="62" Value="C#4" Duration="6" Instrument="Duty 2" Volume="1" FinePitch="0"
				Note Time="63" Volume="2"
				Note Time="68" Value="D#4" Duration="12" Instrument="Duty 2" Volume="1"
				Note Time="69" Volume="2"
				Note Time="80" Value="C#4" Duration="6" Instrument="Duty 2" Volume="1"
				Note Time="81" Volume="2"
				Note Time="86" Value="D#4" Duration="6" Instrument="Duty 2" Volume="1"
				Note Time="87" Volume="2"
				Note Time="92" Value="F4" Duration="12" Instrument="Duty 2" Volume="1" FinePitch="1"
				Note Time="93" Volume="2"
				Note Time="104" Value="F#4" Duration="12" Instrument="Duty 2" Volume="1"
				Note Time="105" Volume="2"
				Note Time="116" Value="F4" Duration="7" Instrument="Duty 2" Volume="1"
				Note Time="117" Volume="2"
				Note Time="122" Volume="1"
				Note Time="128" Value="F#4" Duration="7" Instrument="Duty 2"
				Note Time="129" Volume="2"
				Note Time="134" Volume="1"
				Note Time="140" Value="G#4" Duration="12" Instrument="Duty 2" FinePitch="0"
				Note Time="141" Volume="2"
				Note Time="152" Value="A#4" Duration="7" Instrument="Duty 2" Volume="1"
				Note Time="153" Volume="2"
				Note Time="158" Volume="1"
				Note Time="164" Value="B4" Duration="7" Instrument="Duty 2" FinePitch="1"
				Note Time="165" Volume="2"
				Note Time="170" Volume="1"
				Note Time="176" Value="A4" Duration="12" Instrument="Duty 2"
				Note Time="177" Volume="2"
				Note Time="188" Value="E4" Duration="4" Instrument="Duty 2" Volume="1" FinePitch="0"
				Note Time="189" Volume="2"
				Note Time="192" Value="F#4" Duration="4" Instrument="Duty 2" Volume="1" FinePitch="1"
				Note Time="193" Volume="2"
				Note Time="196" Value="E4" Duration="4" Instrument="Duty 2" Volume="1" FinePitch="0"
				Note Time="197" Volume="2"
				Note Time="200" Value="C#4" Duration="7" Instrument="Duty 2" Volume="1"
				Note Time="201" Volume="2"
				Note Time="206" Volume="1"
				Note Time="212" Value="E4" Duration="12" Instrument="Duty 2"
				Note Time="213" Volume="2"
				Note Time="224" Value="D4" Duration="9" Instrument="Duty 2" Volume="1" FinePitch="1"
				Note Time="225" Volume="2"
				Note Time="232" Volume="1"
				Note Time="236" Value="B3" Duration="9" Instrument="Duty 2"
				Note Time="237" Volume="2"
				Note Time="244" Volume="1"
				Note Time="248" Value="A3" Duration="12" Instrument="Duty 2"
				Note Time="249" Volume="2"
			Pattern Name="Pattern 29"
				Note Time="4" Value="D4" Duration="7" Instrument="Duty 2" Volume="1"
				Note Time="5" Volume="2"
				Note Time="10" Volume="1"
				Note Time="16" Value="G#3" Duration="12" Instrument="Duty 2"
				Note Time="17" Volume="2"
				Note Time="28" Value="B3" Duration="7" Instrument="Duty 2" Volume="1"
				Note Time="29" Volume="2"
				Note Time="34" Volume="1"
				Note Time="40" Value="F#3" Duration="19" Instrument="Duty 2"
				Note Time="41" Volume="2"
				Note Time="58" Volume="1"
				Note Time="64" Value="D3" Duration="6" Instrument="Duty 2" FinePitch="0"
				Note Time="65" Volume="2"
				Note Time="70" Value="E3" Duration="6" Instrument="Duty 2" Volume="1" FinePitch="1"
				Note Time="71" Volume="2"
				Note Time="76" Value="F#3" Duration="12" Instrument="Duty 2" Volume="1"
				Note Time="77" Volume="2"
				Note Time="88" Value="E3" Duration="6" Instrument="Duty 2" Volume="1"
				Note Time="89" Volume="2"
				Note Time="94" Value="F#3" Duration="6" Instrument="Duty 2" Volume="1"
				Note Time="95" Volume="2"
				Note Time="100" Value="G#3" Duration="12" Instrument="Duty 2" Volume="1"
				Note Time="101" Volume="2"
				Note Time="112" Value="F#3" Duration="6" Instrument="Duty 2" Volume="1"
				Note Time="113" Volume="2"
				Note Time="118" Value="G#3" Duration="6" Instrument="Duty 2" Volume="1"
				Note Time="119" Volume="2"
				Note Time="124" Value="A3" Duration="12" Instrument="Duty 2" Volume="1"
				Note Time="125" Volume="2"
				Note Time="136" Value="B3" Duration="12" Instrument="Duty 2" Volume="1"
				Note Time="137" Volume="2"
				Note Time="148" Value="A3" Duration="7" Instrument="Duty 2" Volume="1"
				Note Time="149" Volume="2"
				Note Time="154" Volume="1"
				Note Time="160" Value="B3" Duration="7" Instrument="Duty 2"
				Note Time="161" Volume="2"
				Note Time="166" Volume="1"
				Note Time="172" Value="C#4" Duration="12" Instrument="Duty 2" FinePitch="0"
				Note Time="173" Volume="2"
				Note Time="184" Value="D4" Duration="7" Instrument="Duty 2" Volume="1" FinePitch="1"
				Note Time="185" Volume="2"
				Note Time="190" Volume="1"
				Note Time="196" Value="E4" Duration="7" Instrument="Duty 2" FinePitch="0"
				Note Time="197" Volume="2"
				Note Time="202" Volume="1"
				Note Time="208" Value="A4" Duration="12" Instrument="Duty 2" FinePitch="1"
				Note Time="209" Volume="2"
				Note Time="220" Value="E4" Duration="4" Instrument="Duty 2" Volume="1" FinePitch="0"
				Note Time="221" Volume="2"
				Note Time="224" Value="F#4" Duration="4" Instrument="Duty 2" Volume="1" FinePitch="1"
				Note Time="225" Volume="2"
				Note Time="228" Value="E4" Duration="4" Instrument="Duty 2" Volume="1" FinePitch="0"
				Note Time="229" Volume="2"
				Note Time="232" Value="C#4" Duration="7" Instrument="Duty 2" Volume="1"
				Note Time="233" Volume="2"
				Note Time="238" Volume="1"
				Note Time="244" Value="E4" Duration="12" Instrument="Duty 2"
				Note Time="245" Volume="2"
			Pattern Name="Pattern 30"
				Note Time="0" Value="D4" Duration="9" Instrument="Duty 2" Volume="1" FinePitch="1"
				Note Time="1" Volume="2"
				Note Time="8" Volume="1"
				Note Time="12" Value="B3" Duration="9" Instrument="Duty 2"
				Note Time="13" Volume="2"
				Note Time="20" Volume="1"
				Note Time="24" Value="A3" Duration="12" Instrument="Duty 2"
				Note Time="25" Volume="2"
				Note Time="36" Value="D4" Duration="7" Instrument="Duty 2" Volume="1"
				Note Time="37" Volume="2"
				Note Time="42" Volume="1"
				Note Time="48" Value="G#3" Duration="12" Instrument="Duty 2"
				Note Time="49" Volume="2"
				Note Time="60" Value="B3" Duration="7" Instrument="Duty 2" Volume="1"
				Note Time="61" Volume="2"
				Note Time="66" Volume="1"
				Note Time="72" Value="F#3" Duration="19" Instrument="Duty 2"
				Note Time="73" Volume="2"
				Note Time="90" Volume="1"
				Note Time="96" Value="D3" Duration="6" Instrument="Duty 2" FinePitch="0"
				Note Time="97" Volume="2"
				Note Time="102" Value="E3" Duration="6" Instrument="Duty 2" Volume="1" FinePitch="1"
				Note Time="103" Volume="2"
				Note Time="108" Value="F#3" Duration="12" Instrument="Duty 2" Volume="1"
				Note Time="109" Volume="2"
				Note Time="120" Value="E3" Duration="6" Instrument="Duty 2" Volume="1"
				Note Time="121" Volume="2"
				Note Time="126" Value="F#3" Duration="6" Instrument="Duty 2" Volume="1"
				Note Time="127" Volume="2"
				Note Time="132" Value="G#3" Duration="12" Instrument="Duty 2" Volume="1"
				Note Time="133" Volume="2"
				Note Time="144" Value="F#3" Duration="6" Instrument="Duty 2" Volume="1"
				Note Time="145" Volume="2"
				Note Time="150" Value="G#3" Duration="6" Instrument="Duty 2" Volume="1"
				Note Time="151" Volume="2"
				Note Time="156" Value="A3" Duration="12" Instrument="Duty 2" Volume="1"
				Note Time="157" Volume="2"
				Note Time="168" Value="B3" Duration="12" Instrument="Duty 2" Volume="1"
				Note Time="169" Volume="2"
				Note Time="180" Value="A3" Duration="7" Instrument="Duty 2" Volume="1"
				Note Time="181" Volume="2"
				Note Time="186" Volume="1"
				Note Time="192" Value="B3" Duration="7" Instrument="Duty 2"
				Note Time="193" Volume="2"
				Note Time="198" Volume="1"
				Note Time="204" Value="C#4" Duration="12" Instrument="Duty 2" FinePitch="0"
				Note Time="205" Volume="2"
				Note Time="216" Value="D4" Duration="7" Instrument="Duty 2" Volume="1" FinePitch="1"
				Note Time="217" Volume="2"
				Note Time="222" Volume="1"
				Note Time="228" Value="E4" Duration="7" Instrument="Duty 2" FinePitch="0"
				Note Time="229" Volume="2"
				Note Time="234" Volume="1"
				Note Time="240" Value="A4" Duration="12" Instrument="Duty 2" FinePitch="1"
				Note Time="241" Volume="2"
				Note Time="252" Value="E4" Duration="4" Instrument="Duty 2" Volume="1" FinePitch="0"
				Note Time="253" Volume="2"
			Pattern Name="Pattern 31"
				Note Time="0" Value="F#4" Duration="4" Instrument="Duty 2" Volume="1" FinePitch="1"
				Note Time="1" Volume="2"
				Note Time="4" Value="E4" Duration="4" Instrument="Duty 2" Volume="1" FinePitch="0"
				Note Time="5" Volume="2"
				Note Time="8" Value="C#4" Duration="7" Instrument="Duty 2" Volume="1"
				Note Time="9" Volume="2"
				Note Time="14" Volume="1"
				Note Time="20" Value="E4" Duration="12" Instrument="Duty 2"
				Note Time="21" Volume="2"
				Note Time="32" Value="D4" Duration="9" Instrument="Duty 2" Volume="1" FinePitch="1"
				Note Time="33" Volume="2"
				Note Time="40" Volume="1"
				Note Time="44" Value="B3" Duration="9" Instrument="Duty 2"
				Note Time="45" Volume="2"
				Note Time="52" Volume="1"
				Note Time="56" Value="A3" Duration="12" Instrument="Duty 2"
				Note Time="57" Volume="2"
				Note Time="68" Value="D4" Duration="7" Instrument="Duty 2" Volume="1"
				Note Time="69" Volume="2"
				Note Time="74" Volume="1"
				Note Time="80" Value="G#3" Duration="12" Instrument="Duty 2"
				Note Time="81" Volume="2"
				Note Time="92" Value="B3" Duration="7" Instrument="Duty 2" Volume="1"
				Note Time="93" Volume="2"
				Note Time="98" Volume="1"
				Note Time="104" Value="F#3" Duration="19" Instrument="Duty 2"
				Note Time="105" Volume="2"
				Note Time="122" Volume="1"
				Note Time="128" Value="D3" Duration="6" Instrument="Duty 2" FinePitch="0"
				Note Time="129" Volume="2"
				Note Time="134" Value="E3" Duration="6" Instrument="Duty 2" Volume="1" FinePitch="1"
				Note Time="135" Volume="2"
				Note Time="140" Value="F#3" Duration="12" Instrument="Duty 2" Volume="1"
				Note Time="141" Volume="2"
				Note Time="152" Value="E3" Duration="6" Instrument="Duty 2" Volume="1"
				Note Time="153" Volume="2"
				Note Time="158" Value="F#3" Duration="6" Instrument="Duty 2" Volume="1"
				Note Time="159" Volume="2"
				Note Time="164" Value="G#3" Duration="12" Instrument="Duty 2" Volume="1"
				Note Time="165" Volume="2"
				Note Time="176" Value="F#3" Duration="6" Instrument="Duty 2" Volume="1"
				Note Time="177" Volume="2"
				Note Time="182" Value="G#3" Duration="6" Instrument="Duty 2" Volume="1"
				Note Time="183" Volume="2"
				Note Time="188" Value="A3" Duration="12" Instrument="Duty 2" Volume="1"
				Note Time="189" Volume="2"
				Note Time="200" Value="B3" Duration="12" Instrument="Duty 2" Volume="1"
				Note Time="201" Volume="2"
				Note Time="212" Value="A3" Duration="7" Instrument="Duty 2" Volume="1"
				Note Time="213" Volume="2"
				Note Time="218" Volume="1"
				Note Time="224" Value="B3" Duration="7" Instrument="Duty 2"
				Note Time="225" Volume="2"
				Note Time="230" Volume="1"
				Note Time="236" Value="C#4" Duration="12" Instrument="Duty 2" FinePitch="0"
				Note Time="237" Volume="2"
				Note Time="248" Value="D4" Duration="7" Instrument="Duty 2" Volume="1" FinePitch="1"
				Note Time="249" Volume="2"
				Note Time="254" Volume="1"
			Pattern Name="Pattern 32"
				Note Time="4" Value="E4" Duration="7" Instrument="Duty 2" FinePitch="0"
				Note Time="5" Volume="2"
				Note Time="10" Volume="1"
				Note Time="16" Value="A4" Duration="12" Instrument="Duty 2" FinePitch="1"
				Note Time="17" Volume="2"
				Note Time="28" Value="E4" Duration="4" Instrument="Duty 2" Volume="1" FinePitch="0"
				Note Time="29" Volume="2"
				Note Time="32" Value="F#4" Duration="4" Instrument="Duty 2" Volume="1" FinePitch="1"
				Note Time="33" Volume="2"
				Note Time="36" Value="E4" Duration="4" Instrument="Duty 2" Volume="1" FinePitch="0"
				Note Time="37" Volume="2"
				Note Time="40" Value="C#4" Duration="7" Instrument="Duty 2" Volume="1"
				Note Time="41" Volume="2"
				Note Time="46" Volume="1"
				Note Time="52" Value="E4" Duration="12" Instrument="Duty 2"
				Note Time="53" Volume="2"
				Note Time="64" Value="D4" Duration="9" Instrument="Duty 2" Volume="1" FinePitch="1"
				Note Time="65" Volume="2"
				Note Time="72" Volume="1"
				Note Time="76" Value="B3" Duration="9" Instrument="Duty 2"
				Note Time="77" Volume="2"
				Note Time="84" Volume="1"
				Note Time="88" Value="A3" Duration="12" Instrument="Duty 2"
				Note Time="89" Volume="2"
				Note Time="100" Value="D4" Duration="7" Instrument="Duty 2" Volume="1"
				Note Time="101" Volume="2"
				Note Time="106" Volume="1"
				Note Time="112" Value="G#3" Duration="12" Instrument="Duty 2"
				Note Time="113" Volume="2"
				Note Time="124" Value="B3" Duration="7" Instrument="Duty 2" Volume="1"
				Note Time="125" Volume="2"
				Note Time="130" Volume="1"
				Note Time="136" Value="F#3" Duration="19" Instrument="Duty 2"
				Note Time="137" Volume="2"
				Note Time="154" Volume="1"
				Note Time="160" Value="D3" Duration="6" Instrument="Duty 2" FinePitch="0"
				Note Time="161" Volume="2"
				Note Time="166" Value="E3" Duration="6" Instrument="Duty 2" Volume="1" FinePitch="1"
				Note Time="167" Volume="2"
				Note Time="172" Value="F#3" Duration="12" Instrument="Duty 2" Volume="1"
				Note Time="173" Volume="2"
				Note Time="184" Value="E3" Duration="6" Instrument="Duty 2" Volume="1"
				Note Time="185" Volume="2"
				Note Time="190" Value="F#3" Duration="6" Instrument="Duty 2" Volume="1"
				Note Time="191" Volume="2"
				Note Time="196" Value="G#3" Duration="12" Instrument="Duty 2" Volume="1"
				Note Time="197" Volume="2"
				Note Time="208" Value="F#3" Duration="6" Instrument="Duty 2" Volume="1"
				Note Time="209" Volume="2"
				Note Time="214" Value="G#3" Duration="6" Instrument="Duty 2" Volume="1"
				Note Time="215" Volume="2"
				Note Time="220" Value="A3" Duration="12" Instrument="Duty 2" Volume="1"
				Note Time="221" Volume="2"
				Note Time="232" Value="B3" Duration="12" Instrument="Duty 2" Volume="1"
				Note Time="233" Volume="2"
				Note Time="244" Value="A3" Duration="7" Instrument="Duty 2" Volume="1"
				Note Time="245" Volume="2"
				Note Time="250" Volume="1"
			Pattern Name="Pattern 33"
				Note Time="0" Value="B3" Duration="7" Instrument="Duty 2"
				Note Time="1" Volume="2"
				Note Time="6" Volume="1"
				Note Time="12" Value="C#4" Duration="12" Instrument="Duty 2" FinePitch="0"
				Note Time="13" Volume="2"
				Note Time="24" Value="D4" Duration="7" Instrument="Duty 2" Volume="1" FinePitch="1"
				Note Time="25" Volume="2"
				Note Time="30" Volume="1"
				Note Time="36" Value="E4" Duration="7" Instrument="Duty 2" FinePitch="0"
				Note Time="37" Volume="2"
				Note Time="42" Volume="1"
				Note Time="48" Value="B5" Duration="12" Instrument="Duty 2"
				Note Time="49" Volume="2"
				Note Time="60" Value="F#5" Duration="4" Instrument="Duty 2" Volume="1"
				Note Time="61" Volume="2"
				Note Time="64" Value="G#5" Duration="4" Instrument="Duty 2" Volume="1" FinePitch="1"
				Note Time="65" Volume="2"
				Note Time="68" Value="F#5" Duration="4" Instrument="Duty 2" Volume="1" FinePitch="0"
				Note Time="69" Volume="2"
				Note Time="72" Value="D#5" Duration="7" Instrument="Duty 2" Volume="1"
				Note Time="73" Volume="2"
				Note Time="78" Volume="1"
				Note Time="84" Value="F#5" Duration="12" Instrument="Duty 2"
				Note Time="85" Volume="2"
				Note Time="96" Value="E5" Duration="9" Instrument="Duty 2" Volume="1"
				Note Time="97" Volume="2"
				Note Time="104" Volume="1"
				Note Time="108" Value="C#5" Duration="9" Instrument="Duty 2"
				Note Time="109" Volume="2"
				Note Time="116" Volume="1"
				Note Time="120" Value="B4" Duration="12" Instrument="Duty 2" FinePitch="1"
				Note Time="121" Volume="2"
				Note Time="132" Value="E5" Duration="7" Instrument="Duty 2" Volume="1" FinePitch="0"
				Note Time="133" Volume="2"
				Note Time="138" Volume="1"
				Note Time="144" Value="A#4" Duration="12" Instrument="Duty 2"
				Note Time="145" Volume="2"
				Note Time="156" Value="C#5" Duration="7" Instrument="Duty 2" Volume="1"
				Note Time="157" Volume="2"
				Note Time="162" Volume="1"
				Note Time="168" Value="G#4" Duration="19" Instrument="Duty 2"
				Note Time="169" Volume="2"
				Note Time="186" Volume="1"
				Note Time="192" Value="E4" Duration="6" Instrument="Duty 2"
				Note Time="193" Volume="2"
				Note Time="198" Value="F#4" Duration="6" Instrument="Duty 2" Volume="1" FinePitch="1"
				Note Time="199" Volume="2"
				Note Time="204" Value="G#4" Duration="12" Instrument="Duty 2" Volume="1" FinePitch="0"
				Note Time="205" Volume="2"
				Note Time="216" Value="F#4" Duration="6" Instrument="Duty 2" Volume="1" FinePitch="1"
				Note Time="217" Volume="2"
				Note Time="222" Value="G#4" Duration="6" Instrument="Duty 2" Volume="1" FinePitch="0"
				Note Time="223" Volume="2"
				Note Time="228" Value="A#4" Duration="12" Instrument="Duty 2" Volume="1"
				Note Time="229" Volume="2"
				Note Time="240" Value="G#4" Duration="6" Instrument="Duty 2" Volume="1"
				Note Time="241" Volume="2"
				Note Time="246" Value="A#4" Duration="6" Instrument="Duty 2" Volume="1"
				Note Time="247" Volume="2"
				Note Time="252" Value="B4" Duration="12" Instrument="Duty 2" Volume="1" FinePitch="1"
				Note Time="253" Volume="2"
			Pattern Name="Pattern 34"
				Note Time="8" Value="C#5" Duration="12" Instrument="Duty 2" Volume="1" FinePitch="0"
				Note Time="9" Volume="2"
				Note Time="20" Value="B4" Duration="7" Instrument="Duty 2" Volume="1" FinePitch="1"
				Note Time="21" Volume="2"
				Note Time="26" Volume="1"
				Note Time="32" Value="C#5" Duration="7" Instrument="Duty 2" FinePitch="0"
				Note Time="33" Volume="2"
				Note Time="38" Volume="1"
				Note Time="44" Value="D#5" Duration="12" Instrument="Duty 2"
				Note Time="45" Volume="2"
				Note Time="56" Value="E5" Duration="7" Instrument="Duty 2" Volume="1"
				Note Time="57" Volume="2"
				Note Time="62" Volume="1"
				Note Time="68" Value="F#5" Duration="7" Instrument="Duty 2"
				Note Time="69" Volume="2"
				Note Time="74" Volume="1"
				Note Time="80" Value="B5" Duration="12" Instrument="Duty 2"
				Note Time="81" Volume="2"
				Note Time="92" Value="F#5" Duration="4" Instrument="Duty 2" Volume="1"
				Note Time="93" Volume="2"
				Note Time="96" Value="G#5" Duration="4" Instrument="Duty 2" Volume="1" FinePitch="1"
				Note Time="97" Volume="2"
				Note Time="100" Value="F#5" Duration="4" Instrument="Duty 2" Volume="1" FinePitch="0"
				Note Time="101" Volume="2"
				Note Time="104" Value="D#5" Duration="7" Instrument="Duty 2" Volume="1"
				Note Time="105" Volume="2"
				Note Time="110" Volume="1"
				Note Time="116" Value="F#5" Duration="12" Instrument="Duty 2"
				Note Time="117" Volume="2"
				Note Time="128" Value="E5" Duration="9" Instrument="Duty 2" Volume="1"
				Note Time="129" Volume="2"
				Note Time="136" Volume="1"
				Note Time="140" Value="C#5" Duration="9" Instrument="Duty 2"
				Note Time="141" Volume="2"
				Note Time="148" Volume="1"
				Note Time="152" Value="B4" Duration="12" Instrument="Duty 2" FinePitch="1"
				Note Time="153" Volume="2"
				Note Time="164" Value="E5" Duration="7" Instrument="Duty 2" Volume="1" FinePitch="0"
				Note Time="165" Volume="2"
				Note Time="170" Volume="1"
				Note Time="176" Value="A#4" Duration="12" Instrument="Duty 2"
				Note Time="177" Volume="2"
				Note Time="188" Value="C#5" Duration="7" Instrument="Duty 2" Volume="1"
				Note Time="189" Volume="2"
				Note Time="194" Volume="1"
				Note Time="200" Value="G#4" Duration="19" Instrument="Duty 2"
				Note Time="201" Volume="2"
				Note Time="218" Volume="1"
				Note Time="224" Value="E4" Duration="6" Instrument="Duty 2"
				Note Time="225" Volume="2"
				Note Time="230" Value="F#4" Duration="6" Instrument="Duty 2" Volume="1" FinePitch="1"
				Note Time="231" Volume="2"
				Note Time="236" Value="G#4" Duration="12" Instrument="Duty 2" Volume="1" FinePitch="0"
				Note Time="237" Volume="2"
				Note Time="248" Value="F#4" Duration="6" Instrument="Duty 2" Volume="1" FinePitch="1"
				Note Time="249" Volume="2"
				Note Time="254" Value="G#4" Duration="6" Instrument="Duty 2" Volume="1" FinePitch="0"
				Note Time="255" Volume="2"
			Pattern Name="Pattern 35"
				Note Time="4" Value="A#4" Duration="12" Instrument="Duty 2" Volume="1"
				Note Time="5" Volume="2"
				Note Time="16" Value="G#4" Duration="6" Instrument="Duty 2" Volume="1"
				Note Time="17" Volume="2"
				Note Time="22" Value="A#4" Duration="6" Instrument="Duty 2" Volume="1"
				Note Time="23" Volume="2"
				Note Time="28" Value="B4" Duration="12" Instrument="Duty 2" Volume="1" FinePitch="1"
				Note Time="29" Volume="2"
				Note Time="40" Value="C#5" Duration="12" Instrument="Duty 2" Volume="1" FinePitch="0"
				Note Time="41" Volume="2"
				Note Time="52" Value="B4" Duration="7" Instrument="Duty 2" Volume="1" FinePitch="1"
				Note Time="53" Volume="2"
				Note Time="58" Volume="1"
				Note Time="64" Value="C#5" Duration="7" Instrument="Duty 2" FinePitch="0"
				Note Time="65" Volume="2"
				Note Time="70" Volume="1"
				Note Time="76" Value="D#5" Duration="12" Instrument="Duty 2"
				Note Time="77" Volume="2"
				Note Time="88" Value="E5" Duration="7" Instrument="Duty 2" Volume="1"
				Note Time="89" Volume="2"
				Note Time="94" Volume="1"
				Note Time="100" Value="F#5" Duration="7" Instrument="Duty 2"
				Note Time="101" Volume="2"
				Note Time="106" Volume="1"
				Note Time="112" Value="A4" Duration="24" Instrument="Duty 2" Volume="2" FinePitch="1"
				Note Time="113" Volume="4"
				Note Time="136" Value="G#4" Duration="7" Instrument="Duty 2" Volume="2" FinePitch="0"
				Note Time="137" Volume="4"
				Note Time="142" Volume="2"
				Note Time="148" Value="A4" Duration="6" Instrument="Duty 2" FinePitch="1"
				Note Time="149" Volume="4"
				Note Time="154" Value="G#4" Duration="6" Instrument="Duty 2" Volume="2" FinePitch="0"
				Note Time="155" Volume="4"
				Note Time="160" Value="F#4" Duration="6" Instrument="Duty 2" Volume="2" FinePitch="1"
				Note Time="161" Volume="4"
				Note Time="166" Value="E4" Duration="6" Instrument="Duty 2" Volume="2" FinePitch="0"
				Note Time="167" Volume="4"
				Note Time="172" Value="C#4" Duration="6" Instrument="Duty 2" Volume="2"
				Note Time="173" Volume="4"
				Note Time="178" Value="F#4" Duration="6" Instrument="Duty 2" Volume="2" FinePitch="1"
				Note Time="179" Volume="4"
				Note Time="184" Value="B4" Duration="6" Instrument="Duty 2" Volume="2"
				Note Time="185" Volume="4"
				Note Time="190" Value="F#4" Duration="6" Instrument="Duty 2" Volume="2"
				Note Time="191" Volume="4"
				Note Time="196" Value="D#4" Duration="6" Instrument="Duty 2" Volume="2" FinePitch="0"
				Note Time="197" Volume="4"
				Note Time="202" Value="C#4" Duration="6" Instrument="Duty 2" Volume="2"
				Note Time="203" Volume="4"
				Note Time="208" Value="B3" Duration="6" Instrument="Duty 2" Volume="2" FinePitch="1"
				Note Time="209" Volume="4"
				Note Time="214" Value="D#4" Duration="6" Instrument="Duty 2" Volume="2" FinePitch="0"
				Note Time="215" Volume="4"
				Note Time="220" Value="A4" Duration="6" Instrument="Duty 2" Volume="2" FinePitch="1"
				Note Time="221" Volume="4"
				Note Time="226" Value="E4" Duration="6" Instrument="Duty 2" Volume="2" FinePitch="0"
				Note Time="227" Volume="4"
				Note Time="232" Value="D#4" Duration="6" Instrument="Duty 2" Volume="2"
				Note Time="233" Volume="4"
				Note Time="238" Value="C#4" Duration="6" Instrument="Duty 2" Volume="2"
				Note Time="239" Volume="4"
				Note Time="244" Value="E4" Duration="6" Instrument="Duty 2" Volume="2"
				Note Time="245" Volume="4"
				Note Time="250" Value="A4" Duration="6" Instrument="Duty 2" Volume="2" FinePitch="1"
				Note Time="251" Volume="4"
			Pattern Name="Pattern 36"
				Note Time="0" Value="A3" Duration="24" Instrument="Duty 2" Volume="2"
				Note Time="1" Volume="4"
				Note Time="24" Value="G#3" Duration="7" Instrument="Duty 2" Volume="2"
				Note Time="25" Volume="4"
				Note Time="30" Volume="2"
				Note Time="36" Value="A3" Duration="6" Instrument="Duty 2"
				Note Time="37" Volume="4"
				Note Time="42" Value="G#3" Duration="6" Instrument="Duty 2" Volume="2"
				Note Time="43" Volume="4"
				Note Time="48" Value="F#3" Duration="6" Instrument="Duty 2" Volume="2"
				Note Time="49" Volume="4"
				Note Time="54" Value="E3" Duration="6" Instrument="Duty 2" Volume="2"
				Note Time="55" Volume="4"
				Note Time="60" Value="C#3" Duration="6" Instrument="Duty 2" Volume="2" FinePitch="0"
				Note Time="61" Volume="4"
				Note Time="66" Value="F#3" Duration="6" Instrument="Duty 2" Volume="2" FinePitch="1"
				Note Time="67" Volume="4"
				Note Time="72" Value="B3" Duration="6" Instrument="Duty 2" Volume="2"
				Note Time="73" Volume="4"
				Note Time="78" Value="F#3" Duration="6" Instrument="Duty 2" Volume="2"
				Note Time="79" Volume="4"
				Note Time="84" Value="D#3" Duration="6" Instrument="Duty 2" Volume="2" FinePitch="0"
				Note Time="85" Volume="4"
				Note Time="90" Value="C#3" Duration="6" Instrument="Duty 2" Volume="2"
				Note Time="91" Volume="4"
				Note Time="96" Value="B2" Duration="6" Instrument="Duty 2" Volume="2"
				Note Time="97" Volume="4"
				Note Time="102" Value="D#3" Duration="6" Instrument="Duty 2" Volume="2"
				Note Time="103" Volume="4"
				Note Time="108" Value="A3" Duration="6" Instrument="Duty 2" Volume="2" FinePitch="1"
				Note Time="109" Volume="4"
				Note Time="114" Value="E3" Duration="6" Instrument="Duty 2" Volume="2"
				Note Time="115" Volume="4"
				Note Time="120" Value="D#3" Duration="6" Instrument="Duty 2" Volume="2" FinePitch="0"
				Note Time="121" Volume="4"
				Note Time="126" Value="C#3" Duration="6" Instrument="Duty 2" Volume="2"
				Note Time="127" Volume="4"
				Note Time="132" Value="E3" Duration="6" Instrument="Duty 2" Volume="2" FinePitch="1"
				Note Time="133" Volume="4"
				Note Time="138" Value="A3" Duration="6" Instrument="Duty 2" Volume="2"
				Note Time="139" Volume="4"
				Note Time="144" Value="F#5" Duration="12" Instrument="Duty 2" Volume="2" FinePitch="0"
				Note Time="145" Volume="4"
				Note Time="156" Value="G#5" Duration="6" Instrument="Duty 2" Volume="2" FinePitch="1"
				Note Time="157" Volume="4"
				Note Time="162" Value="A5" Duration="12" Instrument="Duty 2" Volume="2" FinePitch="0"
				Note Time="163" Volume="4"
				Note Time="174" Value="F#5" Duration="6" Instrument="Duty 2" Volume="2"
				Note Time="175" Volume="4"
				Note Time="180" Value="G#5" Duration="12" Instrument="Duty 2" Volume="2" FinePitch="1"
				Note Time="181" Volume="4"
				Note Time="192" Value="E5" Duration="7" Instrument="Duty 2" Volume="2" FinePitch="0"
				Note Time="193" Volume="4"
				Note Time="198" Volume="2"
				Note Time="204" Value="C#5" Duration="7" Instrument="Duty 2"
				Note Time="205" Volume="4"
				Note Time="210" Volume="2"
				Note Time="216" Value="F#5" Duration="12" Instrument="Duty 2"
				Note Time="217" Volume="4"
				Note Time="228" Value="G#5" Duration="6" Instrument="Duty 2" Volume="2" FinePitch="1"
				Note Time="229" Volume="4"
				Note Time="234" Value="A5" Duration="12" Instrument="Duty 2" Volume="2" FinePitch="0"
				Note Time="235" Volume="4"
				Note Time="246" Value="C#6" Duration="6" Instrument="Duty 2" Volume="2" FinePitch="1"
				Note Time="247" Volume="4"
				Note Time="252" Value="B5" Duration="12" Instrument="Duty 2" Volume="2" FinePitch="0"
				Note Time="253" Volume="4"
			Pattern Name="Pattern 37"
				Note Time="8" Value="F#5" Duration="7" Instrument="Duty 2" Volume="2"
				Note Time="9" Volume="4"
				Note Time="14" Volume="2"
				Note Time="20" Value="D#5" Duration="7" Instrument="Duty 2"
				Note Time="21" Volume="4"
				Note Time="26" Volume="2"
				Note Time="32" Value="F#4" Duration="12" Instrument="Duty 2" FinePitch="1"
				Note Time="33" Volume="4"
				Note Time="44" Value="G#4" Duration="6" Instrument="Duty 2" Volume="2" FinePitch="0"
				Note Time="45" Volume="4"
				Note Time="50" Value="A4" Duration="12" Instrument="Duty 2" Volume="2" FinePitch="1"
				Note Time="51" Volume="4"
				Note Time="62" Value="F#4" Duration="6" Instrument="Duty 2" Volume="2"
				Note Time="63" Volume="4"
				Note Time="68" Value="G#4" Duration="12" Instrument="Duty 2" Volume="2" FinePitch="0"
				Note Time="69" Volume="4"
				Note Time="80" Value="E4" Duration="7" Instrument="Duty 2" Volume="2"
				Note Time="81" Volume="4"
				Note Time="86" Volume="2"
				Note Time="92" Value="C#4" Duration="7" Instrument="Duty 2"
				Note Time="93" Volume="4"
				Note Time="98" Volume="2"
				Note Time="104" Value="F#4" Duration="12" Instrument="Duty 2" FinePitch="1"
				Note Time="105" Volume="4"
				Note Time="116" Value="G#4" Duration="6" Instrument="Duty 2" Volume="2" FinePitch="0"
				Note Time="117" Volume="4"
				Note Time="122" Value="A4" Duration="12" Instrument="Duty 2" Volume="2" FinePitch="1"
				Note Time="123" Volume="4"
				Note Time="134" Value="C#5" Duration="6" Instrument="Duty 2" Volume="2" FinePitch="0"
				Note Time="135" Volume="4"
				Note Time="140" Value="B4" Duration="12" Instrument="Duty 2" Volume="2" FinePitch="1"
				Note Time="141" Volume="4"
				Note Time="152" Value="F#4" Duration="7" Instrument="Duty 2" Volume="2"
				Note Time="153" Volume="4"
				Note Time="158" Volume="2"
				Note Time="164" Value="D#4" Duration="7" Instrument="Duty 2" FinePitch="0"
				Note Time="165" Volume="4"
				Note Time="170" Volume="2"
				Note Time="176" Value="D4" Duration="12" Instrument="Duty 2" Volume="1" FinePitch="1"
				Note Time="177" Volume="3"
				Note Time="188" Value="C#4" Duration="12" Instrument="Duty 2" Volume="1" FinePitch="0"
				Note Time="189" Volume="3"
				Note Time="200" Value="B3" Duration="12" Instrument="Duty 2" Volume="1" FinePitch="1"
				Note Time="201" Volume="3"
				Note Time="212" Value="A3" Duration="12" Instrument="Duty 2" Volume="1"
				Note Time="213" Volume="3"
				Note Time="224" Value="B3" Duration="12" Instrument="Duty 2" Volume="1"
				Note Time="225" Volume="3"
				Note Time="236" Value="D4" Duration="12" Instrument="Duty 2" Volume="1"
				Note Time="237" Volume="3"
				Note Time="248" Value="E4" Duration="18" Instrument="Duty 2" Volume="1" FinePitch="0"
				Note Time="249" Volume="3"
			Pattern Name="Pattern 38"
				Note Time="10" Value="D4" Duration="6" Instrument="Duty 2" Volume="1" FinePitch="1"
				Note Time="11" Volume="3"
				Note Time="16" Value="B3" Duration="30" Instrument="Duty 2" Volume="1"
				Note Time="17" Volume="3"
				Note Time="28" Volume="1"
				Note Time="29" Volume="3"
				Note Time="46" Value="A3" Duration="6" Instrument="Duty 2" Volume="1"
				Note Time="47" Volume="3"
				Note Time="52" Value="G#3" Duration="12" Instrument="Duty 2" Volume="1"
				Note Time="53" Volume="3"
				Note Time="64" Value="D5" Duration="12" Instrument="Duty 2" Volume="1"
				Note Time="65" Volume="3"
				Note Time="76" Value="C#5" Duration="12" Instrument="Duty 2" Volume="1" FinePitch="0"
				Note Time="77" Volume="3"
				Note Time="88" Value="B4" Duration="12" Instrument="Duty 2" Volume="1" FinePitch="1"
				Note Time="89" Volume="3"
				Note Time="100" Value="A4" Duration="12" Instrument="Duty 2" Volume="1"
				Note Time="101" Volume="3"
				Note Time="112" Value="B4" Duration="12" Instrument="Duty 2" Volume="1"
				Note Time="113" Volume="3"
				Note Time="124" Value="D5" Duration="12" Instrument="Duty 2" Volume="1"
				Note Time="125" Volume="3"
				Note Time="136" Value="E5" Duration="18" Instrument="Duty 2" Volume="1" FinePitch="0"
				Note Time="137" Volume="3"
				Note Time="154" Value="D5" Duration="6" Instrument="Duty 2" Volume="1" FinePitch="1"
				Note Time="155" Volume="3"
				Note Time="160" Value="B4" Duration="30" Instrument="Duty 2" Volume="1"
				Note Time="161" Volume="3"
				Note Time="172" Volume="1"
				Note Time="173" Volume="3"
				Note Time="190" Value="A4" Duration="6" Instrument="Duty 2" Volume="1"
				Note Time="191" Volume="3"
				Note Time="196" Value="G#4" Duration="12" Instrument="Duty 2" Volume="1" FinePitch="0"
				Note Time="197" Volume="3"
				Note Time="208" Value="D4" Duration="12" Instrument="Duty 2" Volume="1" FinePitch="1"
				Note Time="209" Volume="3"
				Note Time="220" Value="E4" Duration="12" Instrument="Duty 2" Volume="1" FinePitch="0"
				Note Time="221" Volume="3"
				Note Time="232" Value="F#4" Duration="12" Instrument="Duty 2" Volume="1" FinePitch="1"
				Note Time="233" Volume="3"
				Note Time="244" Value="A4" Duration="12" Instrument="Duty 2" Volume="1"
				Note Time="245" Volume="3"
			Pattern Name="Pattern 39"
				Note Time="0" Value="G#4" Duration="12" Instrument="Duty 2" Volume="1" FinePitch="0"
				Note Time="1" Volume="3"
				Note Time="12" Value="F#4" Duration="12" Instrument="Duty 2" Volume="1" FinePitch="1"
				Note Time="13" Volume="3"
				Note Time="24" Value="G#4" Duration="6" Instrument="Duty 2" Volume="1" FinePitch="0"
				Note Time="25" Volume="3"
				Note Time="30" Value="F#4" Duration="6" Instrument="Duty 2" Volume="1" FinePitch="1"
				Note Time="31" Volume="3"
				Note Time="36" Value="E4" Duration="6" Instrument="Duty 2" Volume="1" FinePitch="0"
				Note Time="37" Volume="3"
				Note Time="42" Value="F#4" Duration="6" Instrument="Duty 2" Volume="1" FinePitch="1"
				Note Time="43" Volume="3"
				Note Time="48" Value="E4" Duration="6" Instrument="Duty 2" Volume="1" FinePitch="0"
				Note Time="49" Volume="3"
				Note Time="54" Value="D4" Duration="6" Instrument="Duty 2" Volume="1" FinePitch="1"
				Note Time="55" Volume="3"
				Note Time="60" Value="E4" Duration="6" Instrument="Duty 2" Volume="1" FinePitch="0"
				Note Time="61" Volume="3"
				Note Time="66" Value="D4" Duration="6" Instrument="Duty 2" Volume="1" FinePitch="1"
				Note Time="67" Volume="3"
				Note Time="72" Value="C#4" Duration="6" Instrument="Duty 2" Volume="1" FinePitch="0"
				Note Time="73" Volume="3"
				Note Time="78" Value="D4" Duration="6" Instrument="Duty 2" Volume="1" FinePitch="1"
				Note Time="79" Volume="3"
				Note Time="84" Value="C#4" Duration="6" Instrument="Duty 2" Volume="1" FinePitch="0"
				Note Time="85" Volume="3"
				Note Time="90" Value="B3" Duration="6" Instrument="Duty 2" Volume="1" FinePitch="1"
				Note Time="91" Volume="3"
				Note Time="96" Value="D5" Duration="12" Instrument="Duty 2" Volume="1"
				Note Time="97" Volume="3"
				Note Time="108" Value="E5" Duration="12" Instrument="Duty 2" Volume="1" FinePitch="0"
				Note Time="109" Volume="3"
				Note Time="120" Value="F#5" Duration="12" Instrument="Duty 2" Volume="1"
				Note Time="121" Volume="3"
				Note Time="132" Value="A5" Duration="12" Instrument="Duty 2" Volume="1"
				Note Time="133" Volume="3"
				Note Time="144" Value="G#5" Duration="12" Instrument="Duty 2" Volume="1" FinePitch="1"
				Note Time="145" Volume="3"
				Note Time="156" Value="F#5" Duration="12" Instrument="Duty 2" Volume="1" FinePitch="0"
				Note Time="157" Volume="3"
				Note Time="168" Value="G#5" Duration="6" Instrument="Duty 2" Volume="1" FinePitch="1"
				Note Time="169" Volume="3"
				Note Time="174" Value="F#5" Duration="6" Instrument="Duty 2" Volume="1" FinePitch="0"
				Note Time="175" Volume="3"
				Note Time="180" Value="E5" Duration="6" Instrument="Duty 2" Volume="1"
				Note Time="181" Volume="3"
				Note Time="186" Value="F#5" Duration="6" Instrument="Duty 2" Volume="1"
				Note Time="187" Volume="3"
				Note Time="192" Value="E5" Duration="6" Instrument="Duty 2" Volume="1"
				Note Time="193" Volume="3"
				Note Time="198" Value="D5" Duration="6" Instrument="Duty 2" Volume="1" FinePitch="1"
				Note Time="199" Volume="3"
				Note Time="204" Value="E5" Duration="6" Instrument="Duty 2" Volume="1" FinePitch="0"
				Note Time="205" Volume="3"
				Note Time="210" Value="D5" Duration="6" Instrument="Duty 2" Volume="1" FinePitch="1"
				Note Time="211" Volume="3"
				Note Time="216" Value="C#5" Duration="6" Instrument="Duty 2" Volume="1" FinePitch="0"
				Note Time="217" Volume="3"
				Note Time="222" Value="D5" Duration="6" Instrument="Duty 2" Volume="1" FinePitch="1"
				Note Time="223" Volume="3"
				Note Time="228" Value="C#5" Duration="6" Instrument="Duty 2" Volume="1" FinePitch="0"
				Note Time="229" Volume="3"
				Note Time="234" Value="B4" Duration="6" Instrument="Duty 2" Volume="1" FinePitch="1"
				Note Time="235" Volume="3"
				Note Time="240" Value="C#5" Duration="4" Instrument="Duty 2" Volume="2" FinePitch="0"
				Note Time="241" Volume="4"
				Note Time="244" Value="D5" Duration="4" Instrument="Duty 2" FinePitch="1"
				Note Time="248" Value="C#5" Duration="4" Instrument="Duty 2"
				Note Time="252" Value="D5" Duration="4" Instrument="Duty 2"
			Pattern Name="Pattern 40"
				Note Time="0" Value="C#5" Duration="4" Instrument="Duty 2"
				Note Time="4" Value="D5" Duration="4" Instrument="Duty 2"
				Note Time="8" Value="C#5" Duration="4" Instrument="Duty 2"
				Note Time="12" Value="D5" Duration="4" Instrument="Duty 2"
				Note Time="16" Value="C#5" Duration="4" Instrument="Duty 2"
				Note Time="20" Value="D5" Duration="4" Instrument="Duty 2"
				Note Time="24" Value="C#5" Duration="4" Instrument="Duty 2"
				Note Time="28" Value="D5" Duration="4" Instrument="Duty 2"
				Note Time="32" Value="C#5" Duration="4" Instrument="Duty 2"
				Note Time="36" Value="D5" Duration="4" Instrument="Duty 2"
				Note Time="40" Value="C#5" Duration="4" Instrument="Duty 2"
				Note Time="44" Value="D5" Duration="4" Instrument="Duty 2"
				Note Time="48" Value="C#5" Duration="4" Instrument="Duty 2"
				Note Time="52" Value="D5" Duration="4" Instrument="Duty 2"
				Note Time="56" Value="D5" Duration="1" Instrument="Duty 0" Volume="5" FinePitch="-1"
				Note Time="57" Value="D#5" Duration="3" Instrument="Duty 0" FinePitch="2"
				Note Time="58" FinePitch="0"
				Note Time="59" FinePitch="-2"
				Note Time="60" Value="E5" Duration="2" Instrument="Duty 0" FinePitch="1"
				Note Time="61" FinePitch="-1"
				Note Time="68" Value="D5" Duration="1" Instrument="Duty 0"
				Note Time="69" Value="D#5" Duration="3" Instrument="Duty 0" FinePitch="2"
				Note Time="70" FinePitch="0"
				Note Time="71" FinePitch="-2"
				Note Time="72" Value="E5" Duration="2" Instrument="Duty 0" FinePitch="1"
				Note Time="73" FinePitch="-1"
				Note Time="80" Value="D5" Duration="1" Instrument="Duty 0"
				Note Time="81" Value="D#5" Duration="3" Instrument="Duty 0" FinePitch="2"
				Note Time="82" FinePitch="0"
				Note Time="83" FinePitch="-2"
				Note Time="84" Value="E5" Duration="2" Instrument="Duty 0" FinePitch="1"
				Note Time="85" FinePitch="-1"
				Note Time="104" Value="E5" Duration="7" Instrument="Duty 0" Volume="4" FinePitch="0"
				Note Time="111" Value="D5" Duration="1" Instrument="Duty 0" FinePitch="2"
				Note Time="112" Value="C5" Duration="1" Instrument="Duty 0" FinePitch="1"
				Note Time="113" Value="A#4" Duration="1" Instrument="Duty 0"
				Note Time="114" Value="G#4" Duration="1" Instrument="Duty 0"
				Note Time="115" Value="F#4" Duration="1" Instrument="Duty 0" FinePitch="2"
				Note Time="116" Value="E4" Duration="7" Instrument="Duty 0" FinePitch="1"
				Note Time="122" FinePitch="0"
				Note Time="123" Value="F#4" Duration="1" Instrument="Duty 0" FinePitch="1"
				Note Time="124" Value="G#4" Duration="1" Instrument="Duty 0" FinePitch="0"
				Note Time="125" Value="A#4" Duration="1" Instrument="Duty 0"
				Note Time="126" Value="C5" Duration="1" Instrument="Duty 0"
				Note Time="127" Value="D5" Duration="1" Instrument="Duty 0" FinePitch="1"
				Note Time="128" Value="C#5" Duration="4" Instrument="Duty 2" Volume="2" FinePitch="0"
				Note Time="129" Volume="4"
				Note Time="132" Value="D5" Duration="4" Instrument="Duty 2" FinePitch="1"
				Note Time="136" Value="C#5" Duration="4" Instrument="Duty 2"
				Note Time="140" Value="D5" Duration="4" Instrument="Duty 2"
				Note Time="144" Value="C#5" Duration="4" Instrument="Duty 2"
				Note Time="148" Value="D5" Duration="4" Instrument="Duty 2"
				Note Time="152" Value="C#5" Duration="4" Instrument="Duty 2"
				Note Time="156" Value="D5" Duration="4" Instrument="Duty 2"
				Note Time="160" Value="C#5" Duration="4" Instrument="Duty 2"
				Note Time="164" Value="D5" Duration="4" Instrument="Duty 2"
				Note Time="168" Value="C#5" Duration="4" Instrument="Duty 2"
				Note Time="172" Value="D5" Duration="4" Instrument="Duty 2"
				Note Time="176" Value="C#5" Duration="4" Instrument="Duty 2"
				Note Time="180" Value="D5" Duration="4" Instrument="Duty 2"
				Note Time="184" Value="C#5" Duration="4" Instrument="Duty 2"
				Note Time="188" Value="D5" Duration="4" Instrument="Duty 2"
				Note Time="192" Value="C#5" Duration="4" Instrument="Duty 2"
				Note Time="196" Value="D5" Duration="4" Instrument="Duty 2"
				Note Time="200" Value="D5" Duration="1" Instrument="Duty 0" Volume="5" FinePitch="-1"
				Note Time="201" Value="D#5" Duration="3" Instrument="Duty 0" FinePitch="2"
				Note Time="202" FinePitch="0"
				Note Time="203" FinePitch="-2"
				Note Time="204" Value="E5" Duration="2" Instrument="Duty 0" FinePitch="1"
				Note Time="205" FinePitch="-1"
				Note Time="212" Value="D5" Duration="1" Instrument="Duty 0"
				Note Time="213" Value="D#5" Duration="3" Instrument="Duty 0" FinePitch="2"
				Note Time="214" FinePitch="0"
				Note Time="215" FinePitch="-2"
				Note Time="216" Value="E5" Duration="2" Instrument="Duty 0" FinePitch="1"
				Note Time="217" FinePitch="-1"
				Note Time="224" Value="D5" Duration="1" Instrument="Duty 0"
				Note Time="225" Value="D#5" Duration="3" Instrument="Duty 0" FinePitch="2"
				Note Time="226" FinePitch="0"
				Note Time="227" FinePitch="-2"
				Note Time="228" Value="E5" Duration="2" Instrument="Duty 0" FinePitch="1"
				Note Time="229" FinePitch="-1"
				Note Time="248" Value="E5" Duration="7" Instrument="Duty 0" Volume="4" FinePitch="0"
				Note Time="255" Value="D5" Duration="1" Instrument="Duty 0" FinePitch="2"
			Pattern Name="Pattern 41"
				Note Time="0" Value="C5" Duration="1" Instrument="Duty 0" FinePitch="1"
				Note Time="1" Value="A#4" Duration="1" Instrument="Duty 0"
				Note Time="2" Value="G#4" Duration="1" Instrument="Duty 0"
				Note Time="3" Value="F#4" Duration="1" Instrument="Duty 0" FinePitch="2"
				Note Time="4" Value="E4" Duration="7" Instrument="Duty 0" FinePitch="1"
				Note Time="10" FinePitch="0"
				Note Time="11" Value="F#4" Duration="1" Instrument="Duty 0" FinePitch="1"
				Note Time="12" Value="G#4" Duration="1" Instrument="Duty 0" FinePitch="0"
				Note Time="13" Value="A#4" Duration="1" Instrument="Duty 0"
				Note Time="14" Value="C5" Duration="1" Instrument="Duty 0"
				Note Time="15" Value="D5" Duration="1" Instrument="Duty 0" FinePitch="1"
				Note Time="16" Value="G#5" Duration="4" Instrument="Duty 2" Volume="2"
				Note Time="17" Volume="4"
				Note Time="20" Value="A5" Duration="4" Instrument="Duty 2" FinePitch="0"
				Note Time="24" Value="G5" Duration="4" Instrument="Duty 2" FinePitch="-2"
				Note Time="28" Value="A5" Duration="4" Instrument="Duty 2" FinePitch="0"
				Note Time="32" Value="G5" Duration="4" Instrument="Duty 2" FinePitch="-2"
				Note Time="36" Value="A5" Duration="4" Instrument="Duty 2" FinePitch="0"
				Note Time="40" Value="G5" Duration="4" Instrument="Duty 2" FinePitch="-2"
				Note Time="44" Value="A5" Duration="4" Instrument="Duty 2" FinePitch="0"
				Note Time="48" Value="G5" Duration="4" Instrument="Duty 2" FinePitch="-2"
				Note Time="52" Value="A5" Duration="4" Instrument="Duty 2" FinePitch="0"
				Note Time="56" Value="G5" Duration="4" Instrument="Duty 2" FinePitch="-2"
				Note Time="60" Value="A5" Duration="4" Instrument="Duty 2" FinePitch="0"
				Note Time="64" Value="G5" Duration="4" Instrument="Duty 2" FinePitch="-2"
				Note Time="68" Value="A5" Duration="4" Instrument="Duty 2" FinePitch="0"
				Note Time="72" Value="G5" Duration="4" Instrument="Duty 2" FinePitch="-2"
				Note Time="76" Value="A5" Duration="4" Instrument="Duty 2" FinePitch="0"
				Note Time="80" Value="G5" Duration="4" Instrument="Duty 2" FinePitch="-2"
				Note Time="84" Value="A5" Duration="4" Instrument="Duty 2" FinePitch="0"
				Note Time="88" Value="D6" Duration="1" Instrument="Duty 0" Volume="5" FinePitch="-1"
				Note Time="89" Value="D#6" Duration="3" Instrument="Duty 0" FinePitch="1"
				Note Time="90" FinePitch="0"
				Note Time="91" FinePitch="-1"
				Note Time="92" Value="E6" Duration="2" Instrument="Duty 0" FinePitch="1"
				Note Time="93" FinePitch="0"
				Note Time="100" Value="D6" Duration="1" Instrument="Duty 0" FinePitch="-1"
				Note Time="101" Value="D#6" Duration="3" Instrument="Duty 0" FinePitch="1"
				Note Time="102" FinePitch="0"
				Note Time="103" FinePitch="-1"
				Note Time="104" Value="E6" Duration="2" Instrument="Duty 0" FinePitch="1"
				Note Time="105" FinePitch="0"
				Note Time="112" Value="D6" Duration="1" Instrument="Duty 0" FinePitch="-1"
				Note Time="113" Value="D#6" Duration="3" Instrument="Duty 0" FinePitch="1"
				Note Time="114" FinePitch="0"
				Note Time="115" FinePitch="-1"
				Note Time="116" Value="E6" Duration="2" Instrument="Duty 0" FinePitch="1"
				Note Time="117" FinePitch="0"
				Note Time="136" Value="E6" Duration="7" Instrument="Duty 0" Volume="4" FinePitch="1"
				Note Time="143" Value="C#6" Duration="1" Instrument="Duty 0" FinePitch="-1"
				Note Time="144" Value="B5" Duration="1" Instrument="Duty 0" FinePitch="-2"
				Note Time="145" Value="A#5" Duration="1" Instrument="Duty 0" FinePitch="1"
				Note Time="146" Value="G5" Duration="1" Instrument="Duty 0" FinePitch="-2"
				Note Time="147" Value="F#5" Duration="1" Instrument="Duty 0" FinePitch="1"
				Note Time="148" Value="E5" Duration="7" Instrument="Duty 0"
				Note Time="154" FinePitch="0"
				Note Time="155" Value="F#5" Duration="1" Instrument="Duty 0"
				Note Time="156" Value="G#5" Duration="1" Instrument="Duty 0" FinePitch="1"
				Note Time="157" Value="A#5" Duration="1" Instrument="Duty 0" FinePitch="0"
				Note Time="158" Value="C6" Duration="1" Instrument="Duty 0" FinePitch="1"
				Note Time="159" Value="D6" Duration="1" Instrument="Duty 0" FinePitch="0"
				Note Time="160" Value="G#5" Duration="4" Instrument="Duty 2" Volume="2" FinePitch="1"
				Note Time="161" Volume="4"
				Note Time="164" Value="A5" Duration="4" Instrument="Duty 2" FinePitch="0"
				Note Time="168" Value="G5" Duration="4" Instrument="Duty 2" FinePitch="-2"
				Note Time="172" Value="A5" Duration="4" Instrument="Duty 2" FinePitch="0"
				Note Time="176" Value="G5" Duration="4" Instrument="Duty 2" FinePitch="-2"
				Note Time="180" Value="A5" Duration="4" Instrument="Duty 2" FinePitch="0"
				Note Time="184" Value="G5" Duration="4" Instrument="Duty 2" FinePitch="-2"
				Note Time="188" Value="A5" Duration="4" Instrument="Duty 2" FinePitch="0"
				Note Time="192" Value="G5" Duration="4" Instrument="Duty 2" FinePitch="-2"
				Note Time="196" Value="A5" Duration="4" Instrument="Duty 2" FinePitch="0"
				Note Time="200" Value="G5" Duration="4" Instrument="Duty 2" FinePitch="-2"
				Note Time="204" Value="A5" Duration="4" Instrument="Duty 2" FinePitch="0"
				Note Time="208" Value="G5" Duration="4" Instrument="Duty 2" FinePitch="-2"
				Note Time="212" Value="A5" Duration="4" Instrument="Duty 2" FinePitch="0"
				Note Time="216" Value="G5" Duration="4" Instrument="Duty 2" FinePitch="-2"
				Note Time="220" Value="A5" Duration="4" Instrument="Duty 2" FinePitch="0"
				Note Time="224" Value="G5" Duration="4" Instrument="Duty 2" FinePitch="-2"
				Note Time="228" Value="A5" Duration="4" Instrument="Duty 2" FinePitch="0"
				Note Time="232" Value="A4" Duration="2" Instrument="Duty 0" Volume="5" FinePitch="1"
				Note Time="233" Volume="4"
				Note Time="234" Value="E4" Duration="2" Instrument="Duty 0" FinePitch="0"
				Note Time="235" Volume="3"
				Note Time="236" Value="B3" Duration="2" Instrument="Duty 0" FinePitch="1"
				Note Time="237" Volume="2"
				Note Time="238" Value="A4" Duration="2" Instrument="Duty 0"
				Note Time="239" Volume="1"
				Note Time="240" Value="E4" Duration="1" Instrument="Duty 0" FinePitch="0"
				Note Time="244" Value="A4" Duration="2" Instrument="Duty 0" Volume="5" FinePitch="1"
				Note Time="245" Volume="4"
				Note Time="246" Value="E4" Duration="2" Instrument="Duty 0" FinePitch="0"
				Note Time="247" Volume="3"
				Note Time="248" Value="B3" Duration="2" Instrument="Duty 0" FinePitch="1"
				Note Time="249" Volume="2"
				Note Time="250" Value="A4" Duration="2" Instrument="Duty 0"
				Note Time="251" Volume="1"
				Note Time="252" Value="E4" Duration="1" Instrument="Duty 0" FinePitch="0"
			Pattern Name="Pattern 42"
				Note Time="0" Value="A4" Duration="2" Instrument="Duty 0" Volume="5" FinePitch="1"
				Note Time="1" Volume="4"
				Note Time="2" Value="E4" Duration="2" Instrument="Duty 0" FinePitch="0"
				Note Time="3" Volume="3"
				Note Time="4" Value="B3" Duration="2" Instrument="Duty 0" FinePitch="1"
				Note Time="5" Volume="2"
				Note Time="6" Value="A4" Duration="2" Instrument="Duty 0"
				Note Time="7" Volume="1"
				Note Time="8" Value="E4" Duration="1" Instrument="Duty 0" FinePitch="0"
			PatternInstance Time="0" Pattern="Pattern 1"
			PatternInstance Time="1" Pattern="Pattern 2"
			PatternInstance Time="2" Pattern="Pattern 3"
			PatternInstance Time="3" Pattern="Pattern 4"
			PatternInstance Time="4" Pattern="Pattern 5"
			PatternInstance Time="5" Pattern="Pattern 6"
			PatternInstance Time="6" Pattern="Pattern 7"
			PatternInstance Time="7" Pattern="Pattern 8"
			PatternInstance Time="8" Pattern="Pattern 9"
			PatternInstance Time="9" Pattern="Pattern 10"
			PatternInstance Time="10" Pattern="Pattern 11"
			PatternInstance Time="11" Pattern="Pattern 12"
			PatternInstance Time="12" Pattern="Pattern 13"
			PatternInstance Time="13" Pattern="Pattern 14"
			PatternInstance Time="14" Pattern="Pattern 15"
			PatternInstance Time="15" Pattern="Pattern 16"
			PatternInstance Time="16" Pattern="Pattern 17"
			PatternInstance Time="17" Pattern="Pattern 18"
			PatternInstance Time="18" Pattern="Pattern 19"
			PatternInstance Time="19" Pattern="Pattern 20"
			PatternInstance Time="20" Pattern="Pattern 21"
			PatternInstance Time="21" Pattern="Pattern 22"
			PatternInstance Time="22" Pattern="Pattern 23"
			PatternInstance Time="23" Pattern="Pattern 24"
			PatternInstance Time="24" Pattern="Pattern 25"
			PatternInstance Time="25" Pattern="Pattern 26"
			PatternInstance Time="26" Pattern="Pattern 27"
			PatternInstance Time="27" Pattern="Pattern 28"
			PatternInstance Time="28" Pattern="Pattern 29"
			PatternInstance Time="29" Pattern="Pattern 30"
			PatternInstance Time="30" Pattern="Pattern 31"
			PatternInstance Time="31" Pattern="Pattern 32"
			PatternInstance Time="32" Pattern="Pattern 33"
			PatternInstance Time="33" Pattern="Pattern 34"
			PatternInstance Time="34" Pattern="Pattern 35"
			PatternInstance Time="35" Pattern="Pattern 36"
			PatternInstance Time="36" Pattern="Pattern 37"
			PatternInstance Time="37" Pattern="Pattern 38"
			PatternInstance Time="38" Pattern="Pattern 39"
			PatternInstance Time="39" Pattern="Pattern 40"
			PatternInstance Time="40" Pattern="Pattern 41"
			PatternInstance Time="41" Pattern="Pattern 42"
		Channel Type="Square2"
			Pattern Name="Pattern 1"
				Note Time="0" Volume="1"
				Note Time="1" Volume="2"
				Note Time="2" Volume="3"
				Note Time="3" Volume="4"
				Note Time="4" Volume="5"
				Note Time="5" Volume="6"
				Note Time="6" Volume="7"
				Note Time="7" Volume="8"
				Note Time="8" Volume="9"
				Note Time="9" Volume="10"
				Note Time="10" Volume="11"
				Note Time="11" Volume="12"
				Note Time="12" Volume="13"
				Note Time="13" Volume="14"
				Note Time="14" Volume="15"
				Note Time="15" Volume="14"
				Note Time="16" Volume="13"
				Note Time="17" Volume="12"
				Note Time="18" Volume="11"
				Note Time="19" Volume="10"
				Note Time="20" Volume="9"
				Note Time="21" Volume="8"
				Note Time="22" Volume="7"
				Note Time="23" Volume="6"
				Note Time="24" Volume="5"
				Note Time="25" Volume="4"
				Note Time="26" Volume="3"
				Note Time="27" Volume="2"
				Note Time="28" Volume="1"
				Note Time="128" Value="C3" Duration="16" Instrument="Duty 0"
				Note Time="129" Volume="2"
				Note Time="143" Volume="1"
				Note Time="144" Value="E3" Duration="6" Instrument="Duty 0" FinePitch="1"
				Note Time="145" Volume="2"
				Note Time="149" Volume="1"
				Note Time="152" Value="G3" Duration="6" Instrument="Duty 0"
				Note Time="153" Volume="2"
				Note Time="157" Volume="1"
				Note Time="160" Value="F3" Duration="16" Instrument="Duty 0"
				Note Time="161" Volume="2"
				Note Time="175" Volume="1"
				Note Time="176" Value="D3" Duration="5" Instrument="Duty 0" FinePitch="0"
				Note Time="177" Volume="2"
				Note Time="180" Volume="1"
				Note Time="192" Value="E3" Duration="5" Instrument="Duty 0" FinePitch="1"
				Note Time="193" Volume="2"
				Note Time="196" Volume="1"
				Note Time="208" Value="G3" Duration="5" Instrument="Duty 0"
				Note Time="209" Volume="2"
				Note Time="212" Volume="1"
				Note Time="224" Value="C4" Duration="160" Instrument="Duty 0" FinePitch="0"
				Note Time="225" Volume="2"
			Pattern Name="Pattern 2"
				Note Time="127" Volume="1"
				Note Time="128" Value="B3" Duration="16" Instrument="Duty 0" FinePitch="1"
				Note Time="129" Volume="2"
				Note Time="143" Volume="1"
				Note Time="144" Value="G3" Duration="6" Instrument="Duty 0"
				Note Time="145" Volume="2"
				Note Time="149" Volume="1"
				Note Time="152" Value="D3" Duration="6" Instrument="Duty 0" FinePitch="0"
				Note Time="153" Volume="2"
				Note Time="157" Volume="1"
				Note Time="160" Value="B2" Duration="16" Instrument="Duty 0"
				Note Time="161" Volume="2"
				Note Time="175" Volume="1"
				Note Time="176" Value="G2" Duration="5" Instrument="Duty 0"
				Note Time="177" Volume="2"
				Note Time="180" Volume="1"
				Note Time="192" Value="C3" Duration="32" Instrument="Duty 0"
				Note Time="193" Volume="2"
				Note Time="223" Volume="1"
				Note Time="224" Value="C2" Duration="32" Instrument="Duty 0" FinePitch="1"
				Note Time="225" Volume="2"
				Note Time="255" Volume="1"
			Pattern Name="Pattern 3"
				Note Time="0" Value="E4" Duration="1" Instrument="Duty 0" Volume="6" FinePitch="0"
				Note Time="1" Value="E5" Duration="1" Instrument="Duty 0"
				Note Time="2" Value="B3" Duration="1" Instrument="Duty 0" FinePitch="1"
				Note Time="3" Value="B4" Duration="1" Instrument="Duty 0"
				Note Time="4" Value="G#3" Duration="1" Instrument="Duty 0"
				Note Time="5" Value="G#4" Duration="1" Instrument="Duty 0" FinePitch="0"
				Note Time="6" Value="E3" Duration="1" Instrument="Duty 0" FinePitch="1"
				Note Time="7" Value="E4" Duration="2" Instrument="Duty 0" FinePitch="0"
				Note Time="9" Value="E5" Duration="1" Instrument="Duty 0"
				Note Time="10" Value="B3" Duration="1" Instrument="Duty 0" FinePitch="1"
				Note Time="11" Value="B4" Duration="1" Instrument="Duty 0"
				Note Time="12" Value="G#3" Duration="1" Instrument="Duty 0"
				Note Time="13" Value="G#4" Duration="1" Instrument="Duty 0" FinePitch="0"
				Note Time="14" Value="E3" Duration="1" Instrument="Duty 0" FinePitch="1"
				Note Time="15" Value="E4" Duration="2" Instrument="Duty 0" FinePitch="0"
				Note Time="17" Value="E5" Duration="1" Instrument="Duty 0"
				Note Time="18" Value="B3" Duration="1" Instrument="Duty 0" FinePitch="1"
				Note Time="19" Value="B4" Duration="1" Instrument="Duty 0"
				Note Time="20" Value="G#3" Duration="1" Instrument="Duty 0"
				Note Time="21" Value="G#4" Duration="1" Instrument="Duty 0" FinePitch="0"
				Note Time="22" Value="E3" Duration="1" Instrument="Duty 0" FinePitch="1"
				Note Time="23" Value="E4" Duration="2" Instrument="Duty 0" FinePitch="0"
				Note Time="25" Value="E5" Duration="1" Instrument="Duty 0"
				Note Time="26" Value="B3" Duration="1" Instrument="Duty 0" FinePitch="1"
				Note Time="27" Value="B4" Duration="1" Instrument="Duty 0"
				Note Time="28" Value="G#3" Duration="1" Instrument="Duty 0"
				Note Time="29" Value="G#4" Duration="1" Instrument="Duty 0" FinePitch="0"
				Note Time="30" Value="E3" Duration="1" Instrument="Duty 0" FinePitch="1"
				Note Time="31" Value="E4" Duration="2" Instrument="Duty 0" FinePitch="0"
				Note Time="33" Value="E5" Duration="1" Instrument="Duty 0"
				Note Time="34" Value="B3" Duration="1" Instrument="Duty 0" FinePitch="1"
				Note Time="35" Value="B4" Duration="1" Instrument="Duty 0"
				Note Time="36" Value="G#3" Duration="1" Instrument="Duty 0"
				Note Time="37" Value="G#4" Duration="1" Instrument="Duty 0" FinePitch="0"
				Note Time="38" Value="E3" Duration="1" Instrument="Duty 0" FinePitch="1"
				Note Time="39" Value="E4" Duration="2" Instrument="Duty 0" FinePitch="0"
				Note Time="41" Value="E5" Duration="1" Instrument="Duty 0"
				Note Time="42" Value="B3" Duration="1" Instrument="Duty 0" FinePitch="1"
				Note Time="43" Value="B4" Duration="1" Instrument="Duty 0"
				Note Time="44" Value="G#3" Duration="1" Instrument="Duty 0"
				Note Time="45" Value="G#4" Duration="1" Instrument="Duty 0" FinePitch="0"
				Note Time="46" Value="E3" Duration="1" Instrument="Duty 0" FinePitch="1"
				Note Time="47" Value="E4" Duration="2" Instrument="Duty 0" FinePitch="0"
				Note Time="49" Value="E5" Duration="1" Instrument="Duty 0"
				Note Time="50" Value="C#4" Duration="1" Instrument="Duty 0"
				Note Time="51" Value="C#5" Duration="1" Instrument="Duty 0"
				Note Time="52" Value="A3" Duration="1" Instrument="Duty 0" FinePitch="1"
				Note Time="53" Value="A4" Duration="1" Instrument="Duty 0"
				Note Time="54" Value="E3" Duration="1" Instrument="Duty 0"
				Note Time="55" Value="E4" Duration="2" Instrument="Duty 0" FinePitch="0"
				Note Time="57" Value="E5" Duration="1" Instrument="Duty 0"
				Note Time="58" Value="C#4" Duration="1" Instrument="Duty 0"
				Note Time="59" Value="C#5" Duration="1" Instrument="Duty 0"
				Note Time="60" Value="A3" Duration="1" Instrument="Duty 0" FinePitch="1"
				Note Time="61" Value="A4" Duration="1" Instrument="Duty 0"
				Note Time="62" Value="E3" Duration="1" Instrument="Duty 0"
				Note Time="63" Value="E4" Duration="2" Instrument="Duty 0" FinePitch="0"
				Note Time="65" Value="E5" Duration="1" Instrument="Duty 0"
				Note Time="66" Value="C#4" Duration="1" Instrument="Duty 0"
				Note Time="67" Value="C#5" Duration="1" Instrument="Duty 0"
				Note Time="68" Value="A3" Duration="1" Instrument="Duty 0" FinePitch="1"
				Note Time="69" Value="A4" Duration="1" Instrument="Duty 0"
				Note Time="70" Value="E3" Duration="1" Instrument="Duty 0"
				Note Time="71" Value="E4" Duration="2" Instrument="Duty 0" FinePitch="0"
				Note Time="73" Value="E5" Duration="1" Instrument="Duty 0"
				Note Time="74" Value="C#4" Duration="1" Instrument="Duty 0"
				Note Time="75" Value="C#5" Duration="1" Instrument="Duty 0"
				Note Time="76" Value="A3" Duration="1" Instrument="Duty 0" FinePitch="1"
				Note Time="77" Value="A4" Duration="1" Instrument="Duty 0"
				Note Time="78" Value="E3" Duration="1" Instrument="Duty 0"
				Note Time="79" Value="E4" Duration="2" Instrument="Duty 0" FinePitch="0"
				Note Time="81" Value="E5" Duration="1" Instrument="Duty 0"
				Note Time="82" Value="C#4" Duration="1" Instrument="Duty 0"
				Note Time="83" Value="C#5" Duration="1" Instrument="Duty 0"
				Note Time="84" Value="A3" Duration="1" Instrument="Duty 0" FinePitch="1"
				Note Time="85" Value="A4" Duration="1" Instrument="Duty 0"
				Note Time="86" Value="E3" Duration="1" Instrument="Duty 0"
				Note Time="87" Value="E4" Duration="2" Instrument="Duty 0" FinePitch="0"
				Note Time="89" Value="E5" Duration="1" Instrument="Duty 0"
				Note Time="90" Value="C#4" Duration="1" Instrument="Duty 0"
				Note Time="91" Value="C#5" Duration="1" Instrument="Duty 0"
				Note Time="92" Value="A3" Duration="1" Instrument="Duty 0" FinePitch="1"
				Note Time="93" Value="A4" Duration="1" Instrument="Duty 0"
				Note Time="94" Value="E3" Duration="1" Instrument="Duty 0"
				Note Time="95" Value="E4" Duration="2" Instrument="Duty 0" FinePitch="0"
				Note Time="97" Value="E5" Duration="1" Instrument="Duty 0"
				Note Time="98" Value="C#4" Duration="1" Instrument="Duty 0"
				Note Time="99" Value="C#5" Duration="1" Instrument="Duty 0"
				Note Time="100" Value="A3" Duration="1" Instrument="Duty 0" FinePitch="1"
				Note Time="101" Value="A4" Duration="1" Instrument="Duty 0"
				Note Time="102" Value="E3" Duration="1" Instrument="Duty 0"
				Note Time="103" Value="E4" Duration="2" Instrument="Duty 0" FinePitch="0"
				Note Time="105" Value="E5" Duration="1" Instrument="Duty 0"
				Note Time="106" Value="C#4" Duration="1" Instrument="Duty 0"
				Note Time="107" Value="C#5" Duration="1" Instrument="Duty 0"
				Note Time="108" Value="A3" Duration="1" Instrument="Duty 0" FinePitch="1"
				Note Time="109" Value="A4" Duration="1" Instrument="Duty 0"
				Note Time="110" Value="E3" Duration="1" Instrument="Duty 0"
				Note Time="111" Value="E4" Duration="2" Instrument="Duty 0" FinePitch="0"
				Note Time="113" Value="E5" Duration="1" Instrument="Duty 0"
				Note Time="114" Value="C#4" Duration="1" Instrument="Duty 0"
				Note Time="115" Value="C#5" Duration="1" Instrument="Duty 0"
				Note Time="116" Value="A3" Duration="1" Instrument="Duty 0" FinePitch="1"
				Note Time="117" Value="A4" Duration="1" Instrument="Duty 0"
				Note Time="118" Value="E3" Duration="1" Instrument="Duty 0"
				Note Time="119" Value="E4" Duration="2" Instrument="Duty 0" FinePitch="0"
				Note Time="121" Value="E5" Duration="1" Instrument="Duty 0"
				Note Time="122" Value="C#4" Duration="1" Instrument="Duty 0"
				Note Time="123" Value="C#5" Duration="1" Instrument="Duty 0"
				Note Time="124" Value="A3" Duration="1" Instrument="Duty 0" FinePitch="1"
				Note Time="125" Value="A4" Duration="1" Instrument="Duty 0"
				Note Time="126" Value="E3" Duration="1" Instrument="Duty 0"
				Note Time="127" Value="E4" Duration="2" Instrument="Duty 0" FinePitch="0"
				Note Time="129" Value="E5" Duration="1" Instrument="Duty 0"
				Note Time="130" Value="C#4" Duration="1" Instrument="Duty 0"
				Note Time="131" Value="C#5" Duration="1" Instrument="Duty 0"
				Note Time="132" Value="A3" Duration="1" Instrument="Duty 0" FinePitch="1"
				Note Time="133" Value="A4" Duration="1" Instrument="Duty 0"
				Note Time="134" Value="E3" Duration="1" Instrument="Duty 0"
				Note Time="135" Value="E4" Duration="2" Instrument="Duty 0" FinePitch="0"
				Note Time="137" Value="E5" Duration="1" Instrument="Duty 0"
				Note Time="138" Value="C#4" Duration="1" Instrument="Duty 0"
				Note Time="139" Value="C#5" Duration="1" Instrument="Duty 0"
				Note Time="140" Value="A3" Duration="1" Instrument="Duty 0" FinePitch="1"
				Note Time="141" Value="A4" Duration="1" Instrument="Duty 0"
				Note Time="142" Value="E3" Duration="1" Instrument="Duty 0"
				Note Time="143" Value="E4" Duration="2" Instrument="Duty 0" FinePitch="0"
				Note Time="145" Value="E5" Duration="1" Instrument="Duty 0"
				Note Time="146" Value="C#4" Duration="1" Instrument="Duty 0"
				Note Time="147" Value="C#5" Duration="1" Instrument="Duty 0"
				Note Time="148" Value="A3" Duration="1" Instrument="Duty 0" FinePitch="1"
				Note Time="149" Value="A4" Duration="1" Instrument="Duty 0"
				Note Time="150" Value="E3" Duration="1" Instrument="Duty 0"
				Note Time="151" Value="E4" Duration="2" Instrument="Duty 0" FinePitch="0"
				Note Time="153" Value="E5" Duration="1" Instrument="Duty 0"
				Note Time="154" Value="C#4" Duration="1" Instrument="Duty 0"
				Note Time="155" Value="C#5" Duration="1" Instrument="Duty 0"
				Note Time="156" Value="A3" Duration="1" Instrument="Duty 0" FinePitch="1"
				Note Time="157" Value="A4" Duration="1" Instrument="Duty 0"
				Note Time="158" Value="E3" Duration="1" Instrument="Duty 0"
				Note Time="159" Value="E4" Duration="2" Instrument="Duty 0" FinePitch="0"
				Note Time="161" Value="E5" Duration="1" Instrument="Duty 0"
				Note Time="162" Value="C#4" Duration="1" Instrument="Duty 0"
				Note Time="163" Value="C#5" Duration="1" Instrument="Duty 0"
				Note Time="164" Value="A3" Duration="1" Instrument="Duty 0" FinePitch="1"
				Note Time="165" Value="A4" Duration="1" Instrument="Duty 0"
				Note Time="166" Value="E3" Duration="1" Instrument="Duty 0"
				Note Time="167" Value="E4" Duration="2" Instrument="Duty 0" FinePitch="0"
				Note Time="169" Value="E5" Duration="1" Instrument="Duty 0"
				Note Time="170" Value="C#4" Duration="1" Instrument="Duty 0"
				Note Time="171" Value="C#5" Duration="1" Instrument="Duty 0"
				Note Time="172" Value="A3" Duration="1" Instrument="Duty 0" FinePitch="1"
				Note Time="173" Value="A4" Duration="1" Instrument="Duty 0"
				Note Time="174" Value="E3" Duration="1" Instrument="Duty 0"
				Note Time="175" Value="E4" Duration="2" Instrument="Duty 0" FinePitch="0"
				Note Time="177" Value="E5" Duration="1" Instrument="Duty 0"
				Note Time="178" Value="C#4" Duration="1" Instrument="Duty 0"
				Note Time="179" Value="C#5" Duration="1" Instrument="Duty 0"
				Note Time="180" Value="A3" Duration="1" Instrument="Duty 0" FinePitch="1"
				Note Time="181" Value="A4" Duration="1" Instrument="Duty 0"
				Note Time="182" Value="E3" Duration="1" Instrument="Duty 0"
				Note Time="183" Value="E4" Duration="2" Instrument="Duty 0" FinePitch="0"
				Note Time="185" Value="E5" Duration="1" Instrument="Duty 0"
				Note Time="186" Value="C#4" Duration="1" Instrument="Duty 0"
				Note Time="187" Value="C#5" Duration="1" Instrument="Duty 0"
				Note Time="188" Value="A3" Duration="1" Instrument="Duty 0" FinePitch="1"
				Note Time="189" Value="A4" Duration="1" Instrument="Duty 0"
				Note Time="190" Value="E3" Duration="1" Instrument="Duty 0"
				Note Time="191" Value="E4" Duration="2" Instrument="Duty 0" FinePitch="0"
				Note Time="193" Value="E5" Duration="1" Instrument="Duty 0"
				Note Time="194" Value="B3" Duration="1" Instrument="Duty 0" FinePitch="1"
				Note Time="195" Value="B4" Duration="1" Instrument="Duty 0"
				Note Time="196" Value="G#3" Duration="1" Instrument="Duty 0"
				Note Time="197" Value="G#4" Duration="1" Instrument="Duty 0" FinePitch="0"
				Note Time="198" Value="E3" Duration="1" Instrument="Duty 0" FinePitch="1"
				Note Time="199" Value="E4" Duration="2" Instrument="Duty 0" FinePitch="0"
				Note Time="201" Value="E5" Duration="1" Instrument="Duty 0"
				Note Time="202" Value="B3" Duration="1" Instrument="Duty 0" FinePitch="1"
				Note Time="203" Value="B4" Duration="1" Instrument="Duty 0"
				Note Time="204" Value="G#3" Duration="1" Instrument="Duty 0"
				Note Time="205" Value="G#4" Duration="1" Instrument="Duty 0" FinePitch="0"
				Note Time="206" Value="E3" Duration="1" Instrument="Duty 0" FinePitch="1"
				Note Time="207" Value="E4" Duration="2" Instrument="Duty 0" FinePitch="0"
				Note Time="209" Value="E5" Duration="1" Instrument="Duty 0"
				Note Time="210" Value="B3" Duration="1" Instrument="Duty 0" FinePitch="1"
				Note Time="211" Value="B4" Duration="1" Instrument="Duty 0"
				Note Time="212" Value="G#3" Duration="1" Instrument="Duty 0"
				Note Time="213" Value="G#4" Duration="1" Instrument="Duty 0" FinePitch="0"
				Note Time="214" Value="E3" Duration="1" Instrument="Duty 0" FinePitch="1"
				Note Time="215" Value="E4" Duration="2" Instrument="Duty 0" FinePitch="0"
				Note Time="217" Value="E5" Duration="1" Instrument="Duty 0"
				Note Time="218" Value="B3" Duration="1" Instrument="Duty 0" FinePitch="1"
				Note Time="219" Value="B4" Duration="1" Instrument="Duty 0"
				Note Time="220" Value="G#3" Duration="1" Instrument="Duty 0"
				Note Time="221" Value="G#4" Duration="1" Instrument="Duty 0" FinePitch="0"
				Note Time="222" Value="E3" Duration="1" Instrument="Duty 0" FinePitch="1"
				Note Time="223" Value="E4" Duration="2" Instrument="Duty 0" FinePitch="0"
				Note Time="225" Value="E5" Duration="1" Instrument="Duty 0"
				Note Time="226" Value="B3" Duration="1" Instrument="Duty 0" FinePitch="1"
				Note Time="227" Value="B4" Duration="1" Instrument="Duty 0"
				Note Time="228" Value="G#3" Duration="1" Instrument="Duty 0"
				Note Time="229" Value="G#4" Duration="1" Instrument="Duty 0" FinePitch="0"
				Note Time="230" Value="E3" Duration="1" Instrument="Duty 0" FinePitch="1"
				Note Time="231" Value="E4" Duration="2" Instrument="Duty 0" FinePitch="0"
				Note Time="233" Value="E5" Duration="1" Instrument="Duty 0"
				Note Time="234" Value="B3" Duration="1" Instrument="Duty 0" FinePitch="1"
				Note Time="235" Value="B4" Duration="1" Instrument="Duty 0"
				Note Time="236" Value="G#3" Duration="1" Instrument="Duty 0"
				Note Time="237" Value="G#4" Duration="1" Instrument="Duty 0" FinePitch="0"
				Note Time="238" Value="E3" Duration="1" Instrument="Duty 0" FinePitch="1"
				Note Time="239" Value="E4" Duration="1" Instrument="Duty 0" FinePitch="0"
				Note Time="240" Value="D4" Duration="1" Instrument="Duty 0" FinePitch="1"
				Note Time="241" Value="D5" Duration="1" Instrument="Duty 0"
				Note Time="242" Value="B3" Duration="1" Instrument="Duty 0"
				Note Time="243" Value="B4" Duration="1" Instrument="Duty 0"
				Note Time="244" Value="G3" Duration="1" Instrument="Duty 0"
				Note Time="245" Value="G4" Duration="1" Instrument="Duty 0" FinePitch="0"
				Note Time="246" Value="D3" Duration="1" Instrument="Duty 0"
				Note Time="247" Value="D4" Duration="2" Instrument="Duty 0" FinePitch="1"
				Note Time="249" Value="D5" Duration="1" Instrument="Duty 0"
				Note Time="250" Value="B3" Duration="1" Instrument="Duty 0"
				Note Time="251" Value="B4" Duration="1" Instrument="Duty 0"
				Note Time="252" Value="G3" Duration="1" Instrument="Duty 0"
				Note Time="253" Value="G4" Duration="1" Instrument="Duty 0" FinePitch="0"
				Note Time="254" Value="D3" Duration="1" Instrument="Duty 0"
				Note Time="255" Value="D4" Duration="2" Instrument="Duty 0" FinePitch="1"
			Pattern Name="Pattern 4"
				Note Time="1" Value="D5" Duration="1" Instrument="Duty 0"
				Note Time="2" Value="B3" Duration="1" Instrument="Duty 0"
				Note Time="3" Value="B4" Duration="1" Instrument="Duty 0"
				Note Time="4" Value="G3" Duration="1" Instrument="Duty 0"
				Note Time="5" Value="G4" Duration="1" Instrument="Duty 0" FinePitch="0"
				Note Time="6" Value="D3" Duration="1" Instrument="Duty 0"
				Note Time="7" Value="D4" Duration="2" Instrument="Duty 0" FinePitch="1"
				Note Time="9" Value="D5" Duration="1" Instrument="Duty 0"
				Note Time="10" Value="B3" Duration="1" Instrument="Duty 0"
				Note Time="11" Value="B4" Duration="1" Instrument="Duty 0"
				Note Time="12" Value="G3" Duration="1" Instrument="Duty 0"
				Note Time="13" Value="G4" Duration="1" Instrument="Duty 0" FinePitch="0"
				Note Time="14" Value="D3" Duration="1" Instrument="Duty 0"
				Note Time="15" Value="D4" Duration="2" Instrument="Duty 0" FinePitch="1"
				Note Time="17" Value="D5" Duration="1" Instrument="Duty 0"
				Note Time="18" Value="B3" Duration="1" Instrument="Duty 0"
				Note Time="19" Value="B4" Duration="1" Instrument="Duty 0"
				Note Time="20" Value="G3" Duration="1" Instrument="Duty 0"
				Note Time="21" Value="G4" Duration="1" Instrument="Duty 0" FinePitch="0"
				Note Time="22" Value="D3" Duration="1" Instrument="Duty 0"
				Note Time="23" Value="D4" Duration="2" Instrument="Duty 0" FinePitch="1"
				Note Time="25" Value="D5" Duration="1" Instrument="Duty 0"
				Note Time="26" Value="B3" Duration="1" Instrument="Duty 0"
				Note Time="27" Value="B4" Duration="1" Instrument="Duty 0"
				Note Time="28" Value="G3" Duration="1" Instrument="Duty 0"
				Note Time="29" Value="G4" Duration="1" Instrument="Duty 0" FinePitch="0"
				Note Time="30" Value="D3" Duration="1" Instrument="Duty 0"
				Note Time="31" Value="D4" Duration="2" Instrument="Duty 0" FinePitch="1"
				Note Time="33" Value="D5" Duration="1" Instrument="Duty 0"
				Note Time="34" Value="B3" Duration="1" Instrument="Duty 0"
				Note Time="35" Value="B4" Duration="1" Instrument="Duty 0"
				Note Time="36" Value="G3" Duration="1" Instrument="Duty 0"
				Note Time="37" Value="G4" Duration="1" Instrument="Duty 0" FinePitch="0"
				Note Time="38" Value="D3" Duration="1" Instrument="Duty 0"
				Note Time="39" Value="D4" Duration="2" Instrument="Duty 0" FinePitch="1"
				Note Time="41" Value="D5" Duration="1" Instrument="Duty 0"
				Note Time="42" Value="B3" Duration="1" Instrument="Duty 0"
				Note Time="43" Value="B4" Duration="1" Instrument="Duty 0"
				Note Time="44" Value="G3" Duration="1" Instrument="Duty 0"
				Note Time="45" Value="G4" Duration="1" Instrument="Duty 0" FinePitch="0"
				Note Time="46" Value="D3" Duration="1" Instrument="Duty 0"
				Note Time="47" Value="D4" Duration="2" Instrument="Duty 0" FinePitch="1"
				Note Time="49" Value="D5" Duration="1" Instrument="Duty 0"
				Note Time="50" Value="B3" Duration="1" Instrument="Duty 0"
				Note Time="51" Value="B4" Duration="1" Instrument="Duty 0"
				Note Time="52" Value="G3" Duration="1" Instrument="Duty 0"
				Note Time="53" Value="G4" Duration="1" Instrument="Duty 0" FinePitch="0"
				Note Time="54" Value="D3" Duration="1" Instrument="Duty 0"
				Note Time="55" Value="D4" Duration="2" Instrument="Duty 0" FinePitch="1"
				Note Time="57" Value="D5" Duration="1" Instrument="Duty 0"
				Note Time="58" Value="B3" Duration="1" Instrument="Duty 0"
				Note Time="59" Value="B4" Duration="1" Instrument="Duty 0"
				Note Time="60" Value="G3" Duration="1" Instrument="Duty 0"
				Note Time="61" Value="G4" Duration="1" Instrument="Duty 0" FinePitch="0"
				Note Time="62" Value="D3" Duration="1" Instrument="Duty 0"
				Note Time="63" Value="D4" Duration="2" Instrument="Duty 0" FinePitch="1"
				Note Time="65" Value="D5" Duration="1" Instrument="Duty 0"
				Note Time="66" Value="B3" Duration="1" Instrument="Duty 0"
				Note Time="67" Value="B4" Duration="1" Instrument="Duty 0"
				Note Time="68" Value="G3" Duration="1" Instrument="Duty 0"
				Note Time="69" Value="G4" Duration="1" Instrument="Duty 0" FinePitch="0"
				Note Time="70" Value="D3" Duration="1" Instrument="Duty 0"
				Note Time="71" Value="D4" Duration="2" Instrument="Duty 0" FinePitch="1"
				Note Time="73" Value="D5" Duration="1" Instrument="Duty 0"
				Note Time="74" Value="B3" Duration="1" Instrument="Duty 0"
				Note Time="75" Value="B4" Duration="1" Instrument="Duty 0"
				Note Time="76" Value="G3" Duration="1" Instrument="Duty 0"
				Note Time="77" Value="G4" Duration="1" Instrument="Duty 0" FinePitch="0"
				Note Time="78" Value="D3" Duration="1" Instrument="Duty 0"
				Note Time="79" Value="D4" Duration="2" Instrument="Duty 0" FinePitch="1"
				Note Time="81" Value="D5" Duration="1" Instrument="Duty 0"
				Note Time="82" Value="B3" Duration="1" Instrument="Duty 0"
				Note Time="83" Value="B4" Duration="1" Instrument="Duty 0"
				Note Time="84" Value="G3" Duration="1" Instrument="Duty 0"
				Note Time="85" Value="G4" Duration="1" Instrument="Duty 0" FinePitch="0"
				Note Time="86" Value="D3" Duration="1" Instrument="Duty 0"
				Note Time="87" Value="D4" Duration="2" Instrument="Duty 0" FinePitch="1"
				Note Time="89" Value="D5" Duration="1" Instrument="Duty 0"
				Note Time="90" Value="B3" Duration="1" Instrument="Duty 0"
				Note Time="91" Value="B4" Duration="1" Instrument="Duty 0"
				Note Time="92" Value="G3" Duration="1" Instrument="Duty 0"
				Note Time="93" Value="G4" Duration="1" Instrument="Duty 0" FinePitch="0"
				Note Time="94" Value="D3" Duration="1" Instrument="Duty 0"
				Note Time="95" Value="D4" Duration="2" Instrument="Duty 0" FinePitch="1"
				Note Time="97" Value="D5" Duration="1" Instrument="Duty 0"
				Note Time="98" Value="B3" Duration="1" Instrument="Duty 0"
				Note Time="99" Value="B4" Duration="1" Instrument="Duty 0"
				Note Time="100" Value="G3" Duration="1" Instrument="Duty 0"
				Note Time="101" Value="G4" Duration="1" Instrument="Duty 0" FinePitch="0"
				Note Time="102" Value="D3" Duration="1" Instrument="Duty 0"
				Note Time="103" Value="D4" Duration="2" Instrument="Duty 0" FinePitch="1"
				Note Time="105" Value="D5" Duration="1" Instrument="Duty 0"
				Note Time="106" Value="B3" Duration="1" Instrument="Duty 0"
				Note Time="107" Value="B4" Duration="1" Instrument="Duty 0"
				Note Time="108" Value="G3" Duration="1" Instrument="Duty 0"
				Note Time="109" Value="G4" Duration="1" Instrument="Duty 0" FinePitch="0"
				Note Time="110" Value="D3" Duration="1" Instrument="Duty 0"
				Note Time="111" Value="D4" Duration="2" Instrument="Duty 0" FinePitch="1"
				Note Time="113" Value="D5" Duration="1" Instrument="Duty 0"
				Note Time="114" Value="B3" Duration="1" Instrument="Duty 0"
				Note Time="115" Value="B4" Duration="1" Instrument="Duty 0"
				Note Time="116" Value="G3" Duration="1" Instrument="Duty 0"
				Note Time="117" Value="G4" Duration="1" Instrument="Duty 0" FinePitch="0"
				Note Time="118" Value="D3" Duration="1" Instrument="Duty 0"
				Note Time="119" Value="D4" Duration="2" Instrument="Duty 0" FinePitch="1"
				Note Time="121" Value="D5" Duration="1" Instrument="Duty 0"
				Note Time="122" Value="B3" Duration="1" Instrument="Duty 0"
				Note Time="123" Value="B4" Duration="1" Instrument="Duty 0"
				Note Time="124" Value="G3" Duration="1" Instrument="Duty 0"
				Note Time="125" Value="G4" Duration="1" Instrument="Duty 0" FinePitch="0"
				Note Time="126" Value="D3" Duration="1" Instrument="Duty 0"
				Note Time="127" Value="D4" Duration="1" Instrument="Duty 0" FinePitch="1"
				Note Time="128" Value="E4" Duration="1" Instrument="Duty 0" FinePitch="0"
				Note Time="129" Value="E5" Duration="1" Instrument="Duty 0"
				Note Time="130" Value="B3" Duration="1" Instrument="Duty 0" FinePitch="1"
				Note Time="131" Value="B4" Duration="1" Instrument="Duty 0"
				Note Time="132" Value="G#3" Duration="1" Instrument="Duty 0"
				Note Time="133" Value="G#4" Duration="1" Instrument="Duty 0" FinePitch="0"
				Note Time="134" Value="E3" Duration="1" Instrument="Duty 0" FinePitch="1"
				Note Time="135" Value="E4" Duration="2" Instrument="Duty 0" FinePitch="0"
				Note Time="137" Value="E5" Duration="1" Instrument="Duty 0"
				Note Time="138" Value="B3" Duration="1" Instrument="Duty 0" FinePitch="1"
				Note Time="139" Value="B4" Duration="1" Instrument="Duty 0"
				Note Time="140" Value="G#3" Duration="1" Instrument="Duty 0"
				Note Time="141" Value="G#4" Duration="1" Instrument="Duty 0" FinePitch="0"
				Note Time="142" Value="E3" Duration="1" Instrument="Duty 0" FinePitch="1"
				Note Time="143" Value="E4" Duration="2" Instrument="Duty 0" FinePitch="0"
				Note Time="145" Value="E5" Duration="1" Instrument="Duty 0"
				Note Time="146" Value="B3" Duration="1" Instrument="Duty 0" FinePitch="1"
				Note Time="147" Value="B4" Duration="1" Instrument="Duty 0"
				Note Time="148" Value="G#3" Duration="1" Instrument="Duty 0"
				Note Time="149" Value="G#4" Duration="1" Instrument="Duty 0" FinePitch="0"
				Note Time="150" Value="E3" Duration="1" Instrument="Duty 0" FinePitch="1"
				Note Time="151" Value="E4" Duration="2" Instrument="Duty 0" FinePitch="0"
				Note Time="153" Value="E5" Duration="1" Instrument="Duty 0"
				Note Time="154" Value="B3" Duration="1" Instrument="Duty 0" FinePitch="1"
				Note Time="155" Value="B4" Duration="1" Instrument="Duty 0"
				Note Time="156" Value="G#3" Duration="1" Instrument="Duty 0"
				Note Time="157" Value="G#4" Duration="1" Instrument="Duty 0" FinePitch="0"
				Note Time="158" Value="E3" Duration="1" Instrument="Duty 0" FinePitch="1"
				Note Time="159" Value="E4" Duration="2" Instrument="Duty 0" FinePitch="0"
				Note Time="161" Value="E5" Duration="1" Instrument="Duty 0"
				Note Time="162" Value="B3" Duration="1" Instrument="Duty 0" FinePitch="1"
				Note Time="163" Value="B4" Duration="1" Instrument="Duty 0"
				Note Time="164" Value="G#3" Duration="1" Instrument="Duty 0"
				Note Time="165" Value="G#4" Duration="1" Instrument="Duty 0" FinePitch="0"
				Note Time="166" Value="E3" Duration="1" Instrument="Duty 0" FinePitch="1"
				Note Time="167" Value="E4" Duration="2" Instrument="Duty 0" FinePitch="0"
				Note Time="169" Value="E5" Duration="1" Instrument="Duty 0"
				Note Time="170" Value="B3" Duration="1" Instrument="Duty 0" FinePitch="1"
				Note Time="171" Value="B4" Duration="1" Instrument="Duty 0"
				Note Time="172" Value="G#3" Duration="1" Instrument="Duty 0"
				Note Time="173" Value="G#4" Duration="1" Instrument="Duty 0" FinePitch="0"
				Note Time="174" Value="E3" Duration="1" Instrument="Duty 0" FinePitch="1"
				Note Time="175" Value="E4" Duration="2" Instrument="Duty 0" FinePitch="0"
				Note Time="177" Value="E5" Duration="1" Instrument="Duty 0"
				Note Time="178" Value="C#4" Duration="1" Instrument="Duty 0"
				Note Time="179" Value="C#5" Duration="1" Instrument="Duty 0"
				Note Time="180" Value="A3" Duration="1" Instrument="Duty 0" FinePitch="1"
				Note Time="181" Value="A4" Duration="1" Instrument="Duty 0"
				Note Time="182" Value="E3" Duration="1" Instrument="Duty 0"
				Note Time="183" Value="E4" Duration="2" Instrument="Duty 0" FinePitch="0"
				Note Time="185" Value="E5" Duration="1" Instrument="Duty 0"
				Note Time="186" Value="C#4" Duration="1" Instrument="Duty 0"
				Note Time="187" Value="C#5" Duration="1" Instrument="Duty 0"
				Note Time="188" Value="A3" Duration="1" Instrument="Duty 0" FinePitch="1"
				Note Time="189" Value="A4" Duration="1" Instrument="Duty 0"
				Note Time="190" Value="E3" Duration="1" Instrument="Duty 0"
				Note Time="191" Value="E4" Duration="2" Instrument="Duty 0" FinePitch="0"
				Note Time="193" Value="E5" Duration="1" Instrument="Duty 0"
				Note Time="194" Value="C#4" Duration="1" Instrument="Duty 0"
				Note Time="195" Value="C#5" Duration="1" Instrument="Duty 0"
				Note Time="196" Value="A3" Duration="1" Instrument="Duty 0" FinePitch="1"
				Note Time="197" Value="A4" Duration="1" Instrument="Duty 0"
				Note Time="198" Value="E3" Duration="1" Instrument="Duty 0"
				Note Time="199" Value="E4" Duration="2" Instrument="Duty 0" FinePitch="0"
				Note Time="201" Value="E5" Duration="1" Instrument="Duty 0"
				Note Time="202" Value="C#4" Duration="1" Instrument="Duty 0"
				Note Time="203" Value="C#5" Duration="1" Instrument="Duty 0"
				Note Time="204" Value="A3" Duration="1" Instrument="Duty 0" FinePitch="1"
				Note Time="205" Value="A4" Duration="1" Instrument="Duty 0"
				Note Time="206" Value="E3" Duration="1" Instrument="Duty 0"
				Note Time="207" Value="E4" Duration="2" Instrument="Duty 0" FinePitch="0"
				Note Time="209" Value="E5" Duration="1" Instrument="Duty 0"
				Note Time="210" Value="C#4" Duration="1" Instrument="Duty 0"
				Note Time="211" Value="C#5" Duration="1" Instrument="Duty 0"
				Note Time="212" Value="A3" Duration="1" Instrument="Duty 0" FinePitch="1"
				Note Time="213" Value="A4" Duration="1" Instrument="Duty 0"
				Note Time="214" Value="E3" Duration="1" Instrument="Duty 0"
				Note Time="215" Value="E4" Duration="2" Instrument="Duty 0" FinePitch="0"
				Note Time="217" Value="E5" Duration="1" Instrument="Duty 0"
				Note Time="218" Value="C#4" Duration="1" Instrument="Duty 0"
				Note Time="219" Value="C#5" Duration="1" Instrument="Duty 0"
				Note Time="220" Value="A3" Duration="1" Instrument="Duty 0" FinePitch="1"
				Note Time="221" Value="A4" Duration="1" Instrument="Duty 0"
				Note Time="222" Value="E3" Duration="1" Instrument="Duty 0"
				Note Time="223" Value="E4" Duration="2" Instrument="Duty 0" FinePitch="0"
				Note Time="225" Value="E5" Duration="1" Instrument="Duty 0"
				Note Time="226" Value="C#4" Duration="1" Instrument="Duty 0"
				Note Time="227" Value="C#5" Duration="1" Instrument="Duty 0"
				Note Time="228" Value="A3" Duration="1" Instrument="Duty 0" FinePitch="1"
				Note Time="229" Value="A4" Duration="1" Instrument="Duty 0"
				Note Time="230" Value="E3" Duration="1" Instrument="Duty 0"
				Note Time="231" Value="E4" Duration="2" Instrument="Duty 0" FinePitch="0"
				Note Time="233" Value="E5" Duration="1" Instrument="Duty 0"
				Note Time="234" Value="C#4" Duration="1" Instrument="Duty 0"
				Note Time="235" Value="C#5" Duration="1" Instrument="Duty 0"
				Note Time="236" Value="A3" Duration="1" Instrument="Duty 0" FinePitch="1"
				Note Time="237" Value="A4" Duration="1" Instrument="Duty 0"
				Note Time="238" Value="E3" Duration="1" Instrument="Duty 0"
				Note Time="239" Value="E4" Duration="2" Instrument="Duty 0" FinePitch="0"
				Note Time="241" Value="E5" Duration="1" Instrument="Duty 0"
				Note Time="242" Value="C#4" Duration="1" Instrument="Duty 0"
				Note Time="243" Value="C#5" Duration="1" Instrument="Duty 0"
				Note Time="244" Value="A3" Duration="1" Instrument="Duty 0" FinePitch="1"
				Note Time="245" Value="A4" Duration="1" Instrument="Duty 0"
				Note Time="246" Value="E3" Duration="1" Instrument="Duty 0"
				Note Time="247" Value="E4" Duration="2" Instrument="Duty 0" FinePitch="0"
				Note Time="249" Value="E5" Duration="1" Instrument="Duty 0"
				Note Time="250" Value="C#4" Duration="1" Instrument="Duty 0"
				Note Time="251" Value="C#5" Duration="1" Instrument="Duty 0"
				Note Time="252" Value="A3" Duration="1" Instrument="Duty 0" FinePitch="1"
				Note Time="253" Value="A4" Duration="1" Instrument="Duty 0"
				Note Time="254" Value="E3" Duration="1" Instrument="Duty 0"
				Note Time="255" Value="E4" Duration="2" Instrument="Duty 0" FinePitch="0"
			Pattern Name="Pattern 5"
				Note Time="1" Value="E5" Duration="1" Instrument="Duty 0"
				Note Time="2" Value="C#4" Duration="1" Instrument="Duty 0"
				Note Time="3" Value="C#5" Duration="1" Instrument="Duty 0"
				Note Time="4" Value="A3" Duration="1" Instrument="Duty 0" FinePitch="1"
				Note Time="5" Value="A4" Duration="1" Instrument="Duty 0"
				Note Time="6" Value="E3" Duration="1" Instrument="Duty 0"
				Note Time="7" Value="E4" Duration="2" Instrument="Duty 0" FinePitch="0"
				Note Time="9" Value="E5" Duration="1" Instrument="Duty 0"
				Note Time="10" Value="C#4" Duration="1" Instrument="Duty 0"
				Note Time="11" Value="C#5" Duration="1" Instrument="Duty 0"
				Note Time="12" Value="A3" Duration="1" Instrument="Duty 0" FinePitch="1"
				Note Time="13" Value="A4" Duration="1" Instrument="Duty 0"
				Note Time="14" Value="E3" Duration="1" Instrument="Duty 0"
				Note Time="15" Value="E4" Duration="2" Instrument="Duty 0" FinePitch="0"
				Note Time="17" Value="E5" Duration="1" Instrument="Duty 0"
				Note Time="18" Value="C#4" Duration="1" Instrument="Duty 0"
				Note Time="19" Value="C#5" Duration="1" Instrument="Duty 0"
				Note Time="20" Value="A3" Duration="1" Instrument="Duty 0" FinePitch="1"
				Note Time="21" Value="A4" Duration="1" Instrument="Duty 0"
				Note Time="22" Value="E3" Duration="1" Instrument="Duty 0"
				Note Time="23" Value="E4" Duration="2" Instrument="Duty 0" FinePitch="0"
				Note Time="25" Value="E5" Duration="1" Instrument="Duty 0"
				Note Time="26" Value="C#4" Duration="1" Instrument="Duty 0"
				Note Time="27" Value="C#5" Duration="1" Instrument="Duty 0"
				Note Time="28" Value="A3" Duration="1" Instrument="Duty 0" FinePitch="1"
				Note Time="29" Value="A4" Duration="1" Instrument="Duty 0"
				Note Time="30" Value="E3" Duration="1" Instrument="Duty 0"
				Note Time="31" Value="E4" Duration="2" Instrument="Duty 0" FinePitch="0"
				Note Time="33" Value="E5" Duration="1" Instrument="Duty 0"
				Note Time="34" Value="C#4" Duration="1" Instrument="Duty 0"
				Note Time="35" Value="C#5" Duration="1" Instrument="Duty 0"
				Note Time="36" Value="A3" Duration="1" Instrument="Duty 0" FinePitch="1"
				Note Time="37" Value="A4" Duration="1" Instrument="Duty 0"
				Note Time="38" Value="E3" Duration="1" Instrument="Duty 0"
				Note Time="39" Value="E4" Duration="2" Instrument="Duty 0" FinePitch="0"
				Note Time="41" Value="E5" Duration="1" Instrument="Duty 0"
				Note Time="42" Value="C#4" Duration="1" Instrument="Duty 0"
				Note Time="43" Value="C#5" Duration="1" Instrument="Duty 0"
				Note Time="44" Value="A3" Duration="1" Instrument="Duty 0" FinePitch="1"
				Note Time="45" Value="A4" Duration="1" Instrument="Duty 0"
				Note Time="46" Value="E3" Duration="1" Instrument="Duty 0"
				Note Time="47" Value="E4" Duration="2" Instrument="Duty 0" FinePitch="0"
				Note Time="49" Value="E5" Duration="1" Instrument="Duty 0"
				Note Time="50" Value="C#4" Duration="1" Instrument="Duty 0"
				Note Time="51" Value="C#5" Duration="1" Instrument="Duty 0"
				Note Time="52" Value="A3" Duration="1" Instrument="Duty 0" FinePitch="1"
				Note Time="53" Value="A4" Duration="1" Instrument="Duty 0"
				Note Time="54" Value="E3" Duration="1" Instrument="Duty 0"
				Note Time="55" Value="E4" Duration="2" Instrument="Duty 0" FinePitch="0"
				Note Time="57" Value="E5" Duration="1" Instrument="Duty 0"
				Note Time="58" Value="C#4" Duration="1" Instrument="Duty 0"
				Note Time="59" Value="C#5" Duration="1" Instrument="Duty 0"
				Note Time="60" Value="A3" Duration="1" Instrument="Duty 0" FinePitch="1"
				Note Time="61" Value="A4" Duration="1" Instrument="Duty 0"
				Note Time="62" Value="E3" Duration="1" Instrument="Duty 0"
				Note Time="63" Value="E4" Duration="2" Instrument="Duty 0" FinePitch="0"
				Note Time="65" Value="E5" Duration="1" Instrument="Duty 0"
				Note Time="66" Value="B3" Duration="1" Instrument="Duty 0" FinePitch="1"
				Note Time="67" Value="B4" Duration="1" Instrument="Duty 0"
				Note Time="68" Value="G#3" Duration="1" Instrument="Duty 0"
				Note Time="69" Value="G#4" Duration="1" Instrument="Duty 0" FinePitch="0"
				Note Time="70" Value="E3" Duration="1" Instrument="Duty 0" FinePitch="1"
				Note Time="71" Value="E4" Duration="2" Instrument="Duty 0" FinePitch="0"
				Note Time="73" Value="E5" Duration="1" Instrument="Duty 0"
				Note Time="74" Value="B3" Duration="1" Instrument="Duty 0" FinePitch="1"
				Note Time="75" Value="B4" Duration="1" Instrument="Duty 0"
				Note Time="76" Value="G#3" Duration="1" Instrument="Duty 0"
				Note Time="77" Value="G#4" Duration="1" Instrument="Duty 0" FinePitch="0"
				Note Time="78" Value="E3" Duration="1" Instrument="Duty 0" FinePitch="1"
				Note Time="79" Value="E4" Duration="2" Instrument="Duty 0" FinePitch="0"
				Note Time="81" Value="E5" Duration="1" Instrument="Duty 0"
				Note Time="82" Value="B3" Duration="1" Instrument="Duty 0" FinePitch="1"
				Note Time="83" Value="B4" Duration="1" Instrument="Duty 0"
				Note Time="84" Value="G#3" Duration="1" Instrument="Duty 0"
				Note Time="85" Value="G#4" Duration="1" Instrument="Duty 0" FinePitch="0"
				Note Time="86" Value="E3" Duration="1" Instrument="Duty 0" FinePitch="1"
				Note Time="87" Value="E4" Duration="2" Instrument="Duty 0" FinePitch="0"
				Note Time="89" Value="E5" Duration="1" Instrument="Duty 0"
				Note Time="90" Value="B3" Duration="1" Instrument="Duty 0" FinePitch="1"
				Note Time="91" Value="B4" Duration="1" Instrument="Duty 0"
				Note Time="92" Value="G#3" Duration="1" Instrument="Duty 0"
				Note Time="93" Value="G#4" Duration="1" Instrument="Duty 0" FinePitch="0"
				Note Time="94" Value="E3" Duration="1" Instrument="Duty 0" FinePitch="1"
				Note Time="95" Value="E4" Duration="2" Instrument="Duty 0" FinePitch="0"
				Note Time="97" Value="E5" Duration="1" Instrument="Duty 0"
				Note Time="98" Value="B3" Duration="1" Instrument="Duty 0" FinePitch="1"
				Note Time="99" Value="B4" Duration="1" Instrument="Duty 0"
				Note Time="100" Value="G#3" Duration="1" Instrument="Duty 0"
				Note Time="101" Value="G#4" Duration="1" Instrument="Duty 0" FinePitch="0"
				Note Time="102" Value="E3" Duration="1" Instrument="Duty 0" FinePitch="1"
				Note Time="103" Value="E4" Duration="2" Instrument="Duty 0" FinePitch="0"
				Note Time="105" Value="E5" Duration="1" Instrument="Duty 0"
				Note Time="106" Value="B3" Duration="1" Instrument="Duty 0" FinePitch="1"
				Note Time="107" Value="B4" Duration="1" Instrument="Duty 0"
				Note Time="108" Value="G#3" Duration="1" Instrument="Duty 0"
				Note Time="109" Value="G#4" Duration="1" Instrument="Duty 0" FinePitch="0"
				Note Time="110" Value="E3" Duration="1" Instrument="Duty 0" FinePitch="1"
				Note Time="111" Value="E4" Duration="1" Instrument="Duty 0" FinePitch="0"
				Note Time="112" Value="D4" Duration="1" Instrument="Duty 0" FinePitch="1"
				Note Time="113" Value="D5" Duration="1" Instrument="Duty 0"
				Note Time="114" Value="B3" Duration="1" Instrument="Duty 0"
				Note Time="115" Value="B4" Duration="1" Instrument="Duty 0"
				Note Time="116" Value="G3" Duration="1" Instrument="Duty 0"
				Note Time="117" Value="G4" Duration="1" Instrument="Duty 0" FinePitch="0"
				Note Time="118" Value="D3" Duration="1" Instrument="Duty 0"
				Note Time="119" Value="D4" Duration="2" Instrument="Duty 0" FinePitch="1"
				Note Time="121" Value="D5" Duration="1" Instrument="Duty 0"
				Note Time="122" Value="B3" Duration="1" Instrument="Duty 0"
				Note Time="123" Value="B4" Duration="1" Instrument="Duty 0"
				Note Time="124" Value="G3" Duration="1" Instrument="Duty 0"
				Note Time="125" Value="G4" Duration="1" Instrument="Duty 0" FinePitch="0"
				Note Time="126" Value="D3" Duration="1" Instrument="Duty 0"
				Note Time="127" Value="D4" Duration="2" Instrument="Duty 0" FinePitch="1"
				Note Time="129" Value="D5" Duration="1" Instrument="Duty 0"
				Note Time="130" Value="B3" Duration="1" Instrument="Duty 0"
				Note Time="131" Value="B4" Duration="1" Instrument="Duty 0"
				Note Time="132" Value="G3" Duration="1" Instrument="Duty 0"
				Note Time="133" Value="G4" Duration="1" Instrument="Duty 0" FinePitch="0"
				Note Time="134" Value="D3" Duration="1" Instrument="Duty 0"
				Note Time="135" Value="D4" Duration="2" Instrument="Duty 0" FinePitch="1"
				Note Time="137" Value="D5" Duration="1" Instrument="Duty 0"
				Note Time="138" Value="B3" Duration="1" Instrument="Duty 0"
				Note Time="139" Value="B4" Duration="1" Instrument="Duty 0"
				Note Time="140" Value="G3" Duration="1" Instrument="Duty 0"
				Note Time="141" Value="G4" Duration="1" Instrument="Duty 0" FinePitch="0"
				Note Time="142" Value="D3" Duration="1" Instrument="Duty 0"
				Note Time="143" Value="D4" Duration="2" Instrument="Duty 0" FinePitch="1"
				Note Time="145" Value="D5" Duration="1" Instrument="Duty 0"
				Note Time="146" Value="B3" Duration="1" Instrument="Duty 0"
				Note Time="147" Value="B4" Duration="1" Instrument="Duty 0"
				Note Time="148" Value="G3" Duration="1" Instrument="Duty 0"
				Note Time="149" Value="G4" Duration="1" Instrument="Duty 0" FinePitch="0"
				Note Time="150" Value="D3" Duration="1" Instrument="Duty 0"
				Note Time="151" Value="D4" Duration="2" Instrument="Duty 0" FinePitch="1"
				Note Time="153" Value="D5" Duration="1" Instrument="Duty 0"
				Note Time="154" Value="B3" Duration="1" Instrument="Duty 0"
				Note Time="155" Value="B4" Duration="1" Instrument="Duty 0"
				Note Time="156" Value="G3" Duration="1" Instrument="Duty 0"
				Note Time="157" Value="G4" Duration="1" Instrument="Duty 0" FinePitch="0"
				Note Time="158" Value="D3" Duration="1" Instrument="Duty 0"
				Note Time="159" Value="D4" Duration="2" Instrument="Duty 0" FinePitch="1"
				Note Time="161" Value="D5" Duration="1" Instrument="Duty 0"
				Note Time="162" Value="B3" Duration="1" Instrument="Duty 0"
				Note Time="163" Value="B4" Duration="1" Instrument="Duty 0"
				Note Time="164" Value="G3" Duration="1" Instrument="Duty 0"
				Note Time="165" Value="G4" Duration="1" Instrument="Duty 0" FinePitch="0"
				Note Time="166" Value="D3" Duration="1" Instrument="Duty 0"
				Note Time="167" Value="D4" Duration="2" Instrument="Duty 0" FinePitch="1"
				Note Time="169" Value="D5" Duration="1" Instrument="Duty 0"
				Note Time="170" Value="B3" Duration="1" Instrument="Duty 0"
				Note Time="171" Value="B4" Duration="1" Instrument="Duty 0"
				Note Time="172" Value="G3" Duration="1" Instrument="Duty 0"
				Note Time="173" Value="G4" Duration="1" Instrument="Duty 0" FinePitch="0"
				Note Time="174" Value="D3" Duration="1" Instrument="Duty 0"
				Note Time="175" Value="D4" Duration="2" Instrument="Duty 0" FinePitch="1"
				Note Time="177" Value="D5" Duration="1" Instrument="Duty 0"
				Note Time="178" Value="B3" Duration="1" Instrument="Duty 0"
				Note Time="179" Value="B4" Duration="1" Instrument="Duty 0"
				Note Time="180" Value="G3" Duration="1" Instrument="Duty 0"
				Note Time="181" Value="G4" Duration="1" Instrument="Duty 0" FinePitch="0"
				Note Time="182" Value="D3" Duration="1" Instrument="Duty 0"
				Note Time="183" Value="D4" Duration="2" Instrument="Duty 0" FinePitch="1"
				Note Time="185" Value="D5" Duration="1" Instrument="Duty 0"
				Note Time="186" Value="B3" Duration="1" Instrument="Duty 0"
				Note Time="187" Value="B4" Duration="1" Instrument="Duty 0"
				Note Time="188" Value="G3" Duration="1" Instrument="Duty 0"
				Note Time="189" Value="G4" Duration="1" Instrument="Duty 0" FinePitch="0"
				Note Time="190" Value="D3" Duration="1" Instrument="Duty 0"
				Note Time="191" Value="D4" Duration="2" Instrument="Duty 0" FinePitch="1"
				Note Time="193" Value="D5" Duration="1" Instrument="Duty 0"
				Note Time="194" Value="B3" Duration="1" Instrument="Duty 0"
				Note Time="195" Value="B4" Duration="1" Instrument="Duty 0"
				Note Time="196" Value="G3" Duration="1" Instrument="Duty 0"
				Note Time="197" Value="G4" Duration="1" Instrument="Duty 0" FinePitch="0"
				Note Time="198" Value="D3" Duration="1" Instrument="Duty 0"
				Note Time="199" Value="D4" Duration="2" Instrument="Duty 0" FinePitch="1"
				Note Time="201" Value="D5" Duration="1" Instrument="Duty 0"
				Note Time="202" Value="B3" Duration="1" Instrument="Duty 0"
				Note Time="203" Value="B4" Duration="1" Instrument="Duty 0"
				Note Time="204" Value="G3" Duration="1" Instrument="Duty 0"
				Note Time="205" Value="G4" Duration="1" Instrument="Duty 0" FinePitch="0"
				Note Time="206" Value="D3" Duration="1" Instrument="Duty 0"
				Note Time="207" Value="D4" Duration="2" Instrument="Duty 0" FinePitch="1"
				Note Time="209" Value="D5" Duration="1" Instrument="Duty 0"
				Note Time="210" Value="B3" Duration="1" Instrument="Duty 0"
				Note Time="211" Value="B4" Duration="1" Instrument="Duty 0"
				Note Time="212" Value="G3" Duration="1" Instrument="Duty 0"
				Note Time="213" Value="G4" Duration="1" Instrument="Duty 0" FinePitch="0"
				Note Time="214" Value="D3" Duration="1" Instrument="Duty 0"
				Note Time="215" Value="D4" Duration="2" Instrument="Duty 0" FinePitch="1"
				Note Time="217" Value="D5" Duration="1" Instrument="Duty 0"
				Note Time="218" Value="B3" Duration="1" Instrument="Duty 0"
				Note Time="219" Value="B4" Duration="1" Instrument="Duty 0"
				Note Time="220" Value="G3" Duration="1" Instrument="Duty 0"
				Note Time="221" Value="G4" Duration="1" Instrument="Duty 0" FinePitch="0"
				Note Time="222" Value="D3" Duration="1" Instrument="Duty 0"
				Note Time="223" Value="D4" Duration="2" Instrument="Duty 0" FinePitch="1"
				Note Time="225" Value="D5" Duration="1" Instrument="Duty 0"
				Note Time="226" Value="B3" Duration="1" Instrument="Duty 0"
				Note Time="227" Value="B4" Duration="1" Instrument="Duty 0"
				Note Time="228" Value="G3" Duration="1" Instrument="Duty 0"
				Note Time="229" Value="G4" Duration="1" Instrument="Duty 0" FinePitch="0"
				Note Time="230" Value="D3" Duration="1" Instrument="Duty 0"
				Note Time="231" Value="D4" Duration="2" Instrument="Duty 0" FinePitch="1"
				Note Time="233" Value="D5" Duration="1" Instrument="Duty 0"
				Note Time="234" Value="B3" Duration="1" Instrument="Duty 0"
				Note Time="235" Value="B4" Duration="1" Instrument="Duty 0"
				Note Time="236" Value="G3" Duration="1" Instrument="Duty 0"
				Note Time="237" Value="G4" Duration="1" Instrument="Duty 0" FinePitch="0"
				Note Time="238" Value="D3" Duration="1" Instrument="Duty 0"
				Note Time="239" Value="D4" Duration="2" Instrument="Duty 0" FinePitch="1"
				Note Time="241" Value="D5" Duration="1" Instrument="Duty 0"
				Note Time="242" Value="B3" Duration="1" Instrument="Duty 0"
				Note Time="243" Value="B4" Duration="1" Instrument="Duty 0"
				Note Time="244" Value="G3" Duration="1" Instrument="Duty 0"
				Note Time="245" Value="G4" Duration="1" Instrument="Duty 0" FinePitch="0"
				Note Time="246" Value="D3" Duration="1" Instrument="Duty 0"
				Note Time="247" Value="D4" Duration="2" Instrument="Duty 0" FinePitch="1"
				Note Time="249" Value="D5" Duration="1" Instrument="Duty 0"
				Note Time="250" Value="B3" Duration="1" Instrument="Duty 0"
				Note Time="251" Value="B4" Duration="1" Instrument="Duty 0"
				Note Time="252" Value="G3" Duration="1" Instrument="Duty 0"
				Note Time="253" Value="G4" Duration="1" Instrument="Duty 0" FinePitch="0"
				Note Time="254" Value="D3" Duration="1" Instrument="Duty 0"
				Note Time="255" Value="D4" Duration="2" Instrument="Duty 0" FinePitch="1"
			Pattern Name="Pattern 6"
				Note Time="1" Value="D5" Duration="1" Instrument="Duty 0"
				Note Time="2" Value="B3" Duration="1" Instrument="Duty 0"
				Note Time="3" Value="B4" Duration="1" Instrument="Duty 0"
				Note Time="4" Value="G3" Duration="1" Instrument="Duty 0"
				Note Time="5" Value="G4" Duration="1" Instrument="Duty 0" FinePitch="0"
				Note Time="6" Value="D3" Duration="1" Instrument="Duty 0"
				Note Time="7" Value="D4" Duration="2" Instrument="Duty 0" FinePitch="1"
				Note Time="9" Value="D5" Duration="1" Instrument="Duty 0"
				Note Time="10" Value="B3" Duration="1" Instrument="Duty 0"
				Note Time="11" Value="B4" Duration="1" Instrument="Duty 0"
				Note Time="12" Value="G3" Duration="1" Instrument="Duty 0"
				Note Time="13" Value="G4" Duration="1" Instrument="Duty 0" FinePitch="0"
				Note Time="14" Value="D3" Duration="1" Instrument="Duty 0"
				Note Time="15" Value="D4" Duration="2" Instrument="Duty 0" Volume="5" FinePitch="1"
				Note Time="17" Value="D5" Duration="1" Instrument="Duty 0"
				Note Time="18" Value="B3" Duration="1" Instrument="Duty 0"
				Note Time="19" Value="B4" Duration="1" Instrument="Duty 0"
				Note Time="20" Value="G3" Duration="1" Instrument="Duty 0"
				Note Time="21" Value="G4" Duration="1" Instrument="Duty 0" FinePitch="0"
				Note Time="22" Value="D3" Duration="1" Instrument="Duty 0"
				Note Time="23" Value="D4" Duration="2" Instrument="Duty 0" FinePitch="1"
				Note Time="25" Value="D5" Duration="1" Instrument="Duty 0"
				Note Time="26" Value="B3" Duration="1" Instrument="Duty 0"
				Note Time="27" Value="B4" Duration="1" Instrument="Duty 0"
				Note Time="28" Value="G3" Duration="1" Instrument="Duty 0"
				Note Time="29" Value="G4" Duration="1" Instrument="Duty 0" FinePitch="0"
				Note Time="30" Value="D3" Duration="1" Instrument="Duty 0"
				Note Time="31" Value="D4" Duration="2" Instrument="Duty 0" Volume="4" FinePitch="1"
				Note Time="33" Value="D5" Duration="1" Instrument="Duty 0"
				Note Time="34" Value="B3" Duration="1" Instrument="Duty 0"
				Note Time="35" Value="B4" Duration="1" Instrument="Duty 0"
				Note Time="36" Value="G3" Duration="1" Instrument="Duty 0"
				Note Time="37" Value="G4" Duration="1" Instrument="Duty 0" FinePitch="0"
				Note Time="38" Value="D3" Duration="1" Instrument="Duty 0"
				Note Time="39" Value="D4" Duration="2" Instrument="Duty 0" FinePitch="1"
				Note Time="41" Value="D5" Duration="1" Instrument="Duty 0"
				Note Time="42" Value="B3" Duration="1" Instrument="Duty 0"
				Note Time="43" Value="B4" Duration="1" Instrument="Duty 0"
				Note Time="44" Value="G3" Duration="1" Instrument="Duty 0"
				Note Time="45" Value="G4" Duration="1" Instrument="Duty 0" FinePitch="0"
				Note Time="46" Value="D3" Duration="1" Instrument="Duty 0"
				Note Time="47" Value="D4" Duration="2" Instrument="Duty 0" Volume="3" FinePitch="1"
				Note Time="49" Value="D5" Duration="1" Instrument="Duty 0"
				Note Time="50" Value="B3" Duration="1" Instrument="Duty 0"
				Note Time="51" Value="B4" Duration="1" Instrument="Duty 0"
				Note Time="52" Value="G3" Duration="1" Instrument="Duty 0"
				Note Time="53" Value="G4" Duration="1" Instrument="Duty 0" FinePitch="0"
				Note Time="54" Value="D3" Duration="1" Instrument="Duty 0"
				Note Time="55" Value="D4" Duration="2" Instrument="Duty 0" FinePitch="1"
				Note Time="57" Value="D5" Duration="1" Instrument="Duty 0"
				Note Time="58" Value="B3" Duration="1" Instrument="Duty 0"
				Note Time="59" Value="B4" Duration="1" Instrument="Duty 0"
				Note Time="60" Value="G3" Duration="1" Instrument="Duty 0"
				Note Time="61" Value="G4" Duration="1" Instrument="Duty 0" FinePitch="0"
				Note Time="62" Value="D3" Duration="1" Instrument="Duty 0"
				Note Time="63" Value="D4" Duration="2" Instrument="Duty 0" Volume="2" FinePitch="1"
				Note Time="65" Value="D5" Duration="1" Instrument="Duty 0"
				Note Time="66" Value="B3" Duration="1" Instrument="Duty 0"
				Note Time="67" Value="B4" Duration="1" Instrument="Duty 0"
				Note Time="68" Value="G3" Duration="1" Instrument="Duty 0"
				Note Time="69" Value="G4" Duration="1" Instrument="Duty 0" FinePitch="0"
				Note Time="70" Value="D3" Duration="1" Instrument="Duty 0"
				Note Time="71" Value="D4" Duration="2" Instrument="Duty 0" FinePitch="1"
				Note Time="73" Value="D5" Duration="1" Instrument="Duty 0"
				Note Time="74" Value="B3" Duration="1" Instrument="Duty 0"
				Note Time="75" Value="B4" Duration="1" Instrument="Duty 0"
				Note Time="76" Value="G3" Duration="1" Instrument="Duty 0"
				Note Time="77" Value="G4" Duration="1" Instrument="Duty 0" FinePitch="0"
				Note Time="78" Value="D3" Duration="1" Instrument="Duty 0"
				Note Time="79" Value="D4" Duration="2" Instrument="Duty 0" Volume="1" FinePitch="1"
				Note Time="81" Value="D5" Duration="1" Instrument="Duty 0"
				Note Time="82" Value="B3" Duration="1" Instrument="Duty 0"
				Note Time="83" Value="B4" Duration="1" Instrument="Duty 0"
				Note Time="84" Value="G3" Duration="1" Instrument="Duty 0"
				Note Time="85" Value="G4" Duration="1" Instrument="Duty 0" FinePitch="0"
				Note Time="86" Value="D3" Duration="1" Instrument="Duty 0"
				Note Time="87" Value="D4" Duration="2" Instrument="Duty 0" FinePitch="1"
				Note Time="89" Value="D5" Duration="1" Instrument="Duty 0"
				Note Time="90" Value="B3" Duration="1" Instrument="Duty 0"
				Note Time="91" Value="B4" Duration="1" Instrument="Duty 0"
				Note Time="92" Value="G3" Duration="1" Instrument="Duty 0"
				Note Time="93" Value="G4" Duration="1" Instrument="Duty 0" FinePitch="0"
				Note Time="94" Value="D3" Duration="1" Instrument="Duty 0"
				Note Time="240" Value="E5" Duration="13" Instrument="Duty 0" Volume="2"
				Note Time="251" FinePitch="-1"
				Note Time="252" FinePitch="-2"
				Note Time="253" Value="F5" Duration="1" Instrument="Duty 0" FinePitch="2"
				Note Time="254" Value="E5" Duration="5" Instrument="Duty 0" FinePitch="-2"
				Note Time="255" FinePitch="-1"
			Pattern Name="Pattern 7"
				Note Time="0" FinePitch="0"
				Note Time="1" FinePitch="1"
				Note Time="2" FinePitch="2"
				Note Time="3" Value="D#5" Duration="1" Instrument="Duty 0" FinePitch="-2"
				Note Time="4" Value="E5" Duration="5" Instrument="Duty 0" FinePitch="2"
				Note Time="5" FinePitch="1"
				Note Time="6" FinePitch="0"
				Note Time="7" FinePitch="-1"
				Note Time="8" FinePitch="-2"
				Note Time="9" Value="F5" Duration="1" Instrument="Duty 0" FinePitch="2"
				Note Time="10" Value="E5" Duration="5" Instrument="Duty 0" FinePitch="-2"
				Note Time="11" FinePitch="-1"
				Note Time="12" FinePitch="0"
				Note Time="13" FinePitch="1"
				Note Time="14" FinePitch="2"
				Note Time="15" Value="D#5" Duration="1" Instrument="Duty 0" FinePitch="-2"
				Note Time="16" Value="E5" Duration="5" Instrument="Duty 0" Volume="3" FinePitch="2"
				Note Time="17" FinePitch="1"
				Note Time="18" FinePitch="0"
				Note Time="19" FinePitch="-1"
				Note Time="20" FinePitch="-2"
				Note Time="21" Value="F5" Duration="1" Instrument="Duty 0" FinePitch="2"
				Note Time="22" Value="E5" Duration="5" Instrument="Duty 0" FinePitch="-2"
				Note Time="23" FinePitch="-1"
				Note Time="24" FinePitch="0"
				Note Time="25" FinePitch="1"
				Note Time="26" FinePitch="2"
				Note Time="27" Value="D#5" Duration="1" Instrument="Duty 0" FinePitch="-2"
				Note Time="28" Value="E5" Duration="5" Instrument="Duty 0" FinePitch="2"
				Note Time="29" FinePitch="1"
				Note Time="30" FinePitch="0"
				Note Time="31" FinePitch="-1"
				Note Time="32" FinePitch="-2"
				Note Time="33" Value="F5" Duration="1" Instrument="Duty 0" FinePitch="2"
				Note Time="34" Value="E5" Duration="5" Instrument="Duty 0" FinePitch="-2"
				Note Time="35" FinePitch="-1"
				Note Time="36" FinePitch="0"
				Note Time="37" FinePitch="1"
				Note Time="38" FinePitch="2"
				Note Time="39" Value="D#5" Duration="1" Instrument="Duty 0" FinePitch="-2"
				Note Time="40" Value="E5" Duration="5" Instrument="Duty 0" FinePitch="2"
				Note Time="41" FinePitch="1"
				Note Time="42" FinePitch="0"
				Note Time="43" FinePitch="-1"
				Note Time="44" FinePitch="-2"
				Note Time="45" Value="F5" Duration="1" Instrument="Duty 0" FinePitch="2"
				Note Time="46" Value="E5" Duration="5" Instrument="Duty 0" FinePitch="-2"
				Note Time="47" FinePitch="-1"
				Note Time="48" FinePitch="0"
				Note Time="49" FinePitch="1"
				Note Time="50" FinePitch="2"
				Note Time="51" Value="D#5" Duration="1" Instrument="Duty 0" FinePitch="-2"
				Note Time="52" Value="E5" Duration="5" Instrument="Duty 0" FinePitch="2"
				Note Time="53" FinePitch="1"
				Note Time="54" FinePitch="0"
				Note Time="55" FinePitch="-1"
				Note Time="56" FinePitch="-2"
				Note Time="57" Value="F5" Duration="1" Instrument="Duty 0" FinePitch="2"
				Note Time="58" Value="E5" Duration="5" Instrument="Duty 0" FinePitch="-2"
				Note Time="59" FinePitch="-1"
				Note Time="60" FinePitch="0"
				Note Time="61" FinePitch="1"
				Note Time="62" FinePitch="2"
				Note Time="63" Value="D#5" Duration="1" Instrument="Duty 0" FinePitch="-2"
				Note Time="64" Value="E5" Duration="5" Instrument="Duty 0" Volume="4" FinePitch="2"
				Note Time="65" FinePitch="1"
				Note Time="66" FinePitch="0"
				Note Time="67" FinePitch="-1"
				Note Time="68" FinePitch="-2"
				Note Time="69" Value="F5" Duration="1" Instrument="Duty 0" FinePitch="2"
				Note Time="70" Value="E5" Duration="5" Instrument="Duty 0" FinePitch="-2"
				Note Time="71" FinePitch="-1"
				Note Time="72" FinePitch="0"
				Note Time="73" FinePitch="1"
				Note Time="74" FinePitch="2"
				Note Time="75" Value="D#5" Duration="1" Instrument="Duty 0" FinePitch="-2"
				Note Time="76" Value="E5" Duration="5" Instrument="Duty 0" FinePitch="2"
				Note Time="77" FinePitch="1"
				Note Time="78" FinePitch="0"
				Note Time="79" FinePitch="-1"
				Note Time="80" FinePitch="-2"
				Note Time="81" Value="F5" Duration="1" Instrument="Duty 0" FinePitch="2"
				Note Time="82" Value="E5" Duration="5" Instrument="Duty 0" FinePitch="-2"
				Note Time="83" FinePitch="-1"
				Note Time="84" FinePitch="0"
				Note Time="85" FinePitch="1"
				Note Time="86" FinePitch="2"
				Note Time="87" Value="D#5" Duration="1" Instrument="Duty 0" FinePitch="-2"
				Note Time="88" Value="E5" Duration="5" Instrument="Duty 0" FinePitch="2"
				Note Time="89" FinePitch="1"
				Note Time="90" FinePitch="0"
				Note Time="91" FinePitch="-1"
				Note Time="92" FinePitch="-2"
				Note Time="93" Value="F5" Duration="1" Instrument="Duty 0" FinePitch="2"
				Note Time="94" Value="E5" Duration="5" Instrument="Duty 0" FinePitch="-2"
				Note Time="95" FinePitch="-1"
				Note Time="96" FinePitch="0"
				Note Time="97" FinePitch="1"
				Note Time="98" FinePitch="2"
				Note Time="99" Value="D#5" Duration="1" Instrument="Duty 0" FinePitch="-2"
				Note Time="100" Value="E5" Duration="5" Instrument="Duty 0" FinePitch="2"
				Note Time="101" FinePitch="1"
				Note Time="102" FinePitch="0"
				Note Time="103" FinePitch="-1"
				Note Time="104" FinePitch="-2"
				Note Time="105" Value="F5" Duration="1" Instrument="Duty 0" FinePitch="2"
				Note Time="106" Value="E5" Duration="5" Instrument="Duty 0" FinePitch="-2"
				Note Time="107" FinePitch="-1"
				Note Time="108" FinePitch="0"
				Note Time="109" FinePitch="1"
				Note Time="110" FinePitch="2"
				Note Time="111" Value="D#5" Duration="1" Instrument="Duty 0" FinePitch="-2"
				Note Time="112" Value="E5" Duration="5" Instrument="Duty 0" Volume="5" FinePitch="2"
				Note Time="113" FinePitch="1"
				Note Time="114" FinePitch="0"
				Note Time="115" FinePitch="-1"
				Note Time="116" FinePitch="-2"
				Note Time="117" Value="F5" Duration="1" Instrument="Duty 0" FinePitch="2"
				Note Time="118" Value="E5" Duration="5" Instrument="Duty 0" FinePitch="-2"
				Note Time="119" FinePitch="-1"
				Note Time="120" FinePitch="0"
				Note Time="121" FinePitch="1"
				Note Time="122" FinePitch="2"
				Note Time="123" Value="D#5" Duration="1" Instrument="Duty 0" FinePitch="-2"
				Note Time="124" Value="E5" Duration="4" Instrument="Duty 0" FinePitch="2"
				Note Time="125" FinePitch="1"
				Note Time="126" FinePitch="0"
				Note Time="127" FinePitch="-1"
				Note Time="128" Value="G3" Duration="7" Instrument="Duty 0" Volume="2" FinePitch="1"
				Note Time="129" Volume="4"
				Note Time="134" Volume="2"
				Note Time="136" Value="A3" Duration="7" Instrument="Duty 0"
				Note Time="137" Volume="4"
				Note Time="142" Volume="2"
				Note Time="144" Value="B3" Duration="7" Instrument="Duty 0"
				Note Time="145" Volume="4"
				Note Time="150" Volume="2"
				Note Time="152" Value="B3" Duration="7" Instrument="Duty 0"
				Note Time="153" Volume="4"
				Note Time="158" Volume="2"
				Note Time="160" Value="A3" Duration="7" Instrument="Duty 0"
				Note Time="161" Volume="4"
				Note Time="166" Volume="2"
				Note Time="168" Value="G3" Duration="7" Instrument="Duty 0"
				Note Time="169" Volume="4"
				Note Time="174" Volume="2"
				Note Time="176" Value="F#3" Duration="7" Instrument="Duty 0"
				Note Time="177" Volume="4"
				Note Time="182" Volume="2"
				Note Time="184" Value="E3" Duration="7" Instrument="Duty 0"
				Note Time="185" Volume="4"
				Note Time="190" Volume="2"
				Note Time="192" Value="D3" Duration="7" Instrument="Duty 0" FinePitch="0"
				Note Time="193" Volume="4"
				Note Time="198" Volume="2"
				Note Time="200" Value="C#3" Duration="7" Instrument="Duty 0"
				Note Time="201" Volume="4"
				Note Time="206" Volume="2"
				Note Time="208" Value="B2" Duration="7" Instrument="Duty 0"
				Note Time="209" Volume="4"
				Note Time="214" Volume="2"
				Note Time="216" Value="A2" Duration="7" Instrument="Duty 0" FinePitch="1"
				Note Time="217" Volume="4"
				Note Time="222" Volume="2"
				Note Time="224" Value="E3" Duration="7" Instrument="Duty 0"
				Note Time="225" Volume="4"
				Note Time="230" Volume="2"
				Note Time="232" Value="F#3" Duration="7" Instrument="Duty 0"
				Note Time="233" Volume="4"
				Note Time="238" Volume="2"
				Note Time="240" Value="G3" Duration="7" Instrument="Duty 0"
				Note Time="241" Volume="4"
				Note Time="246" Volume="2"
				Note Time="248" Value="G3" Duration="7" Instrument="Duty 0"
				Note Time="249" Volume="4"
				Note Time="254" Volume="2"
			Pattern Name="Pattern 8"
				Note Time="0" Value="A3" Duration="7" Instrument="Duty 0"
				Note Time="1" Volume="4"
				Note Time="6" Volume="2"
				Note Time="8" Value="B3" Duration="7" Instrument="Duty 0"
				Note Time="9" Volume="4"
				Note Time="14" Volume="2"
				Note Time="16" Value="C#4" Duration="7" Instrument="Duty 0" FinePitch="0"
				Note Time="17" Volume="4"
				Note Time="22" Volume="2"
				Note Time="24" Value="E3" Duration="7" Instrument="Duty 0" FinePitch="1"
				Note Time="25" Volume="4"
				Note Time="30" Volume="2"
				Note Time="32" Value="D3" Duration="7" Instrument="Duty 0" FinePitch="0"
				Note Time="33" Volume="4"
				Note Time="38" Volume="2"
				Note Time="40" Value="C#3" Duration="23" Instrument="Duty 0"
				Note Time="41" Volume="4"
				Note Time="51" FinePitch="-1"
				Note Time="52" FinePitch="-2"
				Note Time="53" FinePitch="-3"
				Note Time="54" FinePitch="-2"
				Note Time="55" FinePitch="-1"
				Note Time="56" FinePitch="0"
				Note Time="57" FinePitch="1"
				Note Time="58" FinePitch="2"
				Note Time="59" FinePitch="3"
				Note Time="60" FinePitch="2"
				Note Time="61" FinePitch="1"
				Note Time="62" Volume="2" FinePitch="0"
				Note Time="64" Value="B3" Duration="23" Instrument="Duty 0" Volume="3" FinePitch="1"
				Note Time="65" Volume="6"
				Note Time="75" FinePitch="0"
				Note Time="76" FinePitch="-1"
				Note Time="77" FinePitch="-2"
				Note Time="78" FinePitch="-1"
				Note Time="79" FinePitch="0"
				Note Time="80" FinePitch="1"
				Note Time="81" FinePitch="2"
				Note Time="82" FinePitch="3"
				Note Time="83" FinePitch="4"
				Note Time="84" FinePitch="3"
				Note Time="85" FinePitch="2"
				Note Time="86" Volume="3" FinePitch="1"
				Note Time="88" Value="D4" Duration="15" Instrument="Duty 0"
				Note Time="89" Volume="6"
				Note Time="99" FinePitch="0"
				Note Time="100" FinePitch="-1"
				Note Time="101" FinePitch="-2"
				Note Time="102" Volume="3" FinePitch="-1"
				Note Time="104" Value="B3" Duration="7" Instrument="Duty 0" FinePitch="1"
				Note Time="105" Volume="6"
				Note Time="110" Volume="3"
				Note Time="112" Value="E4" Duration="7" Instrument="Duty 0" FinePitch="0"
				Note Time="113" Volume="6"
				Note Time="118" Volume="3"
				Note Time="120" Value="D4" Duration="7" Instrument="Duty 0" FinePitch="1"
				Note Time="121" Volume="6"
				Note Time="126" Volume="3"
				Note Time="128" Value="C#4" Duration="7" Instrument="Duty 0" FinePitch="0"
				Note Time="129" Volume="6"
				Note Time="134" Volume="3"
				Note Time="136" Value="A3" Duration="15" Instrument="Duty 0" FinePitch="1"
				Note Time="137" Volume="6"
				Note Time="147" FinePitch="0"
				Note Time="148" FinePitch="-1"
				Note Time="149" FinePitch="-2"
				Note Time="150" Volume="3" FinePitch="-1"
				Note Time="152" Value="C#4" Duration="7" Instrument="Duty 0" FinePitch="0"
				Note Time="153" Volume="6"
				Note Time="158" Volume="3"
				Note Time="160" Value="D4" Duration="15" Instrument="Duty 0" FinePitch="1"
				Note Time="161" Volume="6"
				Note Time="171" FinePitch="0"
				Note Time="172" FinePitch="-1"
				Note Time="173" FinePitch="-2"
				Note Time="174" Volume="3" FinePitch="-1"
				Note Time="176" Value="C#4" Duration="7" Instrument="Duty 0" FinePitch="0"
				Note Time="177" Volume="6"
				Note Time="182" Volume="3"
				Note Time="184" Value="B3" Duration="15" Instrument="Duty 0" FinePitch="1"
				Note Time="185" Volume="6"
				Note Time="195" FinePitch="0"
				Note Time="196" FinePitch="-1"
				Note Time="197" FinePitch="-2"
				Note Time="198" Volume="3" FinePitch="-1"
				Note Time="200" Value="E4" Duration="7" Instrument="Duty 0" FinePitch="0"
				Note Time="201" Volume="6"
				Note Time="206" Volume="3"
				Note Time="208" Value="C#4" Duration="7" Instrument="Duty 0"
				Note Time="209" Volume="6"
				Note Time="214" Volume="3"
				Note Time="216" Value="B3" Duration="7" Instrument="Duty 0" FinePitch="1"
				Note Time="217" Volume="6"
				Note Time="222" Volume="3"
				Note Time="224" Value="A3" Duration="7" Instrument="Duty 0"
				Note Time="225" Volume="6"
				Note Time="230" Volume="3"
				Note Time="232" Value="F#3" Duration="15" Instrument="Duty 0"
				Note Time="233" Volume="6"
				Note Time="243" FinePitch="0"
				Note Time="244" FinePitch="-1"
				Note Time="245" FinePitch="-2"
				Note Time="246" Volume="3" FinePitch="-1"
				Note Time="248" Value="A3" Duration="7" Instrument="Duty 0" FinePitch="1"
				Note Time="249" Volume="6"
				Note Time="254" Volume="3"
			Pattern Name="Pattern 9"
				Note Time="0" Value="B3" Duration="23" Instrument="Duty 0"
				Note Time="1" Volume="6"
				Note Time="11" FinePitch="0"
				Note Time="12" FinePitch="-1"
				Note Time="13" FinePitch="-2"
				Note Time="14" FinePitch="-1"
				Note Time="15" FinePitch="0"
				Note Time="16" FinePitch="1"
				Note Time="17" FinePitch="2"
				Note Time="18" FinePitch="3"
				Note Time="19" FinePitch="4"
				Note Time="20" FinePitch="3"
				Note Time="21" FinePitch="2"
				Note Time="22" Volume="3" FinePitch="1"
				Note Time="24" Value="D4" Duration="15" Instrument="Duty 0"
				Note Time="25" Volume="6"
				Note Time="35" FinePitch="0"
				Note Time="36" FinePitch="-1"
				Note Time="37" FinePitch="-2"
				Note Time="38" Volume="3" FinePitch="-1"
				Note Time="40" Value="B3" Duration="7" Instrument="Duty 0" FinePitch="1"
				Note Time="41" Volume="6"
				Note Time="46" Volume="3"
				Note Time="48" Value="E4" Duration="7" Instrument="Duty 0" FinePitch="0"
				Note Time="49" Volume="6"
				Note Time="54" Volume="3"
				Note Time="56" Value="D4" Duration="7" Instrument="Duty 0" FinePitch="1"
				Note Time="57" Volume="6"
				Note Time="62" Volume="3"
				Note Time="64" Value="C#4" Duration="7" Instrument="Duty 0" FinePitch="0"
				Note Time="65" Volume="6"
				Note Time="70" Volume="3"
				Note Time="72" Value="A3" Duration="15" Instrument="Duty 0" FinePitch="1"
				Note Time="73" Volume="6"
				Note Time="83" FinePitch="0"
				Note Time="84" FinePitch="-1"
				Note Time="85" FinePitch="-2"
				Note Time="86" Volume="3" FinePitch="-1"
				Note Time="88" Value="C#4" Duration="7" Instrument="Duty 0" FinePitch="0"
				Note Time="89" Volume="6"
				Note Time="94" Volume="3"
				Note Time="96" Value="D4" Duration="15" Instrument="Duty 0" FinePitch="1"
				Note Time="97" Volume="6"
				Note Time="107" FinePitch="0"
				Note Time="108" FinePitch="-1"
				Note Time="109" FinePitch="-2"
				Note Time="110" Volume="3" FinePitch="-1"
				Note Time="112" Value="C#4" Duration="7" Instrument="Duty 0" FinePitch="0"
				Note Time="113" Volume="6"
				Note Time="118" Volume="3"
				Note Time="120" Value="B3" Duration="15" Instrument="Duty 0" FinePitch="1"
				Note Time="121" Volume="6"
				Note Time="131" FinePitch="0"
				Note Time="132" FinePitch="-1"
				Note Time="133" FinePitch="-2"
				Note Time="134" Volume="3" FinePitch="-1"
				Note Time="136" Value="E4" Duration="7" Instrument="Duty 0" FinePitch="0"
				Note Time="137" Volume="6"
				Note Time="142" Volume="3"
				Note Time="144" Value="C#4" Duration="7" Instrument="Duty 0"
				Note Time="145" Volume="6"
				Note Time="150" Volume="3"
				Note Time="152" Value="B3" Duration="7" Instrument="Duty 0" FinePitch="1"
				Note Time="153" Volume="6"
				Note Time="158" Volume="3"
				Note Time="160" Value="A3" Duration="7" Instrument="Duty 0"
				Note Time="161" Volume="6"
				Note Time="166" Volume="3"
				Note Time="168" Value="F#3" Duration="15" Instrument="Duty 0"
				Note Time="169" Volume="6"
				Note Time="179" FinePitch="0"
				Note Time="180" FinePitch="-1"
				Note Time="181" FinePitch="-2"
				Note Time="182" Volume="3" FinePitch="-1"
				Note Time="184" Value="A3" Duration="7" Instrument="Duty 0" FinePitch="1"
				Note Time="185" Volume="6"
				Note Time="190" Volume="3"
				Note Time="192" Value="B3" Duration="15" Instrument="Duty 0"
				Note Time="203" FinePitch="0"
				Note Time="204" FinePitch="-1"
				Note Time="205" FinePitch="-2"
				Note Time="206" Volume="1" FinePitch="-1"
				Note Time="208" Value="A3" Duration="7" Instrument="Duty 0" Volume="3" FinePitch="1"
				Note Time="214" Volume="1"
				Note Time="216" Value="B3" Duration="15" Instrument="Duty 0" Volume="3"
				Note Time="227" FinePitch="0"
				Note Time="228" FinePitch="-1"
				Note Time="229" FinePitch="-2"
				Note Time="230" Volume="1" FinePitch="-1"
				Note Time="232" Value="C#4" Duration="7" Instrument="Duty 0" Volume="3" FinePitch="0"
				Note Time="238" Volume="1"
				Note Time="240" Value="D4" Duration="7" Instrument="Duty 0" Volume="3" FinePitch="1"
				Note Time="246" Volume="1"
				Note Time="248" Value="C#4" Duration="7" Instrument="Duty 0" Volume="3" FinePitch="0"
				Note Time="254" Volume="1"
			Pattern Name="Pattern 10"
				Note Time="0" Value="B3" Duration="8" Instrument="Duty 0" Volume="3" FinePitch="1"
				Note Time="7" Volume="1"
				Note Time="11" FinePitch="0"
				Note Time="16" Value="A3" Duration="8" Instrument="Duty 0" Volume="3" FinePitch="1"
				Note Time="23" Volume="1"
				Note Time="27" FinePitch="0"
				Note Time="32" Value="B3" Duration="15" Instrument="Duty 0" Volume="3" FinePitch="1"
				Note Time="43" FinePitch="0"
				Note Time="44" FinePitch="-1"
				Note Time="45" FinePitch="-2"
				Note Time="46" Volume="1" FinePitch="-1"
				Note Time="48" Value="F#4" Duration="7" Instrument="Duty 0" Volume="3" FinePitch="1"
				Note Time="54" Volume="1"
				Note Time="56" Value="D4" Duration="15" Instrument="Duty 0" Volume="3"
				Note Time="67" FinePitch="0"
				Note Time="68" FinePitch="-1"
				Note Time="69" FinePitch="-2"
				Note Time="70" Volume="1" FinePitch="-1"
				Note Time="72" Value="E4" Duration="7" Instrument="Duty 0" Volume="3" FinePitch="0"
				Note Time="78" Volume="1"
				Note Time="80" Value="F#4" Duration="7" Instrument="Duty 0" Volume="3" FinePitch="1"
				Note Time="86" Volume="1"
				Note Time="88" Value="E4" Duration="7" Instrument="Duty 0" Volume="3" FinePitch="0"
				Note Time="94" Volume="1"
				Note Time="96" Value="D4" Duration="7" Instrument="Duty 0" Volume="3" FinePitch="1"
				Note Time="102" Volume="1"
				Note Time="104" Value="C#4" Duration="7" Instrument="Duty 0" Volume="3" FinePitch="0"
				Note Time="110" Volume="1"
				Note Time="112" Value="A3" Duration="7" Instrument="Duty 0" Volume="3" FinePitch="1"
				Note Time="118" Volume="1"
				Note Time="120" Value="F#3" Duration="7" Instrument="Duty 0" Volume="3"
				Note Time="126" Volume="1"
				Note Time="128" Value="B3" Duration="15" Instrument="Duty 0" Volume="3"
				Note Time="139" FinePitch="0"
				Note Time="140" FinePitch="-1"
				Note Time="141" FinePitch="-2"
				Note Time="142" Volume="1" FinePitch="-1"
				Note Time="144" Value="A3" Duration="7" Instrument="Duty 0" Volume="3" FinePitch="1"
				Note Time="150" Volume="1"
				Note Time="152" Value="B3" Duration="15" Instrument="Duty 0" Volume="3"
				Note Time="163" FinePitch="0"
				Note Time="164" FinePitch="-1"
				Note Time="165" FinePitch="-2"
				Note Time="166" Volume="1" FinePitch="-1"
				Note Time="168" Value="C#4" Duration="7" Instrument="Duty 0" Volume="3" FinePitch="0"
				Note Time="174" Volume="1"
				Note Time="176" Value="D4" Duration="7" Instrument="Duty 0" Volume="3" FinePitch="1"
				Note Time="182" Volume="1"
				Note Time="184" Value="C#4" Duration="7" Instrument="Duty 0" Volume="3" FinePitch="0"
				Note Time="190" Volume="1"
				Note Time="192" Value="B3" Duration="8" Instrument="Duty 0" Volume="3" FinePitch="1"
				Note Time="199" Volume="1"
				Note Time="203" FinePitch="0"
				Note Time="208" Value="A3" Duration="8" Instrument="Duty 0" Volume="3" FinePitch="1"
				Note Time="215" Volume="1"
				Note Time="219" FinePitch="0"
				Note Time="224" Value="B3" Duration="15" Instrument="Duty 0" Volume="3" FinePitch="1"
				Note Time="235" FinePitch="0"
				Note Time="236" FinePitch="-1"
				Note Time="237" FinePitch="-2"
				Note Time="238" Volume="1" FinePitch="-1"
				Note Time="240" Value="F#4" Duration="7" Instrument="Duty 0" Volume="3" FinePitch="1"
				Note Time="246" Volume="1"
				Note Time="248" Value="D4" Duration="15" Instrument="Duty 0" Volume="3"
			Pattern Name="Pattern 11"
				Note Time="3" FinePitch="0"
				Note Time="4" FinePitch="-1"
				Note Time="5" FinePitch="-2"
				Note Time="6" Volume="1" FinePitch="-1"
				Note Time="8" Value="E4" Duration="7" Instrument="Duty 0" Volume="3" FinePitch="0"
				Note Time="14" Volume="1"
				Note Time="16" Value="F#4" Duration="7" Instrument="Duty 0" Volume="3" FinePitch="1"
				Note Time="22" Volume="1"
				Note Time="24" Value="E4" Duration="7" Instrument="Duty 0" Volume="3" FinePitch="0"
				Note Time="30" Volume="1"
				Note Time="32" Value="D4" Duration="7" Instrument="Duty 0" Volume="3" FinePitch="1"
				Note Time="38" Volume="1"
				Note Time="40" Value="C#4" Duration="7" Instrument="Duty 0" Volume="3" FinePitch="0"
				Note Time="46" Volume="1"
				Note Time="48" Value="A3" Duration="7" Instrument="Duty 0" Volume="3" FinePitch="1"
				Note Time="54" Volume="1"
				Note Time="56" Value="F#3" Duration="7" Instrument="Duty 0" Volume="3"
				Note Time="62" Volume="1"
				Note Time="64" Value="D4" Duration="15" Instrument="Duty 2"
				Note Time="65" Volume="3"
				Note Time="75" FinePitch="0"
				Note Time="76" FinePitch="-1"
				Note Time="77" FinePitch="-2"
				Note Time="78" Volume="1" FinePitch="-1"
				Note Time="80" Value="C#4" Duration="7" Instrument="Duty 2" FinePitch="0"
				Note Time="81" Volume="3"
				Note Time="86" Volume="1"
				Note Time="88" Value="D4" Duration="15" Instrument="Duty 2" FinePitch="1"
				Note Time="89" Volume="3"
				Note Time="99" FinePitch="0"
				Note Time="100" FinePitch="-1"
				Note Time="101" FinePitch="-2"
				Note Time="102" Volume="1" FinePitch="-1"
				Note Time="104" Value="E4" Duration="7" Instrument="Duty 2" FinePitch="0"
				Note Time="105" Volume="3"
				Note Time="110" Volume="1"
				Note Time="112" Value="F#4" Duration="7" Instrument="Duty 2" FinePitch="1"
				Note Time="113" Volume="3"
				Note Time="118" Volume="1"
				Note Time="120" Value="E4" Duration="7" Instrument="Duty 2" FinePitch="0"
				Note Time="121" Volume="3"
				Note Time="126" Volume="1"
				Note Time="128" Value="D4" Duration="8" Instrument="Duty 2" FinePitch="1"
				Note Time="129" Volume="3"
				Note Time="135" Volume="1"
				Note Time="139" FinePitch="0"
				Note Time="144" Value="C#4" Duration="8" Instrument="Duty 2"
				Note Time="145" Volume="3"
				Note Time="151" Volume="1"
				Note Time="160" Value="D4" Duration="15" Instrument="Duty 2" FinePitch="1"
				Note Time="161" Volume="3"
				Note Time="171" FinePitch="0"
				Note Time="172" FinePitch="-1"
				Note Time="173" FinePitch="-2"
				Note Time="174" Volume="1" FinePitch="-1"
				Note Time="176" Value="F#4" Duration="7" Instrument="Duty 2" FinePitch="1"
				Note Time="177" Volume="3"
				Note Time="182" Volume="1"
				Note Time="184" Value="G#4" Duration="15" Instrument="Duty 2" FinePitch="0"
				Note Time="185" Volume="3"
				Note Time="195" FinePitch="-1"
				Note Time="196" FinePitch="-2"
				Note Time="197" FinePitch="-3"
				Note Time="198" Volume="1" FinePitch="-2"
				Note Time="200" Value="A4" Duration="7" Instrument="Duty 2" FinePitch="1"
				Note Time="201" Volume="3"
				Note Time="206" Volume="1"
				Note Time="208" Value="F#4" Duration="7" Instrument="Duty 2"
				Note Time="209" Volume="3"
				Note Time="214" Volume="1"
				Note Time="216" Value="E4" Duration="7" Instrument="Duty 2" FinePitch="0"
				Note Time="217" Volume="3"
				Note Time="222" Volume="1"
				Note Time="224" Value="D4" Duration="7" Instrument="Duty 2" FinePitch="1"
				Note Time="225" Volume="3"
				Note Time="230" Volume="1"
				Note Time="232" Value="C#4" Duration="7" Instrument="Duty 2" FinePitch="0"
				Note Time="233" Volume="3"
				Note Time="238" Volume="1"
				Note Time="240" Value="A3" Duration="7" Instrument="Duty 2" FinePitch="1"
				Note Time="241" Volume="3"
				Note Time="246" Volume="1"
				Note Time="248" Value="F#3" Duration="7" Instrument="Duty 2"
				Note Time="249" Volume="3"
				Note Time="254" Volume="1"
			Pattern Name="Pattern 12"
				Note Time="0" Value="D4" Duration="15" Instrument="Duty 2"
				Note Time="1" Volume="3"
				Note Time="11" FinePitch="0"
				Note Time="12" FinePitch="-1"
				Note Time="13" FinePitch="-2"
				Note Time="14" Volume="1" FinePitch="-1"
				Note Time="16" Value="C#4" Duration="7" Instrument="Duty 2" FinePitch="0"
				Note Time="17" Volume="3"
				Note Time="22" Volume="1"
				Note Time="24" Value="D4" Duration="15" Instrument="Duty 2" FinePitch="1"
				Note Time="25" Volume="3"
				Note Time="35" FinePitch="0"
				Note Time="36" FinePitch="-1"
				Note Time="37" FinePitch="-2"
				Note Time="38" Volume="1" FinePitch="-1"
				Note Time="40" Value="E4" Duration="7" Instrument="Duty 2" FinePitch="0"
				Note Time="41" Volume="3"
				Note Time="46" Volume="1"
				Note Time="48" Value="F#4" Duration="7" Instrument="Duty 2" FinePitch="1"
				Note Time="49" Volume="3"
				Note Time="54" Volume="1"
				Note Time="56" Value="E4" Duration="7" Instrument="Duty 2" FinePitch="0"
				Note Time="57" Volume="3"
				Note Time="62" Volume="1"
				Note Time="64" Value="D4" Duration="8" Instrument="Duty 2" FinePitch="1"
				Note Time="65" Volume="3"
				Note Time="71" Volume="1"
				Note Time="75" FinePitch="0"
				Note Time="80" Value="C#4" Duration="8" Instrument="Duty 2"
				Note Time="81" Volume="3"
				Note Time="87" Volume="1"
				Note Time="96" Value="D4" Duration="15" Instrument="Duty 2" FinePitch="1"
				Note Time="97" Volume="3"
				Note Time="107" FinePitch="0"
				Note Time="108" FinePitch="-1"
				Note Time="109" FinePitch="-2"
				Note Time="110" Volume="1" FinePitch="-1"
				Note Time="112" Value="F#4" Duration="7" Instrument="Duty 2" FinePitch="1"
				Note Time="113" Volume="3"
				Note Time="118" Volume="1"
				Note Time="120" Value="G#4" Duration="15" Instrument="Duty 2" FinePitch="0"
				Note Time="121" Volume="3"
				Note Time="131" FinePitch="-1"
				Note Time="132" FinePitch="-2"
				Note Time="133" FinePitch="-3"
				Note Time="134" Volume="1" FinePitch="-2"
				Note Time="136" Value="A4" Duration="7" Instrument="Duty 2" FinePitch="1"
				Note Time="137" Volume="3"
				Note Time="142" Volume="1"
				Note Time="144" Value="B4" Duration="7" Instrument="Duty 2"
				Note Time="145" Volume="3"
				Note Time="150" Volume="1"
				Note Time="152" Value="C#5" Duration="7" Instrument="Duty 2" FinePitch="0"
				Note Time="153" Volume="3"
				Note Time="158" Volume="1"
				Note Time="160" Value="D5" Duration="7" Instrument="Duty 2" FinePitch="1"
				Note Time="161" Volume="3"
				Note Time="166" Volume="1"
				Note Time="168" Value="E5" Duration="7" Instrument="Duty 2" FinePitch="0"
				Note Time="169" Volume="3"
				Note Time="174" Volume="1"
				Note Time="176" Value="F#5" Duration="7" Instrument="Duty 2"
				Note Time="177" Volume="3"
				Note Time="182" Volume="1"
				Note Time="184" Value="G#5" Duration="7" Instrument="Duty 2" FinePitch="1"
				Note Time="185" Volume="3"
				Note Time="190" Volume="1"
				Note Time="192" Value="F#5" Duration="13" Instrument="Duty 2" FinePitch="0"
				Note Time="193" Volume="3"
				Note Time="203" FinePitch="-1"
				Note Time="204" FinePitch="-2"
				Note Time="205" Value="G5" Duration="1" Instrument="Duty 2" FinePitch="2"
				Note Time="206" Value="F#5" Duration="4" Instrument="Duty 2" FinePitch="-2"
				Note Time="207" FinePitch="-1"
				Note Time="208" FinePitch="0"
				Note Time="209" FinePitch="1"
				Note Time="210" Value="F5" Duration="3" Instrument="Duty 2" FinePitch="-2"
				Note Time="211" FinePitch="-1"
				Note Time="212" FinePitch="-2"
				Note Time="213" Value="F#5" Duration="4" Instrument="Duty 2" FinePitch="1"
				Note Time="214" FinePitch="0"
				Note Time="215" FinePitch="-1"
				Note Time="216" FinePitch="-2"
				Note Time="217" Value="G5" Duration="1" Instrument="Duty 2" FinePitch="2"
				Note Time="218" Value="F#5" Duration="4" Instrument="Duty 2" FinePitch="-2"
				Note Time="219" FinePitch="-1"
				Note Time="220" FinePitch="0"
				Note Time="221" FinePitch="1"
				Note Time="222" Value="F5" Duration="3" Instrument="Duty 2" FinePitch="-2"
				Note Time="223" FinePitch="-1"
				Note Time="224" FinePitch="-2"
				Note Time="225" Value="F#5" Duration="4" Instrument="Duty 2" FinePitch="1"
				Note Time="226" FinePitch="0"
				Note Time="227" FinePitch="-1"
				Note Time="228" FinePitch="-2"
				Note Time="229" Value="G5" Duration="1" Instrument="Duty 2" FinePitch="2"
				Note Time="230" Value="F#5" Duration="4" Instrument="Duty 2" FinePitch="-2"
				Note Time="231" FinePitch="-1"
				Note Time="232" FinePitch="0"
				Note Time="233" FinePitch="1"
				Note Time="234" Value="F5" Duration="3" Instrument="Duty 2" FinePitch="-2"
				Note Time="235" FinePitch="-1"
				Note Time="236" FinePitch="-2"
				Note Time="237" Value="F#5" Duration="2" Instrument="Duty 2" FinePitch="1"
				Note Time="238" Volume="1" FinePitch="0"
				Note Time="240" Value="E5" Duration="8" Instrument="Duty 2"
				Note Time="241" Volume="3"
				Note Time="248" Value="F#5" Duration="8" Instrument="Duty 2"
			Pattern Name="Pattern 13"
				Note Time="0" Value="E5" Duration="8" Instrument="Duty 2" FinePitch="1"
				Note Time="8" Value="F#5" Duration="8" Instrument="Duty 2" FinePitch="0"
				Note Time="16" Value="E5" Duration="8" Instrument="Duty 2" FinePitch="1"
				Note Time="24" Value="F#5" Duration="7" Instrument="Duty 2" FinePitch="0"
				Note Time="30" Volume="1"
				Note Time="32" Value="C#5" Duration="4" Instrument="Duty 2"
				Note Time="33" Volume="3"
				Note Time="36" Value="D5" Duration="4" Instrument="Duty 2" FinePitch="1"
				Note Time="40" Value="C#5" Duration="4" Instrument="Duty 2"
				Note Time="44" Value="D5" Duration="4" Instrument="Duty 2"
				Note Time="48" Value="C#5" Duration="4" Instrument="Duty 2"
				Note Time="52" Value="D5" Duration="4" Instrument="Duty 2"
				Note Time="56" Value="C#5" Duration="4" Instrument="Duty 2"
				Note Time="60" Value="D5" Duration="4" Instrument="Duty 2"
				Note Time="64" Value="C#5" Duration="4" Instrument="Duty 2"
				Note Time="68" Value="D5" Duration="4" Instrument="Duty 2"
				Note Time="72" Value="C#5" Duration="4" Instrument="Duty 2"
				Note Time="76" Value="D5" Duration="3" Instrument="Duty 2"
				Note Time="78" Volume="1"
				Note Time="80" Value="A4" Duration="7" Instrument="Duty 2"
				Note Time="81" Volume="3"
				Note Time="86" Volume="1"
				Note Time="88" Value="B4" Duration="7" Instrument="Duty 2"
				Note Time="89" Volume="3"
				Note Time="94" Volume="1"
				Note Time="96" Value="C#5" Duration="7" Instrument="Duty 2" FinePitch="0"
				Note Time="97" Volume="3"
				Note Time="102" Volume="1"
				Note Time="104" Value="B4" Duration="7" Instrument="Duty 2" FinePitch="1"
				Note Time="105" Volume="3"
				Note Time="110" Volume="1"
				Note Time="112" Value="A4" Duration="7" Instrument="Duty 2"
				Note Time="113" Volume="3"
				Note Time="118" Volume="1"
				Note Time="120" Value="G#4" Duration="7" Instrument="Duty 2" FinePitch="0"
				Note Time="121" Volume="3"
				Note Time="126" Volume="1"
				Note Time="128" Value="F#4" Duration="19" Instrument="Duty 2" FinePitch="2"
				Note Time="129" Volume="3"
				Note Time="139" FinePitch="1"
				Note Time="140" FinePitch="0"
				Note Time="141" FinePitch="-1"
				Note Time="142" FinePitch="0"
				Note Time="143" FinePitch="1"
				Note Time="144" FinePitch="2"
				Note Time="145" FinePitch="3"
				Note Time="146" FinePitch="4"
				Note Time="147" Value="F4" Duration="1" Instrument="Duty 2" FinePitch="-4"
				Note Time="148" Value="F#4" Duration="11" Instrument="Duty 2" FinePitch="4"
				Note Time="149" FinePitch="3"
				Note Time="150" FinePitch="2"
				Note Time="151" FinePitch="1"
				Note Time="152" FinePitch="0"
				Note Time="153" FinePitch="-1"
				Note Time="154" FinePitch="0"
				Note Time="155" FinePitch="1"
				Note Time="156" FinePitch="2"
				Note Time="157" FinePitch="3"
				Note Time="158" FinePitch="4"
				Note Time="159" Value="F4" Duration="1" Instrument="Duty 2" FinePitch="-4"
				Note Time="160" Value="F#4" Duration="11" Instrument="Duty 2" FinePitch="4"
				Note Time="161" FinePitch="3"
				Note Time="162" FinePitch="2"
				Note Time="163" FinePitch="1"
				Note Time="164" FinePitch="0"
				Note Time="165" FinePitch="-1"
				Note Time="166" FinePitch="0"
				Note Time="167" FinePitch="1"
				Note Time="168" FinePitch="2"
				Note Time="169" FinePitch="3"
				Note Time="170" FinePitch="4"
				Note Time="171" Value="F4" Duration="1" Instrument="Duty 2" FinePitch="-4"
				Note Time="172" Value="F#4" Duration="3" Instrument="Duty 2" FinePitch="4"
				Note Time="173" FinePitch="3"
				Note Time="174" Volume="1" FinePitch="2"
				Note Time="176" Value="E4" Duration="8" Instrument="Duty 2" FinePitch="1"
				Note Time="177" Volume="3"
				Note Time="184" Value="F#4" Duration="8" Instrument="Duty 2"
				Note Time="192" Value="E4" Duration="8" Instrument="Duty 2"
				Note Time="200" Value="F#4" Duration="8" Instrument="Duty 2"
				Note Time="208" Value="E4" Duration="8" Instrument="Duty 2"
				Note Time="216" Value="F#4" Duration="7" Instrument="Duty 2"
				Note Time="222" Volume="1"
				Note Time="224" Value="C#4" Duration="4" Instrument="Duty 2"
				Note Time="225" Volume="3"
				Note Time="228" Value="D4" Duration="4" Instrument="Duty 2"
				Note Time="232" Value="C#4" Duration="4" Instrument="Duty 2"
				Note Time="236" Value="D4" Duration="4" Instrument="Duty 2"
				Note Time="240" Value="C#4" Duration="4" Instrument="Duty 2"
				Note Time="244" Value="D4" Duration="4" Instrument="Duty 2"
				Note Time="248" Value="C#4" Duration="4" Instrument="Duty 2"
				Note Time="252" Value="D4" Duration="4" Instrument="Duty 2"
			Pattern Name="Pattern 14"
				Note Time="0" Value="C#4" Duration="4" Instrument="Duty 2"
				Note Time="4" Value="D4" Duration="4" Instrument="Duty 2"
				Note Time="8" Value="C#4" Duration="4" Instrument="Duty 2"
				Note Time="12" Value="D4" Duration="3" Instrument="Duty 2"
				Note Time="14" Volume="1"
				Note Time="16" Value="A3" Duration="7" Instrument="Duty 2" FinePitch="2"
				Note Time="17" Volume="3"
				Note Time="22" Volume="1"
				Note Time="24" Value="B3" Duration="7" Instrument="Duty 2"
				Note Time="25" Volume="3"
				Note Time="30" Volume="1"
				Note Time="32" Value="C#4" Duration="7" Instrument="Duty 2" FinePitch="1"
				Note Time="33" Volume="3"
				Note Time="38" Volume="1"
				Note Time="40" Value="B3" Duration="7" Instrument="Duty 2" FinePitch="2"
				Note Time="41" Volume="3"
				Note Time="46" Volume="1"
				Note Time="48" Value="A3" Duration="7" Instrument="Duty 2"
				Note Time="49" Volume="3"
				Note Time="54" Volume="1"
				Note Time="56" Value="G#3" Duration="7" Instrument="Duty 2"
				Note Time="57" Volume="3"
				Note Time="62" Volume="1"
				Note Time="64" Value="F#3" Duration="7" Instrument="Duty 0" Volume="2"
				Note Time="65" Volume="1"
				Note Time="66" Volume="4"
				Note Time="70" Volume="1"
				Note Time="72" Value="F#3" Duration="7" Instrument="Duty 0" Volume="2"
				Note Time="73" Volume="1"
				Note Time="74" Volume="4"
				Note Time="78" Volume="1"
				Note Time="80" Value="F#3" Duration="7" Instrument="Duty 0" Volume="2"
				Note Time="81" Volume="1"
				Note Time="82" Volume="4"
				Note Time="86" Volume="1"
				Note Time="88" Value="C#3" Duration="7" Instrument="Duty 0" Volume="2" FinePitch="1"
				Note Time="89" Volume="1"
				Note Time="90" Volume="4"
				Note Time="94" Volume="1"
				Note Time="96" Value="E3" Duration="7" Instrument="Duty 0" Volume="2" FinePitch="2"
				Note Time="97" Volume="1"
				Note Time="98" Volume="4"
				Note Time="102" Volume="1"
				Note Time="104" Value="F#3" Duration="7" Instrument="Duty 0" Volume="2"
				Note Time="105" Volume="1"
				Note Time="106" Volume="4"
				Note Time="110" Volume="1"
				Note Time="112" Value="A3" Duration="7" Instrument="Duty 0" Volume="2"
				Note Time="113" Volume="1"
				Note Time="114" Volume="4"
				Note Time="118" Volume="1"
				Note Time="120" Value="F#3" Duration="7" Instrument="Duty 0" Volume="2"
				Note Time="121" Volume="1"
				Note Time="122" Volume="4"
				Note Time="126" Volume="1"
				Note Time="128" Value="E3" Duration="7" Instrument="Duty 0" Volume="2"
				Note Time="129" Volume="1"
				Note Time="130" Volume="4"
				Note Time="134" Volume="1"
				Note Time="136" Value="F#3" Duration="7" Instrument="Duty 0" Volume="2"
				Note Time="137" Volume="1"
				Note Time="138" Volume="4"
				Note Time="142" Volume="1"
				Note Time="144" Value="E3" Duration="7" Instrument="Duty 0" Volume="2"
				Note Time="145" Volume="1"
				Note Time="146" Volume="4"
				Note Time="150" Volume="1"
				Note Time="152" Value="C#3" Duration="7" Instrument="Duty 0" Volume="2" FinePitch="1"
				Note Time="153" Volume="1"
				Note Time="154" Volume="4"
				Note Time="158" Volume="1"
				Note Time="160" Value="E3" Duration="7" Instrument="Duty 0" Volume="2" FinePitch="2"
				Note Time="161" Volume="1"
				Note Time="162" Volume="4"
				Note Time="166" Volume="1"
				Note Time="168" Value="F#3" Duration="7" Instrument="Duty 0" Volume="2"
				Note Time="169" Volume="1"
				Note Time="170" Volume="4"
				Note Time="174" Volume="1"
				Note Time="176" Value="F#3" Duration="7" Instrument="Duty 0" Volume="2"
				Note Time="177" Volume="1"
				Note Time="178" Volume="4"
				Note Time="182" Volume="1"
				Note Time="184" Value="A3" Duration="7" Instrument="Duty 0" Volume="2"
				Note Time="185" Volume="1"
				Note Time="186" Volume="4"
				Note Time="190" Volume="1"
				Note Time="192" Value="F#3" Duration="7" Instrument="Duty 0" Volume="2"
				Note Time="193" Volume="1"
				Note Time="194" Volume="4"
				Note Time="198" Volume="1"
				Note Time="200" Value="F#3" Duration="7" Instrument="Duty 0" Volume="2"
				Note Time="201" Volume="1"
				Note Time="202" Volume="4"
				Note Time="206" Volume="1"
				Note Time="208" Value="G3" Duration="7" Instrument="Duty 0" Volume="2"
				Note Time="209" Volume="1"
				Note Time="210" Volume="4"
				Note Time="214" Volume="1"
				Note Time="216" Value="A3" Duration="7" Instrument="Duty 0" Volume="2"
				Note Time="217" Volume="1"
				Note Time="218" Volume="4"
				Note Time="222" Volume="1"
				Note Time="224" Value="B3" Duration="7" Instrument="Duty 0" Volume="2"
				Note Time="225" Volume="1"
				Note Time="226" Volume="4"
				Note Time="230" Volume="1"
				Note Time="232" Value="C#4" Duration="7" Instrument="Duty 0" Volume="2" FinePitch="1"
				Note Time="233" Volume="1"
				Note Time="234" Volume="4"
				Note Time="238" Volume="1"
				Note Time="240" Value="D4" Duration="7" Instrument="Duty 0" Volume="2" FinePitch="2"
				Note Time="241" Volume="1"
				Note Time="242" Volume="4"
				Note Time="246" Volume="1"
				Note Time="248" Value="E4" Duration="7" Instrument="Duty 0" Volume="2" FinePitch="1"
				Note Time="249" Volume="1"
				Note Time="250" Volume="4"
				Note Time="254" Volume="1"
			Pattern Name="Pattern 15"
				Note Time="0" Value="F#4" Duration="1" Instrument="Duty 2"
				Note Time="1" Value="C#6" Duration="1" Instrument="Duty 2" Volume="3"
				Note Time="2" Value="F#4" Duration="7" Instrument="Duty 2" FinePitch="2"
				Note Time="8" Volume="1" FinePitch="1"
				Note Time="9" Value="C#6" Duration="1" Instrument="Duty 2" Volume="3"
				Note Time="10" Value="F#4" Duration="7" Instrument="Duty 2" FinePitch="2"
				Note Time="16" Volume="1" FinePitch="1"
				Note Time="17" Value="C#6" Duration="1" Instrument="Duty 2" Volume="3"
				Note Time="18" Value="F#4" Duration="6" Instrument="Duty 2" FinePitch="2"
				Note Time="24" Value="C#4" Duration="1" Instrument="Duty 2" Volume="1" FinePitch="0"
				Note Time="25" Value="G#5" Duration="1" Instrument="Duty 2" Volume="3" FinePitch="1"
				Note Time="26" Value="C#4" Duration="6" Instrument="Duty 2"
				Note Time="32" Value="E4" Duration="1" Instrument="Duty 2" Volume="1" FinePitch="0"
				Note Time="33" Value="B5" Duration="1" Instrument="Duty 2" Volume="3"
				Note Time="34" Value="E4" Duration="6" Instrument="Duty 2" FinePitch="1"
				Note Time="40" Value="F#4" Duration="1" Instrument="Duty 2" Volume="1"
				Note Time="41" Value="C#6" Duration="1" Instrument="Duty 2" Volume="3"
				Note Time="42" Value="F#4" Duration="6" Instrument="Duty 2" FinePitch="2"
				Note Time="48" Value="A4" Duration="1" Instrument="Duty 2" Volume="1" FinePitch="1"
				Note Time="49" Value="E6" Duration="1" Instrument="Duty 2" Volume="3"
				Note Time="50" Value="A4" Duration="6" Instrument="Duty 2" FinePitch="2"
				Note Time="56" Value="F#4" Duration="1" Instrument="Duty 2" Volume="1" FinePitch="1"
				Note Time="57" Value="C#6" Duration="1" Instrument="Duty 2" Volume="3"
				Note Time="58" Value="F#4" Duration="6" Instrument="Duty 2" FinePitch="2"
				Note Time="64" Value="E4" Duration="1" Instrument="Duty 2" Volume="1" FinePitch="0"
				Note Time="65" Value="B5" Duration="1" Instrument="Duty 2" Volume="3"
				Note Time="66" Value="E4" Duration="6" Instrument="Duty 2" FinePitch="1"
				Note Time="72" Value="F#4" Duration="1" Instrument="Duty 2" Volume="1"
				Note Time="73" Value="C#6" Duration="1" Instrument="Duty 2" Volume="3"
				Note Time="74" Value="F#4" Duration="6" Instrument="Duty 2" FinePitch="2"
				Note Time="80" Value="E4" Duration="1" Instrument="Duty 2" Volume="1" FinePitch="0"
				Note Time="81" Value="B5" Duration="1" Instrument="Duty 2" Volume="3"
				Note Time="82" Value="E4" Duration="6" Instrument="Duty 2" FinePitch="1"
				Note Time="88" Value="C#4" Duration="1" Instrument="Duty 2" Volume="1" FinePitch="0"
				Note Time="89" Value="G#5" Duration="1" Instrument="Duty 2" Volume="3" FinePitch="1"
				Note Time="90" Value="C#4" Duration="6" Instrument="Duty 2"
				Note Time="96" Value="E4" Duration="1" Instrument="Duty 2" Volume="1" FinePitch="0"
				Note Time="97" Value="B5" Duration="1" Instrument="Duty 2" Volume="3"
				Note Time="98" Value="E4" Duration="6" Instrument="Duty 2" FinePitch="1"
				Note Time="104" Value="F#4" Duration="1" Instrument="Duty 2" Volume="1"
				Note Time="105" Value="C#6" Duration="1" Instrument="Duty 2" Volume="3"
				Note Time="106" Value="F#4" Duration="7" Instrument="Duty 2" FinePitch="2"
				Note Time="112" Volume="1" FinePitch="1"
				Note Time="113" Value="C#6" Duration="1" Instrument="Duty 2" Volume="3"
				Note Time="114" Value="F#4" Duration="6" Instrument="Duty 2" FinePitch="2"
				Note Time="120" Value="A4" Duration="1" Instrument="Duty 2" Volume="1" FinePitch="1"
				Note Time="121" Value="E6" Duration="1" Instrument="Duty 2" Volume="3"
				Note Time="122" Value="A4" Duration="6" Instrument="Duty 2" FinePitch="2"
				Note Time="128" Value="F#4" Duration="1" Instrument="Duty 2" Volume="1" FinePitch="1"
				Note Time="129" Value="C#6" Duration="1" Instrument="Duty 2" Volume="3"
				Note Time="130" Value="F#4" Duration="7" Instrument="Duty 2" FinePitch="2"
				Note Time="136" Volume="1" FinePitch="1"
				Note Time="137" Value="C#6" Duration="1" Instrument="Duty 2" Volume="3"
				Note Time="138" Value="F#4" Duration="6" Instrument="Duty 2" FinePitch="2"
				Note Time="144" Value="G4" Duration="1" Instrument="Duty 2" Volume="1" FinePitch="0"
				Note Time="145" Value="D6" Duration="1" Instrument="Duty 2" Volume="3"
				Note Time="146" Value="G4" Duration="6" Instrument="Duty 2" FinePitch="1"
				Note Time="152" Value="A4" Duration="1" Instrument="Duty 2" Volume="1"
				Note Time="153" Value="E6" Duration="1" Instrument="Duty 2" Volume="3"
				Note Time="154" Value="A4" Duration="6" Instrument="Duty 2" FinePitch="2"
				Note Time="160" Value="B4" Duration="1" Instrument="Duty 2" Volume="1" FinePitch="1"
				Note Time="161" Value="F#6" Duration="1" Instrument="Duty 2" Volume="3" FinePitch="0"
				Note Time="162" Value="B4" Duration="6" Instrument="Duty 2" FinePitch="2"
				Note Time="168" Value="C#5" Duration="1" Instrument="Duty 2" Volume="1" FinePitch="0"
				Note Time="169" Value="G#6" Duration="1" Instrument="Duty 2" Volume="3"
				Note Time="170" Value="C#5" Duration="6" Instrument="Duty 2" FinePitch="1"
				Note Time="176" Value="D5" Duration="1" Instrument="Duty 2" Volume="1"
				Note Time="177" Value="A6" Duration="1" Instrument="Duty 2" Volume="3" FinePitch="0"
				Note Time="178" Value="D5" Duration="6" Instrument="Duty 2" FinePitch="2"
				Note Time="184" Value="E5" Duration="1" Instrument="Duty 2" Volume="1" FinePitch="0"
				Note Time="185" Value="A#6" Duration="1" Instrument="Duty 2" Volume="3" FinePitch="-1"
				Note Time="186" Value="E5" Duration="6" Instrument="Duty 2" FinePitch="1"
				Note Time="192" Value="B3" Duration="4" Instrument="Duty 0" Volume="4"
				Note Time="196" Value="B4" Duration="4" Instrument="Duty 0"
				Note Time="200" Value="F#3" Duration="4" Instrument="Duty 0"
				Note Time="204" Value="F#4" Duration="4" Instrument="Duty 0"
				Note Time="208" Value="C#3" Duration="4" Instrument="Duty 0" FinePitch="0"
				Note Time="212" Value="C#4" Duration="4" Instrument="Duty 0"
				Note Time="216" Value="B3" Duration="4" Instrument="Duty 0" FinePitch="1"
				Note Time="220" Value="B4" Duration="4" Instrument="Duty 0"
				Note Time="224" Value="F#3" Duration="4" Instrument="Duty 0"
				Note Time="228" Value="F#4" Duration="4" Instrument="Duty 0"
				Note Time="232" Value="C#3" Duration="4" Instrument="Duty 0" FinePitch="0"
				Note Time="236" Value="C#4" Duration="4" Instrument="Duty 0"
				Note Time="240" Value="C#3" Duration="2" Instrument="Duty 0" Volume="6"
				Note Time="241" Volume="5"
				Note Time="242" Value="D3" Duration="2" Instrument="Duty 0" Volume="4"
				Note Time="243" Volume="3"
				Note Time="244" Value="C#3" Duration="2" Instrument="Duty 0" Volume="2" FinePitch="1"
				Note Time="245" Volume="1"
				Note Time="248" Value="C#3" Duration="2" Instrument="Duty 0" Volume="6" FinePitch="0"
				Note Time="249" Volume="5"
				Note Time="250" Value="D3" Duration="2" Instrument="Duty 0" Volume="4"
				Note Time="251" Volume="3"
				Note Time="252" Value="C#3" Duration="2" Instrument="Duty 0" Volume="2" FinePitch="1"
				Note Time="253" Volume="1"
			Pattern Name="Pattern 16"
				Note Time="0" Value="C#3" Duration="2" Instrument="Duty 0" Volume="6" FinePitch="0"
				Note Time="1" Volume="5"
				Note Time="2" Value="D3" Duration="2" Instrument="Duty 0" Volume="4"
				Note Time="3" Volume="3"
				Note Time="4" Value="C#3" Duration="2" Instrument="Duty 0" Volume="2" FinePitch="1"
				Note Time="5" Volume="1"
				Note Time="8" FinePitch="0"
				Note Time="16" Value="C#3" Duration="2" Instrument="Duty 0" Volume="6"
				Note Time="17" Volume="5"
				Note Time="18" Value="D3" Duration="2" Instrument="Duty 0" Volume="4"
				Note Time="19" Volume="3"
				Note Time="20" Value="C#3" Duration="2" Instrument="Duty 0" Volume="2" FinePitch="1"
				Note Time="21" Volume="1"
				Note Time="24" FinePitch="0"
				Note Time="32" Value="B3" Duration="4" Instrument="Duty 0" Volume="4" FinePitch="1"
				Note Time="36" Value="B4" Duration="4" Instrument="Duty 0"
				Note Time="40" Value="F#3" Duration="4" Instrument="Duty 0"
				Note Time="44" Value="F#4" Duration="4" Instrument="Duty 0"
				Note Time="48" Value="C#3" Duration="4" Instrument="Duty 0" FinePitch="0"
				Note Time="52" Value="C#4" Duration="4" Instrument="Duty 0"
				Note Time="56" Value="B3" Duration="4" Instrument="Duty 0" FinePitch="1"
				Note Time="60" Value="B4" Duration="4" Instrument="Duty 0"
				Note Time="64" Value="F#3" Duration="4" Instrument="Duty 0"
				Note Time="68" Value="F#4" Duration="4" Instrument="Duty 0"
				Note Time="72" Value="C#3" Duration="4" Instrument="Duty 0" FinePitch="0"
				Note Time="76" Value="C#4" Duration="4" Instrument="Duty 0"
				Note Time="80" Value="C#3" Duration="2" Instrument="Duty 0" Volume="6"
				Note Time="81" Volume="5"
				Note Time="82" Value="D3" Duration="2" Instrument="Duty 0" Volume="4"
				Note Time="83" Volume="3"
				Note Time="84" Value="C#3" Duration="2" Instrument="Duty 0" Volume="2" FinePitch="1"
				Note Time="85" Volume="1"
				Note Time="88" Value="C#3" Duration="2" Instrument="Duty 0" Volume="6" FinePitch="0"
				Note Time="89" Volume="5"
				Note Time="90" Value="D3" Duration="2" Instrument="Duty 0" Volume="4"
				Note Time="91" Volume="3"
				Note Time="92" Value="C#3" Duration="2" Instrument="Duty 0" Volume="2" FinePitch="1"
				Note Time="93" Volume="1"
				Note Time="96" Value="C#3" Duration="2" Instrument="Duty 0" Volume="6" FinePitch="0"
				Note Time="97" Volume="5"
				Note Time="98" Value="D3" Duration="2" Instrument="Duty 0" Volume="4"
				Note Time="99" Volume="3"
				Note Time="100" Value="C#3" Duration="2" Instrument="Duty 0" Volume="2" FinePitch="1"
				Note Time="101" Volume="1"
				Note Time="104" FinePitch="0"
				Note Time="112" Value="C#3" Duration="2" Instrument="Duty 0" Volume="6"
				Note Time="113" Volume="5"
				Note Time="114" Value="D3" Duration="2" Instrument="Duty 0" Volume="4"
				Note Time="115" Volume="3"
				Note Time="116" Value="C#3" Duration="2" Instrument="Duty 0" Volume="2" FinePitch="1"
				Note Time="117" Volume="1"
				Note Time="120" FinePitch="0"
				Note Time="128" Value="B4" Duration="4" Instrument="Duty 0" Volume="4" FinePitch="1"
				Note Time="132" Value="B5" Duration="4" Instrument="Duty 0" FinePitch="0"
				Note Time="136" Value="F#4" Duration="4" Instrument="Duty 0" FinePitch="1"
				Note Time="140" Value="F#5" Duration="4" Instrument="Duty 0" FinePitch="0"
				Note Time="144" Value="C#4" Duration="4" Instrument="Duty 0"
				Note Time="148" Value="C#5" Duration="4" Instrument="Duty 0"
				Note Time="152" Value="B4" Duration="4" Instrument="Duty 0" FinePitch="1"
				Note Time="156" Value="B5" Duration="4" Instrument="Duty 0" FinePitch="0"
				Note Time="160" Value="F#4" Duration="4" Instrument="Duty 0" FinePitch="1"
				Note Time="164" Value="F#5" Duration="4" Instrument="Duty 0" FinePitch="0"
				Note Time="168" Value="C#4" Duration="4" Instrument="Duty 0"
				Note Time="172" Value="C#5" Duration="4" Instrument="Duty 0"
				Note Time="176" Value="C#4" Duration="2" Instrument="Duty 0" Volume="6"
				Note Time="177" Volume="5"
				Note Time="178" Value="D4" Duration="2" Instrument="Duty 0" Volume="4" FinePitch="1"
				Note Time="179" Volume="3"
				Note Time="180" Value="C#4" Duration="2" Instrument="Duty 0" Volume="2"
				Note Time="181" Volume="1"
				Note Time="184" Value="C#4" Duration="2" Instrument="Duty 0" Volume="6" FinePitch="0"
				Note Time="185" Volume="5"
				Note Time="186" Value="D4" Duration="2" Instrument="Duty 0" Volume="4" FinePitch="1"
				Note Time="187" Volume="3"
				Note Time="188" Value="C#4" Duration="2" Instrument="Duty 0" Volume="2"
				Note Time="189" Volume="1"
				Note Time="192" Value="C#4" Duration="2" Instrument="Duty 0" Volume="6" FinePitch="0"
				Note Time="193" Volume="5"
				Note Time="194" Value="D4" Duration="2" Instrument="Duty 0" Volume="4" FinePitch="1"
				Note Time="195" Volume="3"
				Note Time="196" Value="C#4" Duration="2" Instrument="Duty 0" Volume="2"
				Note Time="197" Volume="1"
				Note Time="200" FinePitch="0"
				Note Time="208" Value="C#4" Duration="2" Instrument="Duty 0" Volume="6"
				Note Time="209" Volume="5"
				Note Time="210" Value="D4" Duration="2" Instrument="Duty 0" Volume="4" FinePitch="1"
				Note Time="211" Volume="3"
				Note Time="212" Value="C#4" Duration="2" Instrument="Duty 0" Volume="2"
				Note Time="213" Volume="1"
				Note Time="216" FinePitch="0"
				Note Time="224" Value="B4" Duration="4" Instrument="Duty 0" Volume="4" FinePitch="1"
				Note Time="228" Value="B5" Duration="4" Instrument="Duty 0" FinePitch="0"
				Note Time="232" Value="F#4" Duration="4" Instrument="Duty 0" FinePitch="1"
				Note Time="236" Value="F#5" Duration="4" Instrument="Duty 0" FinePitch="0"
				Note Time="240" Value="C#4" Duration="4" Instrument="Duty 0"
				Note Time="244" Value="C#5" Duration="4" Instrument="Duty 0"
				Note Time="248" Value="B4" Duration="4" Instrument="Duty 0" FinePitch="1"
				Note Time="252" Value="B5" Duration="4" Instrument="Duty 0" FinePitch="0"
			Pattern Name="Pattern 17"
				Note Time="0" Value="F#4" Duration="4" Instrument="Duty 0" FinePitch="1"
				Note Time="4" Value="F#5" Duration="4" Instrument="Duty 0" FinePitch="0"
				Note Time="8" Value="C#4" Duration="4" Instrument="Duty 0"
				Note Time="12" Value="C#5" Duration="4" Instrument="Duty 0"
				Note Time="16" Value="C#4" Duration="2" Instrument="Duty 0" Volume="6"
				Note Time="17" Volume="5"
				Note Time="18" Value="D4" Duration="2" Instrument="Duty 0" Volume="4" FinePitch="1"
				Note Time="19" Volume="3"
				Note Time="20" Value="C#4" Duration="2" Instrument="Duty 0" Volume="2"
				Note Time="21" Volume="1"
				Note Time="24" Value="C#4" Duration="2" Instrument="Duty 0" Volume="6" FinePitch="0"
				Note Time="25" Volume="5"
				Note Time="26" Value="D4" Duration="2" Instrument="Duty 0" Volume="4" FinePitch="1"
				Note Time="27" Volume="3"
				Note Time="28" Value="C#4" Duration="2" Instrument="Duty 0" Volume="2"
				Note Time="29" Volume="1"
				Note Time="32" Value="C#4" Duration="2" Instrument="Duty 0" Volume="6" FinePitch="0"
				Note Time="33" Volume="5"
				Note Time="34" Value="D4" Duration="2" Instrument="Duty 0" Volume="4" FinePitch="1"
				Note Time="35" Volume="3"
				Note Time="36" Value="C#4" Duration="2" Instrument="Duty 0" Volume="2"
				Note Time="37" Volume="1"
				Note Time="40" FinePitch="0"
				Note Time="48" Value="C#4" Duration="2" Instrument="Duty 0" Volume="6"
				Note Time="49" Volume="5"
				Note Time="50" Value="D4" Duration="2" Instrument="Duty 0" Volume="4" FinePitch="1"
				Note Time="51" Volume="3"
				Note Time="52" Value="C#4" Duration="2" Instrument="Duty 0" Volume="2"
				Note Time="53" Volume="1"
				Note Time="56" FinePitch="0"
				Note Time="64" Value="C#4" Duration="18" Instrument="Duty 0"
				Note Time="80" Volume="6"
				Note Time="81" Volume="5"
				Note Time="82" Value="D4" Duration="2" Instrument="Duty 0" Volume="4" FinePitch="1"
				Note Time="83" Volume="3"
				Note Time="84" Value="C#4" Duration="2" Instrument="Duty 0" Volume="2"
				Note Time="85" Volume="1"
				Note Time="88" Value="C#4" Duration="2" Instrument="Duty 0" Volume="6" FinePitch="0"
				Note Time="89" Volume="5"
				Note Time="90" Value="D4" Duration="2" Instrument="Duty 0" Volume="4" FinePitch="1"
				Note Time="91" Volume="3"
				Note Time="92" Value="C#4" Duration="2" Instrument="Duty 0" Volume="2"
				Note Time="93" Volume="1"
				Note Time="96" Value="C#4" Duration="2" Instrument="Duty 0" Volume="6" FinePitch="0"
				Note Time="97" Volume="5"
				Note Time="98" Value="D4" Duration="2" Instrument="Duty 0" Volume="4" FinePitch="1"
				Note Time="99" Volume="3"
				Note Time="100" Value="C#4" Duration="2" Instrument="Duty 0" Volume="2"
				Note Time="101" Volume="1"
				Note Time="104" FinePitch="0"
				Note Time="112" Value="D#6" Duration="12" Instrument="Duty 2" FinePitch="1"
				Note Time="113" Volume="2"
				Note Time="124" Value="C6" Duration="4" Instrument="Duty 2" Volume="1" FinePitch="-1"
				Note Time="125" Volume="2"
				Note Time="128" Value="D#6" Duration="4" Instrument="Duty 2" Volume="1" FinePitch="1"
				Note Time="129" Volume="2"
				Note Time="132" Value="C6" Duration="4" Instrument="Duty 2" Volume="1" FinePitch="-1"
				Note Time="133" Volume="2"
				Note Time="136" Value="A#5" Duration="7" Instrument="Duty 2" Volume="1" FinePitch="1"
				Note Time="137" Volume="2"
				Note Time="142" Volume="1"
				Note Time="148" Value="C6" Duration="12" Instrument="Duty 2" FinePitch="-1"
				Note Time="149" Volume="2"
				Note Time="160" Value="B5" Duration="9" Instrument="Duty 2" Volume="1" FinePitch="-2"
				Note Time="161" Volume="2"
				Note Time="168" Volume="1"
				Note Time="172" Value="G5" Duration="9" Instrument="Duty 2"
				Note Time="173" Volume="2"
				Note Time="180" Volume="1"
				Note Time="184" Value="G5" Duration="19" Instrument="Duty 2" FinePitch="2"
				Note Time="185" Volume="2"
				Note Time="196" Volume="1" FinePitch="-2"
				Note Time="197" Volume="2"
				Note Time="202" Volume="1"
				Note Time="208" Value="F5" Duration="12" Instrument="Duty 2" FinePitch="2"
				Note Time="209" Volume="2"
				Note Time="220" Value="G5" Duration="7" Instrument="Duty 2" Volume="1"
				Note Time="221" Volume="2"
				Note Time="226" Volume="1"
				Note Time="232" Value="D#5" Duration="19" Instrument="Duty 2" FinePitch="1"
				Note Time="233" Volume="2"
				Note Time="250" Volume="1"
			Pattern Name="Pattern 18"
				Note Time="0" Value="C5" Duration="6" Instrument="Duty 2"
				Note Time="1" Volume="2"
				Note Time="6" Value="C#5" Duration="6" Instrument="Duty 2" Volume="1"
				Note Time="7" Volume="2"
				Note Time="12" Value="D#5" Duration="12" Instrument="Duty 2" Volume="1"
				Note Time="13" Volume="2"
				Note Time="24" Value="C#5" Duration="6" Instrument="Duty 2" Volume="1"
				Note Time="25" Volume="2"
				Note Time="30" Value="D#5" Duration="6" Instrument="Duty 2" Volume="1"
				Note Time="31" Volume="2"
				Note Time="36" Value="F5" Duration="12" Instrument="Duty 2" Volume="1" FinePitch="2"
				Note Time="37" Volume="2"
				Note Time="48" Value="D#5" Duration="6" Instrument="Duty 2" Volume="1" FinePitch="1"
				Note Time="49" Volume="2"
				Note Time="54" Value="F5" Duration="6" Instrument="Duty 2" Volume="1" FinePitch="2"
				Note Time="55" Volume="2"
				Note Time="60" Value="G5" Duration="31" Instrument="Duty 2" Volume="1"
				Note Time="61" Volume="2"
				Note Time="72" Volume="1" FinePitch="-2"
				Note Time="73" Volume="2"
				Note Time="84" Volume="1" FinePitch="2"
				Note Time="85" Volume="2"
				Note Time="90" Volume="1"
				Note Time="96" Value="G5" Duration="7" Instrument="Duty 2" FinePitch="-2"
				Note Time="97" Volume="2"
				Note Time="102" Volume="1"
				Note Time="108" Value="A#5" Duration="12" Instrument="Duty 2" FinePitch="1"
				Note Time="109" Volume="2"
				Note Time="120" Value="B5" Duration="7" Instrument="Duty 2" Volume="1" FinePitch="-2"
				Note Time="121" Volume="2"
				Note Time="126" Volume="1"
				Note Time="132" Value="C6" Duration="7" Instrument="Duty 2" FinePitch="-1"
				Note Time="133" Volume="2"
				Note Time="138" Volume="1"
				Note Time="144" Value="D#6" Duration="12" Instrument="Duty 2" FinePitch="1"
				Note Time="145" Volume="2"
				Note Time="156" Value="C6" Duration="4" Instrument="Duty 2" Volume="1" FinePitch="-1"
				Note Time="157" Volume="2"
				Note Time="160" Value="D#6" Duration="4" Instrument="Duty 2" Volume="1" FinePitch="1"
				Note Time="161" Volume="2"
				Note Time="164" Value="C6" Duration="4" Instrument="Duty 2" Volume="1" FinePitch="-1"
				Note Time="165" Volume="2"
				Note Time="168" Value="A#5" Duration="7" Instrument="Duty 2" Volume="1" FinePitch="1"
				Note Time="169" Volume="2"
				Note Time="174" Volume="1"
				Note Time="180" Value="C6" Duration="12" Instrument="Duty 2" FinePitch="-1"
				Note Time="181" Volume="2"
				Note Time="192" Value="B5" Duration="9" Instrument="Duty 2" Volume="1" FinePitch="-2"
				Note Time="193" Volume="2"
				Note Time="200" Volume="1"
				Note Time="204" Value="G5" Duration="9" Instrument="Duty 2"
				Note Time="205" Volume="2"
				Note Time="212" Volume="1"
				Note Time="216" Value="G5" Duration="19" Instrument="Duty 2" FinePitch="2"
				Note Time="217" Volume="2"
				Note Time="228" Volume="1" FinePitch="-2"
				Note Time="229" Volume="2"
				Note Time="234" Volume="1"
				Note Time="240" Value="F5" Duration="12" Instrument="Duty 2" FinePitch="2"
				Note Time="241" Volume="2"
				Note Time="252" Value="G5" Duration="7" Instrument="Duty 2" Volume="1"
				Note Time="253" Volume="2"
			Pattern Name="Pattern 19"
				Note Time="2" Volume="1"
				Note Time="8" Value="D#5" Duration="19" Instrument="Duty 2" FinePitch="1"
				Note Time="9" Volume="2"
				Note Time="26" Volume="1"
				Note Time="32" Value="C5" Duration="6" Instrument="Duty 2"
				Note Time="33" Volume="2"
				Note Time="38" Value="C#5" Duration="6" Instrument="Duty 2" Volume="1"
				Note Time="39" Volume="2"
				Note Time="44" Value="D#5" Duration="12" Instrument="Duty 2" Volume="1"
				Note Time="45" Volume="2"
				Note Time="56" Value="C#5" Duration="6" Instrument="Duty 2" Volume="1"
				Note Time="57" Volume="2"
				Note Time="62" Value="D#5" Duration="6" Instrument="Duty 2" Volume="1"
				Note Time="63" Volume="2"
				Note Time="68" Value="F5" Duration="12" Instrument="Duty 2" Volume="1" FinePitch="2"
				Note Time="69" Volume="2"
				Note Time="80" Value="D#5" Duration="6" Instrument="Duty 2" Volume="1" FinePitch="1"
				Note Time="81" Volume="2"
				Note Time="86" Value="F5" Duration="6" Instrument="Duty 2" Volume="1" FinePitch="2"
				Note Time="87" Volume="2"
				Note Time="92" Value="G5" Duration="31" Instrument="Duty 2" Volume="1"
				Note Time="93" Volume="2"
				Note Time="104" Volume="1" FinePitch="-2"
				Note Time="105" Volume="2"
				Note Time="116" Volume="1" FinePitch="2"
				Note Time="117" Volume="2"
				Note Time="122" Volume="1"
				Note Time="128" Value="G5" Duration="7" Instrument="Duty 2" FinePitch="-2"
				Note Time="129" Volume="2"
				Note Time="134" Volume="1"
				Note Time="140" Value="A#5" Duration="12" Instrument="Duty 2" FinePitch="1"
				Note Time="141" Volume="2"
				Note Time="152" Value="B5" Duration="7" Instrument="Duty 2" Volume="1" FinePitch="-2"
				Note Time="153" Volume="2"
				Note Time="158" Volume="1"
				Note Time="164" Value="C6" Duration="7" Instrument="Duty 2" FinePitch="-1"
				Note Time="165" Volume="2"
				Note Time="170" Volume="1"
				Note Time="176" Value="E2" Duration="2" Instrument="Duty 3" Volume="2" FinePitch="0"
				Note Time="178" Value="E3" Duration="2" Instrument="Duty 3" FinePitch="1"
				Note Time="180" Value="A2" Duration="2" Instrument="Duty 3"
				Note Time="182" Value="A3" Duration="2" Instrument="Duty 3"
				Note Time="184" Value="C#3" Duration="2" Instrument="Duty 3" FinePitch="0"
				Note Time="186" Value="C#4" Duration="2" Instrument="Duty 3"
				Note Time="188" Value="E3" Duration="2" Instrument="Duty 3" FinePitch="1"
				Note Time="190" Value="E4" Duration="2" Instrument="Duty 3" FinePitch="0"
				Note Time="192" Value="A3" Duration="2" Instrument="Duty 3" FinePitch="1"
				Note Time="194" Value="A4" Duration="2" Instrument="Duty 3"
				Note Time="196" Value="C#4" Duration="2" Instrument="Duty 3" FinePitch="0"
				Note Time="198" Value="C#5" Duration="2" Instrument="Duty 3"
				Note Time="200" Value="E2" Duration="2" Instrument="Duty 3"
				Note Time="202" Value="E3" Duration="2" Instrument="Duty 3" FinePitch="1"
				Note Time="204" Value="A2" Duration="2" Instrument="Duty 3"
				Note Time="206" Value="A3" Duration="2" Instrument="Duty 3"
				Note Time="208" Value="C#3" Duration="2" Instrument="Duty 3" FinePitch="0"
				Note Time="210" Value="C#4" Duration="2" Instrument="Duty 3"
				Note Time="212" Value="E3" Duration="2" Instrument="Duty 3" FinePitch="1"
				Note Time="214" Value="E4" Duration="2" Instrument="Duty 3" FinePitch="0"
				Note Time="216" Value="A3" Duration="2" Instrument="Duty 3" FinePitch="1"
				Note Time="218" Value="A4" Duration="2" Instrument="Duty 3"
				Note Time="220" Value="C#4" Duration="2" Instrument="Duty 3" FinePitch="0"
				Note Time="222" Value="C#5" Duration="2" Instrument="Duty 3"
				Note Time="224" Value="E2" Duration="2" Instrument="Duty 3"
				Note Time="226" Value="E3" Duration="2" Instrument="Duty 3" FinePitch="1"
				Note Time="228" Value="A2" Duration="2" Instrument="Duty 3"
				Note Time="230" Value="A3" Duration="2" Instrument="Duty 3"
				Note Time="232" Value="C#3" Duration="2" Instrument="Duty 3" FinePitch="0"
				Note Time="234" Value="C#4" Duration="2" Instrument="Duty 3"
				Note Time="236" Value="E3" Duration="2" Instrument="Duty 3" FinePitch="1"
				Note Time="238" Value="E4" Duration="2" Instrument="Duty 3" FinePitch="0"
				Note Time="240" Value="A3" Duration="2" Instrument="Duty 3" FinePitch="1"
				Note Time="242" Value="A4" Duration="2" Instrument="Duty 3"
				Note Time="244" Value="C#4" Duration="2" Instrument="Duty 3" FinePitch="0"
				Note Time="246" Value="C#5" Duration="2" Instrument="Duty 3"
				Note Time="248" Value="E2" Duration="2" Instrument="Duty 3"
				Note Time="250" Value="E3" Duration="2" Instrument="Duty 3" FinePitch="1"
				Note Time="252" Value="A2" Duration="2" Instrument="Duty 3"
				Note Time="254" Value="A3" Duration="2" Instrument="Duty 3"
			Pattern Name="Pattern 20"
				Note Time="0" Value="C#3" Duration="2" Instrument="Duty 3" FinePitch="0"
				Note Time="2" Value="C#4" Duration="2" Instrument="Duty 3"
				Note Time="4" Value="E3" Duration="2" Instrument="Duty 3" FinePitch="1"
				Note Time="6" Value="E4" Duration="2" Instrument="Duty 3" FinePitch="0"
				Note Time="8" Value="A3" Duration="2" Instrument="Duty 3" FinePitch="1"
				Note Time="10" Value="A4" Duration="2" Instrument="Duty 3"
				Note Time="12" Value="C#4" Duration="2" Instrument="Duty 3" FinePitch="0"
				Note Time="14" Value="C#5" Duration="2" Instrument="Duty 3"
				Note Time="16" Value="E2" Duration="2" Instrument="Duty 3"
				Note Time="18" Value="E3" Duration="2" Instrument="Duty 3" FinePitch="1"
				Note Time="20" Value="A2" Duration="2" Instrument="Duty 3"
				Note Time="22" Value="A3" Duration="2" Instrument="Duty 3"
				Note Time="24" Value="C#3" Duration="2" Instrument="Duty 3" FinePitch="0"
				Note Time="26" Value="C#4" Duration="2" Instrument="Duty 3"
				Note Time="28" Value="E3" Duration="2" Instrument="Duty 3" FinePitch="1"
				Note Time="30" Value="E4" Duration="2" Instrument="Duty 3" FinePitch="0"
				Note Time="32" Value="A3" Duration="2" Instrument="Duty 3" FinePitch="1"
				Note Time="34" Value="A4" Duration="2" Instrument="Duty 3"
				Note Time="36" Value="C#4" Duration="2" Instrument="Duty 3" FinePitch="0"
				Note Time="38" Value="C#5" Duration="2" Instrument="Duty 3"
				Note Time="40" Value="E2" Duration="2" Instrument="Duty 3"
				Note Time="42" Value="E3" Duration="2" Instrument="Duty 3" FinePitch="1"
				Note Time="44" Value="A2" Duration="2" Instrument="Duty 3"
				Note Time="46" Value="A3" Duration="2" Instrument="Duty 3"
				Note Time="48" Value="C#3" Duration="2" Instrument="Duty 3" FinePitch="0"
				Note Time="50" Value="C#4" Duration="2" Instrument="Duty 3"
				Note Time="52" Value="E3" Duration="2" Instrument="Duty 3" FinePitch="1"
				Note Time="54" Value="E4" Duration="2" Instrument="Duty 3" FinePitch="0"
				Note Time="56" Value="A3" Duration="2" Instrument="Duty 3" FinePitch="1"
				Note Time="58" Value="A4" Duration="2" Instrument="Duty 3"
				Note Time="60" Value="C#4" Duration="2" Instrument="Duty 3" FinePitch="0"
				Note Time="62" Value="C#5" Duration="2" Instrument="Duty 3"
				Note Time="64" Value="E2" Duration="2" Instrument="Duty 3"
				Note Time="66" Value="E3" Duration="2" Instrument="Duty 3" FinePitch="1"
				Note Time="68" Value="A2" Duration="2" Instrument="Duty 3"
				Note Time="70" Value="A3" Duration="2" Instrument="Duty 3"
				Note Time="72" Value="C#3" Duration="2" Instrument="Duty 3" FinePitch="0"
				Note Time="74" Value="C#4" Duration="2" Instrument="Duty 3"
				Note Time="76" Value="E3" Duration="2" Instrument="Duty 3" FinePitch="1"
				Note Time="78" Value="E4" Duration="2" Instrument="Duty 3" FinePitch="0"
				Note Time="80" Value="A3" Duration="2" Instrument="Duty 3" FinePitch="1"
				Note Time="82" Value="A4" Duration="2" Instrument="Duty 3"
				Note Time="84" Value="C#4" Duration="2" Instrument="Duty 3" FinePitch="0"
				Note Time="86" Value="C#5" Duration="2" Instrument="Duty 3"
				Note Time="88" Value="E2" Duration="2" Instrument="Duty 3"
				Note Time="90" Value="E3" Duration="2" Instrument="Duty 3" FinePitch="1"
				Note Time="92" Value="A2" Duration="2" Instrument="Duty 3"
				Note Time="94" Value="A3" Duration="2" Instrument="Duty 3"
				Note Time="96" Value="C#3" Duration="2" Instrument="Duty 3" FinePitch="0"
				Note Time="98" Value="C#4" Duration="2" Instrument="Duty 3"
				Note Time="100" Value="E3" Duration="2" Instrument="Duty 3" FinePitch="1"
				Note Time="102" Value="E4" Duration="2" Instrument="Duty 3" FinePitch="0"
				Note Time="104" Value="A3" Duration="2" Instrument="Duty 3" FinePitch="1"
				Note Time="106" Value="A4" Duration="2" Instrument="Duty 3"
				Note Time="108" Value="C#4" Duration="2" Instrument="Duty 3" FinePitch="0"
				Note Time="110" Value="C#5" Duration="2" Instrument="Duty 3"
				Note Time="112" Value="E2" Duration="2" Instrument="Duty 3"
				Note Time="114" Value="E3" Duration="2" Instrument="Duty 3" FinePitch="1"
				Note Time="116" Value="A2" Duration="2" Instrument="Duty 3"
				Note Time="118" Value="A3" Duration="2" Instrument="Duty 3"
				Note Time="120" Value="C#3" Duration="2" Instrument="Duty 3" FinePitch="0"
				Note Time="122" Value="C#4" Duration="2" Instrument="Duty 3"
				Note Time="124" Value="E3" Duration="2" Instrument="Duty 3" FinePitch="1"
				Note Time="126" Value="E4" Duration="2" Instrument="Duty 3" FinePitch="0"
				Note Time="128" Value="A3" Duration="2" Instrument="Duty 3" FinePitch="1"
				Note Time="130" Value="A4" Duration="2" Instrument="Duty 3"
				Note Time="132" Value="C#4" Duration="2" Instrument="Duty 3" FinePitch="0"
				Note Time="134" Value="C#5" Duration="2" Instrument="Duty 3"
				Note Time="136" Value="E2" Duration="2" Instrument="Duty 3"
				Note Time="138" Value="E3" Duration="2" Instrument="Duty 3" FinePitch="1"
				Note Time="140" Value="A2" Duration="2" Instrument="Duty 3"
				Note Time="142" Value="A3" Duration="2" Instrument="Duty 3"
				Note Time="144" Value="C#3" Duration="2" Instrument="Duty 3" FinePitch="0"
				Note Time="146" Value="C#4" Duration="2" Instrument="Duty 3"
				Note Time="148" Value="E3" Duration="2" Instrument="Duty 3" FinePitch="1"
				Note Time="150" Value="E4" Duration="2" Instrument="Duty 3" FinePitch="0"
				Note Time="152" Value="A3" Duration="2" Instrument="Duty 3" FinePitch="1"
				Note Time="154" Value="A4" Duration="2" Instrument="Duty 3"
				Note Time="156" Value="C#4" Duration="2" Instrument="Duty 3" FinePitch="0"
				Note Time="158" Value="C#5" Duration="2" Instrument="Duty 3"
				Note Time="160" Value="E2" Duration="2" Instrument="Duty 3"
				Note Time="162" Value="E3" Duration="2" Instrument="Duty 3" FinePitch="1"
				Note Time="164" Value="A2" Duration="2" Instrument="Duty 3"
				Note Time="166" Value="A3" Duration="2" Instrument="Duty 3"
				Note Time="168" Value="C#3" Duration="2" Instrument="Duty 3" FinePitch="0"
				Note Time="170" Value="C#4" Duration="2" Instrument="Duty 3"
				Note Time="172" Value="E3" Duration="2" Instrument="Duty 3" FinePitch="1"
				Note Time="174" Value="E4" Duration="2" Instrument="Duty 3" FinePitch="0"
				Note Time="176" Value="A3" Duration="2" Instrument="Duty 3" FinePitch="1"
				Note Time="178" Value="A4" Duration="2" Instrument="Duty 3"
				Note Time="180" Value="C#4" Duration="2" Instrument="Duty 3" FinePitch="0"
				Note Time="182" Value="C#5" Duration="2" Instrument="Duty 3"
				Note Time="184" Value="E2" Duration="2" Instrument="Duty 3"
				Note Time="186" Value="E3" Duration="2" Instrument="Duty 3" FinePitch="1"
				Note Time="188" Value="A2" Duration="2" Instrument="Duty 3"
				Note Time="190" Value="A3" Duration="2" Instrument="Duty 3"
				Note Time="192" Value="C#3" Duration="2" Instrument="Duty 3" FinePitch="0"
				Note Time="194" Value="C#4" Duration="2" Instrument="Duty 3"
				Note Time="196" Value="E3" Duration="2" Instrument="Duty 3" FinePitch="1"
				Note Time="198" Value="E4" Duration="2" Instrument="Duty 3" FinePitch="0"
				Note Time="200" Value="A3" Duration="2" Instrument="Duty 3" FinePitch="1"
				Note Time="202" Value="A4" Duration="2" Instrument="Duty 3"
				Note Time="204" Value="C#4" Duration="2" Instrument="Duty 3" FinePitch="0"
				Note Time="206" Value="C#5" Duration="2" Instrument="Duty 3"
				Note Time="208" Value="E2" Duration="2" Instrument="Duty 3"
				Note Time="210" Value="E3" Duration="2" Instrument="Duty 3" FinePitch="1"
				Note Time="212" Value="A2" Duration="2" Instrument="Duty 3"
				Note Time="214" Value="A3" Duration="2" Instrument="Duty 3"
				Note Time="216" Value="C#3" Duration="2" Instrument="Duty 3" FinePitch="0"
				Note Time="218" Value="C#4" Duration="2" Instrument="Duty 3"
				Note Time="220" Value="E3" Duration="2" Instrument="Duty 3" FinePitch="1"
				Note Time="222" Value="E4" Duration="2" Instrument="Duty 3" FinePitch="0"
				Note Time="224" Value="A3" Duration="2" Instrument="Duty 3" FinePitch="1"
				Note Time="226" Value="A4" Duration="2" Instrument="Duty 3"
				Note Time="228" Value="C#4" Duration="2" Instrument="Duty 3" FinePitch="0"
				Note Time="230" Value="C#5" Duration="2" Instrument="Duty 3"
				Note Time="232" Value="E2" Duration="2" Instrument="Duty 3"
				Note Time="234" Value="E3" Duration="2" Instrument="Duty 3" FinePitch="1"
				Note Time="236" Value="A2" Duration="2" Instrument="Duty 3"
				Note Time="238" Value="A3" Duration="2" Instrument="Duty 3"
				Note Time="240" Value="C#3" Duration="2" Instrument="Duty 3" FinePitch="0"
				Note Time="242" Value="C#4" Duration="2" Instrument="Duty 3"
				Note Time="244" Value="E3" Duration="2" Instrument="Duty 3" FinePitch="1"
				Note Time="246" Value="E4" Duration="2" Instrument="Duty 3" FinePitch="0"
				Note Time="248" Value="A3" Duration="2" Instrument="Duty 3" FinePitch="1"
				Note Time="250" Value="A4" Duration="2" Instrument="Duty 3"
				Note Time="252" Value="C#4" Duration="2" Instrument="Duty 3" FinePitch="0"
				Note Time="254" Value="C#5" Duration="2" Instrument="Duty 3"
			Pattern Name="Pattern 21"
				Note Time="0" Value="E2" Duration="2" Instrument="Duty 3"
				Note Time="2" Value="E3" Duration="2" Instrument="Duty 3" FinePitch="1"
				Note Time="4" Value="A2" Duration="2" Instrument="Duty 3"
				Note Time="6" Value="A3" Duration="2" Instrument="Duty 3"
				Note Time="8" Value="C#3" Duration="2" Instrument="Duty 3" FinePitch="0"
				Note Time="10" Value="C#4" Duration="2" Instrument="Duty 3"
				Note Time="12" Value="E3" Duration="2" Instrument="Duty 3" FinePitch="1"
				Note Time="14" Value="E4" Duration="2" Instrument="Duty 3" FinePitch="0"
				Note Time="16" Value="A3" Duration="2" Instrument="Duty 3" FinePitch="1"
				Note Time="18" Value="A4" Duration="2" Instrument="Duty 3"
				Note Time="20" Value="C#4" Duration="2" Instrument="Duty 3" FinePitch="0"
				Note Time="22" Value="C#5" Duration="2" Instrument="Duty 3"
				Note Time="24" Value="E2" Duration="2" Instrument="Duty 3"
				Note Time="26" Value="E3" Duration="2" Instrument="Duty 3" FinePitch="1"
				Note Time="28" Value="A2" Duration="2" Instrument="Duty 3"
				Note Time="30" Value="A3" Duration="2" Instrument="Duty 3"
				Note Time="32" Value="C#3" Duration="2" Instrument="Duty 3" FinePitch="0"
				Note Time="34" Value="C#4" Duration="2" Instrument="Duty 3"
				Note Time="36" Value="E3" Duration="2" Instrument="Duty 3" FinePitch="1"
				Note Time="38" Value="E4" Duration="2" Instrument="Duty 3" FinePitch="0"
				Note Time="40" Value="A3" Duration="2" Instrument="Duty 3" FinePitch="1"
				Note Time="42" Value="A4" Duration="2" Instrument="Duty 3"
				Note Time="44" Value="C#4" Duration="2" Instrument="Duty 3" FinePitch="0"
				Note Time="46" Value="C#5" Duration="2" Instrument="Duty 3"
				Note Time="48" Value="E2" Duration="2" Instrument="Duty 3"
				Note Time="50" Value="E3" Duration="2" Instrument="Duty 3" FinePitch="1"
				Note Time="52" Value="A2" Duration="2" Instrument="Duty 3"
				Note Time="54" Value="A3" Duration="2" Instrument="Duty 3"
				Note Time="56" Value="C#3" Duration="2" Instrument="Duty 3" FinePitch="0"
				Note Time="58" Value="C#4" Duration="2" Instrument="Duty 3"
				Note Time="60" Value="E3" Duration="2" Instrument="Duty 3" FinePitch="1"
				Note Time="62" Value="E4" Duration="2" Instrument="Duty 3" FinePitch="0"
				Note Time="64" Value="A3" Duration="2" Instrument="Duty 3" FinePitch="1"
				Note Time="66" Value="A4" Duration="2" Instrument="Duty 3"
				Note Time="68" Value="C#4" Duration="2" Instrument="Duty 3" FinePitch="0"
				Note Time="70" Value="C#5" Duration="2" Instrument="Duty 3"
				Note Time="72" Value="E2" Duration="2" Instrument="Duty 3"
				Note Time="74" Value="E3" Duration="2" Instrument="Duty 3" FinePitch="1"
				Note Time="76" Value="A2" Duration="2" Instrument="Duty 3"
				Note Time="78" Value="A3" Duration="2" Instrument="Duty 3"
				Note Time="80" Value="C#3" Duration="2" Instrument="Duty 3" FinePitch="0"
				Note Time="82" Value="C#4" Duration="2" Instrument="Duty 3"
				Note Time="84" Value="E3" Duration="2" Instrument="Duty 3" FinePitch="1"
				Note Time="86" Value="E4" Duration="2" Instrument="Duty 3" FinePitch="0"
				Note Time="88" Value="A3" Duration="2" Instrument="Duty 3" FinePitch="1"
				Note Time="90" Value="A4" Duration="2" Instrument="Duty 3"
				Note Time="92" Value="C#4" Duration="2" Instrument="Duty 3" FinePitch="0"
				Note Time="94" Value="C#5" Duration="2" Instrument="Duty 3"
				Note Time="96" Value="E2" Duration="2" Instrument="Duty 3"
				Note Time="98" Value="E3" Duration="2" Instrument="Duty 3" FinePitch="1"
				Note Time="100" Value="A2" Duration="2" Instrument="Duty 3"
				Note Time="102" Value="A3" Duration="2" Instrument="Duty 3"
				Note Time="104" Value="C#3" Duration="2" Instrument="Duty 3" FinePitch="0"
				Note Time="106" Value="C#4" Duration="2" Instrument="Duty 3"
				Note Time="108" Value="E3" Duration="2" Instrument="Duty 3" FinePitch="1"
				Note Time="110" Value="E4" Duration="2" Instrument="Duty 3" FinePitch="0"
				Note Time="112" Value="A3" Duration="2" Instrument="Duty 3" FinePitch="1"
				Note Time="114" Value="A4" Duration="2" Instrument="Duty 3"
				Note Time="116" Value="C#4" Duration="2" Instrument="Duty 3" FinePitch="0"
				Note Time="118" Value="C#5" Duration="2" Instrument="Duty 3"
				Note Time="120" Value="E2" Duration="2" Instrument="Duty 3"
				Note Time="122" Value="E3" Duration="2" Instrument="Duty 3" FinePitch="1"
				Note Time="124" Value="A2" Duration="2" Instrument="Duty 3"
				Note Time="126" Value="A3" Duration="2" Instrument="Duty 3"
				Note Time="128" Value="C#3" Duration="2" Instrument="Duty 3" FinePitch="0"
				Note Time="130" Value="C#4" Duration="2" Instrument="Duty 3"
				Note Time="132" Value="E3" Duration="2" Instrument="Duty 3" FinePitch="1"
				Note Time="134" Value="E4" Duration="2" Instrument="Duty 3" FinePitch="0"
				Note Time="136" Value="A3" Duration="2" Instrument="Duty 3" FinePitch="1"
				Note Time="138" Value="A4" Duration="2" Instrument="Duty 3"
				Note Time="140" Value="C#4" Duration="2" Instrument="Duty 3" FinePitch="0"
				Note Time="142" Value="C#5" Duration="2" Instrument="Duty 3"
				Note Time="144" Value="E2" Duration="2" Instrument="Duty 3"
				Note Time="146" Value="E3" Duration="2" Instrument="Duty 3" FinePitch="1"
				Note Time="148" Value="A2" Duration="2" Instrument="Duty 3"
				Note Time="150" Value="A3" Duration="2" Instrument="Duty 3"
				Note Time="152" Value="C#3" Duration="2" Instrument="Duty 3" FinePitch="0"
				Note Time="154" Value="C#4" Duration="2" Instrument="Duty 3"
				Note Time="156" Value="E3" Duration="2" Instrument="Duty 3" FinePitch="1"
				Note Time="158" Value="E4" Duration="2" Instrument="Duty 3" FinePitch="0"
				Note Time="160" Value="A3" Duration="2" Instrument="Duty 3" FinePitch="1"
				Note Time="162" Value="A4" Duration="2" Instrument="Duty 3"
				Note Time="164" Value="C#4" Duration="2" Instrument="Duty 3" FinePitch="0"
				Note Time="166" Value="C#5" Duration="2" Instrument="Duty 3"
				Note Time="168" Value="E2" Duration="2" Instrument="Duty 3"
				Note Time="170" Value="E3" Duration="2" Instrument="Duty 3" FinePitch="1"
				Note Time="172" Value="A2" Duration="2" Instrument="Duty 3"
				Note Time="174" Value="A3" Duration="2" Instrument="Duty 3"
				Note Time="176" Value="C#3" Duration="2" Instrument="Duty 3" FinePitch="0"
				Note Time="178" Value="C#4" Duration="2" Instrument="Duty 3"
				Note Time="180" Value="E3" Duration="2" Instrument="Duty 3" FinePitch="1"
				Note Time="182" Value="E4" Duration="2" Instrument="Duty 3" FinePitch="0"
				Note Time="184" Value="A3" Duration="2" Instrument="Duty 3" FinePitch="1"
				Note Time="186" Value="A4" Duration="2" Instrument="Duty 3"
				Note Time="188" Value="C#4" Duration="2" Instrument="Duty 3" FinePitch="0"
				Note Time="190" Value="C#5" Duration="2" Instrument="Duty 3"
				Note Time="192" Value="E2" Duration="2" Instrument="Duty 3"
				Note Time="194" Value="E3" Duration="2" Instrument="Duty 3" FinePitch="1"
				Note Time="196" Value="A2" Duration="2" Instrument="Duty 3"
				Note Time="198" Value="A3" Duration="2" Instrument="Duty 3"
				Note Time="200" Value="C#3" Duration="2" Instrument="Duty 3" FinePitch="0"
				Note Time="202" Value="C#4" Duration="2" Instrument="Duty 3"
				Note Time="204" Value="E3" Duration="2" Instrument="Duty 3" FinePitch="1"
				Note Time="206" Value="E4" Duration="2" Instrument="Duty 3" FinePitch="0"
				Note Time="208" Value="A3" Duration="2" Instrument="Duty 3" FinePitch="1"
				Note Time="210" Value="A4" Duration="2" Instrument="Duty 3"
				Note Time="212" Value="C#4" Duration="2" Instrument="Duty 3" FinePitch="0"
				Note Time="214" Value="C#5" Duration="2" Instrument="Duty 3"
				Note Time="216" Value="E2" Duration="2" Instrument="Duty 3"
				Note Time="218" Value="E3" Duration="2" Instrument="Duty 3" FinePitch="1"
				Note Time="220" Value="A2" Duration="2" Instrument="Duty 3"
				Note Time="222" Value="A3" Duration="2" Instrument="Duty 3"
				Note Time="224" Value="C#3" Duration="2" Instrument="Duty 3" FinePitch="0"
				Note Time="226" Value="C#4" Duration="2" Instrument="Duty 3"
				Note Time="228" Value="E3" Duration="2" Instrument="Duty 3" FinePitch="1"
				Note Time="230" Value="E4" Duration="2" Instrument="Duty 3" FinePitch="0"
				Note Time="232" Value="A3" Duration="2" Instrument="Duty 3" FinePitch="1"
				Note Time="234" Value="A4" Duration="2" Instrument="Duty 3"
				Note Time="236" Value="C#4" Duration="2" Instrument="Duty 3" FinePitch="0"
				Note Time="238" Value="C#5" Duration="2" Instrument="Duty 3"
				Note Time="240" Value="G#2" Duration="2" Instrument="Duty 3"
				Note Time="242" Value="G#3" Duration="2" Instrument="Duty 3" FinePitch="1"
				Note Time="244" Value="C#3" Duration="2" Instrument="Duty 3" FinePitch="0"
				Note Time="246" Value="C#4" Duration="2" Instrument="Duty 3"
				Note Time="248" Value="F3" Duration="2" Instrument="Duty 3" FinePitch="1"
				Note Time="250" Value="F4" Duration="2" Instrument="Duty 3"
				Note Time="252" Value="G#3" Duration="2" Instrument="Duty 3"
				Note Time="254" Value="G#4" Duration="2" Instrument="Duty 3" FinePitch="0"
			Pattern Name="Pattern 22"
				Note Time="0" Value="C#4" Duration="2" Instrument="Duty 3"
				Note Time="2" Value="C#5" Duration="2" Instrument="Duty 3"
				Note Time="4" Value="F4" Duration="2" Instrument="Duty 3" FinePitch="1"
				Note Time="6" Value="F5" Duration="2" Instrument="Duty 3"
				Note Time="8" Value="G#2" Duration="2" Instrument="Duty 3" FinePitch="0"
				Note Time="10" Value="G#3" Duration="2" Instrument="Duty 3" FinePitch="1"
				Note Time="12" Value="C#3" Duration="2" Instrument="Duty 3" FinePitch="0"
				Note Time="14" Value="C#4" Duration="2" Instrument="Duty 3"
				Note Time="16" Value="F3" Duration="2" Instrument="Duty 3" FinePitch="1"
				Note Time="18" Value="F4" Duration="2" Instrument="Duty 3"
				Note Time="20" Value="G#3" Duration="2" Instrument="Duty 3"
				Note Time="22" Value="G#4" Duration="2" Instrument="Duty 3" FinePitch="0"
				Note Time="24" Value="C#4" Duration="2" Instrument="Duty 3"
				Note Time="26" Value="C#5" Duration="2" Instrument="Duty 3"
				Note Time="28" Value="F4" Duration="2" Instrument="Duty 3" FinePitch="1"
				Note Time="30" Value="F5" Duration="2" Instrument="Duty 3"
				Note Time="32" Value="G#2" Duration="2" Instrument="Duty 3" FinePitch="0"
				Note Time="34" Value="G#3" Duration="2" Instrument="Duty 3" FinePitch="1"
				Note Time="36" Value="C#3" Duration="2" Instrument="Duty 3" FinePitch="0"
				Note Time="38" Value="C#4" Duration="2" Instrument="Duty 3"
				Note Time="40" Value="F3" Duration="2" Instrument="Duty 3" FinePitch="1"
				Note Time="42" Value="F4" Duration="2" Instrument="Duty 3"
				Note Time="44" Value="G#3" Duration="2" Instrument="Duty 3"
				Note Time="46" Value="G#4" Duration="2" Instrument="Duty 3" FinePitch="0"
				Note Time="48" Value="C#4" Duration="2" Instrument="Duty 3"
				Note Time="50" Value="C#5" Duration="2" Instrument="Duty 3"
				Note Time="52" Value="F4" Duration="2" Instrument="Duty 3" FinePitch="1"
				Note Time="54" Value="F5" Duration="2" Instrument="Duty 3"
				Note Time="56" Value="G#2" Duration="2" Instrument="Duty 3" FinePitch="0"
				Note Time="58" Value="G#3" Duration="2" Instrument="Duty 3" FinePitch="1"
				Note Time="60" Value="C#3" Duration="2" Instrument="Duty 3" FinePitch="0"
				Note Time="62" Value="C#4" Duration="2" Instrument="Duty 3"
				Note Time="64" Value="F3" Duration="2" Instrument="Duty 3" FinePitch="1"
				Note Time="66" Value="F4" Duration="2" Instrument="Duty 3"
				Note Time="68" Value="G#3" Duration="2" Instrument="Duty 3"
				Note Time="70" Value="G#4" Duration="2" Instrument="Duty 3" FinePitch="0"
				Note Time="72" Value="C#4" Duration="2" Instrument="Duty 3"
				Note Time="74" Value="C#5" Duration="2" Instrument="Duty 3"
				Note Time="76" Value="F4" Duration="2" Instrument="Duty 3" FinePitch="1"
				Note Time="78" Value="F5" Duration="2" Instrument="Duty 3"
				Note Time="80" Value="G#2" Duration="2" Instrument="Duty 3" FinePitch="0"
				Note Time="82" Value="G#3" Duration="2" Instrument="Duty 3" FinePitch="1"
				Note Time="84" Value="C#3" Duration="2" Instrument="Duty 3" FinePitch="0"
				Note Time="86" Value="C#4" Duration="2" Instrument="Duty 3"
				Note Time="88" Value="F3" Duration="2" Instrument="Duty 3" FinePitch="1"
				Note Time="90" Value="F4" Duration="2" Instrument="Duty 3"
				Note Time="92" Value="G#3" Duration="2" Instrument="Duty 3"
				Note Time="94" Value="G#4" Duration="2" Instrument="Duty 3" FinePitch="0"
				Note Time="96" Value="C#4" Duration="2" Instrument="Duty 3"
				Note Time="98" Value="C#5" Duration="2" Instrument="Duty 3"
				Note Time="100" Value="F4" Duration="2" Instrument="Duty 3" FinePitch="1"
				Note Time="102" Value="F5" Duration="2" Instrument="Duty 3"
				Note Time="104" Value="G#2" Duration="2" Instrument="Duty 3" FinePitch="0"
				Note Time="106" Value="G#3" Duration="2" Instrument="Duty 3" FinePitch="1"
				Note Time="108" Value="C#3" Duration="2" Instrument="Duty 3" FinePitch="0"
				Note Time="110" Value="C#4" Duration="2" Instrument="Duty 3"
				Note Time="112" Value="F3" Duration="2" Instrument="Duty 3" FinePitch="1"
				Note Time="114" Value="F4" Duration="2" Instrument="Duty 3"
				Note Time="116" Value="G#3" Duration="2" Instrument="Duty 3"
				Note Time="118" Value="G#4" Duration="2" Instrument="Duty 3" FinePitch="0"
				Note Time="120" Value="C#4" Duration="2" Instrument="Duty 3"
				Note Time="122" Value="C#5" Duration="2" Instrument="Duty 3"
				Note Time="124" Value="F4" Duration="2" Instrument="Duty 3" FinePitch="1"
				Note Time="126" Value="F5" Duration="2" Instrument="Duty 3"
				Note Time="128" Value="F#2" Duration="2" Instrument="Duty 3" FinePitch="0"
				Note Time="130" Value="F#3" Duration="2" Instrument="Duty 3" FinePitch="1"
				Note Time="132" Value="B2" Duration="2" Instrument="Duty 3" FinePitch="0"
				Note Time="134" Value="B3" Duration="2" Instrument="Duty 3" FinePitch="1"
				Note Time="136" Value="D#3" Duration="2" Instrument="Duty 3" FinePitch="0"
				Note Time="138" Value="D#4" Duration="2" Instrument="Duty 3"
				Note Time="140" Value="F#3" Duration="2" Instrument="Duty 3" FinePitch="1"
				Note Time="142" Value="F#4" Duration="2" Instrument="Duty 3"
				Note Time="144" Value="B3" Duration="2" Instrument="Duty 3"
				Note Time="146" Value="B4" Duration="2" Instrument="Duty 3"
				Note Time="148" Value="D#4" Duration="2" Instrument="Duty 3" FinePitch="0"
				Note Time="150" Value="D#5" Duration="2" Instrument="Duty 3"
				Note Time="152" Value="F#2" Duration="2" Instrument="Duty 3"
				Note Time="154" Value="F#3" Duration="2" Instrument="Duty 3" FinePitch="1"
				Note Time="156" Value="B2" Duration="2" Instrument="Duty 3" FinePitch="0"
				Note Time="158" Value="B3" Duration="2" Instrument="Duty 3" FinePitch="1"
				Note Time="160" Value="D#3" Duration="2" Instrument="Duty 3" FinePitch="0"
				Note Time="162" Value="D#4" Duration="2" Instrument="Duty 3"
				Note Time="164" Value="F#3" Duration="2" Instrument="Duty 3" FinePitch="1"
				Note Time="166" Value="F#4" Duration="2" Instrument="Duty 3"
				Note Time="168" Value="B3" Duration="2" Instrument="Duty 3"
				Note Time="170" Value="B4" Duration="2" Instrument="Duty 3"
				Note Time="172" Value="D#4" Duration="2" Instrument="Duty 3" FinePitch="0"
				Note Time="174" Value="D#5" Duration="2" Instrument="Duty 3"
				Note Time="176" Value="F#2" Duration="2" Instrument="Duty 3"
				Note Time="178" Value="F#3" Duration="2" Instrument="Duty 3" FinePitch="1"
				Note Time="180" Value="B2" Duration="2" Instrument="Duty 3" FinePitch="0"
				Note Time="182" Value="B3" Duration="2" Instrument="Duty 3" FinePitch="1"
				Note Time="184" Value="D#3" Duration="2" Instrument="Duty 3" FinePitch="0"
				Note Time="186" Value="D#4" Duration="2" Instrument="Duty 3"
				Note Time="188" Value="F#3" Duration="2" Instrument="Duty 3" FinePitch="1"
				Note Time="190" Value="F#4" Duration="2" Instrument="Duty 3"
				Note Time="192" Value="B3" Duration="2" Instrument="Duty 3"
				Note Time="194" Value="B4" Duration="2" Instrument="Duty 3"
				Note Time="196" Value="D#4" Duration="2" Instrument="Duty 3" FinePitch="0"
				Note Time="198" Value="D#5" Duration="2" Instrument="Duty 3"
				Note Time="200" Value="F#2" Duration="2" Instrument="Duty 3"
				Note Time="202" Value="F#3" Duration="2" Instrument="Duty 3" FinePitch="1"
				Note Time="204" Value="B2" Duration="2" Instrument="Duty 3" FinePitch="0"
				Note Time="206" Value="B3" Duration="2" Instrument="Duty 3" FinePitch="1"
				Note Time="208" Value="D#3" Duration="2" Instrument="Duty 3" FinePitch="0"
				Note Time="210" Value="D#4" Duration="2" Instrument="Duty 3"
				Note Time="212" Value="F#3" Duration="2" Instrument="Duty 3" FinePitch="1"
				Note Time="214" Value="F#4" Duration="2" Instrument="Duty 3"
				Note Time="216" Value="B3" Duration="2" Instrument="Duty 3"
				Note Time="218" Value="B4" Duration="2" Instrument="Duty 3"
				Note Time="220" Value="D#4" Duration="2" Instrument="Duty 3" FinePitch="0"
				Note Time="222" Value="D#5" Duration="2" Instrument="Duty 3"
				Note Time="224" Value="F#2" Duration="2" Instrument="Duty 3"
				Note Time="226" Value="F#3" Duration="2" Instrument="Duty 3" FinePitch="1"
				Note Time="228" Value="B2" Duration="2" Instrument="Duty 3" FinePitch="0"
				Note Time="230" Value="B3" Duration="2" Instrument="Duty 3" FinePitch="1"
				Note Time="232" Value="D#3" Duration="2" Instrument="Duty 3" FinePitch="0"
				Note Time="234" Value="D#4" Duration="2" Instrument="Duty 3"
				Note Time="236" Value="F#3" Duration="2" Instrument="Duty 3" FinePitch="1"
				Note Time="238" Value="F#4" Duration="2" Instrument="Duty 3"
				Note Time="240" Value="B3" Duration="2" Instrument="Duty 3"
				Note Time="242" Value="B4" Duration="2" Instrument="Duty 3"
				Note Time="244" Value="D#4" Duration="2" Instrument="Duty 3" FinePitch="0"
				Note Time="246" Value="D#5" Duration="2" Instrument="Duty 3"
				Note Time="248" Value="F#2" Duration="2" Instrument="Duty 3"
				Note Time="250" Value="F#3" Duration="2" Instrument="Duty 3" FinePitch="1"
				Note Time="252" Value="B2" Duration="2" Instrument="Duty 3" FinePitch="0"
				Note Time="254" Value="B3" Duration="2" Instrument="Duty 3" FinePitch="1"
			Pattern Name="Pattern 23"
				Note Time="0" Value="D#3" Duration="2" Instrument="Duty 3" FinePitch="0"
				Note Time="2" Value="D#4" Duration="2" Instrument="Duty 3"
				Note Time="4" Value="F#3" Duration="2" Instrument="Duty 3" FinePitch="1"
				Note Time="6" Value="F#4" Duration="2" Instrument="Duty 3"
				Note Time="8" Value="B3" Duration="2" Instrument="Duty 3"
				Note Time="10" Value="B4" Duration="2" Instrument="Duty 3"
				Note Time="12" Value="D#4" Duration="2" Instrument="Duty 3" FinePitch="0"
				Note Time="14" Value="D#5" Duration="2" Instrument="Duty 3"
				Note Time="16" Value="E2" Duration="2" Instrument="Duty 3"
				Note Time="18" Value="E3" Duration="2" Instrument="Duty 3" FinePitch="1"
				Note Time="20" Value="A2" Duration="2" Instrument="Duty 3"
				Note Time="22" Value="A3" Duration="2" Instrument="Duty 3"
				Note Time="24" Value="C#3" Duration="2" Instrument="Duty 3" FinePitch="0"
				Note Time="26" Value="C#4" Duration="2" Instrument="Duty 3"
				Note Time="28" Value="E3" Duration="2" Instrument="Duty 3" FinePitch="1"
				Note Time="30" Value="E4" Duration="2" Instrument="Duty 3" FinePitch="0"
				Note Time="32" Value="A3" Duration="2" Instrument="Duty 3" FinePitch="1"
				Note Time="34" Value="A4" Duration="2" Instrument="Duty 3"
				Note Time="36" Value="C#4" Duration="2" Instrument="Duty 3" FinePitch="0"
				Note Time="38" Value="C#5" Duration="2" Instrument="Duty 3"
				Note Time="40" Value="E2" Duration="2" Instrument="Duty 3"
				Note Time="42" Value="E3" Duration="2" Instrument="Duty 3" FinePitch="1"
				Note Time="44" Value="A2" Duration="2" Instrument="Duty 3"
				Note Time="46" Value="A3" Duration="2" Instrument="Duty 3"
				Note Time="48" Value="C#3" Duration="2" Instrument="Duty 3" FinePitch="0"
				Note Time="50" Value="C#4" Duration="2" Instrument="Duty 3"
				Note Time="52" Value="E3" Duration="2" Instrument="Duty 3" FinePitch="1"
				Note Time="54" Value="E4" Duration="2" Instrument="Duty 3" FinePitch="0"
				Note Time="56" Value="A3" Duration="2" Instrument="Duty 3" FinePitch="1"
				Note Time="58" Value="A4" Duration="2" Instrument="Duty 3"
				Note Time="60" Value="C#4" Duration="2" Instrument="Duty 3" FinePitch="0"
				Note Time="62" Value="C#5" Duration="2" Instrument="Duty 3"
				Note Time="64" Value="E2" Duration="2" Instrument="Duty 3"
				Note Time="66" Value="E3" Duration="2" Instrument="Duty 3" FinePitch="1"
				Note Time="68" Value="A2" Duration="2" Instrument="Duty 3"
				Note Time="70" Value="A3" Duration="2" Instrument="Duty 3"
				Note Time="72" Value="C#3" Duration="2" Instrument="Duty 3" FinePitch="0"
				Note Time="74" Value="C#4" Duration="2" Instrument="Duty 3"
				Note Time="76" Value="E3" Duration="2" Instrument="Duty 3" FinePitch="1"
				Note Time="78" Value="E4" Duration="2" Instrument="Duty 3" FinePitch="0"
				Note Time="80" Value="A3" Duration="2" Instrument="Duty 3" FinePitch="1"
				Note Time="82" Value="A4" Duration="2" Instrument="Duty 3"
				Note Time="84" Value="C#4" Duration="2" Instrument="Duty 3" FinePitch="0"
				Note Time="86" Value="C#5" Duration="2" Instrument="Duty 3"
				Note Time="88" Value="E2" Duration="2" Instrument="Duty 3"
				Note Time="90" Value="E3" Duration="2" Instrument="Duty 3" FinePitch="1"
				Note Time="92" Value="A2" Duration="2" Instrument="Duty 3"
				Note Time="94" Value="A3" Duration="2" Instrument="Duty 3"
				Note Time="96" Value="C#3" Duration="2" Instrument="Duty 3" FinePitch="0"
				Note Time="98" Value="C#4" Duration="2" Instrument="Duty 3"
				Note Time="100" Value="E3" Duration="2" Instrument="Duty 3" FinePitch="1"
				Note Time="102" Value="E4" Duration="2" Instrument="Duty 3" FinePitch="0"
				Note Time="104" Value="A3" Duration="2" Instrument="Duty 3" FinePitch="1"
				Note Time="106" Value="A4" Duration="2" Instrument="Duty 3"
				Note Time="108" Value="C#4" Duration="2" Instrument="Duty 3" FinePitch="0"
				Note Time="110" Value="C#5" Duration="2" Instrument="Duty 3"
				Note Time="112" Value="E2" Duration="2" Instrument="Duty 3"
				Note Time="114" Value="E3" Duration="2" Instrument="Duty 3" FinePitch="1"
				Note Time="116" Value="A2" Duration="2" Instrument="Duty 3"
				Note Time="118" Value="A3" Duration="2" Instrument="Duty 3"
				Note Time="120" Value="C#3" Duration="2" Instrument="Duty 3" FinePitch="0"
				Note Time="122" Value="C#4" Duration="2" Instrument="Duty 3"
				Note Time="124" Value="E3" Duration="2" Instrument="Duty 3" FinePitch="1"
				Note Time="126" Value="E4" Duration="2" Instrument="Duty 3" FinePitch="0"
				Note Time="128" Value="A3" Duration="2" Instrument="Duty 3" FinePitch="1"
				Note Time="130" Value="A4" Duration="2" Instrument="Duty 3"
				Note Time="132" Value="C#4" Duration="2" Instrument="Duty 3" FinePitch="0"
				Note Time="134" Value="C#5" Duration="2" Instrument="Duty 3"
				Note Time="136" Value="E2" Duration="2" Instrument="Duty 3"
				Note Time="138" Value="E3" Duration="2" Instrument="Duty 3" FinePitch="1"
				Note Time="140" Value="A2" Duration="2" Instrument="Duty 3"
				Note Time="142" Value="A3" Duration="2" Instrument="Duty 3"
				Note Time="144" Value="C#3" Duration="2" Instrument="Duty 3" FinePitch="0"
				Note Time="146" Value="C#4" Duration="2" Instrument="Duty 3"
				Note Time="148" Value="E3" Duration="2" Instrument="Duty 3" FinePitch="1"
				Note Time="150" Value="E4" Duration="2" Instrument="Duty 3" FinePitch="0"
				Note Time="152" Value="A3" Duration="2" Instrument="Duty 3" FinePitch="1"
				Note Time="154" Value="A4" Duration="2" Instrument="Duty 3"
				Note Time="156" Value="C#4" Duration="2" Instrument="Duty 3" FinePitch="0"
				Note Time="158" Value="C#5" Duration="2" Instrument="Duty 3"
				Note Time="160" Value="D2" Duration="2" Instrument="Duty 3" FinePitch="1"
				Note Time="162" Value="D3" Duration="2" Instrument="Duty 3" FinePitch="0"
				Note Time="164" Value="G2" Duration="2" Instrument="Duty 3" FinePitch="1"
				Note Time="166" Value="G3" Duration="2" Instrument="Duty 3"
				Note Time="168" Value="B2" Duration="2" Instrument="Duty 3"
				Note Time="170" Value="B3" Duration="2" Instrument="Duty 3"
				Note Time="172" Value="D3" Duration="2" Instrument="Duty 3"
				Note Time="174" Value="D4" Duration="2" Instrument="Duty 3"
				Note Time="176" Value="G3" Duration="2" Instrument="Duty 3" FinePitch="2"
				Note Time="178" Value="G4" Duration="2" Instrument="Duty 3" FinePitch="0"
				Note Time="180" Value="B3" Duration="2" Instrument="Duty 3" FinePitch="2"
				Note Time="182" Value="B4" Duration="2" Instrument="Duty 3" FinePitch="1"
				Note Time="184" Value="D2" Duration="2" Instrument="Duty 3"
				Note Time="186" Value="D3" Duration="2" Instrument="Duty 3" FinePitch="0"
				Note Time="188" Value="G2" Duration="2" Instrument="Duty 3" FinePitch="1"
				Note Time="190" Value="G3" Duration="2" Instrument="Duty 3"
				Note Time="192" Value="B2" Duration="2" Instrument="Duty 3"
				Note Time="194" Value="B3" Duration="2" Instrument="Duty 3"
				Note Time="196" Value="D3" Duration="2" Instrument="Duty 3"
				Note Time="198" Value="D4" Duration="2" Instrument="Duty 3"
				Note Time="200" Value="G3" Duration="2" Instrument="Duty 3" FinePitch="2"
				Note Time="202" Value="G4" Duration="2" Instrument="Duty 3" FinePitch="0"
				Note Time="204" Value="B3" Duration="2" Instrument="Duty 3" FinePitch="2"
				Note Time="206" Value="B4" Duration="2" Instrument="Duty 3" FinePitch="1"
				Note Time="208" Value="D2" Duration="2" Instrument="Duty 3"
				Note Time="210" Value="D3" Duration="2" Instrument="Duty 3" FinePitch="0"
				Note Time="212" Value="G2" Duration="2" Instrument="Duty 3" FinePitch="1"
				Note Time="214" Value="G3" Duration="2" Instrument="Duty 3"
				Note Time="216" Value="B2" Duration="2" Instrument="Duty 3"
				Note Time="218" Value="B3" Duration="2" Instrument="Duty 3"
				Note Time="220" Value="D3" Duration="2" Instrument="Duty 3"
				Note Time="222" Value="D4" Duration="2" Instrument="Duty 3"
				Note Time="224" Value="G3" Duration="2" Instrument="Duty 3" FinePitch="2"
				Note Time="226" Value="G4" Duration="2" Instrument="Duty 3" FinePitch="0"
				Note Time="228" Value="B3" Duration="2" Instrument="Duty 3" FinePitch="2"
				Note Time="230" Value="B4" Duration="2" Instrument="Duty 3" FinePitch="1"
				Note Time="232" Value="D2" Duration="2" Instrument="Duty 3"
				Note Time="234" Value="D3" Duration="2" Instrument="Duty 3" FinePitch="0"
				Note Time="236" Value="G2" Duration="2" Instrument="Duty 3" FinePitch="1"
				Note Time="238" Value="G3" Duration="2" Instrument="Duty 3"
				Note Time="240" Value="B2" Duration="2" Instrument="Duty 3"
				Note Time="242" Value="B3" Duration="2" Instrument="Duty 3"
				Note Time="244" Value="D3" Duration="2" Instrument="Duty 3"
				Note Time="246" Value="D4" Duration="2" Instrument="Duty 3"
				Note Time="248" Value="G3" Duration="2" Instrument="Duty 3" FinePitch="2"
				Note Time="250" Value="G4" Duration="2" Instrument="Duty 3" FinePitch="0"
				Note Time="252" Value="B3" Duration="2" Instrument="Duty 3" FinePitch="2"
				Note Time="254" Value="B4" Duration="2" Instrument="Duty 3" FinePitch="1"
			Pattern Name="Pattern 24"
				Note Time="0" Value="D2" Duration="2" Instrument="Duty 3"
				Note Time="2" Value="D3" Duration="2" Instrument="Duty 3" FinePitch="0"
				Note Time="4" Value="G2" Duration="2" Instrument="Duty 3" FinePitch="1"
				Note Time="6" Value="G3" Duration="2" Instrument="Duty 3"
				Note Time="8" Value="B2" Duration="2" Instrument="Duty 3"
				Note Time="10" Value="B3" Duration="2" Instrument="Duty 3"
				Note Time="12" Value="D3" Duration="2" Instrument="Duty 3"
				Note Time="14" Value="D4" Duration="2" Instrument="Duty 3"
				Note Time="16" Value="G3" Duration="2" Instrument="Duty 3" FinePitch="2"
				Note Time="18" Value="G4" Duration="2" Instrument="Duty 3" FinePitch="0"
				Note Time="20" Value="B3" Duration="2" Instrument="Duty 3" FinePitch="2"
				Note Time="22" Value="B4" Duration="2" Instrument="Duty 3" FinePitch="1"
				Note Time="24" Value="D2" Duration="2" Instrument="Duty 3"
				Note Time="26" Value="D3" Duration="2" Instrument="Duty 3" FinePitch="0"
				Note Time="28" Value="G2" Duration="2" Instrument="Duty 3" FinePitch="1"
				Note Time="30" Value="G3" Duration="2" Instrument="Duty 3"
				Note Time="32" Value="B2" Duration="2" Instrument="Duty 3"
				Note Time="34" Value="B3" Duration="2" Instrument="Duty 3"
				Note Time="36" Value="D3" Duration="2" Instrument="Duty 3"
				Note Time="38" Value="D4" Duration="2" Instrument="Duty 3"
				Note Time="40" Value="G3" Duration="2" Instrument="Duty 3" FinePitch="2"
				Note Time="42" Value="G4" Duration="2" Instrument="Duty 3" FinePitch="0"
				Note Time="44" Value="B3" Duration="2" Instrument="Duty 3" FinePitch="2"
				Note Time="46" Value="B4" Duration="2" Instrument="Duty 3" FinePitch="1"
				Note Time="48" Value="C#5" Duration="19" Instrument="Duty 2" Volume="1" FinePitch="0"
				Note Time="49" Volume="2"
				Note Time="59" FinePitch="-1"
				Note Time="60" FinePitch="-2"
				Note Time="61" FinePitch="-3"
				Note Time="62" FinePitch="-2"
				Note Time="63" FinePitch="-1"
				Note Time="64" FinePitch="0"
				Note Time="65" FinePitch="1"
				Note Time="66" FinePitch="2"
				Note Time="67" Value="C5" Duration="1" Instrument="Duty 2" FinePitch="-3"
				Note Time="68" Value="C#5" Duration="11" Instrument="Duty 2" FinePitch="2"
				Note Time="69" FinePitch="1"
				Note Time="70" FinePitch="0"
				Note Time="71" FinePitch="-1"
				Note Time="72" FinePitch="-2"
				Note Time="73" FinePitch="-3"
				Note Time="74" FinePitch="-2"
				Note Time="75" FinePitch="-1"
				Note Time="76" FinePitch="0"
				Note Time="77" FinePitch="1"
				Note Time="78" FinePitch="2"
				Note Time="79" Value="C5" Duration="1" Instrument="Duty 2" FinePitch="-3"
				Note Time="80" Value="C#5" Duration="11" Instrument="Duty 2" FinePitch="2"
				Note Time="81" FinePitch="1"
				Note Time="82" FinePitch="0"
				Note Time="83" FinePitch="-1"
				Note Time="84" FinePitch="-2"
				Note Time="85" FinePitch="-3"
				Note Time="86" FinePitch="-2"
				Note Time="87" FinePitch="-1"
				Note Time="88" FinePitch="0"
				Note Time="89" FinePitch="1"
				Note Time="90" FinePitch="2"
				Note Time="91" Value="C5" Duration="1" Instrument="Duty 2" FinePitch="-3"
				Note Time="92" Value="C#5" Duration="11" Instrument="Duty 2" FinePitch="2"
				Note Time="93" FinePitch="1"
				Note Time="94" FinePitch="0"
				Note Time="95" FinePitch="-1"
				Note Time="96" FinePitch="-2"
				Note Time="97" FinePitch="-3"
				Note Time="98" FinePitch="-2"
				Note Time="99" FinePitch="-1"
				Note Time="100" FinePitch="0"
				Note Time="101" FinePitch="1"
				Note Time="102" FinePitch="2"
				Note Time="103" Value="C5" Duration="1" Instrument="Duty 2" FinePitch="-3"
				Note Time="104" Value="C#5" Duration="11" Instrument="Duty 2" FinePitch="2"
				Note Time="105" FinePitch="1"
				Note Time="106" FinePitch="0"
				Note Time="107" FinePitch="-1"
				Note Time="108" FinePitch="-2"
				Note Time="109" FinePitch="-3"
				Note Time="110" FinePitch="-2"
				Note Time="111" FinePitch="-1"
				Note Time="112" FinePitch="0"
				Note Time="113" FinePitch="1"
				Note Time="114" FinePitch="2"
				Note Time="115" Value="C5" Duration="1" Instrument="Duty 2" FinePitch="-3"
				Note Time="116" Value="C#5" Duration="8" Instrument="Duty 2" FinePitch="2"
				Note Time="117" FinePitch="1"
				Note Time="118" FinePitch="0"
				Note Time="119" Volume="1" FinePitch="-1"
				Note Time="120" FinePitch="0"
				Note Time="121" Volume="2"
				Note Time="124" Value="D#5" Duration="4" Instrument="Duty 2"
				Note Time="128" Value="C#5" Duration="4" Instrument="Duty 2" FinePitch="1"
				Note Time="132" Value="D#5" Duration="4" Instrument="Duty 2" FinePitch="0"
				Note Time="136" Value="C#5" Duration="4" Instrument="Duty 2" FinePitch="1"
				Note Time="140" Value="D#5" Duration="4" Instrument="Duty 2" FinePitch="0"
				Note Time="144" Value="C#5" Duration="4" Instrument="Duty 2" FinePitch="1"
				Note Time="148" Value="D#5" Duration="4" Instrument="Duty 2" FinePitch="0"
				Note Time="152" Value="C#5" Duration="4" Instrument="Duty 2" FinePitch="1"
				Note Time="156" Value="D#5" Duration="4" Instrument="Duty 2" FinePitch="0"
				Note Time="160" Value="C#5" Duration="4" Instrument="Duty 2" FinePitch="1"
				Note Time="164" Value="D#5" Duration="4" Instrument="Duty 2" FinePitch="0"
				Note Time="168" Value="C#5" Duration="4" Instrument="Duty 2" FinePitch="1"
				Note Time="172" Value="D#5" Duration="4" Instrument="Duty 2" FinePitch="0"
				Note Time="176" Value="C#5" Duration="4" Instrument="Duty 2" FinePitch="1"
				Note Time="180" Value="D#5" Duration="4" Instrument="Duty 2" FinePitch="0"
				Note Time="184" Value="C#5" Duration="4" Instrument="Duty 2" FinePitch="1"
				Note Time="188" Value="D#5" Duration="4" Instrument="Duty 2" FinePitch="0"
				Note Time="191" Volume="1"
				Note Time="192" Value="F#4" Duration="6" Instrument="Duty 2" FinePitch="1"
				Note Time="193" Volume="2"
				Note Time="197" Volume="1"
				Note Time="198" Value="G#4" Duration="6" Instrument="Duty 2" FinePitch="0"
				Note Time="199" Volume="2"
				Note Time="203" Volume="1"
				Note Time="204" Value="A#4" Duration="12" Instrument="Duty 2"
				Note Time="205" Volume="2"
				Note Time="215" Volume="1" FinePitch="-1"
				Note Time="216" Value="G#4" Duration="6" Instrument="Duty 2" FinePitch="0"
				Note Time="217" Volume="2"
				Note Time="221" Volume="1"
				Note Time="222" Value="A#4" Duration="6" Instrument="Duty 2"
				Note Time="223" Volume="2"
				Note Time="227" Volume="1"
				Note Time="228" Value="B4" Duration="12" Instrument="Duty 2" FinePitch="1"
				Note Time="229" Volume="2"
				Note Time="239" Volume="1" FinePitch="0"
				Note Time="240" Value="A#4" Duration="6" Instrument="Duty 2"
				Note Time="241" Volume="2"
				Note Time="245" Volume="1"
				Note Time="246" Value="B4" Duration="6" Instrument="Duty 2" FinePitch="1"
				Note Time="247" Volume="2"
				Note Time="251" Volume="1"
				Note Time="252" Value="C#5" Duration="12" Instrument="Duty 2" FinePitch="0"
				Note Time="253" Volume="2"
			Pattern Name="Pattern 25"
				Note Time="7" Volume="1" FinePitch="-1"
				Note Time="8" Value="A#4" Duration="12" Instrument="Duty 2" FinePitch="0"
				Note Time="9" Volume="2"
				Note Time="19" Volume="1" FinePitch="-1"
				Note Time="20" Value="B4" Duration="12" Instrument="Duty 2" FinePitch="1"
				Note Time="21" Volume="2"
				Note Time="31" Volume="1" FinePitch="0"
				Note Time="32" Value="C#5" Duration="9" Instrument="Duty 2"
				Note Time="33" Volume="2"
				Note Time="40" Volume="1"
				Note Time="44" Value="B4" Duration="12" Instrument="Duty 2" FinePitch="1"
				Note Time="45" Volume="2"
				Note Time="55" Volume="1" FinePitch="0"
				Note Time="56" Value="C#5" Duration="12" Instrument="Duty 2"
				Note Time="57" Volume="2"
				Note Time="67" Volume="1" FinePitch="-1"
				Note Time="68" Value="D#5" Duration="9" Instrument="Duty 2" FinePitch="0"
				Note Time="69" Volume="2"
				Note Time="76" Volume="1"
				Note Time="80" Value="C#4" Duration="76" Instrument="Duty 2" FinePitch="1"
				Note Time="81" Volume="2"
				Note Time="91" FinePitch="0"
				Note Time="92" FinePitch="-1"
				Note Time="93" FinePitch="-2"
				Note Time="94" FinePitch="-1"
				Note Time="95" FinePitch="0"
				Note Time="96" FinePitch="1"
				Note Time="97" FinePitch="2"
				Note Time="98" FinePitch="3"
				Note Time="99" FinePitch="4"
				Note Time="100" FinePitch="3"
				Note Time="101" FinePitch="2"
				Note Time="102" FinePitch="1"
				Note Time="103" FinePitch="0"
				Note Time="104" FinePitch="-1"
				Note Time="105" FinePitch="-2"
				Note Time="106" FinePitch="-1"
				Note Time="107" FinePitch="0"
				Note Time="108" FinePitch="1"
				Note Time="109" FinePitch="2"
				Note Time="110" FinePitch="3"
				Note Time="111" FinePitch="4"
				Note Time="112" FinePitch="3"
				Note Time="113" FinePitch="2"
				Note Time="114" FinePitch="1"
				Note Time="115" FinePitch="0"
				Note Time="116" FinePitch="-1"
				Note Time="117" FinePitch="-2"
				Note Time="118" FinePitch="-1"
				Note Time="119" FinePitch="0"
				Note Time="120" FinePitch="1"
				Note Time="121" FinePitch="2"
				Note Time="122" FinePitch="3"
				Note Time="123" FinePitch="4"
				Note Time="124" FinePitch="3"
				Note Time="125" FinePitch="2"
				Note Time="126" FinePitch="1"
				Note Time="127" FinePitch="0"
				Note Time="128" FinePitch="-1"
				Note Time="129" FinePitch="-2"
				Note Time="130" FinePitch="-1"
				Note Time="131" FinePitch="0"
				Note Time="132" FinePitch="1"
				Note Time="133" FinePitch="2"
				Note Time="134" FinePitch="3"
				Note Time="135" FinePitch="4"
				Note Time="136" FinePitch="3"
				Note Time="137" FinePitch="2"
				Note Time="138" FinePitch="1"
				Note Time="139" FinePitch="0"
				Note Time="140" FinePitch="-1"
				Note Time="141" FinePitch="-2"
				Note Time="142" FinePitch="-1"
				Note Time="143" FinePitch="0"
				Note Time="144" FinePitch="1"
				Note Time="145" FinePitch="2"
				Note Time="146" FinePitch="3"
				Note Time="147" FinePitch="4"
				Note Time="148" FinePitch="3"
				Note Time="149" FinePitch="2"
				Note Time="150" FinePitch="1"
				Note Time="151" Volume="1" FinePitch="0"
				Note Time="152" FinePitch="1"
				Note Time="153" Volume="2"
				Note Time="156" Value="D#4" Duration="4" Instrument="Duty 2" FinePitch="0"
				Note Time="160" Value="C#4" Duration="4" Instrument="Duty 2" FinePitch="1"
				Note Time="164" Value="D#4" Duration="4" Instrument="Duty 2" FinePitch="0"
				Note Time="168" Value="C#4" Duration="4" Instrument="Duty 2" FinePitch="1"
				Note Time="172" Value="D#4" Duration="4" Instrument="Duty 2" FinePitch="0"
				Note Time="176" Value="C#4" Duration="4" Instrument="Duty 2" FinePitch="1"
				Note Time="180" Value="D#4" Duration="4" Instrument="Duty 2" FinePitch="0"
				Note Time="184" Value="C#4" Duration="4" Instrument="Duty 2" FinePitch="1"
				Note Time="188" Value="D#4" Duration="4" Instrument="Duty 2" FinePitch="0"
				Note Time="192" Value="C#4" Duration="4" Instrument="Duty 2" FinePitch="1"
				Note Time="196" Value="D#4" Duration="4" Instrument="Duty 2" FinePitch="0"
				Note Time="200" Value="C#4" Duration="4" Instrument="Duty 2" FinePitch="1"
				Note Time="204" Value="D#4" Duration="4" Instrument="Duty 2" FinePitch="0"
				Note Time="208" Value="C#4" Duration="4" Instrument="Duty 2" FinePitch="1"
				Note Time="212" Value="D#4" Duration="4" Instrument="Duty 2" FinePitch="0"
				Note Time="216" Value="C#4" Duration="4" Instrument="Duty 2" FinePitch="1"
				Note Time="220" Value="D#4" Duration="4" Instrument="Duty 2" FinePitch="0"
				Note Time="223" Volume="1"
				Note Time="224" Value="F#3" Duration="6" Instrument="Duty 2" FinePitch="2"
				Note Time="225" Volume="2"
				Note Time="229" Volume="1"
				Note Time="230" Value="G#3" Duration="6" Instrument="Duty 2"
				Note Time="231" Volume="2"
				Note Time="235" Volume="1"
				Note Time="236" Value="A#3" Duration="12" Instrument="Duty 2" FinePitch="1"
				Note Time="237" Volume="2"
				Note Time="247" Volume="1" FinePitch="0"
				Note Time="248" Value="G#3" Duration="6" Instrument="Duty 2" FinePitch="2"
				Note Time="249" Volume="2"
				Note Time="253" Volume="1"
				Note Time="254" Value="A#3" Duration="6" Instrument="Duty 2" FinePitch="1"
				Note Time="255" Volume="2"
			Pattern Name="Pattern 26"
				Note Time="3" Volume="1"
				Note Time="4" Value="B3" Duration="12" Instrument="Duty 2" FinePitch="2"
				Note Time="5" Volume="2"
				Note Time="15" Volume="1" FinePitch="1"
				Note Time="16" Value="A#3" Duration="6" Instrument="Duty 2"
				Note Time="17" Volume="2"
				Note Time="21" Volume="1"
				Note Time="22" Value="B3" Duration="6" Instrument="Duty 2" FinePitch="2"
				Note Time="23" Volume="2"
				Note Time="27" Volume="1"
				Note Time="28" Value="C#4" Duration="12" Instrument="Duty 2" FinePitch="1"
				Note Time="29" Volume="2"
				Note Time="39" Volume="1" FinePitch="0"
				Note Time="40" Value="A#3" Duration="12" Instrument="Duty 2" FinePitch="1"
				Note Time="41" Volume="2"
				Note Time="51" Volume="1" FinePitch="0"
				Note Time="52" Value="B3" Duration="12" Instrument="Duty 2" FinePitch="2"
				Note Time="53" Volume="2"
				Note Time="63" Volume="1" FinePitch="1"
				Note Time="64" Value="C#4" Duration="9" Instrument="Duty 2"
				Note Time="65" Volume="2"
				Note Time="72" Volume="1"
				Note Time="75" FinePitch="0"
				Note Time="76" Value="B3" Duration="12" Instrument="Duty 2" FinePitch="2"
				Note Time="77" Volume="2"
				Note Time="87" Volume="1" FinePitch="1"
				Note Time="88" Value="C#4" Duration="12" Instrument="Duty 2"
				Note Time="89" Volume="2"
				Note Time="99" Volume="1" FinePitch="0"
				Note Time="100" Value="D#4" Duration="9" Instrument="Duty 2" FinePitch="1"
				Note Time="101" Volume="2"
				Note Time="108" Volume="1"
				Note Time="111" FinePitch="0"
				Note Time="112" Value="F#4" Duration="19" Instrument="Duty 0" FinePitch="2"
				Note Time="113" Volume="3"
				Note Time="123" FinePitch="1"
				Note Time="124" FinePitch="0"
				Note Time="125" FinePitch="-1"
				Note Time="126" FinePitch="0"
				Note Time="127" FinePitch="1"
				Note Time="128" FinePitch="2"
				Note Time="129" FinePitch="3"
				Note Time="130" FinePitch="4"
				Note Time="131" Value="F4" Duration="1" Instrument="Duty 0" FinePitch="-4"
				Note Time="132" Value="F#4" Duration="3" Instrument="Duty 0" FinePitch="4"
				Note Time="133" FinePitch="3"
				Note Time="134" Volume="1" FinePitch="2"
				Note Time="136" Value="D#4" Duration="11" Instrument="Duty 0" FinePitch="1"
				Note Time="137" Volume="3"
				Note Time="146" Volume="1"
				Note Time="148" Value="C#4" Duration="23" Instrument="Duty 0"
				Note Time="149" Volume="3"
				Note Time="159" FinePitch="0"
				Note Time="160" FinePitch="-1"
				Note Time="161" FinePitch="-2"
				Note Time="162" FinePitch="-1"
				Note Time="163" FinePitch="0"
				Note Time="164" FinePitch="1"
				Note Time="165" FinePitch="2"
				Note Time="166" FinePitch="3"
				Note Time="167" FinePitch="4"
				Note Time="168" FinePitch="3"
				Note Time="169" FinePitch="2"
				Note Time="170" Volume="1" FinePitch="1"
				Note Time="172" Value="D#4" Duration="11" Instrument="Duty 0"
				Note Time="173" Volume="3"
				Note Time="182" Volume="1"
				Note Time="184" Value="C#4" Duration="12" Instrument="Duty 0"
				Note Time="185" Volume="3"
				Note Time="195" Volume="1" FinePitch="0"
				Note Time="208" Value="B3" Duration="12" Instrument="Duty 0" FinePitch="2"
				Note Time="209" Volume="3"
				Note Time="219" Volume="1" FinePitch="1"
				Note Time="221" FinePitch="0"
				Note Time="232" Value="A#3" Duration="12" Instrument="Duty 0" FinePitch="1"
				Note Time="233" Volume="3"
				Note Time="243" Volume="1" FinePitch="0"
			Pattern Name="Pattern 27"
				Note Time="0" Value="A#4" Duration="19" Instrument="Duty 0" FinePitch="1"
				Note Time="1" Volume="3"
				Note Time="11" FinePitch="0"
				Note Time="12" FinePitch="-1"
				Note Time="13" FinePitch="-2"
				Note Time="14" FinePitch="-1"
				Note Time="15" FinePitch="0"
				Note Time="16" FinePitch="1"
				Note Time="17" FinePitch="2"
				Note Time="18" FinePitch="3"
				Note Time="19" Value="A4" Duration="1" Instrument="Duty 0" FinePitch="-3"
				Note Time="20" Value="A#4" Duration="3" Instrument="Duty 0" FinePitch="3"
				Note Time="21" FinePitch="2"
				Note Time="22" Volume="1" FinePitch="1"
				Note Time="24" Value="G#4" Duration="11" Instrument="Duty 0"
				Note Time="25" Volume="3"
				Note Time="34" Volume="1"
				Note Time="36" Value="F#4" Duration="19" Instrument="Duty 0" FinePitch="2"
				Note Time="37" Volume="3"
				Note Time="47" FinePitch="1"
				Note Time="48" FinePitch="0"
				Note Time="49" FinePitch="-1"
				Note Time="50" FinePitch="0"
				Note Time="51" FinePitch="1"
				Note Time="52" FinePitch="2"
				Note Time="53" FinePitch="3"
				Note Time="54" FinePitch="4"
				Note Time="55" Value="F4" Duration="1" Instrument="Duty 0" FinePitch="-4"
				Note Time="56" Value="F#4" Duration="3" Instrument="Duty 0" FinePitch="4"
				Note Time="57" FinePitch="3"
				Note Time="58" Volume="1" FinePitch="2"
				Note Time="60" Value="C#4" Duration="11" Instrument="Duty 0" FinePitch="1"
				Note Time="61" Volume="3"
				Note Time="70" Volume="1"
				Note Time="72" Value="A#3" Duration="11" Instrument="Duty 0"
				Note Time="73" Volume="3"
				Note Time="82" Volume="1"
				Note Time="84" Value="B3" Duration="8" Instrument="Duty 0" FinePitch="2"
				Note Time="85" Volume="3"
				Note Time="91" Volume="1"
				Note Time="95" FinePitch="0"
				Note Time="96" Value="C#4" Duration="8" Instrument="Duty 0" FinePitch="1"
				Note Time="97" Volume="3"
				Note Time="103" Volume="1"
				Note Time="107" FinePitch="0"
				Note Time="108" Value="E4" Duration="11" Instrument="Duty 0" FinePitch="1"
				Note Time="109" Volume="3"
				Note Time="118" Volume="1"
				Note Time="120" Value="F#4" Duration="8" Instrument="Duty 0" FinePitch="2"
				Note Time="121" Volume="3"
				Note Time="127" Volume="1"
				Note Time="131" FinePitch="0"
				Note Time="132" Value="G#4" Duration="8" Instrument="Duty 0" FinePitch="1"
				Note Time="133" Volume="3"
				Note Time="139" Volume="1"
				Note Time="143" FinePitch="0"
				Note Time="144" Value="F#4" Duration="19" Instrument="Duty 0" FinePitch="2"
				Note Time="145" Volume="3"
				Note Time="155" FinePitch="1"
				Note Time="156" FinePitch="0"
				Note Time="157" FinePitch="-1"
				Note Time="158" FinePitch="0"
				Note Time="159" FinePitch="1"
				Note Time="160" FinePitch="2"
				Note Time="161" FinePitch="3"
				Note Time="162" FinePitch="4"
				Note Time="163" Value="F4" Duration="1" Instrument="Duty 0" FinePitch="-4"
				Note Time="164" Value="F#4" Duration="3" Instrument="Duty 0" FinePitch="4"
				Note Time="165" FinePitch="3"
				Note Time="166" Volume="1" FinePitch="2"
				Note Time="168" Value="D#4" Duration="11" Instrument="Duty 0" FinePitch="1"
				Note Time="169" Volume="3"
				Note Time="178" Volume="1"
				Note Time="180" Value="C#4" Duration="23" Instrument="Duty 0"
				Note Time="181" Volume="3"
				Note Time="191" FinePitch="0"
				Note Time="192" FinePitch="-1"
				Note Time="193" FinePitch="-2"
				Note Time="194" FinePitch="-1"
				Note Time="195" FinePitch="0"
				Note Time="196" FinePitch="1"
				Note Time="197" FinePitch="2"
				Note Time="198" FinePitch="3"
				Note Time="199" FinePitch="4"
				Note Time="200" FinePitch="3"
				Note Time="201" FinePitch="2"
				Note Time="202" Volume="1" FinePitch="1"
				Note Time="204" Value="D#4" Duration="11" Instrument="Duty 0"
				Note Time="205" Volume="3"
				Note Time="214" Volume="1"
				Note Time="216" Value="C#4" Duration="12" Instrument="Duty 0"
				Note Time="217" Volume="3"
				Note Time="227" Volume="1" FinePitch="0"
				Note Time="240" Value="B3" Duration="12" Instrument="Duty 0" FinePitch="2"
				Note Time="241" Volume="3"
				Note Time="251" Volume="1" FinePitch="1"
				Note Time="253" FinePitch="0"
			Pattern Name="Pattern 28"
				Note Time="8" Value="A#3" Duration="12" Instrument="Duty 0" FinePitch="1"
				Note Time="9" Volume="3"
				Note Time="19" Volume="1" FinePitch="0"
				Note Time="32" Value="A#4" Duration="19" Instrument="Duty 0" FinePitch="1"
				Note Time="33" Volume="3"
				Note Time="43" FinePitch="0"
				Note Time="44" FinePitch="-1"
				Note Time="45" FinePitch="-2"
				Note Time="46" FinePitch="-1"
				Note Time="47" FinePitch="0"
				Note Time="48" FinePitch="1"
				Note Time="49" FinePitch="2"
				Note Time="50" FinePitch="3"
				Note Time="51" Value="A4" Duration="1" Instrument="Duty 0" FinePitch="-3"
				Note Time="52" Value="A#4" Duration="3" Instrument="Duty 0" FinePitch="3"
				Note Time="53" FinePitch="2"
				Note Time="54" Volume="1" FinePitch="1"
				Note Time="56" Value="G#4" Duration="11" Instrument="Duty 0"
				Note Time="57" Volume="3"
				Note Time="66" Volume="1"
				Note Time="68" Value="F#4" Duration="19" Instrument="Duty 0" FinePitch="2"
				Note Time="69" Volume="3"
				Note Time="79" FinePitch="1"
				Note Time="80" FinePitch="0"
				Note Time="81" FinePitch="-1"
				Note Time="82" FinePitch="0"
				Note Time="83" FinePitch="1"
				Note Time="84" FinePitch="2"
				Note Time="85" FinePitch="3"
				Note Time="86" FinePitch="4"
				Note Time="87" Value="F4" Duration="1" Instrument="Duty 0" FinePitch="-4"
				Note Time="88" Value="F#4" Duration="3" Instrument="Duty 0" FinePitch="4"
				Note Time="89" FinePitch="3"
				Note Time="90" Volume="1" FinePitch="2"
				Note Time="92" Value="C#4" Duration="11" Instrument="Duty 0" FinePitch="1"
				Note Time="93" Volume="3"
				Note Time="102" Volume="1"
				Note Time="104" Value="A#3" Duration="11" Instrument="Duty 0"
				Note Time="105" Volume="3"
				Note Time="114" Volume="1"
				Note Time="116" Value="B3" Duration="8" Instrument="Duty 0" FinePitch="2"
				Note Time="117" Volume="3"
				Note Time="123" Volume="1"
				Note Time="127" FinePitch="0"
				Note Time="128" Value="C#4" Duration="8" Instrument="Duty 0" FinePitch="1"
				Note Time="129" Volume="3"
				Note Time="135" Volume="1"
				Note Time="139" FinePitch="0"
				Note Time="140" Value="E4" Duration="11" Instrument="Duty 0" FinePitch="1"
				Note Time="141" Volume="3"
				Note Time="150" Volume="1"
				Note Time="152" Value="F#4" Duration="8" Instrument="Duty 0" FinePitch="2"
				Note Time="153" Volume="3"
				Note Time="159" Volume="1"
				Note Time="163" FinePitch="0"
				Note Time="164" Value="G#4" Duration="8" Instrument="Duty 0" FinePitch="1"
				Note Time="165" Volume="3"
				Note Time="171" Volume="1"
				Note Time="175" FinePitch="0"
				Note Time="176" Value="C#5" Duration="18" Instrument="Duty 0" FinePitch="1"
				Note Time="187" FinePitch="0"
				Note Time="188" FinePitch="-1"
				Note Time="189" FinePitch="-2"
				Note Time="190" FinePitch="-1"
				Note Time="191" FinePitch="0"
				Note Time="192" FinePitch="1"
				Note Time="193" FinePitch="2"
				Note Time="194" Value="C5" Duration="3" Instrument="Duty 0" FinePitch="-3"
				Note Time="195" FinePitch="-2"
				Note Time="196" FinePitch="-3"
				Note Time="197" Value="C#5" Duration="9" Instrument="Duty 0" FinePitch="2"
				Note Time="198" FinePitch="1"
				Note Time="199" FinePitch="0"
				Note Time="200" FinePitch="-1"
				Note Time="201" FinePitch="-2"
				Note Time="202" FinePitch="-1"
				Note Time="203" FinePitch="0"
				Note Time="204" FinePitch="1"
				Note Time="205" FinePitch="2"
				Note Time="206" Value="C5" Duration="3" Instrument="Duty 0" FinePitch="-3"
				Note Time="207" FinePitch="-2"
				Note Time="208" FinePitch="-3"
				Note Time="209" Value="C#5" Duration="9" Instrument="Duty 0" FinePitch="2"
				Note Time="210" FinePitch="1"
				Note Time="211" FinePitch="0"
				Note Time="212" Volume="2" FinePitch="-1"
				Note Time="213" FinePitch="-2"
				Note Time="214" FinePitch="-1"
				Note Time="215" FinePitch="0"
				Note Time="216" FinePitch="1"
				Note Time="217" FinePitch="2"
				Note Time="218" Value="C5" Duration="3" Instrument="Duty 0" FinePitch="-3"
				Note Time="219" FinePitch="-2"
				Note Time="220" FinePitch="-3"
				Note Time="221" Value="C#5" Duration="9" Instrument="Duty 0" FinePitch="2"
				Note Time="222" FinePitch="1"
				Note Time="223" FinePitch="0"
				Note Time="224" FinePitch="-1"
				Note Time="225" FinePitch="-2"
				Note Time="226" FinePitch="-1"
				Note Time="227" FinePitch="0"
				Note Time="228" FinePitch="1"
				Note Time="229" FinePitch="2"
				Note Time="230" Value="C5" Duration="3" Instrument="Duty 0" FinePitch="-3"
				Note Time="231" FinePitch="-2"
				Note Time="232" FinePitch="-3"
				Note Time="233" Value="C#5" Duration="9" Instrument="Duty 0" FinePitch="2"
				Note Time="234" FinePitch="1"
				Note Time="235" FinePitch="0"
				Note Time="236" FinePitch="-1"
				Note Time="237" FinePitch="-2"
				Note Time="238" FinePitch="-1"
				Note Time="239" FinePitch="0"
				Note Time="240" FinePitch="1"
				Note Time="241" FinePitch="2"
				Note Time="242" Value="C5" Duration="3" Instrument="Duty 0" FinePitch="-3"
				Note Time="243" FinePitch="-2"
				Note Time="244" FinePitch="-3"
				Note Time="245" Value="C#5" Duration="9" Instrument="Duty 0" FinePitch="2"
				Note Time="246" FinePitch="1"
				Note Time="247" FinePitch="0"
				Note Time="248" Volume="3" FinePitch="-1"
				Note Time="249" FinePitch="-2"
				Note Time="250" FinePitch="-1"
				Note Time="251" FinePitch="0"
				Note Time="252" FinePitch="1"
				Note Time="253" FinePitch="2"
				Note Time="254" Value="C5" Duration="3" Instrument="Duty 0" FinePitch="-3"
				Note Time="255" FinePitch="-2"
			Pattern Name="Pattern 29"
				Note Time="0" FinePitch="-3"
				Note Time="1" Value="C#5" Duration="9" Instrument="Duty 0" FinePitch="2"
				Note Time="2" FinePitch="1"
				Note Time="3" FinePitch="0"
				Note Time="4" FinePitch="-1"
				Note Time="5" FinePitch="-2"
				Note Time="6" FinePitch="-1"
				Note Time="7" FinePitch="0"
				Note Time="8" FinePitch="1"
				Note Time="9" FinePitch="2"
				Note Time="10" Value="C5" Duration="3" Instrument="Duty 0" FinePitch="-3"
				Note Time="11" FinePitch="-2"
				Note Time="12" FinePitch="-3"
				Note Time="13" Value="C#5" Duration="9" Instrument="Duty 0" FinePitch="2"
				Note Time="14" FinePitch="1"
				Note Time="15" FinePitch="0"
				Note Time="16" FinePitch="-1"
				Note Time="17" FinePitch="-2"
				Note Time="18" FinePitch="-1"
				Note Time="19" FinePitch="0"
				Note Time="20" FinePitch="1"
				Note Time="21" FinePitch="2"
				Note Time="22" Value="C5" Duration="3" Instrument="Duty 0" FinePitch="-3"
				Note Time="23" FinePitch="-2"
				Note Time="24" FinePitch="-3"
				Note Time="25" Value="C#5" Duration="9" Instrument="Duty 0" FinePitch="2"
				Note Time="26" FinePitch="1"
				Note Time="27" FinePitch="0"
				Note Time="28" Volume="4" FinePitch="-1"
				Note Time="29" FinePitch="-2"
				Note Time="30" FinePitch="-1"
				Note Time="31" FinePitch="0"
				Note Time="32" FinePitch="1"
				Note Time="33" FinePitch="2"
				Note Time="34" Value="C5" Duration="3" Instrument="Duty 0" FinePitch="-3"
				Note Time="35" FinePitch="-2"
				Note Time="36" FinePitch="-3"
				Note Time="37" Value="C#5" Duration="9" Instrument="Duty 0" FinePitch="2"
				Note Time="38" FinePitch="1"
				Note Time="39" FinePitch="0"
				Note Time="40" FinePitch="-1"
				Note Time="41" FinePitch="-2"
				Note Time="42" FinePitch="-1"
				Note Time="43" FinePitch="0"
				Note Time="44" FinePitch="1"
				Note Time="45" FinePitch="2"
				Note Time="46" Value="C5" Duration="3" Instrument="Duty 0" FinePitch="-3"
				Note Time="47" FinePitch="-2"
				Note Time="48" FinePitch="-3"
				Note Time="49" Value="C#5" Duration="9" Instrument="Duty 0" FinePitch="2"
				Note Time="50" FinePitch="1"
				Note Time="51" FinePitch="0"
				Note Time="52" FinePitch="-1"
				Note Time="53" FinePitch="-2"
				Note Time="54" FinePitch="-1"
				Note Time="55" FinePitch="0"
				Note Time="56" FinePitch="1"
				Note Time="57" FinePitch="2"
				Note Time="58" Value="C5" Duration="3" Instrument="Duty 0" FinePitch="-3"
				Note Time="59" FinePitch="-2"
				Note Time="60" FinePitch="-3"
				Note Time="61" Value="C#5" Duration="3" Instrument="Duty 0" FinePitch="2"
				Note Time="62" Volume="6" FinePitch="1"
				Note Time="63" FinePitch="0"
				Note Time="64" Value="D5" Duration="17" Instrument="Duty 3" Volume="2" FinePitch="2"
				Note Time="65" Volume="4"
				Note Time="75" FinePitch="1"
				Note Time="76" FinePitch="0"
				Note Time="77" FinePitch="-1"
				Note Time="78" FinePitch="0"
				Note Time="79" FinePitch="1"
				Note Time="80" FinePitch="2"
				Note Time="81" Value="C#5" Duration="5" Instrument="Duty 3" FinePitch="-3"
				Note Time="82" FinePitch="-2"
				Note Time="83" FinePitch="-1"
				Note Time="84" FinePitch="-2"
				Note Time="85" FinePitch="-3"
				Note Time="86" Value="D5" Duration="2" Instrument="Duty 3" FinePitch="2"
				Note Time="87" Volume="2" FinePitch="1"
				Note Time="88" Value="E5" Duration="12" Instrument="Duty 3"
				Note Time="89" Volume="4"
				Note Time="99" Volume="2" FinePitch="0"
				Note Time="100" Value="C#5" Duration="18" Instrument="Duty 3" FinePitch="1"
				Note Time="101" Volume="4"
				Note Time="111" FinePitch="0"
				Note Time="112" FinePitch="-1"
				Note Time="113" FinePitch="-2"
				Note Time="114" FinePitch="-1"
				Note Time="115" FinePitch="0"
				Note Time="116" FinePitch="1"
				Note Time="117" FinePitch="2"
				Note Time="118" Value="C5" Duration="3" Instrument="Duty 3" FinePitch="-3"
				Note Time="119" FinePitch="-2"
				Note Time="120" FinePitch="-3"
				Note Time="121" Value="C#5" Duration="3" Instrument="Duty 3" FinePitch="2"
				Note Time="122" FinePitch="1"
				Note Time="123" Volume="2" FinePitch="0"
				Note Time="124" Value="A4" Duration="12" Instrument="Duty 3" FinePitch="2"
				Note Time="125" Volume="4"
				Note Time="135" Volume="2" FinePitch="1"
				Note Time="136" Value="G#4" Duration="19" Instrument="Duty 3"
				Note Time="137" Volume="4"
				Note Time="147" FinePitch="0"
				Note Time="148" FinePitch="-1"
				Note Time="149" FinePitch="-2"
				Note Time="150" FinePitch="-1"
				Note Time="151" FinePitch="0"
				Note Time="152" FinePitch="1"
				Note Time="153" FinePitch="2"
				Note Time="154" FinePitch="3"
				Note Time="155" Value="G4" Duration="1" Instrument="Duty 3" FinePitch="-4"
				Note Time="156" Value="G#4" Duration="4" Instrument="Duty 3" FinePitch="3"
				Note Time="157" FinePitch="2"
				Note Time="158" FinePitch="1"
				Note Time="159" Volume="2" FinePitch="0"
				Note Time="160" Value="E4" Duration="12" Instrument="Duty 3" FinePitch="1"
				Note Time="161" Volume="4"
				Note Time="171" Volume="2" FinePitch="0"
				Note Time="172" Value="F#4" Duration="19" Instrument="Duty 3" FinePitch="2"
				Note Time="173" Volume="4"
				Note Time="183" FinePitch="1"
				Note Time="184" FinePitch="0"
				Note Time="185" FinePitch="-1"
				Note Time="186" FinePitch="0"
				Note Time="187" FinePitch="1"
				Note Time="188" FinePitch="2"
				Note Time="189" FinePitch="3"
				Note Time="190" FinePitch="4"
				Note Time="191" Value="F4" Duration="1" Instrument="Duty 3" FinePitch="-4"
				Note Time="192" Value="F#4" Duration="11" Instrument="Duty 3" FinePitch="4"
				Note Time="193" FinePitch="3"
				Note Time="194" FinePitch="2"
				Note Time="195" FinePitch="1"
				Note Time="196" FinePitch="0"
				Note Time="197" FinePitch="-1"
				Note Time="198" FinePitch="0"
				Note Time="199" FinePitch="1"
				Note Time="200" FinePitch="2"
				Note Time="201" FinePitch="3"
				Note Time="202" FinePitch="4"
				Note Time="203" Value="F4" Duration="1" Instrument="Duty 3" FinePitch="-4"
				Note Time="204" Value="F#4" Duration="4" Instrument="Duty 3" FinePitch="4"
				Note Time="205" FinePitch="3"
				Note Time="206" FinePitch="2"
				Note Time="207" Volume="2" FinePitch="1"
				Note Time="208" Value="A3" Duration="24" Instrument="Duty 3" FinePitch="2"
				Note Time="209" Volume="4"
				Note Time="219" FinePitch="1"
				Note Time="220" FinePitch="0"
				Note Time="221" FinePitch="-1"
				Note Time="222" FinePitch="0"
				Note Time="223" FinePitch="1"
				Note Time="224" FinePitch="2"
				Note Time="225" FinePitch="3"
				Note Time="226" FinePitch="4"
				Note Time="227" FinePitch="5"
				Note Time="228" FinePitch="4"
				Note Time="229" FinePitch="3"
				Note Time="230" FinePitch="2"
				Note Time="231" Volume="2" FinePitch="1"
				Note Time="232" Value="F#3" Duration="8" Instrument="Duty 3" FinePitch="2"
				Note Time="233" Volume="4"
				Note Time="239" Volume="2"
				Note Time="243" FinePitch="0"
				Note Time="244" Value="F#3" Duration="12" Instrument="Duty 3" FinePitch="2"
				Note Time="245" Volume="4"
				Note Time="255" Volume="2" FinePitch="1"
			Pattern Name="Pattern 30"
				Note Time="0" Value="E3" Duration="8" Instrument="Duty 3" FinePitch="2"
				Note Time="1" Volume="4"
				Note Time="7" Volume="2"
				Note Time="11" FinePitch="0"
				Note Time="12" Value="F#3" Duration="8" Instrument="Duty 3" FinePitch="2"
				Note Time="13" Volume="4"
				Note Time="19" Volume="2"
				Note Time="23" FinePitch="0"
				Note Time="24" Value="B3" Duration="12" Instrument="Duty 3" FinePitch="2"
				Note Time="25" Volume="4"
				Note Time="35" Volume="2" FinePitch="1"
				Note Time="36" Value="A3" Duration="12" Instrument="Duty 3" FinePitch="2"
				Note Time="37" Volume="4"
				Note Time="47" Volume="2" FinePitch="1"
				Note Time="48" Value="F#3" Duration="7" Instrument="Duty 3" FinePitch="2"
				Note Time="49" Volume="4"
				Note Time="54" Volume="2"
				Note Time="59" FinePitch="0"
				Note Time="60" Value="E3" Duration="12" Instrument="Duty 3" FinePitch="2"
				Note Time="61" Volume="4"
				Note Time="71" Volume="2" FinePitch="1"
				Note Time="72" Value="F#3" Duration="8" Instrument="Duty 3" FinePitch="2"
				Note Time="73" Volume="4"
				Note Time="79" Volume="2"
				Note Time="83" FinePitch="0"
				Note Time="84" Value="G#3" Duration="8" Instrument="Duty 3" FinePitch="2"
				Note Time="85" Volume="4"
				Note Time="91" Volume="2"
				Note Time="95" FinePitch="0"
				Note Time="96" Value="A3" Duration="8" Instrument="Duty 3" FinePitch="2"
				Note Time="97" Volume="4"
				Note Time="103" Volume="2"
				Note Time="107" FinePitch="0"
				Note Time="108" Value="F#3" Duration="8" Instrument="Duty 3" FinePitch="2"
				Note Time="109" Volume="4"
				Note Time="115" Volume="2"
				Note Time="119" FinePitch="0"
				Note Time="120" Value="E3" Duration="8" Instrument="Duty 3" FinePitch="2"
				Note Time="121" Volume="4"
				Note Time="127" Volume="2"
				Note Time="131" FinePitch="0"
				Note Time="132" Value="F#3" Duration="36" Instrument="Duty 3" FinePitch="2"
				Note Time="133" Volume="4"
				Note Time="143" FinePitch="1"
				Note Time="144" FinePitch="0"
				Note Time="145" FinePitch="-1"
				Note Time="146" FinePitch="0"
				Note Time="147" FinePitch="1"
				Note Time="148" FinePitch="2"
				Note Time="149" FinePitch="3"
				Note Time="150" FinePitch="4"
				Note Time="151" FinePitch="5"
				Note Time="152" FinePitch="4"
				Note Time="153" FinePitch="3"
				Note Time="154" FinePitch="2"
				Note Time="155" FinePitch="1"
				Note Time="156" FinePitch="0"
				Note Time="157" FinePitch="-1"
				Note Time="158" FinePitch="0"
				Note Time="159" FinePitch="1"
				Note Time="160" FinePitch="2"
				Note Time="161" FinePitch="3"
				Note Time="162" FinePitch="4"
				Note Time="163" FinePitch="5"
				Note Time="164" FinePitch="4"
				Note Time="165" FinePitch="3"
				Note Time="166" FinePitch="2"
				Note Time="167" Volume="2" FinePitch="1"
				Note Time="168" Value="D3" Duration="12" Instrument="Duty 3"
				Note Time="169" Volume="4"
				Note Time="179" Volume="2" FinePitch="0"
				Note Time="180" Value="E3" Duration="12" Instrument="Duty 3" FinePitch="2"
				Note Time="181" Volume="4"
				Note Time="191" Volume="2" FinePitch="1"
				Note Time="192" Value="F#3" Duration="12" Instrument="Duty 3" FinePitch="2"
				Note Time="193" Volume="4"
				Note Time="203" Volume="2" FinePitch="1"
				Note Time="204" Value="E3" Duration="12" Instrument="Duty 3" FinePitch="2"
				Note Time="205" Volume="4"
				Note Time="215" Volume="2" FinePitch="1"
				Note Time="216" Value="D3" Duration="12" Instrument="Duty 3"
				Note Time="217" Volume="4"
				Note Time="227" Volume="2" FinePitch="0"
				Note Time="228" Value="C#3" Duration="12" Instrument="Duty 3" FinePitch="1"
				Note Time="229" Volume="4"
				Note Time="239" Volume="2" FinePitch="0"
				Note Time="240" Value="B2" Duration="24" Instrument="Duty 3" FinePitch="1"
				Note Time="241" Volume="4"
				Note Time="251" FinePitch="0"
				Note Time="252" FinePitch="-1"
				Note Time="253" FinePitch="-2"
				Note Time="254" FinePitch="-1"
				Note Time="255" FinePitch="0"
			Pattern Name="Pattern 31"
				Note Time="0" FinePitch="1"
				Note Time="1" FinePitch="2"
				Note Time="2" FinePitch="3"
				Note Time="3" FinePitch="4"
				Note Time="4" FinePitch="3"
				Note Time="5" FinePitch="2"
				Note Time="6" FinePitch="1"
				Note Time="7" Volume="2" FinePitch="0"
				Note Time="8" Value="A2" Duration="7" Instrument="Duty 3" FinePitch="2"
				Note Time="9" Volume="4"
				Note Time="14" Volume="2"
				Note Time="19" FinePitch="0"
				Note Time="20" Value="B2" Duration="24" Instrument="Duty 3" FinePitch="1"
				Note Time="21" Volume="4"
				Note Time="31" FinePitch="0"
				Note Time="32" FinePitch="-1"
				Note Time="33" FinePitch="-2"
				Note Time="34" FinePitch="-1"
				Note Time="35" FinePitch="0"
				Note Time="36" FinePitch="1"
				Note Time="37" FinePitch="2"
				Note Time="38" FinePitch="3"
				Note Time="39" FinePitch="4"
				Note Time="40" FinePitch="3"
				Note Time="41" FinePitch="2"
				Note Time="42" FinePitch="1"
				Note Time="43" Volume="2" FinePitch="0"
				Note Time="44" Value="E3" Duration="7" Instrument="Duty 3" FinePitch="2"
				Note Time="45" Volume="4"
				Note Time="50" Volume="2"
				Note Time="55" FinePitch="0"
				Note Time="56" Value="D3" Duration="12" Instrument="Duty 3" FinePitch="1"
				Note Time="57" Volume="4"
				Note Time="67" Volume="2" FinePitch="0"
				Note Time="68" Value="B2" Duration="7" Instrument="Duty 3" FinePitch="1"
				Note Time="69" Volume="4"
				Note Time="74" Volume="2"
				Note Time="79" FinePitch="0"
				Note Time="80" Value="A2" Duration="7" Instrument="Duty 3" FinePitch="2"
				Note Time="81" Volume="4"
				Note Time="86" Volume="2"
				Note Time="91" FinePitch="0"
				Note Time="92" Value="C#3" Duration="24" Instrument="Duty 3" FinePitch="1"
				Note Time="93" Volume="4"
				Note Time="103" FinePitch="0"
				Note Time="104" FinePitch="-1"
				Note Time="105" FinePitch="-2"
				Note Time="106" FinePitch="-1"
				Note Time="107" FinePitch="0"
				Note Time="108" FinePitch="1"
				Note Time="109" FinePitch="2"
				Note Time="110" FinePitch="3"
				Note Time="111" FinePitch="4"
				Note Time="112" FinePitch="3"
				Note Time="113" FinePitch="2"
				Note Time="114" FinePitch="1"
				Note Time="115" Volume="2" FinePitch="0"
				Note Time="116" Value="D3" Duration="7" Instrument="Duty 3" FinePitch="1"
				Note Time="117" Volume="4"
				Note Time="122" Volume="2"
				Note Time="127" FinePitch="0"
				Note Time="128" Value="B2" Duration="24" Instrument="Duty 3" FinePitch="1"
				Note Time="129" Volume="4"
				Note Time="139" FinePitch="0"
				Note Time="140" FinePitch="-1"
				Note Time="141" FinePitch="-2"
				Note Time="142" FinePitch="-1"
				Note Time="143" FinePitch="0"
				Note Time="144" FinePitch="1"
				Note Time="145" FinePitch="2"
				Note Time="146" FinePitch="3"
				Note Time="147" FinePitch="4"
				Note Time="148" FinePitch="3"
				Note Time="149" FinePitch="2"
				Note Time="150" FinePitch="1"
				Note Time="151" Volume="2" FinePitch="0"
				Note Time="152" Value="A2" Duration="7" Instrument="Duty 3" FinePitch="2"
				Note Time="153" Volume="4"
				Note Time="158" Volume="2"
				Note Time="163" FinePitch="0"
				Note Time="164" Value="B2" Duration="24" Instrument="Duty 3" FinePitch="1"
				Note Time="165" Volume="4"
				Note Time="175" FinePitch="0"
				Note Time="176" FinePitch="-1"
				Note Time="177" FinePitch="-2"
				Note Time="178" FinePitch="-1"
				Note Time="179" FinePitch="0"
				Note Time="180" FinePitch="1"
				Note Time="181" FinePitch="2"
				Note Time="182" FinePitch="3"
				Note Time="183" FinePitch="4"
				Note Time="184" FinePitch="3"
				Note Time="185" FinePitch="2"
				Note Time="186" FinePitch="1"
				Note Time="187" Volume="2" FinePitch="0"
				Note Time="188" Value="E3" Duration="7" Instrument="Duty 3" FinePitch="2"
				Note Time="189" Volume="4"
				Note Time="194" Volume="2"
				Note Time="199" FinePitch="0"
				Note Time="200" Value="D3" Duration="12" Instrument="Duty 3" FinePitch="1"
				Note Time="201" Volume="4"
				Note Time="211" Volume="2" FinePitch="0"
				Note Time="212" Value="B2" Duration="7" Instrument="Duty 3" FinePitch="1"
				Note Time="213" Volume="4"
				Note Time="218" Volume="2"
				Note Time="223" FinePitch="0"
				Note Time="224" Value="A2" Duration="7" Instrument="Duty 3" FinePitch="2"
				Note Time="225" Volume="4"
				Note Time="230" Volume="2"
				Note Time="235" FinePitch="0"
				Note Time="236" Value="F#2" Duration="25" Instrument="Duty 3" FinePitch="1"
				Note Time="237" Volume="4"
				Note Time="247" FinePitch="0"
				Note Time="248" FinePitch="-1"
				Note Time="249" FinePitch="-2"
				Note Time="250" FinePitch="-1"
				Note Time="251" FinePitch="0"
				Note Time="252" FinePitch="1"
				Note Time="253" FinePitch="2"
				Note Time="254" FinePitch="3"
				Note Time="255" FinePitch="4"
			Pattern Name="Pattern 32"
				Note Time="0" FinePitch="3"
				Note Time="1" FinePitch="2"
				Note Time="2" FinePitch="1"
				Note Time="3" FinePitch="0"
				Note Time="4" Volume="2" FinePitch="-1"
				Note Time="6" FinePitch="0"
				Note Time="16" Value="B2" Duration="24" Instrument="Duty 3" FinePitch="1"
				Note Time="17" Volume="4"
				Note Time="27" FinePitch="0"
				Note Time="28" FinePitch="-1"
				Note Time="29" FinePitch="-2"
				Note Time="30" FinePitch="-1"
				Note Time="31" FinePitch="0"
				Note Time="32" FinePitch="1"
				Note Time="33" FinePitch="2"
				Note Time="34" FinePitch="3"
				Note Time="35" FinePitch="4"
				Note Time="36" FinePitch="3"
				Note Time="37" FinePitch="2"
				Note Time="38" FinePitch="1"
				Note Time="39" Volume="2" FinePitch="0"
				Note Time="40" Value="A2" Duration="7" Instrument="Duty 3" FinePitch="2"
				Note Time="41" Volume="4"
				Note Time="46" Volume="2"
				Note Time="51" FinePitch="0"
				Note Time="52" Value="B2" Duration="24" Instrument="Duty 3" FinePitch="1"
				Note Time="53" Volume="4"
				Note Time="63" FinePitch="0"
				Note Time="64" FinePitch="-1"
				Note Time="65" FinePitch="-2"
				Note Time="66" FinePitch="-1"
				Note Time="67" FinePitch="0"
				Note Time="68" FinePitch="1"
				Note Time="69" FinePitch="2"
				Note Time="70" FinePitch="3"
				Note Time="71" FinePitch="4"
				Note Time="72" FinePitch="3"
				Note Time="73" FinePitch="2"
				Note Time="74" FinePitch="1"
				Note Time="75" Volume="2" FinePitch="0"
				Note Time="76" Value="E3" Duration="7" Instrument="Duty 3" FinePitch="2"
				Note Time="77" Volume="4"
				Note Time="82" Volume="2"
				Note Time="87" FinePitch="0"
				Note Time="88" Value="D3" Duration="12" Instrument="Duty 3" FinePitch="1"
				Note Time="89" Volume="4"
				Note Time="99" Volume="2" FinePitch="0"
				Note Time="100" Value="B2" Duration="7" Instrument="Duty 3" FinePitch="1"
				Note Time="101" Volume="4"
				Note Time="106" Volume="2"
				Note Time="111" FinePitch="0"
				Note Time="112" Value="A2" Duration="7" Instrument="Duty 3" FinePitch="2"
				Note Time="113" Volume="4"
				Note Time="118" Volume="2"
				Note Time="123" FinePitch="0"
				Note Time="124" Value="C#3" Duration="24" Instrument="Duty 3" FinePitch="1"
				Note Time="125" Volume="4"
				Note Time="135" FinePitch="0"
				Note Time="136" FinePitch="-1"
				Note Time="137" FinePitch="-2"
				Note Time="138" FinePitch="-1"
				Note Time="139" FinePitch="0"
				Note Time="140" FinePitch="1"
				Note Time="141" FinePitch="2"
				Note Time="142" FinePitch="3"
				Note Time="143" FinePitch="4"
				Note Time="144" FinePitch="3"
				Note Time="145" FinePitch="2"
				Note Time="146" FinePitch="1"
				Note Time="147" Volume="2" FinePitch="0"
				Note Time="148" Value="D3" Duration="7" Instrument="Duty 3" FinePitch="1"
				Note Time="149" Volume="4"
				Note Time="154" Volume="2"
				Note Time="159" FinePitch="0"
				Note Time="160" Value="B2" Duration="24" Instrument="Duty 3" FinePitch="1"
				Note Time="161" Volume="4"
				Note Time="171" FinePitch="0"
				Note Time="172" FinePitch="-1"
				Note Time="173" FinePitch="-2"
				Note Time="174" FinePitch="-1"
				Note Time="175" FinePitch="0"
				Note Time="176" FinePitch="1"
				Note Time="177" FinePitch="2"
				Note Time="178" FinePitch="3"
				Note Time="179" FinePitch="4"
				Note Time="180" FinePitch="3"
				Note Time="181" FinePitch="2"
				Note Time="182" FinePitch="1"
				Note Time="183" Volume="2" FinePitch="0"
				Note Time="184" Value="A2" Duration="7" Instrument="Duty 3" FinePitch="2"
				Note Time="185" Volume="4"
				Note Time="190" Volume="2"
				Note Time="195" FinePitch="0"
				Note Time="196" Value="B2" Duration="24" Instrument="Duty 3" FinePitch="1"
				Note Time="197" Volume="4"
				Note Time="207" FinePitch="0"
				Note Time="208" FinePitch="-1"
				Note Time="209" FinePitch="-2"
				Note Time="210" FinePitch="-1"
				Note Time="211" FinePitch="0"
				Note Time="212" FinePitch="1"
				Note Time="213" FinePitch="2"
				Note Time="214" FinePitch="3"
				Note Time="215" FinePitch="4"
				Note Time="216" FinePitch="3"
				Note Time="217" FinePitch="2"
				Note Time="218" FinePitch="1"
				Note Time="219" Volume="2" FinePitch="0"
				Note Time="220" Value="E3" Duration="7" Instrument="Duty 3" FinePitch="2"
				Note Time="221" Volume="4"
				Note Time="226" Volume="2"
				Note Time="231" FinePitch="0"
				Note Time="232" Value="D3" Duration="12" Instrument="Duty 3" FinePitch="1"
				Note Time="233" Volume="4"
				Note Time="243" Volume="2" FinePitch="0"
				Note Time="244" Value="B2" Duration="7" Instrument="Duty 3" FinePitch="1"
				Note Time="245" Volume="4"
				Note Time="250" Volume="2"
				Note Time="255" FinePitch="0"
			Pattern Name="Pattern 33"
				Note Time="0" Value="A2" Duration="7" Instrument="Duty 3" FinePitch="2"
				Note Time="1" Volume="4"
				Note Time="6" Volume="2"
				Note Time="11" FinePitch="0"
				Note Time="12" Value="F#2" Duration="25" Instrument="Duty 3" FinePitch="1"
				Note Time="13" Volume="4"
				Note Time="23" FinePitch="0"
				Note Time="24" FinePitch="-1"
				Note Time="25" FinePitch="-2"
				Note Time="26" FinePitch="-1"
				Note Time="27" FinePitch="0"
				Note Time="28" FinePitch="1"
				Note Time="29" FinePitch="2"
				Note Time="30" FinePitch="3"
				Note Time="31" FinePitch="4"
				Note Time="32" FinePitch="3"
				Note Time="33" FinePitch="2"
				Note Time="34" FinePitch="1"
				Note Time="35" FinePitch="0"
				Note Time="36" Volume="2" FinePitch="-1"
				Note Time="38" FinePitch="0"
				Note Time="48" Value="C#4" Duration="1" Instrument="Duty 3" FinePitch="1"
				Note Time="49" Value="G#4" Duration="1" Instrument="Duty 3" Volume="4" FinePitch="0"
				Note Time="50" Value="C#4" Duration="11" Instrument="Duty 3" FinePitch="1"
				Note Time="61" Value="G#4" Duration="1" Instrument="Duty 3" FinePitch="0"
				Note Time="62" Value="C#4" Duration="10" Instrument="Duty 3" FinePitch="1"
				Note Time="71" Volume="2"
				Note Time="72" Value="B3" Duration="1" Instrument="Duty 3" FinePitch="2"
				Note Time="73" Value="F#4" Duration="1" Instrument="Duty 3" Volume="4" FinePitch="1"
				Note Time="74" Value="B3" Duration="5" Instrument="Duty 3" FinePitch="2"
				Note Time="78" Volume="2"
				Note Time="84" Value="C#4" Duration="1" Instrument="Duty 3" FinePitch="1"
				Note Time="85" Value="G#4" Duration="1" Instrument="Duty 3" Volume="4" FinePitch="0"
				Note Time="86" Value="C#4" Duration="11" Instrument="Duty 3" FinePitch="1"
				Note Time="97" Value="G#4" Duration="1" Instrument="Duty 3" FinePitch="0"
				Note Time="98" Value="C#4" Duration="10" Instrument="Duty 3" FinePitch="1"
				Note Time="107" Volume="2"
				Note Time="108" Value="F#4" Duration="1" Instrument="Duty 3" FinePitch="2"
				Note Time="109" Value="C#5" Duration="1" Instrument="Duty 3" Volume="4" FinePitch="0"
				Note Time="110" Value="F#4" Duration="5" Instrument="Duty 3" FinePitch="2"
				Note Time="114" Volume="2"
				Note Time="120" Value="E4" Duration="1" Instrument="Duty 3" FinePitch="1"
				Note Time="121" Value="B4" Duration="1" Instrument="Duty 3" Volume="4"
				Note Time="122" Value="E4" Duration="10" Instrument="Duty 3"
				Note Time="131" Volume="2"
				Note Time="132" Value="C#4" Duration="1" Instrument="Duty 3"
				Note Time="133" Value="G#4" Duration="1" Instrument="Duty 3" Volume="4" FinePitch="0"
				Note Time="134" Value="C#4" Duration="5" Instrument="Duty 3" FinePitch="1"
				Note Time="138" Volume="2"
				Note Time="144" Value="B3" Duration="1" Instrument="Duty 3" FinePitch="2"
				Note Time="145" Value="F#4" Duration="1" Instrument="Duty 3" Volume="4" FinePitch="1"
				Note Time="146" Value="B3" Duration="5" Instrument="Duty 3" FinePitch="2"
				Note Time="150" Volume="2"
				Note Time="156" Value="D#4" Duration="1" Instrument="Duty 3" FinePitch="1"
				Note Time="157" Value="A#4" Duration="1" Instrument="Duty 3" Volume="4" FinePitch="0"
				Note Time="158" Value="D#4" Duration="11" Instrument="Duty 3" FinePitch="1"
				Note Time="169" Value="A#4" Duration="1" Instrument="Duty 3" FinePitch="0"
				Note Time="170" Value="D#4" Duration="10" Instrument="Duty 3" FinePitch="1"
				Note Time="179" Volume="2"
				Note Time="180" Value="E4" Duration="1" Instrument="Duty 3"
				Note Time="181" Value="B4" Duration="1" Instrument="Duty 3" Volume="4"
				Note Time="182" Value="E4" Duration="5" Instrument="Duty 3"
				Note Time="186" Volume="2"
				Note Time="192" Value="C#4" Duration="1" Instrument="Duty 3"
				Note Time="193" Value="G#4" Duration="1" Instrument="Duty 3" Volume="4" FinePitch="0"
				Note Time="194" Value="C#4" Duration="11" Instrument="Duty 3" FinePitch="1"
				Note Time="205" Value="G#4" Duration="1" Instrument="Duty 3" FinePitch="0"
				Note Time="206" Value="C#4" Duration="10" Instrument="Duty 3" FinePitch="1"
				Note Time="215" Volume="2"
				Note Time="216" Value="B3" Duration="1" Instrument="Duty 3" FinePitch="2"
				Note Time="217" Value="F#4" Duration="1" Instrument="Duty 3" Volume="4" FinePitch="1"
				Note Time="218" Value="B3" Duration="5" Instrument="Duty 3" FinePitch="2"
				Note Time="222" Volume="2"
				Note Time="228" Value="C#4" Duration="1" Instrument="Duty 3" FinePitch="1"
				Note Time="229" Value="G#4" Duration="1" Instrument="Duty 3" Volume="4" FinePitch="0"
				Note Time="230" Value="C#4" Duration="11" Instrument="Duty 3" FinePitch="1"
				Note Time="241" Value="G#4" Duration="1" Instrument="Duty 3" FinePitch="0"
				Note Time="242" Value="C#4" Duration="10" Instrument="Duty 3" FinePitch="1"
				Note Time="251" Volume="2"
				Note Time="252" Value="F#4" Duration="1" Instrument="Duty 3" FinePitch="2"
				Note Time="253" Value="C#5" Duration="1" Instrument="Duty 3" Volume="4" FinePitch="0"
				Note Time="254" Value="F#4" Duration="5" Instrument="Duty 3" FinePitch="2"
			Pattern Name="Pattern 34"
				Note Time="2" Volume="2"
				Note Time="8" Value="E4" Duration="1" Instrument="Duty 3" FinePitch="1"
				Note Time="9" Value="B4" Duration="1" Instrument="Duty 3" Volume="4"
				Note Time="10" Value="E4" Duration="10" Instrument="Duty 3"
				Note Time="19" Volume="2"
				Note Time="20" Value="C#4" Duration="1" Instrument="Duty 3"
				Note Time="21" Value="G#4" Duration="1" Instrument="Duty 3" Volume="4" FinePitch="0"
				Note Time="22" Value="C#4" Duration="5" Instrument="Duty 3" FinePitch="1"
				Note Time="26" Volume="2"
				Note Time="32" Value="B3" Duration="1" Instrument="Duty 3" FinePitch="2"
				Note Time="33" Value="F#4" Duration="1" Instrument="Duty 3" Volume="4" FinePitch="1"
				Note Time="34" Value="B3" Duration="5" Instrument="Duty 3" FinePitch="2"
				Note Time="38" Volume="2"
				Note Time="44" Value="G#3" Duration="1" Instrument="Duty 3"
				Note Time="45" Value="D#4" Duration="1" Instrument="Duty 3" Volume="4" FinePitch="0"
				Note Time="46" Value="G#3" Duration="11" Instrument="Duty 3" FinePitch="2"
				Note Time="57" Value="D#4" Duration="1" Instrument="Duty 3" FinePitch="0"
				Note Time="58" Value="G#3" Duration="11" Instrument="Duty 3" FinePitch="2"
				Note Time="68" Volume="2"
				Note Time="70" FinePitch="0"
				Note Time="80" Value="C#3" Duration="1" Instrument="Duty 3" FinePitch="1"
				Note Time="81" Value="G#3" Duration="1" Instrument="Duty 3" Volume="4"
				Note Time="82" Value="C#3" Duration="11" Instrument="Duty 3"
				Note Time="93" Value="G#3" Duration="1" Instrument="Duty 3"
				Note Time="94" Value="C#3" Duration="10" Instrument="Duty 3"
				Note Time="103" Volume="2"
				Note Time="104" Value="B2" Duration="1" Instrument="Duty 3"
				Note Time="105" Value="F#3" Duration="1" Instrument="Duty 3" Volume="4"
				Note Time="106" Value="B2" Duration="5" Instrument="Duty 3"
				Note Time="110" Volume="2"
				Note Time="116" Value="C#3" Duration="1" Instrument="Duty 3"
				Note Time="117" Value="G#3" Duration="1" Instrument="Duty 3" Volume="4"
				Note Time="118" Value="C#3" Duration="11" Instrument="Duty 3"
				Note Time="129" Value="G#3" Duration="1" Instrument="Duty 3"
				Note Time="130" Value="C#3" Duration="10" Instrument="Duty 3"
				Note Time="139" Volume="2"
				Note Time="140" Value="F#3" Duration="1" Instrument="Duty 3" FinePitch="2"
				Note Time="141" Value="C#4" Duration="1" Instrument="Duty 3" Volume="4" FinePitch="0"
				Note Time="142" Value="F#3" Duration="5" Instrument="Duty 3" FinePitch="2"
				Note Time="146" Volume="2"
				Note Time="152" Value="E3" Duration="1" Instrument="Duty 3"
				Note Time="153" Value="B3" Duration="1" Instrument="Duty 3" Volume="4" FinePitch="1"
				Note Time="154" Value="E3" Duration="10" Instrument="Duty 3" FinePitch="2"
				Note Time="163" Volume="2"
				Note Time="164" Value="C#3" Duration="1" Instrument="Duty 3" FinePitch="1"
				Note Time="165" Value="G#3" Duration="1" Instrument="Duty 3" Volume="4"
				Note Time="166" Value="C#3" Duration="5" Instrument="Duty 3"
				Note Time="170" Volume="2"
				Note Time="176" Value="B2" Duration="1" Instrument="Duty 3"
				Note Time="177" Value="F#3" Duration="1" Instrument="Duty 3" Volume="4"
				Note Time="178" Value="B2" Duration="5" Instrument="Duty 3"
				Note Time="182" Volume="2"
				Note Time="188" Value="D#3" Duration="1" Instrument="Duty 3"
				Note Time="189" Value="A#3" Duration="1" Instrument="Duty 3" Volume="4" FinePitch="0"
				Note Time="190" Value="D#3" Duration="11" Instrument="Duty 3" FinePitch="1"
				Note Time="201" Value="A#3" Duration="1" Instrument="Duty 3" FinePitch="0"
				Note Time="202" Value="D#3" Duration="10" Instrument="Duty 3" FinePitch="1"
				Note Time="211" Volume="2"
				Note Time="212" Value="E3" Duration="1" Instrument="Duty 3" FinePitch="2"
				Note Time="213" Value="B3" Duration="1" Instrument="Duty 3" Volume="4" FinePitch="1"
				Note Time="214" Value="E3" Duration="5" Instrument="Duty 3" FinePitch="2"
				Note Time="218" Volume="2"
				Note Time="224" Value="C#3" Duration="1" Instrument="Duty 3" FinePitch="1"
				Note Time="225" Value="G#3" Duration="1" Instrument="Duty 3" Volume="4"
				Note Time="226" Value="C#3" Duration="11" Instrument="Duty 3"
				Note Time="237" Value="G#3" Duration="1" Instrument="Duty 3"
				Note Time="238" Value="C#3" Duration="10" Instrument="Duty 3"
				Note Time="247" Volume="2"
				Note Time="248" Value="B2" Duration="1" Instrument="Duty 3"
				Note Time="249" Value="F#3" Duration="1" Instrument="Duty 3" Volume="4"
				Note Time="250" Value="B2" Duration="5" Instrument="Duty 3"
				Note Time="254" Volume="2"
			Pattern Name="Pattern 35"
				Note Time="4" Value="C#3" Duration="1" Instrument="Duty 3"
				Note Time="5" Value="G#3" Duration="1" Instrument="Duty 3" Volume="4"
				Note Time="6" Value="C#3" Duration="11" Instrument="Duty 3"
				Note Time="17" Value="G#3" Duration="1" Instrument="Duty 3"
				Note Time="18" Value="C#3" Duration="10" Instrument="Duty 3"
				Note Time="27" Volume="2"
				Note Time="28" Value="F#3" Duration="1" Instrument="Duty 3" FinePitch="2"
				Note Time="29" Value="C#4" Duration="1" Instrument="Duty 3" Volume="4" FinePitch="0"
				Note Time="30" Value="F#3" Duration="5" Instrument="Duty 3" FinePitch="2"
				Note Time="34" Volume="2"
				Note Time="40" Value="E3" Duration="1" Instrument="Duty 3"
				Note Time="41" Value="B3" Duration="1" Instrument="Duty 3" Volume="4" FinePitch="1"
				Note Time="42" Value="E3" Duration="10" Instrument="Duty 3" FinePitch="2"
				Note Time="51" Volume="2"
				Note Time="52" Value="C#3" Duration="1" Instrument="Duty 3" FinePitch="1"
				Note Time="53" Value="G#3" Duration="1" Instrument="Duty 3" Volume="4"
				Note Time="54" Value="C#3" Duration="5" Instrument="Duty 3"
				Note Time="58" Volume="2"
				Note Time="64" Value="B2" Duration="1" Instrument="Duty 3"
				Note Time="65" Value="F#3" Duration="1" Instrument="Duty 3" Volume="4"
				Note Time="66" Value="B2" Duration="5" Instrument="Duty 3"
				Note Time="70" Volume="2"
				Note Time="76" Value="G#2" Duration="1" Instrument="Duty 3"
				Note Time="77" Value="D#3" Duration="1" Instrument="Duty 3" Volume="4" FinePitch="0"
				Note Time="78" Value="G#2" Duration="11" Instrument="Duty 3" FinePitch="1"
				Note Time="89" Value="D#3" Duration="1" Instrument="Duty 3" FinePitch="0"
				Note Time="90" Value="G#2" Duration="11" Instrument="Duty 3" FinePitch="1"
				Note Time="100" Volume="2"
				Note Time="102" FinePitch="0"
				Note Time="112" Value="F#3" Duration="1" Instrument="Duty 3" Volume="1" FinePitch="2"
				Note Time="113" Value="C#4" Duration="1" Instrument="Duty 3" Volume="3" FinePitch="0"
				Note Time="114" Value="F#3" Duration="11" Instrument="Duty 3" FinePitch="2"
				Note Time="125" Value="C#4" Duration="1" Instrument="Duty 3" FinePitch="0"
				Note Time="126" Value="F#3" Duration="9" Instrument="Duty 3" FinePitch="2"
				Note Time="134" Volume="1"
				Note Time="136" Value="E3" Duration="1" Instrument="Duty 3"
				Note Time="137" Value="B3" Duration="1" Instrument="Duty 3" Volume="3" FinePitch="1"
				Note Time="138" Value="E3" Duration="4" Instrument="Duty 3" FinePitch="2"
				Note Time="141" Volume="1"
				Note Time="148" Value="F#3" Duration="1" Instrument="Duty 3"
				Note Time="149" Value="C#4" Duration="1" Instrument="Duty 3" Volume="3" FinePitch="0"
				Note Time="150" Value="F#3" Duration="11" Instrument="Duty 3" FinePitch="2"
				Note Time="161" Value="C#4" Duration="1" Instrument="Duty 3" FinePitch="0"
				Note Time="162" Value="F#3" Duration="9" Instrument="Duty 3" FinePitch="2"
				Note Time="170" Volume="1"
				Note Time="172" Value="B3" Duration="1" Instrument="Duty 3"
				Note Time="173" Value="F#4" Duration="1" Instrument="Duty 3" Volume="3" FinePitch="1"
				Note Time="174" Value="B3" Duration="4" Instrument="Duty 3" FinePitch="2"
				Note Time="177" Volume="1"
				Note Time="184" Value="A3" Duration="1" Instrument="Duty 3"
				Note Time="185" Value="E4" Duration="1" Instrument="Duty 3" Volume="3" FinePitch="0"
				Note Time="186" Value="A3" Duration="9" Instrument="Duty 3" FinePitch="2"
				Note Time="194" Volume="1"
				Note Time="196" Value="F#3" Duration="1" Instrument="Duty 3"
				Note Time="197" Value="C#4" Duration="1" Instrument="Duty 3" Volume="3" FinePitch="0"
				Note Time="198" Value="F#3" Duration="4" Instrument="Duty 3" FinePitch="2"
				Note Time="201" Volume="1"
				Note Time="208" Value="E3" Duration="1" Instrument="Duty 3"
				Note Time="209" Value="B3" Duration="1" Instrument="Duty 3" Volume="3" FinePitch="1"
				Note Time="210" Value="E3" Duration="4" Instrument="Duty 3" FinePitch="2"
				Note Time="213" Volume="1"
				Note Time="220" Value="G#3" Duration="1" Instrument="Duty 3"
				Note Time="221" Value="D#4" Duration="1" Instrument="Duty 3" Volume="3" FinePitch="0"
				Note Time="222" Value="G#3" Duration="11" Instrument="Duty 3" FinePitch="2"
				Note Time="233" Value="D#4" Duration="1" Instrument="Duty 3" FinePitch="0"
				Note Time="234" Value="G#3" Duration="9" Instrument="Duty 3" FinePitch="2"
				Note Time="242" Volume="1"
				Note Time="244" Value="A3" Duration="1" Instrument="Duty 3"
				Note Time="245" Value="E4" Duration="1" Instrument="Duty 3" Volume="3" FinePitch="0"
				Note Time="246" Value="A3" Duration="4" Instrument="Duty 3" FinePitch="2"
				Note Time="249" Volume="1"
			Pattern Name="Pattern 36"
				Note Time="0" Value="F#3" Duration="1" Instrument="Duty 3"
				Note Time="1" Value="C#4" Duration="1" Instrument="Duty 3" Volume="3" FinePitch="0"
				Note Time="2" Value="F#3" Duration="11" Instrument="Duty 3" FinePitch="2"
				Note Time="13" Value="C#4" Duration="1" Instrument="Duty 3" FinePitch="0"
				Note Time="14" Value="F#3" Duration="9" Instrument="Duty 3" FinePitch="2"
				Note Time="22" Volume="1"
				Note Time="24" Value="E3" Duration="1" Instrument="Duty 3"
				Note Time="25" Value="B3" Duration="1" Instrument="Duty 3" Volume="3" FinePitch="1"
				Note Time="26" Value="E3" Duration="4" Instrument="Duty 3" FinePitch="2"
				Note Time="29" Volume="1"
				Note Time="36" Value="F#3" Duration="1" Instrument="Duty 3"
				Note Time="37" Value="C#4" Duration="1" Instrument="Duty 3" Volume="3" FinePitch="0"
				Note Time="38" Value="F#3" Duration="11" Instrument="Duty 3" FinePitch="2"
				Note Time="49" Value="C#4" Duration="1" Instrument="Duty 3" FinePitch="0"
				Note Time="50" Value="F#3" Duration="9" Instrument="Duty 3" FinePitch="2"
				Note Time="58" Volume="1"
				Note Time="60" Value="B3" Duration="1" Instrument="Duty 3"
				Note Time="61" Value="F#4" Duration="1" Instrument="Duty 3" Volume="3" FinePitch="1"
				Note Time="62" Value="B3" Duration="4" Instrument="Duty 3" FinePitch="2"
				Note Time="65" Volume="1"
				Note Time="72" Value="A3" Duration="1" Instrument="Duty 3"
				Note Time="73" Value="E4" Duration="1" Instrument="Duty 3" Volume="3" FinePitch="0"
				Note Time="74" Value="A3" Duration="9" Instrument="Duty 3" FinePitch="2"
				Note Time="82" Volume="1"
				Note Time="84" Value="F#3" Duration="1" Instrument="Duty 3"
				Note Time="85" Value="C#4" Duration="1" Instrument="Duty 3" Volume="3" FinePitch="0"
				Note Time="86" Value="F#3" Duration="4" Instrument="Duty 3" FinePitch="2"
				Note Time="89" Volume="1"
				Note Time="96" Value="E3" Duration="1" Instrument="Duty 3"
				Note Time="97" Value="B3" Duration="1" Instrument="Duty 3" Volume="3" FinePitch="1"
				Note Time="98" Value="E3" Duration="4" Instrument="Duty 3" FinePitch="2"
				Note Time="101" Volume="1"
				Note Time="108" Value="C#3" Duration="1" Instrument="Duty 3" FinePitch="1"
				Note Time="109" Value="G#3" Duration="1" Instrument="Duty 3" Volume="3"
				Note Time="110" Value="C#3" Duration="11" Instrument="Duty 3"
				Note Time="121" Value="G#3" Duration="1" Instrument="Duty 3"
				Note Time="122" Value="C#3" Duration="10" Instrument="Duty 3"
				Note Time="131" Volume="1"
				Note Time="133" FinePitch="0"
				Note Time="144" Value="F#2" Duration="1" Instrument="Duty 3" FinePitch="1"
				Note Time="145" Value="C#3" Duration="1" Instrument="Duty 3" Volume="3" FinePitch="0"
				Note Time="146" Value="F#2" Duration="11" Instrument="Duty 3" FinePitch="1"
				Note Time="157" Value="C#3" Duration="1" Instrument="Duty 3" FinePitch="0"
				Note Time="158" Value="F#2" Duration="9" Instrument="Duty 3" FinePitch="1"
				Note Time="166" Volume="1"
				Note Time="168" Value="E2" Duration="1" Instrument="Duty 3"
				Note Time="169" Value="B2" Duration="1" Instrument="Duty 3" Volume="3" FinePitch="0"
				Note Time="170" Value="E2" Duration="4" Instrument="Duty 3" FinePitch="1"
				Note Time="173" Volume="1"
				Note Time="180" Value="F#2" Duration="1" Instrument="Duty 3"
				Note Time="181" Value="C#3" Duration="1" Instrument="Duty 3" Volume="3" FinePitch="0"
				Note Time="182" Value="F#2" Duration="11" Instrument="Duty 3" FinePitch="1"
				Note Time="193" Value="C#3" Duration="1" Instrument="Duty 3" FinePitch="0"
				Note Time="194" Value="F#2" Duration="9" Instrument="Duty 3" FinePitch="1"
				Note Time="202" Volume="1"
				Note Time="204" Value="B2" Duration="1" Instrument="Duty 3"
				Note Time="205" Value="F#3" Duration="1" Instrument="Duty 3" Volume="3"
				Note Time="206" Value="B2" Duration="4" Instrument="Duty 3"
				Note Time="209" Volume="1"
				Note Time="216" Value="A2" Duration="1" Instrument="Duty 3" FinePitch="2"
				Note Time="217" Value="E3" Duration="1" Instrument="Duty 3" Volume="3" FinePitch="1"
				Note Time="218" Value="A2" Duration="9" Instrument="Duty 3" FinePitch="2"
				Note Time="226" Volume="1"
				Note Time="228" Value="F#2" Duration="1" Instrument="Duty 3" FinePitch="1"
				Note Time="229" Value="C#3" Duration="1" Instrument="Duty 3" Volume="3" FinePitch="0"
				Note Time="230" Value="F#2" Duration="4" Instrument="Duty 3" FinePitch="1"
				Note Time="233" Volume="1"
				Note Time="240" Value="E2" Duration="1" Instrument="Duty 3"
				Note Time="241" Value="B2" Duration="1" Instrument="Duty 3" Volume="3" FinePitch="0"
				Note Time="242" Value="E2" Duration="4" Instrument="Duty 3" FinePitch="1"
				Note Time="245" Volume="1"
				Note Time="252" Value="G#2" Duration="1" Instrument="Duty 3"
				Note Time="253" Value="D#3" Duration="1" Instrument="Duty 3" Volume="3" FinePitch="0"
				Note Time="254" Value="G#2" Duration="11" Instrument="Duty 3" FinePitch="1"
			Pattern Name="Pattern 37"
				Note Time="9" Value="D#3" Duration="1" Instrument="Duty 3" FinePitch="0"
				Note Time="10" Value="G#2" Duration="9" Instrument="Duty 3" FinePitch="1"
				Note Time="18" Volume="1"
				Note Time="20" Value="A2" Duration="1" Instrument="Duty 3" FinePitch="2"
				Note Time="21" Value="E3" Duration="1" Instrument="Duty 3" Volume="3" FinePitch="1"
				Note Time="22" Value="A2" Duration="4" Instrument="Duty 3" FinePitch="2"
				Note Time="25" Volume="1"
				Note Time="32" Value="F#2" Duration="1" Instrument="Duty 3" FinePitch="1"
				Note Time="33" Value="C#3" Duration="1" Instrument="Duty 3" Volume="3" FinePitch="0"
				Note Time="34" Value="F#2" Duration="11" Instrument="Duty 3" FinePitch="1"
				Note Time="45" Value="C#3" Duration="1" Instrument="Duty 3" FinePitch="0"
				Note Time="46" Value="F#2" Duration="9" Instrument="Duty 3" FinePitch="1"
				Note Time="54" Volume="1"
				Note Time="56" Value="E2" Duration="1" Instrument="Duty 3"
				Note Time="57" Value="B2" Duration="1" Instrument="Duty 3" Volume="3" FinePitch="0"
				Note Time="58" Value="E2" Duration="4" Instrument="Duty 3" FinePitch="1"
				Note Time="61" Volume="1"
				Note Time="68" Value="F#2" Duration="1" Instrument="Duty 3"
				Note Time="69" Value="C#3" Duration="1" Instrument="Duty 3" Volume="3" FinePitch="0"
				Note Time="70" Value="F#2" Duration="11" Instrument="Duty 3" FinePitch="1"
				Note Time="81" Value="C#3" Duration="1" Instrument="Duty 3" FinePitch="0"
				Note Time="82" Value="F#2" Duration="9" Instrument="Duty 3" FinePitch="1"
				Note Time="90" Volume="1"
				Note Time="92" Value="B2" Duration="1" Instrument="Duty 3"
				Note Time="93" Value="F#3" Duration="1" Instrument="Duty 3" Volume="3"
				Note Time="94" Value="B2" Duration="4" Instrument="Duty 3"
				Note Time="97" Volume="1"
				Note Time="104" Value="A2" Duration="1" Instrument="Duty 3" FinePitch="2"
				Note Time="105" Value="E3" Duration="1" Instrument="Duty 3" Volume="3" FinePitch="1"
				Note Time="106" Value="A2" Duration="9" Instrument="Duty 3" FinePitch="2"
				Note Time="114" Volume="1"
				Note Time="116" Value="F#2" Duration="1" Instrument="Duty 3" FinePitch="1"
				Note Time="117" Value="C#3" Duration="1" Instrument="Duty 3" Volume="3" FinePitch="0"
				Note Time="118" Value="F#2" Duration="4" Instrument="Duty 3" FinePitch="1"
				Note Time="121" Volume="1"
				Note Time="128" Value="E2" Duration="1" Instrument="Duty 3"
				Note Time="129" Value="B2" Duration="1" Instrument="Duty 3" Volume="3" FinePitch="0"
				Note Time="130" Value="E2" Duration="4" Instrument="Duty 3" FinePitch="1"
				Note Time="133" Volume="1"
				Note Time="140" Value="C#2" Duration="1" Instrument="Duty 3" FinePitch="2"
				Note Time="141" Value="G#2" Duration="1" Instrument="Duty 3" Volume="3" FinePitch="0"
				Note Time="142" Value="C#2" Duration="11" Instrument="Duty 3" FinePitch="2"
				Note Time="153" Value="G#2" Duration="1" Instrument="Duty 3" FinePitch="0"
				Note Time="154" Value="C#2" Duration="10" Instrument="Duty 3" FinePitch="2"
				Note Time="163" Volume="1"
				Note Time="165" FinePitch="0"
				Note Time="176" Value="F#3" Duration="11" Instrument="Duty 3" FinePitch="1"
				Note Time="177" Volume="3"
				Note Time="186" Volume="1"
				Note Time="188" Value="E3" Duration="11" Instrument="Duty 3"
				Note Time="189" Volume="3"
				Note Time="198" Volume="1"
				Note Time="200" Value="D3" Duration="11" Instrument="Duty 3" FinePitch="0"
				Note Time="201" Volume="3"
				Note Time="210" Volume="1"
				Note Time="212" Value="C#3" Duration="11" Instrument="Duty 3"
				Note Time="213" Volume="3"
				Note Time="222" Volume="1"
				Note Time="224" Value="D3" Duration="11" Instrument="Duty 3"
				Note Time="225" Volume="3"
				Note Time="234" Volume="1"
				Note Time="236" Value="F#3" Duration="11" Instrument="Duty 3" FinePitch="1"
				Note Time="237" Volume="3"
				Note Time="246" Volume="1"
				Note Time="248" Value="G#3" Duration="17" Instrument="Duty 3"
				Note Time="249" Volume="3"
			Pattern Name="Pattern 38"
				Note Time="8" Volume="1"
				Note Time="10" Value="F#3" Duration="5" Instrument="Duty 3"
				Note Time="11" Volume="3"
				Note Time="14" Volume="1"
				Note Time="16" Value="E3" Duration="11" Instrument="Duty 3"
				Note Time="17" Volume="3"
				Note Time="26" Volume="1"
				Note Time="28" Value="E3" Duration="17" Instrument="Duty 3"
				Note Time="29" Volume="3"
				Note Time="44" Volume="1"
				Note Time="46" Value="D3" Duration="5" Instrument="Duty 3" FinePitch="0"
				Note Time="47" Volume="3"
				Note Time="50" Volume="1"
				Note Time="52" Value="C#3" Duration="11" Instrument="Duty 3"
				Note Time="53" Volume="3"
				Note Time="62" Volume="1"
				Note Time="64" Value="F#4" Duration="11" Instrument="Duty 3" FinePitch="1"
				Note Time="65" Volume="3"
				Note Time="74" Volume="1"
				Note Time="76" Value="E4" Duration="11" Instrument="Duty 3" FinePitch="0"
				Note Time="77" Volume="3"
				Note Time="86" Volume="1"
				Note Time="88" Value="D4" Duration="11" Instrument="Duty 3" FinePitch="1"
				Note Time="89" Volume="3"
				Note Time="98" Volume="1"
				Note Time="100" Value="C#4" Duration="11" Instrument="Duty 3" FinePitch="0"
				Note Time="101" Volume="3"
				Note Time="110" Volume="1"
				Note Time="112" Value="D4" Duration="11" Instrument="Duty 3" FinePitch="1"
				Note Time="113" Volume="3"
				Note Time="122" Volume="1"
				Note Time="124" Value="F#4" Duration="11" Instrument="Duty 3"
				Note Time="125" Volume="3"
				Note Time="134" Volume="1"
				Note Time="136" Value="G#4" Duration="17" Instrument="Duty 3" FinePitch="0"
				Note Time="137" Volume="3"
				Note Time="152" Volume="1"
				Note Time="154" Value="F#4" Duration="5" Instrument="Duty 3" FinePitch="1"
				Note Time="155" Volume="3"
				Note Time="158" Volume="1"
				Note Time="160" Value="E4" Duration="11" Instrument="Duty 3" FinePitch="0"
				Note Time="161" Volume="3"
				Note Time="170" Volume="1"
				Note Time="172" Value="E4" Duration="17" Instrument="Duty 3"
				Note Time="173" Volume="3"
				Note Time="188" Volume="1"
				Note Time="190" Value="D4" Duration="5" Instrument="Duty 3" FinePitch="1"
				Note Time="191" Volume="3"
				Note Time="194" Volume="1"
				Note Time="196" Value="C#4" Duration="11" Instrument="Duty 3" FinePitch="0"
				Note Time="197" Volume="3"
				Note Time="206" Volume="1"
				Note Time="208" Value="F#3" Duration="11" Instrument="Duty 3" FinePitch="1"
				Note Time="209" Volume="3"
				Note Time="218" Volume="1"
				Note Time="220" Value="G#3" Duration="11" Instrument="Duty 3"
				Note Time="221" Volume="3"
				Note Time="230" Volume="1"
				Note Time="232" Value="A3" Duration="11" Instrument="Duty 3"
				Note Time="233" Volume="3"
				Note Time="242" Volume="1"
				Note Time="244" Value="C#4" Duration="11" Instrument="Duty 3" FinePitch="0"
				Note Time="245" Volume="3"
				Note Time="254" Volume="1"
			Pattern Name="Pattern 39"
				Note Time="0" Value="B3" Duration="11" Instrument="Duty 3" FinePitch="1"
				Note Time="1" Volume="3"
				Note Time="10" Volume="1"
				Note Time="12" Value="A3" Duration="11" Instrument="Duty 3"
				Note Time="13" Volume="3"
				Note Time="22" Volume="1"
				Note Time="24" Value="B3" Duration="5" Instrument="Duty 3"
				Note Time="25" Volume="3"
				Note Time="28" Volume="1"
				Note Time="30" Value="A3" Duration="5" Instrument="Duty 3"
				Note Time="31" Volume="3"
				Note Time="34" Volume="1"
				Note Time="36" Value="G#3" Duration="5" Instrument="Duty 3"
				Note Time="37" Volume="3"
				Note Time="40" Volume="1"
				Note Time="42" Value="A3" Duration="5" Instrument="Duty 3"
				Note Time="43" Volume="3"
				Note Time="46" Volume="1"
				Note Time="48" Value="G#3" Duration="5" Instrument="Duty 3"
				Note Time="49" Volume="3"
				Note Time="52" Volume="1"
				Note Time="54" Value="F#3" Duration="5" Instrument="Duty 3"
				Note Time="55" Volume="3"
				Note Time="58" Volume="1"
				Note Time="60" Value="G#3" Duration="5" Instrument="Duty 3"
				Note Time="61" Volume="3"
				Note Time="64" Volume="1"
				Note Time="66" Value="F#3" Duration="5" Instrument="Duty 3"
				Note Time="67" Volume="3"
				Note Time="70" Volume="1"
				Note Time="72" Value="E3" Duration="5" Instrument="Duty 3"
				Note Time="73" Volume="3"
				Note Time="76" Volume="1"
				Note Time="78" Value="F#3" Duration="5" Instrument="Duty 3"
				Note Time="79" Volume="3"
				Note Time="82" Volume="1"
				Note Time="84" Value="E3" Duration="5" Instrument="Duty 3"
				Note Time="85" Volume="3"
				Note Time="88" Volume="1"
				Note Time="90" Value="D3" Duration="5" Instrument="Duty 3" FinePitch="0"
				Note Time="91" Volume="3"
				Note Time="94" Volume="1"
				Note Time="96" Value="F#4" Duration="11" Instrument="Duty 3" FinePitch="1"
				Note Time="97" Volume="3"
				Note Time="106" Volume="1"
				Note Time="108" Value="G#4" Duration="11" Instrument="Duty 3" FinePitch="0"
				Note Time="109" Volume="3"
				Note Time="118" Volume="1"
				Note Time="120" Value="A4" Duration="11" Instrument="Duty 3" FinePitch="1"
				Note Time="121" Volume="3"
				Note Time="130" Volume="1"
				Note Time="132" Value="C#5" Duration="11" Instrument="Duty 3" FinePitch="0"
				Note Time="133" Volume="3"
				Note Time="142" Volume="1"
				Note Time="144" Value="B4" Duration="11" Instrument="Duty 3" FinePitch="1"
				Note Time="145" Volume="3"
				Note Time="154" Volume="1"
				Note Time="156" Value="A4" Duration="11" Instrument="Duty 3"
				Note Time="157" Volume="3"
				Note Time="166" Volume="1"
				Note Time="168" Value="B4" Duration="5" Instrument="Duty 3"
				Note Time="169" Volume="3"
				Note Time="172" Volume="1"
				Note Time="174" Value="A4" Duration="5" Instrument="Duty 3"
				Note Time="175" Volume="3"
				Note Time="178" Volume="1"
				Note Time="180" Value="G#4" Duration="5" Instrument="Duty 3" FinePitch="0"
				Note Time="181" Volume="3"
				Note Time="184" Volume="1"
				Note Time="186" Value="A4" Duration="5" Instrument="Duty 3" FinePitch="1"
				Note Time="187" Volume="3"
				Note Time="190" Volume="1"
				Note Time="192" Value="G#4" Duration="5" Instrument="Duty 3" FinePitch="0"
				Note Time="193" Volume="3"
				Note Time="196" Volume="1"
				Note Time="198" Value="F#4" Duration="5" Instrument="Duty 3" FinePitch="1"
				Note Time="199" Volume="3"
				Note Time="202" Volume="1"
				Note Time="204" Value="G#4" Duration="5" Instrument="Duty 3" FinePitch="0"
				Note Time="205" Volume="3"
				Note Time="208" Volume="1"
				Note Time="210" Value="F#4" Duration="5" Instrument="Duty 3" FinePitch="1"
				Note Time="211" Volume="3"
				Note Time="214" Volume="1"
				Note Time="216" Value="E4" Duration="5" Instrument="Duty 3" FinePitch="0"
				Note Time="217" Volume="3"
				Note Time="220" Volume="1"
				Note Time="222" Value="F#4" Duration="5" Instrument="Duty 3" FinePitch="1"
				Note Time="223" Volume="3"
				Note Time="226" Volume="1"
				Note Time="228" Value="E4" Duration="5" Instrument="Duty 3" FinePitch="0"
				Note Time="229" Volume="3"
				Note Time="232" Volume="1"
				Note Time="234" Value="D4" Duration="5" Instrument="Duty 3" FinePitch="1"
				Note Time="235" Volume="3"
				Note Time="238" Volume="1"
				Note Time="240" Value="F#4" Duration="2" Instrument="Duty 0" Volume="3"
				Note Time="242" Value="C#4" Duration="2" Instrument="Duty 0" FinePitch="0"
				Note Time="244" Value="G#3" Duration="2" Instrument="Duty 0" FinePitch="1"
				Note Time="246" Value="F#4" Duration="2" Instrument="Duty 0"
				Note Time="248" Value="C#4" Duration="2" Instrument="Duty 0" FinePitch="0"
				Note Time="250" Value="G#3" Duration="2" Instrument="Duty 0" FinePitch="1"
				Note Time="252" Value="F#4" Duration="2" Instrument="Duty 0"
				Note Time="254" Value="C#4" Duration="2" Instrument="Duty 0" FinePitch="0"
			Pattern Name="Pattern 40"
				Note Time="0" Value="G#3" Duration="2" Instrument="Duty 0" FinePitch="1"
				Note Time="2" Value="F#4" Duration="2" Instrument="Duty 0"
				Note Time="4" Value="C#4" Duration="2" Instrument="Duty 0" FinePitch="0"
				Note Time="6" Value="G#3" Duration="2" Instrument="Duty 0" FinePitch="1"
				Note Time="8" Value="F#4" Duration="2" Instrument="Duty 0"
				Note Time="10" Value="C#4" Duration="2" Instrument="Duty 0" FinePitch="0"
				Note Time="12" Value="G#3" Duration="2" Instrument="Duty 0" FinePitch="1"
				Note Time="14" Value="F#4" Duration="2" Instrument="Duty 0"
				Note Time="16" Value="C#4" Duration="2" Instrument="Duty 0" FinePitch="0"
				Note Time="18" Value="G#3" Duration="2" Instrument="Duty 0" FinePitch="1"
				Note Time="20" Value="F#4" Duration="2" Instrument="Duty 0"
				Note Time="22" Value="C#4" Duration="2" Instrument="Duty 0" FinePitch="0"
				Note Time="24" Value="G#3" Duration="2" Instrument="Duty 0" FinePitch="1"
				Note Time="26" Value="F#4" Duration="2" Instrument="Duty 0"
				Note Time="28" Value="C#4" Duration="2" Instrument="Duty 0" FinePitch="0"
				Note Time="30" Value="G#3" Duration="2" Instrument="Duty 0" FinePitch="1"
				Note Time="32" Value="F#4" Duration="2" Instrument="Duty 0"
				Note Time="34" Value="C#4" Duration="2" Instrument="Duty 0" FinePitch="0"
				Note Time="36" Value="G#3" Duration="2" Instrument="Duty 0" FinePitch="1"
				Note Time="38" Value="F#4" Duration="2" Instrument="Duty 0"
				Note Time="40" Value="C#4" Duration="2" Instrument="Duty 0" FinePitch="0"
				Note Time="42" Value="G#3" Duration="2" Instrument="Duty 0" FinePitch="1"
				Note Time="44" Value="F#4" Duration="2" Instrument="Duty 0"
				Note Time="46" Value="C#4" Duration="2" Instrument="Duty 0" FinePitch="0"
				Note Time="48" Value="G#3" Duration="2" Instrument="Duty 0" FinePitch="1"
				Note Time="50" Value="F#4" Duration="2" Instrument="Duty 0"
				Note Time="52" Value="C#4" Duration="2" Instrument="Duty 0" FinePitch="0"
				Note Time="54" Value="G#3" Duration="2" Instrument="Duty 0" FinePitch="1"
				Note Time="56" Value="G4" Duration="2" Instrument="Duty 0" Volume="5" FinePitch="0"
				Note Time="57" Volume="4"
				Note Time="58" Value="D4" Duration="2" Instrument="Duty 0" FinePitch="1"
				Note Time="59" Volume="3"
				Note Time="60" Value="A3" Duration="2" Instrument="Duty 0"
				Note Time="61" Volume="2"
				Note Time="62" Value="G4" Duration="2" Instrument="Duty 0" FinePitch="0"
				Note Time="63" Volume="1"
				Note Time="64" Value="D4" Duration="1" Instrument="Duty 0" FinePitch="1"
				Note Time="66" FinePitch="0"
				Note Time="68" Value="G4" Duration="2" Instrument="Duty 0" Volume="5"
				Note Time="69" Volume="4"
				Note Time="70" Value="D4" Duration="2" Instrument="Duty 0" FinePitch="1"
				Note Time="71" Volume="3"
				Note Time="72" Value="A3" Duration="2" Instrument="Duty 0"
				Note Time="73" Volume="2"
				Note Time="74" Value="G4" Duration="2" Instrument="Duty 0" FinePitch="0"
				Note Time="75" Volume="1"
				Note Time="76" Value="D4" Duration="1" Instrument="Duty 0" FinePitch="1"
				Note Time="78" FinePitch="0"
				Note Time="80" Value="G4" Duration="2" Instrument="Duty 0" Volume="5"
				Note Time="81" Volume="4"
				Note Time="82" Value="D4" Duration="2" Instrument="Duty 0" FinePitch="1"
				Note Time="83" Volume="3"
				Note Time="84" Value="A3" Duration="2" Instrument="Duty 0"
				Note Time="85" Volume="2"
				Note Time="86" Value="G4" Duration="2" Instrument="Duty 0" FinePitch="0"
				Note Time="87" Volume="1"
				Note Time="88" Value="D4" Duration="1" Instrument="Duty 0" FinePitch="1"
				Note Time="90" FinePitch="0"
				Note Time="104" Value="G4" Duration="2" Instrument="Duty 0" Volume="2"
				Note Time="106" Value="D4" Duration="2" Instrument="Duty 0" FinePitch="1"
				Note Time="108" Value="A3" Duration="2" Instrument="Duty 0"
				Note Time="110" Value="G4" Duration="2" Instrument="Duty 0" FinePitch="0"
				Note Time="112" Value="D4" Duration="2" Instrument="Duty 0" FinePitch="1"
				Note Time="114" Value="A3" Duration="2" Instrument="Duty 0"
				Note Time="116" Value="G4" Duration="2" Instrument="Duty 0" FinePitch="0"
				Note Time="118" Value="D4" Duration="2" Instrument="Duty 0" FinePitch="1"
				Note Time="120" Value="A3" Duration="2" Instrument="Duty 0"
				Note Time="122" Value="G4" Duration="2" Instrument="Duty 0" FinePitch="0"
				Note Time="124" Value="D4" Duration="2" Instrument="Duty 0" FinePitch="1"
				Note Time="126" Value="A3" Duration="2" Instrument="Duty 0"
				Note Time="128" Value="F#4" Duration="2" Instrument="Duty 0" Volume="3"
				Note Time="130" Value="C#4" Duration="2" Instrument="Duty 0" FinePitch="0"
				Note Time="132" Value="G#3" Duration="2" Instrument="Duty 0" FinePitch="1"
				Note Time="134" Value="F#4" Duration="2" Instrument="Duty 0"
				Note Time="136" Value="C#4" Duration="2" Instrument="Duty 0" FinePitch="0"
				Note Time="138" Value="G#3" Duration="2" Instrument="Duty 0" FinePitch="1"
				Note Time="140" Value="F#4" Duration="2" Instrument="Duty 0"
				Note Time="142" Value="C#4" Duration="2" Instrument="Duty 0" FinePitch="0"
				Note Time="144" Value="G#3" Duration="2" Instrument="Duty 0" FinePitch="1"
				Note Time="146" Value="F#4" Duration="2" Instrument="Duty 0"
				Note Time="148" Value="C#4" Duration="2" Instrument="Duty 0" FinePitch="0"
				Note Time="150" Value="G#3" Duration="2" Instrument="Duty 0" FinePitch="1"
				Note Time="152" Value="F#4" Duration="2" Instrument="Duty 0"
				Note Time="154" Value="C#4" Duration="2" Instrument="Duty 0" FinePitch="0"
				Note Time="156" Value="G#3" Duration="2" Instrument="Duty 0" FinePitch="1"
				Note Time="158" Value="F#4" Duration="2" Instrument="Duty 0"
				Note Time="160" Value="C#4" Duration="2" Instrument="Duty 0" FinePitch="0"
				Note Time="162" Value="G#3" Duration="2" Instrument="Duty 0" FinePitch="1"
				Note Time="164" Value="F#4" Duration="2" Instrument="Duty 0"
				Note Time="166" Value="C#4" Duration="2" Instrument="Duty 0" FinePitch="0"
				Note Time="168" Value="G#3" Duration="2" Instrument="Duty 0" FinePitch="1"
				Note Time="170" Value="F#4" Duration="2" Instrument="Duty 0"
				Note Time="172" Value="C#4" Duration="2" Instrument="Duty 0" FinePitch="0"
				Note Time="174" Value="G#3" Duration="2" Instrument="Duty 0" FinePitch="1"
				Note Time="176" Value="F#4" Duration="2" Instrument="Duty 0"
				Note Time="178" Value="C#4" Duration="2" Instrument="Duty 0" FinePitch="0"
				Note Time="180" Value="G#3" Duration="2" Instrument="Duty 0" FinePitch="1"
				Note Time="182" Value="F#4" Duration="2" Instrument="Duty 0"
				Note Time="184" Value="C#4" Duration="2" Instrument="Duty 0" FinePitch="0"
				Note Time="186" Value="G#3" Duration="2" Instrument="Duty 0" FinePitch="1"
				Note Time="188" Value="F#4" Duration="2" Instrument="Duty 0"
				Note Time="190" Value="C#4" Duration="2" Instrument="Duty 0" FinePitch="0"
				Note Time="192" Value="G#3" Duration="2" Instrument="Duty 0" FinePitch="1"
				Note Time="194" Value="F#4" Duration="2" Instrument="Duty 0"
				Note Time="196" Value="C#4" Duration="2" Instrument="Duty 0" FinePitch="0"
				Note Time="198" Value="G#3" Duration="2" Instrument="Duty 0" FinePitch="1"
				Note Time="200" Value="G4" Duration="2" Instrument="Duty 0" Volume="5" FinePitch="0"
				Note Time="201" Volume="4"
				Note Time="202" Value="D4" Duration="2" Instrument="Duty 0" FinePitch="1"
				Note Time="203" Volume="3"
				Note Time="204" Value="A3" Duration="2" Instrument="Duty 0"
				Note Time="205" Volume="2"
				Note Time="206" Value="G4" Duration="2" Instrument="Duty 0" FinePitch="0"
				Note Time="207" Volume="1"
				Note Time="208" Value="D4" Duration="1" Instrument="Duty 0" FinePitch="1"
				Note Time="210" FinePitch="0"
				Note Time="212" Value="G4" Duration="2" Instrument="Duty 0" Volume="5"
				Note Time="213" Volume="4"
				Note Time="214" Value="D4" Duration="2" Instrument="Duty 0" FinePitch="1"
				Note Time="215" Volume="3"
				Note Time="216" Value="A3" Duration="2" Instrument="Duty 0"
				Note Time="217" Volume="2"
				Note Time="218" Value="G4" Duration="2" Instrument="Duty 0" FinePitch="0"
				Note Time="219" Volume="1"
				Note Time="220" Value="D4" Duration="1" Instrument="Duty 0" FinePitch="1"
				Note Time="222" FinePitch="0"
				Note Time="224" Value="G4" Duration="2" Instrument="Duty 0" Volume="5"
				Note Time="225" Volume="4"
				Note Time="226" Value="D4" Duration="2" Instrument="Duty 0" FinePitch="1"
				Note Time="227" Volume="3"
				Note Time="228" Value="A3" Duration="2" Instrument="Duty 0"
				Note Time="229" Volume="2"
				Note Time="230" Value="G4" Duration="2" Instrument="Duty 0" FinePitch="0"
				Note Time="231" Volume="1"
				Note Time="232" Value="D4" Duration="1" Instrument="Duty 0" FinePitch="1"
				Note Time="234" FinePitch="0"
				Note Time="248" Value="G4" Duration="2" Instrument="Duty 0" Volume="2"
				Note Time="250" Value="D4" Duration="2" Instrument="Duty 0" FinePitch="1"
				Note Time="252" Value="A3" Duration="2" Instrument="Duty 0"
				Note Time="254" Value="G4" Duration="2" Instrument="Duty 0" FinePitch="0"
			Pattern Name="Pattern 41"
				Note Time="0" Value="D4" Duration="2" Instrument="Duty 0" FinePitch="1"
				Note Time="2" Value="A3" Duration="2" Instrument="Duty 0"
				Note Time="4" Value="G4" Duration="2" Instrument="Duty 0" FinePitch="0"
				Note Time="6" Value="D4" Duration="2" Instrument="Duty 0" FinePitch="1"
				Note Time="8" Value="A3" Duration="2" Instrument="Duty 0"
				Note Time="10" Value="G4" Duration="2" Instrument="Duty 0" FinePitch="0"
				Note Time="12" Value="D4" Duration="2" Instrument="Duty 0" FinePitch="1"
				Note Time="14" Value="A3" Duration="2" Instrument="Duty 0"
				Note Time="16" Value="F#4" Duration="2" Instrument="Duty 0" Volume="3"
				Note Time="18" Value="C#4" Duration="2" Instrument="Duty 0" FinePitch="0"
				Note Time="20" Value="G#3" Duration="2" Instrument="Duty 0" FinePitch="1"
				Note Time="22" Value="F#4" Duration="2" Instrument="Duty 0"
				Note Time="24" Value="C#4" Duration="2" Instrument="Duty 0" FinePitch="0"
				Note Time="26" Value="G#3" Duration="2" Instrument="Duty 0" FinePitch="1"
				Note Time="28" Value="F#4" Duration="2" Instrument="Duty 0"
				Note Time="30" Value="C#4" Duration="2" Instrument="Duty 0" FinePitch="0"
				Note Time="32" Value="G#3" Duration="2" Instrument="Duty 0" FinePitch="1"
				Note Time="34" Value="F#4" Duration="2" Instrument="Duty 0"
				Note Time="36" Value="C#4" Duration="2" Instrument="Duty 0" FinePitch="0"
				Note Time="38" Value="G#3" Duration="2" Instrument="Duty 0" FinePitch="1"
				Note Time="40" Value="F#4" Duration="2" Instrument="Duty 0"
				Note Time="42" Value="C#4" Duration="2" Instrument="Duty 0" FinePitch="0"
				Note Time="44" Value="G#3" Duration="2" Instrument="Duty 0" FinePitch="1"
				Note Time="46" Value="F#4" Duration="2" Instrument="Duty 0"
				Note Time="48" Value="C#4" Duration="2" Instrument="Duty 0" FinePitch="0"
				Note Time="50" Value="G#3" Duration="2" Instrument="Duty 0" FinePitch="1"
				Note Time="52" Value="F#4" Duration="2" Instrument="Duty 0"
				Note Time="54" Value="C#4" Duration="2" Instrument="Duty 0" FinePitch="0"
				Note Time="56" Value="G#3" Duration="2" Instrument="Duty 0" FinePitch="1"
				Note Time="58" Value="F#4" Duration="2" Instrument="Duty 0"
				Note Time="60" Value="C#4" Duration="2" Instrument="Duty 0" FinePitch="0"
				Note Time="62" Value="G#3" Duration="2" Instrument="Duty 0" FinePitch="1"
				Note Time="64" Value="F#4" Duration="2" Instrument="Duty 0"
				Note Time="66" Value="C#4" Duration="2" Instrument="Duty 0" FinePitch="0"
				Note Time="68" Value="G#3" Duration="2" Instrument="Duty 0" FinePitch="1"
				Note Time="70" Value="F#4" Duration="2" Instrument="Duty 0"
				Note Time="72" Value="C#4" Duration="2" Instrument="Duty 0" FinePitch="0"
				Note Time="74" Value="G#3" Duration="2" Instrument="Duty 0" FinePitch="1"
				Note Time="76" Value="F#4" Duration="2" Instrument="Duty 0"
				Note Time="78" Value="C#4" Duration="2" Instrument="Duty 0" FinePitch="0"
				Note Time="80" Value="G#3" Duration="2" Instrument="Duty 0" FinePitch="1"
				Note Time="82" Value="F#4" Duration="2" Instrument="Duty 0"
				Note Time="84" Value="C#4" Duration="2" Instrument="Duty 0" FinePitch="0"
				Note Time="86" Value="G#3" Duration="2" Instrument="Duty 0" FinePitch="1"
				Note Time="88" Value="G4" Duration="2" Instrument="Duty 0" Volume="5" FinePitch="0"
				Note Time="89" Volume="4"
				Note Time="90" Value="D4" Duration="2" Instrument="Duty 0" FinePitch="1"
				Note Time="91" Volume="3"
				Note Time="92" Value="A3" Duration="2" Instrument="Duty 0"
				Note Time="93" Volume="2"
				Note Time="94" Value="G4" Duration="2" Instrument="Duty 0" FinePitch="0"
				Note Time="95" Volume="1"
				Note Time="96" Value="D4" Duration="1" Instrument="Duty 0" FinePitch="1"
				Note Time="98" FinePitch="0"
				Note Time="100" Value="G4" Duration="2" Instrument="Duty 0" Volume="5"
				Note Time="101" Volume="4"
				Note Time="102" Value="D4" Duration="2" Instrument="Duty 0" FinePitch="1"
				Note Time="103" Volume="3"
				Note Time="104" Value="A3" Duration="2" Instrument="Duty 0"
				Note Time="105" Volume="2"
				Note Time="106" Value="G4" Duration="2" Instrument="Duty 0" FinePitch="0"
				Note Time="107" Volume="1"
				Note Time="108" Value="D4" Duration="1" Instrument="Duty 0" FinePitch="1"
				Note Time="110" FinePitch="0"
				Note Time="112" Value="G4" Duration="2" Instrument="Duty 0" Volume="5"
				Note Time="113" Volume="4"
				Note Time="114" Value="D4" Duration="2" Instrument="Duty 0" FinePitch="1"
				Note Time="115" Volume="3"
				Note Time="116" Value="A3" Duration="2" Instrument="Duty 0"
				Note Time="117" Volume="2"
				Note Time="118" Value="G4" Duration="2" Instrument="Duty 0" FinePitch="0"
				Note Time="119" Volume="1"
				Note Time="120" Value="D4" Duration="1" Instrument="Duty 0" FinePitch="1"
				Note Time="122" FinePitch="0"
				Note Time="136" Value="G4" Duration="2" Instrument="Duty 0" Volume="2"
				Note Time="138" Value="D4" Duration="2" Instrument="Duty 0" FinePitch="1"
				Note Time="140" Value="A3" Duration="2" Instrument="Duty 0"
				Note Time="142" Value="G4" Duration="2" Instrument="Duty 0" FinePitch="0"
				Note Time="144" Value="D4" Duration="2" Instrument="Duty 0" FinePitch="1"
				Note Time="146" Value="A3" Duration="2" Instrument="Duty 0"
				Note Time="148" Value="G4" Duration="2" Instrument="Duty 0" FinePitch="0"
				Note Time="150" Value="D4" Duration="2" Instrument="Duty 0" FinePitch="1"
				Note Time="152" Value="A3" Duration="2" Instrument="Duty 0"
				Note Time="154" Value="G4" Duration="2" Instrument="Duty 0" FinePitch="0"
				Note Time="156" Value="D4" Duration="2" Instrument="Duty 0" FinePitch="1"
				Note Time="158" Value="A3" Duration="2" Instrument="Duty 0"
				Note Time="160" Value="F#4" Duration="2" Instrument="Duty 0" Volume="3"
				Note Time="162" Value="C#4" Duration="2" Instrument="Duty 0" FinePitch="0"
				Note Time="164" Value="G#3" Duration="2" Instrument="Duty 0" FinePitch="1"
				Note Time="166" Value="F#4" Duration="2" Instrument="Duty 0"
				Note Time="168" Value="C#4" Duration="2" Instrument="Duty 0" FinePitch="0"
				Note Time="170" Value="G#3" Duration="2" Instrument="Duty 0" FinePitch="1"
				Note Time="172" Value="F#4" Duration="2" Instrument="Duty 0"
				Note Time="174" Value="C#4" Duration="2" Instrument="Duty 0" FinePitch="0"
				Note Time="176" Value="G#3" Duration="2" Instrument="Duty 0" FinePitch="1"
				Note Time="178" Value="F#4" Duration="2" Instrument="Duty 0"
				Note Time="180" Value="C#4" Duration="2" Instrument="Duty 0" FinePitch="0"
				Note Time="182" Value="G#3" Duration="2" Instrument="Duty 0" FinePitch="1"
				Note Time="184" Value="F#4" Duration="2" Instrument="Duty 0"
				Note Time="186" Value="C#4" Duration="2" Instrument="Duty 0" FinePitch="0"
				Note Time="188" Value="G#3" Duration="2" Instrument="Duty 0" FinePitch="1"
				Note Time="190" Value="F#4" Duration="2" Instrument="Duty 0"
				Note Time="192" Value="C#4" Duration="2" Instrument="Duty 0" FinePitch="0"
				Note Time="194" Value="G#3" Duration="2" Instrument="Duty 0" FinePitch="1"
				Note Time="196" Value="F#4" Duration="2" Instrument="Duty 0"
				Note Time="198" Value="C#4" Duration="2" Instrument="Duty 0" FinePitch="0"
				Note Time="200" Value="G#3" Duration="2" Instrument="Duty 0" FinePitch="1"
				Note Time="202" Value="F#4" Duration="2" Instrument="Duty 0"
				Note Time="204" Value="C#4" Duration="2" Instrument="Duty 0" FinePitch="0"
				Note Time="206" Value="G#3" Duration="2" Instrument="Duty 0" FinePitch="1"
				Note Time="208" Value="F#4" Duration="2" Instrument="Duty 0"
				Note Time="210" Value="C#4" Duration="2" Instrument="Duty 0" FinePitch="0"
				Note Time="212" Value="G#3" Duration="2" Instrument="Duty 0" FinePitch="1"
				Note Time="214" Value="F#4" Duration="2" Instrument="Duty 0"
				Note Time="216" Value="C#4" Duration="2" Instrument="Duty 0" FinePitch="0"
				Note Time="218" Value="G#3" Duration="2" Instrument="Duty 0" FinePitch="1"
				Note Time="220" Value="F#4" Duration="2" Instrument="Duty 0"
				Note Time="222" Value="C#4" Duration="2" Instrument="Duty 0" FinePitch="0"
				Note Time="224" Value="G#3" Duration="2" Instrument="Duty 0" FinePitch="1"
				Note Time="226" Value="F#4" Duration="2" Instrument="Duty 0"
				Note Time="228" Value="C#4" Duration="2" Instrument="Duty 0" FinePitch="0"
				Note Time="230" Value="G#3" Duration="2" Instrument="Duty 0" FinePitch="1"
				Note Time="232" Value="G5" Duration="2" Instrument="Duty 0" Volume="5"
				Note Time="233" Volume="4"
				Note Time="234" Value="D5" Duration="2" Instrument="Duty 0"
				Note Time="235" Volume="3"
				Note Time="236" Value="A4" Duration="2" Instrument="Duty 0"
				Note Time="237" Volume="2"
				Note Time="238" Value="G5" Duration="2" Instrument="Duty 0"
				Note Time="239" Volume="1"
				Note Time="240" Value="D5" Duration="1" Instrument="Duty 0"
				Note Time="242" FinePitch="0"
				Note Time="244" Value="G5" Duration="2" Instrument="Duty 0" Volume="5" FinePitch="1"
				Note Time="245" Volume="4"
				Note Time="246" Value="D5" Duration="2" Instrument="Duty 0"
				Note Time="247" Volume="3"
				Note Time="248" Value="A4" Duration="2" Instrument="Duty 0"
				Note Time="249" Volume="2"
				Note Time="250" Value="G5" Duration="2" Instrument="Duty 0"
				Note Time="251" Volume="1"
				Note Time="252" Value="D5" Duration="1" Instrument="Duty 0"
				Note Time="254" FinePitch="0"
			Pattern Name="Pattern 42"
				Note Time="0" Value="G5" Duration="2" Instrument="Duty 0" Volume="5" FinePitch="1"
				Note Time="1" Volume="4"
				Note Time="2" Value="D5" Duration="2" Instrument="Duty 0"
				Note Time="3" Volume="3"
				Note Time="4" Value="A4" Duration="2" Instrument="Duty 0"
				Note Time="5" Volume="2"
				Note Time="6" Value="G5" Duration="2" Instrument="Duty 0"
				Note Time="7" Volume="1"
				Note Time="8" Value="D5" Duration="1" Instrument="Duty 0"
				Note Time="10" FinePitch="0"
			PatternInstance Time="0" Pattern="Pattern 1"
			PatternInstance Time="1" Pattern="Pattern 2"
			PatternInstance Time="2" Pattern="Pattern 3"
			PatternInstance Time="3" Pattern="Pattern 4"
			PatternInstance Time="4" Pattern="Pattern 5"
			PatternInstance Time="5" Pattern="Pattern 6"
			PatternInstance Time="6" Pattern="Pattern 7"
			PatternInstance Time="7" Pattern="Pattern 8"
			PatternInstance Time="8" Pattern="Pattern 9"
			PatternInstance Time="9" Pattern="Pattern 10"
			PatternInstance Time="10" Pattern="Pattern 11"
			PatternInstance Time="11" Pattern="Pattern 12"
			PatternInstance Time="12" Pattern="Pattern 13"
			PatternInstance Time="13" Pattern="Pattern 14"
			PatternInstance Time="14" Pattern="Pattern 15"
			PatternInstance Time="15" Pattern="Pattern 16"
			PatternInstance Time="16" Pattern="Pattern 17"
			PatternInstance Time="17" Pattern="Pattern 18"
			PatternInstance Time="18" Pattern="Pattern 19"
			PatternInstance Time="19" Pattern="Pattern 20"
			PatternInstance Time="20" Pattern="Pattern 21"
			PatternInstance Time="21" Pattern="Pattern 22"
			PatternInstance Time="22" Pattern="Pattern 23"
			PatternInstance Time="23" Pattern="Pattern 24"
			PatternInstance Time="24" Pattern="Pattern 25"
			PatternInstance Time="25" Pattern="Pattern 26"
			PatternInstance Time="26" Pattern="Pattern 27"
			PatternInstance Time="27" Pattern="Pattern 28"
			PatternInstance Time="28" Pattern="Pattern 29"
			PatternInstance Time="29" Pattern="Pattern 30"
			PatternInstance Time="30" Pattern="Pattern 31"
			PatternInstance Time="31" Pattern="Pattern 32"
			PatternInstance Time="32" Pattern="Pattern 33"
			PatternInstance Time="33" Pattern="Pattern 34"
			PatternInstance Time="34" Pattern="Pattern 35"
			PatternInstance Time="35" Pattern="Pattern 36"
			PatternInstance Time="36" Pattern="Pattern 37"
			PatternInstance Time="37" Pattern="Pattern 38"
			PatternInstance Time="38" Pattern="Pattern 39"
			PatternInstance Time="39" Pattern="Pattern 40"
			PatternInstance Time="40" Pattern="Pattern 41"
			PatternInstance Time="41" Pattern="Pattern 42"
		Channel Type="Triangle"
			Pattern Name="Pattern 1"
				Note Time="0" Value="C#3" Duration="1" Instrument="Duty 0"
				Note Time="1" Value="G2" Duration="1" Instrument="Duty 0"
				Note Time="2" Value="D2" Duration="1" Instrument="Duty 0"
				Note Time="3" Value="A#1" Duration="1" Instrument="Duty 0"
				Note Time="4" Value="G1" Duration="1" Instrument="Duty 0" FinePitch="1"
				Note Time="5" Value="F1" Duration="1" Instrument="Duty 0"
				Note Time="6" Value="E1" Duration="1" Instrument="Duty 0"
				Note Time="7" Value="E2" Duration="41" Instrument="Duty 0" FinePitch="0"
				Note Time="48" Value="C#3" Duration="1" Instrument="Duty 0"
				Note Time="49" Value="G2" Duration="1" Instrument="Duty 0"
				Note Time="50" Value="D2" Duration="1" Instrument="Duty 0"
				Note Time="51" Value="A#1" Duration="1" Instrument="Duty 0"
				Note Time="52" Value="G1" Duration="1" Instrument="Duty 0" FinePitch="1"
				Note Time="53" Value="F1" Duration="1" Instrument="Duty 0"
				Note Time="54" Value="E1" Duration="1" Instrument="Duty 0"
				Note Time="55" Value="C#2" Duration="137" Instrument="Duty 0"
				Note Time="192" Value="C#3" Duration="1" Instrument="Duty 0" FinePitch="0"
				Note Time="193" Value="G2" Duration="1" Instrument="Duty 0"
				Note Time="194" Value="D2" Duration="1" Instrument="Duty 0"
				Note Time="195" Value="A#1" Duration="1" Instrument="Duty 0"
				Note Time="196" Value="G1" Duration="1" Instrument="Duty 0" FinePitch="1"
				Note Time="197" Value="F1" Duration="1" Instrument="Duty 0"
				Note Time="198" Value="E1" Duration="1" Instrument="Duty 0"
				Note Time="199" Value="B1" Duration="41" Instrument="Duty 0" FinePitch="0"
				Note Time="240" Value="C#3" Duration="1" Instrument="Duty 0"
				Note Time="241" Value="G2" Duration="1" Instrument="Duty 0"
				Note Time="242" Value="D2" Duration="1" Instrument="Duty 0"
				Note Time="243" Value="A#1" Duration="1" Instrument="Duty 0"
				Note Time="244" Value="G1" Duration="1" Instrument="Duty 0" FinePitch="1"
				Note Time="245" Value="F1" Duration="1" Instrument="Duty 0"
				Note Time="246" Value="E1" Duration="1" Instrument="Duty 0"
				Note Time="247" Value="D2" Duration="137" Instrument="Duty 0" FinePitch="0"
			Pattern Name="Pattern 2"
				Note Time="128" Value="C#3" Duration="1" Instrument="Duty 0"
				Note Time="129" Value="G2" Duration="1" Instrument="Duty 0"
				Note Time="130" Value="D2" Duration="1" Instrument="Duty 0"
				Note Time="131" Value="A#1" Duration="1" Instrument="Duty 0"
				Note Time="132" Value="G1" Duration="1" Instrument="Duty 0" FinePitch="1"
				Note Time="133" Value="F1" Duration="1" Instrument="Duty 0"
				Note Time="134" Value="E1" Duration="1" Instrument="Duty 0"
				Note Time="135" Value="B1" Duration="41" Instrument="Duty 0" FinePitch="0"
				Note Time="176" Value="C#3" Duration="1" Instrument="Duty 0"
				Note Time="177" Value="G2" Duration="1" Instrument="Duty 0"
				Note Time="178" Value="D2" Duration="1" Instrument="Duty 0"
				Note Time="179" Value="A#1" Duration="1" Instrument="Duty 0"
				Note Time="180" Value="G1" Duration="1" Instrument="Duty 0" FinePitch="1"
				Note Time="181" Value="F1" Duration="1" Instrument="Duty 0"
				Note Time="182" Value="E1" Duration="1" Instrument="Duty 0"
				Note Time="183" Value="C#2" Duration="137" Instrument="Duty 0"
			Pattern Name="Pattern 3"
				Note Time="64" Value="C#3" Duration="1" Instrument="Duty 0" FinePitch="0"
				Note Time="65" Value="G2" Duration="1" Instrument="Duty 0"
				Note Time="66" Value="D2" Duration="1" Instrument="Duty 0"
				Note Time="67" Value="A#1" Duration="1" Instrument="Duty 0"
				Note Time="68" Value="G1" Duration="1" Instrument="Duty 0" FinePitch="1"
				Note Time="69" Value="F1" Duration="1" Instrument="Duty 0"
				Note Time="70" Value="E1" Duration="1" Instrument="Duty 0"
				Note Time="71" Value="G#1" Duration="41" Instrument="Duty 0"
				Note Time="112" Value="C#3" Duration="1" Instrument="Duty 0" FinePitch="0"
				Note Time="113" Value="G2" Duration="1" Instrument="Duty 0"
				Note Time="114" Value="D2" Duration="1" Instrument="Duty 0"
				Note Time="115" Value="A#1" Duration="1" Instrument="Duty 0"
				Note Time="116" Value="G1" Duration="1" Instrument="Duty 0" FinePitch="1"
				Note Time="117" Value="F1" Duration="1" Instrument="Duty 0"
				Note Time="118" Value="E1" Duration="1" Instrument="Duty 0"
				Note Time="119" Value="B1" Duration="137" Instrument="Duty 0" FinePitch="0"
			Pattern Name="Pattern 4"
				Note Time="0" Value="C#3" Duration="1" Instrument="Duty 0"
				Note Time="1" Value="G2" Duration="1" Instrument="Duty 0"
				Note Time="2" Value="D2" Duration="1" Instrument="Duty 0"
				Note Time="3" Value="A#1" Duration="1" Instrument="Duty 0"
				Note Time="4" Value="G1" Duration="1" Instrument="Duty 0" FinePitch="1"
				Note Time="5" Value="F1" Duration="1" Instrument="Duty 0"
				Note Time="6" Value="E1" Duration="1" Instrument="Duty 0"
				Note Time="192" Value="C3" Duration="1" Instrument="Duty 0" FinePitch="0"
				Note Time="193" Value="F#2" Duration="1" Instrument="Duty 0"
				Note Time="194" Value="C2" Duration="1" Instrument="Duty 0" FinePitch="1"
				Note Time="195" Value="F1" Duration="1" Instrument="Duty 0"
				Note Time="196" Value="E2" Duration="12" Instrument="Duty 0" FinePitch="0"
				Note Time="208" Value="D2" Duration="8" Instrument="Duty 0"
				Note Time="216" Value="G3" Duration="1" Instrument="Duty 0" FinePitch="1"
				Note Time="217" Value="F#3" Duration="1" Instrument="Duty 0"
				Note Time="218" Value="E2" Duration="14" Instrument="Duty 0" FinePitch="0"
				Note Time="232" Value="G2" Duration="8" Instrument="Duty 0"
				Note Time="240" Value="C3" Duration="1" Instrument="Duty 0"
				Note Time="241" Value="F#2" Duration="1" Instrument="Duty 0"
				Note Time="242" Value="C2" Duration="1" Instrument="Duty 0" FinePitch="1"
				Note Time="243" Value="F1" Duration="1" Instrument="Duty 0"
				Note Time="244" Value="A2" Duration="12" Instrument="Duty 0"
			Pattern Name="Pattern 5"
				Note Time="0" Value="E2" Duration="8" Instrument="Duty 0" FinePitch="0"
				Note Time="8" Value="G3" Duration="1" Instrument="Duty 0" FinePitch="1"
				Note Time="9" Value="F#3" Duration="1" Instrument="Duty 0"
				Note Time="10" Value="A1" Duration="14" Instrument="Duty 0" FinePitch="0"
				Note Time="24" Value="D2" Duration="8" Instrument="Duty 0"
				Note Time="32" Value="C3" Duration="1" Instrument="Duty 0"
				Note Time="33" Value="F#2" Duration="1" Instrument="Duty 0"
				Note Time="34" Value="C2" Duration="1" Instrument="Duty 0" FinePitch="1"
				Note Time="35" Value="F1" Duration="1" Instrument="Duty 0"
				Note Time="36" Value="G1" Duration="12" Instrument="Duty 0"
				Note Time="48" Value="D2" Duration="8" Instrument="Duty 0" FinePitch="0"
				Note Time="56" Value="G3" Duration="1" Instrument="Duty 0" FinePitch="1"
				Note Time="57" Value="F#3" Duration="1" Instrument="Duty 0"
				Note Time="58" Value="G2" Duration="14" Instrument="Duty 0" FinePitch="0"
				Note Time="72" Value="G1" Duration="8" Instrument="Duty 0" FinePitch="1"
				Note Time="80" Value="C3" Duration="1" Instrument="Duty 0" FinePitch="0"
				Note Time="81" Value="F#2" Duration="1" Instrument="Duty 0"
				Note Time="82" Value="C2" Duration="1" Instrument="Duty 0" FinePitch="1"
				Note Time="83" Value="F1" Duration="1" Instrument="Duty 0"
				Note Time="84" Value="A2" Duration="12" Instrument="Duty 0"
				Note Time="96" Value="E2" Duration="8" Instrument="Duty 0" FinePitch="0"
				Note Time="104" Value="G3" Duration="1" Instrument="Duty 0" FinePitch="1"
				Note Time="105" Value="F#3" Duration="1" Instrument="Duty 0"
				Note Time="106" Value="A1" Duration="14" Instrument="Duty 0" FinePitch="0"
				Note Time="120" Value="G3" Duration="1" Instrument="Duty 0" FinePitch="1"
				Note Time="121" Value="F#3" Duration="1" Instrument="Duty 0"
				Note Time="122" Value="D2" Duration="6" Instrument="Duty 0" FinePitch="0"
				Note Time="128" Value="C3" Duration="1" Instrument="Duty 0"
				Note Time="129" Value="F#2" Duration="1" Instrument="Duty 0"
				Note Time="130" Value="C2" Duration="1" Instrument="Duty 0" FinePitch="1"
				Note Time="131" Value="F1" Duration="1" Instrument="Duty 0"
				Note Time="132" Value="E2" Duration="12" Instrument="Duty 0" FinePitch="0"
				Note Time="144" Value="D2" Duration="8" Instrument="Duty 0"
				Note Time="152" Value="G3" Duration="1" Instrument="Duty 0" FinePitch="1"
				Note Time="153" Value="F#3" Duration="1" Instrument="Duty 0"
				Note Time="154" Value="E2" Duration="14" Instrument="Duty 0" FinePitch="0"
				Note Time="168" Value="G2" Duration="8" Instrument="Duty 0"
				Note Time="176" Value="C3" Duration="1" Instrument="Duty 0"
				Note Time="177" Value="F#2" Duration="1" Instrument="Duty 0"
				Note Time="178" Value="C2" Duration="1" Instrument="Duty 0" FinePitch="1"
				Note Time="179" Value="F1" Duration="1" Instrument="Duty 0"
				Note Time="180" Value="A2" Duration="12" Instrument="Duty 0"
				Note Time="192" Value="E2" Duration="8" Instrument="Duty 0" FinePitch="0"
				Note Time="200" Value="G3" Duration="1" Instrument="Duty 0" FinePitch="1"
				Note Time="201" Value="F#3" Duration="1" Instrument="Duty 0"
				Note Time="202" Value="A1" Duration="14" Instrument="Duty 0" FinePitch="0"
				Note Time="216" Value="D2" Duration="8" Instrument="Duty 0"
				Note Time="224" Value="C3" Duration="1" Instrument="Duty 0"
				Note Time="225" Value="F#2" Duration="1" Instrument="Duty 0"
				Note Time="226" Value="C2" Duration="1" Instrument="Duty 0" FinePitch="1"
				Note Time="227" Value="F1" Duration="1" Instrument="Duty 0"
				Note Time="228" Value="G1" Duration="12" Instrument="Duty 0"
				Note Time="240" Value="D2" Duration="8" Instrument="Duty 0" FinePitch="0"
				Note Time="248" Value="G3" Duration="1" Instrument="Duty 0" FinePitch="1"
				Note Time="249" Value="F#3" Duration="1" Instrument="Duty 0"
				Note Time="250" Value="G2" Duration="14" Instrument="Duty 0" FinePitch="0"
			Pattern Name="Pattern 6"
				Note Time="8" Value="G1" Duration="8" Instrument="Duty 0" FinePitch="1"
				Note Time="16" Value="C3" Duration="1" Instrument="Duty 0" FinePitch="0"
				Note Time="17" Value="F#2" Duration="1" Instrument="Duty 0"
				Note Time="18" Value="C2" Duration="1" Instrument="Duty 0" FinePitch="1"
				Note Time="19" Value="F1" Duration="1" Instrument="Duty 0"
				Note Time="20" Value="A2" Duration="12" Instrument="Duty 0"
				Note Time="32" Value="E2" Duration="8" Instrument="Duty 0" FinePitch="0"
				Note Time="40" Value="G3" Duration="1" Instrument="Duty 0" FinePitch="1"
				Note Time="41" Value="F#3" Duration="1" Instrument="Duty 0"
				Note Time="42" Value="A1" Duration="14" Instrument="Duty 0" FinePitch="0"
				Note Time="56" Value="G3" Duration="1" Instrument="Duty 0" FinePitch="1"
				Note Time="57" Value="F#3" Duration="1" Instrument="Duty 0"
				Note Time="58" Value="D2" Duration="6" Instrument="Duty 0" FinePitch="0"
				Note Time="64" Value="C3" Duration="1" Instrument="Duty 0"
				Note Time="65" Value="F#2" Duration="1" Instrument="Duty 0"
				Note Time="66" Value="C2" Duration="1" Instrument="Duty 0" FinePitch="1"
				Note Time="67" Value="F1" Duration="1" Instrument="Duty 0"
				Note Time="68" Value="E2" Duration="12" Instrument="Duty 0" FinePitch="0"
				Note Time="80" Value="D2" Duration="8" Instrument="Duty 0"
				Note Time="88" Value="G3" Duration="1" Instrument="Duty 0" FinePitch="1"
				Note Time="89" Value="F#3" Duration="1" Instrument="Duty 0"
				Note Time="90" Value="E2" Duration="14" Instrument="Duty 0" FinePitch="0"
				Note Time="104" Value="G2" Duration="8" Instrument="Duty 0"
				Note Time="112" Value="C3" Duration="1" Instrument="Duty 0"
				Note Time="113" Value="F#2" Duration="1" Instrument="Duty 0"
				Note Time="114" Value="C2" Duration="1" Instrument="Duty 0" FinePitch="1"
				Note Time="115" Value="F1" Duration="1" Instrument="Duty 0"
				Note Time="116" Value="A2" Duration="12" Instrument="Duty 0"
				Note Time="128" Value="E2" Duration="8" Instrument="Duty 0" FinePitch="0"
				Note Time="136" Value="G3" Duration="1" Instrument="Duty 0" FinePitch="1"
				Note Time="137" Value="F#3" Duration="1" Instrument="Duty 0"
				Note Time="138" Value="A1" Duration="14" Instrument="Duty 0" FinePitch="0"
				Note Time="152" Value="D2" Duration="8" Instrument="Duty 0"
				Note Time="160" Value="C3" Duration="1" Instrument="Duty 0"
				Note Time="161" Value="F#2" Duration="1" Instrument="Duty 0"
				Note Time="162" Value="C2" Duration="1" Instrument="Duty 0" FinePitch="1"
				Note Time="163" Value="F1" Duration="1" Instrument="Duty 0"
				Note Time="164" Value="G1" Duration="12" Instrument="Duty 0"
				Note Time="176" Value="D2" Duration="8" Instrument="Duty 0" FinePitch="0"
				Note Time="184" Value="G3" Duration="1" Instrument="Duty 0" FinePitch="1"
				Note Time="185" Value="F#3" Duration="1" Instrument="Duty 0"
				Note Time="186" Value="G2" Duration="14" Instrument="Duty 0" FinePitch="0"
				Note Time="200" Value="G1" Duration="8" Instrument="Duty 0" FinePitch="1"
				Note Time="208" Value="C3" Duration="1" Instrument="Duty 0" FinePitch="0"
				Note Time="209" Value="F#2" Duration="1" Instrument="Duty 0"
				Note Time="210" Value="C2" Duration="1" Instrument="Duty 0" FinePitch="1"
				Note Time="211" Value="F1" Duration="1" Instrument="Duty 0"
				Note Time="212" Value="A2" Duration="12" Instrument="Duty 0"
				Note Time="224" Value="E2" Duration="8" Instrument="Duty 0" FinePitch="0"
				Note Time="232" Value="G3" Duration="1" Instrument="Duty 0" FinePitch="1"
				Note Time="233" Value="F#3" Duration="1" Instrument="Duty 0"
				Note Time="234" Value="A1" Duration="14" Instrument="Duty 0" FinePitch="0"
				Note Time="248" Value="G3" Duration="1" Instrument="Duty 0" FinePitch="1"
				Note Time="249" Value="F#3" Duration="1" Instrument="Duty 0"
				Note Time="250" Value="D2" Duration="6" Instrument="Duty 0" FinePitch="0"
			Pattern Name="Pattern 7"
				Note Time="0" Value="C3" Duration="1" Instrument="Duty 0"
				Note Time="1" Value="F#2" Duration="1" Instrument="Duty 0"
				Note Time="2" Value="C2" Duration="1" Instrument="Duty 0" FinePitch="1"
				Note Time="3" Value="F1" Duration="1" Instrument="Duty 0"
				Note Time="4" Value="E2" Duration="12" Instrument="Duty 0" FinePitch="0"
				Note Time="16" Value="D2" Duration="8" Instrument="Duty 0"
				Note Time="24" Value="G3" Duration="1" Instrument="Duty 0" FinePitch="1"
				Note Time="25" Value="F#3" Duration="1" Instrument="Duty 0"
				Note Time="26" Value="E2" Duration="14" Instrument="Duty 0" FinePitch="0"
				Note Time="40" Value="G2" Duration="8" Instrument="Duty 0"
				Note Time="48" Value="C3" Duration="1" Instrument="Duty 0"
				Note Time="49" Value="F#2" Duration="1" Instrument="Duty 0"
				Note Time="50" Value="C2" Duration="1" Instrument="Duty 0" FinePitch="1"
				Note Time="51" Value="F1" Duration="1" Instrument="Duty 0"
				Note Time="52" Value="A2" Duration="12" Instrument="Duty 0"
				Note Time="64" Value="E2" Duration="8" Instrument="Duty 0" FinePitch="0"
				Note Time="72" Value="G3" Duration="1" Instrument="Duty 0" FinePitch="1"
				Note Time="73" Value="F#3" Duration="1" Instrument="Duty 0"
				Note Time="74" Value="A1" Duration="14" Instrument="Duty 0" FinePitch="0"
				Note Time="88" Value="D2" Duration="8" Instrument="Duty 0"
				Note Time="96" Value="C3" Duration="1" Instrument="Duty 0"
				Note Time="97" Value="F#2" Duration="1" Instrument="Duty 0"
				Note Time="98" Value="C2" Duration="1" Instrument="Duty 0" FinePitch="1"
				Note Time="99" Value="F1" Duration="1" Instrument="Duty 0"
				Note Time="100" Value="G1" Duration="12" Instrument="Duty 0"
				Note Time="112" Value="D2" Duration="8" Instrument="Duty 0" FinePitch="0"
				Note Time="120" Value="G3" Duration="1" Instrument="Duty 0" FinePitch="1"
				Note Time="121" Value="F#3" Duration="1" Instrument="Duty 0"
				Note Time="122" Value="G2" Duration="14" Instrument="Duty 0" FinePitch="0"
				Note Time="136" Value="G1" Duration="8" Instrument="Duty 0" FinePitch="1"
				Note Time="144" Value="C3" Duration="1" Instrument="Duty 0" FinePitch="0"
				Note Time="145" Value="F#2" Duration="1" Instrument="Duty 0"
				Note Time="146" Value="C2" Duration="1" Instrument="Duty 0" FinePitch="1"
				Note Time="147" Value="F1" Duration="1" Instrument="Duty 0"
				Note Time="148" Value="A2" Duration="12" Instrument="Duty 0"
				Note Time="160" Value="E2" Duration="8" Instrument="Duty 0" FinePitch="0"
				Note Time="168" Value="G3" Duration="1" Instrument="Duty 0" FinePitch="1"
				Note Time="169" Value="F#3" Duration="1" Instrument="Duty 0"
				Note Time="170" Value="A1" Duration="14" Instrument="Duty 0" FinePitch="0"
				Note Time="184" Value="G3" Duration="1" Instrument="Duty 0" FinePitch="1"
				Note Time="185" Value="F#3" Duration="1" Instrument="Duty 0"
				Note Time="186" Value="D2" Duration="6" Instrument="Duty 0" FinePitch="0"
				Note Time="192" Value="C3" Duration="1" Instrument="Duty 0"
				Note Time="193" Value="F#2" Duration="1" Instrument="Duty 0"
				Note Time="194" Value="C2" Duration="1" Instrument="Duty 0" FinePitch="1"
				Note Time="195" Value="F1" Duration="1" Instrument="Duty 0"
				Note Time="196" Value="B1" Duration="12" Instrument="Duty 0" FinePitch="0"
				Note Time="208" Value="A1" Duration="8" Instrument="Duty 0"
				Note Time="216" Value="G3" Duration="1" Instrument="Duty 0" FinePitch="1"
				Note Time="217" Value="F#3" Duration="1" Instrument="Duty 0"
				Note Time="218" Value="B1" Duration="14" Instrument="Duty 0" FinePitch="0"
				Note Time="232" Value="C#2" Duration="8" Instrument="Duty 0" FinePitch="1"
				Note Time="240" Value="C3" Duration="1" Instrument="Duty 0" FinePitch="0"
				Note Time="241" Value="F#2" Duration="1" Instrument="Duty 0"
				Note Time="242" Value="C2" Duration="1" Instrument="Duty 0" FinePitch="1"
				Note Time="243" Value="F1" Duration="1" Instrument="Duty 0"
				Note Time="244" Value="D2" Duration="4" Instrument="Duty 0" FinePitch="0"
				Note Time="248" Value="C#2" Duration="8" Instrument="Duty 0" FinePitch="1"
			Pattern Name="Pattern 8"
				Note Time="0" Value="G3" Duration="1" Instrument="Duty 0"
				Note Time="1" Value="F#3" Duration="1" Instrument="Duty 0"
				Note Time="2" Value="B1" Duration="8" Instrument="Duty 0" FinePitch="0"
				Note Time="16" Value="G3" Duration="1" Instrument="Duty 0" FinePitch="1"
				Note Time="17" Value="F#3" Duration="1" Instrument="Duty 0"
				Note Time="18" Value="A1" Duration="8" Instrument="Duty 0" FinePitch="0"
				Note Time="32" Value="C3" Duration="1" Instrument="Duty 0"
				Note Time="33" Value="F#2" Duration="1" Instrument="Duty 0"
				Note Time="34" Value="C2" Duration="1" Instrument="Duty 0" FinePitch="1"
				Note Time="35" Value="F1" Duration="1" Instrument="Duty 0"
				Note Time="36" Value="B1" Duration="20" Instrument="Duty 0" FinePitch="0"
				Note Time="56" Value="G3" Duration="1" Instrument="Duty 0" FinePitch="1"
				Note Time="57" Value="F#3" Duration="1" Instrument="Duty 0"
				Note Time="58" Value="E2" Duration="14" Instrument="Duty 0" FinePitch="0"
				Note Time="72" Value="F#2" Duration="8" Instrument="Duty 0"
				Note Time="80" Value="C3" Duration="1" Instrument="Duty 0"
				Note Time="81" Value="F#2" Duration="1" Instrument="Duty 0"
				Note Time="82" Value="C2" Duration="1" Instrument="Duty 0" FinePitch="1"
				Note Time="83" Value="F1" Duration="1" Instrument="Duty 0"
				Note Time="84" Value="D2" Duration="20" Instrument="Duty 0" FinePitch="0"
				Note Time="104" Value="G3" Duration="1" Instrument="Duty 0" FinePitch="1"
				Note Time="105" Value="F#3" Duration="1" Instrument="Duty 0"
				Note Time="106" Value="C#2" Duration="14" Instrument="Duty 0"
				Note Time="120" Value="D2" Duration="8" Instrument="Duty 0" FinePitch="0"
				Note Time="128" Value="C3" Duration="1" Instrument="Duty 0"
				Note Time="129" Value="F#2" Duration="1" Instrument="Duty 0"
				Note Time="130" Value="C2" Duration="1" Instrument="Duty 0" FinePitch="1"
				Note Time="131" Value="F1" Duration="1" Instrument="Duty 0"
				Note Time="132" Value="B1" Duration="12" Instrument="Duty 0" FinePitch="0"
				Note Time="144" Value="A1" Duration="8" Instrument="Duty 0"
				Note Time="152" Value="G3" Duration="1" Instrument="Duty 0" FinePitch="1"
				Note Time="153" Value="F#3" Duration="1" Instrument="Duty 0"
				Note Time="154" Value="B1" Duration="14" Instrument="Duty 0" FinePitch="0"
				Note Time="168" Value="C#2" Duration="8" Instrument="Duty 0" FinePitch="1"
				Note Time="176" Value="C3" Duration="1" Instrument="Duty 0" FinePitch="0"
				Note Time="177" Value="F#2" Duration="1" Instrument="Duty 0"
				Note Time="178" Value="C2" Duration="1" Instrument="Duty 0" FinePitch="1"
				Note Time="179" Value="F1" Duration="1" Instrument="Duty 0"
				Note Time="180" Value="D2" Duration="4" Instrument="Duty 0" FinePitch="0"
				Note Time="184" Value="C#2" Duration="8" Instrument="Duty 0" FinePitch="1"
				Note Time="192" Value="G3" Duration="1" Instrument="Duty 0"
				Note Time="193" Value="F#3" Duration="1" Instrument="Duty 0"
				Note Time="194" Value="B1" Duration="8" Instrument="Duty 0" FinePitch="0"
				Note Time="208" Value="G3" Duration="1" Instrument="Duty 0" FinePitch="1"
				Note Time="209" Value="F#3" Duration="1" Instrument="Duty 0"
				Note Time="210" Value="A1" Duration="8" Instrument="Duty 0" FinePitch="0"
				Note Time="224" Value="C3" Duration="1" Instrument="Duty 0"
				Note Time="225" Value="F#2" Duration="1" Instrument="Duty 0"
				Note Time="226" Value="C2" Duration="1" Instrument="Duty 0" FinePitch="1"
				Note Time="227" Value="F1" Duration="1" Instrument="Duty 0"
				Note Time="228" Value="B1" Duration="20" Instrument="Duty 0" FinePitch="0"
				Note Time="248" Value="G3" Duration="1" Instrument="Duty 0" FinePitch="1"
				Note Time="249" Value="F#3" Duration="1" Instrument="Duty 0"
				Note Time="250" Value="E2" Duration="14" Instrument="Duty 0" FinePitch="0"
			Pattern Name="Pattern 9"
				Note Time="8" Value="F#2" Duration="8" Instrument="Duty 0"
				Note Time="16" Value="C3" Duration="1" Instrument="Duty 0"
				Note Time="17" Value="F#2" Duration="1" Instrument="Duty 0"
				Note Time="18" Value="C2" Duration="1" Instrument="Duty 0" FinePitch="1"
				Note Time="19" Value="F1" Duration="1" Instrument="Duty 0"
				Note Time="20" Value="D2" Duration="20" Instrument="Duty 0" FinePitch="0"
				Note Time="40" Value="G3" Duration="1" Instrument="Duty 0" FinePitch="1"
				Note Time="41" Value="F#3" Duration="1" Instrument="Duty 0"
				Note Time="42" Value="C#2" Duration="14" Instrument="Duty 0"
				Note Time="56" Value="D2" Duration="8" Instrument="Duty 0" FinePitch="0"
				Note Time="64" Value="C3" Duration="1" Instrument="Duty 0"
				Note Time="65" Value="F#2" Duration="1" Instrument="Duty 0"
				Note Time="66" Value="C2" Duration="1" Instrument="Duty 0" FinePitch="1"
				Note Time="67" Value="F1" Duration="1" Instrument="Duty 0"
				Note Time="68" Value="B1" Duration="12" Instrument="Duty 0" FinePitch="0"
				Note Time="80" Value="A1" Duration="8" Instrument="Duty 0"
				Note Time="88" Value="G3" Duration="1" Instrument="Duty 0" FinePitch="1"
				Note Time="89" Value="F#3" Duration="1" Instrument="Duty 0"
				Note Time="90" Value="B1" Duration="14" Instrument="Duty 0" FinePitch="0"
				Note Time="104" Value="C#2" Duration="8" Instrument="Duty 0" FinePitch="1"
				Note Time="112" Value="C3" Duration="1" Instrument="Duty 0" FinePitch="0"
				Note Time="113" Value="F#2" Duration="1" Instrument="Duty 0"
				Note Time="114" Value="C2" Duration="1" Instrument="Duty 0" FinePitch="1"
				Note Time="115" Value="F1" Duration="1" Instrument="Duty 0"
				Note Time="116" Value="D2" Duration="4" Instrument="Duty 0" FinePitch="0"
				Note Time="120" Value="C#2" Duration="8" Instrument="Duty 0" FinePitch="1"
				Note Time="128" Value="G3" Duration="1" Instrument="Duty 0"
				Note Time="129" Value="F#3" Duration="1" Instrument="Duty 0"
				Note Time="130" Value="B1" Duration="8" Instrument="Duty 0" FinePitch="0"
				Note Time="144" Value="G3" Duration="1" Instrument="Duty 0" FinePitch="1"
				Note Time="145" Value="F#3" Duration="1" Instrument="Duty 0"
				Note Time="146" Value="A1" Duration="8" Instrument="Duty 0" FinePitch="0"
				Note Time="160" Value="C3" Duration="1" Instrument="Duty 0"
				Note Time="161" Value="F#2" Duration="1" Instrument="Duty 0"
				Note Time="162" Value="C2" Duration="1" Instrument="Duty 0" FinePitch="1"
				Note Time="163" Value="F1" Duration="1" Instrument="Duty 0"
				Note Time="164" Value="B1" Duration="20" Instrument="Duty 0" FinePitch="0"
				Note Time="184" Value="G3" Duration="1" Instrument="Duty 0" FinePitch="1"
				Note Time="185" Value="F#3" Duration="1" Instrument="Duty 0"
				Note Time="186" Value="E2" Duration="14" Instrument="Duty 0" FinePitch="0"
				Note Time="200" Value="F#2" Duration="8" Instrument="Duty 0"
				Note Time="208" Value="C3" Duration="1" Instrument="Duty 0"
				Note Time="209" Value="F#2" Duration="1" Instrument="Duty 0"
				Note Time="210" Value="C2" Duration="1" Instrument="Duty 0" FinePitch="1"
				Note Time="211" Value="F1" Duration="1" Instrument="Duty 0"
				Note Time="212" Value="D2" Duration="20" Instrument="Duty 0" FinePitch="0"
				Note Time="232" Value="G3" Duration="1" Instrument="Duty 0" FinePitch="1"
				Note Time="233" Value="F#3" Duration="1" Instrument="Duty 0"
				Note Time="234" Value="C#2" Duration="14" Instrument="Duty 0"
				Note Time="248" Value="D2" Duration="8" Instrument="Duty 0" FinePitch="0"
			Pattern Name="Pattern 10"
				Note Time="0" Value="C3" Duration="1" Instrument="Duty 0"
				Note Time="1" Value="F#2" Duration="1" Instrument="Duty 0"
				Note Time="2" Value="C2" Duration="1" Instrument="Duty 0" FinePitch="1"
				Note Time="3" Value="F1" Duration="1" Instrument="Duty 0"
				Note Time="4" Value="B1" Duration="12" Instrument="Duty 0" FinePitch="0"
				Note Time="16" Value="A1" Duration="8" Instrument="Duty 0"
				Note Time="24" Value="G3" Duration="1" Instrument="Duty 0" FinePitch="1"
				Note Time="25" Value="F#3" Duration="1" Instrument="Duty 0"
				Note Time="26" Value="B1" Duration="14" Instrument="Duty 0" FinePitch="0"
				Note Time="40" Value="C#2" Duration="8" Instrument="Duty 0" FinePitch="1"
				Note Time="48" Value="C3" Duration="1" Instrument="Duty 0" FinePitch="0"
				Note Time="49" Value="F#2" Duration="1" Instrument="Duty 0"
				Note Time="50" Value="C2" Duration="1" Instrument="Duty 0" FinePitch="1"
				Note Time="51" Value="F1" Duration="1" Instrument="Duty 0"
				Note Time="52" Value="D2" Duration="4" Instrument="Duty 0" FinePitch="0"
				Note Time="56" Value="C#2" Duration="8" Instrument="Duty 0" FinePitch="1"
				Note Time="64" Value="G3" Duration="1" Instrument="Duty 0"
				Note Time="65" Value="F#3" Duration="1" Instrument="Duty 0"
				Note Time="66" Value="B1" Duration="8" Instrument="Duty 0" FinePitch="0"
				Note Time="80" Value="G3" Duration="1" Instrument="Duty 0" FinePitch="1"
				Note Time="81" Value="F#3" Duration="1" Instrument="Duty 0"
				Note Time="82" Value="A1" Duration="8" Instrument="Duty 0" FinePitch="0"
				Note Time="96" Value="C3" Duration="1" Instrument="Duty 0"
				Note Time="97" Value="F#2" Duration="1" Instrument="Duty 0"
				Note Time="98" Value="C2" Duration="1" Instrument="Duty 0" FinePitch="1"
				Note Time="99" Value="F1" Duration="1" Instrument="Duty 0"
				Note Time="100" Value="B1" Duration="20" Instrument="Duty 0" FinePitch="0"
				Note Time="120" Value="G3" Duration="1" Instrument="Duty 0" FinePitch="1"
				Note Time="121" Value="F#3" Duration="1" Instrument="Duty 0"
				Note Time="122" Value="E2" Duration="14" Instrument="Duty 0" FinePitch="0"
				Note Time="136" Value="F#2" Duration="8" Instrument="Duty 0"
				Note Time="144" Value="C3" Duration="1" Instrument="Duty 0"
				Note Time="145" Value="F#2" Duration="1" Instrument="Duty 0"
				Note Time="146" Value="C2" Duration="1" Instrument="Duty 0" FinePitch="1"
				Note Time="147" Value="F1" Duration="1" Instrument="Duty 0"
				Note Time="148" Value="D2" Duration="20" Instrument="Duty 0" FinePitch="0"
				Note Time="168" Value="G3" Duration="1" Instrument="Duty 0" FinePitch="1"
				Note Time="169" Value="F#3" Duration="1" Instrument="Duty 0"
				Note Time="170" Value="C#2" Duration="14" Instrument="Duty 0"
				Note Time="184" Value="D2" Duration="8" Instrument="Duty 0" FinePitch="0"
				Note Time="192" Value="C3" Duration="1" Instrument="Duty 0"
				Note Time="193" Value="F#2" Duration="1" Instrument="Duty 0"
				Note Time="194" Value="C2" Duration="1" Instrument="Duty 0" FinePitch="1"
				Note Time="195" Value="F1" Duration="1" Instrument="Duty 0"
				Note Time="196" Value="F#1" Duration="12" Instrument="Duty 0"
				Note Time="208" Value="F#2" Duration="8" Instrument="Duty 0" FinePitch="0"
				Note Time="216" Value="G3" Duration="1" Instrument="Duty 0" FinePitch="1"
				Note Time="217" Value="F#3" Duration="1" Instrument="Duty 0"
				Note Time="218" Value="F#1" Duration="14" Instrument="Duty 0"
				Note Time="232" Value="E2" Duration="8" Instrument="Duty 0" FinePitch="0"
				Note Time="240" Value="C3" Duration="1" Instrument="Duty 0"
				Note Time="241" Value="F#2" Duration="1" Instrument="Duty 0"
				Note Time="242" Value="C2" Duration="1" Instrument="Duty 0" FinePitch="1"
				Note Time="243" Value="F1" Duration="1" Instrument="Duty 0"
				Note Time="244" Value="F#2" Duration="4" Instrument="Duty 0" FinePitch="0"
				Note Time="248" Value="G3" Duration="1" Instrument="Duty 0" FinePitch="1"
				Note Time="249" Value="F#3" Duration="1" Instrument="Duty 0"
				Note Time="250" Value="E2" Duration="6" Instrument="Duty 0" FinePitch="0"
			Pattern Name="Pattern 11"
				Note Time="0" Value="G3" Duration="1" Instrument="Duty 0" FinePitch="1"
				Note Time="1" Value="F#3" Duration="1" Instrument="Duty 0"
				Note Time="2" Value="C#2" Duration="6" Instrument="Duty 0"
				Note Time="8" Value="C3" Duration="1" Instrument="Duty 0" FinePitch="0"
				Note Time="9" Value="F#2" Duration="1" Instrument="Duty 0"
				Note Time="10" Value="C2" Duration="1" Instrument="Duty 0" FinePitch="1"
				Note Time="11" Value="F1" Duration="1" Instrument="Duty 0"
				Note Time="12" Value="B1" Duration="4" Instrument="Duty 0" FinePitch="0"
				Note Time="16" Value="G3" Duration="1" Instrument="Duty 0" FinePitch="1"
				Note Time="17" Value="F#3" Duration="1" Instrument="Duty 0"
				Note Time="18" Value="A1" Duration="6" Instrument="Duty 0" FinePitch="0"
				Note Time="24" Value="G3" Duration="1" Instrument="Duty 0" FinePitch="1"
				Note Time="25" Value="F#3" Duration="1" Instrument="Duty 0"
				Note Time="26" Value="G#1" Duration="6" Instrument="Duty 0"
				Note Time="32" Value="C3" Duration="1" Instrument="Duty 0" FinePitch="0"
				Note Time="33" Value="F#2" Duration="1" Instrument="Duty 0"
				Note Time="34" Value="C2" Duration="1" Instrument="Duty 0" FinePitch="1"
				Note Time="35" Value="F1" Duration="1" Instrument="Duty 0"
				Note Time="36" Value="F#1" Duration="12" Instrument="Duty 0"
				Note Time="48" Value="F#2" Duration="8" Instrument="Duty 0" FinePitch="0"
				Note Time="56" Value="G3" Duration="1" Instrument="Duty 0" FinePitch="1"
				Note Time="57" Value="F#3" Duration="1" Instrument="Duty 0"
				Note Time="58" Value="F#1" Duration="14" Instrument="Duty 0"
				Note Time="72" Value="C3" Duration="1" Instrument="Duty 0" FinePitch="0"
				Note Time="73" Value="F#2" Duration="1" Instrument="Duty 0"
				Note Time="74" Value="C2" Duration="1" Instrument="Duty 0" FinePitch="1"
				Note Time="75" Value="F1" Duration="1" Instrument="Duty 0"
				Note Time="76" Value="E2" Duration="4" Instrument="Duty 0" FinePitch="0"
				Note Time="80" Value="G3" Duration="1" Instrument="Duty 0" FinePitch="1"
				Note Time="81" Value="F#3" Duration="1" Instrument="Duty 0"
				Note Time="82" Value="F#2" Duration="9" Instrument="Duty 0" FinePitch="0"
				Note Time="96" Value="G3" Duration="1" Instrument="Duty 0" FinePitch="1"
				Note Time="97" Value="F#3" Duration="1" Instrument="Duty 0"
				Note Time="98" Value="F#2" Duration="9" Instrument="Duty 0" FinePitch="0"
				Note Time="112" Value="G3" Duration="1" Instrument="Duty 0" FinePitch="1"
				Note Time="113" Value="F#3" Duration="1" Instrument="Duty 0"
				Note Time="114" Value="F#2" Duration="9" Instrument="Duty 0" FinePitch="0"
				Note Time="128" Value="C3" Duration="1" Instrument="Duty 0"
				Note Time="129" Value="F#2" Duration="1" Instrument="Duty 0"
				Note Time="130" Value="C2" Duration="1" Instrument="Duty 0" FinePitch="1"
				Note Time="131" Value="F1" Duration="1" Instrument="Duty 0"
				Note Time="132" Value="F#1" Duration="12" Instrument="Duty 0"
				Note Time="144" Value="F#2" Duration="8" Instrument="Duty 0" FinePitch="0"
				Note Time="152" Value="G3" Duration="1" Instrument="Duty 0" FinePitch="1"
				Note Time="153" Value="F#3" Duration="1" Instrument="Duty 0"
				Note Time="154" Value="F#1" Duration="14" Instrument="Duty 0"
				Note Time="168" Value="E2" Duration="8" Instrument="Duty 0" FinePitch="0"
				Note Time="176" Value="C3" Duration="1" Instrument="Duty 0"
				Note Time="177" Value="F#2" Duration="1" Instrument="Duty 0"
				Note Time="178" Value="C2" Duration="1" Instrument="Duty 0" FinePitch="1"
				Note Time="179" Value="F1" Duration="1" Instrument="Duty 0"
				Note Time="180" Value="F#2" Duration="4" Instrument="Duty 0" FinePitch="0"
				Note Time="184" Value="G3" Duration="1" Instrument="Duty 0" FinePitch="1"
				Note Time="185" Value="F#3" Duration="1" Instrument="Duty 0"
				Note Time="186" Value="E2" Duration="6" Instrument="Duty 0" FinePitch="0"
				Note Time="192" Value="G3" Duration="1" Instrument="Duty 0" FinePitch="1"
				Note Time="193" Value="F#3" Duration="1" Instrument="Duty 0"
				Note Time="194" Value="C#2" Duration="6" Instrument="Duty 0"
				Note Time="200" Value="C3" Duration="1" Instrument="Duty 0" FinePitch="0"
				Note Time="201" Value="F#2" Duration="1" Instrument="Duty 0"
				Note Time="202" Value="C2" Duration="1" Instrument="Duty 0" FinePitch="1"
				Note Time="203" Value="F1" Duration="1" Instrument="Duty 0"
				Note Time="204" Value="B1" Duration="4" Instrument="Duty 0" FinePitch="0"
				Note Time="208" Value="G3" Duration="1" Instrument="Duty 0" FinePitch="1"
				Note Time="209" Value="F#3" Duration="1" Instrument="Duty 0"
				Note Time="210" Value="A1" Duration="6" Instrument="Duty 0" FinePitch="0"
				Note Time="216" Value="G3" Duration="1" Instrument="Duty 0" FinePitch="1"
				Note Time="217" Value="F#3" Duration="1" Instrument="Duty 0"
				Note Time="218" Value="G#1" Duration="6" Instrument="Duty 0"
				Note Time="224" Value="C3" Duration="1" Instrument="Duty 0" FinePitch="0"
				Note Time="225" Value="F#2" Duration="1" Instrument="Duty 0"
				Note Time="226" Value="C2" Duration="1" Instrument="Duty 0" FinePitch="1"
				Note Time="227" Value="F1" Duration="1" Instrument="Duty 0"
				Note Time="228" Value="F#1" Duration="12" Instrument="Duty 0"
				Note Time="240" Value="F#2" Duration="8" Instrument="Duty 0" FinePitch="0"
				Note Time="248" Value="G3" Duration="1" Instrument="Duty 0" FinePitch="1"
				Note Time="249" Value="F#3" Duration="1" Instrument="Duty 0"
				Note Time="250" Value="F#1" Duration="14" Instrument="Duty 0"
			Pattern Name="Pattern 12"
				Note Time="8" Value="C3" Duration="1" Instrument="Duty 0" FinePitch="0"
				Note Time="9" Value="F#2" Duration="1" Instrument="Duty 0"
				Note Time="10" Value="C2" Duration="1" Instrument="Duty 0" FinePitch="1"
				Note Time="11" Value="F1" Duration="1" Instrument="Duty 0"
				Note Time="12" Value="E2" Duration="4" Instrument="Duty 0" FinePitch="0"
				Note Time="16" Value="G3" Duration="1" Instrument="Duty 0" FinePitch="1"
				Note Time="17" Value="F#3" Duration="1" Instrument="Duty 0"
				Note Time="18" Value="F#2" Duration="9" Instrument="Duty 0" FinePitch="0"
				Note Time="32" Value="G3" Duration="1" Instrument="Duty 0" FinePitch="1"
				Note Time="33" Value="F#3" Duration="1" Instrument="Duty 0"
				Note Time="34" Value="F#2" Duration="9" Instrument="Duty 0" FinePitch="0"
				Note Time="48" Value="G3" Duration="1" Instrument="Duty 0" FinePitch="1"
				Note Time="49" Value="F#3" Duration="1" Instrument="Duty 0"
				Note Time="50" Value="F#2" Duration="9" Instrument="Duty 0" FinePitch="0"
				Note Time="64" Value="C3" Duration="1" Instrument="Duty 0"
				Note Time="65" Value="F#2" Duration="1" Instrument="Duty 0"
				Note Time="66" Value="C2" Duration="1" Instrument="Duty 0" FinePitch="1"
				Note Time="67" Value="F1" Duration="1" Instrument="Duty 0"
				Note Time="68" Value="F#1" Duration="12" Instrument="Duty 0"
				Note Time="80" Value="F#2" Duration="8" Instrument="Duty 0" FinePitch="0"
				Note Time="88" Value="G3" Duration="1" Instrument="Duty 0" FinePitch="1"
				Note Time="89" Value="F#3" Duration="1" Instrument="Duty 0"
				Note Time="90" Value="F#1" Duration="14" Instrument="Duty 0"
				Note Time="104" Value="E2" Duration="8" Instrument="Duty 0" FinePitch="0"
				Note Time="112" Value="C3" Duration="1" Instrument="Duty 0"
				Note Time="113" Value="F#2" Duration="1" Instrument="Duty 0"
				Note Time="114" Value="C2" Duration="1" Instrument="Duty 0" FinePitch="1"
				Note Time="115" Value="F1" Duration="1" Instrument="Duty 0"
				Note Time="116" Value="F#2" Duration="4" Instrument="Duty 0" FinePitch="0"
				Note Time="120" Value="G3" Duration="1" Instrument="Duty 0" FinePitch="1"
				Note Time="121" Value="F#3" Duration="1" Instrument="Duty 0"
				Note Time="122" Value="E2" Duration="6" Instrument="Duty 0" FinePitch="0"
				Note Time="128" Value="G3" Duration="1" Instrument="Duty 0" FinePitch="1"
				Note Time="129" Value="F#3" Duration="1" Instrument="Duty 0"
				Note Time="130" Value="C#2" Duration="6" Instrument="Duty 0"
				Note Time="136" Value="C3" Duration="1" Instrument="Duty 0" FinePitch="0"
				Note Time="137" Value="F#2" Duration="1" Instrument="Duty 0"
				Note Time="138" Value="C2" Duration="1" Instrument="Duty 0" FinePitch="1"
				Note Time="139" Value="F1" Duration="1" Instrument="Duty 0"
				Note Time="140" Value="B1" Duration="4" Instrument="Duty 0" FinePitch="0"
				Note Time="144" Value="G3" Duration="1" Instrument="Duty 0" FinePitch="1"
				Note Time="145" Value="F#3" Duration="1" Instrument="Duty 0"
				Note Time="146" Value="A1" Duration="6" Instrument="Duty 0" FinePitch="0"
				Note Time="152" Value="G3" Duration="1" Instrument="Duty 0" FinePitch="1"
				Note Time="153" Value="F#3" Duration="1" Instrument="Duty 0"
				Note Time="154" Value="G#1" Duration="6" Instrument="Duty 0"
				Note Time="160" Value="C3" Duration="1" Instrument="Duty 0" FinePitch="0"
				Note Time="161" Value="F#2" Duration="1" Instrument="Duty 0"
				Note Time="162" Value="C2" Duration="1" Instrument="Duty 0" FinePitch="1"
				Note Time="163" Value="F1" Duration="1" Instrument="Duty 0"
				Note Time="164" Value="F#1" Duration="12" Instrument="Duty 0"
				Note Time="176" Value="F#2" Duration="8" Instrument="Duty 0" FinePitch="0"
				Note Time="184" Value="G3" Duration="1" Instrument="Duty 0" FinePitch="1"
				Note Time="185" Value="F#3" Duration="1" Instrument="Duty 0"
				Note Time="186" Value="F#1" Duration="14" Instrument="Duty 0"
				Note Time="200" Value="C3" Duration="1" Instrument="Duty 0" FinePitch="0"
				Note Time="201" Value="F#2" Duration="1" Instrument="Duty 0"
				Note Time="202" Value="C2" Duration="1" Instrument="Duty 0" FinePitch="1"
				Note Time="203" Value="F1" Duration="1" Instrument="Duty 0"
				Note Time="204" Value="E2" Duration="4" Instrument="Duty 0" FinePitch="0"
				Note Time="208" Value="G3" Duration="1" Instrument="Duty 0" FinePitch="1"
				Note Time="209" Value="F#3" Duration="1" Instrument="Duty 0"
				Note Time="210" Value="F#2" Duration="9" Instrument="Duty 0" FinePitch="0"
				Note Time="224" Value="G3" Duration="1" Instrument="Duty 0" FinePitch="1"
				Note Time="225" Value="F#3" Duration="1" Instrument="Duty 0"
				Note Time="226" Value="F#2" Duration="9" Instrument="Duty 0" FinePitch="0"
				Note Time="240" Value="G3" Duration="1" Instrument="Duty 0" FinePitch="1"
				Note Time="241" Value="F#3" Duration="1" Instrument="Duty 0"
				Note Time="242" Value="F#2" Duration="9" Instrument="Duty 0" FinePitch="0"
			Pattern Name="Pattern 13"
				Note Time="0" Value="C3" Duration="1" Instrument="Duty 0"
				Note Time="1" Value="F#2" Duration="1" Instrument="Duty 0"
				Note Time="2" Value="C2" Duration="1" Instrument="Duty 0" FinePitch="1"
				Note Time="3" Value="F1" Duration="1" Instrument="Duty 0"
				Note Time="4" Value="F#1" Duration="12" Instrument="Duty 0"
				Note Time="16" Value="F#2" Duration="8" Instrument="Duty 0" FinePitch="0"
				Note Time="24" Value="G3" Duration="1" Instrument="Duty 0" FinePitch="1"
				Note Time="25" Value="F#3" Duration="1" Instrument="Duty 0"
				Note Time="26" Value="F#1" Duration="14" Instrument="Duty 0"
				Note Time="40" Value="E2" Duration="8" Instrument="Duty 0" FinePitch="0"
				Note Time="48" Value="C3" Duration="1" Instrument="Duty 0"
				Note Time="49" Value="F#2" Duration="1" Instrument="Duty 0"
				Note Time="50" Value="C2" Duration="1" Instrument="Duty 0" FinePitch="1"
				Note Time="51" Value="F1" Duration="1" Instrument="Duty 0"
				Note Time="52" Value="F#2" Duration="4" Instrument="Duty 0" FinePitch="0"
				Note Time="56" Value="G3" Duration="1" Instrument="Duty 0" FinePitch="1"
				Note Time="57" Value="F#3" Duration="1" Instrument="Duty 0"
				Note Time="58" Value="E2" Duration="6" Instrument="Duty 0" FinePitch="0"
				Note Time="64" Value="G3" Duration="1" Instrument="Duty 0" FinePitch="1"
				Note Time="65" Value="F#3" Duration="1" Instrument="Duty 0"
				Note Time="66" Value="C#2" Duration="6" Instrument="Duty 0"
				Note Time="72" Value="C3" Duration="1" Instrument="Duty 0" FinePitch="0"
				Note Time="73" Value="F#2" Duration="1" Instrument="Duty 0"
				Note Time="74" Value="C2" Duration="1" Instrument="Duty 0" FinePitch="1"
				Note Time="75" Value="F1" Duration="1" Instrument="Duty 0"
				Note Time="76" Value="B1" Duration="4" Instrument="Duty 0" FinePitch="0"
				Note Time="80" Value="G3" Duration="1" Instrument="Duty 0" FinePitch="1"
				Note Time="81" Value="F#3" Duration="1" Instrument="Duty 0"
				Note Time="82" Value="A1" Duration="6" Instrument="Duty 0" FinePitch="0"
				Note Time="88" Value="G3" Duration="1" Instrument="Duty 0" FinePitch="1"
				Note Time="89" Value="F#3" Duration="1" Instrument="Duty 0"
				Note Time="90" Value="G#1" Duration="6" Instrument="Duty 0"
				Note Time="96" Value="C3" Duration="1" Instrument="Duty 0" FinePitch="0"
				Note Time="97" Value="F#2" Duration="1" Instrument="Duty 0"
				Note Time="98" Value="C2" Duration="1" Instrument="Duty 0" FinePitch="1"
				Note Time="99" Value="F1" Duration="1" Instrument="Duty 0"
				Note Time="100" Value="F#1" Duration="12" Instrument="Duty 0"
				Note Time="112" Value="F#2" Duration="8" Instrument="Duty 0" FinePitch="0"
				Note Time="120" Value="G3" Duration="1" Instrument="Duty 0" FinePitch="1"
				Note Time="121" Value="F#3" Duration="1" Instrument="Duty 0"
				Note Time="122" Value="F#1" Duration="14" Instrument="Duty 0"
				Note Time="136" Value="C3" Duration="1" Instrument="Duty 0" FinePitch="0"
				Note Time="137" Value="F#2" Duration="1" Instrument="Duty 0"
				Note Time="138" Value="C2" Duration="1" Instrument="Duty 0" FinePitch="1"
				Note Time="139" Value="F1" Duration="1" Instrument="Duty 0"
				Note Time="140" Value="E2" Duration="4" Instrument="Duty 0" FinePitch="0"
				Note Time="144" Value="G3" Duration="1" Instrument="Duty 0" FinePitch="1"
				Note Time="145" Value="F#3" Duration="1" Instrument="Duty 0"
				Note Time="146" Value="F#2" Duration="9" Instrument="Duty 0" FinePitch="0"
				Note Time="160" Value="G3" Duration="1" Instrument="Duty 0" FinePitch="1"
				Note Time="161" Value="F#3" Duration="1" Instrument="Duty 0"
				Note Time="162" Value="F#2" Duration="9" Instrument="Duty 0" FinePitch="0"
				Note Time="176" Value="G3" Duration="1" Instrument="Duty 0" FinePitch="1"
				Note Time="177" Value="F#3" Duration="1" Instrument="Duty 0"
				Note Time="178" Value="F#2" Duration="9" Instrument="Duty 0" FinePitch="0"
				Note Time="192" Value="C#3" Duration="1" Instrument="Duty 0"
				Note Time="193" Value="G2" Duration="1" Instrument="Duty 0"
				Note Time="194" Value="D2" Duration="1" Instrument="Duty 0"
				Note Time="195" Value="A#1" Duration="1" Instrument="Duty 0"
				Note Time="196" Value="G1" Duration="1" Instrument="Duty 0" FinePitch="1"
				Note Time="197" Value="F1" Duration="1" Instrument="Duty 0"
				Note Time="198" Value="E1" Duration="1" Instrument="Duty 0"
				Note Time="199" Value="C#2" Duration="9" Instrument="Duty 0"
				Note Time="208" Value="B1" Duration="8" Instrument="Duty 0" FinePitch="0"
				Note Time="216" Value="C#2" Duration="16" Instrument="Duty 0" FinePitch="1"
				Note Time="232" Value="E2" Duration="8" Instrument="Duty 0" FinePitch="0"
				Note Time="240" Value="G3" Duration="1" Instrument="Duty 0" FinePitch="1"
				Note Time="241" Value="F#3" Duration="1" Instrument="Duty 0"
				Note Time="242" Value="D2" Duration="6" Instrument="Duty 0" FinePitch="0"
				Note Time="248" Value="G3" Duration="1" Instrument="Duty 0" FinePitch="1"
				Note Time="249" Value="F#3" Duration="1" Instrument="Duty 0"
				Note Time="250" Value="D2" Duration="6" Instrument="Duty 0" FinePitch="0"
			Pattern Name="Pattern 14"
				Note Time="0" Value="G3" Duration="1" Instrument="Duty 0" FinePitch="1"
				Note Time="1" Value="F#3" Duration="1" Instrument="Duty 0"
				Note Time="2" Value="D2" Duration="7" Instrument="Duty 0" FinePitch="0"
				Note Time="16" Value="G3" Duration="1" Instrument="Duty 0" FinePitch="1"
				Note Time="17" Value="F#3" Duration="1" Instrument="Duty 0"
				Note Time="18" Value="D2" Duration="7" Instrument="Duty 0" FinePitch="0"
				Note Time="32" Value="C#3" Duration="1" Instrument="Duty 0"
				Note Time="33" Value="G2" Duration="1" Instrument="Duty 0"
				Note Time="34" Value="D2" Duration="1" Instrument="Duty 0"
				Note Time="35" Value="A#1" Duration="1" Instrument="Duty 0"
				Note Time="36" Value="G1" Duration="1" Instrument="Duty 0" FinePitch="1"
				Note Time="37" Value="F1" Duration="1" Instrument="Duty 0"
				Note Time="38" Value="E1" Duration="1" Instrument="Duty 0"
				Note Time="39" Value="C#2" Duration="9" Instrument="Duty 0"
				Note Time="48" Value="B1" Duration="8" Instrument="Duty 0" FinePitch="0"
				Note Time="56" Value="C#2" Duration="16" Instrument="Duty 0" FinePitch="1"
				Note Time="72" Value="E2" Duration="8" Instrument="Duty 0" FinePitch="0"
				Note Time="80" Value="G3" Duration="1" Instrument="Duty 0" FinePitch="1"
				Note Time="81" Value="F#3" Duration="1" Instrument="Duty 0"
				Note Time="82" Value="D2" Duration="6" Instrument="Duty 0" FinePitch="0"
				Note Time="88" Value="G3" Duration="1" Instrument="Duty 0" FinePitch="1"
				Note Time="89" Value="F#3" Duration="1" Instrument="Duty 0"
				Note Time="90" Value="D2" Duration="6" Instrument="Duty 0" FinePitch="0"
				Note Time="96" Value="G3" Duration="1" Instrument="Duty 0" FinePitch="1"
				Note Time="97" Value="F#3" Duration="1" Instrument="Duty 0"
				Note Time="98" Value="D2" Duration="7" Instrument="Duty 0" FinePitch="0"
				Note Time="112" Value="G3" Duration="1" Instrument="Duty 0" FinePitch="1"
				Note Time="113" Value="F#3" Duration="1" Instrument="Duty 0"
				Note Time="114" Value="D2" Duration="7" Instrument="Duty 0" FinePitch="0"
				Note Time="128" Value="C#3" Duration="1" Instrument="Duty 0"
				Note Time="129" Value="G2" Duration="1" Instrument="Duty 0"
				Note Time="130" Value="D2" Duration="1" Instrument="Duty 0"
				Note Time="131" Value="A#1" Duration="1" Instrument="Duty 0"
				Note Time="132" Value="G1" Duration="1" Instrument="Duty 0" FinePitch="1"
				Note Time="133" Value="F1" Duration="1" Instrument="Duty 0"
				Note Time="134" Value="E1" Duration="1" Instrument="Duty 0"
				Note Time="135" Value="C#2" Duration="9" Instrument="Duty 0"
				Note Time="144" Value="B1" Duration="8" Instrument="Duty 0" FinePitch="0"
				Note Time="152" Value="C#2" Duration="16" Instrument="Duty 0" FinePitch="1"
				Note Time="168" Value="E2" Duration="8" Instrument="Duty 0" FinePitch="0"
				Note Time="176" Value="G3" Duration="1" Instrument="Duty 0" FinePitch="1"
				Note Time="177" Value="F#3" Duration="1" Instrument="Duty 0"
				Note Time="178" Value="D2" Duration="6" Instrument="Duty 0" FinePitch="0"
				Note Time="184" Value="G3" Duration="1" Instrument="Duty 0" FinePitch="1"
				Note Time="185" Value="F#3" Duration="1" Instrument="Duty 0"
				Note Time="186" Value="D2" Duration="6" Instrument="Duty 0" FinePitch="0"
				Note Time="192" Value="G3" Duration="1" Instrument="Duty 0" FinePitch="1"
				Note Time="193" Value="F#3" Duration="1" Instrument="Duty 0"
				Note Time="194" Value="D2" Duration="7" Instrument="Duty 0" FinePitch="0"
				Note Time="208" Value="G3" Duration="1" Instrument="Duty 0" FinePitch="1"
				Note Time="209" Value="F#3" Duration="1" Instrument="Duty 0"
				Note Time="210" Value="D2" Duration="7" Instrument="Duty 0" FinePitch="0"
				Note Time="224" Value="C#3" Duration="1" Instrument="Duty 0"
				Note Time="225" Value="G2" Duration="1" Instrument="Duty 0"
				Note Time="226" Value="D2" Duration="1" Instrument="Duty 0"
				Note Time="227" Value="A#1" Duration="1" Instrument="Duty 0"
				Note Time="228" Value="G1" Duration="1" Instrument="Duty 0" FinePitch="1"
				Note Time="229" Value="F1" Duration="1" Instrument="Duty 0"
				Note Time="230" Value="E1" Duration="1" Instrument="Duty 0"
				Note Time="231" Value="C#2" Duration="9" Instrument="Duty 0"
				Note Time="240" Value="B1" Duration="8" Instrument="Duty 0" FinePitch="0"
				Note Time="248" Value="C#2" Duration="16" Instrument="Duty 0" FinePitch="1"
			Pattern Name="Pattern 15"
				Note Time="8" Value="E2" Duration="8" Instrument="Duty 0" FinePitch="0"
				Note Time="16" Value="G3" Duration="1" Instrument="Duty 0" FinePitch="1"
				Note Time="17" Value="F#3" Duration="1" Instrument="Duty 0"
				Note Time="18" Value="D2" Duration="6" Instrument="Duty 0" FinePitch="0"
				Note Time="24" Value="G3" Duration="1" Instrument="Duty 0" FinePitch="1"
				Note Time="25" Value="F#3" Duration="1" Instrument="Duty 0"
				Note Time="26" Value="D2" Duration="6" Instrument="Duty 0" FinePitch="0"
				Note Time="32" Value="G3" Duration="1" Instrument="Duty 0" FinePitch="1"
				Note Time="33" Value="F#3" Duration="1" Instrument="Duty 0"
				Note Time="34" Value="D2" Duration="7" Instrument="Duty 0" FinePitch="0"
				Note Time="48" Value="G3" Duration="1" Instrument="Duty 0" FinePitch="1"
				Note Time="49" Value="F#3" Duration="1" Instrument="Duty 0"
				Note Time="50" Value="D2" Duration="7" Instrument="Duty 0" FinePitch="0"
				Note Time="80" Value="G3" Duration="1" Instrument="Duty 0" FinePitch="1"
				Note Time="81" Value="F#3" Duration="1" Instrument="Duty 0"
				Note Time="82" Value="D2" Duration="6" Instrument="Duty 0" FinePitch="0"
				Note Time="88" Value="G3" Duration="1" Instrument="Duty 0" FinePitch="1"
				Note Time="89" Value="F#3" Duration="1" Instrument="Duty 0"
				Note Time="90" Value="D2" Duration="6" Instrument="Duty 0" FinePitch="0"
				Note Time="96" Value="G3" Duration="1" Instrument="Duty 0" FinePitch="1"
				Note Time="97" Value="F#3" Duration="1" Instrument="Duty 0"
				Note Time="98" Value="D2" Duration="7" Instrument="Duty 0" FinePitch="0"
				Note Time="112" Value="C#3" Duration="1" Instrument="Duty 0"
				Note Time="113" Value="G2" Duration="1" Instrument="Duty 0"
				Note Time="114" Value="D2" Duration="1" Instrument="Duty 0"
				Note Time="115" Value="A#1" Duration="1" Instrument="Duty 0"
				Note Time="116" Value="G1" Duration="1" Instrument="Duty 0" FinePitch="1"
				Note Time="117" Value="F1" Duration="1" Instrument="Duty 0"
				Note Time="118" Value="E1" Duration="1" Instrument="Duty 0"
			Pattern Name="Pattern 16"
				Note Time="176" Value="C#3" Duration="1" Instrument="Duty 0" FinePitch="0"
				Note Time="177" Value="G2" Duration="1" Instrument="Duty 0"
				Note Time="178" Value="D2" Duration="1" Instrument="Duty 0"
				Note Time="179" Value="A#1" Duration="1" Instrument="Duty 0"
				Note Time="180" Value="G1" Duration="1" Instrument="Duty 0" FinePitch="1"
				Note Time="181" Value="F1" Duration="1" Instrument="Duty 0"
				Note Time="182" Value="E1" Duration="1" Instrument="Duty 0"
				Note Time="183" Value="E2" Duration="125" Instrument="Duty 0" FinePitch="0"
			Pattern Name="Pattern 17"
				Note Time="52" Value="G3" Duration="1" Instrument="Duty 0" FinePitch="1"
				Note Time="53" Value="F#3" Duration="1" Instrument="Duty 0"
				Note Time="54" Value="D2" Duration="4" Instrument="Duty 0" FinePitch="0"
				Note Time="58" Value="G3" Duration="1" Instrument="Duty 0" FinePitch="1"
				Note Time="59" Value="F#3" Duration="1" Instrument="Duty 0"
				Note Time="60" Value="D2" Duration="4" Instrument="Duty 0" FinePitch="0"
				Note Time="64" Value="C#3" Duration="1" Instrument="Duty 0"
				Note Time="65" Value="G2" Duration="1" Instrument="Duty 0"
				Note Time="66" Value="D2" Duration="1" Instrument="Duty 0"
				Note Time="67" Value="A#1" Duration="1" Instrument="Duty 0"
				Note Time="68" Value="G1" Duration="1" Instrument="Duty 0" FinePitch="1"
				Note Time="69" Value="F1" Duration="1" Instrument="Duty 0"
				Note Time="70" Value="E1" Duration="1" Instrument="Duty 0"
				Note Time="71" Value="E2" Duration="101" Instrument="Duty 0" FinePitch="0"
				Note Time="172" Value="C3" Duration="1" Instrument="Duty 0"
				Note Time="173" Value="F#2" Duration="1" Instrument="Duty 0"
				Note Time="174" Value="C2" Duration="1" Instrument="Duty 0" FinePitch="1"
				Note Time="175" Value="F1" Duration="1" Instrument="Duty 0"
				Note Time="176" Value="C#2" Duration="2" Instrument="Duty 0"
				Note Time="178" Value="C3" Duration="1" Instrument="Duty 0" FinePitch="0"
				Note Time="179" Value="F#2" Duration="1" Instrument="Duty 0"
				Note Time="180" Value="C2" Duration="1" Instrument="Duty 0" FinePitch="1"
				Note Time="181" Value="F1" Duration="1" Instrument="Duty 0"
				Note Time="182" Value="C#2" Duration="2" Instrument="Duty 0"
				Note Time="184" Value="G3" Duration="1" Instrument="Duty 0"
				Note Time="185" Value="F#3" Duration="1" Instrument="Duty 0"
				Note Time="186" Value="D2" Duration="6" Instrument="Duty 0" FinePitch="0"
				Note Time="208" Value="C#3" Duration="1" Instrument="Duty 0"
				Note Time="209" Value="G2" Duration="1" Instrument="Duty 0"
				Note Time="210" Value="D2" Duration="1" Instrument="Duty 0"
				Note Time="211" Value="A#1" Duration="1" Instrument="Duty 0"
				Note Time="212" Value="G1" Duration="1" Instrument="Duty 0" FinePitch="1"
				Note Time="213" Value="F1" Duration="1" Instrument="Duty 0"
				Note Time="214" Value="E1" Duration="1" Instrument="Duty 0"
				Note Time="215" Value="E2" Duration="125" Instrument="Duty 0" FinePitch="0"
			Pattern Name="Pattern 18"
				Note Time="84" Value="G3" Duration="1" Instrument="Duty 0" FinePitch="1"
				Note Time="85" Value="F#3" Duration="1" Instrument="Duty 0"
				Note Time="86" Value="D2" Duration="4" Instrument="Duty 0" FinePitch="0"
				Note Time="90" Value="G3" Duration="1" Instrument="Duty 0" FinePitch="1"
				Note Time="91" Value="F#3" Duration="1" Instrument="Duty 0"
				Note Time="92" Value="D2" Duration="4" Instrument="Duty 0" FinePitch="0"
				Note Time="96" Value="C#3" Duration="1" Instrument="Duty 0"
				Note Time="97" Value="G2" Duration="1" Instrument="Duty 0"
				Note Time="98" Value="D2" Duration="1" Instrument="Duty 0"
				Note Time="99" Value="A#1" Duration="1" Instrument="Duty 0"
				Note Time="100" Value="G1" Duration="1" Instrument="Duty 0" FinePitch="1"
				Note Time="101" Value="F1" Duration="1" Instrument="Duty 0"
				Note Time="102" Value="E1" Duration="1" Instrument="Duty 0"
				Note Time="103" Value="E2" Duration="101" Instrument="Duty 0" FinePitch="0"
				Note Time="204" Value="C3" Duration="1" Instrument="Duty 0"
				Note Time="205" Value="F#2" Duration="1" Instrument="Duty 0"
				Note Time="206" Value="C2" Duration="1" Instrument="Duty 0" FinePitch="1"
				Note Time="207" Value="F1" Duration="1" Instrument="Duty 0"
				Note Time="208" Value="C#2" Duration="2" Instrument="Duty 0"
				Note Time="210" Value="C3" Duration="1" Instrument="Duty 0" FinePitch="0"
				Note Time="211" Value="F#2" Duration="1" Instrument="Duty 0"
				Note Time="212" Value="C2" Duration="1" Instrument="Duty 0" FinePitch="1"
				Note Time="213" Value="F1" Duration="1" Instrument="Duty 0"
				Note Time="214" Value="C#2" Duration="2" Instrument="Duty 0"
				Note Time="216" Value="G3" Duration="1" Instrument="Duty 0"
				Note Time="217" Value="F#3" Duration="1" Instrument="Duty 0"
				Note Time="218" Value="D2" Duration="6" Instrument="Duty 0" FinePitch="0"
				Note Time="240" Value="C#3" Duration="1" Instrument="Duty 0"
				Note Time="241" Value="G2" Duration="1" Instrument="Duty 0"
				Note Time="242" Value="D2" Duration="1" Instrument="Duty 0"
				Note Time="243" Value="A#1" Duration="1" Instrument="Duty 0"
				Note Time="244" Value="G1" Duration="1" Instrument="Duty 0" FinePitch="1"
				Note Time="245" Value="F1" Duration="1" Instrument="Duty 0"
				Note Time="246" Value="E1" Duration="1" Instrument="Duty 0"
				Note Time="247" Value="G#1" Duration="125" Instrument="Duty 0"
			Pattern Name="Pattern 19"
				Note Time="116" Value="G3" Duration="1" Instrument="Duty 0"
				Note Time="117" Value="F#3" Duration="1" Instrument="Duty 0"
				Note Time="118" Value="G#1" Duration="4" Instrument="Duty 0"
				Note Time="122" Value="G3" Duration="1" Instrument="Duty 0"
				Note Time="123" Value="F#3" Duration="1" Instrument="Duty 0"
				Note Time="124" Value="G#1" Duration="4" Instrument="Duty 0"
				Note Time="128" Value="C#3" Duration="1" Instrument="Duty 0" FinePitch="0"
				Note Time="129" Value="G2" Duration="1" Instrument="Duty 0"
				Note Time="130" Value="D2" Duration="1" Instrument="Duty 0"
				Note Time="131" Value="A#1" Duration="1" Instrument="Duty 0"
				Note Time="132" Value="G1" Duration="1" Instrument="Duty 0" FinePitch="1"
				Note Time="133" Value="F1" Duration="1" Instrument="Duty 0"
				Note Time="134" Value="E1" Duration="1" Instrument="Duty 0"
				Note Time="135" Value="D#2" Duration="101" Instrument="Duty 0"
				Note Time="236" Value="C3" Duration="1" Instrument="Duty 0" FinePitch="0"
				Note Time="237" Value="F#2" Duration="1" Instrument="Duty 0"
				Note Time="238" Value="C2" Duration="1" Instrument="Duty 0" FinePitch="1"
				Note Time="239" Value="F1" Duration="1" Instrument="Duty 0"
				Note Time="240" Value="D#2" Duration="2" Instrument="Duty 0"
				Note Time="242" Value="C3" Duration="1" Instrument="Duty 0" FinePitch="0"
				Note Time="243" Value="F#2" Duration="1" Instrument="Duty 0"
				Note Time="244" Value="C2" Duration="1" Instrument="Duty 0" FinePitch="1"
				Note Time="245" Value="F1" Duration="1" Instrument="Duty 0"
				Note Time="246" Value="D#2" Duration="2" Instrument="Duty 0"
				Note Time="248" Value="G3" Duration="1" Instrument="Duty 0"
				Note Time="249" Value="F#3" Duration="1" Instrument="Duty 0"
				Note Time="250" Value="D#2" Duration="22" Instrument="Duty 0"
			Pattern Name="Pattern 20"
				Note Time="16" Value="C#3" Duration="1" Instrument="Duty 0" FinePitch="0"
				Note Time="17" Value="G2" Duration="1" Instrument="Duty 0"
				Note Time="18" Value="D2" Duration="1" Instrument="Duty 0"
				Note Time="19" Value="A#1" Duration="1" Instrument="Duty 0"
				Note Time="20" Value="G1" Duration="1" Instrument="Duty 0" FinePitch="1"
				Note Time="21" Value="F1" Duration="1" Instrument="Duty 0"
				Note Time="22" Value="E1" Duration="1" Instrument="Duty 0"
				Note Time="23" Value="E2" Duration="125" Instrument="Duty 0" FinePitch="0"
				Note Time="148" Value="G3" Duration="1" Instrument="Duty 0" FinePitch="1"
				Note Time="149" Value="F#3" Duration="1" Instrument="Duty 0"
				Note Time="150" Value="E2" Duration="4" Instrument="Duty 0" FinePitch="0"
				Note Time="154" Value="G3" Duration="1" Instrument="Duty 0" FinePitch="1"
				Note Time="155" Value="F#3" Duration="1" Instrument="Duty 0"
				Note Time="156" Value="E2" Duration="4" Instrument="Duty 0" FinePitch="0"
				Note Time="160" Value="C#3" Duration="1" Instrument="Duty 0"
				Note Time="161" Value="G2" Duration="1" Instrument="Duty 0"
				Note Time="162" Value="D2" Duration="1" Instrument="Duty 0"
				Note Time="163" Value="A#1" Duration="1" Instrument="Duty 0"
				Note Time="164" Value="G1" Duration="1" Instrument="Duty 0" FinePitch="1"
				Note Time="165" Value="F1" Duration="1" Instrument="Duty 0"
				Note Time="166" Value="E1" Duration="1" Instrument="Duty 0"
				Note Time="167" Value="D2" Duration="101" Instrument="Duty 0" FinePitch="0"
			Pattern Name="Pattern 21"
				Note Time="12" Value="C3" Duration="1" Instrument="Duty 0"
				Note Time="13" Value="F#2" Duration="1" Instrument="Duty 0"
				Note Time="14" Value="C2" Duration="1" Instrument="Duty 0" FinePitch="1"
				Note Time="15" Value="F1" Duration="1" Instrument="Duty 0"
				Note Time="16" Value="D2" Duration="2" Instrument="Duty 0" FinePitch="0"
				Note Time="18" Value="C3" Duration="1" Instrument="Duty 0"
				Note Time="19" Value="F#2" Duration="1" Instrument="Duty 0"
				Note Time="20" Value="C2" Duration="1" Instrument="Duty 0" FinePitch="1"
				Note Time="21" Value="F1" Duration="1" Instrument="Duty 0"
				Note Time="22" Value="D2" Duration="2" Instrument="Duty 0" FinePitch="0"
				Note Time="24" Value="G3" Duration="1" Instrument="Duty 0" FinePitch="1"
				Note Time="25" Value="F#3" Duration="1" Instrument="Duty 0"
				Note Time="26" Value="D2" Duration="22" Instrument="Duty 0" FinePitch="0"
				Note Time="48" Value="C3" Duration="1" Instrument="Duty 0"
				Note Time="49" Value="F#2" Duration="1" Instrument="Duty 0"
				Note Time="50" Value="C2" Duration="1" Instrument="Duty 0" FinePitch="1"
				Note Time="51" Value="F1" Duration="1" Instrument="Duty 0"
				Note Time="52" Value="F#2" Duration="20" Instrument="Duty 0" FinePitch="0"
				Note Time="72" Value="C#2" Duration="12" Instrument="Duty 0" FinePitch="1"
				Note Time="84" Value="G3" Duration="1" Instrument="Duty 0"
				Note Time="85" Value="F#3" Duration="1" Instrument="Duty 0"
				Note Time="86" Value="F#2" Duration="10" Instrument="Duty 0" FinePitch="0"
				Note Time="96" Value="C#2" Duration="12" Instrument="Duty 0" FinePitch="1"
				Note Time="108" Value="D#2" Duration="12" Instrument="Duty 0"
				Note Time="120" Value="C3" Duration="1" Instrument="Duty 0" FinePitch="0"
				Note Time="121" Value="F#2" Duration="1" Instrument="Duty 0"
				Note Time="122" Value="C2" Duration="1" Instrument="Duty 0" FinePitch="1"
				Note Time="123" Value="F1" Duration="1" Instrument="Duty 0"
				Note Time="124" Value="C#2" Duration="20" Instrument="Duty 0"
				Note Time="144" Value="C3" Duration="1" Instrument="Duty 0" FinePitch="0"
				Note Time="145" Value="F#2" Duration="1" Instrument="Duty 0"
				Note Time="146" Value="C2" Duration="1" Instrument="Duty 0" FinePitch="1"
				Note Time="147" Value="F1" Duration="1" Instrument="Duty 0"
				Note Time="148" Value="B1" Duration="20" Instrument="Duty 0" FinePitch="0"
				Note Time="168" Value="C3" Duration="1" Instrument="Duty 0"
				Note Time="169" Value="F#2" Duration="1" Instrument="Duty 0"
				Note Time="170" Value="C2" Duration="1" Instrument="Duty 0" FinePitch="1"
				Note Time="171" Value="F1" Duration="1" Instrument="Duty 0"
				Note Time="172" Value="F#2" Duration="20" Instrument="Duty 0" FinePitch="0"
				Note Time="192" Value="C3" Duration="1" Instrument="Duty 0"
				Note Time="193" Value="F#2" Duration="1" Instrument="Duty 0"
				Note Time="194" Value="C2" Duration="1" Instrument="Duty 0" FinePitch="1"
				Note Time="195" Value="F1" Duration="1" Instrument="Duty 0"
				Note Time="196" Value="F#2" Duration="20" Instrument="Duty 0" FinePitch="0"
				Note Time="216" Value="C#2" Duration="12" Instrument="Duty 0" FinePitch="1"
				Note Time="228" Value="G3" Duration="1" Instrument="Duty 0"
				Note Time="229" Value="F#3" Duration="1" Instrument="Duty 0"
				Note Time="230" Value="F#2" Duration="22" Instrument="Duty 0" FinePitch="0"
				Note Time="252" Value="C3" Duration="1" Instrument="Duty 0"
				Note Time="253" Value="F#2" Duration="1" Instrument="Duty 0"
				Note Time="254" Value="C2" Duration="1" Instrument="Duty 0" FinePitch="1"
				Note Time="255" Value="F1" Duration="1" Instrument="Duty 0"
			Pattern Name="Pattern 22"
				Note Time="0" Value="C#2" Duration="8" Instrument="Duty 0"
				Note Time="8" Value="C3" Duration="1" Instrument="Duty 0" FinePitch="0"
				Note Time="9" Value="F#2" Duration="1" Instrument="Duty 0"
				Note Time="10" Value="C2" Duration="1" Instrument="Duty 0" FinePitch="1"
				Note Time="11" Value="F1" Duration="1" Instrument="Duty 0"
				Note Time="12" Value="F#2" Duration="20" Instrument="Duty 0" FinePitch="0"
				Note Time="32" Value="C#2" Duration="12" Instrument="Duty 0" FinePitch="1"
				Note Time="44" Value="G3" Duration="1" Instrument="Duty 0"
				Note Time="45" Value="F#3" Duration="1" Instrument="Duty 0"
				Note Time="46" Value="B1" Duration="22" Instrument="Duty 0" FinePitch="0"
				Note Time="68" Value="C#2" Duration="12" Instrument="Duty 0" FinePitch="1"
				Note Time="80" Value="C3" Duration="1" Instrument="Duty 0" FinePitch="0"
				Note Time="81" Value="F#2" Duration="1" Instrument="Duty 0"
				Note Time="82" Value="C2" Duration="1" Instrument="Duty 0" FinePitch="1"
				Note Time="83" Value="F1" Duration="1" Instrument="Duty 0"
				Note Time="84" Value="F#2" Duration="20" Instrument="Duty 0" FinePitch="0"
				Note Time="104" Value="C#2" Duration="12" Instrument="Duty 0" FinePitch="1"
				Note Time="116" Value="G3" Duration="1" Instrument="Duty 0"
				Note Time="117" Value="F#3" Duration="1" Instrument="Duty 0"
				Note Time="118" Value="F#2" Duration="10" Instrument="Duty 0" FinePitch="0"
				Note Time="128" Value="C#2" Duration="12" Instrument="Duty 0" FinePitch="1"
				Note Time="140" Value="D#2" Duration="12" Instrument="Duty 0"
				Note Time="152" Value="C3" Duration="1" Instrument="Duty 0" FinePitch="0"
				Note Time="153" Value="F#2" Duration="1" Instrument="Duty 0"
				Note Time="154" Value="C2" Duration="1" Instrument="Duty 0" FinePitch="1"
				Note Time="155" Value="F1" Duration="1" Instrument="Duty 0"
				Note Time="156" Value="C#2" Duration="20" Instrument="Duty 0"
				Note Time="176" Value="C3" Duration="1" Instrument="Duty 0" FinePitch="0"
				Note Time="177" Value="F#2" Duration="1" Instrument="Duty 0"
				Note Time="178" Value="C2" Duration="1" Instrument="Duty 0" FinePitch="1"
				Note Time="179" Value="F1" Duration="1" Instrument="Duty 0"
				Note Time="180" Value="B1" Duration="20" Instrument="Duty 0" FinePitch="0"
				Note Time="200" Value="C3" Duration="1" Instrument="Duty 0"
				Note Time="201" Value="F#2" Duration="1" Instrument="Duty 0"
				Note Time="202" Value="C2" Duration="1" Instrument="Duty 0" FinePitch="1"
				Note Time="203" Value="F1" Duration="1" Instrument="Duty 0"
				Note Time="204" Value="F#2" Duration="20" Instrument="Duty 0" FinePitch="0"
				Note Time="224" Value="C3" Duration="1" Instrument="Duty 0"
				Note Time="225" Value="F#2" Duration="1" Instrument="Duty 0"
				Note Time="226" Value="C2" Duration="1" Instrument="Duty 0" FinePitch="1"
				Note Time="227" Value="F1" Duration="1" Instrument="Duty 0"
				Note Time="228" Value="F#2" Duration="20" Instrument="Duty 0" FinePitch="0"
				Note Time="248" Value="C#2" Duration="12" Instrument="Duty 0" FinePitch="1"
			Pattern Name="Pattern 23"
				Note Time="4" Value="G3" Duration="1" Instrument="Duty 0"
				Note Time="5" Value="F#3" Duration="1" Instrument="Duty 0"
				Note Time="6" Value="F#2" Duration="22" Instrument="Duty 0" FinePitch="0"
				Note Time="28" Value="C3" Duration="1" Instrument="Duty 0"
				Note Time="29" Value="F#2" Duration="1" Instrument="Duty 0"
				Note Time="30" Value="C2" Duration="1" Instrument="Duty 0" FinePitch="1"
				Note Time="31" Value="F1" Duration="1" Instrument="Duty 0"
				Note Time="32" Value="C#2" Duration="8" Instrument="Duty 0"
				Note Time="40" Value="C3" Duration="1" Instrument="Duty 0" FinePitch="0"
				Note Time="41" Value="F#2" Duration="1" Instrument="Duty 0"
				Note Time="42" Value="C2" Duration="1" Instrument="Duty 0" FinePitch="1"
				Note Time="43" Value="F1" Duration="1" Instrument="Duty 0"
				Note Time="44" Value="F#2" Duration="20" Instrument="Duty 0" FinePitch="0"
				Note Time="64" Value="C#2" Duration="12" Instrument="Duty 0" FinePitch="1"
				Note Time="76" Value="G3" Duration="1" Instrument="Duty 0"
				Note Time="77" Value="F#3" Duration="1" Instrument="Duty 0"
				Note Time="78" Value="B1" Duration="22" Instrument="Duty 0" FinePitch="0"
				Note Time="100" Value="C#2" Duration="12" Instrument="Duty 0" FinePitch="1"
				Note Time="112" Value="C3" Duration="1" Instrument="Duty 0" FinePitch="0"
				Note Time="113" Value="F#2" Duration="1" Instrument="Duty 0"
				Note Time="114" Value="C2" Duration="1" Instrument="Duty 0" FinePitch="1"
				Note Time="115" Value="F1" Duration="1" Instrument="Duty 0"
				Note Time="116" Value="F#2" Duration="20" Instrument="Duty 0" FinePitch="0"
				Note Time="136" Value="C#2" Duration="12" Instrument="Duty 0" FinePitch="1"
				Note Time="148" Value="G3" Duration="1" Instrument="Duty 0"
				Note Time="149" Value="F#3" Duration="1" Instrument="Duty 0"
				Note Time="150" Value="F#2" Duration="10" Instrument="Duty 0" FinePitch="0"
				Note Time="160" Value="C#2" Duration="12" Instrument="Duty 0" FinePitch="1"
				Note Time="172" Value="D#2" Duration="12" Instrument="Duty 0"
				Note Time="184" Value="C3" Duration="1" Instrument="Duty 0" FinePitch="0"
				Note Time="185" Value="F#2" Duration="1" Instrument="Duty 0"
				Note Time="186" Value="C2" Duration="1" Instrument="Duty 0" FinePitch="1"
				Note Time="187" Value="F1" Duration="1" Instrument="Duty 0"
				Note Time="188" Value="C#2" Duration="20" Instrument="Duty 0"
				Note Time="208" Value="C3" Duration="1" Instrument="Duty 0" FinePitch="0"
				Note Time="209" Value="F#2" Duration="1" Instrument="Duty 0"
				Note Time="210" Value="C2" Duration="1" Instrument="Duty 0" FinePitch="1"
				Note Time="211" Value="F1" Duration="1" Instrument="Duty 0"
				Note Time="212" Value="B1" Duration="20" Instrument="Duty 0" FinePitch="0"
				Note Time="232" Value="C3" Duration="1" Instrument="Duty 0"
				Note Time="233" Value="F#2" Duration="1" Instrument="Duty 0"
				Note Time="234" Value="C2" Duration="1" Instrument="Duty 0" FinePitch="1"
				Note Time="235" Value="F1" Duration="1" Instrument="Duty 0"
				Note Time="236" Value="F#2" Duration="20" Instrument="Duty 0" FinePitch="0"
			Pattern Name="Pattern 24"
				Note Time="0" Value="C3" Duration="1" Instrument="Duty 0"
				Note Time="1" Value="F#2" Duration="1" Instrument="Duty 0"
				Note Time="2" Value="C2" Duration="1" Instrument="Duty 0" FinePitch="1"
				Note Time="3" Value="F1" Duration="1" Instrument="Duty 0"
				Note Time="4" Value="F#2" Duration="20" Instrument="Duty 0" FinePitch="0"
				Note Time="24" Value="C#2" Duration="12" Instrument="Duty 0" FinePitch="1"
				Note Time="36" Value="G3" Duration="1" Instrument="Duty 0"
				Note Time="37" Value="F#3" Duration="1" Instrument="Duty 0"
				Note Time="38" Value="F#2" Duration="22" Instrument="Duty 0" FinePitch="0"
				Note Time="60" Value="C3" Duration="1" Instrument="Duty 0"
				Note Time="61" Value="F#2" Duration="1" Instrument="Duty 0"
				Note Time="62" Value="C2" Duration="1" Instrument="Duty 0" FinePitch="1"
				Note Time="63" Value="F1" Duration="1" Instrument="Duty 0"
				Note Time="64" Value="C#2" Duration="8" Instrument="Duty 0"
				Note Time="72" Value="C3" Duration="1" Instrument="Duty 0" FinePitch="0"
				Note Time="73" Value="F#2" Duration="1" Instrument="Duty 0"
				Note Time="74" Value="C2" Duration="1" Instrument="Duty 0" FinePitch="1"
				Note Time="75" Value="F1" Duration="1" Instrument="Duty 0"
				Note Time="76" Value="F#2" Duration="20" Instrument="Duty 0" FinePitch="0"
				Note Time="96" Value="C#2" Duration="12" Instrument="Duty 0" FinePitch="1"
				Note Time="108" Value="G3" Duration="1" Instrument="Duty 0"
				Note Time="109" Value="F#3" Duration="1" Instrument="Duty 0"
				Note Time="110" Value="E2" Duration="22" Instrument="Duty 0" FinePitch="0"
				Note Time="132" Value="C#2" Duration="12" Instrument="Duty 0" FinePitch="1"
				Note Time="144" Value="C3" Duration="1" Instrument="Duty 0" FinePitch="0"
				Note Time="145" Value="F#2" Duration="1" Instrument="Duty 0"
				Note Time="146" Value="C2" Duration="1" Instrument="Duty 0" FinePitch="1"
				Note Time="147" Value="F1" Duration="1" Instrument="Duty 0"
				Note Time="148" Value="F#2" Duration="20" Instrument="Duty 0" FinePitch="0"
				Note Time="168" Value="C#2" Duration="12" Instrument="Duty 0" FinePitch="1"
				Note Time="180" Value="G3" Duration="1" Instrument="Duty 0"
				Note Time="181" Value="F#3" Duration="1" Instrument="Duty 0"
				Note Time="182" Value="F#2" Duration="10" Instrument="Duty 0" FinePitch="0"
				Note Time="192" Value="C#2" Duration="12" Instrument="Duty 0" FinePitch="1"
				Note Time="204" Value="D#2" Duration="12" Instrument="Duty 0"
				Note Time="216" Value="C3" Duration="1" Instrument="Duty 0" FinePitch="0"
				Note Time="217" Value="F#2" Duration="1" Instrument="Duty 0"
				Note Time="218" Value="C2" Duration="1" Instrument="Duty 0" FinePitch="1"
				Note Time="219" Value="F1" Duration="1" Instrument="Duty 0"
				Note Time="220" Value="C#2" Duration="20" Instrument="Duty 0"
				Note Time="240" Value="C3" Duration="1" Instrument="Duty 0" FinePitch="0"
				Note Time="241" Value="F#2" Duration="1" Instrument="Duty 0"
				Note Time="242" Value="C2" Duration="1" Instrument="Duty 0" FinePitch="1"
				Note Time="243" Value="F1" Duration="1" Instrument="Duty 0"
				Note Time="244" Value="B1" Duration="20" Instrument="Duty 0" FinePitch="0"
			Pattern Name="Pattern 25"
				Note Time="8" Value="C3" Duration="1" Instrument="Duty 0"
				Note Time="9" Value="F#2" Duration="1" Instrument="Duty 0"
				Note Time="10" Value="C2" Duration="1" Instrument="Duty 0" FinePitch="1"
				Note Time="11" Value="F1" Duration="1" Instrument="Duty 0"
				Note Time="12" Value="F#2" Duration="20" Instrument="Duty 0" FinePitch="0"
				Note Time="32" Value="C3" Duration="1" Instrument="Duty 0"
				Note Time="33" Value="F#2" Duration="1" Instrument="Duty 0"
				Note Time="34" Value="C2" Duration="1" Instrument="Duty 0" FinePitch="1"
				Note Time="35" Value="F1" Duration="1" Instrument="Duty 0"
				Note Time="36" Value="F#2" Duration="20" Instrument="Duty 0" FinePitch="0"
				Note Time="56" Value="C#2" Duration="12" Instrument="Duty 0" FinePitch="1"
				Note Time="68" Value="G3" Duration="1" Instrument="Duty 0"
				Note Time="69" Value="F#3" Duration="1" Instrument="Duty 0"
				Note Time="70" Value="F#2" Duration="22" Instrument="Duty 0" FinePitch="0"
				Note Time="92" Value="C3" Duration="1" Instrument="Duty 0"
				Note Time="93" Value="F#2" Duration="1" Instrument="Duty 0"
				Note Time="94" Value="C2" Duration="1" Instrument="Duty 0" FinePitch="1"
				Note Time="95" Value="F1" Duration="1" Instrument="Duty 0"
				Note Time="96" Value="C#2" Duration="8" Instrument="Duty 0"
				Note Time="104" Value="C3" Duration="1" Instrument="Duty 0" FinePitch="0"
				Note Time="105" Value="F#2" Duration="1" Instrument="Duty 0"
				Note Time="106" Value="C2" Duration="1" Instrument="Duty 0" FinePitch="1"
				Note Time="107" Value="F1" Duration="1" Instrument="Duty 0"
				Note Time="108" Value="F#2" Duration="20" Instrument="Duty 0" FinePitch="0"
				Note Time="128" Value="C#2" Duration="12" Instrument="Duty 0" FinePitch="1"
				Note Time="140" Value="G3" Duration="1" Instrument="Duty 0"
				Note Time="141" Value="F#3" Duration="1" Instrument="Duty 0"
				Note Time="142" Value="E2" Duration="22" Instrument="Duty 0" FinePitch="0"
				Note Time="164" Value="C#2" Duration="12" Instrument="Duty 0" FinePitch="1"
				Note Time="176" Value="C3" Duration="1" Instrument="Duty 0" FinePitch="0"
				Note Time="177" Value="F#2" Duration="1" Instrument="Duty 0"
				Note Time="178" Value="C2" Duration="1" Instrument="Duty 0" FinePitch="1"
				Note Time="179" Value="F1" Duration="1" Instrument="Duty 0"
				Note Time="180" Value="B1" Duration="20" Instrument="Duty 0" FinePitch="0"
				Note Time="200" Value="F#2" Duration="12" Instrument="Duty 0"
				Note Time="212" Value="G3" Duration="1" Instrument="Duty 0" FinePitch="1"
				Note Time="213" Value="F#3" Duration="1" Instrument="Duty 0"
				Note Time="214" Value="B1" Duration="10" Instrument="Duty 0" FinePitch="0"
				Note Time="224" Value="F#2" Duration="12" Instrument="Duty 0"
				Note Time="236" Value="B2" Duration="12" Instrument="Duty 0"
				Note Time="248" Value="C3" Duration="1" Instrument="Duty 0"
				Note Time="249" Value="F#2" Duration="1" Instrument="Duty 0"
				Note Time="250" Value="C2" Duration="1" Instrument="Duty 0" FinePitch="1"
				Note Time="251" Value="F1" Duration="1" Instrument="Duty 0"
				Note Time="252" Value="A2" Duration="20" Instrument="Duty 0"
			Pattern Name="Pattern 26"
				Note Time="16" Value="C3" Duration="1" Instrument="Duty 0" FinePitch="0"
				Note Time="17" Value="F#2" Duration="1" Instrument="Duty 0"
				Note Time="18" Value="C2" Duration="1" Instrument="Duty 0" FinePitch="1"
				Note Time="19" Value="F1" Duration="1" Instrument="Duty 0"
				Note Time="20" Value="G#2" Duration="20" Instrument="Duty 0" FinePitch="0"
				Note Time="40" Value="C3" Duration="1" Instrument="Duty 0"
				Note Time="41" Value="F#2" Duration="1" Instrument="Duty 0"
				Note Time="42" Value="C2" Duration="1" Instrument="Duty 0" FinePitch="1"
				Note Time="43" Value="F1" Duration="1" Instrument="Duty 0"
				Note Time="44" Value="F#2" Duration="20" Instrument="Duty 0" FinePitch="0"
				Note Time="64" Value="C3" Duration="1" Instrument="Duty 0"
				Note Time="65" Value="F#2" Duration="1" Instrument="Duty 0"
				Note Time="66" Value="C2" Duration="1" Instrument="Duty 0" FinePitch="1"
				Note Time="67" Value="F1" Duration="1" Instrument="Duty 0"
				Note Time="68" Value="B1" Duration="20" Instrument="Duty 0" FinePitch="0"
				Note Time="88" Value="F#2" Duration="12" Instrument="Duty 0"
				Note Time="100" Value="G3" Duration="1" Instrument="Duty 0" FinePitch="1"
				Note Time="101" Value="F#3" Duration="1" Instrument="Duty 0"
				Note Time="102" Value="B2" Duration="10" Instrument="Duty 0" FinePitch="0"
				Note Time="112" Value="F#2" Duration="12" Instrument="Duty 0"
				Note Time="124" Value="C3" Duration="1" Instrument="Duty 0"
				Note Time="125" Value="F#2" Duration="1" Instrument="Duty 0"
				Note Time="126" Value="C2" Duration="1" Instrument="Duty 0" FinePitch="1"
				Note Time="127" Value="F1" Duration="1" Instrument="Duty 0"
				Note Time="128" Value="A1" Duration="8" Instrument="Duty 0" FinePitch="0"
				Note Time="136" Value="C3" Duration="1" Instrument="Duty 0"
				Note Time="137" Value="F#2" Duration="1" Instrument="Duty 0"
				Note Time="138" Value="C2" Duration="1" Instrument="Duty 0" FinePitch="1"
				Note Time="139" Value="F1" Duration="1" Instrument="Duty 0"
				Note Time="140" Value="B1" Duration="20" Instrument="Duty 0" FinePitch="0"
				Note Time="160" Value="B2" Duration="12" Instrument="Duty 0"
				Note Time="172" Value="G3" Duration="1" Instrument="Duty 0" FinePitch="1"
				Note Time="173" Value="F#3" Duration="1" Instrument="Duty 0"
				Note Time="174" Value="A1" Duration="10" Instrument="Duty 0" FinePitch="0"
				Note Time="184" Value="E2" Duration="12" Instrument="Duty 0"
				Note Time="196" Value="A2" Duration="12" Instrument="Duty 0" FinePitch="1"
				Note Time="208" Value="C3" Duration="1" Instrument="Duty 0" FinePitch="0"
				Note Time="209" Value="F#2" Duration="1" Instrument="Duty 0"
				Note Time="210" Value="C2" Duration="1" Instrument="Duty 0" FinePitch="1"
				Note Time="211" Value="F1" Duration="1" Instrument="Duty 0"
				Note Time="212" Value="B1" Duration="20" Instrument="Duty 0" FinePitch="0"
				Note Time="232" Value="F#2" Duration="12" Instrument="Duty 0"
				Note Time="244" Value="G3" Duration="1" Instrument="Duty 0" FinePitch="1"
				Note Time="245" Value="F#3" Duration="1" Instrument="Duty 0"
				Note Time="246" Value="B1" Duration="10" Instrument="Duty 0" FinePitch="0"
			Pattern Name="Pattern 27"
				Note Time="0" Value="F#2" Duration="12" Instrument="Duty 0"
				Note Time="12" Value="B2" Duration="12" Instrument="Duty 0"
				Note Time="24" Value="C3" Duration="1" Instrument="Duty 0"
				Note Time="25" Value="F#2" Duration="1" Instrument="Duty 0"
				Note Time="26" Value="C2" Duration="1" Instrument="Duty 0" FinePitch="1"
				Note Time="27" Value="F1" Duration="1" Instrument="Duty 0"
				Note Time="28" Value="A2" Duration="20" Instrument="Duty 0"
				Note Time="48" Value="C3" Duration="1" Instrument="Duty 0" FinePitch="0"
				Note Time="49" Value="F#2" Duration="1" Instrument="Duty 0"
				Note Time="50" Value="C2" Duration="1" Instrument="Duty 0" FinePitch="1"
				Note Time="51" Value="F1" Duration="1" Instrument="Duty 0"
				Note Time="52" Value="G#2" Duration="20" Instrument="Duty 0" FinePitch="0"
				Note Time="72" Value="C3" Duration="1" Instrument="Duty 0"
				Note Time="73" Value="F#2" Duration="1" Instrument="Duty 0"
				Note Time="74" Value="C2" Duration="1" Instrument="Duty 0" FinePitch="1"
				Note Time="75" Value="F1" Duration="1" Instrument="Duty 0"
				Note Time="76" Value="F#2" Duration="20" Instrument="Duty 0" FinePitch="0"
				Note Time="96" Value="C3" Duration="1" Instrument="Duty 0"
				Note Time="97" Value="F#2" Duration="1" Instrument="Duty 0"
				Note Time="98" Value="C2" Duration="1" Instrument="Duty 0" FinePitch="1"
				Note Time="99" Value="F1" Duration="1" Instrument="Duty 0"
				Note Time="100" Value="B1" Duration="20" Instrument="Duty 0" FinePitch="0"
				Note Time="120" Value="F#2" Duration="12" Instrument="Duty 0"
				Note Time="132" Value="G3" Duration="1" Instrument="Duty 0" FinePitch="1"
				Note Time="133" Value="F#3" Duration="1" Instrument="Duty 0"
				Note Time="134" Value="B2" Duration="10" Instrument="Duty 0" FinePitch="0"
				Note Time="144" Value="F#2" Duration="12" Instrument="Duty 0"
				Note Time="156" Value="C3" Duration="1" Instrument="Duty 0"
				Note Time="157" Value="F#2" Duration="1" Instrument="Duty 0"
				Note Time="158" Value="C2" Duration="1" Instrument="Duty 0" FinePitch="1"
				Note Time="159" Value="F1" Duration="1" Instrument="Duty 0"
				Note Time="160" Value="A1" Duration="8" Instrument="Duty 0" FinePitch="0"
				Note Time="168" Value="C3" Duration="1" Instrument="Duty 0"
				Note Time="169" Value="F#2" Duration="1" Instrument="Duty 0"
				Note Time="170" Value="C2" Duration="1" Instrument="Duty 0" FinePitch="1"
				Note Time="171" Value="F1" Duration="1" Instrument="Duty 0"
				Note Time="172" Value="B1" Duration="20" Instrument="Duty 0" FinePitch="0"
				Note Time="192" Value="B2" Duration="12" Instrument="Duty 0"
				Note Time="204" Value="G3" Duration="1" Instrument="Duty 0" FinePitch="1"
				Note Time="205" Value="F#3" Duration="1" Instrument="Duty 0"
				Note Time="206" Value="A1" Duration="10" Instrument="Duty 0" FinePitch="0"
				Note Time="216" Value="E2" Duration="12" Instrument="Duty 0"
				Note Time="228" Value="A2" Duration="12" Instrument="Duty 0" FinePitch="1"
				Note Time="240" Value="C3" Duration="1" Instrument="Duty 0" FinePitch="0"
				Note Time="241" Value="F#2" Duration="1" Instrument="Duty 0"
				Note Time="242" Value="C2" Duration="1" Instrument="Duty 0" FinePitch="1"
				Note Time="243" Value="F1" Duration="1" Instrument="Duty 0"
				Note Time="244" Value="B1" Duration="20" Instrument="Duty 0" FinePitch="0"
			Pattern Name="Pattern 28"
				Note Time="8" Value="F#2" Duration="12" Instrument="Duty 0"
				Note Time="20" Value="G3" Duration="1" Instrument="Duty 0" FinePitch="1"
				Note Time="21" Value="F#3" Duration="1" Instrument="Duty 0"
				Note Time="22" Value="B1" Duration="10" Instrument="Duty 0" FinePitch="0"
				Note Time="32" Value="F#2" Duration="12" Instrument="Duty 0"
				Note Time="44" Value="B2" Duration="12" Instrument="Duty 0"
				Note Time="56" Value="C3" Duration="1" Instrument="Duty 0"
				Note Time="57" Value="F#2" Duration="1" Instrument="Duty 0"
				Note Time="58" Value="C2" Duration="1" Instrument="Duty 0" FinePitch="1"
				Note Time="59" Value="F1" Duration="1" Instrument="Duty 0"
				Note Time="60" Value="A2" Duration="20" Instrument="Duty 0"
				Note Time="80" Value="C3" Duration="1" Instrument="Duty 0" FinePitch="0"
				Note Time="81" Value="F#2" Duration="1" Instrument="Duty 0"
				Note Time="82" Value="C2" Duration="1" Instrument="Duty 0" FinePitch="1"
				Note Time="83" Value="F1" Duration="1" Instrument="Duty 0"
				Note Time="84" Value="G#2" Duration="20" Instrument="Duty 0" FinePitch="0"
				Note Time="104" Value="C3" Duration="1" Instrument="Duty 0"
				Note Time="105" Value="F#2" Duration="1" Instrument="Duty 0"
				Note Time="106" Value="C2" Duration="1" Instrument="Duty 0" FinePitch="1"
				Note Time="107" Value="F1" Duration="1" Instrument="Duty 0"
				Note Time="108" Value="F#2" Duration="20" Instrument="Duty 0" FinePitch="0"
				Note Time="128" Value="C3" Duration="1" Instrument="Duty 0"
				Note Time="129" Value="F#2" Duration="1" Instrument="Duty 0"
				Note Time="130" Value="C2" Duration="1" Instrument="Duty 0" FinePitch="1"
				Note Time="131" Value="F1" Duration="1" Instrument="Duty 0"
				Note Time="132" Value="B1" Duration="20" Instrument="Duty 0" FinePitch="0"
				Note Time="152" Value="F#2" Duration="12" Instrument="Duty 0"
				Note Time="164" Value="G3" Duration="1" Instrument="Duty 0" FinePitch="1"
				Note Time="165" Value="F#3" Duration="1" Instrument="Duty 0"
				Note Time="166" Value="B2" Duration="10" Instrument="Duty 0" FinePitch="0"
				Note Time="176" Value="F#2" Duration="12" Instrument="Duty 0"
				Note Time="188" Value="C3" Duration="1" Instrument="Duty 0"
				Note Time="189" Value="F#2" Duration="1" Instrument="Duty 0"
				Note Time="190" Value="C2" Duration="1" Instrument="Duty 0" FinePitch="1"
				Note Time="191" Value="F1" Duration="1" Instrument="Duty 0"
				Note Time="192" Value="A1" Duration="8" Instrument="Duty 0" FinePitch="0"
				Note Time="200" Value="C3" Duration="1" Instrument="Duty 0"
				Note Time="201" Value="F#2" Duration="1" Instrument="Duty 0"
				Note Time="202" Value="C2" Duration="1" Instrument="Duty 0" FinePitch="1"
				Note Time="203" Value="F1" Duration="1" Instrument="Duty 0"
				Note Time="204" Value="B1" Duration="20" Instrument="Duty 0" FinePitch="0"
				Note Time="224" Value="B2" Duration="12" Instrument="Duty 0"
				Note Time="236" Value="G3" Duration="1" Instrument="Duty 0" FinePitch="1"
				Note Time="237" Value="F#3" Duration="1" Instrument="Duty 0"
				Note Time="238" Value="A1" Duration="10" Instrument="Duty 0" FinePitch="0"
				Note Time="248" Value="E2" Duration="12" Instrument="Duty 0"
			Pattern Name="Pattern 29"
				Note Time="4" Value="A2" Duration="12" Instrument="Duty 0" FinePitch="1"
				Note Time="16" Value="C3" Duration="1" Instrument="Duty 0" FinePitch="0"
				Note Time="17" Value="F#2" Duration="1" Instrument="Duty 0"
				Note Time="18" Value="C2" Duration="1" Instrument="Duty 0" FinePitch="1"
				Note Time="19" Value="F1" Duration="1" Instrument="Duty 0"
				Note Time="20" Value="B1" Duration="20" Instrument="Duty 0" FinePitch="0"
				Note Time="40" Value="F#2" Duration="12" Instrument="Duty 0"
				Note Time="52" Value="G3" Duration="1" Instrument="Duty 0" FinePitch="1"
				Note Time="53" Value="F#3" Duration="1" Instrument="Duty 0"
				Note Time="54" Value="B1" Duration="10" Instrument="Duty 0" FinePitch="0"
				Note Time="64" Value="F#2" Duration="12" Instrument="Duty 0"
				Note Time="76" Value="B2" Duration="12" Instrument="Duty 0"
				Note Time="88" Value="C3" Duration="1" Instrument="Duty 0"
				Note Time="89" Value="F#2" Duration="1" Instrument="Duty 0"
				Note Time="90" Value="C2" Duration="1" Instrument="Duty 0" FinePitch="1"
				Note Time="91" Value="F1" Duration="1" Instrument="Duty 0"
				Note Time="92" Value="A2" Duration="20" Instrument="Duty 0"
				Note Time="112" Value="C3" Duration="1" Instrument="Duty 0" FinePitch="0"
				Note Time="113" Value="F#2" Duration="1" Instrument="Duty 0"
				Note Time="114" Value="C2" Duration="1" Instrument="Duty 0" FinePitch="1"
				Note Time="115" Value="F1" Duration="1" Instrument="Duty 0"
				Note Time="116" Value="G#2" Duration="20" Instrument="Duty 0" FinePitch="0"
				Note Time="136" Value="C3" Duration="1" Instrument="Duty 0"
				Note Time="137" Value="F#2" Duration="1" Instrument="Duty 0"
				Note Time="138" Value="C2" Duration="1" Instrument="Duty 0" FinePitch="1"
				Note Time="139" Value="F1" Duration="1" Instrument="Duty 0"
				Note Time="140" Value="F#2" Duration="20" Instrument="Duty 0" FinePitch="0"
				Note Time="160" Value="C3" Duration="1" Instrument="Duty 0"
				Note Time="161" Value="F#2" Duration="1" Instrument="Duty 0"
				Note Time="162" Value="C2" Duration="1" Instrument="Duty 0" FinePitch="1"
				Note Time="163" Value="F1" Duration="1" Instrument="Duty 0"
				Note Time="164" Value="B1" Duration="20" Instrument="Duty 0" FinePitch="0"
				Note Time="184" Value="F#2" Duration="12" Instrument="Duty 0"
				Note Time="196" Value="G3" Duration="1" Instrument="Duty 0" FinePitch="1"
				Note Time="197" Value="F#3" Duration="1" Instrument="Duty 0"
				Note Time="198" Value="B2" Duration="10" Instrument="Duty 0" FinePitch="0"
				Note Time="208" Value="F#2" Duration="12" Instrument="Duty 0"
				Note Time="220" Value="C3" Duration="1" Instrument="Duty 0"
				Note Time="221" Value="F#2" Duration="1" Instrument="Duty 0"
				Note Time="222" Value="C2" Duration="1" Instrument="Duty 0" FinePitch="1"
				Note Time="223" Value="F1" Duration="1" Instrument="Duty 0"
				Note Time="224" Value="A1" Duration="8" Instrument="Duty 0" FinePitch="0"
				Note Time="232" Value="C3" Duration="1" Instrument="Duty 0"
				Note Time="233" Value="F#2" Duration="1" Instrument="Duty 0"
				Note Time="234" Value="C2" Duration="1" Instrument="Duty 0" FinePitch="1"
				Note Time="235" Value="F1" Duration="1" Instrument="Duty 0"
				Note Time="236" Value="B1" Duration="20" Instrument="Duty 0" FinePitch="0"
			Pattern Name="Pattern 30"
				Note Time="0" Value="B2" Duration="12" Instrument="Duty 0"
				Note Time="12" Value="G3" Duration="1" Instrument="Duty 0" FinePitch="1"
				Note Time="13" Value="F#3" Duration="1" Instrument="Duty 0"
				Note Time="14" Value="A1" Duration="10" Instrument="Duty 0" FinePitch="0"
				Note Time="24" Value="E2" Duration="12" Instrument="Duty 0"
				Note Time="36" Value="A2" Duration="12" Instrument="Duty 0" FinePitch="1"
				Note Time="48" Value="C3" Duration="1" Instrument="Duty 0" FinePitch="0"
				Note Time="49" Value="F#2" Duration="1" Instrument="Duty 0"
				Note Time="50" Value="C2" Duration="1" Instrument="Duty 0" FinePitch="1"
				Note Time="51" Value="F1" Duration="1" Instrument="Duty 0"
				Note Time="52" Value="C#2" Duration="8" Instrument="Duty 0"
				Note Time="60" Value="G#2" Duration="12" Instrument="Duty 0" FinePitch="0"
				Note Time="72" Value="B1" Duration="12" Instrument="Duty 0"
				Note Time="84" Value="G3" Duration="1" Instrument="Duty 0" FinePitch="1"
				Note Time="85" Value="F#3" Duration="1" Instrument="Duty 0"
				Note Time="86" Value="C#2" Duration="10" Instrument="Duty 0"
				Note Time="96" Value="G#2" Duration="12" Instrument="Duty 0" FinePitch="0"
				Note Time="108" Value="C3" Duration="1" Instrument="Duty 0"
				Note Time="109" Value="F#2" Duration="1" Instrument="Duty 0"
				Note Time="110" Value="C2" Duration="1" Instrument="Duty 0" FinePitch="1"
				Note Time="111" Value="F1" Duration="1" Instrument="Duty 0"
				Note Time="112" Value="B1" Duration="8" Instrument="Duty 0" FinePitch="0"
				Note Time="120" Value="C3" Duration="1" Instrument="Duty 0"
				Note Time="121" Value="F#2" Duration="1" Instrument="Duty 0"
				Note Time="122" Value="C2" Duration="1" Instrument="Duty 0" FinePitch="1"
				Note Time="123" Value="F1" Duration="1" Instrument="Duty 0"
				Note Time="124" Value="C#2" Duration="8" Instrument="Duty 0"
				Note Time="132" Value="D#2" Duration="12" Instrument="Duty 0"
				Note Time="144" Value="E2" Duration="12" Instrument="Duty 0" FinePitch="0"
				Note Time="156" Value="G3" Duration="1" Instrument="Duty 0" FinePitch="1"
				Note Time="157" Value="F#3" Duration="1" Instrument="Duty 0"
				Note Time="158" Value="D#2" Duration="10" Instrument="Duty 0"
				Note Time="168" Value="G3" Duration="1" Instrument="Duty 0"
				Note Time="169" Value="F#3" Duration="1" Instrument="Duty 0"
				Note Time="170" Value="C#2" Duration="4" Instrument="Duty 0"
				Note Time="174" Value="G3" Duration="1" Instrument="Duty 0"
				Note Time="175" Value="F#3" Duration="1" Instrument="Duty 0"
				Note Time="176" Value="C#2" Duration="4" Instrument="Duty 0"
				Note Time="180" Value="B1" Duration="6" Instrument="Duty 0" FinePitch="0"
				Note Time="186" Value="G3" Duration="1" Instrument="Duty 0" FinePitch="1"
				Note Time="187" Value="F#3" Duration="1" Instrument="Duty 0"
				Note Time="188" Value="B1" Duration="4" Instrument="Duty 0" FinePitch="0"
				Note Time="192" Value="C3" Duration="1" Instrument="Duty 0"
				Note Time="193" Value="F#2" Duration="1" Instrument="Duty 0"
				Note Time="194" Value="C2" Duration="1" Instrument="Duty 0" FinePitch="1"
				Note Time="195" Value="F1" Duration="1" Instrument="Duty 0"
				Note Time="196" Value="C#2" Duration="8" Instrument="Duty 0"
				Note Time="204" Value="G#2" Duration="12" Instrument="Duty 0" FinePitch="0"
				Note Time="216" Value="B1" Duration="12" Instrument="Duty 0"
				Note Time="228" Value="G3" Duration="1" Instrument="Duty 0" FinePitch="1"
				Note Time="229" Value="F#3" Duration="1" Instrument="Duty 0"
				Note Time="230" Value="C#2" Duration="10" Instrument="Duty 0"
				Note Time="240" Value="G#2" Duration="12" Instrument="Duty 0" FinePitch="0"
				Note Time="252" Value="C3" Duration="1" Instrument="Duty 0"
				Note Time="253" Value="F#2" Duration="1" Instrument="Duty 0"
				Note Time="254" Value="C2" Duration="1" Instrument="Duty 0" FinePitch="1"
				Note Time="255" Value="F1" Duration="1" Instrument="Duty 0"
			Pattern Name="Pattern 31"
				Note Time="0" Value="B1" Duration="8" Instrument="Duty 0" FinePitch="0"
				Note Time="8" Value="C3" Duration="1" Instrument="Duty 0"
				Note Time="9" Value="F#2" Duration="1" Instrument="Duty 0"
				Note Time="10" Value="C2" Duration="1" Instrument="Duty 0" FinePitch="1"
				Note Time="11" Value="F1" Duration="1" Instrument="Duty 0"
				Note Time="12" Value="C#2" Duration="8" Instrument="Duty 0"
				Note Time="20" Value="D#2" Duration="12" Instrument="Duty 0"
				Note Time="32" Value="E2" Duration="12" Instrument="Duty 0" FinePitch="0"
				Note Time="44" Value="G3" Duration="1" Instrument="Duty 0" FinePitch="1"
				Note Time="45" Value="F#3" Duration="1" Instrument="Duty 0"
				Note Time="46" Value="D#2" Duration="10" Instrument="Duty 0"
				Note Time="56" Value="G3" Duration="1" Instrument="Duty 0"
				Note Time="57" Value="F#3" Duration="1" Instrument="Duty 0"
				Note Time="58" Value="C#2" Duration="4" Instrument="Duty 0"
				Note Time="62" Value="G3" Duration="1" Instrument="Duty 0"
				Note Time="63" Value="F#3" Duration="1" Instrument="Duty 0"
				Note Time="64" Value="C#2" Duration="4" Instrument="Duty 0"
				Note Time="68" Value="B1" Duration="6" Instrument="Duty 0" FinePitch="0"
				Note Time="74" Value="G3" Duration="1" Instrument="Duty 0" FinePitch="1"
				Note Time="75" Value="F#3" Duration="1" Instrument="Duty 0"
				Note Time="76" Value="B1" Duration="4" Instrument="Duty 0" FinePitch="0"
				Note Time="80" Value="C3" Duration="1" Instrument="Duty 0"
				Note Time="81" Value="F#2" Duration="1" Instrument="Duty 0"
				Note Time="82" Value="C2" Duration="1" Instrument="Duty 0" FinePitch="1"
				Note Time="83" Value="F1" Duration="1" Instrument="Duty 0"
				Note Time="84" Value="C#2" Duration="8" Instrument="Duty 0"
				Note Time="92" Value="G#2" Duration="12" Instrument="Duty 0" FinePitch="0"
				Note Time="104" Value="B1" Duration="12" Instrument="Duty 0"
				Note Time="116" Value="G3" Duration="1" Instrument="Duty 0" FinePitch="1"
				Note Time="117" Value="F#3" Duration="1" Instrument="Duty 0"
				Note Time="118" Value="C#2" Duration="10" Instrument="Duty 0"
				Note Time="128" Value="G#2" Duration="12" Instrument="Duty 0" FinePitch="0"
				Note Time="140" Value="C3" Duration="1" Instrument="Duty 0"
				Note Time="141" Value="F#2" Duration="1" Instrument="Duty 0"
				Note Time="142" Value="C2" Duration="1" Instrument="Duty 0" FinePitch="1"
				Note Time="143" Value="F1" Duration="1" Instrument="Duty 0"
				Note Time="144" Value="B1" Duration="8" Instrument="Duty 0" FinePitch="0"
				Note Time="152" Value="C3" Duration="1" Instrument="Duty 0"
				Note Time="153" Value="F#2" Duration="1" Instrument="Duty 0"
				Note Time="154" Value="C2" Duration="1" Instrument="Duty 0" FinePitch="1"
				Note Time="155" Value="F1" Duration="1" Instrument="Duty 0"
				Note Time="156" Value="C#2" Duration="8" Instrument="Duty 0"
				Note Time="164" Value="D#2" Duration="12" Instrument="Duty 0"
				Note Time="176" Value="E2" Duration="12" Instrument="Duty 0" FinePitch="0"
				Note Time="188" Value="G3" Duration="1" Instrument="Duty 0" FinePitch="1"
				Note Time="189" Value="F#3" Duration="1" Instrument="Duty 0"
				Note Time="190" Value="D#2" Duration="10" Instrument="Duty 0"
				Note Time="200" Value="G3" Duration="1" Instrument="Duty 0"
				Note Time="201" Value="F#3" Duration="1" Instrument="Duty 0"
				Note Time="202" Value="C#2" Duration="4" Instrument="Duty 0"
				Note Time="206" Value="G3" Duration="1" Instrument="Duty 0"
				Note Time="207" Value="F#3" Duration="1" Instrument="Duty 0"
				Note Time="208" Value="C#2" Duration="4" Instrument="Duty 0"
				Note Time="212" Value="B1" Duration="6" Instrument="Duty 0" FinePitch="0"
				Note Time="218" Value="G3" Duration="1" Instrument="Duty 0" FinePitch="1"
				Note Time="219" Value="F#3" Duration="1" Instrument="Duty 0"
				Note Time="220" Value="B1" Duration="4" Instrument="Duty 0" FinePitch="0"
				Note Time="224" Value="C3" Duration="1" Instrument="Duty 0"
				Note Time="225" Value="F#2" Duration="1" Instrument="Duty 0"
				Note Time="226" Value="C2" Duration="1" Instrument="Duty 0" FinePitch="1"
				Note Time="227" Value="F1" Duration="1" Instrument="Duty 0"
				Note Time="228" Value="C#2" Duration="8" Instrument="Duty 0"
				Note Time="236" Value="G#2" Duration="12" Instrument="Duty 0" FinePitch="0"
				Note Time="248" Value="B1" Duration="12" Instrument="Duty 0"
			Pattern Name="Pattern 32"
				Note Time="4" Value="G3" Duration="1" Instrument="Duty 0" FinePitch="1"
				Note Time="5" Value="F#3" Duration="1" Instrument="Duty 0"
				Note Time="6" Value="C#2" Duration="10" Instrument="Duty 0"
				Note Time="16" Value="G#2" Duration="12" Instrument="Duty 0" FinePitch="0"
				Note Time="28" Value="C3" Duration="1" Instrument="Duty 0"
				Note Time="29" Value="F#2" Duration="1" Instrument="Duty 0"
				Note Time="30" Value="C2" Duration="1" Instrument="Duty 0" FinePitch="1"
				Note Time="31" Value="F1" Duration="1" Instrument="Duty 0"
				Note Time="32" Value="B1" Duration="8" Instrument="Duty 0" FinePitch="0"
				Note Time="40" Value="C3" Duration="1" Instrument="Duty 0"
				Note Time="41" Value="F#2" Duration="1" Instrument="Duty 0"
				Note Time="42" Value="C2" Duration="1" Instrument="Duty 0" FinePitch="1"
				Note Time="43" Value="F1" Duration="1" Instrument="Duty 0"
				Note Time="44" Value="C#2" Duration="8" Instrument="Duty 0"
				Note Time="52" Value="D#2" Duration="12" Instrument="Duty 0"
				Note Time="64" Value="E2" Duration="12" Instrument="Duty 0" FinePitch="0"
				Note Time="76" Value="G3" Duration="1" Instrument="Duty 0" FinePitch="1"
				Note Time="77" Value="F#3" Duration="1" Instrument="Duty 0"
				Note Time="78" Value="D#2" Duration="10" Instrument="Duty 0"
				Note Time="88" Value="G3" Duration="1" Instrument="Duty 0"
				Note Time="89" Value="F#3" Duration="1" Instrument="Duty 0"
				Note Time="90" Value="C#2" Duration="4" Instrument="Duty 0"
				Note Time="94" Value="G3" Duration="1" Instrument="Duty 0"
				Note Time="95" Value="F#3" Duration="1" Instrument="Duty 0"
				Note Time="96" Value="C#2" Duration="4" Instrument="Duty 0"
				Note Time="100" Value="B1" Duration="6" Instrument="Duty 0" FinePitch="0"
				Note Time="106" Value="G3" Duration="1" Instrument="Duty 0" FinePitch="1"
				Note Time="107" Value="F#3" Duration="1" Instrument="Duty 0"
				Note Time="108" Value="B1" Duration="4" Instrument="Duty 0" FinePitch="0"
				Note Time="112" Value="C3" Duration="1" Instrument="Duty 0"
				Note Time="113" Value="F#2" Duration="1" Instrument="Duty 0"
				Note Time="114" Value="C2" Duration="1" Instrument="Duty 0" FinePitch="1"
				Note Time="115" Value="F1" Duration="1" Instrument="Duty 0"
				Note Time="116" Value="F#2" Duration="8" Instrument="Duty 0" FinePitch="0"
				Note Time="124" Value="C#3" Duration="12" Instrument="Duty 0"
				Note Time="136" Value="E2" Duration="12" Instrument="Duty 0"
				Note Time="148" Value="G3" Duration="1" Instrument="Duty 0" FinePitch="1"
				Note Time="149" Value="F#3" Duration="1" Instrument="Duty 0"
				Note Time="150" Value="F#2" Duration="10" Instrument="Duty 0" FinePitch="0"
				Note Time="160" Value="C#3" Duration="12" Instrument="Duty 0"
				Note Time="172" Value="C3" Duration="1" Instrument="Duty 0"
				Note Time="173" Value="F#2" Duration="1" Instrument="Duty 0"
				Note Time="174" Value="C2" Duration="1" Instrument="Duty 0" FinePitch="1"
				Note Time="175" Value="F1" Duration="1" Instrument="Duty 0"
				Note Time="176" Value="E2" Duration="8" Instrument="Duty 0" FinePitch="0"
				Note Time="184" Value="C3" Duration="1" Instrument="Duty 0"
				Note Time="185" Value="F#2" Duration="1" Instrument="Duty 0"
				Note Time="186" Value="C2" Duration="1" Instrument="Duty 0" FinePitch="1"
				Note Time="187" Value="F1" Duration="1" Instrument="Duty 0"
				Note Time="188" Value="F#2" Duration="8" Instrument="Duty 0" FinePitch="0"
				Note Time="196" Value="G#2" Duration="12" Instrument="Duty 0"
				Note Time="208" Value="A2" Duration="12" Instrument="Duty 0" FinePitch="1"
				Note Time="220" Value="G3" Duration="1" Instrument="Duty 0"
				Note Time="221" Value="F#3" Duration="1" Instrument="Duty 0"
				Note Time="222" Value="G#2" Duration="10" Instrument="Duty 0" FinePitch="0"
				Note Time="232" Value="G3" Duration="1" Instrument="Duty 0" FinePitch="1"
				Note Time="233" Value="F#3" Duration="1" Instrument="Duty 0"
				Note Time="234" Value="F#2" Duration="4" Instrument="Duty 0" FinePitch="0"
				Note Time="238" Value="G3" Duration="1" Instrument="Duty 0" FinePitch="1"
				Note Time="239" Value="F#3" Duration="1" Instrument="Duty 0"
				Note Time="240" Value="F#2" Duration="4" Instrument="Duty 0" FinePitch="0"
				Note Time="244" Value="E2" Duration="6" Instrument="Duty 0"
				Note Time="250" Value="G3" Duration="1" Instrument="Duty 0" FinePitch="1"
				Note Time="251" Value="F#3" Duration="1" Instrument="Duty 0"
				Note Time="252" Value="E2" Duration="4" Instrument="Duty 0" FinePitch="0"
			Pattern Name="Pattern 33"
				Note Time="0" Value="C3" Duration="1" Instrument="Duty 0"
				Note Time="1" Value="F#2" Duration="1" Instrument="Duty 0"
				Note Time="2" Value="C2" Duration="1" Instrument="Duty 0" FinePitch="1"
				Note Time="3" Value="F1" Duration="1" Instrument="Duty 0"
				Note Time="4" Value="F#2" Duration="8" Instrument="Duty 0" FinePitch="0"
				Note Time="12" Value="C#3" Duration="12" Instrument="Duty 0"
				Note Time="24" Value="E2" Duration="12" Instrument="Duty 0"
				Note Time="36" Value="G3" Duration="1" Instrument="Duty 0" FinePitch="1"
				Note Time="37" Value="F#3" Duration="1" Instrument="Duty 0"
				Note Time="38" Value="F#2" Duration="10" Instrument="Duty 0" FinePitch="0"
				Note Time="48" Value="C#3" Duration="12" Instrument="Duty 0"
				Note Time="60" Value="C3" Duration="1" Instrument="Duty 0"
				Note Time="61" Value="F#2" Duration="1" Instrument="Duty 0"
				Note Time="62" Value="C2" Duration="1" Instrument="Duty 0" FinePitch="1"
				Note Time="63" Value="F1" Duration="1" Instrument="Duty 0"
				Note Time="64" Value="E2" Duration="8" Instrument="Duty 0" FinePitch="0"
				Note Time="72" Value="C3" Duration="1" Instrument="Duty 0"
				Note Time="73" Value="F#2" Duration="1" Instrument="Duty 0"
				Note Time="74" Value="C2" Duration="1" Instrument="Duty 0" FinePitch="1"
				Note Time="75" Value="F1" Duration="1" Instrument="Duty 0"
				Note Time="76" Value="F#2" Duration="8" Instrument="Duty 0" FinePitch="0"
				Note Time="84" Value="G#2" Duration="12" Instrument="Duty 0"
				Note Time="96" Value="A2" Duration="12" Instrument="Duty 0" FinePitch="1"
				Note Time="108" Value="G3" Duration="1" Instrument="Duty 0"
				Note Time="109" Value="F#3" Duration="1" Instrument="Duty 0"
				Note Time="110" Value="G#2" Duration="10" Instrument="Duty 0" FinePitch="0"
				Note Time="120" Value="G3" Duration="1" Instrument="Duty 0" FinePitch="1"
				Note Time="121" Value="F#3" Duration="1" Instrument="Duty 0"
				Note Time="122" Value="F#2" Duration="4" Instrument="Duty 0" FinePitch="0"
				Note Time="126" Value="G3" Duration="1" Instrument="Duty 0" FinePitch="1"
				Note Time="127" Value="F#3" Duration="1" Instrument="Duty 0"
				Note Time="128" Value="F#2" Duration="4" Instrument="Duty 0" FinePitch="0"
				Note Time="132" Value="E2" Duration="6" Instrument="Duty 0"
				Note Time="138" Value="G3" Duration="1" Instrument="Duty 0" FinePitch="1"
				Note Time="139" Value="F#3" Duration="1" Instrument="Duty 0"
				Note Time="140" Value="E2" Duration="4" Instrument="Duty 0" FinePitch="0"
				Note Time="144" Value="C3" Duration="1" Instrument="Duty 0"
				Note Time="145" Value="F#2" Duration="1" Instrument="Duty 0"
				Note Time="146" Value="C2" Duration="1" Instrument="Duty 0" FinePitch="1"
				Note Time="147" Value="F1" Duration="1" Instrument="Duty 0"
				Note Time="148" Value="F#2" Duration="8" Instrument="Duty 0" FinePitch="0"
				Note Time="156" Value="C#3" Duration="12" Instrument="Duty 0"
				Note Time="168" Value="E2" Duration="12" Instrument="Duty 0"
				Note Time="180" Value="G3" Duration="1" Instrument="Duty 0" FinePitch="1"
				Note Time="181" Value="F#3" Duration="1" Instrument="Duty 0"
				Note Time="182" Value="F#2" Duration="10" Instrument="Duty 0" FinePitch="0"
				Note Time="192" Value="C#3" Duration="12" Instrument="Duty 0"
				Note Time="204" Value="C3" Duration="1" Instrument="Duty 0"
				Note Time="205" Value="F#2" Duration="1" Instrument="Duty 0"
				Note Time="206" Value="C2" Duration="1" Instrument="Duty 0" FinePitch="1"
				Note Time="207" Value="F1" Duration="1" Instrument="Duty 0"
				Note Time="208" Value="E2" Duration="8" Instrument="Duty 0" FinePitch="0"
				Note Time="216" Value="C3" Duration="1" Instrument="Duty 0"
				Note Time="217" Value="F#2" Duration="1" Instrument="Duty 0"
				Note Time="218" Value="C2" Duration="1" Instrument="Duty 0" FinePitch="1"
				Note Time="219" Value="F1" Duration="1" Instrument="Duty 0"
				Note Time="220" Value="F#2" Duration="8" Instrument="Duty 0" FinePitch="0"
				Note Time="228" Value="G#2" Duration="12" Instrument="Duty 0"
				Note Time="240" Value="A2" Duration="12" Instrument="Duty 0" FinePitch="1"
				Note Time="252" Value="G3" Duration="1" Instrument="Duty 0"
				Note Time="253" Value="F#3" Duration="1" Instrument="Duty 0"
				Note Time="254" Value="G#2" Duration="10" Instrument="Duty 0" FinePitch="0"
			Pattern Name="Pattern 34"
				Note Time="8" Value="G3" Duration="1" Instrument="Duty 0" FinePitch="1"
				Note Time="9" Value="F#3" Duration="1" Instrument="Duty 0"
				Note Time="10" Value="F#2" Duration="4" Instrument="Duty 0" FinePitch="0"
				Note Time="14" Value="G3" Duration="1" Instrument="Duty 0" FinePitch="1"
				Note Time="15" Value="F#3" Duration="1" Instrument="Duty 0"
				Note Time="16" Value="F#2" Duration="4" Instrument="Duty 0" FinePitch="0"
				Note Time="20" Value="E2" Duration="6" Instrument="Duty 0"
				Note Time="26" Value="G3" Duration="1" Instrument="Duty 0" FinePitch="1"
				Note Time="27" Value="F#3" Duration="1" Instrument="Duty 0"
				Note Time="28" Value="E2" Duration="4" Instrument="Duty 0" FinePitch="0"
				Note Time="32" Value="C3" Duration="1" Instrument="Duty 0"
				Note Time="33" Value="F#2" Duration="1" Instrument="Duty 0"
				Note Time="34" Value="C2" Duration="1" Instrument="Duty 0" FinePitch="1"
				Note Time="35" Value="F1" Duration="1" Instrument="Duty 0"
				Note Time="36" Value="F#2" Duration="8" Instrument="Duty 0" FinePitch="0"
				Note Time="44" Value="C#3" Duration="12" Instrument="Duty 0"
				Note Time="56" Value="E2" Duration="12" Instrument="Duty 0"
				Note Time="68" Value="G3" Duration="1" Instrument="Duty 0" FinePitch="1"
				Note Time="69" Value="F#3" Duration="1" Instrument="Duty 0"
				Note Time="70" Value="F#2" Duration="10" Instrument="Duty 0" FinePitch="0"
				Note Time="80" Value="C#3" Duration="12" Instrument="Duty 0"
				Note Time="92" Value="C3" Duration="1" Instrument="Duty 0"
				Note Time="93" Value="F#2" Duration="1" Instrument="Duty 0"
				Note Time="94" Value="C2" Duration="1" Instrument="Duty 0" FinePitch="1"
				Note Time="95" Value="F1" Duration="1" Instrument="Duty 0"
				Note Time="96" Value="E2" Duration="8" Instrument="Duty 0" FinePitch="0"
				Note Time="104" Value="C3" Duration="1" Instrument="Duty 0"
				Note Time="105" Value="F#2" Duration="1" Instrument="Duty 0"
				Note Time="106" Value="C2" Duration="1" Instrument="Duty 0" FinePitch="1"
				Note Time="107" Value="F1" Duration="1" Instrument="Duty 0"
				Note Time="108" Value="F#2" Duration="8" Instrument="Duty 0" FinePitch="0"
				Note Time="116" Value="G#2" Duration="12" Instrument="Duty 0"
				Note Time="128" Value="A2" Duration="12" Instrument="Duty 0" FinePitch="1"
				Note Time="140" Value="G3" Duration="1" Instrument="Duty 0"
				Note Time="141" Value="F#3" Duration="1" Instrument="Duty 0"
				Note Time="142" Value="G#2" Duration="10" Instrument="Duty 0" FinePitch="0"
				Note Time="152" Value="G3" Duration="1" Instrument="Duty 0" FinePitch="1"
				Note Time="153" Value="F#3" Duration="1" Instrument="Duty 0"
				Note Time="154" Value="F#2" Duration="4" Instrument="Duty 0" FinePitch="0"
				Note Time="158" Value="G3" Duration="1" Instrument="Duty 0" FinePitch="1"
				Note Time="159" Value="F#3" Duration="1" Instrument="Duty 0"
				Note Time="160" Value="F#2" Duration="4" Instrument="Duty 0" FinePitch="0"
				Note Time="164" Value="E2" Duration="6" Instrument="Duty 0"
				Note Time="170" Value="G3" Duration="1" Instrument="Duty 0" FinePitch="1"
				Note Time="171" Value="F#3" Duration="1" Instrument="Duty 0"
				Note Time="172" Value="E2" Duration="4" Instrument="Duty 0" FinePitch="0"
				Note Time="176" Value="C3" Duration="1" Instrument="Duty 0"
				Note Time="177" Value="F#2" Duration="1" Instrument="Duty 0"
				Note Time="178" Value="C2" Duration="1" Instrument="Duty 0" FinePitch="1"
				Note Time="179" Value="F1" Duration="1" Instrument="Duty 0"
				Note Time="180" Value="B1" Duration="8" Instrument="Duty 0" FinePitch="0"
				Note Time="188" Value="F#2" Duration="12" Instrument="Duty 0"
				Note Time="200" Value="A1" Duration="12" Instrument="Duty 0"
				Note Time="212" Value="G3" Duration="1" Instrument="Duty 0" FinePitch="1"
				Note Time="213" Value="F#3" Duration="1" Instrument="Duty 0"
				Note Time="214" Value="B1" Duration="10" Instrument="Duty 0" FinePitch="0"
				Note Time="224" Value="F#2" Duration="12" Instrument="Duty 0"
				Note Time="236" Value="C3" Duration="1" Instrument="Duty 0"
				Note Time="237" Value="F#2" Duration="1" Instrument="Duty 0"
				Note Time="238" Value="C2" Duration="1" Instrument="Duty 0" FinePitch="1"
				Note Time="239" Value="F1" Duration="1" Instrument="Duty 0"
				Note Time="240" Value="A1" Duration="8" Instrument="Duty 0" FinePitch="0"
				Note Time="248" Value="C3" Duration="1" Instrument="Duty 0"
				Note Time="249" Value="F#2" Duration="1" Instrument="Duty 0"
				Note Time="250" Value="C2" Duration="1" Instrument="Duty 0" FinePitch="1"
				Note Time="251" Value="F1" Duration="1" Instrument="Duty 0"
				Note Time="252" Value="B1" Duration="8" Instrument="Duty 0" FinePitch="0"
			Pattern Name="Pattern 35"
				Note Time="4" Value="C#2" Duration="12" Instrument="Duty 0" FinePitch="1"
				Note Time="16" Value="D2" Duration="12" Instrument="Duty 0" FinePitch="0"
				Note Time="28" Value="G3" Duration="1" Instrument="Duty 0" FinePitch="1"
				Note Time="29" Value="F#3" Duration="1" Instrument="Duty 0"
				Note Time="30" Value="C#2" Duration="10" Instrument="Duty 0"
				Note Time="40" Value="G3" Duration="1" Instrument="Duty 0"
				Note Time="41" Value="F#3" Duration="1" Instrument="Duty 0"
				Note Time="42" Value="B1" Duration="4" Instrument="Duty 0" FinePitch="0"
				Note Time="46" Value="G3" Duration="1" Instrument="Duty 0" FinePitch="1"
				Note Time="47" Value="F#3" Duration="1" Instrument="Duty 0"
				Note Time="48" Value="B1" Duration="4" Instrument="Duty 0" FinePitch="0"
				Note Time="52" Value="A1" Duration="6" Instrument="Duty 0"
				Note Time="58" Value="G3" Duration="1" Instrument="Duty 0" FinePitch="1"
				Note Time="59" Value="F#3" Duration="1" Instrument="Duty 0"
				Note Time="60" Value="A1" Duration="4" Instrument="Duty 0" FinePitch="0"
				Note Time="64" Value="C3" Duration="1" Instrument="Duty 0"
				Note Time="65" Value="F#2" Duration="1" Instrument="Duty 0"
				Note Time="66" Value="C2" Duration="1" Instrument="Duty 0" FinePitch="1"
				Note Time="67" Value="F1" Duration="1" Instrument="Duty 0"
				Note Time="68" Value="B1" Duration="8" Instrument="Duty 0" FinePitch="0"
				Note Time="76" Value="F#2" Duration="12" Instrument="Duty 0"
				Note Time="88" Value="A1" Duration="12" Instrument="Duty 0"
				Note Time="100" Value="G3" Duration="1" Instrument="Duty 0" FinePitch="1"
				Note Time="101" Value="F#3" Duration="1" Instrument="Duty 0"
				Note Time="102" Value="B1" Duration="10" Instrument="Duty 0" FinePitch="0"
				Note Time="112" Value="F#2" Duration="12" Instrument="Duty 0"
				Note Time="124" Value="C3" Duration="1" Instrument="Duty 0"
				Note Time="125" Value="F#2" Duration="1" Instrument="Duty 0"
				Note Time="126" Value="C2" Duration="1" Instrument="Duty 0" FinePitch="1"
				Note Time="127" Value="F1" Duration="1" Instrument="Duty 0"
				Note Time="128" Value="A1" Duration="8" Instrument="Duty 0" FinePitch="0"
				Note Time="136" Value="C3" Duration="1" Instrument="Duty 0"
				Note Time="137" Value="F#2" Duration="1" Instrument="Duty 0"
				Note Time="138" Value="C2" Duration="1" Instrument="Duty 0" FinePitch="1"
				Note Time="139" Value="F1" Duration="1" Instrument="Duty 0"
				Note Time="140" Value="B1" Duration="8" Instrument="Duty 0" FinePitch="0"
				Note Time="148" Value="C#2" Duration="12" Instrument="Duty 0" FinePitch="1"
				Note Time="160" Value="D2" Duration="12" Instrument="Duty 0" FinePitch="0"
				Note Time="172" Value="G3" Duration="1" Instrument="Duty 0" FinePitch="1"
				Note Time="173" Value="F#3" Duration="1" Instrument="Duty 0"
				Note Time="174" Value="C#2" Duration="10" Instrument="Duty 0"
				Note Time="184" Value="G3" Duration="1" Instrument="Duty 0"
				Note Time="185" Value="F#3" Duration="1" Instrument="Duty 0"
				Note Time="186" Value="B1" Duration="4" Instrument="Duty 0" FinePitch="0"
				Note Time="190" Value="G3" Duration="1" Instrument="Duty 0" FinePitch="1"
				Note Time="191" Value="F#3" Duration="1" Instrument="Duty 0"
				Note Time="192" Value="B1" Duration="4" Instrument="Duty 0" FinePitch="0"
				Note Time="196" Value="A1" Duration="6" Instrument="Duty 0"
				Note Time="202" Value="G3" Duration="1" Instrument="Duty 0" FinePitch="1"
				Note Time="203" Value="F#3" Duration="1" Instrument="Duty 0"
				Note Time="204" Value="A1" Duration="4" Instrument="Duty 0" FinePitch="0"
				Note Time="208" Value="C3" Duration="1" Instrument="Duty 0"
				Note Time="209" Value="F#2" Duration="1" Instrument="Duty 0"
				Note Time="210" Value="C2" Duration="1" Instrument="Duty 0" FinePitch="1"
				Note Time="211" Value="F1" Duration="1" Instrument="Duty 0"
				Note Time="212" Value="B1" Duration="8" Instrument="Duty 0" FinePitch="0"
				Note Time="220" Value="F#2" Duration="12" Instrument="Duty 0"
				Note Time="232" Value="A1" Duration="12" Instrument="Duty 0"
				Note Time="244" Value="G3" Duration="1" Instrument="Duty 0" FinePitch="1"
				Note Time="245" Value="F#3" Duration="1" Instrument="Duty 0"
				Note Time="246" Value="B1" Duration="10" Instrument="Duty 0" FinePitch="0"
			Pattern Name="Pattern 36"
				Note Time="0" Value="F#2" Duration="12" Instrument="Duty 0"
				Note Time="12" Value="C3" Duration="1" Instrument="Duty 0"
				Note Time="13" Value="F#2" Duration="1" Instrument="Duty 0"
				Note Time="14" Value="C2" Duration="1" Instrument="Duty 0" FinePitch="1"
				Note Time="15" Value="F1" Duration="1" Instrument="Duty 0"
				Note Time="16" Value="A1" Duration="8" Instrument="Duty 0" FinePitch="0"
				Note Time="24" Value="C3" Duration="1" Instrument="Duty 0"
				Note Time="25" Value="F#2" Duration="1" Instrument="Duty 0"
				Note Time="26" Value="C2" Duration="1" Instrument="Duty 0" FinePitch="1"
				Note Time="27" Value="F1" Duration="1" Instrument="Duty 0"
				Note Time="28" Value="B1" Duration="8" Instrument="Duty 0" FinePitch="0"
				Note Time="36" Value="C#2" Duration="12" Instrument="Duty 0" FinePitch="1"
				Note Time="48" Value="D2" Duration="12" Instrument="Duty 0" FinePitch="0"
				Note Time="60" Value="G3" Duration="1" Instrument="Duty 0" FinePitch="1"
				Note Time="61" Value="F#3" Duration="1" Instrument="Duty 0"
				Note Time="62" Value="C#2" Duration="10" Instrument="Duty 0"
				Note Time="72" Value="G3" Duration="1" Instrument="Duty 0"
				Note Time="73" Value="F#3" Duration="1" Instrument="Duty 0"
				Note Time="74" Value="B1" Duration="4" Instrument="Duty 0" FinePitch="0"
				Note Time="78" Value="G3" Duration="1" Instrument="Duty 0" FinePitch="1"
				Note Time="79" Value="F#3" Duration="1" Instrument="Duty 0"
				Note Time="80" Value="B1" Duration="4" Instrument="Duty 0" FinePitch="0"
				Note Time="84" Value="A1" Duration="6" Instrument="Duty 0"
				Note Time="90" Value="G3" Duration="1" Instrument="Duty 0" FinePitch="1"
				Note Time="91" Value="F#3" Duration="1" Instrument="Duty 0"
				Note Time="92" Value="A1" Duration="4" Instrument="Duty 0" FinePitch="0"
				Note Time="96" Value="C3" Duration="1" Instrument="Duty 0"
				Note Time="97" Value="F#2" Duration="1" Instrument="Duty 0"
				Note Time="98" Value="C2" Duration="1" Instrument="Duty 0" FinePitch="1"
				Note Time="99" Value="F1" Duration="1" Instrument="Duty 0"
				Note Time="100" Value="B1" Duration="8" Instrument="Duty 0" FinePitch="0"
				Note Time="108" Value="F#2" Duration="12" Instrument="Duty 0"
				Note Time="120" Value="A1" Duration="12" Instrument="Duty 0"
				Note Time="132" Value="G3" Duration="1" Instrument="Duty 0" FinePitch="1"
				Note Time="133" Value="F#3" Duration="1" Instrument="Duty 0"
				Note Time="134" Value="B1" Duration="10" Instrument="Duty 0" FinePitch="0"
				Note Time="144" Value="F#2" Duration="12" Instrument="Duty 0"
				Note Time="156" Value="C3" Duration="1" Instrument="Duty 0"
				Note Time="157" Value="F#2" Duration="1" Instrument="Duty 0"
				Note Time="158" Value="C2" Duration="1" Instrument="Duty 0" FinePitch="1"
				Note Time="159" Value="F1" Duration="1" Instrument="Duty 0"
				Note Time="160" Value="A1" Duration="8" Instrument="Duty 0" FinePitch="0"
				Note Time="168" Value="C3" Duration="1" Instrument="Duty 0"
				Note Time="169" Value="F#2" Duration="1" Instrument="Duty 0"
				Note Time="170" Value="C2" Duration="1" Instrument="Duty 0" FinePitch="1"
				Note Time="171" Value="F1" Duration="1" Instrument="Duty 0"
				Note Time="172" Value="B1" Duration="8" Instrument="Duty 0" FinePitch="0"
				Note Time="180" Value="C#2" Duration="12" Instrument="Duty 0" FinePitch="1"
				Note Time="192" Value="D2" Duration="12" Instrument="Duty 0" FinePitch="0"
				Note Time="204" Value="G3" Duration="1" Instrument="Duty 0" FinePitch="1"
				Note Time="205" Value="F#3" Duration="1" Instrument="Duty 0"
				Note Time="206" Value="C#2" Duration="10" Instrument="Duty 0"
				Note Time="216" Value="G3" Duration="1" Instrument="Duty 0"
				Note Time="217" Value="F#3" Duration="1" Instrument="Duty 0"
				Note Time="218" Value="B1" Duration="4" Instrument="Duty 0" FinePitch="0"
				Note Time="222" Value="G3" Duration="1" Instrument="Duty 0" FinePitch="1"
				Note Time="223" Value="F#3" Duration="1" Instrument="Duty 0"
				Note Time="224" Value="B1" Duration="4" Instrument="Duty 0" FinePitch="0"
				Note Time="228" Value="A1" Duration="6" Instrument="Duty 0"
				Note Time="234" Value="G3" Duration="1" Instrument="Duty 0" FinePitch="1"
				Note Time="235" Value="F#3" Duration="1" Instrument="Duty 0"
				Note Time="236" Value="A1" Duration="4" Instrument="Duty 0" FinePitch="0"
				Note Time="240" Value="C3" Duration="1" Instrument="Duty 0"
				Note Time="241" Value="F#2" Duration="1" Instrument="Duty 0"
				Note Time="242" Value="C2" Duration="1" Instrument="Duty 0" FinePitch="1"
				Note Time="243" Value="F1" Duration="1" Instrument="Duty 0"
				Note Time="244" Value="F#2" Duration="8" Instrument="Duty 0" FinePitch="0"
				Note Time="252" Value="F#1" Duration="12" Instrument="Duty 0" FinePitch="1"
			Pattern Name="Pattern 37"
				Note Time="8" Value="G3" Duration="1" Instrument="Duty 0"
				Note Time="9" Value="F#3" Duration="1" Instrument="Duty 0"
				Note Time="10" Value="E2" Duration="10" Instrument="Duty 0" FinePitch="0"
				Note Time="20" Value="C3" Duration="1" Instrument="Duty 0"
				Note Time="21" Value="F#2" Duration="1" Instrument="Duty 0"
				Note Time="22" Value="C2" Duration="1" Instrument="Duty 0" FinePitch="1"
				Note Time="23" Value="F1" Duration="1" Instrument="Duty 0"
				Note Time="24" Value="F#2" Duration="8" Instrument="Duty 0" FinePitch="0"
				Note Time="32" Value="F#1" Duration="12" Instrument="Duty 0" FinePitch="1"
				Note Time="44" Value="G3" Duration="1" Instrument="Duty 0"
				Note Time="45" Value="F#3" Duration="1" Instrument="Duty 0"
				Note Time="46" Value="F#2" Duration="10" Instrument="Duty 0" FinePitch="0"
				Note Time="56" Value="G3" Duration="1" Instrument="Duty 0" FinePitch="1"
				Note Time="57" Value="F#3" Duration="1" Instrument="Duty 0"
				Note Time="58" Value="E2" Duration="10" Instrument="Duty 0" FinePitch="0"
				Note Time="68" Value="G3" Duration="1" Instrument="Duty 0" FinePitch="1"
				Note Time="69" Value="F#3" Duration="1" Instrument="Duty 0"
				Note Time="70" Value="E2" Duration="10" Instrument="Duty 0" FinePitch="0"
				Note Time="80" Value="G3" Duration="1" Instrument="Duty 0" FinePitch="1"
				Note Time="81" Value="F#3" Duration="1" Instrument="Duty 0"
				Note Time="82" Value="E2" Duration="10" Instrument="Duty 0" FinePitch="0"
				Note Time="104" Value="G3" Duration="1" Instrument="Duty 0" FinePitch="1"
				Note Time="105" Value="F#3" Duration="1" Instrument="Duty 0"
				Note Time="106" Value="C#2" Duration="10" Instrument="Duty 0"
				Note Time="116" Value="G3" Duration="1" Instrument="Duty 0"
				Note Time="117" Value="F#3" Duration="1" Instrument="Duty 0"
				Note Time="118" Value="E2" Duration="4" Instrument="Duty 0" FinePitch="0"
				Note Time="122" Value="G3" Duration="1" Instrument="Duty 0" FinePitch="1"
				Note Time="123" Value="F#3" Duration="1" Instrument="Duty 0"
				Note Time="124" Value="E2" Duration="4" Instrument="Duty 0" FinePitch="0"
				Note Time="128" Value="C3" Duration="1" Instrument="Duty 0"
				Note Time="129" Value="F#2" Duration="1" Instrument="Duty 0"
				Note Time="130" Value="C2" Duration="1" Instrument="Duty 0" FinePitch="1"
				Note Time="131" Value="F1" Duration="1" Instrument="Duty 0"
				Note Time="132" Value="F#2" Duration="8" Instrument="Duty 0" FinePitch="0"
				Note Time="140" Value="F#1" Duration="12" Instrument="Duty 0" FinePitch="1"
				Note Time="152" Value="G3" Duration="1" Instrument="Duty 0"
				Note Time="153" Value="F#3" Duration="1" Instrument="Duty 0"
				Note Time="154" Value="E2" Duration="10" Instrument="Duty 0" FinePitch="0"
				Note Time="164" Value="C3" Duration="1" Instrument="Duty 0"
				Note Time="165" Value="F#2" Duration="1" Instrument="Duty 0"
				Note Time="166" Value="C2" Duration="1" Instrument="Duty 0" FinePitch="1"
				Note Time="167" Value="F1" Duration="1" Instrument="Duty 0"
				Note Time="168" Value="F#2" Duration="8" Instrument="Duty 0" FinePitch="0"
				Note Time="176" Value="F#1" Duration="12" Instrument="Duty 0" FinePitch="1"
				Note Time="188" Value="G3" Duration="1" Instrument="Duty 0"
				Note Time="189" Value="F#3" Duration="1" Instrument="Duty 0"
				Note Time="190" Value="F#2" Duration="10" Instrument="Duty 0" FinePitch="0"
				Note Time="200" Value="G3" Duration="1" Instrument="Duty 0" FinePitch="1"
				Note Time="201" Value="F#3" Duration="1" Instrument="Duty 0"
				Note Time="202" Value="E2" Duration="10" Instrument="Duty 0" FinePitch="0"
				Note Time="212" Value="G3" Duration="1" Instrument="Duty 0" FinePitch="1"
				Note Time="213" Value="F#3" Duration="1" Instrument="Duty 0"
				Note Time="214" Value="E2" Duration="10" Instrument="Duty 0" FinePitch="0"
				Note Time="224" Value="G3" Duration="1" Instrument="Duty 0" FinePitch="1"
				Note Time="225" Value="F#3" Duration="1" Instrument="Duty 0"
				Note Time="226" Value="E2" Duration="10" Instrument="Duty 0" FinePitch="0"
				Note Time="248" Value="G3" Duration="1" Instrument="Duty 0" FinePitch="1"
				Note Time="249" Value="F#3" Duration="1" Instrument="Duty 0"
				Note Time="250" Value="C#2" Duration="10" Instrument="Duty 0"
			Pattern Name="Pattern 38"
				Note Time="4" Value="G3" Duration="1" Instrument="Duty 0"
				Note Time="5" Value="F#3" Duration="1" Instrument="Duty 0"
				Note Time="6" Value="E2" Duration="4" Instrument="Duty 0" FinePitch="0"
				Note Time="10" Value="G3" Duration="1" Instrument="Duty 0" FinePitch="1"
				Note Time="11" Value="F#3" Duration="1" Instrument="Duty 0"
				Note Time="12" Value="E2" Duration="4" Instrument="Duty 0" FinePitch="0"
				Note Time="16" Value="C3" Duration="1" Instrument="Duty 0"
				Note Time="17" Value="F#2" Duration="1" Instrument="Duty 0"
				Note Time="18" Value="C2" Duration="1" Instrument="Duty 0" FinePitch="1"
				Note Time="19" Value="F1" Duration="1" Instrument="Duty 0"
				Note Time="20" Value="F#2" Duration="8" Instrument="Duty 0" FinePitch="0"
				Note Time="28" Value="F#1" Duration="12" Instrument="Duty 0" FinePitch="1"
				Note Time="40" Value="G3" Duration="1" Instrument="Duty 0"
				Note Time="41" Value="F#3" Duration="1" Instrument="Duty 0"
				Note Time="42" Value="E2" Duration="10" Instrument="Duty 0" FinePitch="0"
				Note Time="52" Value="C3" Duration="1" Instrument="Duty 0"
				Note Time="53" Value="F#2" Duration="1" Instrument="Duty 0"
				Note Time="54" Value="C2" Duration="1" Instrument="Duty 0" FinePitch="1"
				Note Time="55" Value="F1" Duration="1" Instrument="Duty 0"
				Note Time="56" Value="F#2" Duration="8" Instrument="Duty 0" FinePitch="0"
				Note Time="64" Value="F#1" Duration="12" Instrument="Duty 0" FinePitch="1"
				Note Time="76" Value="G3" Duration="1" Instrument="Duty 0"
				Note Time="77" Value="F#3" Duration="1" Instrument="Duty 0"
				Note Time="78" Value="F#2" Duration="10" Instrument="Duty 0" FinePitch="0"
				Note Time="88" Value="G3" Duration="1" Instrument="Duty 0" FinePitch="1"
				Note Time="89" Value="F#3" Duration="1" Instrument="Duty 0"
				Note Time="90" Value="E2" Duration="10" Instrument="Duty 0" FinePitch="0"
				Note Time="100" Value="G3" Duration="1" Instrument="Duty 0" FinePitch="1"
				Note Time="101" Value="F#3" Duration="1" Instrument="Duty 0"
				Note Time="102" Value="E2" Duration="10" Instrument="Duty 0" FinePitch="0"
				Note Time="112" Value="G3" Duration="1" Instrument="Duty 0" FinePitch="1"
				Note Time="113" Value="F#3" Duration="1" Instrument="Duty 0"
				Note Time="114" Value="E2" Duration="10" Instrument="Duty 0" FinePitch="0"
				Note Time="136" Value="G3" Duration="1" Instrument="Duty 0" FinePitch="1"
				Note Time="137" Value="F#3" Duration="1" Instrument="Duty 0"
				Note Time="138" Value="C#2" Duration="10" Instrument="Duty 0"
				Note Time="148" Value="G3" Duration="1" Instrument="Duty 0"
				Note Time="149" Value="F#3" Duration="1" Instrument="Duty 0"
				Note Time="150" Value="E2" Duration="4" Instrument="Duty 0" FinePitch="0"
				Note Time="154" Value="G3" Duration="1" Instrument="Duty 0" FinePitch="1"
				Note Time="155" Value="F#3" Duration="1" Instrument="Duty 0"
				Note Time="156" Value="E2" Duration="4" Instrument="Duty 0" FinePitch="0"
				Note Time="160" Value="C3" Duration="1" Instrument="Duty 0"
				Note Time="161" Value="F#2" Duration="1" Instrument="Duty 0"
				Note Time="162" Value="C2" Duration="1" Instrument="Duty 0" FinePitch="1"
				Note Time="163" Value="F1" Duration="1" Instrument="Duty 0"
				Note Time="164" Value="F#2" Duration="8" Instrument="Duty 0" FinePitch="0"
				Note Time="172" Value="F#1" Duration="12" Instrument="Duty 0" FinePitch="1"
				Note Time="184" Value="G3" Duration="1" Instrument="Duty 0"
				Note Time="185" Value="F#3" Duration="1" Instrument="Duty 0"
				Note Time="186" Value="E2" Duration="10" Instrument="Duty 0" FinePitch="0"
				Note Time="196" Value="C3" Duration="1" Instrument="Duty 0"
				Note Time="197" Value="F#2" Duration="1" Instrument="Duty 0"
				Note Time="198" Value="C2" Duration="1" Instrument="Duty 0" FinePitch="1"
				Note Time="199" Value="F1" Duration="1" Instrument="Duty 0"
				Note Time="200" Value="F#2" Duration="8" Instrument="Duty 0" FinePitch="0"
				Note Time="208" Value="F#1" Duration="12" Instrument="Duty 0" FinePitch="1"
				Note Time="220" Value="G3" Duration="1" Instrument="Duty 0"
				Note Time="221" Value="F#3" Duration="1" Instrument="Duty 0"
				Note Time="222" Value="F#2" Duration="10" Instrument="Duty 0" FinePitch="0"
				Note Time="232" Value="G3" Duration="1" Instrument="Duty 0" FinePitch="1"
				Note Time="233" Value="F#3" Duration="1" Instrument="Duty 0"
				Note Time="234" Value="E2" Duration="10" Instrument="Duty 0" FinePitch="0"
				Note Time="244" Value="G3" Duration="1" Instrument="Duty 0" FinePitch="1"
				Note Time="245" Value="F#3" Duration="1" Instrument="Duty 0"
				Note Time="246" Value="E2" Duration="10" Instrument="Duty 0" FinePitch="0"
			Pattern Name="Pattern 39"
				Note Time="0" Value="G3" Duration="1" Instrument="Duty 0" FinePitch="1"
				Note Time="1" Value="F#3" Duration="1" Instrument="Duty 0"
				Note Time="2" Value="E2" Duration="10" Instrument="Duty 0" FinePitch="0"
			PatternInstance Time="2" Pattern="Pattern 1"
			PatternInstance Time="3" Pattern="Pattern 2"
			PatternInstance Time="4" Pattern="Pattern 3"
			PatternInstance Time="5" Pattern="Pattern 4"
			PatternInstance Time="6" Pattern="Pattern 5"
			PatternInstance Time="7" Pattern="Pattern 6"
			PatternInstance Time="8" Pattern="Pattern 7"
			PatternInstance Time="9" Pattern="Pattern 8"
			PatternInstance Time="10" Pattern="Pattern 9"
			PatternInstance Time="11" Pattern="Pattern 10"
			PatternInstance Time="12" Pattern="Pattern 11"
			PatternInstance Time="13" Pattern="Pattern 12"
			PatternInstance Time="14" Pattern="Pattern 13"
			PatternInstance Time="15" Pattern="Pattern 14"
			PatternInstance Time="16" Pattern="Pattern 15"
			PatternInstance Time="18" Pattern="Pattern 16"
			PatternInstance Time="19" Pattern="Pattern 17"
			PatternInstance Time="20" Pattern="Pattern 18"
			PatternInstance Time="21" Pattern="Pattern 19"
			PatternInstance Time="22" Pattern="Pattern 20"
			PatternInstance Time="23" Pattern="Pattern 21"
			PatternInstance Time="24" Pattern="Pattern 22"
			PatternInstance Time="25" Pattern="Pattern 23"
			PatternInstance Time="26" Pattern="Pattern 24"
			PatternInstance Time="27" Pattern="Pattern 25"
			PatternInstance Time="28" Pattern="Pattern 26"
			PatternInstance Time="29" Pattern="Pattern 27"
			PatternInstance Time="30" Pattern="Pattern 28"
			PatternInstance Time="31" Pattern="Pattern 29"
			PatternInstance Time="32" Pattern="Pattern 30"
			PatternInstance Time="33" Pattern="Pattern 31"
			PatternInstance Time="34" Pattern="Pattern 32"
			PatternInstance Time="35" Pattern="Pattern 33"
			PatternInstance Time="36" Pattern="Pattern 34"
			PatternInstance Time="37" Pattern="Pattern 35"
			PatternInstance Time="38" Pattern="Pattern 36"
			PatternInstance Time="39" Pattern="Pattern 37"
			PatternInstance Time="40" Pattern="Pattern 38"
			PatternInstance Time="41" Pattern="Pattern 39"
		Channel Type="Noise"
			Pattern Name="Pattern 1"
				Note Time="251" Value="B2" Duration="1" Instrument="Duty 0" Volume="2"
				Note Time="252" Value="C#3" Duration="1" Instrument="Duty 0" Volume="3"
				Note Time="253" Value="D3" Duration="1" Instrument="Duty 0" Volume="4"
				Note Time="254" Value="E3" Duration="1" Instrument="Duty 0" Volume="5"
				Note Time="255" Value="C3" Duration="1" Instrument="Duty 0" Volume="11"
			Pattern Name="Pattern 2"
				Note Time="0" Value="E3" Duration="3" Instrument="Duty 0" Volume="6"
				Note Time="3" Value="F3" Duration="4" Instrument="Duty 0"
				Note Time="7" Value="F#3" Duration="5" Instrument="Duty 0"
				Note Time="12" Value="G3" Duration="31" Instrument="Duty 0"
				Note Time="17" Volume="5"
				Note Time="23" Volume="4"
				Note Time="29" Volume="3"
				Note Time="35" Volume="2"
				Note Time="41" Volume="1"
				Note Time="43" Value="B2" Duration="1" Instrument="Duty 0" Volume="2"
				Note Time="44" Value="C#3" Duration="1" Instrument="Duty 0" Volume="3"
				Note Time="45" Value="D3" Duration="1" Instrument="Duty 0" Volume="4"
				Note Time="46" Value="E3" Duration="1" Instrument="Duty 0" Volume="5"
				Note Time="47" Value="C3" Duration="1" Instrument="Duty 0" Volume="11"
				Note Time="48" Value="E3" Duration="3" Instrument="Duty 0" Volume="6"
				Note Time="51" Value="F3" Duration="4" Instrument="Duty 0"
				Note Time="55" Value="F#3" Duration="5" Instrument="Duty 0"
				Note Time="60" Value="G3" Duration="35" Instrument="Duty 0"
				Note Time="65" Volume="5"
				Note Time="71" Volume="4"
				Note Time="77" Volume="3"
				Note Time="83" Volume="2"
				Note Time="89" Volume="1"
				Note Time="95" Value="F3" Duration="1" Instrument="Duty 0" Volume="5"
				Note Time="96" Value="G3" Duration="24" Instrument="Duty 0"
				Note Time="100" Volume="4"
				Note Time="105" Volume="3"
				Note Time="110" Volume="2"
				Note Time="115" Volume="1"
				Note Time="143" Value="F3" Duration="1" Instrument="Duty 0" Volume="5"
				Note Time="144" Value="G3" Duration="24" Instrument="Duty 0"
				Note Time="148" Volume="4"
				Note Time="153" Volume="3"
				Note Time="158" Volume="2"
				Note Time="163" Volume="1"
				Note Time="187" Value="B2" Duration="1" Instrument="Duty 0" Volume="2"
				Note Time="188" Value="C#3" Duration="1" Instrument="Duty 0" Volume="3"
				Note Time="189" Value="D3" Duration="1" Instrument="Duty 0" Volume="4"
				Note Time="190" Value="E3" Duration="1" Instrument="Duty 0" Volume="5"
				Note Time="191" Value="C3" Duration="1" Instrument="Duty 0" Volume="11"
				Note Time="192" Value="E3" Duration="3" Instrument="Duty 0" Volume="6"
				Note Time="195" Value="F3" Duration="4" Instrument="Duty 0"
				Note Time="199" Value="F#3" Duration="5" Instrument="Duty 0"
				Note Time="204" Value="G3" Duration="31" Instrument="Duty 0"
				Note Time="209" Volume="5"
				Note Time="215" Volume="4"
				Note Time="221" Volume="3"
				Note Time="227" Volume="2"
				Note Time="233" Volume="1"
				Note Time="235" Value="B2" Duration="1" Instrument="Duty 0" Volume="2"
				Note Time="236" Value="C#3" Duration="1" Instrument="Duty 0" Volume="3"
				Note Time="237" Value="D3" Duration="1" Instrument="Duty 0" Volume="4"
				Note Time="238" Value="E3" Duration="1" Instrument="Duty 0" Volume="5"
				Note Time="239" Value="C3" Duration="1" Instrument="Duty 0" Volume="11"
				Note Time="240" Value="E3" Duration="3" Instrument="Duty 0" Volume="6"
				Note Time="243" Value="F3" Duration="4" Instrument="Duty 0"
				Note Time="247" Value="F#3" Duration="5" Instrument="Duty 0"
				Note Time="252" Value="G3" Duration="35" Instrument="Duty 0"
			Pattern Name="Pattern 3"
				Note Time="1" Volume="5"
				Note Time="7" Volume="4"
				Note Time="13" Volume="3"
				Note Time="19" Volume="2"
				Note Time="25" Volume="1"
				Note Time="31" Value="F3" Duration="1" Instrument="Duty 0" Volume="5"
				Note Time="32" Value="G3" Duration="24" Instrument="Duty 0"
				Note Time="36" Volume="4"
				Note Time="41" Volume="3"
				Note Time="46" Volume="2"
				Note Time="51" Volume="1"
				Note Time="79" Value="F3" Duration="1" Instrument="Duty 0" Volume="5"
				Note Time="80" Value="G3" Duration="24" Instrument="Duty 0"
				Note Time="84" Volume="4"
				Note Time="89" Volume="3"
				Note Time="94" Volume="2"
				Note Time="99" Volume="1"
				Note Time="123" Value="B2" Duration="1" Instrument="Duty 0" Volume="2"
				Note Time="124" Value="C#3" Duration="1" Instrument="Duty 0" Volume="3"
				Note Time="125" Value="D3" Duration="1" Instrument="Duty 0" Volume="4"
				Note Time="126" Value="E3" Duration="1" Instrument="Duty 0" Volume="5"
				Note Time="127" Value="C3" Duration="1" Instrument="Duty 0" Volume="11"
				Note Time="128" Value="E3" Duration="3" Instrument="Duty 0" Volume="6"
				Note Time="131" Value="F3" Duration="4" Instrument="Duty 0"
				Note Time="135" Value="F#3" Duration="5" Instrument="Duty 0"
				Note Time="140" Value="G3" Duration="31" Instrument="Duty 0"
				Note Time="145" Volume="5"
				Note Time="151" Volume="4"
				Note Time="157" Volume="3"
				Note Time="163" Volume="2"
				Note Time="169" Volume="1"
				Note Time="171" Value="B2" Duration="1" Instrument="Duty 0" Volume="2"
				Note Time="172" Value="C#3" Duration="1" Instrument="Duty 0" Volume="3"
				Note Time="173" Value="D3" Duration="1" Instrument="Duty 0" Volume="4"
				Note Time="174" Value="E3" Duration="1" Instrument="Duty 0" Volume="5"
				Note Time="175" Value="C3" Duration="1" Instrument="Duty 0" Volume="11"
				Note Time="176" Value="E3" Duration="3" Instrument="Duty 0" Volume="6"
				Note Time="179" Value="F3" Duration="4" Instrument="Duty 0"
				Note Time="183" Value="F#3" Duration="5" Instrument="Duty 0"
				Note Time="188" Value="G3" Duration="35" Instrument="Duty 0"
				Note Time="193" Volume="5"
				Note Time="199" Volume="4"
				Note Time="205" Volume="3"
				Note Time="211" Volume="2"
				Note Time="217" Volume="1"
				Note Time="223" Value="F3" Duration="1" Instrument="Duty 0" Volume="5"
				Note Time="224" Value="G3" Duration="24" Instrument="Duty 0"
				Note Time="228" Volume="4"
				Note Time="233" Volume="3"
				Note Time="238" Volume="2"
				Note Time="243" Volume="1"
			Pattern Name="Pattern 4"
				Note Time="15" Value="F3" Duration="1" Instrument="Duty 0" Volume="5"
				Note Time="16" Value="G3" Duration="24" Instrument="Duty 0"
				Note Time="20" Volume="4"
				Note Time="25" Volume="3"
				Note Time="30" Volume="2"
				Note Time="35" Volume="1"
				Note Time="59" Value="B2" Duration="1" Instrument="Duty 0" Volume="2"
				Note Time="60" Value="C#3" Duration="1" Instrument="Duty 0" Volume="3"
				Note Time="61" Value="D3" Duration="1" Instrument="Duty 0" Volume="4"
				Note Time="62" Value="E3" Duration="1" Instrument="Duty 0" Volume="5"
				Note Time="63" Value="C3" Duration="1" Instrument="Duty 0" Volume="11"
				Note Time="64" Value="E3" Duration="3" Instrument="Duty 0" Volume="6"
				Note Time="67" Value="F3" Duration="4" Instrument="Duty 0"
				Note Time="71" Value="F#3" Duration="5" Instrument="Duty 0"
				Note Time="76" Value="G3" Duration="31" Instrument="Duty 0"
				Note Time="81" Volume="5"
				Note Time="87" Volume="4"
				Note Time="93" Volume="3"
				Note Time="99" Volume="2"
				Note Time="105" Volume="1"
				Note Time="107" Value="B2" Duration="1" Instrument="Duty 0" Volume="2"
				Note Time="108" Value="C#3" Duration="1" Instrument="Duty 0" Volume="3"
				Note Time="109" Value="D3" Duration="1" Instrument="Duty 0" Volume="4"
				Note Time="110" Value="E3" Duration="1" Instrument="Duty 0" Volume="5"
				Note Time="111" Value="C3" Duration="1" Instrument="Duty 0" Volume="11"
				Note Time="112" Value="E3" Duration="3" Instrument="Duty 0" Volume="6"
				Note Time="115" Value="F3" Duration="4" Instrument="Duty 0"
				Note Time="119" Value="F#3" Duration="5" Instrument="Duty 0"
				Note Time="124" Value="G3" Duration="35" Instrument="Duty 0"
				Note Time="129" Volume="5"
				Note Time="135" Volume="4"
				Note Time="141" Volume="3"
				Note Time="147" Volume="2"
				Note Time="153" Volume="1"
				Note Time="159" Value="F3" Duration="1" Instrument="Duty 0" Volume="5"
				Note Time="160" Value="G3" Duration="24" Instrument="Duty 0"
				Note Time="164" Volume="4"
				Note Time="169" Volume="3"
				Note Time="174" Volume="2"
				Note Time="179" Volume="1"
				Note Time="207" Value="F3" Duration="1" Instrument="Duty 0" Volume="5"
				Note Time="208" Value="G3" Duration="24" Instrument="Duty 0"
				Note Time="212" Volume="4"
				Note Time="217" Volume="3"
				Note Time="222" Volume="2"
				Note Time="227" Volume="1"
				Note Time="251" Value="B2" Duration="1" Instrument="Duty 0" Volume="2"
				Note Time="252" Value="C#3" Duration="1" Instrument="Duty 0" Volume="3"
				Note Time="253" Value="D3" Duration="1" Instrument="Duty 0" Volume="4"
				Note Time="254" Value="E3" Duration="1" Instrument="Duty 0" Volume="5"
				Note Time="255" Value="C3" Duration="1" Instrument="Duty 0" Volume="11"
			Pattern Name="Pattern 5"
				Note Time="0" Value="E3" Duration="3" Instrument="Duty 0" Volume="5"
				Note Time="3" Value="F3" Duration="4" Instrument="Duty 0"
				Note Time="7" Value="F#3" Duration="5" Instrument="Duty 0"
				Note Time="12" Value="G3" Duration="39" Instrument="Duty 0"
				Note Time="19" Volume="4"
				Note Time="27" Volume="3"
				Note Time="35" Volume="2"
				Note Time="43" Volume="1"
				Note Time="191" Value="F3" Duration="1" Instrument="Duty 0" Volume="5"
				Note Time="192" Value="G#3" Duration="8" Instrument="Duty 0" Volume="3"
				Note Time="194" Volume="2"
				Note Time="197" Volume="1"
				Note Time="207" Value="G3" Duration="1" Instrument="Duty 0" Volume="3"
				Note Time="208" Value="G#3" Duration="7" Instrument="Duty 0"
				Note Time="210" Volume="2"
				Note Time="213" Volume="1"
				Note Time="215" Value="D#3" Duration="1" Instrument="Duty 0" Volume="5"
				Note Time="216" Value="F3" Duration="9" Instrument="Duty 0"
				Note Time="217" Volume="4"
				Note Time="219" Volume="3"
				Note Time="221" Volume="2"
				Note Time="223" Volume="1"
				Note Time="231" Value="G3" Duration="1" Instrument="Duty 0" Volume="3"
				Note Time="232" Value="G#3" Duration="7" Instrument="Duty 0"
				Note Time="234" Volume="2"
				Note Time="237" Volume="1"
				Note Time="239" Value="F3" Duration="1" Instrument="Duty 0" Volume="5"
				Note Time="240" Value="G#3" Duration="8" Instrument="Duty 0" Volume="3"
				Note Time="242" Volume="2"
				Note Time="245" Volume="1"
				Note Time="255" Value="G3" Duration="1" Instrument="Duty 0" Volume="3"
			Pattern Name="Pattern 6"
				Note Time="0" Value="G#3" Duration="7" Instrument="Duty 0"
				Note Time="2" Volume="2"
				Note Time="5" Volume="1"
				Note Time="7" Value="D#3" Duration="1" Instrument="Duty 0" Volume="5"
				Note Time="8" Value="F3" Duration="9" Instrument="Duty 0"
				Note Time="9" Volume="4"
				Note Time="11" Volume="3"
				Note Time="13" Volume="2"
				Note Time="15" Volume="1"
				Note Time="23" Value="G3" Duration="1" Instrument="Duty 0" Volume="3"
				Note Time="24" Value="G#3" Duration="7" Instrument="Duty 0"
				Note Time="26" Volume="2"
				Note Time="29" Volume="1"
				Note Time="31" Value="F3" Duration="1" Instrument="Duty 0" Volume="5"
				Note Time="32" Value="G#3" Duration="8" Instrument="Duty 0" Volume="3"
				Note Time="34" Volume="2"
				Note Time="37" Volume="1"
				Note Time="47" Value="G3" Duration="1" Instrument="Duty 0" Volume="3"
				Note Time="48" Value="G#3" Duration="7" Instrument="Duty 0"
				Note Time="50" Volume="2"
				Note Time="53" Volume="1"
				Note Time="55" Value="D#3" Duration="1" Instrument="Duty 0" Volume="5"
				Note Time="56" Value="F3" Duration="9" Instrument="Duty 0"
				Note Time="57" Volume="4"
				Note Time="59" Volume="3"
				Note Time="61" Volume="2"
				Note Time="63" Volume="1"
				Note Time="71" Value="G3" Duration="1" Instrument="Duty 0" Volume="3"
				Note Time="72" Value="G#3" Duration="7" Instrument="Duty 0"
				Note Time="74" Volume="2"
				Note Time="77" Volume="1"
				Note Time="79" Value="F3" Duration="1" Instrument="Duty 0" Volume="5"
				Note Time="80" Value="G#3" Duration="8" Instrument="Duty 0" Volume="3"
				Note Time="82" Volume="2"
				Note Time="85" Volume="1"
				Note Time="95" Value="G3" Duration="1" Instrument="Duty 0" Volume="3"
				Note Time="96" Value="G#3" Duration="7" Instrument="Duty 0"
				Note Time="98" Volume="2"
				Note Time="101" Volume="1"
				Note Time="103" Value="D#3" Duration="1" Instrument="Duty 0" Volume="5"
				Note Time="104" Value="F3" Duration="9" Instrument="Duty 0"
				Note Time="105" Volume="4"
				Note Time="107" Volume="3"
				Note Time="109" Volume="2"
				Note Time="111" Volume="1"
				Note Time="119" Value="D#3" Duration="1" Instrument="Duty 0" Volume="5"
				Note Time="120" Value="F3" Duration="8" Instrument="Duty 0"
				Note Time="121" Volume="4"
				Note Time="123" Volume="3"
				Note Time="125" Volume="2"
				Note Time="127" Volume="5"
				Note Time="128" Value="G#3" Duration="8" Instrument="Duty 0" Volume="3"
				Note Time="130" Volume="2"
				Note Time="133" Volume="1"
				Note Time="143" Value="G3" Duration="1" Instrument="Duty 0" Volume="3"
				Note Time="144" Value="G#3" Duration="7" Instrument="Duty 0"
				Note Time="146" Volume="2"
				Note Time="149" Volume="1"
				Note Time="151" Value="D#3" Duration="1" Instrument="Duty 0" Volume="5"
				Note Time="152" Value="F3" Duration="9" Instrument="Duty 0"
				Note Time="153" Volume="4"
				Note Time="155" Volume="3"
				Note Time="157" Volume="2"
				Note Time="159" Volume="1"
				Note Time="167" Value="G3" Duration="1" Instrument="Duty 0" Volume="3"
				Note Time="168" Value="G#3" Duration="7" Instrument="Duty 0"
				Note Time="170" Volume="2"
				Note Time="173" Volume="1"
				Note Time="175" Value="F3" Duration="1" Instrument="Duty 0" Volume="5"
				Note Time="176" Value="G#3" Duration="8" Instrument="Duty 0" Volume="3"
				Note Time="178" Volume="2"
				Note Time="181" Volume="1"
				Note Time="191" Value="G3" Duration="1" Instrument="Duty 0" Volume="3"
				Note Time="192" Value="G#3" Duration="7" Instrument="Duty 0"
				Note Time="194" Volume="2"
				Note Time="197" Volume="1"
				Note Time="199" Value="D#3" Duration="1" Instrument="Duty 0" Volume="5"
				Note Time="200" Value="F3" Duration="9" Instrument="Duty 0"
				Note Time="201" Volume="4"
				Note Time="203" Volume="3"
				Note Time="205" Volume="2"
				Note Time="207" Volume="1"
				Note Time="215" Value="G3" Duration="1" Instrument="Duty 0" Volume="3"
				Note Time="216" Value="G#3" Duration="7" Instrument="Duty 0"
				Note Time="218" Volume="2"
				Note Time="221" Volume="1"
				Note Time="223" Value="F3" Duration="1" Instrument="Duty 0" Volume="5"
				Note Time="224" Value="G#3" Duration="8" Instrument="Duty 0" Volume="3"
				Note Time="226" Volume="2"
				Note Time="229" Volume="1"
				Note Time="239" Value="G3" Duration="1" Instrument="Duty 0" Volume="3"
				Note Time="240" Value="G#3" Duration="7" Instrument="Duty 0"
				Note Time="242" Volume="2"
				Note Time="245" Volume="1"
				Note Time="247" Value="D#3" Duration="1" Instrument="Duty 0" Volume="5"
				Note Time="248" Value="F3" Duration="9" Instrument="Duty 0"
				Note Time="249" Volume="4"
				Note Time="251" Volume="3"
				Note Time="253" Volume="2"
				Note Time="255" Volume="1"
			Pattern Name="Pattern 7"
				Note Time="7" Value="G3" Duration="1" Instrument="Duty 0" Volume="3"
				Note Time="8" Value="G#3" Duration="7" Instrument="Duty 0"
				Note Time="10" Volume="2"
				Note Time="13" Volume="1"
				Note Time="15" Value="F3" Duration="1" Instrument="Duty 0" Volume="5"
				Note Time="16" Value="G#3" Duration="8" Instrument="Duty 0" Volume="3"
				Note Time="18" Volume="2"
				Note Time="21" Volume="1"
				Note Time="31" Value="G3" Duration="1" Instrument="Duty 0" Volume="3"
				Note Time="32" Value="G#3" Duration="7" Instrument="Duty 0"
				Note Time="34" Volume="2"
				Note Time="37" Volume="1"
				Note Time="39" Value="D#3" Duration="1" Instrument="Duty 0" Volume="5"
				Note Time="40" Value="F3" Duration="9" Instrument="Duty 0"
				Note Time="41" Volume="4"
				Note Time="43" Volume="3"
				Note Time="45" Volume="2"
				Note Time="47" Volume="1"
				Note Time="55" Value="D#3" Duration="1" Instrument="Duty 0" Volume="5"
				Note Time="56" Value="F3" Duration="8" Instrument="Duty 0"
				Note Time="57" Volume="4"
				Note Time="59" Volume="3"
				Note Time="61" Volume="2"
				Note Time="63" Volume="5"
				Note Time="64" Value="G#3" Duration="8" Instrument="Duty 0" Volume="3"
				Note Time="66" Volume="2"
				Note Time="69" Volume="1"
				Note Time="79" Value="G3" Duration="1" Instrument="Duty 0" Volume="3"
				Note Time="80" Value="G#3" Duration="7" Instrument="Duty 0"
				Note Time="82" Volume="2"
				Note Time="85" Volume="1"
				Note Time="87" Value="D#3" Duration="1" Instrument="Duty 0" Volume="5"
				Note Time="88" Value="F3" Duration="9" Instrument="Duty 0"
				Note Time="89" Volume="4"
				Note Time="91" Volume="3"
				Note Time="93" Volume="2"
				Note Time="95" Volume="1"
				Note Time="103" Value="G3" Duration="1" Instrument="Duty 0" Volume="3"
				Note Time="104" Value="G#3" Duration="7" Instrument="Duty 0"
				Note Time="106" Volume="2"
				Note Time="109" Volume="1"
				Note Time="111" Value="F3" Duration="1" Instrument="Duty 0" Volume="5"
				Note Time="112" Value="G#3" Duration="8" Instrument="Duty 0" Volume="3"
				Note Time="114" Volume="2"
				Note Time="117" Volume="1"
				Note Time="127" Value="G3" Duration="1" Instrument="Duty 0" Volume="3"
				Note Time="128" Value="G#3" Duration="7" Instrument="Duty 0"
				Note Time="130" Volume="2"
				Note Time="133" Volume="1"
				Note Time="135" Value="D#3" Duration="1" Instrument="Duty 0" Volume="5"
				Note Time="136" Value="F3" Duration="9" Instrument="Duty 0"
				Note Time="137" Volume="4"
				Note Time="139" Volume="3"
				Note Time="141" Volume="2"
				Note Time="143" Volume="1"
				Note Time="151" Value="G3" Duration="1" Instrument="Duty 0" Volume="3"
				Note Time="152" Value="G#3" Duration="7" Instrument="Duty 0"
				Note Time="154" Volume="2"
				Note Time="157" Volume="1"
				Note Time="159" Value="F3" Duration="1" Instrument="Duty 0" Volume="5"
				Note Time="160" Value="G#3" Duration="8" Instrument="Duty 0" Volume="3"
				Note Time="162" Volume="2"
				Note Time="165" Volume="1"
				Note Time="175" Value="G3" Duration="1" Instrument="Duty 0" Volume="3"
				Note Time="176" Value="G#3" Duration="7" Instrument="Duty 0"
				Note Time="178" Volume="2"
				Note Time="181" Volume="1"
				Note Time="183" Value="D#3" Duration="1" Instrument="Duty 0" Volume="5"
				Note Time="184" Value="F3" Duration="9" Instrument="Duty 0"
				Note Time="185" Volume="4"
				Note Time="187" Volume="3"
				Note Time="189" Volume="2"
				Note Time="191" Volume="1"
				Note Time="199" Value="G3" Duration="1" Instrument="Duty 0" Volume="3"
				Note Time="200" Value="G#3" Duration="7" Instrument="Duty 0"
				Note Time="202" Volume="2"
				Note Time="205" Volume="1"
				Note Time="207" Value="F3" Duration="1" Instrument="Duty 0" Volume="5"
				Note Time="208" Value="G#3" Duration="8" Instrument="Duty 0" Volume="3"
				Note Time="210" Volume="2"
				Note Time="213" Volume="1"
				Note Time="223" Value="G3" Duration="1" Instrument="Duty 0" Volume="3"
				Note Time="224" Value="G#3" Duration="7" Instrument="Duty 0"
				Note Time="226" Volume="2"
				Note Time="229" Volume="1"
				Note Time="231" Value="D#3" Duration="1" Instrument="Duty 0" Volume="5"
				Note Time="232" Value="F3" Duration="9" Instrument="Duty 0"
				Note Time="233" Volume="4"
				Note Time="235" Volume="3"
				Note Time="237" Volume="2"
				Note Time="239" Volume="1"
				Note Time="247" Value="D#3" Duration="1" Instrument="Duty 0" Volume="5"
				Note Time="248" Value="F3" Duration="8" Instrument="Duty 0"
				Note Time="249" Volume="4"
				Note Time="251" Volume="3"
				Note Time="253" Volume="2"
				Note Time="255" Volume="5"
			Pattern Name="Pattern 8"
				Note Time="0" Value="G#3" Duration="8" Instrument="Duty 0" Volume="3"
				Note Time="2" Volume="2"
				Note Time="5" Volume="1"
				Note Time="15" Value="G3" Duration="1" Instrument="Duty 0" Volume="3"
				Note Time="16" Value="G#3" Duration="7" Instrument="Duty 0"
				Note Time="18" Volume="2"
				Note Time="21" Volume="1"
				Note Time="23" Value="D#3" Duration="1" Instrument="Duty 0" Volume="5"
				Note Time="24" Value="F3" Duration="9" Instrument="Duty 0"
				Note Time="25" Volume="4"
				Note Time="27" Volume="3"
				Note Time="29" Volume="2"
				Note Time="31" Volume="1"
				Note Time="39" Value="G3" Duration="1" Instrument="Duty 0" Volume="3"
				Note Time="40" Value="G#3" Duration="7" Instrument="Duty 0"
				Note Time="42" Volume="2"
				Note Time="45" Volume="1"
				Note Time="47" Value="F3" Duration="1" Instrument="Duty 0" Volume="5"
				Note Time="48" Value="G#3" Duration="8" Instrument="Duty 0" Volume="3"
				Note Time="50" Volume="2"
				Note Time="53" Volume="1"
				Note Time="63" Value="G3" Duration="1" Instrument="Duty 0" Volume="3"
				Note Time="64" Value="G#3" Duration="7" Instrument="Duty 0"
				Note Time="66" Volume="2"
				Note Time="69" Volume="1"
				Note Time="71" Value="D#3" Duration="1" Instrument="Duty 0" Volume="5"
				Note Time="72" Value="F3" Duration="9" Instrument="Duty 0"
				Note Time="73" Volume="4"
				Note Time="75" Volume="3"
				Note Time="77" Volume="2"
				Note Time="79" Volume="1"
				Note Time="87" Value="G3" Duration="1" Instrument="Duty 0" Volume="3"
				Note Time="88" Value="G#3" Duration="7" Instrument="Duty 0"
				Note Time="90" Volume="2"
				Note Time="93" Volume="1"
				Note Time="95" Value="F3" Duration="1" Instrument="Duty 0" Volume="5"
				Note Time="96" Value="G#3" Duration="8" Instrument="Duty 0" Volume="3"
				Note Time="98" Volume="2"
				Note Time="101" Volume="1"
				Note Time="111" Value="G3" Duration="1" Instrument="Duty 0" Volume="3"
				Note Time="112" Value="G#3" Duration="7" Instrument="Duty 0"
				Note Time="114" Volume="2"
				Note Time="117" Volume="1"
				Note Time="119" Value="D#3" Duration="1" Instrument="Duty 0" Volume="5"
				Note Time="120" Value="F3" Duration="9" Instrument="Duty 0"
				Note Time="121" Volume="4"
				Note Time="123" Volume="3"
				Note Time="125" Volume="2"
				Note Time="127" Volume="1"
				Note Time="135" Value="G3" Duration="1" Instrument="Duty 0" Volume="3"
				Note Time="136" Value="G#3" Duration="7" Instrument="Duty 0"
				Note Time="138" Volume="2"
				Note Time="141" Volume="1"
				Note Time="143" Value="F3" Duration="1" Instrument="Duty 0" Volume="5"
				Note Time="144" Value="G#3" Duration="8" Instrument="Duty 0" Volume="3"
				Note Time="146" Volume="2"
				Note Time="149" Volume="1"
				Note Time="159" Value="G3" Duration="1" Instrument="Duty 0" Volume="3"
				Note Time="160" Value="G#3" Duration="7" Instrument="Duty 0"
				Note Time="162" Volume="2"
				Note Time="165" Volume="1"
				Note Time="167" Value="D#3" Duration="1" Instrument="Duty 0" Volume="5"
				Note Time="168" Value="F3" Duration="9" Instrument="Duty 0"
				Note Time="169" Volume="4"
				Note Time="171" Volume="3"
				Note Time="173" Volume="2"
				Note Time="175" Volume="1"
				Note Time="183" Value="D#3" Duration="1" Instrument="Duty 0" Volume="5"
				Note Time="184" Value="F3" Duration="8" Instrument="Duty 0"
				Note Time="185" Volume="4"
				Note Time="187" Volume="3"
				Note Time="189" Volume="2"
				Note Time="191" Volume="5"
				Note Time="192" Value="G#3" Duration="8" Instrument="Duty 0" Volume="3"
				Note Time="194" Volume="2"
				Note Time="197" Volume="1"
				Note Time="207" Value="G3" Duration="1" Instrument="Duty 0" Volume="3"
				Note Time="208" Value="G#3" Duration="7" Instrument="Duty 0"
				Note Time="210" Volume="2"
				Note Time="213" Volume="1"
				Note Time="215" Value="D#3" Duration="1" Instrument="Duty 0" Volume="5"
				Note Time="216" Value="F3" Duration="9" Instrument="Duty 0"
				Note Time="217" Volume="4"
				Note Time="219" Volume="3"
				Note Time="221" Volume="2"
				Note Time="223" Volume="1"
				Note Time="231" Value="G3" Duration="1" Instrument="Duty 0" Volume="3"
				Note Time="232" Value="G#3" Duration="7" Instrument="Duty 0"
				Note Time="234" Volume="2"
				Note Time="237" Volume="1"
				Note Time="239" Value="F3" Duration="1" Instrument="Duty 0" Volume="5"
				Note Time="240" Value="G#3" Duration="8" Instrument="Duty 0" Volume="3"
				Note Time="242" Volume="2"
				Note Time="245" Volume="1"
				Note Time="255" Value="D#3" Duration="1" Instrument="Duty 0" Volume="5"
			Pattern Name="Pattern 9"
				Note Time="0" Value="F3" Duration="9" Instrument="Duty 0"
				Note Time="1" Volume="4"
				Note Time="3" Volume="3"
				Note Time="5" Volume="2"
				Note Time="7" Volume="1"
				Note Time="15" Value="D#3" Duration="1" Instrument="Duty 0" Volume="5"
				Note Time="16" Value="F3" Duration="9" Instrument="Duty 0"
				Note Time="17" Volume="4"
				Note Time="19" Volume="3"
				Note Time="21" Volume="2"
				Note Time="23" Volume="1"
				Note Time="31" Value="F3" Duration="1" Instrument="Duty 0" Volume="5"
				Note Time="32" Value="G#3" Duration="8" Instrument="Duty 0" Volume="3"
				Note Time="34" Volume="2"
				Note Time="37" Volume="1"
				Note Time="47" Value="G3" Duration="1" Instrument="Duty 0" Volume="3"
				Note Time="48" Value="G#3" Duration="7" Instrument="Duty 0"
				Note Time="50" Volume="2"
				Note Time="53" Volume="1"
				Note Time="55" Value="D#3" Duration="1" Instrument="Duty 0" Volume="5"
				Note Time="56" Value="F3" Duration="9" Instrument="Duty 0"
				Note Time="57" Volume="4"
				Note Time="59" Volume="3"
				Note Time="61" Volume="2"
				Note Time="63" Volume="1"
				Note Time="71" Value="G3" Duration="1" Instrument="Duty 0" Volume="3"
				Note Time="72" Value="G#3" Duration="7" Instrument="Duty 0"
				Note Time="74" Volume="2"
				Note Time="77" Volume="1"
				Note Time="79" Value="F3" Duration="1" Instrument="Duty 0" Volume="5"
				Note Time="80" Value="G#3" Duration="8" Instrument="Duty 0" Volume="3"
				Note Time="82" Volume="2"
				Note Time="85" Volume="1"
				Note Time="95" Value="G3" Duration="1" Instrument="Duty 0" Volume="3"
				Note Time="96" Value="G#3" Duration="7" Instrument="Duty 0"
				Note Time="98" Volume="2"
				Note Time="101" Volume="1"
				Note Time="103" Value="D#3" Duration="1" Instrument="Duty 0" Volume="5"
				Note Time="104" Value="F3" Duration="9" Instrument="Duty 0"
				Note Time="105" Volume="4"
				Note Time="107" Volume="3"
				Note Time="109" Volume="2"
				Note Time="111" Volume="1"
				Note Time="119" Value="G3" Duration="1" Instrument="Duty 0" Volume="3"
				Note Time="120" Value="G#3" Duration="7" Instrument="Duty 0"
				Note Time="122" Volume="2"
				Note Time="125" Volume="1"
				Note Time="127" Value="F3" Duration="1" Instrument="Duty 0" Volume="5"
				Note Time="128" Value="G#3" Duration="8" Instrument="Duty 0" Volume="3"
				Note Time="130" Volume="2"
				Note Time="133" Volume="1"
				Note Time="143" Value="G3" Duration="1" Instrument="Duty 0" Volume="3"
				Note Time="144" Value="G#3" Duration="7" Instrument="Duty 0"
				Note Time="146" Volume="2"
				Note Time="149" Volume="1"
				Note Time="151" Value="D#3" Duration="1" Instrument="Duty 0" Volume="5"
				Note Time="152" Value="F3" Duration="9" Instrument="Duty 0"
				Note Time="153" Volume="4"
				Note Time="155" Volume="3"
				Note Time="157" Volume="2"
				Note Time="159" Volume="1"
				Note Time="167" Value="G3" Duration="1" Instrument="Duty 0" Volume="3"
				Note Time="168" Value="G#3" Duration="7" Instrument="Duty 0"
				Note Time="170" Volume="2"
				Note Time="173" Volume="1"
				Note Time="175" Value="F3" Duration="1" Instrument="Duty 0" Volume="5"
				Note Time="176" Value="G#3" Duration="8" Instrument="Duty 0" Volume="3"
				Note Time="178" Volume="2"
				Note Time="181" Volume="1"
				Note Time="191" Value="D#3" Duration="1" Instrument="Duty 0" Volume="5"
				Note Time="192" Value="F3" Duration="9" Instrument="Duty 0"
				Note Time="193" Volume="4"
				Note Time="195" Volume="3"
				Note Time="197" Volume="2"
				Note Time="199" Volume="1"
				Note Time="207" Value="D#3" Duration="1" Instrument="Duty 0" Volume="5"
				Note Time="208" Value="F3" Duration="9" Instrument="Duty 0"
				Note Time="209" Volume="4"
				Note Time="211" Volume="3"
				Note Time="213" Volume="2"
				Note Time="215" Volume="1"
				Note Time="223" Value="F3" Duration="1" Instrument="Duty 0" Volume="5"
				Note Time="224" Value="G#3" Duration="8" Instrument="Duty 0" Volume="3"
				Note Time="226" Volume="2"
				Note Time="229" Volume="1"
				Note Time="239" Value="G3" Duration="1" Instrument="Duty 0" Volume="3"
				Note Time="240" Value="G#3" Duration="7" Instrument="Duty 0"
				Note Time="242" Volume="2"
				Note Time="245" Volume="1"
				Note Time="247" Value="D#3" Duration="1" Instrument="Duty 0" Volume="5"
				Note Time="248" Value="F3" Duration="9" Instrument="Duty 0"
				Note Time="249" Volume="4"
				Note Time="251" Volume="3"
				Note Time="253" Volume="2"
				Note Time="255" Volume="1"
			Pattern Name="Pattern 10"
				Note Time="7" Value="G3" Duration="1" Instrument="Duty 0" Volume="3"
				Note Time="8" Value="G#3" Duration="7" Instrument="Duty 0"
				Note Time="10" Volume="2"
				Note Time="13" Volume="1"
				Note Time="15" Value="F3" Duration="1" Instrument="Duty 0" Volume="5"
				Note Time="16" Value="G#3" Duration="8" Instrument="Duty 0" Volume="3"
				Note Time="18" Volume="2"
				Note Time="21" Volume="1"
				Note Time="31" Value="G3" Duration="1" Instrument="Duty 0" Volume="3"
				Note Time="32" Value="G#3" Duration="7" Instrument="Duty 0"
				Note Time="34" Volume="2"
				Note Time="37" Volume="1"
				Note Time="39" Value="D#3" Duration="1" Instrument="Duty 0" Volume="5"
				Note Time="40" Value="F3" Duration="9" Instrument="Duty 0"
				Note Time="41" Volume="4"
				Note Time="43" Volume="3"
				Note Time="45" Volume="2"
				Note Time="47" Volume="1"
				Note Time="55" Value="G3" Duration="1" Instrument="Duty 0" Volume="3"
				Note Time="56" Value="G#3" Duration="7" Instrument="Duty 0"
				Note Time="58" Volume="2"
				Note Time="61" Volume="1"
				Note Time="63" Value="F3" Duration="1" Instrument="Duty 0" Volume="5"
				Note Time="64" Value="G#3" Duration="8" Instrument="Duty 0" Volume="3"
				Note Time="66" Volume="2"
				Note Time="69" Volume="1"
				Note Time="79" Value="G3" Duration="1" Instrument="Duty 0" Volume="3"
				Note Time="80" Value="G#3" Duration="7" Instrument="Duty 0"
				Note Time="82" Volume="2"
				Note Time="85" Volume="1"
				Note Time="87" Value="D#3" Duration="1" Instrument="Duty 0" Volume="5"
				Note Time="88" Value="F3" Duration="9" Instrument="Duty 0"
				Note Time="89" Volume="4"
				Note Time="91" Volume="3"
				Note Time="93" Volume="2"
				Note Time="95" Volume="1"
				Note Time="103" Value="G3" Duration="1" Instrument="Duty 0" Volume="3"
				Note Time="104" Value="G#3" Duration="7" Instrument="Duty 0"
				Note Time="106" Volume="2"
				Note Time="109" Volume="1"
				Note Time="111" Value="F3" Duration="1" Instrument="Duty 0" Volume="5"
				Note Time="112" Value="G#3" Duration="8" Instrument="Duty 0" Volume="3"
				Note Time="114" Volume="2"
				Note Time="117" Volume="1"
				Note Time="127" Value="D#3" Duration="1" Instrument="Duty 0" Volume="5"
				Note Time="128" Value="F3" Duration="9" Instrument="Duty 0"
				Note Time="129" Volume="4"
				Note Time="131" Volume="3"
				Note Time="133" Volume="2"
				Note Time="135" Volume="1"
				Note Time="143" Value="D#3" Duration="1" Instrument="Duty 0" Volume="5"
				Note Time="144" Value="F3" Duration="9" Instrument="Duty 0"
				Note Time="145" Volume="4"
				Note Time="147" Volume="3"
				Note Time="149" Volume="2"
				Note Time="151" Volume="1"
				Note Time="159" Value="F3" Duration="1" Instrument="Duty 0" Volume="5"
				Note Time="160" Value="G#3" Duration="8" Instrument="Duty 0" Volume="3"
				Note Time="162" Volume="2"
				Note Time="165" Volume="1"
				Note Time="175" Value="G3" Duration="1" Instrument="Duty 0" Volume="3"
				Note Time="176" Value="G#3" Duration="7" Instrument="Duty 0"
				Note Time="178" Volume="2"
				Note Time="181" Volume="1"
				Note Time="183" Value="D#3" Duration="1" Instrument="Duty 0" Volume="5"
				Note Time="184" Value="F3" Duration="9" Instrument="Duty 0"
				Note Time="185" Volume="4"
				Note Time="187" Volume="3"
				Note Time="189" Volume="2"
				Note Time="191" Volume="1"
				Note Time="199" Value="G3" Duration="1" Instrument="Duty 0" Volume="3"
				Note Time="200" Value="G#3" Duration="7" Instrument="Duty 0"
				Note Time="202" Volume="2"
				Note Time="205" Volume="1"
				Note Time="207" Value="F3" Duration="1" Instrument="Duty 0" Volume="5"
				Note Time="208" Value="G#3" Duration="8" Instrument="Duty 0" Volume="3"
				Note Time="210" Volume="2"
				Note Time="213" Volume="1"
				Note Time="223" Value="G3" Duration="1" Instrument="Duty 0" Volume="3"
				Note Time="224" Value="G#3" Duration="7" Instrument="Duty 0"
				Note Time="226" Volume="2"
				Note Time="229" Volume="1"
				Note Time="231" Value="D#3" Duration="1" Instrument="Duty 0" Volume="5"
				Note Time="232" Value="F3" Duration="9" Instrument="Duty 0"
				Note Time="233" Volume="4"
				Note Time="235" Volume="3"
				Note Time="237" Volume="2"
				Note Time="239" Volume="1"
				Note Time="247" Value="G3" Duration="1" Instrument="Duty 0" Volume="3"
				Note Time="248" Value="G#3" Duration="7" Instrument="Duty 0"
				Note Time="250" Volume="2"
				Note Time="253" Volume="1"
				Note Time="255" Value="F3" Duration="1" Instrument="Duty 0" Volume="5"
			Pattern Name="Pattern 11"
				Note Time="0" Value="G#3" Duration="8" Instrument="Duty 0" Volume="3"
				Note Time="2" Volume="2"
				Note Time="5" Volume="1"
				Note Time="15" Value="G3" Duration="1" Instrument="Duty 0" Volume="3"
				Note Time="16" Value="G#3" Duration="7" Instrument="Duty 0"
				Note Time="18" Volume="2"
				Note Time="21" Volume="1"
				Note Time="23" Value="D#3" Duration="1" Instrument="Duty 0" Volume="5"
				Note Time="24" Value="F3" Duration="9" Instrument="Duty 0"
				Note Time="25" Volume="4"
				Note Time="27" Volume="3"
				Note Time="29" Volume="2"
				Note Time="31" Volume="1"
				Note Time="39" Value="G3" Duration="1" Instrument="Duty 0" Volume="3"
				Note Time="40" Value="G#3" Duration="7" Instrument="Duty 0"
				Note Time="42" Volume="2"
				Note Time="45" Volume="1"
				Note Time="47" Value="F3" Duration="1" Instrument="Duty 0" Volume="5"
				Note Time="48" Value="G#3" Duration="8" Instrument="Duty 0" Volume="3"
				Note Time="50" Volume="2"
				Note Time="53" Volume="1"
				Note Time="63" Value="D#3" Duration="1" Instrument="Duty 0" Volume="5"
				Note Time="64" Value="F3" Duration="9" Instrument="Duty 0"
				Note Time="65" Volume="4"
				Note Time="67" Volume="3"
				Note Time="69" Volume="2"
				Note Time="71" Volume="1"
				Note Time="79" Value="D#3" Duration="1" Instrument="Duty 0" Volume="5"
				Note Time="80" Value="F3" Duration="9" Instrument="Duty 0"
				Note Time="81" Volume="4"
				Note Time="83" Volume="3"
				Note Time="85" Volume="2"
				Note Time="87" Volume="1"
				Note Time="95" Value="F3" Duration="1" Instrument="Duty 0" Volume="5"
				Note Time="96" Value="G#3" Duration="8" Instrument="Duty 0" Volume="3"
				Note Time="98" Volume="2"
				Note Time="101" Volume="1"
				Note Time="111" Value="G3" Duration="1" Instrument="Duty 0" Volume="3"
				Note Time="112" Value="G#3" Duration="7" Instrument="Duty 0"
				Note Time="114" Volume="2"
				Note Time="117" Volume="1"
				Note Time="119" Value="D#3" Duration="1" Instrument="Duty 0" Volume="5"
				Note Time="120" Value="F3" Duration="9" Instrument="Duty 0"
				Note Time="121" Volume="4"
				Note Time="123" Volume="3"
				Note Time="125" Volume="2"
				Note Time="127" Volume="1"
				Note Time="135" Value="G3" Duration="1" Instrument="Duty 0" Volume="3"
				Note Time="136" Value="G#3" Duration="7" Instrument="Duty 0"
				Note Time="138" Volume="2"
				Note Time="141" Volume="1"
				Note Time="143" Value="F3" Duration="1" Instrument="Duty 0" Volume="5"
				Note Time="144" Value="G#3" Duration="8" Instrument="Duty 0" Volume="3"
				Note Time="146" Volume="2"
				Note Time="149" Volume="1"
				Note Time="159" Value="G3" Duration="1" Instrument="Duty 0" Volume="3"
				Note Time="160" Value="G#3" Duration="7" Instrument="Duty 0"
				Note Time="162" Volume="2"
				Note Time="165" Volume="1"
				Note Time="167" Value="D#3" Duration="1" Instrument="Duty 0" Volume="5"
				Note Time="168" Value="F3" Duration="9" Instrument="Duty 0"
				Note Time="169" Volume="4"
				Note Time="171" Volume="3"
				Note Time="173" Volume="2"
				Note Time="175" Volume="1"
				Note Time="183" Value="G3" Duration="1" Instrument="Duty 0" Volume="3"
				Note Time="184" Value="G#3" Duration="7" Instrument="Duty 0"
				Note Time="186" Volume="2"
				Note Time="189" Volume="1"
				Note Time="191" Value="F3" Duration="1" Instrument="Duty 0" Volume="5"
				Note Time="192" Value="G#3" Duration="8" Instrument="Duty 0" Volume="3"
				Note Time="194" Volume="2"
				Note Time="197" Volume="1"
				Note Time="207" Value="G3" Duration="1" Instrument="Duty 0" Volume="3"
				Note Time="208" Value="G#3" Duration="7" Instrument="Duty 0"
				Note Time="210" Volume="2"
				Note Time="213" Volume="1"
				Note Time="215" Value="D#3" Duration="1" Instrument="Duty 0" Volume="5"
				Note Time="216" Value="F3" Duration="9" Instrument="Duty 0"
				Note Time="217" Volume="4"
				Note Time="219" Volume="3"
				Note Time="221" Volume="2"
				Note Time="223" Volume="1"
				Note Time="231" Value="G3" Duration="1" Instrument="Duty 0" Volume="3"
				Note Time="232" Value="G#3" Duration="7" Instrument="Duty 0"
				Note Time="234" Volume="2"
				Note Time="237" Volume="1"
				Note Time="239" Value="F3" Duration="1" Instrument="Duty 0" Volume="5"
				Note Time="240" Value="G#3" Duration="7" Instrument="Duty 0" Volume="3"
				Note Time="242" Volume="2"
				Note Time="245" Volume="1"
				Note Time="247" Value="D#3" Duration="1" Instrument="Duty 0" Volume="5"
				Note Time="248" Value="F3" Duration="7" Instrument="Duty 0"
				Note Time="249" Volume="4"
				Note Time="251" Volume="3"
				Note Time="253" Volume="2"
				Note Time="255" Value="D#3" Duration="1" Instrument="Duty 0" Volume="5"
			Pattern Name="Pattern 12"
				Note Time="0" Value="F3" Duration="8" Instrument="Duty 0"
				Note Time="1" Volume="4"
				Note Time="3" Volume="3"
				Note Time="5" Volume="2"
				Note Time="7" Volume="5"
				Note Time="8" Value="G#3" Duration="7" Instrument="Duty 0" Volume="3"
				Note Time="10" Volume="2"
				Note Time="13" Volume="1"
				Note Time="15" Value="D#3" Duration="1" Instrument="Duty 0" Volume="5"
				Note Time="16" Value="F3" Duration="7" Instrument="Duty 0"
				Note Time="17" Volume="4"
				Note Time="19" Volume="3"
				Note Time="21" Volume="2"
				Note Time="23" Value="D#3" Duration="1" Instrument="Duty 0" Volume="5"
				Note Time="24" Value="F3" Duration="8" Instrument="Duty 0"
				Note Time="25" Volume="4"
				Note Time="27" Volume="3"
				Note Time="29" Volume="2"
				Note Time="31" Volume="5"
				Note Time="32" Value="G#3" Duration="8" Instrument="Duty 0" Volume="3"
				Note Time="34" Volume="2"
				Note Time="37" Volume="1"
				Note Time="47" Value="G3" Duration="1" Instrument="Duty 0" Volume="3"
				Note Time="48" Value="G#3" Duration="7" Instrument="Duty 0"
				Note Time="50" Volume="2"
				Note Time="53" Volume="1"
				Note Time="55" Value="D#3" Duration="1" Instrument="Duty 0" Volume="5"
				Note Time="56" Value="F3" Duration="9" Instrument="Duty 0"
				Note Time="57" Volume="4"
				Note Time="59" Volume="3"
				Note Time="61" Volume="2"
				Note Time="63" Volume="1"
				Note Time="71" Value="F3" Duration="1" Instrument="Duty 0" Volume="5"
				Note Time="72" Value="G#3" Duration="7" Instrument="Duty 0" Volume="3"
				Note Time="74" Volume="2"
				Note Time="77" Volume="1"
				Note Time="79" Value="D#3" Duration="1" Instrument="Duty 0" Volume="5"
				Note Time="80" Value="F3" Duration="9" Instrument="Duty 0"
				Note Time="81" Volume="4"
				Note Time="83" Volume="3"
				Note Time="85" Volume="2"
				Note Time="87" Volume="1"
				Note Time="95" Value="D#3" Duration="1" Instrument="Duty 0" Volume="5"
				Note Time="96" Value="F3" Duration="9" Instrument="Duty 0"
				Note Time="97" Volume="4"
				Note Time="99" Volume="3"
				Note Time="101" Volume="2"
				Note Time="103" Volume="1"
				Note Time="111" Value="D#3" Duration="1" Instrument="Duty 0" Volume="5"
				Note Time="112" Value="F3" Duration="9" Instrument="Duty 0"
				Note Time="113" Volume="4"
				Note Time="115" Volume="3"
				Note Time="117" Volume="2"
				Note Time="119" Volume="1"
				Note Time="127" Value="F3" Duration="1" Instrument="Duty 0" Volume="5"
				Note Time="128" Value="G#3" Duration="8" Instrument="Duty 0" Volume="3"
				Note Time="130" Volume="2"
				Note Time="133" Volume="1"
				Note Time="143" Value="G3" Duration="1" Instrument="Duty 0" Volume="3"
				Note Time="144" Value="G#3" Duration="7" Instrument="Duty 0"
				Note Time="146" Volume="2"
				Note Time="149" Volume="1"
				Note Time="151" Value="D#3" Duration="1" Instrument="Duty 0" Volume="5"
				Note Time="152" Value="F3" Duration="9" Instrument="Duty 0"
				Note Time="153" Volume="4"
				Note Time="155" Volume="3"
				Note Time="157" Volume="2"
				Note Time="159" Volume="1"
				Note Time="167" Value="G3" Duration="1" Instrument="Duty 0" Volume="3"
				Note Time="168" Value="G#3" Duration="7" Instrument="Duty 0"
				Note Time="170" Volume="2"
				Note Time="173" Volume="1"
				Note Time="175" Value="F3" Duration="1" Instrument="Duty 0" Volume="5"
				Note Time="176" Value="G#3" Duration="7" Instrument="Duty 0" Volume="3"
				Note Time="178" Volume="2"
				Note Time="181" Volume="1"
				Note Time="183" Value="D#3" Duration="1" Instrument="Duty 0" Volume="5"
				Note Time="184" Value="F3" Duration="7" Instrument="Duty 0"
				Note Time="185" Volume="4"
				Note Time="187" Volume="3"
				Note Time="189" Volume="2"
				Note Time="191" Value="D#3" Duration="1" Instrument="Duty 0" Volume="5"
				Note Time="192" Value="F3" Duration="8" Instrument="Duty 0"
				Note Time="193" Volume="4"
				Note Time="195" Volume="3"
				Note Time="197" Volume="2"
				Note Time="199" Volume="5"
				Note Time="200" Value="G#3" Duration="7" Instrument="Duty 0" Volume="3"
				Note Time="202" Volume="2"
				Note Time="205" Volume="1"
				Note Time="207" Value="D#3" Duration="1" Instrument="Duty 0" Volume="5"
				Note Time="208" Value="F3" Duration="7" Instrument="Duty 0"
				Note Time="209" Volume="4"
				Note Time="211" Volume="3"
				Note Time="213" Volume="2"
				Note Time="215" Value="D#3" Duration="1" Instrument="Duty 0" Volume="5"
				Note Time="216" Value="F3" Duration="8" Instrument="Duty 0"
				Note Time="217" Volume="4"
				Note Time="219" Volume="3"
				Note Time="221" Volume="2"
				Note Time="223" Volume="5"
				Note Time="224" Value="G#3" Duration="8" Instrument="Duty 0" Volume="3"
				Note Time="226" Volume="2"
				Note Time="229" Volume="1"
				Note Time="239" Value="G3" Duration="1" Instrument="Duty 0" Volume="3"
				Note Time="240" Value="G#3" Duration="7" Instrument="Duty 0"
				Note Time="242" Volume="2"
				Note Time="245" Volume="1"
				Note Time="247" Value="D#3" Duration="1" Instrument="Duty 0" Volume="5"
				Note Time="248" Value="F3" Duration="9" Instrument="Duty 0"
				Note Time="249" Volume="4"
				Note Time="251" Volume="3"
				Note Time="253" Volume="2"
				Note Time="255" Volume="1"
			Pattern Name="Pattern 13"
				Note Time="7" Value="F3" Duration="1" Instrument="Duty 0" Volume="5"
				Note Time="8" Value="G#3" Duration="7" Instrument="Duty 0" Volume="3"
				Note Time="10" Volume="2"
				Note Time="13" Volume="1"
				Note Time="15" Value="D#3" Duration="1" Instrument="Duty 0" Volume="5"
				Note Time="16" Value="F3" Duration="9" Instrument="Duty 0"
				Note Time="17" Volume="4"
				Note Time="19" Volume="3"
				Note Time="21" Volume="2"
				Note Time="23" Volume="1"
				Note Time="31" Value="D#3" Duration="1" Instrument="Duty 0" Volume="5"
				Note Time="32" Value="F3" Duration="9" Instrument="Duty 0"
				Note Time="33" Volume="4"
				Note Time="35" Volume="3"
				Note Time="37" Volume="2"
				Note Time="39" Volume="1"
				Note Time="47" Value="D#3" Duration="1" Instrument="Duty 0" Volume="5"
				Note Time="48" Value="F3" Duration="9" Instrument="Duty 0"
				Note Time="49" Volume="4"
				Note Time="51" Volume="3"
				Note Time="53" Volume="2"
				Note Time="55" Volume="1"
				Note Time="63" Value="F3" Duration="1" Instrument="Duty 0" Volume="5"
				Note Time="64" Value="G#3" Duration="8" Instrument="Duty 0" Volume="3"
				Note Time="66" Volume="2"
				Note Time="69" Volume="1"
				Note Time="79" Value="G3" Duration="1" Instrument="Duty 0" Volume="3"
				Note Time="80" Value="G#3" Duration="7" Instrument="Duty 0"
				Note Time="82" Volume="2"
				Note Time="85" Volume="1"
				Note Time="87" Value="D#3" Duration="1" Instrument="Duty 0" Volume="5"
				Note Time="88" Value="F3" Duration="9" Instrument="Duty 0"
				Note Time="89" Volume="4"
				Note Time="91" Volume="3"
				Note Time="93" Volume="2"
				Note Time="95" Volume="1"
				Note Time="103" Value="G3" Duration="1" Instrument="Duty 0" Volume="3"
				Note Time="104" Value="G#3" Duration="7" Instrument="Duty 0"
				Note Time="106" Volume="2"
				Note Time="109" Volume="1"
				Note Time="111" Value="F3" Duration="1" Instrument="Duty 0" Volume="5"
				Note Time="112" Value="G#3" Duration="7" Instrument="Duty 0" Volume="3"
				Note Time="114" Volume="2"
				Note Time="117" Volume="1"
				Note Time="119" Value="D#3" Duration="1" Instrument="Duty 0" Volume="5"
				Note Time="120" Value="F3" Duration="7" Instrument="Duty 0"
				Note Time="121" Volume="4"
				Note Time="123" Volume="3"
				Note Time="125" Volume="2"
				Note Time="127" Value="D#3" Duration="1" Instrument="Duty 0" Volume="5"
				Note Time="128" Value="F3" Duration="8" Instrument="Duty 0"
				Note Time="129" Volume="4"
				Note Time="131" Volume="3"
				Note Time="133" Volume="2"
				Note Time="135" Volume="5"
				Note Time="136" Value="G#3" Duration="7" Instrument="Duty 0" Volume="3"
				Note Time="138" Volume="2"
				Note Time="141" Volume="1"
				Note Time="143" Value="D#3" Duration="1" Instrument="Duty 0" Volume="5"
				Note Time="144" Value="F3" Duration="7" Instrument="Duty 0"
				Note Time="145" Volume="4"
				Note Time="147" Volume="3"
				Note Time="149" Volume="2"
				Note Time="151" Value="D#3" Duration="1" Instrument="Duty 0" Volume="5"
				Note Time="152" Value="F3" Duration="8" Instrument="Duty 0"
				Note Time="153" Volume="4"
				Note Time="155" Volume="3"
				Note Time="157" Volume="2"
				Note Time="159" Volume="5"
				Note Time="160" Value="G#3" Duration="8" Instrument="Duty 0" Volume="3"
				Note Time="162" Volume="2"
				Note Time="165" Volume="1"
				Note Time="175" Value="G3" Duration="1" Instrument="Duty 0" Volume="3"
				Note Time="176" Value="G#3" Duration="7" Instrument="Duty 0"
				Note Time="178" Volume="2"
				Note Time="181" Volume="1"
				Note Time="183" Value="D#3" Duration="1" Instrument="Duty 0" Volume="5"
				Note Time="184" Value="F3" Duration="9" Instrument="Duty 0"
				Note Time="185" Volume="4"
				Note Time="187" Volume="3"
				Note Time="189" Volume="2"
				Note Time="191" Volume="1"
				Note Time="199" Value="F3" Duration="1" Instrument="Duty 0" Volume="5"
				Note Time="200" Value="G#3" Duration="7" Instrument="Duty 0" Volume="3"
				Note Time="202" Volume="2"
				Note Time="205" Volume="1"
				Note Time="207" Value="D#3" Duration="1" Instrument="Duty 0" Volume="5"
				Note Time="208" Value="F3" Duration="9" Instrument="Duty 0"
				Note Time="209" Volume="4"
				Note Time="211" Volume="3"
				Note Time="213" Volume="2"
				Note Time="215" Volume="1"
				Note Time="223" Value="D#3" Duration="1" Instrument="Duty 0" Volume="5"
				Note Time="224" Value="F3" Duration="9" Instrument="Duty 0"
				Note Time="225" Volume="4"
				Note Time="227" Volume="3"
				Note Time="229" Volume="2"
				Note Time="231" Volume="1"
				Note Time="239" Value="D#3" Duration="1" Instrument="Duty 0" Volume="5"
				Note Time="240" Value="F3" Duration="9" Instrument="Duty 0"
				Note Time="241" Volume="4"
				Note Time="243" Volume="3"
				Note Time="245" Volume="2"
				Note Time="247" Volume="1"
				Note Time="255" Value="F3" Duration="1" Instrument="Duty 0" Volume="5"
			Pattern Name="Pattern 14"
				Note Time="0" Value="G#3" Duration="8" Instrument="Duty 0" Volume="3"
				Note Time="2" Volume="2"
				Note Time="5" Volume="1"
				Note Time="15" Value="G3" Duration="1" Instrument="Duty 0" Volume="3"
				Note Time="16" Value="G#3" Duration="7" Instrument="Duty 0"
				Note Time="18" Volume="2"
				Note Time="21" Volume="1"
				Note Time="23" Value="D#3" Duration="1" Instrument="Duty 0" Volume="5"
				Note Time="24" Value="F3" Duration="9" Instrument="Duty 0"
				Note Time="25" Volume="4"
				Note Time="27" Volume="3"
				Note Time="29" Volume="2"
				Note Time="31" Volume="1"
				Note Time="39" Value="G3" Duration="1" Instrument="Duty 0" Volume="3"
				Note Time="40" Value="G#3" Duration="7" Instrument="Duty 0"
				Note Time="42" Volume="2"
				Note Time="45" Volume="1"
				Note Time="47" Value="F3" Duration="1" Instrument="Duty 0" Volume="5"
				Note Time="48" Value="G#3" Duration="7" Instrument="Duty 0" Volume="3"
				Note Time="50" Volume="2"
				Note Time="53" Volume="1"
				Note Time="55" Value="D#3" Duration="1" Instrument="Duty 0" Volume="5"
				Note Time="56" Value="F3" Duration="7" Instrument="Duty 0"
				Note Time="57" Volume="4"
				Note Time="59" Volume="3"
				Note Time="61" Volume="2"
				Note Time="63" Value="D#3" Duration="1" Instrument="Duty 0" Volume="5"
				Note Time="64" Value="F3" Duration="8" Instrument="Duty 0"
				Note Time="65" Volume="4"
				Note Time="67" Volume="3"
				Note Time="69" Volume="2"
				Note Time="71" Volume="5"
				Note Time="72" Value="G#3" Duration="7" Instrument="Duty 0" Volume="3"
				Note Time="74" Volume="2"
				Note Time="77" Volume="1"
				Note Time="79" Value="D#3" Duration="1" Instrument="Duty 0" Volume="5"
				Note Time="80" Value="F3" Duration="7" Instrument="Duty 0"
				Note Time="81" Volume="4"
				Note Time="83" Volume="3"
				Note Time="85" Volume="2"
				Note Time="87" Value="D#3" Duration="1" Instrument="Duty 0" Volume="5"
				Note Time="88" Value="F3" Duration="8" Instrument="Duty 0"
				Note Time="89" Volume="4"
				Note Time="91" Volume="3"
				Note Time="93" Volume="2"
				Note Time="95" Volume="5"
				Note Time="96" Value="G#3" Duration="8" Instrument="Duty 0" Volume="3"
				Note Time="98" Volume="2"
				Note Time="101" Volume="1"
				Note Time="111" Value="G3" Duration="1" Instrument="Duty 0" Volume="3"
				Note Time="112" Value="G#3" Duration="7" Instrument="Duty 0"
				Note Time="114" Volume="2"
				Note Time="117" Volume="1"
				Note Time="119" Value="D#3" Duration="1" Instrument="Duty 0" Volume="5"
				Note Time="120" Value="F3" Duration="9" Instrument="Duty 0"
				Note Time="121" Volume="4"
				Note Time="123" Volume="3"
				Note Time="125" Volume="2"
				Note Time="127" Volume="1"
				Note Time="135" Value="F3" Duration="1" Instrument="Duty 0" Volume="5"
				Note Time="136" Value="G#3" Duration="7" Instrument="Duty 0" Volume="3"
				Note Time="138" Volume="2"
				Note Time="141" Volume="1"
				Note Time="143" Value="D#3" Duration="1" Instrument="Duty 0" Volume="5"
				Note Time="144" Value="F3" Duration="9" Instrument="Duty 0"
				Note Time="145" Volume="4"
				Note Time="147" Volume="3"
				Note Time="149" Volume="2"
				Note Time="151" Volume="1"
				Note Time="159" Value="D#3" Duration="1" Instrument="Duty 0" Volume="5"
				Note Time="160" Value="F3" Duration="9" Instrument="Duty 0"
				Note Time="161" Volume="4"
				Note Time="163" Volume="3"
				Note Time="165" Volume="2"
				Note Time="167" Volume="1"
				Note Time="175" Value="D#3" Duration="1" Instrument="Duty 0" Volume="5"
				Note Time="176" Value="F3" Duration="9" Instrument="Duty 0"
				Note Time="177" Volume="4"
				Note Time="179" Volume="3"
				Note Time="181" Volume="2"
				Note Time="183" Volume="1"
				Note Time="187" Value="B2" Duration="1" Instrument="Duty 0" Volume="2"
				Note Time="188" Value="C#3" Duration="1" Instrument="Duty 0" Volume="3"
				Note Time="189" Value="D3" Duration="1" Instrument="Duty 0" Volume="4"
				Note Time="190" Value="E3" Duration="1" Instrument="Duty 0" Volume="5"
				Note Time="191" Value="C3" Duration="1" Instrument="Duty 0" Volume="11"
				Note Time="192" Value="E3" Duration="3" Instrument="Duty 0" Volume="5"
				Note Time="195" Value="F3" Duration="4" Instrument="Duty 0"
				Note Time="199" Value="F#3" Duration="5" Instrument="Duty 0"
				Note Time="204" Value="G3" Duration="35" Instrument="Duty 0"
				Note Time="211" Volume="4"
				Note Time="219" Volume="3"
				Note Time="227" Volume="2"
				Note Time="235" Volume="1"
				Note Time="239" Value="D#3" Duration="1" Instrument="Duty 0" Volume="5"
				Note Time="240" Value="F3" Duration="7" Instrument="Duty 0"
				Note Time="241" Volume="4"
				Note Time="243" Volume="3"
				Note Time="245" Volume="2"
				Note Time="247" Value="D#3" Duration="1" Instrument="Duty 0" Volume="5"
				Note Time="248" Value="F3" Duration="7" Instrument="Duty 0"
				Note Time="249" Volume="4"
				Note Time="251" Volume="3"
				Note Time="253" Volume="2"
				Note Time="255" Value="D#3" Duration="1" Instrument="Duty 0" Volume="5"
			Pattern Name="Pattern 15"
				Note Time="0" Value="F3" Duration="9" Instrument="Duty 0"
				Note Time="1" Volume="4"
				Note Time="3" Volume="3"
				Note Time="5" Volume="2"
				Note Time="7" Volume="1"
				Note Time="15" Value="D#3" Duration="1" Instrument="Duty 0" Volume="5"
				Note Time="16" Value="F3" Duration="9" Instrument="Duty 0"
				Note Time="17" Volume="4"
				Note Time="19" Volume="3"
				Note Time="21" Volume="2"
				Note Time="23" Volume="1"
				Note Time="27" Value="B2" Duration="1" Instrument="Duty 0" Volume="2"
				Note Time="28" Value="C#3" Duration="1" Instrument="Duty 0" Volume="3"
				Note Time="29" Value="D3" Duration="1" Instrument="Duty 0" Volume="4"
				Note Time="30" Value="E3" Duration="1" Instrument="Duty 0" Volume="5"
				Note Time="31" Value="C3" Duration="1" Instrument="Duty 0" Volume="11"
				Note Time="32" Value="E3" Duration="3" Instrument="Duty 0" Volume="5"
				Note Time="35" Value="F3" Duration="4" Instrument="Duty 0"
				Note Time="39" Value="F#3" Duration="5" Instrument="Duty 0"
				Note Time="44" Value="G3" Duration="35" Instrument="Duty 0"
				Note Time="51" Volume="4"
				Note Time="59" Volume="3"
				Note Time="67" Volume="2"
				Note Time="75" Volume="1"
				Note Time="79" Value="D#3" Duration="1" Instrument="Duty 0" Volume="5"
				Note Time="80" Value="F3" Duration="7" Instrument="Duty 0"
				Note Time="81" Volume="4"
				Note Time="83" Volume="3"
				Note Time="85" Volume="2"
				Note Time="87" Value="D#3" Duration="1" Instrument="Duty 0" Volume="5"
				Note Time="88" Value="F3" Duration="7" Instrument="Duty 0"
				Note Time="89" Volume="4"
				Note Time="91" Volume="3"
				Note Time="93" Volume="2"
				Note Time="95" Value="D#3" Duration="1" Instrument="Duty 0" Volume="5"
				Note Time="96" Value="F3" Duration="9" Instrument="Duty 0"
				Note Time="97" Volume="4"
				Note Time="99" Volume="3"
				Note Time="101" Volume="2"
				Note Time="103" Volume="1"
				Note Time="111" Value="D#3" Duration="1" Instrument="Duty 0" Volume="5"
				Note Time="112" Value="F3" Duration="9" Instrument="Duty 0"
				Note Time="113" Volume="4"
				Note Time="115" Volume="3"
				Note Time="117" Volume="2"
				Note Time="119" Volume="1"
				Note Time="123" Value="B2" Duration="1" Instrument="Duty 0" Volume="2"
				Note Time="124" Value="C#3" Duration="1" Instrument="Duty 0" Volume="3"
				Note Time="125" Value="D3" Duration="1" Instrument="Duty 0" Volume="4"
				Note Time="126" Value="E3" Duration="1" Instrument="Duty 0" Volume="5"
				Note Time="127" Value="C3" Duration="1" Instrument="Duty 0" Volume="11"
				Note Time="128" Value="E3" Duration="3" Instrument="Duty 0" Volume="5"
				Note Time="131" Value="F3" Duration="4" Instrument="Duty 0"
				Note Time="135" Value="F#3" Duration="5" Instrument="Duty 0"
				Note Time="140" Value="G3" Duration="35" Instrument="Duty 0"
				Note Time="147" Volume="4"
				Note Time="155" Volume="3"
				Note Time="163" Volume="2"
				Note Time="171" Volume="1"
				Note Time="175" Value="D#3" Duration="1" Instrument="Duty 0" Volume="5"
				Note Time="176" Value="F3" Duration="7" Instrument="Duty 0"
				Note Time="177" Volume="4"
				Note Time="179" Volume="3"
				Note Time="181" Volume="2"
				Note Time="183" Value="D#3" Duration="1" Instrument="Duty 0" Volume="5"
				Note Time="184" Value="F3" Duration="7" Instrument="Duty 0"
				Note Time="185" Volume="4"
				Note Time="187" Volume="3"
				Note Time="189" Volume="2"
				Note Time="191" Value="D#3" Duration="1" Instrument="Duty 0" Volume="5"
				Note Time="192" Value="F3" Duration="9" Instrument="Duty 0"
				Note Time="193" Volume="4"
				Note Time="195" Volume="3"
				Note Time="197" Volume="2"
				Note Time="199" Volume="1"
				Note Time="207" Value="D#3" Duration="1" Instrument="Duty 0" Volume="5"
				Note Time="208" Value="F3" Duration="9" Instrument="Duty 0"
				Note Time="209" Volume="4"
				Note Time="211" Volume="3"
				Note Time="213" Volume="2"
				Note Time="215" Volume="1"
				Note Time="219" Value="B2" Duration="1" Instrument="Duty 0" Volume="2"
				Note Time="220" Value="C#3" Duration="1" Instrument="Duty 0" Volume="3"
				Note Time="221" Value="D3" Duration="1" Instrument="Duty 0" Volume="4"
				Note Time="222" Value="E3" Duration="1" Instrument="Duty 0" Volume="5"
				Note Time="223" Value="C3" Duration="1" Instrument="Duty 0" Volume="11"
				Note Time="224" Value="E3" Duration="3" Instrument="Duty 0" Volume="5"
				Note Time="227" Value="F3" Duration="4" Instrument="Duty 0"
				Note Time="231" Value="F#3" Duration="5" Instrument="Duty 0"
				Note Time="236" Value="G3" Duration="35" Instrument="Duty 0"
				Note Time="243" Volume="4"
				Note Time="251" Volume="3"
			Pattern Name="Pattern 16"
				Note Time="3" Volume="2"
				Note Time="11" Volume="1"
				Note Time="15" Value="D#3" Duration="1" Instrument="Duty 0" Volume="5"
				Note Time="16" Value="F3" Duration="7" Instrument="Duty 0"
				Note Time="17" Volume="4"
				Note Time="19" Volume="3"
				Note Time="21" Volume="2"
				Note Time="23" Value="D#3" Duration="1" Instrument="Duty 0" Volume="5"
				Note Time="24" Value="F3" Duration="7" Instrument="Duty 0"
				Note Time="25" Volume="4"
				Note Time="27" Volume="3"
				Note Time="29" Volume="2"
				Note Time="31" Value="D#3" Duration="1" Instrument="Duty 0" Volume="5"
				Note Time="32" Value="F3" Duration="9" Instrument="Duty 0"
				Note Time="33" Volume="4"
				Note Time="35" Volume="3"
				Note Time="37" Volume="2"
				Note Time="39" Volume="1"
				Note Time="47" Value="D#3" Duration="1" Instrument="Duty 0" Volume="5"
				Note Time="48" Value="F3" Duration="9" Instrument="Duty 0"
				Note Time="49" Volume="4"
				Note Time="51" Volume="3"
				Note Time="53" Volume="2"
				Note Time="55" Volume="1"
				Note Time="79" Value="D#3" Duration="1" Instrument="Duty 0" Volume="5"
				Note Time="80" Value="F3" Duration="7" Instrument="Duty 0"
				Note Time="81" Volume="4"
				Note Time="83" Volume="3"
				Note Time="85" Volume="2"
				Note Time="87" Value="D#3" Duration="1" Instrument="Duty 0" Volume="5"
				Note Time="88" Value="F3" Duration="7" Instrument="Duty 0"
				Note Time="89" Volume="4"
				Note Time="91" Volume="3"
				Note Time="93" Volume="2"
				Note Time="95" Value="D#3" Duration="1" Instrument="Duty 0" Volume="5"
				Note Time="96" Value="F3" Duration="9" Instrument="Duty 0"
				Note Time="97" Volume="4"
				Note Time="99" Volume="3"
				Note Time="101" Volume="2"
				Note Time="103" Volume="1"
				Note Time="107" Value="B2" Duration="1" Instrument="Duty 0" Volume="2"
				Note Time="108" Value="C#3" Duration="1" Instrument="Duty 0" Volume="3"
				Note Time="109" Value="D3" Duration="1" Instrument="Duty 0" Volume="4"
				Note Time="110" Value="E3" Duration="1" Instrument="Duty 0" Volume="5"
				Note Time="111" Value="C3" Duration="1" Instrument="Duty 0" Volume="11"
				Note Time="112" Value="E3" Duration="3" Instrument="Duty 0" Volume="6"
				Note Time="115" Value="F3" Duration="4" Instrument="Duty 0"
				Note Time="119" Value="F#3" Duration="5" Instrument="Duty 0"
				Note Time="124" Value="G3" Duration="95" Instrument="Duty 0"
				Note Time="139" Volume="5"
				Note Time="155" Volume="4"
				Note Time="171" Volume="3"
				Note Time="187" Volume="2"
				Note Time="203" Volume="1"
			Pattern Name="Pattern 17"
				Note Time="172" Value="B2" Duration="1" Instrument="Duty 0" Volume="2"
				Note Time="173" Value="C#3" Duration="1" Instrument="Duty 0" Volume="3"
				Note Time="174" Value="D3" Duration="1" Instrument="Duty 0" Volume="4"
				Note Time="175" Value="E3" Duration="1" Instrument="Duty 0" Volume="5"
				Note Time="176" Value="C3" Duration="1" Instrument="Duty 0" Volume="11"
				Note Time="177" Value="E3" Duration="3" Instrument="Duty 0" Volume="6"
				Note Time="180" Value="F3" Duration="4" Instrument="Duty 0"
				Note Time="184" Value="F#3" Duration="5" Instrument="Duty 0"
				Note Time="189" Value="G3" Duration="95" Instrument="Duty 0"
				Note Time="204" Volume="5"
				Note Time="220" Volume="4"
				Note Time="236" Volume="3"
				Note Time="252" Volume="2"
			Pattern Name="Pattern 18"
				Note Time="12" Volume="1"
				Note Time="52" Value="D#3" Duration="1" Instrument="Duty 0" Volume="5"
				Note Time="53" Value="F3" Duration="5" Instrument="Duty 0"
				Note Time="55" Volume="4"
				Note Time="58" Value="D#3" Duration="1" Instrument="Duty 0" Volume="5"
				Note Time="59" Value="F3" Duration="2" Instrument="Duty 0"
				Note Time="61" Value="C#3" Duration="1" Instrument="Duty 0" Volume="3"
				Note Time="62" Value="D3" Duration="1" Instrument="Duty 0" Volume="4"
				Note Time="63" Value="E3" Duration="1" Instrument="Duty 0" Volume="5"
				Note Time="64" Value="C3" Duration="1" Instrument="Duty 0" Volume="11"
				Note Time="65" Value="E3" Duration="3" Instrument="Duty 0" Volume="6"
				Note Time="68" Value="F3" Duration="4" Instrument="Duty 0"
				Note Time="72" Value="F#3" Duration="5" Instrument="Duty 0"
				Note Time="77" Value="G3" Duration="95" Instrument="Duty 0"
				Note Time="92" Volume="5"
				Note Time="108" Volume="4"
				Note Time="124" Volume="3"
				Note Time="140" Volume="2"
				Note Time="156" Volume="1"
				Note Time="172" Value="F3" Duration="1" Instrument="Duty 0" Volume="5"
				Note Time="173" Value="G#3" Duration="5" Instrument="Duty 0" Volume="3"
				Note Time="175" Volume="2"
				Note Time="178" Value="F3" Duration="1" Instrument="Duty 0" Volume="5"
				Note Time="179" Value="G#3" Duration="5" Instrument="Duty 0" Volume="3"
				Note Time="181" Volume="2"
				Note Time="184" Value="D#3" Duration="1" Instrument="Duty 0" Volume="5"
				Note Time="185" Value="F3" Duration="19" Instrument="Duty 0"
				Note Time="190" Volume="4"
				Note Time="196" Volume="3"
				Note Time="202" Volume="2"
				Note Time="204" Value="B2" Duration="1" Instrument="Duty 0"
				Note Time="205" Value="C#3" Duration="1" Instrument="Duty 0" Volume="3"
				Note Time="206" Value="D3" Duration="1" Instrument="Duty 0" Volume="4"
				Note Time="207" Value="E3" Duration="1" Instrument="Duty 0" Volume="5"
				Note Time="208" Value="C3" Duration="1" Instrument="Duty 0" Volume="11"
				Note Time="209" Value="E3" Duration="3" Instrument="Duty 0" Volume="6"
				Note Time="212" Value="F3" Duration="4" Instrument="Duty 0"
				Note Time="216" Value="F#3" Duration="5" Instrument="Duty 0"
				Note Time="221" Value="G3" Duration="95" Instrument="Duty 0"
				Note Time="236" Volume="5"
				Note Time="252" Volume="4"
			Pattern Name="Pattern 19"
				Note Time="12" Volume="3"
				Note Time="28" Volume="2"
				Note Time="44" Volume="1"
				Note Time="84" Value="D#3" Duration="1" Instrument="Duty 0" Volume="5"
				Note Time="85" Value="F3" Duration="5" Instrument="Duty 0"
				Note Time="87" Volume="4"
				Note Time="90" Value="D#3" Duration="1" Instrument="Duty 0" Volume="5"
				Note Time="91" Value="F3" Duration="2" Instrument="Duty 0"
				Note Time="93" Value="C#3" Duration="1" Instrument="Duty 0" Volume="3"
				Note Time="94" Value="D3" Duration="1" Instrument="Duty 0" Volume="4"
				Note Time="95" Value="E3" Duration="1" Instrument="Duty 0" Volume="5"
				Note Time="96" Value="C3" Duration="1" Instrument="Duty 0" Volume="11"
				Note Time="97" Value="E3" Duration="3" Instrument="Duty 0" Volume="6"
				Note Time="100" Value="F3" Duration="4" Instrument="Duty 0"
				Note Time="104" Value="F#3" Duration="5" Instrument="Duty 0"
				Note Time="109" Value="G3" Duration="95" Instrument="Duty 0"
				Note Time="124" Volume="5"
				Note Time="140" Volume="4"
				Note Time="156" Volume="3"
				Note Time="172" Volume="2"
				Note Time="188" Volume="1"
				Note Time="204" Value="F3" Duration="1" Instrument="Duty 0" Volume="5"
				Note Time="205" Value="G#3" Duration="5" Instrument="Duty 0" Volume="3"
				Note Time="207" Volume="2"
				Note Time="210" Value="F3" Duration="1" Instrument="Duty 0" Volume="5"
				Note Time="211" Value="G#3" Duration="5" Instrument="Duty 0" Volume="3"
				Note Time="213" Volume="2"
				Note Time="216" Value="D#3" Duration="1" Instrument="Duty 0" Volume="5"
				Note Time="217" Value="F3" Duration="19" Instrument="Duty 0"
				Note Time="222" Volume="4"
				Note Time="228" Volume="3"
				Note Time="234" Volume="2"
				Note Time="236" Value="B2" Duration="1" Instrument="Duty 0"
				Note Time="237" Value="C#3" Duration="1" Instrument="Duty 0" Volume="3"
				Note Time="238" Value="D3" Duration="1" Instrument="Duty 0" Volume="4"
				Note Time="239" Value="E3" Duration="1" Instrument="Duty 0" Volume="5"
				Note Time="240" Value="C3" Duration="1" Instrument="Duty 0" Volume="11"
				Note Time="241" Value="E3" Duration="3" Instrument="Duty 0" Volume="6"
				Note Time="244" Value="F3" Duration="4" Instrument="Duty 0"
				Note Time="248" Value="F#3" Duration="5" Instrument="Duty 0"
				Note Time="253" Value="G3" Duration="95" Instrument="Duty 0"
			Pattern Name="Pattern 20"
				Note Time="12" Volume="5"
				Note Time="28" Volume="4"
				Note Time="44" Volume="3"
				Note Time="60" Volume="2"
				Note Time="76" Volume="1"
				Note Time="116" Value="D#3" Duration="1" Instrument="Duty 0" Volume="5"
				Note Time="117" Value="F3" Duration="5" Instrument="Duty 0"
				Note Time="119" Volume="4"
				Note Time="122" Value="D#3" Duration="1" Instrument="Duty 0" Volume="5"
				Note Time="123" Value="F3" Duration="2" Instrument="Duty 0"
				Note Time="125" Value="C#3" Duration="1" Instrument="Duty 0" Volume="3"
				Note Time="126" Value="D3" Duration="1" Instrument="Duty 0" Volume="4"
				Note Time="127" Value="E3" Duration="1" Instrument="Duty 0" Volume="5"
				Note Time="128" Value="C3" Duration="1" Instrument="Duty 0" Volume="11"
				Note Time="129" Value="E3" Duration="3" Instrument="Duty 0" Volume="6"
				Note Time="132" Value="F3" Duration="4" Instrument="Duty 0"
				Note Time="136" Value="F#3" Duration="5" Instrument="Duty 0"
				Note Time="141" Value="G3" Duration="95" Instrument="Duty 0"
				Note Time="156" Volume="5"
				Note Time="172" Volume="4"
				Note Time="188" Volume="3"
				Note Time="204" Volume="2"
				Note Time="220" Volume="1"
				Note Time="236" Value="F3" Duration="1" Instrument="Duty 0" Volume="5"
				Note Time="237" Value="G#3" Duration="5" Instrument="Duty 0" Volume="3"
				Note Time="239" Volume="2"
				Note Time="242" Value="F3" Duration="1" Instrument="Duty 0" Volume="5"
				Note Time="243" Value="G#3" Duration="5" Instrument="Duty 0" Volume="3"
				Note Time="245" Volume="2"
				Note Time="248" Value="D#3" Duration="1" Instrument="Duty 0" Volume="5"
				Note Time="249" Value="F3" Duration="19" Instrument="Duty 0"
				Note Time="254" Volume="4"
			Pattern Name="Pattern 21"
				Note Time="4" Volume="3"
				Note Time="10" Volume="2"
				Note Time="12" Value="B2" Duration="1" Instrument="Duty 0"
				Note Time="13" Value="C#3" Duration="1" Instrument="Duty 0" Volume="3"
				Note Time="14" Value="D3" Duration="1" Instrument="Duty 0" Volume="4"
				Note Time="15" Value="E3" Duration="1" Instrument="Duty 0" Volume="5"
				Note Time="16" Value="C3" Duration="1" Instrument="Duty 0" Volume="11"
				Note Time="17" Value="E3" Duration="3" Instrument="Duty 0" Volume="6"
				Note Time="20" Value="F3" Duration="4" Instrument="Duty 0"
				Note Time="24" Value="F#3" Duration="5" Instrument="Duty 0"
				Note Time="29" Value="G3" Duration="95" Instrument="Duty 0"
				Note Time="44" Volume="5"
				Note Time="60" Volume="4"
				Note Time="76" Volume="3"
				Note Time="92" Volume="2"
				Note Time="108" Volume="1"
				Note Time="148" Value="D#3" Duration="1" Instrument="Duty 0" Volume="5"
				Note Time="149" Value="F3" Duration="5" Instrument="Duty 0"
				Note Time="151" Volume="4"
				Note Time="154" Value="D#3" Duration="1" Instrument="Duty 0" Volume="5"
				Note Time="155" Value="F3" Duration="2" Instrument="Duty 0"
				Note Time="157" Value="C#3" Duration="1" Instrument="Duty 0" Volume="3"
				Note Time="158" Value="D3" Duration="1" Instrument="Duty 0" Volume="4"
				Note Time="159" Value="E3" Duration="1" Instrument="Duty 0" Volume="5"
				Note Time="160" Value="C3" Duration="1" Instrument="Duty 0" Volume="11"
				Note Time="161" Value="E3" Duration="3" Instrument="Duty 0" Volume="6"
				Note Time="164" Value="F3" Duration="4" Instrument="Duty 0"
				Note Time="168" Value="F#3" Duration="5" Instrument="Duty 0"
				Note Time="173" Value="G3" Duration="95" Instrument="Duty 0"
				Note Time="188" Volume="5"
				Note Time="204" Volume="4"
				Note Time="220" Volume="3"
				Note Time="236" Volume="2"
				Note Time="252" Volume="1"
			Pattern Name="Pattern 22"
				Note Time="12" Value="F3" Duration="1" Instrument="Duty 0" Volume="5"
				Note Time="13" Value="G#3" Duration="5" Instrument="Duty 0" Volume="3"
				Note Time="15" Volume="2"
				Note Time="18" Value="F3" Duration="1" Instrument="Duty 0" Volume="5"
				Note Time="19" Value="G#3" Duration="5" Instrument="Duty 0" Volume="3"
				Note Time="21" Volume="2"
				Note Time="24" Value="D#3" Duration="1" Instrument="Duty 0" Volume="5"
				Note Time="25" Value="F3" Duration="23" Instrument="Duty 0"
				Note Time="30" Volume="4"
				Note Time="36" Volume="3"
				Note Time="42" Volume="2"
				Note Time="47" Volume="5"
				Note Time="48" Value="G#3" Duration="5" Instrument="Duty 0" Volume="3"
				Note Time="49" Volume="2"
				Note Time="51" Volume="1"
				Note Time="59" Value="G3" Duration="1" Instrument="Duty 0" Volume="3"
				Note Time="60" Value="G#3" Duration="5" Instrument="Duty 0"
				Note Time="61" Volume="2"
				Note Time="63" Volume="1"
				Note Time="71" Value="G3" Duration="1" Instrument="Duty 0" Volume="3"
				Note Time="72" Value="G#3" Duration="5" Instrument="Duty 0"
				Note Time="73" Volume="2"
				Note Time="75" Volume="1"
				Note Time="83" Value="D#3" Duration="1" Instrument="Duty 0" Volume="5"
				Note Time="84" Value="F3" Duration="9" Instrument="Duty 0"
				Note Time="85" Volume="4"
				Note Time="87" Volume="3"
				Note Time="89" Volume="2"
				Note Time="91" Volume="1"
				Note Time="95" Value="G3" Duration="1" Instrument="Duty 0" Volume="3"
				Note Time="96" Value="G#3" Duration="5" Instrument="Duty 0"
				Note Time="97" Volume="2"
				Note Time="99" Volume="1"
				Note Time="107" Value="G3" Duration="1" Instrument="Duty 0" Volume="3"
				Note Time="108" Value="G#3" Duration="5" Instrument="Duty 0"
				Note Time="109" Volume="2"
				Note Time="111" Volume="1"
				Note Time="119" Value="F3" Duration="1" Instrument="Duty 0" Volume="5"
				Note Time="120" Value="G3" Duration="18" Instrument="Duty 0" Volume="3"
				Note Time="134" Volume="2"
				Note Time="136" Volume="1"
				Note Time="143" Value="F3" Duration="1" Instrument="Duty 0" Volume="5"
				Note Time="144" Value="G3" Duration="18" Instrument="Duty 0" Volume="3"
				Note Time="158" Volume="2"
				Note Time="160" Volume="1"
				Note Time="167" Value="F3" Duration="1" Instrument="Duty 0" Volume="5"
				Note Time="168" Value="G3" Duration="18" Instrument="Duty 0" Volume="3"
				Note Time="182" Volume="2"
				Note Time="184" Volume="1"
				Note Time="191" Value="F3" Duration="1" Instrument="Duty 0" Volume="5"
				Note Time="192" Value="G#3" Duration="8" Instrument="Duty 0" Volume="3"
				Note Time="194" Volume="2"
				Note Time="197" Volume="1"
				Note Time="203" Value="G3" Duration="1" Instrument="Duty 0" Volume="3"
				Note Time="204" Value="G#3" Duration="8" Instrument="Duty 0"
				Note Time="206" Volume="2"
				Note Time="209" Volume="1"
				Note Time="215" Value="G3" Duration="1" Instrument="Duty 0" Volume="3"
				Note Time="216" Value="G#3" Duration="8" Instrument="Duty 0"
				Note Time="218" Volume="2"
				Note Time="221" Volume="1"
				Note Time="227" Value="D#3" Duration="1" Instrument="Duty 0" Volume="5"
				Note Time="228" Value="F3" Duration="9" Instrument="Duty 0"
				Note Time="229" Volume="4"
				Note Time="231" Volume="3"
				Note Time="233" Volume="2"
				Note Time="235" Volume="1"
				Note Time="239" Value="G3" Duration="1" Instrument="Duty 0" Volume="3"
				Note Time="240" Value="G#3" Duration="5" Instrument="Duty 0"
				Note Time="241" Volume="2"
				Note Time="243" Volume="1"
				Note Time="251" Value="F3" Duration="1" Instrument="Duty 0" Volume="5"
				Note Time="252" Value="G#3" Duration="5" Instrument="Duty 0" Volume="3"
				Note Time="253" Volume="2"
				Note Time="255" Volume="1"
			Pattern Name="Pattern 23"
				Note Time="7" Value="F3" Duration="1" Instrument="Duty 0" Volume="5"
				Note Time="8" Value="G#3" Duration="5" Instrument="Duty 0" Volume="3"
				Note Time="9" Volume="2"
				Note Time="11" Volume="1"
				Note Time="19" Value="G3" Duration="1" Instrument="Duty 0" Volume="3"
				Note Time="20" Value="G#3" Duration="5" Instrument="Duty 0"
				Note Time="21" Volume="2"
				Note Time="23" Volume="1"
				Note Time="31" Value="G3" Duration="1" Instrument="Duty 0" Volume="3"
				Note Time="32" Value="G#3" Duration="5" Instrument="Duty 0"
				Note Time="33" Volume="2"
				Note Time="35" Volume="1"
				Note Time="43" Value="D#3" Duration="1" Instrument="Duty 0" Volume="5"
				Note Time="44" Value="F3" Duration="9" Instrument="Duty 0"
				Note Time="45" Volume="4"
				Note Time="47" Volume="3"
				Note Time="49" Volume="2"
				Note Time="51" Volume="1"
				Note Time="55" Value="G3" Duration="1" Instrument="Duty 0" Volume="3"
				Note Time="56" Value="G#3" Duration="5" Instrument="Duty 0"
				Note Time="57" Volume="2"
				Note Time="59" Volume="1"
				Note Time="67" Value="G3" Duration="1" Instrument="Duty 0" Volume="3"
				Note Time="68" Value="G#3" Duration="5" Instrument="Duty 0"
				Note Time="69" Volume="2"
				Note Time="71" Volume="1"
				Note Time="79" Value="F3" Duration="1" Instrument="Duty 0" Volume="5"
				Note Time="80" Value="G#3" Duration="5" Instrument="Duty 0" Volume="3"
				Note Time="81" Volume="2"
				Note Time="83" Volume="1"
				Note Time="91" Value="G3" Duration="1" Instrument="Duty 0" Volume="3"
				Note Time="92" Value="G#3" Duration="5" Instrument="Duty 0"
				Note Time="93" Volume="2"
				Note Time="95" Volume="1"
				Note Time="103" Value="G3" Duration="1" Instrument="Duty 0" Volume="3"
				Note Time="104" Value="G#3" Duration="5" Instrument="Duty 0"
				Note Time="105" Volume="2"
				Note Time="107" Volume="1"
				Note Time="115" Value="D#3" Duration="1" Instrument="Duty 0" Volume="5"
				Note Time="116" Value="F3" Duration="9" Instrument="Duty 0"
				Note Time="117" Volume="4"
				Note Time="119" Volume="3"
				Note Time="121" Volume="2"
				Note Time="123" Volume="1"
				Note Time="127" Value="G3" Duration="1" Instrument="Duty 0" Volume="3"
				Note Time="128" Value="G#3" Duration="5" Instrument="Duty 0"
				Note Time="129" Volume="2"
				Note Time="131" Volume="1"
				Note Time="139" Value="G3" Duration="1" Instrument="Duty 0" Volume="3"
				Note Time="140" Value="G#3" Duration="5" Instrument="Duty 0"
				Note Time="141" Volume="2"
				Note Time="143" Volume="1"
				Note Time="151" Value="F3" Duration="1" Instrument="Duty 0" Volume="5"
				Note Time="152" Value="G3" Duration="18" Instrument="Duty 0" Volume="3"
				Note Time="166" Volume="2"
				Note Time="168" Volume="1"
				Note Time="175" Value="F3" Duration="1" Instrument="Duty 0" Volume="5"
				Note Time="176" Value="G3" Duration="18" Instrument="Duty 0" Volume="3"
				Note Time="190" Volume="2"
				Note Time="192" Volume="1"
				Note Time="199" Value="F3" Duration="1" Instrument="Duty 0" Volume="5"
				Note Time="200" Value="G3" Duration="18" Instrument="Duty 0" Volume="3"
				Note Time="214" Volume="2"
				Note Time="216" Volume="1"
				Note Time="223" Value="F3" Duration="1" Instrument="Duty 0" Volume="5"
				Note Time="224" Value="G#3" Duration="8" Instrument="Duty 0" Volume="3"
				Note Time="226" Volume="2"
				Note Time="229" Volume="1"
				Note Time="235" Value="G3" Duration="1" Instrument="Duty 0" Volume="3"
				Note Time="236" Value="G#3" Duration="8" Instrument="Duty 0"
				Note Time="238" Volume="2"
				Note Time="241" Volume="1"
				Note Time="247" Value="G3" Duration="1" Instrument="Duty 0" Volume="3"
				Note Time="248" Value="G#3" Duration="8" Instrument="Duty 0"
				Note Time="250" Volume="2"
				Note Time="253" Volume="1"
			Pattern Name="Pattern 24"
				Note Time="3" Value="D#3" Duration="1" Instrument="Duty 0" Volume="5"
				Note Time="4" Value="F3" Duration="9" Instrument="Duty 0"
				Note Time="5" Volume="4"
				Note Time="7" Volume="3"
				Note Time="9" Volume="2"
				Note Time="11" Volume="1"
				Note Time="15" Value="G3" Duration="1" Instrument="Duty 0" Volume="3"
				Note Time="16" Value="G#3" Duration="5" Instrument="Duty 0"
				Note Time="17" Volume="2"
				Note Time="19" Volume="1"
				Note Time="27" Value="F3" Duration="1" Instrument="Duty 0" Volume="5"
				Note Time="28" Value="G#3" Duration="5" Instrument="Duty 0" Volume="3"
				Note Time="29" Volume="2"
				Note Time="31" Volume="1"
				Note Time="39" Value="F3" Duration="1" Instrument="Duty 0" Volume="5"
				Note Time="40" Value="G#3" Duration="5" Instrument="Duty 0" Volume="3"
				Note Time="41" Volume="2"
				Note Time="43" Volume="1"
				Note Time="51" Value="G3" Duration="1" Instrument="Duty 0" Volume="3"
				Note Time="52" Value="G#3" Duration="5" Instrument="Duty 0"
				Note Time="53" Volume="2"
				Note Time="55" Volume="1"
				Note Time="63" Value="G3" Duration="1" Instrument="Duty 0" Volume="3"
				Note Time="64" Value="G#3" Duration="5" Instrument="Duty 0"
				Note Time="65" Volume="2"
				Note Time="67" Volume="1"
				Note Time="75" Value="D#3" Duration="1" Instrument="Duty 0" Volume="5"
				Note Time="76" Value="F3" Duration="9" Instrument="Duty 0"
				Note Time="77" Volume="4"
				Note Time="79" Volume="3"
				Note Time="81" Volume="2"
				Note Time="83" Volume="1"
				Note Time="87" Value="G3" Duration="1" Instrument="Duty 0" Volume="3"
				Note Time="88" Value="G#3" Duration="5" Instrument="Duty 0"
				Note Time="89" Volume="2"
				Note Time="91" Volume="1"
				Note Time="99" Value="G3" Duration="1" Instrument="Duty 0" Volume="3"
				Note Time="100" Value="G#3" Duration="5" Instrument="Duty 0"
				Note Time="101" Volume="2"
				Note Time="103" Volume="1"
				Note Time="111" Value="F3" Duration="1" Instrument="Duty 0" Volume="5"
				Note Time="112" Value="G#3" Duration="5" Instrument="Duty 0" Volume="3"
				Note Time="113" Volume="2"
				Note Time="115" Volume="1"
				Note Time="123" Value="G3" Duration="1" Instrument="Duty 0" Volume="3"
				Note Time="124" Value="G#3" Duration="5" Instrument="Duty 0"
				Note Time="125" Volume="2"
				Note Time="127" Volume="1"
				Note Time="135" Value="G3" Duration="1" Instrument="Duty 0" Volume="3"
				Note Time="136" Value="G#3" Duration="5" Instrument="Duty 0"
				Note Time="137" Volume="2"
				Note Time="139" Volume="1"
				Note Time="147" Value="D#3" Duration="1" Instrument="Duty 0" Volume="5"
				Note Time="148" Value="F3" Duration="9" Instrument="Duty 0"
				Note Time="149" Volume="4"
				Note Time="151" Volume="3"
				Note Time="153" Volume="2"
				Note Time="155" Volume="1"
				Note Time="159" Value="G3" Duration="1" Instrument="Duty 0" Volume="3"
				Note Time="160" Value="G#3" Duration="5" Instrument="Duty 0"
				Note Time="161" Volume="2"
				Note Time="163" Volume="1"
				Note Time="171" Value="G3" Duration="1" Instrument="Duty 0" Volume="3"
				Note Time="172" Value="G#3" Duration="5" Instrument="Duty 0"
				Note Time="173" Volume="2"
				Note Time="175" Volume="1"
				Note Time="183" Value="F3" Duration="1" Instrument="Duty 0" Volume="5"
				Note Time="184" Value="G3" Duration="18" Instrument="Duty 0" Volume="3"
				Note Time="198" Volume="2"
				Note Time="200" Volume="1"
				Note Time="207" Value="F3" Duration="1" Instrument="Duty 0" Volume="5"
				Note Time="208" Value="G3" Duration="18" Instrument="Duty 0" Volume="3"
				Note Time="222" Volume="2"
				Note Time="224" Volume="1"
				Note Time="231" Value="F3" Duration="1" Instrument="Duty 0" Volume="5"
				Note Time="232" Value="G3" Duration="18" Instrument="Duty 0" Volume="3"
				Note Time="246" Volume="2"
				Note Time="248" Volume="1"
				Note Time="255" Value="F3" Duration="1" Instrument="Duty 0" Volume="5"
			Pattern Name="Pattern 25"
				Note Time="0" Value="G#3" Duration="8" Instrument="Duty 0" Volume="3"
				Note Time="2" Volume="2"
				Note Time="5" Volume="1"
				Note Time="11" Value="G3" Duration="1" Instrument="Duty 0" Volume="3"
				Note Time="12" Value="G#3" Duration="8" Instrument="Duty 0"
				Note Time="14" Volume="2"
				Note Time="17" Volume="1"
				Note Time="23" Value="G3" Duration="1" Instrument="Duty 0" Volume="3"
				Note Time="24" Value="G#3" Duration="8" Instrument="Duty 0"
				Note Time="26" Volume="2"
				Note Time="29" Volume="1"
				Note Time="35" Value="D#3" Duration="1" Instrument="Duty 0" Volume="5"
				Note Time="36" Value="F3" Duration="9" Instrument="Duty 0"
				Note Time="37" Volume="4"
				Note Time="39" Volume="3"
				Note Time="41" Volume="2"
				Note Time="43" Volume="1"
				Note Time="47" Value="G3" Duration="1" Instrument="Duty 0" Volume="3"
				Note Time="48" Value="G#3" Duration="5" Instrument="Duty 0"
				Note Time="49" Volume="2"
				Note Time="51" Volume="1"
				Note Time="59" Value="F3" Duration="1" Instrument="Duty 0" Volume="5"
				Note Time="60" Value="G#3" Duration="5" Instrument="Duty 0" Volume="3"
				Note Time="61" Volume="2"
				Note Time="63" Volume="1"
				Note Time="71" Value="F3" Duration="1" Instrument="Duty 0" Volume="5"
				Note Time="72" Value="G#3" Duration="5" Instrument="Duty 0" Volume="3"
				Note Time="73" Volume="2"
				Note Time="75" Volume="1"
				Note Time="83" Value="G3" Duration="1" Instrument="Duty 0" Volume="3"
				Note Time="84" Value="G#3" Duration="5" Instrument="Duty 0"
				Note Time="85" Volume="2"
				Note Time="87" Volume="1"
				Note Time="95" Value="G3" Duration="1" Instrument="Duty 0" Volume="3"
				Note Time="96" Value="G#3" Duration="5" Instrument="Duty 0"
				Note Time="97" Volume="2"
				Note Time="99" Volume="1"
				Note Time="107" Value="D#3" Duration="1" Instrument="Duty 0" Volume="5"
				Note Time="108" Value="F3" Duration="9" Instrument="Duty 0"
				Note Time="109" Volume="4"
				Note Time="111" Volume="3"
				Note Time="113" Volume="2"
				Note Time="115" Volume="1"
				Note Time="119" Value="G3" Duration="1" Instrument="Duty 0" Volume="3"
				Note Time="120" Value="G#3" Duration="5" Instrument="Duty 0"
				Note Time="121" Volume="2"
				Note Time="123" Volume="1"
				Note Time="131" Value="G3" Duration="1" Instrument="Duty 0" Volume="3"
				Note Time="132" Value="G#3" Duration="5" Instrument="Duty 0"
				Note Time="133" Volume="2"
				Note Time="135" Volume="1"
				Note Time="143" Value="F3" Duration="1" Instrument="Duty 0" Volume="5"
				Note Time="144" Value="G#3" Duration="5" Instrument="Duty 0" Volume="3"
				Note Time="145" Volume="2"
				Note Time="147" Volume="1"
				Note Time="155" Value="G3" Duration="1" Instrument="Duty 0" Volume="3"
				Note Time="156" Value="G#3" Duration="5" Instrument="Duty 0"
				Note Time="157" Volume="2"
				Note Time="159" Volume="1"
				Note Time="167" Value="G3" Duration="1" Instrument="Duty 0" Volume="3"
				Note Time="168" Value="G#3" Duration="5" Instrument="Duty 0"
				Note Time="169" Volume="2"
				Note Time="171" Volume="1"
				Note Time="179" Value="D#3" Duration="1" Instrument="Duty 0" Volume="5"
				Note Time="180" Value="F3" Duration="9" Instrument="Duty 0"
				Note Time="181" Volume="4"
				Note Time="183" Volume="3"
				Note Time="185" Volume="2"
				Note Time="187" Volume="1"
				Note Time="191" Value="G3" Duration="1" Instrument="Duty 0" Volume="3"
				Note Time="192" Value="G#3" Duration="5" Instrument="Duty 0"
				Note Time="193" Volume="2"
				Note Time="195" Volume="1"
				Note Time="203" Value="G3" Duration="1" Instrument="Duty 0" Volume="3"
				Note Time="204" Value="G#3" Duration="5" Instrument="Duty 0"
				Note Time="205" Volume="2"
				Note Time="207" Volume="1"
				Note Time="215" Value="F3" Duration="1" Instrument="Duty 0" Volume="5"
				Note Time="216" Value="G3" Duration="18" Instrument="Duty 0" Volume="3"
				Note Time="230" Volume="2"
				Note Time="232" Volume="1"
				Note Time="239" Value="F3" Duration="1" Instrument="Duty 0" Volume="5"
				Note Time="240" Value="G3" Duration="18" Instrument="Duty 0" Volume="3"
				Note Time="254" Volume="2"
			Pattern Name="Pattern 26"
				Note Time="0" Volume="1"
				Note Time="7" Value="F3" Duration="1" Instrument="Duty 0" Volume="5"
				Note Time="8" Value="G3" Duration="18" Instrument="Duty 0" Volume="3"
				Note Time="22" Volume="2"
				Note Time="24" Volume="1"
				Note Time="31" Value="F3" Duration="1" Instrument="Duty 0" Volume="5"
				Note Time="32" Value="G#3" Duration="8" Instrument="Duty 0" Volume="3"
				Note Time="34" Volume="2"
				Note Time="37" Volume="1"
				Note Time="43" Value="G3" Duration="1" Instrument="Duty 0" Volume="3"
				Note Time="44" Value="G#3" Duration="8" Instrument="Duty 0"
				Note Time="46" Volume="2"
				Note Time="49" Volume="1"
				Note Time="55" Value="G3" Duration="1" Instrument="Duty 0" Volume="3"
				Note Time="56" Value="G#3" Duration="8" Instrument="Duty 0"
				Note Time="58" Volume="2"
				Note Time="61" Volume="1"
				Note Time="67" Value="D#3" Duration="1" Instrument="Duty 0" Volume="5"
				Note Time="68" Value="F3" Duration="9" Instrument="Duty 0"
				Note Time="69" Volume="4"
				Note Time="71" Volume="3"
				Note Time="73" Volume="2"
				Note Time="75" Volume="1"
				Note Time="79" Value="G3" Duration="1" Instrument="Duty 0" Volume="3"
				Note Time="80" Value="G#3" Duration="5" Instrument="Duty 0"
				Note Time="81" Volume="2"
				Note Time="83" Volume="1"
				Note Time="91" Value="F3" Duration="1" Instrument="Duty 0" Volume="5"
				Note Time="92" Value="G#3" Duration="5" Instrument="Duty 0" Volume="3"
				Note Time="93" Volume="2"
				Note Time="95" Volume="1"
				Note Time="103" Value="F3" Duration="1" Instrument="Duty 0" Volume="5"
				Note Time="104" Value="G#3" Duration="5" Instrument="Duty 0" Volume="3"
				Note Time="105" Volume="2"
				Note Time="107" Volume="1"
				Note Time="115" Value="G3" Duration="1" Instrument="Duty 0" Volume="3"
				Note Time="116" Value="G#3" Duration="5" Instrument="Duty 0"
				Note Time="117" Volume="2"
				Note Time="119" Volume="1"
				Note Time="127" Value="G3" Duration="1" Instrument="Duty 0" Volume="3"
				Note Time="128" Value="G#3" Duration="5" Instrument="Duty 0"
				Note Time="129" Volume="2"
				Note Time="131" Volume="1"
				Note Time="139" Value="D#3" Duration="1" Instrument="Duty 0" Volume="5"
				Note Time="140" Value="F3" Duration="9" Instrument="Duty 0"
				Note Time="141" Volume="4"
				Note Time="143" Volume="3"
				Note Time="145" Volume="2"
				Note Time="147" Volume="1"
				Note Time="151" Value="G3" Duration="1" Instrument="Duty 0" Volume="3"
				Note Time="152" Value="G#3" Duration="5" Instrument="Duty 0"
				Note Time="153" Volume="2"
				Note Time="155" Volume="1"
				Note Time="163" Value="G3" Duration="1" Instrument="Duty 0" Volume="3"
				Note Time="164" Value="G#3" Duration="5" Instrument="Duty 0"
				Note Time="165" Volume="2"
				Note Time="167" Volume="1"
				Note Time="175" Value="F3" Duration="1" Instrument="Duty 0" Volume="5"
				Note Time="176" Value="G#3" Duration="5" Instrument="Duty 0" Volume="3"
				Note Time="177" Volume="2"
				Note Time="179" Volume="1"
				Note Time="187" Value="G3" Duration="1" Instrument="Duty 0" Volume="3"
				Note Time="188" Value="G#3" Duration="5" Instrument="Duty 0"
				Note Time="189" Volume="2"
				Note Time="191" Volume="1"
				Note Time="199" Value="G3" Duration="1" Instrument="Duty 0" Volume="3"
				Note Time="200" Value="G#3" Duration="5" Instrument="Duty 0"
				Note Time="201" Volume="2"
				Note Time="203" Volume="1"
				Note Time="211" Value="D#3" Duration="1" Instrument="Duty 0" Volume="5"
				Note Time="212" Value="F3" Duration="9" Instrument="Duty 0"
				Note Time="213" Volume="4"
				Note Time="215" Volume="3"
				Note Time="217" Volume="2"
				Note Time="219" Volume="1"
				Note Time="223" Value="G3" Duration="1" Instrument="Duty 0" Volume="3"
				Note Time="224" Value="G#3" Duration="5" Instrument="Duty 0"
				Note Time="225" Volume="2"
				Note Time="227" Volume="1"
				Note Time="235" Value="G3" Duration="1" Instrument="Duty 0" Volume="3"
				Note Time="236" Value="G#3" Duration="5" Instrument="Duty 0"
				Note Time="237" Volume="2"
				Note Time="239" Volume="1"
				Note Time="247" Value="F3" Duration="1" Instrument="Duty 0" Volume="5"
				Note Time="248" Value="G3" Duration="18" Instrument="Duty 0" Volume="3"
			Pattern Name="Pattern 27"
				Note Time="6" Volume="2"
				Note Time="8" Volume="1"
				Note Time="15" Value="F3" Duration="1" Instrument="Duty 0" Volume="5"
				Note Time="16" Value="G3" Duration="18" Instrument="Duty 0" Volume="3"
				Note Time="30" Volume="2"
				Note Time="32" Volume="1"
				Note Time="39" Value="F3" Duration="1" Instrument="Duty 0" Volume="5"
				Note Time="40" Value="G3" Duration="18" Instrument="Duty 0" Volume="3"
				Note Time="54" Volume="2"
				Note Time="56" Volume="1"
				Note Time="63" Value="F3" Duration="1" Instrument="Duty 0" Volume="5"
				Note Time="64" Value="G#3" Duration="8" Instrument="Duty 0" Volume="3"
				Note Time="66" Volume="2"
				Note Time="69" Volume="1"
				Note Time="75" Value="G3" Duration="1" Instrument="Duty 0" Volume="3"
				Note Time="76" Value="G#3" Duration="8" Instrument="Duty 0"
				Note Time="78" Volume="2"
				Note Time="81" Volume="1"
				Note Time="87" Value="G3" Duration="1" Instrument="Duty 0" Volume="3"
				Note Time="88" Value="G#3" Duration="8" Instrument="Duty 0"
				Note Time="90" Volume="2"
				Note Time="93" Volume="1"
				Note Time="99" Value="D#3" Duration="1" Instrument="Duty 0" Volume="5"
				Note Time="100" Value="F3" Duration="9" Instrument="Duty 0"
				Note Time="101" Volume="4"
				Note Time="103" Volume="3"
				Note Time="105" Volume="2"
				Note Time="107" Volume="1"
				Note Time="111" Value="G3" Duration="1" Instrument="Duty 0" Volume="3"
				Note Time="112" Value="G#3" Duration="5" Instrument="Duty 0"
				Note Time="113" Volume="2"
				Note Time="115" Volume="1"
				Note Time="123" Value="F3" Duration="1" Instrument="Duty 0" Volume="5"
				Note Time="124" Value="G#3" Duration="5" Instrument="Duty 0" Volume="3"
				Note Time="125" Volume="2"
				Note Time="127" Volume="1"
				Note Time="135" Value="F3" Duration="1" Instrument="Duty 0" Volume="5"
				Note Time="136" Value="G#3" Duration="5" Instrument="Duty 0" Volume="3"
				Note Time="137" Volume="2"
				Note Time="139" Volume="1"
				Note Time="147" Value="G3" Duration="1" Instrument="Duty 0" Volume="3"
				Note Time="148" Value="G#3" Duration="5" Instrument="Duty 0"
				Note Time="149" Volume="2"
				Note Time="151" Volume="1"
				Note Time="159" Value="G3" Duration="1" Instrument="Duty 0" Volume="3"
				Note Time="160" Value="G#3" Duration="5" Instrument="Duty 0"
				Note Time="161" Volume="2"
				Note Time="163" Volume="1"
				Note Time="171" Value="D#3" Duration="1" Instrument="Duty 0" Volume="5"
				Note Time="172" Value="F3" Duration="9" Instrument="Duty 0"
				Note Time="173" Volume="4"
				Note Time="175" Volume="3"
				Note Time="177" Volume="2"
				Note Time="179" Volume="1"
				Note Time="183" Value="G3" Duration="1" Instrument="Duty 0" Volume="3"
				Note Time="184" Value="G#3" Duration="5" Instrument="Duty 0"
				Note Time="185" Volume="2"
				Note Time="187" Volume="1"
				Note Time="195" Value="G3" Duration="1" Instrument="Duty 0" Volume="3"
				Note Time="196" Value="G#3" Duration="5" Instrument="Duty 0"
				Note Time="197" Volume="2"
				Note Time="199" Volume="1"
				Note Time="207" Value="F3" Duration="1" Instrument="Duty 0" Volume="5"
				Note Time="208" Value="G#3" Duration="5" Instrument="Duty 0" Volume="3"
				Note Time="209" Volume="2"
				Note Time="211" Volume="1"
				Note Time="219" Value="G3" Duration="1" Instrument="Duty 0" Volume="3"
				Note Time="220" Value="G#3" Duration="5" Instrument="Duty 0"
				Note Time="221" Volume="2"
				Note Time="223" Volume="1"
				Note Time="231" Value="G3" Duration="1" Instrument="Duty 0" Volume="3"
				Note Time="232" Value="G#3" Duration="5" Instrument="Duty 0"
				Note Time="233" Volume="2"
				Note Time="235" Volume="1"
				Note Time="243" Value="D#3" Duration="1" Instrument="Duty 0" Volume="5"
				Note Time="244" Value="F3" Duration="9" Instrument="Duty 0"
				Note Time="245" Volume="4"
				Note Time="247" Volume="3"
				Note Time="249" Volume="2"
				Note Time="251" Volume="1"
				Note Time="255" Value="G3" Duration="1" Instrument="Duty 0" Volume="3"
			Pattern Name="Pattern 28"
				Note Time="0" Value="G#3" Duration="5" Instrument="Duty 0"
				Note Time="1" Volume="2"
				Note Time="3" Volume="1"
				Note Time="11" Value="G3" Duration="1" Instrument="Duty 0" Volume="3"
				Note Time="12" Value="G#3" Duration="5" Instrument="Duty 0"
				Note Time="13" Volume="2"
				Note Time="15" Volume="1"
				Note Time="23" Value="F3" Duration="1" Instrument="Duty 0" Volume="5"
				Note Time="24" Value="G3" Duration="18" Instrument="Duty 0" Volume="3"
				Note Time="38" Volume="2"
				Note Time="40" Volume="1"
				Note Time="47" Value="F3" Duration="1" Instrument="Duty 0" Volume="5"
				Note Time="48" Value="G3" Duration="18" Instrument="Duty 0" Volume="3"
				Note Time="62" Volume="2"
				Note Time="64" Volume="1"
				Note Time="71" Value="F3" Duration="1" Instrument="Duty 0" Volume="5"
				Note Time="72" Value="G3" Duration="18" Instrument="Duty 0" Volume="3"
				Note Time="86" Volume="2"
				Note Time="88" Volume="1"
				Note Time="95" Value="F3" Duration="1" Instrument="Duty 0" Volume="5"
				Note Time="96" Value="G#3" Duration="8" Instrument="Duty 0" Volume="3"
				Note Time="98" Volume="2"
				Note Time="101" Volume="1"
				Note Time="107" Value="G3" Duration="1" Instrument="Duty 0" Volume="3"
				Note Time="108" Value="G#3" Duration="8" Instrument="Duty 0"
				Note Time="110" Volume="2"
				Note Time="113" Volume="1"
				Note Time="119" Value="G3" Duration="1" Instrument="Duty 0" Volume="3"
				Note Time="120" Value="G#3" Duration="8" Instrument="Duty 0"
				Note Time="122" Volume="2"
				Note Time="125" Volume="1"
				Note Time="131" Value="D#3" Duration="1" Instrument="Duty 0" Volume="5"
				Note Time="132" Value="F3" Duration="9" Instrument="Duty 0"
				Note Time="133" Volume="4"
				Note Time="135" Volume="3"
				Note Time="137" Volume="2"
				Note Time="139" Volume="1"
				Note Time="143" Value="G3" Duration="1" Instrument="Duty 0" Volume="3"
				Note Time="144" Value="G#3" Duration="5" Instrument="Duty 0"
				Note Time="145" Volume="2"
				Note Time="147" Volume="1"
				Note Time="155" Value="F3" Duration="1" Instrument="Duty 0" Volume="5"
				Note Time="156" Value="G#3" Duration="5" Instrument="Duty 0" Volume="3"
				Note Time="157" Volume="2"
				Note Time="159" Volume="1"
				Note Time="167" Value="F3" Duration="1" Instrument="Duty 0" Volume="5"
				Note Time="168" Value="G#3" Duration="5" Instrument="Duty 0" Volume="3"
				Note Time="169" Volume="2"
				Note Time="171" Volume="1"
				Note Time="179" Value="G3" Duration="1" Instrument="Duty 0" Volume="3"
				Note Time="180" Value="G#3" Duration="5" Instrument="Duty 0"
				Note Time="181" Volume="2"
				Note Time="183" Volume="1"
				Note Time="191" Value="G3" Duration="1" Instrument="Duty 0" Volume="3"
				Note Time="192" Value="G#3" Duration="5" Instrument="Duty 0"
				Note Time="193" Volume="2"
				Note Time="195" Volume="1"
				Note Time="203" Value="D#3" Duration="1" Instrument="Duty 0" Volume="5"
				Note Time="204" Value="F3" Duration="9" Instrument="Duty 0"
				Note Time="205" Volume="4"
				Note Time="207" Volume="3"
				Note Time="209" Volume="2"
				Note Time="211" Volume="1"
				Note Time="215" Value="G3" Duration="1" Instrument="Duty 0" Volume="3"
				Note Time="216" Value="G#3" Duration="5" Instrument="Duty 0"
				Note Time="217" Volume="2"
				Note Time="219" Volume="1"
				Note Time="227" Value="G3" Duration="1" Instrument="Duty 0" Volume="3"
				Note Time="228" Value="G#3" Duration="5" Instrument="Duty 0"
				Note Time="229" Volume="2"
				Note Time="231" Volume="1"
				Note Time="239" Value="F3" Duration="1" Instrument="Duty 0" Volume="5"
				Note Time="240" Value="G#3" Duration="5" Instrument="Duty 0" Volume="3"
				Note Time="241" Volume="2"
				Note Time="243" Volume="1"
				Note Time="251" Value="G3" Duration="1" Instrument="Duty 0" Volume="3"
				Note Time="252" Value="G#3" Duration="5" Instrument="Duty 0"
				Note Time="253" Volume="2"
				Note Time="255" Volume="1"
			Pattern Name="Pattern 29"
				Note Time="7" Value="G3" Duration="1" Instrument="Duty 0" Volume="3"
				Note Time="8" Value="G#3" Duration="5" Instrument="Duty 0"
				Note Time="9" Volume="2"
				Note Time="11" Volume="1"
				Note Time="19" Value="D#3" Duration="1" Instrument="Duty 0" Volume="5"
				Note Time="20" Value="F3" Duration="9" Instrument="Duty 0"
				Note Time="21" Volume="4"
				Note Time="23" Volume="3"
				Note Time="25" Volume="2"
				Note Time="27" Volume="1"
				Note Time="31" Value="G3" Duration="1" Instrument="Duty 0" Volume="3"
				Note Time="32" Value="G#3" Duration="5" Instrument="Duty 0"
				Note Time="33" Volume="2"
				Note Time="35" Volume="1"
				Note Time="43" Value="G3" Duration="1" Instrument="Duty 0" Volume="3"
				Note Time="44" Value="G#3" Duration="5" Instrument="Duty 0"
				Note Time="45" Volume="2"
				Note Time="47" Volume="1"
				Note Time="55" Value="F3" Duration="1" Instrument="Duty 0" Volume="5"
				Note Time="56" Value="G3" Duration="18" Instrument="Duty 0" Volume="3"
				Note Time="70" Volume="2"
				Note Time="72" Volume="1"
				Note Time="79" Value="F3" Duration="1" Instrument="Duty 0" Volume="5"
				Note Time="80" Value="G3" Duration="18" Instrument="Duty 0" Volume="3"
				Note Time="94" Volume="2"
				Note Time="96" Volume="1"
				Note Time="103" Value="F3" Duration="1" Instrument="Duty 0" Volume="5"
				Note Time="104" Value="G3" Duration="18" Instrument="Duty 0" Volume="3"
				Note Time="118" Volume="2"
				Note Time="120" Volume="1"
				Note Time="127" Value="F3" Duration="1" Instrument="Duty 0" Volume="5"
				Note Time="128" Value="G#3" Duration="8" Instrument="Duty 0" Volume="3"
				Note Time="130" Volume="2"
				Note Time="133" Volume="1"
				Note Time="139" Value="G3" Duration="1" Instrument="Duty 0" Volume="3"
				Note Time="140" Value="G#3" Duration="8" Instrument="Duty 0"
				Note Time="142" Volume="2"
				Note Time="145" Volume="1"
				Note Time="151" Value="G3" Duration="1" Instrument="Duty 0" Volume="3"
				Note Time="152" Value="G#3" Duration="8" Instrument="Duty 0"
				Note Time="154" Volume="2"
				Note Time="157" Volume="1"
				Note Time="163" Value="D#3" Duration="1" Instrument="Duty 0" Volume="5"
				Note Time="164" Value="F3" Duration="9" Instrument="Duty 0"
				Note Time="165" Volume="4"
				Note Time="167" Volume="3"
				Note Time="169" Volume="2"
				Note Time="171" Volume="1"
				Note Time="175" Value="G3" Duration="1" Instrument="Duty 0" Volume="3"
				Note Time="176" Value="G#3" Duration="5" Instrument="Duty 0"
				Note Time="177" Volume="2"
				Note Time="179" Volume="1"
				Note Time="187" Value="F3" Duration="1" Instrument="Duty 0" Volume="5"
				Note Time="188" Value="G#3" Duration="5" Instrument="Duty 0" Volume="3"
				Note Time="189" Volume="2"
				Note Time="191" Volume="1"
				Note Time="199" Value="F3" Duration="1" Instrument="Duty 0" Volume="5"
				Note Time="200" Value="G#3" Duration="5" Instrument="Duty 0" Volume="3"
				Note Time="201" Volume="2"
				Note Time="203" Volume="1"
				Note Time="211" Value="G3" Duration="1" Instrument="Duty 0" Volume="3"
				Note Time="212" Value="G#3" Duration="5" Instrument="Duty 0"
				Note Time="213" Volume="2"
				Note Time="215" Volume="1"
				Note Time="223" Value="G3" Duration="1" Instrument="Duty 0" Volume="3"
				Note Time="224" Value="G#3" Duration="5" Instrument="Duty 0"
				Note Time="225" Volume="2"
				Note Time="227" Volume="1"
				Note Time="235" Value="D#3" Duration="1" Instrument="Duty 0" Volume="5"
				Note Time="236" Value="F3" Duration="9" Instrument="Duty 0"
				Note Time="237" Volume="4"
				Note Time="239" Volume="3"
				Note Time="241" Volume="2"
				Note Time="243" Volume="1"
				Note Time="247" Value="G3" Duration="1" Instrument="Duty 0" Volume="3"
				Note Time="248" Value="G#3" Duration="5" Instrument="Duty 0"
				Note Time="249" Volume="2"
				Note Time="251" Volume="1"
			Pattern Name="Pattern 30"
				Note Time="3" Value="G3" Duration="1" Instrument="Duty 0" Volume="3"
				Note Time="4" Value="G#3" Duration="5" Instrument="Duty 0"
				Note Time="5" Volume="2"
				Note Time="7" Volume="1"
				Note Time="15" Value="F3" Duration="1" Instrument="Duty 0" Volume="5"
				Note Time="16" Value="G#3" Duration="5" Instrument="Duty 0" Volume="3"
				Note Time="17" Volume="2"
				Note Time="19" Volume="1"
				Note Time="27" Value="G3" Duration="1" Instrument="Duty 0" Volume="3"
				Note Time="28" Value="G#3" Duration="5" Instrument="Duty 0"
				Note Time="29" Volume="2"
				Note Time="31" Volume="1"
				Note Time="39" Value="G3" Duration="1" Instrument="Duty 0" Volume="3"
				Note Time="40" Value="G#3" Duration="5" Instrument="Duty 0"
				Note Time="41" Volume="2"
				Note Time="43" Volume="1"
				Note Time="51" Value="D#3" Duration="1" Instrument="Duty 0" Volume="5"
				Note Time="52" Value="F3" Duration="9" Instrument="Duty 0"
				Note Time="53" Volume="4"
				Note Time="55" Volume="3"
				Note Time="57" Volume="2"
				Note Time="59" Volume="1"
				Note Time="63" Value="G3" Duration="1" Instrument="Duty 0" Volume="3"
				Note Time="64" Value="G#3" Duration="5" Instrument="Duty 0"
				Note Time="65" Volume="2"
				Note Time="67" Volume="1"
				Note Time="75" Value="G3" Duration="1" Instrument="Duty 0" Volume="3"
				Note Time="76" Value="G#3" Duration="5" Instrument="Duty 0"
				Note Time="77" Volume="2"
				Note Time="79" Volume="1"
				Note Time="87" Value="F3" Duration="1" Instrument="Duty 0" Volume="5"
				Note Time="88" Value="G3" Duration="18" Instrument="Duty 0" Volume="3"
				Note Time="102" Volume="2"
				Note Time="104" Volume="1"
				Note Time="111" Value="F3" Duration="1" Instrument="Duty 0" Volume="5"
				Note Time="112" Value="G3" Duration="18" Instrument="Duty 0" Volume="3"
				Note Time="126" Volume="2"
				Note Time="128" Volume="1"
				Note Time="135" Value="F3" Duration="1" Instrument="Duty 0" Volume="5"
				Note Time="136" Value="G3" Duration="18" Instrument="Duty 0" Volume="3"
				Note Time="150" Volume="2"
				Note Time="152" Volume="1"
				Note Time="159" Value="F3" Duration="1" Instrument="Duty 0" Volume="5"
				Note Time="160" Value="G#3" Duration="8" Instrument="Duty 0" Volume="3"
				Note Time="162" Volume="2"
				Note Time="165" Volume="1"
				Note Time="171" Value="G3" Duration="1" Instrument="Duty 0" Volume="3"
				Note Time="172" Value="G#3" Duration="8" Instrument="Duty 0"
				Note Time="174" Volume="2"
				Note Time="177" Volume="1"
				Note Time="183" Value="G3" Duration="1" Instrument="Duty 0" Volume="3"
				Note Time="184" Value="G#3" Duration="8" Instrument="Duty 0"
				Note Time="186" Volume="2"
				Note Time="189" Volume="1"
				Note Time="195" Value="D#3" Duration="1" Instrument="Duty 0" Volume="5"
				Note Time="196" Value="F3" Duration="9" Instrument="Duty 0"
				Note Time="197" Volume="4"
				Note Time="199" Volume="3"
				Note Time="201" Volume="2"
				Note Time="203" Volume="1"
				Note Time="207" Value="G3" Duration="1" Instrument="Duty 0" Volume="3"
				Note Time="208" Value="G#3" Duration="5" Instrument="Duty 0"
				Note Time="209" Volume="2"
				Note Time="211" Volume="1"
				Note Time="219" Value="F3" Duration="1" Instrument="Duty 0" Volume="5"
				Note Time="220" Value="G#3" Duration="5" Instrument="Duty 0" Volume="3"
				Note Time="221" Volume="2"
				Note Time="223" Volume="1"
				Note Time="231" Value="F3" Duration="1" Instrument="Duty 0" Volume="5"
				Note Time="232" Value="G#3" Duration="5" Instrument="Duty 0" Volume="3"
				Note Time="233" Volume="2"
				Note Time="235" Volume="1"
				Note Time="243" Value="G3" Duration="1" Instrument="Duty 0" Volume="3"
				Note Time="244" Value="G#3" Duration="5" Instrument="Duty 0"
				Note Time="245" Volume="2"
				Note Time="247" Volume="1"
				Note Time="255" Value="G3" Duration="1" Instrument="Duty 0" Volume="3"
			Pattern Name="Pattern 31"
				Note Time="0" Value="G#3" Duration="5" Instrument="Duty 0"
				Note Time="1" Volume="2"
				Note Time="3" Volume="1"
				Note Time="11" Value="D#3" Duration="1" Instrument="Duty 0" Volume="5"
				Note Time="12" Value="F3" Duration="9" Instrument="Duty 0"
				Note Time="13" Volume="4"
				Note Time="15" Volume="3"
				Note Time="17" Volume="2"
				Note Time="19" Volume="1"
				Note Time="23" Value="G3" Duration="1" Instrument="Duty 0" Volume="3"
				Note Time="24" Value="G#3" Duration="5" Instrument="Duty 0"
				Note Time="25" Volume="2"
				Note Time="27" Volume="1"
				Note Time="35" Value="G3" Duration="1" Instrument="Duty 0" Volume="3"
				Note Time="36" Value="G#3" Duration="5" Instrument="Duty 0"
				Note Time="37" Volume="2"
				Note Time="39" Volume="1"
				Note Time="47" Value="F3" Duration="1" Instrument="Duty 0" Volume="5"
				Note Time="48" Value="G#3" Duration="3" Instrument="Duty 0" Volume="3"
				Note Time="49" Volume="2"
				Note Time="50" Volume="1"
				Note Time="59" Value="G3" Duration="1" Instrument="Duty 0" Volume="3"
				Note Time="60" Value="G#3" Duration="3" Instrument="Duty 0"
				Note Time="61" Volume="2"
				Note Time="62" Volume="1"
				Note Time="65" Value="G3" Duration="1" Instrument="Duty 0" Volume="3"
				Note Time="66" Value="G#3" Duration="3" Instrument="Duty 0"
				Note Time="67" Volume="2"
				Note Time="68" Volume="1"
				Note Time="71" Value="G3" Duration="1" Instrument="Duty 0" Volume="3"
				Note Time="72" Value="F3" Duration="3" Instrument="Duty 0"
				Note Time="73" Volume="2"
				Note Time="74" Volume="1"
				Note Time="83" Value="D#3" Duration="1" Instrument="Duty 0" Volume="5"
				Note Time="84" Value="F3" Duration="9" Instrument="Duty 0"
				Note Time="85" Volume="4"
				Note Time="87" Volume="3"
				Note Time="89" Volume="2"
				Note Time="91" Volume="1"
				Note Time="95" Value="G3" Duration="1" Instrument="Duty 0" Volume="3"
				Note Time="96" Value="G#3" Duration="3" Instrument="Duty 0"
				Note Time="97" Volume="2"
				Note Time="98" Volume="1"
				Note Time="101" Value="G3" Duration="1" Instrument="Duty 0" Volume="3"
				Note Time="102" Value="G#3" Duration="3" Instrument="Duty 0"
				Note Time="103" Volume="2"
				Note Time="104" Volume="1"
				Note Time="107" Value="F3" Duration="1" Instrument="Duty 0" Volume="5"
				Note Time="108" Value="G#3" Duration="3" Instrument="Duty 0" Volume="3"
				Note Time="109" Volume="2"
				Note Time="110" Volume="1"
				Note Time="119" Value="F3" Duration="1" Instrument="Duty 0" Volume="5"
				Note Time="120" Value="G#3" Duration="3" Instrument="Duty 0" Volume="3"
				Note Time="121" Volume="2"
				Note Time="122" Volume="1"
				Note Time="131" Value="G3" Duration="1" Instrument="Duty 0" Volume="3"
				Note Time="132" Value="G#3" Duration="3" Instrument="Duty 0"
				Note Time="133" Volume="2"
				Note Time="134" Volume="1"
				Note Time="137" Value="G3" Duration="1" Instrument="Duty 0" Volume="3"
				Note Time="138" Value="G#3" Duration="3" Instrument="Duty 0"
				Note Time="139" Volume="2"
				Note Time="140" Volume="1"
				Note Time="143" Value="G3" Duration="1" Instrument="Duty 0" Volume="3"
				Note Time="144" Value="F3" Duration="3" Instrument="Duty 0"
				Note Time="145" Volume="2"
				Note Time="146" Volume="1"
				Note Time="155" Value="D#3" Duration="1" Instrument="Duty 0" Volume="5"
				Note Time="156" Value="F3" Duration="9" Instrument="Duty 0"
				Note Time="157" Volume="4"
				Note Time="159" Volume="3"
				Note Time="161" Volume="2"
				Note Time="163" Volume="1"
				Note Time="167" Value="D#3" Duration="1" Instrument="Duty 0" Volume="5"
				Note Time="168" Value="F3" Duration="5" Instrument="Duty 0"
				Note Time="169" Volume="4"
				Note Time="171" Volume="3"
				Note Time="173" Value="D#3" Duration="1" Instrument="Duty 0" Volume="5"
				Note Time="174" Value="F3" Duration="9" Instrument="Duty 0"
				Note Time="175" Volume="4"
				Note Time="177" Volume="3"
				Note Time="179" Volume="2"
				Note Time="181" Volume="1"
				Note Time="185" Value="D#3" Duration="1" Instrument="Duty 0" Volume="5"
				Note Time="186" Value="F3" Duration="6" Instrument="Duty 0"
				Note Time="187" Volume="4"
				Note Time="189" Volume="3"
				Note Time="191" Volume="5"
				Note Time="192" Value="G#3" Duration="3" Instrument="Duty 0" Volume="3"
				Note Time="193" Volume="2"
				Note Time="194" Volume="1"
				Note Time="203" Value="G3" Duration="1" Instrument="Duty 0" Volume="3"
				Note Time="204" Value="G#3" Duration="3" Instrument="Duty 0"
				Note Time="205" Volume="2"
				Note Time="206" Volume="1"
				Note Time="209" Value="G3" Duration="1" Instrument="Duty 0" Volume="3"
				Note Time="210" Value="G#3" Duration="3" Instrument="Duty 0"
				Note Time="211" Volume="2"
				Note Time="212" Volume="1"
				Note Time="215" Value="G3" Duration="1" Instrument="Duty 0" Volume="3"
				Note Time="216" Value="F3" Duration="3" Instrument="Duty 0"
				Note Time="217" Volume="2"
				Note Time="218" Volume="1"
				Note Time="227" Value="D#3" Duration="1" Instrument="Duty 0" Volume="5"
				Note Time="228" Value="F3" Duration="9" Instrument="Duty 0"
				Note Time="229" Volume="4"
				Note Time="231" Volume="3"
				Note Time="233" Volume="2"
				Note Time="235" Volume="1"
				Note Time="239" Value="G3" Duration="1" Instrument="Duty 0" Volume="3"
				Note Time="240" Value="G#3" Duration="3" Instrument="Duty 0"
				Note Time="241" Volume="2"
				Note Time="242" Volume="1"
				Note Time="245" Value="G3" Duration="1" Instrument="Duty 0" Volume="3"
				Note Time="246" Value="G#3" Duration="3" Instrument="Duty 0"
				Note Time="247" Volume="2"
				Note Time="248" Volume="1"
				Note Time="251" Value="F3" Duration="1" Instrument="Duty 0" Volume="5"
				Note Time="252" Value="G#3" Duration="3" Instrument="Duty 0" Volume="3"
				Note Time="253" Volume="2"
				Note Time="254" Volume="1"
			Pattern Name="Pattern 32"
				Note Time="7" Value="F3" Duration="1" Instrument="Duty 0" Volume="5"
				Note Time="8" Value="G#3" Duration="3" Instrument="Duty 0" Volume="3"
				Note Time="9" Volume="2"
				Note Time="10" Volume="1"
				Note Time="19" Value="G3" Duration="1" Instrument="Duty 0" Volume="3"
				Note Time="20" Value="G#3" Duration="3" Instrument="Duty 0"
				Note Time="21" Volume="2"
				Note Time="22" Volume="1"
				Note Time="25" Value="G3" Duration="1" Instrument="Duty 0" Volume="3"
				Note Time="26" Value="G#3" Duration="3" Instrument="Duty 0"
				Note Time="27" Volume="2"
				Note Time="28" Volume="1"
				Note Time="31" Value="G3" Duration="1" Instrument="Duty 0" Volume="3"
				Note Time="32" Value="F3" Duration="3" Instrument="Duty 0"
				Note Time="33" Volume="2"
				Note Time="34" Volume="1"
				Note Time="43" Value="D#3" Duration="1" Instrument="Duty 0" Volume="5"
				Note Time="44" Value="F3" Duration="9" Instrument="Duty 0"
				Note Time="45" Volume="4"
				Note Time="47" Volume="3"
				Note Time="49" Volume="2"
				Note Time="51" Volume="1"
				Note Time="55" Value="D#3" Duration="1" Instrument="Duty 0" Volume="5"
				Note Time="56" Value="F3" Duration="5" Instrument="Duty 0"
				Note Time="57" Volume="4"
				Note Time="59" Volume="3"
				Note Time="61" Value="D#3" Duration="1" Instrument="Duty 0" Volume="5"
				Note Time="62" Value="F3" Duration="9" Instrument="Duty 0"
				Note Time="63" Volume="4"
				Note Time="65" Volume="3"
				Note Time="67" Volume="2"
				Note Time="69" Volume="1"
				Note Time="73" Value="D#3" Duration="1" Instrument="Duty 0" Volume="5"
				Note Time="74" Value="F3" Duration="6" Instrument="Duty 0"
				Note Time="75" Volume="4"
				Note Time="77" Volume="3"
				Note Time="79" Volume="5"
				Note Time="80" Value="G#3" Duration="3" Instrument="Duty 0" Volume="3"
				Note Time="81" Volume="2"
				Note Time="82" Volume="1"
				Note Time="91" Value="G3" Duration="1" Instrument="Duty 0" Volume="3"
				Note Time="92" Value="G#3" Duration="3" Instrument="Duty 0"
				Note Time="93" Volume="2"
				Note Time="94" Volume="1"
				Note Time="97" Value="G3" Duration="1" Instrument="Duty 0" Volume="3"
				Note Time="98" Value="G#3" Duration="3" Instrument="Duty 0"
				Note Time="99" Volume="2"
				Note Time="100" Volume="1"
				Note Time="103" Value="G3" Duration="1" Instrument="Duty 0" Volume="3"
				Note Time="104" Value="F3" Duration="3" Instrument="Duty 0"
				Note Time="105" Volume="2"
				Note Time="106" Volume="1"
				Note Time="115" Value="D#3" Duration="1" Instrument="Duty 0" Volume="5"
				Note Time="116" Value="F3" Duration="9" Instrument="Duty 0"
				Note Time="117" Volume="4"
				Note Time="119" Volume="3"
				Note Time="121" Volume="2"
				Note Time="123" Volume="1"
				Note Time="127" Value="G3" Duration="1" Instrument="Duty 0" Volume="3"
				Note Time="128" Value="G#3" Duration="3" Instrument="Duty 0"
				Note Time="129" Volume="2"
				Note Time="130" Volume="1"
				Note Time="133" Value="G3" Duration="1" Instrument="Duty 0" Volume="3"
				Note Time="134" Value="G#3" Duration="3" Instrument="Duty 0"
				Note Time="135" Volume="2"
				Note Time="136" Volume="1"
				Note Time="139" Value="F3" Duration="1" Instrument="Duty 0" Volume="5"
				Note Time="140" Value="G#3" Duration="3" Instrument="Duty 0" Volume="3"
				Note Time="141" Volume="2"
				Note Time="142" Volume="1"
				Note Time="151" Value="F3" Duration="1" Instrument="Duty 0" Volume="5"
				Note Time="152" Value="G#3" Duration="3" Instrument="Duty 0" Volume="3"
				Note Time="153" Volume="2"
				Note Time="154" Volume="1"
				Note Time="163" Value="G3" Duration="1" Instrument="Duty 0" Volume="3"
				Note Time="164" Value="G#3" Duration="3" Instrument="Duty 0"
				Note Time="165" Volume="2"
				Note Time="166" Volume="1"
				Note Time="169" Value="G3" Duration="1" Instrument="Duty 0" Volume="3"
				Note Time="170" Value="G#3" Duration="3" Instrument="Duty 0"
				Note Time="171" Volume="2"
				Note Time="172" Volume="1"
				Note Time="175" Value="G3" Duration="1" Instrument="Duty 0" Volume="3"
				Note Time="176" Value="F3" Duration="3" Instrument="Duty 0"
				Note Time="177" Volume="2"
				Note Time="178" Volume="1"
				Note Time="187" Value="D#3" Duration="1" Instrument="Duty 0" Volume="5"
				Note Time="188" Value="F3" Duration="9" Instrument="Duty 0"
				Note Time="189" Volume="4"
				Note Time="191" Volume="3"
				Note Time="193" Volume="2"
				Note Time="195" Volume="1"
				Note Time="199" Value="D#3" Duration="1" Instrument="Duty 0" Volume="5"
				Note Time="200" Value="F3" Duration="5" Instrument="Duty 0"
				Note Time="201" Volume="4"
				Note Time="203" Volume="3"
				Note Time="205" Value="D#3" Duration="1" Instrument="Duty 0" Volume="5"
				Note Time="206" Value="F3" Duration="9" Instrument="Duty 0"
				Note Time="207" Volume="4"
				Note Time="209" Volume="3"
				Note Time="211" Volume="2"
				Note Time="213" Volume="1"
				Note Time="217" Value="D#3" Duration="1" Instrument="Duty 0" Volume="5"
				Note Time="218" Value="F3" Duration="6" Instrument="Duty 0"
				Note Time="219" Volume="4"
				Note Time="221" Volume="3"
				Note Time="223" Volume="5"
				Note Time="224" Value="G#3" Duration="3" Instrument="Duty 0" Volume="3"
				Note Time="225" Volume="2"
				Note Time="226" Volume="1"
				Note Time="235" Value="G3" Duration="1" Instrument="Duty 0" Volume="3"
				Note Time="236" Value="G#3" Duration="3" Instrument="Duty 0"
				Note Time="237" Volume="2"
				Note Time="238" Volume="1"
				Note Time="241" Value="G3" Duration="1" Instrument="Duty 0" Volume="3"
				Note Time="242" Value="G#3" Duration="3" Instrument="Duty 0"
				Note Time="243" Volume="2"
				Note Time="244" Volume="1"
				Note Time="247" Value="G3" Duration="1" Instrument="Duty 0" Volume="3"
				Note Time="248" Value="F3" Duration="3" Instrument="Duty 0"
				Note Time="249" Volume="2"
				Note Time="250" Volume="1"
			Pattern Name="Pattern 33"
				Note Time="3" Value="D#3" Duration="1" Instrument="Duty 0" Volume="5"
				Note Time="4" Value="F3" Duration="9" Instrument="Duty 0"
				Note Time="5" Volume="4"
				Note Time="7" Volume="3"
				Note Time="9" Volume="2"
				Note Time="11" Volume="1"
				Note Time="15" Value="G3" Duration="1" Instrument="Duty 0" Volume="3"
				Note Time="16" Value="G#3" Duration="3" Instrument="Duty 0"
				Note Time="17" Volume="2"
				Note Time="18" Volume="1"
				Note Time="21" Value="G3" Duration="1" Instrument="Duty 0" Volume="3"
				Note Time="22" Value="G#3" Duration="3" Instrument="Duty 0"
				Note Time="23" Volume="2"
				Note Time="24" Volume="1"
				Note Time="27" Value="F3" Duration="1" Instrument="Duty 0" Volume="5"
				Note Time="28" Value="G#3" Duration="3" Instrument="Duty 0" Volume="3"
				Note Time="29" Volume="2"
				Note Time="30" Volume="1"
				Note Time="39" Value="F3" Duration="1" Instrument="Duty 0" Volume="5"
				Note Time="40" Value="G#3" Duration="3" Instrument="Duty 0" Volume="3"
				Note Time="41" Volume="2"
				Note Time="42" Volume="1"
				Note Time="51" Value="G3" Duration="1" Instrument="Duty 0" Volume="3"
				Note Time="52" Value="G#3" Duration="3" Instrument="Duty 0"
				Note Time="53" Volume="2"
				Note Time="54" Volume="1"
				Note Time="57" Value="G3" Duration="1" Instrument="Duty 0" Volume="3"
				Note Time="58" Value="G#3" Duration="3" Instrument="Duty 0"
				Note Time="59" Volume="2"
				Note Time="60" Volume="1"
				Note Time="63" Value="G3" Duration="1" Instrument="Duty 0" Volume="3"
				Note Time="64" Value="F3" Duration="3" Instrument="Duty 0"
				Note Time="65" Volume="2"
				Note Time="66" Volume="1"
				Note Time="75" Value="D#3" Duration="1" Instrument="Duty 0" Volume="5"
				Note Time="76" Value="F3" Duration="9" Instrument="Duty 0"
				Note Time="77" Volume="4"
				Note Time="79" Volume="3"
				Note Time="81" Volume="2"
				Note Time="83" Volume="1"
				Note Time="87" Value="D#3" Duration="1" Instrument="Duty 0" Volume="5"
				Note Time="88" Value="F3" Duration="5" Instrument="Duty 0"
				Note Time="89" Volume="4"
				Note Time="91" Volume="3"
				Note Time="93" Value="D#3" Duration="1" Instrument="Duty 0" Volume="5"
				Note Time="94" Value="F3" Duration="9" Instrument="Duty 0"
				Note Time="95" Volume="4"
				Note Time="97" Volume="3"
				Note Time="99" Volume="2"
				Note Time="101" Volume="1"
				Note Time="105" Value="D#3" Duration="1" Instrument="Duty 0" Volume="5"
				Note Time="106" Value="F3" Duration="6" Instrument="Duty 0"
				Note Time="107" Volume="4"
				Note Time="109" Volume="3"
				Note Time="111" Volume="5"
				Note Time="112" Value="G#3" Duration="3" Instrument="Duty 0" Volume="3"
				Note Time="113" Volume="2"
				Note Time="114" Volume="1"
				Note Time="123" Value="G3" Duration="1" Instrument="Duty 0" Volume="3"
				Note Time="124" Value="G#3" Duration="3" Instrument="Duty 0"
				Note Time="125" Volume="2"
				Note Time="126" Volume="1"
				Note Time="129" Value="G3" Duration="1" Instrument="Duty 0" Volume="3"
				Note Time="130" Value="G#3" Duration="3" Instrument="Duty 0"
				Note Time="131" Volume="2"
				Note Time="132" Volume="1"
				Note Time="135" Value="G3" Duration="1" Instrument="Duty 0" Volume="3"
				Note Time="136" Value="F3" Duration="3" Instrument="Duty 0"
				Note Time="137" Volume="2"
				Note Time="138" Volume="1"
				Note Time="147" Value="D#3" Duration="1" Instrument="Duty 0" Volume="5"
				Note Time="148" Value="F3" Duration="9" Instrument="Duty 0"
				Note Time="149" Volume="4"
				Note Time="151" Volume="3"
				Note Time="153" Volume="2"
				Note Time="155" Volume="1"
				Note Time="159" Value="G3" Duration="1" Instrument="Duty 0" Volume="3"
				Note Time="160" Value="G#3" Duration="3" Instrument="Duty 0"
				Note Time="161" Volume="2"
				Note Time="162" Volume="1"
				Note Time="165" Value="G3" Duration="1" Instrument="Duty 0" Volume="3"
				Note Time="166" Value="G#3" Duration="3" Instrument="Duty 0"
				Note Time="167" Volume="2"
				Note Time="168" Volume="1"
				Note Time="171" Value="F3" Duration="1" Instrument="Duty 0" Volume="5"
				Note Time="172" Value="G#3" Duration="3" Instrument="Duty 0" Volume="3"
				Note Time="173" Volume="2"
				Note Time="174" Volume="1"
				Note Time="183" Value="F3" Duration="1" Instrument="Duty 0" Volume="5"
				Note Time="184" Value="G#3" Duration="3" Instrument="Duty 0" Volume="3"
				Note Time="185" Volume="2"
				Note Time="186" Volume="1"
				Note Time="195" Value="G3" Duration="1" Instrument="Duty 0" Volume="3"
				Note Time="196" Value="G#3" Duration="3" Instrument="Duty 0"
				Note Time="197" Volume="2"
				Note Time="198" Volume="1"
				Note Time="201" Value="G3" Duration="1" Instrument="Duty 0" Volume="3"
				Note Time="202" Value="G#3" Duration="3" Instrument="Duty 0"
				Note Time="203" Volume="2"
				Note Time="204" Volume="1"
				Note Time="207" Value="G3" Duration="1" Instrument="Duty 0" Volume="3"
				Note Time="208" Value="F3" Duration="3" Instrument="Duty 0"
				Note Time="209" Volume="2"
				Note Time="210" Volume="1"
				Note Time="219" Value="D#3" Duration="1" Instrument="Duty 0" Volume="5"
				Note Time="220" Value="F3" Duration="9" Instrument="Duty 0"
				Note Time="221" Volume="4"
				Note Time="223" Volume="3"
				Note Time="225" Volume="2"
				Note Time="227" Volume="1"
				Note Time="231" Value="D#3" Duration="1" Instrument="Duty 0" Volume="5"
				Note Time="232" Value="F3" Duration="5" Instrument="Duty 0"
				Note Time="233" Volume="4"
				Note Time="235" Volume="3"
				Note Time="237" Value="D#3" Duration="1" Instrument="Duty 0" Volume="5"
				Note Time="238" Value="F3" Duration="9" Instrument="Duty 0"
				Note Time="239" Volume="4"
				Note Time="241" Volume="3"
				Note Time="243" Volume="2"
				Note Time="245" Volume="1"
				Note Time="249" Value="D#3" Duration="1" Instrument="Duty 0" Volume="5"
				Note Time="250" Value="F3" Duration="6" Instrument="Duty 0"
				Note Time="251" Volume="4"
				Note Time="253" Volume="3"
				Note Time="255" Volume="5"
			Pattern Name="Pattern 34"
				Note Time="0" Value="G#3" Duration="3" Instrument="Duty 0" Volume="3"
				Note Time="1" Volume="2"
				Note Time="2" Volume="1"
				Note Time="11" Value="G3" Duration="1" Instrument="Duty 0" Volume="3"
				Note Time="12" Value="G#3" Duration="3" Instrument="Duty 0"
				Note Time="13" Volume="2"
				Note Time="14" Volume="1"
				Note Time="17" Value="G3" Duration="1" Instrument="Duty 0" Volume="3"
				Note Time="18" Value="G#3" Duration="3" Instrument="Duty 0"
				Note Time="19" Volume="2"
				Note Time="20" Volume="1"
				Note Time="23" Value="G3" Duration="1" Instrument="Duty 0" Volume="3"
				Note Time="24" Value="F3" Duration="3" Instrument="Duty 0"
				Note Time="25" Volume="2"
				Note Time="26" Volume="1"
				Note Time="35" Value="D#3" Duration="1" Instrument="Duty 0" Volume="5"
				Note Time="36" Value="F3" Duration="9" Instrument="Duty 0"
				Note Time="37" Volume="4"
				Note Time="39" Volume="3"
				Note Time="41" Volume="2"
				Note Time="43" Volume="1"
				Note Time="47" Value="G3" Duration="1" Instrument="Duty 0" Volume="3"
				Note Time="48" Value="G#3" Duration="3" Instrument="Duty 0"
				Note Time="49" Volume="2"
				Note Time="50" Volume="1"
				Note Time="53" Value="G3" Duration="1" Instrument="Duty 0" Volume="3"
				Note Time="54" Value="G#3" Duration="3" Instrument="Duty 0"
				Note Time="55" Volume="2"
				Note Time="56" Volume="1"
				Note Time="59" Value="F3" Duration="1" Instrument="Duty 0" Volume="5"
				Note Time="60" Value="G#3" Duration="3" Instrument="Duty 0" Volume="3"
				Note Time="61" Volume="2"
				Note Time="62" Volume="1"
				Note Time="71" Value="F3" Duration="1" Instrument="Duty 0" Volume="5"
				Note Time="72" Value="G#3" Duration="3" Instrument="Duty 0" Volume="3"
				Note Time="73" Volume="2"
				Note Time="74" Volume="1"
				Note Time="83" Value="G3" Duration="1" Instrument="Duty 0" Volume="3"
				Note Time="84" Value="G#3" Duration="3" Instrument="Duty 0"
				Note Time="85" Volume="2"
				Note Time="86" Volume="1"
				Note Time="89" Value="G3" Duration="1" Instrument="Duty 0" Volume="3"
				Note Time="90" Value="G#3" Duration="3" Instrument="Duty 0"
				Note Time="91" Volume="2"
				Note Time="92" Volume="1"
				Note Time="95" Value="G3" Duration="1" Instrument="Duty 0" Volume="3"
				Note Time="96" Value="F3" Duration="3" Instrument="Duty 0"
				Note Time="97" Volume="2"
				Note Time="98" Volume="1"
				Note Time="107" Value="D#3" Duration="1" Instrument="Duty 0" Volume="5"
				Note Time="108" Value="F3" Duration="9" Instrument="Duty 0"
				Note Time="109" Volume="4"
				Note Time="111" Volume="3"
				Note Time="113" Volume="2"
				Note Time="115" Volume="1"
				Note Time="119" Value="D#3" Duration="1" Instrument="Duty 0" Volume="5"
				Note Time="120" Value="F3" Duration="5" Instrument="Duty 0"
				Note Time="121" Volume="4"
				Note Time="123" Volume="3"
				Note Time="125" Value="D#3" Duration="1" Instrument="Duty 0" Volume="5"
				Note Time="126" Value="F3" Duration="9" Instrument="Duty 0"
				Note Time="127" Volume="4"
				Note Time="129" Volume="3"
				Note Time="131" Volume="2"
				Note Time="133" Volume="1"
				Note Time="137" Value="D#3" Duration="1" Instrument="Duty 0" Volume="5"
				Note Time="138" Value="F3" Duration="6" Instrument="Duty 0"
				Note Time="139" Volume="4"
				Note Time="141" Volume="3"
				Note Time="143" Volume="5"
				Note Time="144" Value="G#3" Duration="3" Instrument="Duty 0" Volume="3"
				Note Time="145" Volume="2"
				Note Time="146" Volume="1"
				Note Time="155" Value="G3" Duration="1" Instrument="Duty 0" Volume="3"
				Note Time="156" Value="G#3" Duration="3" Instrument="Duty 0"
				Note Time="157" Volume="2"
				Note Time="158" Volume="1"
				Note Time="161" Value="G3" Duration="1" Instrument="Duty 0" Volume="3"
				Note Time="162" Value="G#3" Duration="3" Instrument="Duty 0"
				Note Time="163" Volume="2"
				Note Time="164" Volume="1"
				Note Time="167" Value="G3" Duration="1" Instrument="Duty 0" Volume="3"
				Note Time="168" Value="F3" Duration="3" Instrument="Duty 0"
				Note Time="169" Volume="2"
				Note Time="170" Volume="1"
				Note Time="179" Value="D#3" Duration="1" Instrument="Duty 0" Volume="5"
				Note Time="180" Value="F3" Duration="9" Instrument="Duty 0"
				Note Time="181" Volume="4"
				Note Time="183" Volume="3"
				Note Time="185" Volume="2"
				Note Time="187" Volume="1"
				Note Time="191" Value="G3" Duration="1" Instrument="Duty 0" Volume="3"
				Note Time="192" Value="G#3" Duration="3" Instrument="Duty 0"
				Note Time="193" Volume="2"
				Note Time="194" Volume="1"
				Note Time="197" Value="G3" Duration="1" Instrument="Duty 0" Volume="3"
				Note Time="198" Value="G#3" Duration="3" Instrument="Duty 0"
				Note Time="199" Volume="2"
				Note Time="200" Volume="1"
				Note Time="203" Value="F3" Duration="1" Instrument="Duty 0" Volume="5"
				Note Time="204" Value="G#3" Duration="3" Instrument="Duty 0" Volume="3"
				Note Time="205" Volume="2"
				Note Time="206" Volume="1"
				Note Time="215" Value="F3" Duration="1" Instrument="Duty 0" Volume="5"
				Note Time="216" Value="G#3" Duration="3" Instrument="Duty 0" Volume="3"
				Note Time="217" Volume="2"
				Note Time="218" Volume="1"
				Note Time="227" Value="G3" Duration="1" Instrument="Duty 0" Volume="3"
				Note Time="228" Value="G#3" Duration="3" Instrument="Duty 0"
				Note Time="229" Volume="2"
				Note Time="230" Volume="1"
				Note Time="233" Value="G3" Duration="1" Instrument="Duty 0" Volume="3"
				Note Time="234" Value="G#3" Duration="3" Instrument="Duty 0"
				Note Time="235" Volume="2"
				Note Time="236" Volume="1"
				Note Time="239" Value="G3" Duration="1" Instrument="Duty 0" Volume="3"
				Note Time="240" Value="F3" Duration="3" Instrument="Duty 0"
				Note Time="241" Volume="2"
				Note Time="242" Volume="1"
				Note Time="251" Value="D#3" Duration="1" Instrument="Duty 0" Volume="5"
				Note Time="252" Value="F3" Duration="9" Instrument="Duty 0"
				Note Time="253" Volume="4"
				Note Time="255" Volume="3"
			Pattern Name="Pattern 35"
				Note Time="1" Volume="2"
				Note Time="3" Volume="1"
				Note Time="7" Value="D#3" Duration="1" Instrument="Duty 0" Volume="5"
				Note Time="8" Value="F3" Duration="5" Instrument="Duty 0"
				Note Time="9" Volume="4"
				Note Time="11" Volume="3"
				Note Time="13" Value="D#3" Duration="1" Instrument="Duty 0" Volume="5"
				Note Time="14" Value="F3" Duration="9" Instrument="Duty 0"
				Note Time="15" Volume="4"
				Note Time="17" Volume="3"
				Note Time="19" Volume="2"
				Note Time="21" Volume="1"
				Note Time="25" Value="D#3" Duration="1" Instrument="Duty 0" Volume="5"
				Note Time="26" Value="F3" Duration="6" Instrument="Duty 0"
				Note Time="27" Volume="4"
				Note Time="29" Volume="3"
				Note Time="31" Volume="5"
				Note Time="32" Value="G#3" Duration="3" Instrument="Duty 0" Volume="3"
				Note Time="33" Volume="2"
				Note Time="34" Volume="1"
				Note Time="43" Value="G3" Duration="1" Instrument="Duty 0" Volume="3"
				Note Time="44" Value="G#3" Duration="3" Instrument="Duty 0"
				Note Time="45" Volume="2"
				Note Time="46" Volume="1"
				Note Time="49" Value="G3" Duration="1" Instrument="Duty 0" Volume="3"
				Note Time="50" Value="G#3" Duration="3" Instrument="Duty 0"
				Note Time="51" Volume="2"
				Note Time="52" Volume="1"
				Note Time="55" Value="G3" Duration="1" Instrument="Duty 0" Volume="3"
				Note Time="56" Value="F3" Duration="3" Instrument="Duty 0"
				Note Time="57" Volume="2"
				Note Time="58" Volume="1"
				Note Time="67" Value="D#3" Duration="1" Instrument="Duty 0" Volume="5"
				Note Time="68" Value="F3" Duration="9" Instrument="Duty 0"
				Note Time="69" Volume="4"
				Note Time="71" Volume="3"
				Note Time="73" Volume="2"
				Note Time="75" Volume="1"
				Note Time="79" Value="G3" Duration="1" Instrument="Duty 0" Volume="3"
				Note Time="80" Value="G#3" Duration="3" Instrument="Duty 0"
				Note Time="81" Volume="2"
				Note Time="82" Volume="1"
				Note Time="85" Value="G3" Duration="1" Instrument="Duty 0" Volume="3"
				Note Time="86" Value="G#3" Duration="3" Instrument="Duty 0"
				Note Time="87" Volume="2"
				Note Time="88" Volume="1"
				Note Time="91" Value="F3" Duration="1" Instrument="Duty 0" Volume="5"
				Note Time="92" Value="G#3" Duration="3" Instrument="Duty 0" Volume="3"
				Note Time="93" Volume="2"
				Note Time="94" Volume="1"
				Note Time="103" Value="F3" Duration="1" Instrument="Duty 0" Volume="5"
				Note Time="104" Value="G#3" Duration="3" Instrument="Duty 0" Volume="3"
				Note Time="105" Volume="2"
				Note Time="106" Volume="1"
				Note Time="115" Value="G3" Duration="1" Instrument="Duty 0" Volume="3"
				Note Time="116" Value="G#3" Duration="3" Instrument="Duty 0"
				Note Time="117" Volume="2"
				Note Time="118" Volume="1"
				Note Time="121" Value="G3" Duration="1" Instrument="Duty 0" Volume="3"
				Note Time="122" Value="G#3" Duration="3" Instrument="Duty 0"
				Note Time="123" Volume="2"
				Note Time="124" Volume="1"
				Note Time="127" Value="G3" Duration="1" Instrument="Duty 0" Volume="3"
				Note Time="128" Value="F3" Duration="3" Instrument="Duty 0"
				Note Time="129" Volume="2"
				Note Time="130" Volume="1"
				Note Time="139" Value="D#3" Duration="1" Instrument="Duty 0" Volume="5"
				Note Time="140" Value="F3" Duration="9" Instrument="Duty 0"
				Note Time="141" Volume="4"
				Note Time="143" Volume="3"
				Note Time="145" Volume="2"
				Note Time="147" Volume="1"
				Note Time="151" Value="D#3" Duration="1" Instrument="Duty 0" Volume="5"
				Note Time="152" Value="F3" Duration="5" Instrument="Duty 0"
				Note Time="153" Volume="4"
				Note Time="155" Volume="3"
				Note Time="157" Value="D#3" Duration="1" Instrument="Duty 0" Volume="5"
				Note Time="158" Value="F3" Duration="9" Instrument="Duty 0"
				Note Time="159" Volume="4"
				Note Time="161" Volume="3"
				Note Time="163" Volume="2"
				Note Time="165" Volume="1"
				Note Time="169" Value="D#3" Duration="1" Instrument="Duty 0" Volume="5"
				Note Time="170" Value="F3" Duration="6" Instrument="Duty 0"
				Note Time="171" Volume="4"
				Note Time="173" Volume="3"
				Note Time="175" Volume="5"
				Note Time="176" Value="G#3" Duration="3" Instrument="Duty 0" Volume="3"
				Note Time="177" Volume="2"
				Note Time="178" Volume="1"
				Note Time="187" Value="G3" Duration="1" Instrument="Duty 0" Volume="3"
				Note Time="188" Value="G#3" Duration="3" Instrument="Duty 0"
				Note Time="189" Volume="2"
				Note Time="190" Volume="1"
				Note Time="193" Value="G3" Duration="1" Instrument="Duty 0" Volume="3"
				Note Time="194" Value="G#3" Duration="3" Instrument="Duty 0"
				Note Time="195" Volume="2"
				Note Time="196" Volume="1"
				Note Time="199" Value="G3" Duration="1" Instrument="Duty 0" Volume="3"
				Note Time="200" Value="F3" Duration="3" Instrument="Duty 0"
				Note Time="201" Volume="2"
				Note Time="202" Volume="1"
				Note Time="211" Value="D#3" Duration="1" Instrument="Duty 0" Volume="5"
				Note Time="212" Value="F3" Duration="9" Instrument="Duty 0"
				Note Time="213" Volume="4"
				Note Time="215" Volume="3"
				Note Time="217" Volume="2"
				Note Time="219" Volume="1"
				Note Time="223" Value="G3" Duration="1" Instrument="Duty 0" Volume="3"
				Note Time="224" Value="G#3" Duration="3" Instrument="Duty 0"
				Note Time="225" Volume="2"
				Note Time="226" Volume="1"
				Note Time="229" Value="G3" Duration="1" Instrument="Duty 0" Volume="3"
				Note Time="230" Value="G#3" Duration="3" Instrument="Duty 0"
				Note Time="231" Volume="2"
				Note Time="232" Volume="1"
				Note Time="235" Value="F3" Duration="1" Instrument="Duty 0" Volume="5"
				Note Time="236" Value="G#3" Duration="3" Instrument="Duty 0" Volume="3"
				Note Time="237" Volume="2"
				Note Time="238" Volume="1"
				Note Time="247" Value="F3" Duration="1" Instrument="Duty 0" Volume="5"
				Note Time="248" Value="G#3" Duration="3" Instrument="Duty 0" Volume="3"
				Note Time="249" Volume="2"
				Note Time="250" Volume="1"
			Pattern Name="Pattern 36"
				Note Time="3" Value="G3" Duration="1" Instrument="Duty 0" Volume="3"
				Note Time="4" Value="G#3" Duration="3" Instrument="Duty 0"
				Note Time="5" Volume="2"
				Note Time="6" Volume="1"
				Note Time="9" Value="G3" Duration="1" Instrument="Duty 0" Volume="3"
				Note Time="10" Value="G#3" Duration="3" Instrument="Duty 0"
				Note Time="11" Volume="2"
				Note Time="12" Volume="1"
				Note Time="15" Value="G3" Duration="1" Instrument="Duty 0" Volume="3"
				Note Time="16" Value="F3" Duration="3" Instrument="Duty 0"
				Note Time="17" Volume="2"
				Note Time="18" Volume="1"
				Note Time="27" Value="D#3" Duration="1" Instrument="Duty 0" Volume="5"
				Note Time="28" Value="F3" Duration="9" Instrument="Duty 0"
				Note Time="29" Volume="4"
				Note Time="31" Volume="3"
				Note Time="33" Volume="2"
				Note Time="35" Volume="1"
				Note Time="39" Value="D#3" Duration="1" Instrument="Duty 0" Volume="5"
				Note Time="40" Value="F3" Duration="5" Instrument="Duty 0"
				Note Time="41" Volume="4"
				Note Time="43" Volume="3"
				Note Time="45" Value="D#3" Duration="1" Instrument="Duty 0" Volume="5"
				Note Time="46" Value="F3" Duration="9" Instrument="Duty 0"
				Note Time="47" Volume="4"
				Note Time="49" Volume="3"
				Note Time="51" Volume="2"
				Note Time="53" Volume="1"
				Note Time="57" Value="D#3" Duration="1" Instrument="Duty 0" Volume="5"
				Note Time="58" Value="F3" Duration="6" Instrument="Duty 0"
				Note Time="59" Volume="4"
				Note Time="61" Volume="3"
				Note Time="63" Volume="5"
				Note Time="64" Value="G#3" Duration="3" Instrument="Duty 0" Volume="3"
				Note Time="65" Volume="2"
				Note Time="66" Volume="1"
				Note Time="75" Value="G3" Duration="1" Instrument="Duty 0" Volume="3"
				Note Time="76" Value="G#3" Duration="3" Instrument="Duty 0"
				Note Time="77" Volume="2"
				Note Time="78" Volume="1"
				Note Time="81" Value="G3" Duration="1" Instrument="Duty 0" Volume="3"
				Note Time="82" Value="G#3" Duration="3" Instrument="Duty 0"
				Note Time="83" Volume="2"
				Note Time="84" Volume="1"
				Note Time="87" Value="G3" Duration="1" Instrument="Duty 0" Volume="3"
				Note Time="88" Value="F3" Duration="3" Instrument="Duty 0"
				Note Time="89" Volume="2"
				Note Time="90" Volume="1"
				Note Time="99" Value="D#3" Duration="1" Instrument="Duty 0" Volume="5"
				Note Time="100" Value="F3" Duration="9" Instrument="Duty 0"
				Note Time="101" Volume="4"
				Note Time="103" Volume="3"
				Note Time="105" Volume="2"
				Note Time="107" Volume="1"
				Note Time="111" Value="G3" Duration="1" Instrument="Duty 0" Volume="3"
				Note Time="112" Value="G#3" Duration="3" Instrument="Duty 0"
				Note Time="113" Volume="2"
				Note Time="114" Volume="1"
				Note Time="117" Value="G3" Duration="1" Instrument="Duty 0" Volume="3"
				Note Time="118" Value="G#3" Duration="3" Instrument="Duty 0"
				Note Time="119" Volume="2"
				Note Time="120" Volume="1"
				Note Time="123" Value="F3" Duration="1" Instrument="Duty 0" Volume="5"
				Note Time="124" Value="G#3" Duration="3" Instrument="Duty 0" Volume="3"
				Note Time="125" Volume="2"
				Note Time="126" Volume="1"
				Note Time="135" Value="F3" Duration="1" Instrument="Duty 0" Volume="5"
				Note Time="136" Value="G#3" Duration="3" Instrument="Duty 0" Volume="3"
				Note Time="137" Volume="2"
				Note Time="138" Volume="1"
				Note Time="147" Value="G3" Duration="1" Instrument="Duty 0" Volume="3"
				Note Time="148" Value="G#3" Duration="3" Instrument="Duty 0"
				Note Time="149" Volume="2"
				Note Time="150" Volume="1"
				Note Time="153" Value="G3" Duration="1" Instrument="Duty 0" Volume="3"
				Note Time="154" Value="G#3" Duration="3" Instrument="Duty 0"
				Note Time="155" Volume="2"
				Note Time="156" Volume="1"
				Note Time="159" Value="G3" Duration="1" Instrument="Duty 0" Volume="3"
				Note Time="160" Value="F3" Duration="3" Instrument="Duty 0"
				Note Time="161" Volume="2"
				Note Time="162" Volume="1"
				Note Time="171" Value="D#3" Duration="1" Instrument="Duty 0" Volume="5"
				Note Time="172" Value="F3" Duration="9" Instrument="Duty 0"
				Note Time="173" Volume="4"
				Note Time="175" Volume="3"
				Note Time="177" Volume="2"
				Note Time="179" Volume="1"
				Note Time="183" Value="D#3" Duration="1" Instrument="Duty 0" Volume="5"
				Note Time="184" Value="F3" Duration="5" Instrument="Duty 0"
				Note Time="185" Volume="4"
				Note Time="187" Volume="3"
				Note Time="189" Value="D#3" Duration="1" Instrument="Duty 0" Volume="5"
				Note Time="190" Value="F3" Duration="9" Instrument="Duty 0"
				Note Time="191" Volume="4"
				Note Time="193" Volume="3"
				Note Time="195" Volume="2"
				Note Time="197" Volume="1"
				Note Time="201" Value="D#3" Duration="1" Instrument="Duty 0" Volume="5"
				Note Time="202" Value="F3" Duration="6" Instrument="Duty 0"
				Note Time="203" Volume="4"
				Note Time="205" Volume="3"
				Note Time="207" Volume="5"
				Note Time="208" Value="G#3" Duration="3" Instrument="Duty 0" Volume="3"
				Note Time="209" Volume="2"
				Note Time="210" Volume="1"
				Note Time="219" Value="G3" Duration="1" Instrument="Duty 0" Volume="3"
				Note Time="220" Value="G#3" Duration="3" Instrument="Duty 0"
				Note Time="221" Volume="2"
				Note Time="222" Volume="1"
				Note Time="225" Value="G3" Duration="1" Instrument="Duty 0" Volume="3"
				Note Time="226" Value="G#3" Duration="3" Instrument="Duty 0"
				Note Time="227" Volume="2"
				Note Time="228" Volume="1"
				Note Time="231" Value="G3" Duration="1" Instrument="Duty 0" Volume="3"
				Note Time="232" Value="F3" Duration="3" Instrument="Duty 0"
				Note Time="233" Volume="2"
				Note Time="234" Volume="1"
				Note Time="243" Value="D#3" Duration="1" Instrument="Duty 0" Volume="5"
				Note Time="244" Value="F3" Duration="9" Instrument="Duty 0"
				Note Time="245" Volume="4"
				Note Time="247" Volume="3"
				Note Time="249" Volume="2"
				Note Time="251" Volume="1"
				Note Time="255" Value="G3" Duration="1" Instrument="Duty 0" Volume="3"
			Pattern Name="Pattern 37"
				Note Time="0" Value="G#3" Duration="3" Instrument="Duty 0"
				Note Time="1" Volume="2"
				Note Time="2" Volume="1"
				Note Time="5" Value="G3" Duration="1" Instrument="Duty 0" Volume="3"
				Note Time="6" Value="G#3" Duration="3" Instrument="Duty 0"
				Note Time="7" Volume="2"
				Note Time="8" Volume="1"
				Note Time="11" Value="F3" Duration="1" Instrument="Duty 0" Volume="5"
				Note Time="12" Value="G#3" Duration="3" Instrument="Duty 0" Volume="3"
				Note Time="13" Volume="2"
				Note Time="14" Volume="1"
				Note Time="23" Value="F3" Duration="1" Instrument="Duty 0" Volume="5"
				Note Time="24" Value="G#3" Duration="3" Instrument="Duty 0" Volume="3"
				Note Time="25" Volume="2"
				Note Time="26" Volume="1"
				Note Time="35" Value="G3" Duration="1" Instrument="Duty 0" Volume="3"
				Note Time="36" Value="G#3" Duration="3" Instrument="Duty 0"
				Note Time="37" Volume="2"
				Note Time="38" Volume="1"
				Note Time="41" Value="G3" Duration="1" Instrument="Duty 0" Volume="3"
				Note Time="42" Value="G#3" Duration="3" Instrument="Duty 0"
				Note Time="43" Volume="2"
				Note Time="44" Volume="1"
				Note Time="47" Value="G3" Duration="1" Instrument="Duty 0" Volume="3"
				Note Time="48" Value="F3" Duration="3" Instrument="Duty 0"
				Note Time="49" Volume="2"
				Note Time="50" Volume="1"
				Note Time="59" Value="D#3" Duration="1" Instrument="Duty 0" Volume="5"
				Note Time="60" Value="F3" Duration="9" Instrument="Duty 0"
				Note Time="61" Volume="4"
				Note Time="63" Volume="3"
				Note Time="65" Volume="2"
				Note Time="67" Volume="1"
				Note Time="71" Value="D#3" Duration="1" Instrument="Duty 0" Volume="5"
				Note Time="72" Value="F3" Duration="5" Instrument="Duty 0"
				Note Time="73" Volume="4"
				Note Time="75" Volume="3"
				Note Time="77" Value="D#3" Duration="1" Instrument="Duty 0" Volume="5"
				Note Time="78" Value="F3" Duration="9" Instrument="Duty 0"
				Note Time="79" Volume="4"
				Note Time="81" Volume="3"
				Note Time="83" Volume="2"
				Note Time="85" Volume="1"
				Note Time="89" Value="D#3" Duration="1" Instrument="Duty 0" Volume="5"
				Note Time="90" Value="F3" Duration="6" Instrument="Duty 0"
				Note Time="91" Volume="4"
				Note Time="93" Volume="3"
				Note Time="95" Volume="5"
				Note Time="96" Value="G#3" Duration="3" Instrument="Duty 0" Volume="3"
				Note Time="97" Volume="2"
				Note Time="98" Volume="1"
				Note Time="107" Value="G3" Duration="1" Instrument="Duty 0" Volume="3"
				Note Time="108" Value="G#3" Duration="3" Instrument="Duty 0"
				Note Time="109" Volume="2"
				Note Time="110" Volume="1"
				Note Time="113" Value="G3" Duration="1" Instrument="Duty 0" Volume="3"
				Note Time="114" Value="G#3" Duration="3" Instrument="Duty 0"
				Note Time="115" Volume="2"
				Note Time="116" Volume="1"
				Note Time="119" Value="G3" Duration="1" Instrument="Duty 0" Volume="3"
				Note Time="120" Value="F3" Duration="3" Instrument="Duty 0"
				Note Time="121" Volume="2"
				Note Time="122" Volume="1"
				Note Time="131" Value="D#3" Duration="1" Instrument="Duty 0" Volume="5"
				Note Time="132" Value="F3" Duration="9" Instrument="Duty 0"
				Note Time="133" Volume="4"
				Note Time="135" Volume="3"
				Note Time="137" Volume="2"
				Note Time="139" Volume="1"
				Note Time="143" Value="G3" Duration="1" Instrument="Duty 0" Volume="3"
				Note Time="144" Value="G#3" Duration="3" Instrument="Duty 0"
				Note Time="145" Volume="2"
				Note Time="146" Volume="1"
				Note Time="149" Value="G3" Duration="1" Instrument="Duty 0" Volume="3"
				Note Time="150" Value="G#3" Duration="3" Instrument="Duty 0"
				Note Time="151" Volume="2"
				Note Time="152" Volume="1"
				Note Time="155" Value="F3" Duration="1" Instrument="Duty 0" Volume="5"
				Note Time="156" Value="G#3" Duration="3" Instrument="Duty 0" Volume="3"
				Note Time="157" Volume="2"
				Note Time="158" Volume="1"
				Note Time="167" Value="F3" Duration="1" Instrument="Duty 0" Volume="5"
				Note Time="168" Value="G#3" Duration="3" Instrument="Duty 0" Volume="3"
				Note Time="169" Volume="2"
				Note Time="170" Volume="1"
				Note Time="179" Value="G3" Duration="1" Instrument="Duty 0" Volume="3"
				Note Time="180" Value="G#3" Duration="3" Instrument="Duty 0"
				Note Time="181" Volume="2"
				Note Time="182" Volume="1"
				Note Time="185" Value="G3" Duration="1" Instrument="Duty 0" Volume="3"
				Note Time="186" Value="G#3" Duration="3" Instrument="Duty 0"
				Note Time="187" Volume="2"
				Note Time="188" Volume="1"
				Note Time="191" Value="G3" Duration="1" Instrument="Duty 0" Volume="3"
				Note Time="192" Value="F3" Duration="3" Instrument="Duty 0"
				Note Time="193" Volume="2"
				Note Time="194" Volume="1"
				Note Time="203" Value="D#3" Duration="1" Instrument="Duty 0" Volume="5"
				Note Time="204" Value="F3" Duration="9" Instrument="Duty 0"
				Note Time="205" Volume="4"
				Note Time="207" Volume="3"
				Note Time="209" Volume="2"
				Note Time="211" Volume="1"
				Note Time="215" Value="D#3" Duration="1" Instrument="Duty 0" Volume="5"
				Note Time="216" Value="F3" Duration="5" Instrument="Duty 0"
				Note Time="217" Volume="4"
				Note Time="219" Volume="3"
				Note Time="221" Value="D#3" Duration="1" Instrument="Duty 0" Volume="5"
				Note Time="222" Value="F3" Duration="9" Instrument="Duty 0"
				Note Time="223" Volume="4"
				Note Time="225" Volume="3"
				Note Time="227" Volume="2"
				Note Time="229" Volume="1"
				Note Time="233" Value="D#3" Duration="1" Instrument="Duty 0" Volume="5"
				Note Time="234" Value="F3" Duration="6" Instrument="Duty 0"
				Note Time="235" Volume="4"
				Note Time="237" Volume="3"
				Note Time="239" Volume="5"
				Note Time="240" Value="G#3" Duration="3" Instrument="Duty 0" Volume="3"
				Note Time="241" Volume="2"
				Note Time="242" Volume="1"
				Note Time="245" Value="G3" Duration="1" Instrument="Duty 0" Volume="3"
				Note Time="246" Value="G#3" Duration="3" Instrument="Duty 0"
				Note Time="247" Volume="2"
				Note Time="248" Volume="1"
				Note Time="251" Value="G3" Duration="1" Instrument="Duty 0" Volume="3"
				Note Time="252" Value="F3" Duration="3" Instrument="Duty 0"
				Note Time="253" Volume="2"
				Note Time="254" Volume="1"
			Pattern Name="Pattern 38"
				Note Time="7" Value="D#3" Duration="1" Instrument="Duty 0" Volume="5"
				Note Time="8" Value="F3" Duration="9" Instrument="Duty 0"
				Note Time="9" Volume="4"
				Note Time="11" Volume="3"
				Note Time="13" Volume="2"
				Note Time="15" Volume="1"
				Note Time="19" Value="F3" Duration="1" Instrument="Duty 0" Volume="5"
				Note Time="20" Value="G#3" Duration="3" Instrument="Duty 0" Volume="3"
				Note Time="21" Volume="2"
				Note Time="22" Volume="1"
				Note Time="25" Value="G3" Duration="1" Instrument="Duty 0" Volume="3"
				Note Time="26" Value="G#3" Duration="3" Instrument="Duty 0"
				Note Time="27" Volume="2"
				Note Time="28" Volume="1"
				Note Time="31" Value="G3" Duration="1" Instrument="Duty 0" Volume="3"
				Note Time="32" Value="F3" Duration="3" Instrument="Duty 0"
				Note Time="33" Volume="2"
				Note Time="34" Volume="1"
				Note Time="43" Value="D#3" Duration="1" Instrument="Duty 0" Volume="5"
				Note Time="44" Value="F3" Duration="9" Instrument="Duty 0"
				Note Time="45" Volume="4"
				Note Time="47" Volume="3"
				Note Time="49" Volume="2"
				Note Time="51" Volume="1"
				Note Time="55" Value="D#3" Duration="1" Instrument="Duty 0" Volume="5"
				Note Time="56" Value="F3" Duration="9" Instrument="Duty 0"
				Note Time="57" Volume="4"
				Note Time="59" Volume="3"
				Note Time="61" Volume="2"
				Note Time="63" Volume="1"
				Note Time="67" Value="D#3" Duration="1" Instrument="Duty 0" Volume="5"
				Note Time="68" Value="F3" Duration="9" Instrument="Duty 0"
				Note Time="69" Volume="4"
				Note Time="71" Volume="3"
				Note Time="73" Volume="2"
				Note Time="75" Volume="1"
				Note Time="79" Value="D#3" Duration="1" Instrument="Duty 0" Volume="5"
				Note Time="80" Value="F3" Duration="9" Instrument="Duty 0"
				Note Time="81" Volume="4"
				Note Time="83" Volume="3"
				Note Time="85" Volume="2"
				Note Time="87" Volume="1"
				Note Time="91" Value="G3" Duration="1" Instrument="Duty 0" Volume="4"
				Note Time="92" Value="G#3" Duration="11" Instrument="Duty 0"
				Note Time="94" Volume="3"
				Note Time="97" Volume="2"
				Note Time="100" Volume="1"
				Note Time="103" Value="D#3" Duration="1" Instrument="Duty 0" Volume="5"
				Note Time="104" Value="F3" Duration="9" Instrument="Duty 0"
				Note Time="105" Volume="4"
				Note Time="107" Volume="3"
				Note Time="109" Volume="2"
				Note Time="111" Volume="1"
				Note Time="115" Value="D#3" Duration="1" Instrument="Duty 0" Volume="5"
				Note Time="116" Value="F3" Duration="5" Instrument="Duty 0"
				Note Time="117" Volume="4"
				Note Time="119" Volume="3"
				Note Time="121" Value="D#3" Duration="1" Instrument="Duty 0" Volume="5"
				Note Time="122" Value="F3" Duration="6" Instrument="Duty 0"
				Note Time="123" Volume="4"
				Note Time="125" Volume="3"
				Note Time="127" Volume="5"
				Note Time="128" Value="G#3" Duration="3" Instrument="Duty 0" Volume="3"
				Note Time="129" Volume="2"
				Note Time="130" Volume="1"
				Note Time="133" Value="G3" Duration="1" Instrument="Duty 0" Volume="3"
				Note Time="134" Value="G#3" Duration="3" Instrument="Duty 0"
				Note Time="135" Volume="2"
				Note Time="136" Volume="1"
				Note Time="139" Value="G3" Duration="1" Instrument="Duty 0" Volume="3"
				Note Time="140" Value="F3" Duration="3" Instrument="Duty 0"
				Note Time="141" Volume="2"
				Note Time="142" Volume="1"
				Note Time="151" Value="D#3" Duration="1" Instrument="Duty 0" Volume="5"
				Note Time="152" Value="F3" Duration="9" Instrument="Duty 0"
				Note Time="153" Volume="4"
				Note Time="155" Volume="3"
				Note Time="157" Volume="2"
				Note Time="159" Volume="1"
				Note Time="163" Value="F3" Duration="1" Instrument="Duty 0" Volume="5"
				Note Time="164" Value="G#3" Duration="3" Instrument="Duty 0" Volume="3"
				Note Time="165" Volume="2"
				Note Time="166" Volume="1"
				Note Time="169" Value="G3" Duration="1" Instrument="Duty 0" Volume="3"
				Note Time="170" Value="G#3" Duration="3" Instrument="Duty 0"
				Note Time="171" Volume="2"
				Note Time="172" Volume="1"
				Note Time="175" Value="G3" Duration="1" Instrument="Duty 0" Volume="3"
				Note Time="176" Value="F3" Duration="3" Instrument="Duty 0"
				Note Time="177" Volume="2"
				Note Time="178" Volume="1"
				Note Time="187" Value="D#3" Duration="1" Instrument="Duty 0" Volume="5"
				Note Time="188" Value="F3" Duration="9" Instrument="Duty 0"
				Note Time="189" Volume="4"
				Note Time="191" Volume="3"
				Note Time="193" Volume="2"
				Note Time="195" Volume="1"
				Note Time="199" Value="D#3" Duration="1" Instrument="Duty 0" Volume="5"
				Note Time="200" Value="F3" Duration="9" Instrument="Duty 0"
				Note Time="201" Volume="4"
				Note Time="203" Volume="3"
				Note Time="205" Volume="2"
				Note Time="207" Volume="1"
				Note Time="211" Value="D#3" Duration="1" Instrument="Duty 0" Volume="5"
				Note Time="212" Value="F3" Duration="9" Instrument="Duty 0"
				Note Time="213" Volume="4"
				Note Time="215" Volume="3"
				Note Time="217" Volume="2"
				Note Time="219" Volume="1"
				Note Time="223" Value="D#3" Duration="1" Instrument="Duty 0" Volume="5"
				Note Time="224" Value="F3" Duration="9" Instrument="Duty 0"
				Note Time="225" Volume="4"
				Note Time="227" Volume="3"
				Note Time="229" Volume="2"
				Note Time="231" Volume="1"
				Note Time="235" Value="G3" Duration="1" Instrument="Duty 0" Volume="4"
				Note Time="236" Value="G#3" Duration="11" Instrument="Duty 0"
				Note Time="238" Volume="3"
				Note Time="241" Volume="2"
				Note Time="244" Volume="1"
				Note Time="247" Value="D#3" Duration="1" Instrument="Duty 0" Volume="5"
				Note Time="248" Value="F3" Duration="9" Instrument="Duty 0"
				Note Time="249" Volume="4"
				Note Time="251" Volume="3"
				Note Time="253" Volume="2"
				Note Time="255" Volume="1"
			Pattern Name="Pattern 39"
				Note Time="3" Value="D#3" Duration="1" Instrument="Duty 0" Volume="5"
				Note Time="4" Value="F3" Duration="5" Instrument="Duty 0"
				Note Time="5" Volume="4"
				Note Time="7" Volume="3"
				Note Time="9" Value="D#3" Duration="1" Instrument="Duty 0" Volume="5"
				Note Time="10" Value="F3" Duration="6" Instrument="Duty 0"
				Note Time="11" Volume="4"
				Note Time="13" Volume="3"
				Note Time="15" Volume="5"
				Note Time="16" Value="G#3" Duration="3" Instrument="Duty 0" Volume="3"
				Note Time="17" Volume="2"
				Note Time="18" Volume="1"
				Note Time="21" Value="G3" Duration="1" Instrument="Duty 0" Volume="3"
				Note Time="22" Value="G#3" Duration="3" Instrument="Duty 0"
				Note Time="23" Volume="2"
				Note Time="24" Volume="1"
				Note Time="27" Value="G3" Duration="1" Instrument="Duty 0" Volume="3"
				Note Time="28" Value="F3" Duration="3" Instrument="Duty 0"
				Note Time="29" Volume="2"
				Note Time="30" Volume="1"
				Note Time="39" Value="D#3" Duration="1" Instrument="Duty 0" Volume="5"
				Note Time="40" Value="F3" Duration="9" Instrument="Duty 0"
				Note Time="41" Volume="4"
				Note Time="43" Volume="3"
				Note Time="45" Volume="2"
				Note Time="47" Volume="1"
				Note Time="51" Value="F3" Duration="1" Instrument="Duty 0" Volume="5"
				Note Time="52" Value="G#3" Duration="3" Instrument="Duty 0" Volume="3"
				Note Time="53" Volume="2"
				Note Time="54" Volume="1"
				Note Time="57" Value="G3" Duration="1" Instrument="Duty 0" Volume="3"
				Note Time="58" Value="G#3" Duration="3" Instrument="Duty 0"
				Note Time="59" Volume="2"
				Note Time="60" Volume="1"
				Note Time="63" Value="G3" Duration="1" Instrument="Duty 0" Volume="3"
				Note Time="64" Value="F3" Duration="3" Instrument="Duty 0"
				Note Time="65" Volume="2"
				Note Time="66" Volume="1"
				Note Time="75" Value="D#3" Duration="1" Instrument="Duty 0" Volume="5"
				Note Time="76" Value="F3" Duration="9" Instrument="Duty 0"
				Note Time="77" Volume="4"
				Note Time="79" Volume="3"
				Note Time="81" Volume="2"
				Note Time="83" Volume="1"
				Note Time="87" Value="D#3" Duration="1" Instrument="Duty 0" Volume="5"
				Note Time="88" Value="F3" Duration="9" Instrument="Duty 0"
				Note Time="89" Volume="4"
				Note Time="91" Volume="3"
				Note Time="93" Volume="2"
				Note Time="95" Volume="1"
				Note Time="99" Value="D#3" Duration="1" Instrument="Duty 0" Volume="5"
				Note Time="100" Value="F3" Duration="9" Instrument="Duty 0"
				Note Time="101" Volume="4"
				Note Time="103" Volume="3"
				Note Time="105" Volume="2"
				Note Time="107" Volume="1"
				Note Time="111" Value="D#3" Duration="1" Instrument="Duty 0" Volume="5"
				Note Time="112" Value="F3" Duration="9" Instrument="Duty 0"
				Note Time="113" Volume="4"
				Note Time="115" Volume="3"
				Note Time="117" Volume="2"
				Note Time="119" Volume="1"
				Note Time="123" Value="G3" Duration="1" Instrument="Duty 0" Volume="4"
				Note Time="124" Value="G#3" Duration="11" Instrument="Duty 0"
				Note Time="126" Volume="3"
				Note Time="129" Volume="2"
				Note Time="132" Volume="1"
				Note Time="135" Value="D#3" Duration="1" Instrument="Duty 0" Volume="5"
				Note Time="136" Value="F3" Duration="9" Instrument="Duty 0"
				Note Time="137" Volume="4"
				Note Time="139" Volume="3"
				Note Time="141" Volume="2"
				Note Time="143" Volume="1"
				Note Time="147" Value="D#3" Duration="1" Instrument="Duty 0" Volume="5"
				Note Time="148" Value="F3" Duration="5" Instrument="Duty 0"
				Note Time="149" Volume="4"
				Note Time="151" Volume="3"
				Note Time="153" Value="D#3" Duration="1" Instrument="Duty 0" Volume="5"
				Note Time="154" Value="F3" Duration="6" Instrument="Duty 0"
				Note Time="155" Volume="4"
				Note Time="157" Volume="3"
				Note Time="159" Volume="5"
				Note Time="160" Value="G#3" Duration="3" Instrument="Duty 0" Volume="3"
				Note Time="161" Volume="2"
				Note Time="162" Volume="1"
				Note Time="165" Value="G3" Duration="1" Instrument="Duty 0" Volume="3"
				Note Time="166" Value="G#3" Duration="3" Instrument="Duty 0"
				Note Time="167" Volume="2"
				Note Time="168" Volume="1"
				Note Time="171" Value="G3" Duration="1" Instrument="Duty 0" Volume="3"
				Note Time="172" Value="F3" Duration="3" Instrument="Duty 0"
				Note Time="173" Volume="2"
				Note Time="174" Volume="1"
				Note Time="183" Value="D#3" Duration="1" Instrument="Duty 0" Volume="5"
				Note Time="184" Value="F3" Duration="9" Instrument="Duty 0"
				Note Time="185" Volume="4"
				Note Time="187" Volume="3"
				Note Time="189" Volume="2"
				Note Time="191" Volume="1"
				Note Time="195" Value="F3" Duration="1" Instrument="Duty 0" Volume="5"
				Note Time="196" Value="G#3" Duration="3" Instrument="Duty 0" Volume="3"
				Note Time="197" Volume="2"
				Note Time="198" Volume="1"
				Note Time="201" Value="G3" Duration="1" Instrument="Duty 0" Volume="3"
				Note Time="202" Value="G#3" Duration="3" Instrument="Duty 0"
				Note Time="203" Volume="2"
				Note Time="204" Volume="1"
				Note Time="207" Value="G3" Duration="1" Instrument="Duty 0" Volume="3"
				Note Time="208" Value="F3" Duration="3" Instrument="Duty 0"
				Note Time="209" Volume="2"
				Note Time="210" Volume="1"
				Note Time="219" Value="D#3" Duration="1" Instrument="Duty 0" Volume="5"
				Note Time="220" Value="F3" Duration="9" Instrument="Duty 0"
				Note Time="221" Volume="4"
				Note Time="223" Volume="3"
				Note Time="225" Volume="2"
				Note Time="227" Volume="1"
				Note Time="231" Value="D#3" Duration="1" Instrument="Duty 0" Volume="5"
				Note Time="232" Value="F3" Duration="9" Instrument="Duty 0"
				Note Time="233" Volume="4"
				Note Time="235" Volume="3"
				Note Time="237" Volume="2"
				Note Time="239" Volume="1"
				Note Time="243" Value="D#3" Duration="1" Instrument="Duty 0" Volume="5"
				Note Time="244" Value="F3" Duration="9" Instrument="Duty 0"
				Note Time="245" Volume="4"
				Note Time="247" Volume="3"
				Note Time="249" Volume="2"
				Note Time="251" Volume="1"
				Note Time="255" Value="D#3" Duration="1" Instrument="Duty 0" Volume="5"
			Pattern Name="Pattern 40"
				Note Time="0" Value="F3" Duration="9" Instrument="Duty 0"
				Note Time="1" Volume="4"
				Note Time="3" Volume="3"
				Note Time="5" Volume="2"
				Note Time="7" Volume="1"
			PatternInstance Time="1" Pattern="Pattern 1"
			PatternInstance Time="2" Pattern="Pattern 2"
			PatternInstance Time="3" Pattern="Pattern 3"
			PatternInstance Time="4" Pattern="Pattern 4"
			PatternInstance Time="5" Pattern="Pattern 5"
			PatternInstance Time="6" Pattern="Pattern 6"
			PatternInstance Time="7" Pattern="Pattern 7"
			PatternInstance Time="8" Pattern="Pattern 8"
			PatternInstance Time="9" Pattern="Pattern 9"
			PatternInstance Time="10" Pattern="Pattern 10"
			PatternInstance Time="11" Pattern="Pattern 11"
			PatternInstance Time="12" Pattern="Pattern 12"
			PatternInstance Time="13" Pattern="Pattern 13"
			PatternInstance Time="14" Pattern="Pattern 14"
			PatternInstance Time="15" Pattern="Pattern 15"
			PatternInstance Time="16" Pattern="Pattern 16"
			PatternInstance Time="18" Pattern="Pattern 17"
			PatternInstance Time="19" Pattern="Pattern 18"
			PatternInstance Time="20" Pattern="Pattern 19"
			PatternInstance Time="21" Pattern="Pattern 20"
			PatternInstance Time="22" Pattern="Pattern 21"
			PatternInstance Time="23" Pattern="Pattern 22"
			PatternInstance Time="24" Pattern="Pattern 23"
			PatternInstance Time="25" Pattern="Pattern 24"
			PatternInstance Time="26" Pattern="Pattern 25"
			PatternInstance Time="27" Pattern="Pattern 26"
			PatternInstance Time="28" Pattern="Pattern 27"
			PatternInstance Time="29" Pattern="Pattern 28"
			PatternInstance Time="30" Pattern="Pattern 29"
			PatternInstance Time="31" Pattern="Pattern 30"
			PatternInstance Time="32" Pattern="Pattern 31"
			PatternInstance Time="33" Pattern="Pattern 32"
			PatternInstance Time="34" Pattern="Pattern 33"
			PatternInstance Time="35" Pattern="Pattern 34"
			PatternInstance Time="36" Pattern="Pattern 35"
			PatternInstance Time="37" Pattern="Pattern 36"
			PatternInstance Time="38" Pattern="Pattern 37"
			PatternInstance Time="39" Pattern="Pattern 38"
			PatternInstance Time="40" Pattern="Pattern 39"
			PatternInstance Time="41" Pattern="Pattern 40"
		Channel Type="DPCM"
