Project Version="3.1.1" TempoMode="FamiStudio" Name="The Legend of Zelda" Author="Koji Kondo" Copyright="1987 Nintendo"
	Instrument Name="Bass"
	Instrument Name="BassVib"
		Envelope Type="Pitch" Length="24" Loop="16" Values="0,0,0,0,0,0,0,0,0,0,0,0,0,0,0,0,1,1,1,1,-1,-1,-1,-1"
	Instrument Name="Duty 0"
	Instrument Name="Duty 0 Env"
		Envelope Type="Volume" Length="5" Values="14,15,13,11,8"
	Instrument Name="Duty 2"
		Envelope Type="DutyCycle" Length="1" Values="2"
	Instrument Name="Duty2Intro"
		Envelope Type="Volume" Length="16" Values="4,5,6,6,7,7,7,6,6,6,6,5,5,5,5,4"
		Envelope Type="Pitch" Length="21" Values="0,0,0,0,0,0,0,0,0,0,0,0,0,0,0,0,0,0,0,-1,0"
		Envelope Type="DutyCycle" Length="1" Values="2"
	Instrument Name="Duty2IntroMuted"
		Envelope Type="Volume" Length="16" Values="4,5,6,6,7,7,7,6,6,6,6,5,5,5,5,4"
		Envelope Type="Pitch" Length="23" Loop="15" Values="0,0,0,0,0,0,0,0,0,0,0,0,0,0,0,1,1,1,1,-1,-1,-1,-1"
		Envelope Type="DutyCycle" Length="1" Values="2"
	Instrument Name="Duty2Main"
		Envelope Type="Volume" Length="24" Values="7,7,8,8,9,9,9,8,8,8,8,7,7,7,7,6,6,6,6,5,5,5,5,4"
		Envelope Type="Pitch" Length="24" Loop="16" Values="0,0,0,0,0,0,0,0,0,0,0,0,0,0,0,0,1,1,1,1,-1,-1,-1,-1"
		Envelope Type="DutyCycle" Length="1" Values="2"
	Instrument Name="Lead"
		Envelope Type="Volume" Length="29" Values="4,5,6,6,7,7,7,6,6,6,6,5,5,5,5,4,4,4,4,4,4,4,4,4,4,3,3,3,2"
		Envelope Type="DutyCycle" Length="1" Values="2"
	Instrument Name="Snare"
	Instrument Name="Whistle"
		Envelope Type="Volume" Length="32" Values="6,7,8,9,10,11,12,13,14,15,15,15,15,15,15,15,15,15,15,15,15,15,14,13,12,11,10,9,8,7,6,5"
		Envelope Type="DutyCycle" Length="1" Values="2"
	Song Name="Title" Length="30" LoopPoint="0" PatternLength="16" BeatLength="4" NoteLength="10" Groove="10" GroovePaddingMode="Middle"
		Channel Type="Square1"
			Pattern Name="Pattern 1"
				Note Time="5" Value="A#3" Duration="101" Instrument="Duty2Main"
				Note Time="105" Value="F3" Duration="20" Instrument="Duty2Main"
				Note Time="125" Value="F3" Duration="20" Instrument="Duty2Main"
				Note Time="145" Value="A#3" Duration="20" Instrument="Duty2Main"
			Pattern Name="Pattern 2"
				Note Time="5" Value="G#3" Duration="10" Instrument="Duty2Main"
				Note Time="15" Value="F#3" Duration="10" Instrument="Duty2Main"
				Note Time="25" Value="G#3" Duration="127" Instrument="Duty2Main"
			Pattern Name="Pattern 3"
				Note Time="5" Value="A#3" Duration="100" Instrument="Duty2Main"
				Note Time="105" Value="F#3" Duration="20" Instrument="Duty2Main"
				Note Time="125" Value="F#3" Duration="20" Instrument="Duty2Main"
				Note Time="145" Value="A#3" Duration="20" Instrument="Duty2Main"
			Pattern Name="Pattern 4"
				Note Time="5" Value="A3" Duration="10" Instrument="Duty2Main"
				Note Time="15" Value="G3" Duration="10" Instrument="Duty2Main"
				Note Time="25" Value="A3" Duration="127" Instrument="Duty2Main"
			Pattern Name="Pattern 5"
				Note Time="0" Value="F2" Duration="20" Instrument="Duty2Intro"
				Note Time="20" Value="F2" Duration="10" Instrument="Duty2Intro"
				Note Time="30" Value="A#1" Duration="10" Instrument="Duty2Intro"
				Note Time="40" Value="F2" Duration="20" Instrument="Duty2Intro"
				Note Time="60" Value="F2" Duration="10" Instrument="Duty2Intro"
				Note Time="70" Value="A#1" Duration="10" Instrument="Duty2Intro"
				Note Time="80" Value="F2" Duration="20" Instrument="Duty2Intro"
				Note Time="100" Value="F2" Duration="10" Instrument="Duty2Intro"
				Note Time="110" Value="A#1" Duration="10" Instrument="Duty2Intro"
				Note Time="120" Value="F2" Duration="10" Instrument="Duty2Intro"
				Note Time="130" Value="A#1" Duration="10" Instrument="Duty2Intro"
				Note Time="140" Value="F2" Duration="10" Instrument="Duty2Intro"
				Note Time="150" Value="A#1" Duration="10" Instrument="Duty2Intro"
			Pattern Name="Pattern 6"
				Note Time="0" Value="F2" Duration="20" Instrument="Duty2Intro"
				Note Time="20" Value="F2" Duration="10" Instrument="Duty2Intro"
				Note Time="30" Value="A#1" Duration="10" Instrument="Duty2Intro"
				Note Time="40" Value="F2" Duration="20" Instrument="Duty2Intro"
				Note Time="60" Value="F2" Duration="10" Instrument="Duty2Intro"
				Note Time="70" Value="A#1" Duration="10" Instrument="Duty2Intro"
				Note Time="80" Value="F2" Duration="20" Instrument="Duty2Intro"
				Note Time="100" Value="F2" Duration="10" Instrument="Duty2Intro"
				Note Time="110" Value="A#1" Duration="10" Instrument="Duty2Intro"
				Note Time="120" Value="F2" Duration="10" Instrument="Duty2Intro"
				Note Time="130" Value="A#1" Duration="10" Instrument="Duty2Intro"
				Note Time="140" Value="F2" Duration="10" Instrument="Duty2Intro"
				Note Time="150" Value="A#1" Duration="10" Instrument="Duty2Intro"
			Pattern Name="Pattern 7"
				Note Time="0" Value="F2" Duration="20" Instrument="Duty2Intro"
				Note Time="20" Value="F2" Duration="10" Instrument="Duty2Intro"
				Note Time="30" Value="A#1" Duration="10" Instrument="Duty2Intro"
				Note Time="40" Value="F2" Duration="20" Instrument="Duty2Intro"
				Note Time="60" Value="F2" Duration="10" Instrument="Duty2Intro"
				Note Time="70" Value="A#1" Duration="10" Instrument="Duty2Intro"
				Note Time="80" Value="F2" Duration="20" Instrument="Duty2Intro"
				Note Time="100" Value="F2" Duration="10" Instrument="Duty2Intro"
				Note Time="110" Value="A#1" Duration="10" Instrument="Duty2Intro"
				Note Time="120" Value="F2" Duration="10" Instrument="Duty2Intro"
				Note Time="130" Value="A#1" Duration="10" Instrument="Duty2Intro"
				Note Time="140" Value="F2" Duration="10" Instrument="Duty2Intro"
				Note Time="150" Value="A#1" Duration="10" Instrument="Duty2Intro"
			Pattern Name="Pattern 8"
				Note Time="0" Value="D#2" Duration="20" Instrument="Duty2Intro"
				Note Time="20" Value="A#2" Duration="20" Instrument="Duty2Intro"
				Note Time="40" Value="A#2" Duration="10" Instrument="Duty2Intro"
				Note Time="50" Value="C3" Duration="10" Instrument="Duty2Intro"
				Note Time="60" Value="D3" Duration="10" Instrument="Duty2Intro"
				Note Time="70" Value="D#3" Duration="10" Instrument="Duty2Intro"
				Note Time="80" Value="F3" Duration="20" Instrument="Duty2Intro"
				Note Time="100" Value="D#2" Duration="10" Instrument="Duty2Intro"
				Note Time="110" Value="G#1" Duration="10" Instrument="Duty2Intro"
				Note Time="120" Value="D#2" Duration="10" Instrument="Duty2Intro"
				Note Time="130" Value="G#1" Duration="10" Instrument="Duty2Intro"
				Note Time="140" Value="D#2" Duration="10" Instrument="Duty2Intro"
				Note Time="150" Value="G#1" Duration="10" Instrument="Duty2Intro"
			Pattern Name="Pattern 9"
				Note Time="0" Value="C#2" Duration="20" Instrument="Duty2Intro"
				Note Time="20" Value="C#2" Duration="10" Instrument="Duty2Intro"
				Note Time="30" Value="F#1" Duration="10" Instrument="Duty2Intro"
				Note Time="40" Value="C#2" Duration="20" Instrument="Duty2Intro"
				Note Time="60" Value="C#2" Duration="10" Instrument="Duty2Intro"
				Note Time="70" Value="F#1" Duration="10" Instrument="Duty2Intro"
				Note Time="80" Value="C#2" Duration="20" Instrument="Duty2Intro"
				Note Time="100" Value="C#2" Duration="10" Instrument="Duty2Intro"
				Note Time="110" Value="F#1" Duration="10" Instrument="Duty2Intro"
				Note Time="120" Value="C#2" Duration="10" Instrument="Duty2Intro"
				Note Time="130" Value="F#1" Duration="10" Instrument="Duty2Intro"
				Note Time="140" Value="C#2" Duration="10" Instrument="Duty2Intro"
				Note Time="150" Value="F#1" Duration="10" Instrument="Duty2Intro"
			Pattern Name="Pattern 10"
				Note Time="0" Value="C2" Duration="20" Instrument="Duty2Intro"
				Note Time="20" Value="A#2" Duration="20" Instrument="Duty2Intro"
				Note Time="40" Value="A#2" Duration="10" Instrument="Duty2Intro"
				Note Time="50" Value="C3" Duration="10" Instrument="Duty2Intro"
				Note Time="60" Value="D3" Duration="10" Instrument="Duty2Intro"
				Note Time="70" Value="D#3" Duration="10" Instrument="Duty2Intro"
				Note Time="80" Value="F3" Duration="20" Instrument="Duty2Intro"
				Note Time="100" Value="C2" Duration="10" Instrument="Duty2Intro"
				Note Time="110" Value="F1" Duration="10" Instrument="Duty2Intro"
				Note Time="120" Value="C2" Duration="10" Instrument="Duty2Intro"
				Note Time="130" Value="F1" Duration="10" Instrument="Duty2Intro"
				Note Time="140" Value="C2" Duration="10" Instrument="Duty2Intro"
				Note Time="150" Value="F1" Duration="10" Instrument="Duty2Intro"
			Pattern Name="Pattern 11"
				Note Time="0" Value="D3" Duration="40" Instrument="Duty2Main"
				Note Time="40" Value="D3" Duration="26" Instrument="Duty2Main"
				Note Time="66" Value="C3" Duration="14" Instrument="Duty2Main"
				Note Time="80" Value="D3" Duration="30" Instrument="Duty2Main"
				Note Time="110" Value="D3" Duration="10" Instrument="Duty2Main"
				Note Time="120" Value="D3" Duration="10" Instrument="Duty2Main"
				Note Time="130" Value="D#3" Duration="10" Instrument="Duty2Main"
				Note Time="140" Value="F3" Duration="10" Instrument="Duty2Main"
				Note Time="150" Value="G3" Duration="10" Instrument="Duty2Main"
			Pattern Name="Pattern 12"
				Note Time="0" Value="G#3" Duration="30" Instrument="Duty2Main"
				Note Time="30" Value="A#3" Duration="10" Instrument="Duty2Main"
				Note Time="40" Value="A#3" Duration="10" Instrument="Duty2Main"
				Note Time="50" Value="C4" Duration="10" Instrument="Duty2Main"
				Note Time="60" Value="D4" Duration="10" Instrument="Duty2Main"
				Note Time="70" Value="D#4" Duration="10" Instrument="Duty2Main"
				Note Time="80" Value="F4" Duration="40" Instrument="Duty2Main"
				Note Time="120" Value="G#3" Duration="13" Instrument="Duty2Main"
				Note Time="133" Value="A#3" Duration="13" Instrument="Duty2Main"
				Note Time="146" Value="C4" Duration="14" Instrument="Duty2Main"
			Pattern Name="Pattern 13"
				Note Time="0" Value="F#3" Duration="30" Instrument="Duty2Main"
				Note Time="30" Value="F#3" Duration="10" Instrument="Duty2Main"
				Note Time="40" Value="F#3" Duration="10" Instrument="Duty2Main"
				Note Time="50" Value="G#3" Duration="10" Instrument="Duty2Main"
				Note Time="60" Value="A#3" Duration="10" Instrument="Duty2Main"
				Note Time="70" Value="C4" Duration="10" Instrument="Duty2Main"
				Note Time="80" Value="C#4" Duration="26" Instrument="Duty2Main"
				Note Time="106" Value="C#4" Duration="14" Instrument="Duty2Main"
				Note Time="120" Value="C#4" Duration="14" Instrument="Duty2Main"
				Note Time="134" Value="C4" Duration="13" Instrument="Duty2Main"
				Note Time="147" Value="A#3" Duration="13" Instrument="Duty2Main"
			Pattern Name="Pattern 14"
				Note Time="0" Value="C#4" Duration="26" Instrument="Duty2Main"
				Note Time="26" Value="A#3" Duration="14" Instrument="Duty2Main"
				Note Time="40" Value="G#3" Duration="13" Instrument="Duty2Main"
				Note Time="53" Value="G#3" Duration="13" Instrument="Duty2Main"
				Note Time="66" Value="F#3" Duration="13" Instrument="Duty2Main"
				Note Time="79" Value="G#3" Duration="26" Instrument="Duty2Main"
				Note Time="105" Value="G#3" Duration="14" Instrument="Duty2Main"
				Note Time="119" Value="G#3" Duration="14" Instrument="Duty2Main"
				Note Time="133" Value="F#3" Duration="13" Instrument="Duty2Main"
				Note Time="146" Value="G#3" Duration="13" Instrument="Duty2Main"
				Note Time="159" Value="F#3" Duration="20" Instrument="Duty2Main"
			Pattern Name="Pattern 15"
				Note Time="19" Value="F#3" Duration="10" Instrument="Duty2Main"
				Note Time="29" Value="F3" Duration="10" Instrument="Duty2Main"
				Note Time="39" Value="F#3" Duration="20" Instrument="Duty2Main"
				Note Time="59" Value="F#3" Duration="10" Instrument="Duty2Main"
				Note Time="69" Value="G#3" Duration="10" Instrument="Duty2Main"
				Note Time="79" Value="A#3" Duration="40" Instrument="Duty2Main"
				Note Time="119" Value="G#3" Duration="20" Instrument="Duty2Main"
				Note Time="139" Value="F#3" Duration="20" Instrument="Duty2Main"
				Note Time="159" Value="F3" Duration="20" Instrument="Duty2Main"
			Pattern Name="Pattern 16"
				Note Time="19" Value="F3" Duration="10" Instrument="Duty2Main"
				Note Time="29" Value="D#3" Duration="10" Instrument="Duty2Main"
				Note Time="39" Value="F3" Duration="20" Instrument="Duty2Main"
				Note Time="59" Value="F3" Duration="10" Instrument="Duty2Main"
				Note Time="69" Value="F#3" Duration="10" Instrument="Duty2Main"
				Note Time="79" Value="G#3" Duration="40" Instrument="Duty2Main"
				Note Time="119" Value="F#3" Duration="20" Instrument="Duty2Main"
				Note Time="139" Value="F3" Duration="20" Instrument="Duty2Main"
			Pattern Name="Pattern 17"
				Note Time="0" Value="C4" Duration="20" Instrument="Duty2Main"
				Note Time="20" Value="C4" Duration="10" Instrument="Duty2Main"
				Note Time="30" Value="D4" Duration="10" Instrument="Duty2Main"
				Note Time="40" Value="E4" Duration="80" Instrument="Duty2Main"
				Note Time="120" Value="G4" Duration="40" Instrument="Duty2Main"
			Pattern Name="Pattern 18"
				Note Time="0" Value="F4" Duration="20" Instrument="Duty2Main"
				Note Time="20" Value="F3" Duration="10" Instrument="Duty2Main"
				Note Time="30" Value="F3" Duration="10" Instrument="Duty2Main"
				Note Time="40" Value="F3" Duration="20" Instrument="Duty2Main"
				Note Time="60" Value="F3" Duration="10" Instrument="Duty2Main"
				Note Time="70" Value="F3" Duration="10" Instrument="Duty2Main"
				Note Time="80" Value="F3" Duration="20" Instrument="Duty2Main"
				Note Time="100" Value="F3" Duration="10" Instrument="Duty2Main"
				Note Time="110" Value="F3" Duration="10" Instrument="Duty2Main"
				Note Time="120" Value="F3" Duration="20" Instrument="Duty2Main"
				Note Time="140" Value="F3" Duration="20" Instrument="Duty2Main"
			Pattern Name="Pattern 19"
				Note Time="0" Value="D3" Duration="40" Instrument="Duty2Main"
				Note Time="40" Value="D3" Duration="13" Instrument="Duty2Main"
				Note Time="53" Value="D3" Duration="13" Instrument="Duty2Main"
				Note Time="66" Value="C3" Duration="14" Instrument="Duty2Main"
				Note Time="80" Value="D3" Duration="30" Instrument="Duty2Main"
				Note Time="110" Value="D3" Duration="10" Instrument="Duty2Main"
				Note Time="120" Value="D3" Duration="10" Instrument="Duty2Main"
				Note Time="130" Value="D#3" Duration="10" Instrument="Duty2Main"
				Note Time="140" Value="F3" Duration="10" Instrument="Duty2Main"
				Note Time="150" Value="G3" Duration="10" Instrument="Duty2Main"
			Pattern Name="Pattern 20"
				Note Time="0" Value="G#3" Duration="30" Instrument="Duty2Main"
				Note Time="30" Value="A#3" Duration="10" Instrument="Duty2Main"
				Note Time="40" Value="A#3" Duration="10" Instrument="Duty2Main"
				Note Time="50" Value="C4" Duration="10" Instrument="Duty2Main"
				Note Time="60" Value="D4" Duration="10" Instrument="Duty2Main"
				Note Time="70" Value="D#4" Duration="10" Instrument="Duty2Main"
				Note Time="80" Value="F4" Duration="40" Instrument="Duty2Main"
				Note Time="120" Value="G#3" Duration="13" Instrument="Duty2Main"
				Note Time="133" Value="A#3" Duration="13" Instrument="Duty2Main"
				Note Time="146" Value="C4" Duration="14" Instrument="Duty2Main"
			Pattern Name="Pattern 21"
				Note Time="0" Value="A#4" Duration="120" Instrument="Duty2Main"
				Note Time="120" Value="C#5" Duration="40" Instrument="Duty2Main"
			Pattern Name="Pattern 22"
				Note Time="0" Value="C5" Duration="40" Instrument="Duty2Main"
				Note Time="40" Value="A4" Duration="80" Instrument="Duty2Main"
				Note Time="120" Value="F4" Duration="40" Instrument="Duty2Main"
			Pattern Name="Pattern 23"
				Note Time="0" Value="F#4" Duration="120" Instrument="Duty2Main"
				Note Time="120" Value="A#4" Duration="40" Instrument="Duty2Main"
			Pattern Name="Pattern 24"
				Note Time="0" Value="A4" Duration="40" Instrument="Duty2Main"
				Note Time="40" Value="F4" Duration="80" Instrument="Duty2Main"
				Note Time="120" Value="F4" Duration="40" Instrument="Duty2Main"
			Pattern Name="Pattern 25"
				Note Time="0" Value="F#4" Duration="120" Instrument="Duty2Main"
				Note Time="120" Value="A#4" Duration="40" Instrument="Duty2Main"
			Pattern Name="Pattern 26"
				Note Time="0" Value="A4" Duration="40" Instrument="Duty2Main"
				Note Time="40" Value="F4" Duration="80" Instrument="Duty2Main"
				Note Time="120" Value="D4" Duration="40" Instrument="Duty2Main"
			Pattern Name="Pattern 27"
				Note Time="0" Value="D#4" Duration="120" Instrument="Duty2Main"
				Note Time="120" Value="F#4" Duration="40" Instrument="Duty2Main"
			Pattern Name="Pattern 28"
				Note Time="0" Value="F4" Duration="40" Instrument="Duty2Main"
				Note Time="40" Value="C#4" Duration="80" Instrument="Duty2Main"
				Note Time="120" Value="A#3" Duration="40" Instrument="Duty2Main"
			Pattern Name="Pattern 29"
				Note Time="0" Value="C4" Duration="20" Instrument="Duty2Main"
				Note Time="20" Value="C4" Duration="10" Instrument="Duty2Main"
				Note Time="30" Value="D4" Duration="10" Instrument="Duty2Main"
				Note Time="40" Value="E4" Duration="80" Instrument="Duty2Main"
				Note Time="120" Value="G4" Duration="40" Instrument="Duty2Main"
			Pattern Name="Pattern 30"
				Note Time="0" Value="F4" Duration="20" Instrument="Duty2Main"
				Note Time="20" Value="F3" Duration="10" Instrument="Duty2Main"
				Note Time="30" Value="F3" Duration="10" Instrument="Duty2Main"
				Note Time="40" Value="F3" Duration="20" Instrument="Duty2Main"
				Note Time="60" Value="F3" Duration="10" Instrument="Duty2Main"
				Note Time="70" Value="F3" Duration="10" Instrument="Duty2Main"
				Note Time="80" Value="F3" Duration="20" Instrument="Duty2Main"
				Note Time="100" Value="F3" Duration="10" Instrument="Duty2Main"
				Note Time="110" Value="F3" Duration="10" Instrument="Duty2Main"
				Note Time="120" Value="F3" Duration="20" Instrument="Duty2Main"
				Note Time="140" Value="F3" Duration="20" Instrument="Duty2Main"
			PatternInstance Time="0" Pattern="Pattern 1"
			PatternInstance Time="1" Pattern="Pattern 2"
			PatternInstance Time="2" Pattern="Pattern 3"
			PatternInstance Time="3" Pattern="Pattern 4"
			PatternInstance Time="4" Pattern="Pattern 5"
			PatternInstance Time="5" Pattern="Pattern 6"
			PatternInstance Time="6" Pattern="Pattern 7"
			PatternInstance Time="7" Pattern="Pattern 8"
			PatternInstance Time="8" Pattern="Pattern 9"
			PatternInstance Time="9" Pattern="Pattern 10"
			PatternInstance Time="10" Pattern="Pattern 11"
			PatternInstance Time="11" Pattern="Pattern 12"
			PatternInstance Time="12" Pattern="Pattern 13"
			PatternInstance Time="13" Pattern="Pattern 14"
			PatternInstance Time="14" Pattern="Pattern 15"
			PatternInstance Time="15" Pattern="Pattern 16"
			PatternInstance Time="16" Pattern="Pattern 17"
			PatternInstance Time="17" Pattern="Pattern 18"
			PatternInstance Time="18" Pattern="Pattern 19"
			PatternInstance Time="19" Pattern="Pattern 20"
			PatternInstance Time="20" Pattern="Pattern 21"
			PatternInstance Time="21" Pattern="Pattern 22"
			PatternInstance Time="22" Pattern="Pattern 23"
			PatternInstance Time="23" Pattern="Pattern 24"
			PatternInstance Time="24" Pattern="Pattern 25"
			PatternInstance Time="25" Pattern="Pattern 26"
			PatternInstance Time="26" Pattern="Pattern 27"
			PatternInstance Time="27" Pattern="Pattern 28"
			PatternInstance Time="28" Pattern="Pattern 29"
			PatternInstance Time="29" Pattern="Pattern 30"
		Channel Type="Square2"
			Pattern Name="Pattern 1"
				Note Time="0" Value="A#3" Duration="100" Instrument="Duty2Main"
				Note Time="100" Value="F3" Duration="20" Instrument="Duty2Main"
				Note Time="120" Value="F3" Duration="20" Instrument="Duty2Main"
				Note Time="140" Value="A#3" Duration="20" Instrument="Duty2Main"
			Pattern Name="Pattern 2"
				Note Time="0" Value="G#3" Duration="10" Instrument="Duty2Main"
				Note Time="10" Value="F#3" Duration="10" Instrument="Duty2Main"
				Note Time="20" Value="G#3" Duration="127" Instrument="Duty2Main"
			Pattern Name="Pattern 3"
				Note Time="0" Value="A#3" Duration="100" Instrument="Duty2Main"
				Note Time="100" Value="F#3" Duration="20" Instrument="Duty2Main"
				Note Time="120" Value="F#3" Duration="20" Instrument="Duty2Main"
				Note Time="140" Value="A#3" Duration="20" Instrument="Duty2Main"
			Pattern Name="Pattern 4"
				Note Time="0" Value="A3" Duration="10" Instrument="Duty2Main"
				Note Time="10" Value="G3" Duration="10" Instrument="Duty2Main"
				Note Time="20" Value="A3" Duration="127" Instrument="Duty2Main"
			Pattern Name="Pattern 5"
				Note Time="0" Value="C#2" Duration="32" Instrument="Duty2IntroMuted"
			Pattern Name="Pattern 6"
				Note Time="0" Value="C#2" Duration="32" Instrument="Duty2IntroMuted"
			Pattern Name="Pattern 7"
				Note Time="0" Value="A#3" Duration="32" Instrument="Duty2IntroMuted"
				Note Time="40" Value="F3" Duration="32" Instrument="Duty2IntroMuted"
				Note Time="100" Value="A#3" Duration="20" Instrument="Duty2IntroMuted"
				Note Time="120" Value="A#3" Duration="10" Instrument="Duty2IntroMuted"
				Note Time="130" Value="C4" Duration="10" Instrument="Duty2IntroMuted"
				Note Time="140" Value="D4" Duration="10" Instrument="Duty2IntroMuted"
				Note Time="150" Value="D#4" Duration="10" Instrument="Duty2IntroMuted"
			Pattern Name="Pattern 8"
				Note Time="0" Value="F4" Duration="32" Instrument="Duty2IntroMuted"
			Pattern Name="Pattern 9"
				Note Time="0" Value="A#3" Duration="32" Instrument="Duty2IntroMuted"
				Note Time="40" Value="F3" Duration="32" Instrument="Duty2IntroMuted"
				Note Time="100" Value="A#3" Duration="20" Instrument="Duty2IntroMuted"
				Note Time="120" Value="A#3" Duration="10" Instrument="Duty2IntroMuted"
				Note Time="130" Value="C4" Duration="10" Instrument="Duty2IntroMuted"
				Note Time="140" Value="D4" Duration="10" Instrument="Duty2IntroMuted"
				Note Time="150" Value="D#4" Duration="10" Instrument="Duty2IntroMuted"
			Pattern Name="Pattern 10"
				Note Time="0" Value="F4" Duration="32" Instrument="Duty2IntroMuted"
			Pattern Name="Pattern 11"
				Note Time="0" Value="A#3" Duration="40" Instrument="Duty2Main"
				Note Time="40" Value="F3" Duration="60" Instrument="Duty2Main"
				Note Time="100" Value="A#3" Duration="20" Instrument="Duty2Main"
				Note Time="120" Value="A#3" Duration="10" Instrument="Duty2Main"
				Note Time="130" Value="C4" Duration="10" Instrument="Duty2Main"
				Note Time="140" Value="D4" Duration="10" Instrument="Duty2Main"
				Note Time="150" Value="D#4" Duration="10" Instrument="Duty2Main"
			Pattern Name="Pattern 12"
				Note Time="0" Value="F4" Duration="99" Instrument="Duty2Main"
				Note Time="99" Value="F4" Duration="20" Instrument="Duty2Main"
				Note Time="119" Value="F4" Duration="14" Instrument="Duty2Main"
				Note Time="133" Value="F#4" Duration="13" Instrument="Duty2Main"
				Note Time="146" Value="G#4" Duration="14" Instrument="Duty2Main"
			Pattern Name="Pattern 13"
				Note Time="0" Value="A#4" Duration="105" Instrument="Duty2Main"
				Note Time="105" Value="A#4" Duration="14" Instrument="Duty2Main"
				Note Time="119" Value="A#4" Duration="13" Instrument="Duty2Main"
				Note Time="132" Value="G#4" Duration="14" Instrument="Duty2Main"
				Note Time="146" Value="F#4" Duration="14" Instrument="Duty2Main"
			Pattern Name="Pattern 14"
				Note Time="0" Value="G#4" Duration="27" Instrument="Duty2Main"
				Note Time="27" Value="F#4" Duration="13" Instrument="Duty2Main"
				Note Time="40" Value="F4" Duration="79" Instrument="Duty2Main"
				Note Time="119" Value="F4" Duration="41" Instrument="Duty2Main"
			Pattern Name="Pattern 15"
				Note Time="0" Value="D#4" Duration="18" Instrument="Duty2Main"
				Note Time="18" Value="D#4" Duration="12" Instrument="Duty2Main"
				Note Time="30" Value="F4" Duration="10" Instrument="Duty2Main"
				Note Time="40" Value="F#4" Duration="80" Instrument="Duty2Main"
				Note Time="120" Value="F4" Duration="20" Instrument="Duty2Main"
				Note Time="140" Value="D#4" Duration="20" Instrument="Duty2Main"
			Pattern Name="Pattern 16"
				Note Time="0" Value="C#4" Duration="20" Instrument="Duty2Main"
				Note Time="20" Value="C#4" Duration="10" Instrument="Duty2Main"
				Note Time="30" Value="D#4" Duration="10" Instrument="Duty2Main"
				Note Time="40" Value="F4" Duration="80" Instrument="Duty2Main"
				Note Time="120" Value="D#4" Duration="20" Instrument="Duty2Main"
				Note Time="140" Value="C#4" Duration="20" Instrument="Duty2Main"
			Pattern Name="Pattern 17"
				Note Time="0" Value="E3" Duration="40" Instrument="Duty2Main"
				Note Time="40" Value="E3" Duration="20" Instrument="Duty2Main"
				Note Time="60" Value="E3" Duration="10" Instrument="Duty2Main"
				Note Time="70" Value="F3" Duration="10" Instrument="Duty2Main"
				Note Time="80" Value="G3" Duration="20" Instrument="Duty2Main"
				Note Time="100" Value="G3" Duration="10" Instrument="Duty2Main"
				Note Time="110" Value="A3" Duration="10" Instrument="Duty2Main"
				Note Time="120" Value="A#3" Duration="20" Instrument="Duty2Main"
				Note Time="140" Value="C4" Duration="20" Instrument="Duty2Main"
			Pattern Name="Pattern 18"
				Note Time="0" Value="A2" Duration="20" Instrument="Duty2Main"
				Note Time="20" Value="A2" Duration="10" Instrument="Duty2Main"
				Note Time="30" Value="A2" Duration="10" Instrument="Duty2Main"
				Note Time="40" Value="G#2" Duration="20" Instrument="Duty2Main"
				Note Time="60" Value="G#2" Duration="10" Instrument="Duty2Main"
				Note Time="70" Value="G#2" Duration="10" Instrument="Duty2Main"
				Note Time="80" Value="G2" Duration="20" Instrument="Duty2Main"
				Note Time="100" Value="G2" Duration="10" Instrument="Duty2Main"
				Note Time="110" Value="G2" Duration="10" Instrument="Duty2Main"
				Note Time="120" Value="F#2" Duration="20" Instrument="Duty2Main"
				Note Time="140" Value="F#2" Duration="20" Instrument="Duty2Main"
			Pattern Name="Pattern 19"
				Note Time="0" Value="A#3" Duration="40" Instrument="Duty2Main"
				Note Time="40" Value="F3" Duration="60" Instrument="Duty2Main"
				Note Time="100" Value="A#3" Duration="20" Instrument="Duty2Main"
				Note Time="120" Value="A#3" Duration="10" Instrument="Duty2Main"
				Note Time="130" Value="C4" Duration="10" Instrument="Duty2Main"
				Note Time="140" Value="D4" Duration="10" Instrument="Duty2Main"
				Note Time="150" Value="D#4" Duration="10" Instrument="Duty2Main"
			Pattern Name="Pattern 20"
				Note Time="0" Value="F4" Duration="100" Instrument="Duty2Main"
				Note Time="100" Value="F4" Duration="20" Instrument="Duty2Main"
				Note Time="120" Value="F4" Duration="13" Instrument="Duty2Main"
				Note Time="133" Value="F#4" Duration="13" Instrument="Duty2Main"
				Note Time="146" Value="G#4" Duration="14" Instrument="Duty2Main"
			Pattern Name="Pattern 21"
				Note Time="0" Value="C#4" Duration="120" Instrument="Duty2Main"
				Note Time="120" Value="E4" Duration="40" Instrument="Duty2Main"
			Pattern Name="Pattern 22"
				Note Time="0" Value="D#4" Duration="40" Instrument="Duty2Main"
				Note Time="40" Value="C4" Duration="80" Instrument="Duty2Main"
				Note Time="120" Value="A3" Duration="40" Instrument="Duty2Main"
			Pattern Name="Pattern 23"
				Note Time="0" Value="E1" Duration="13" Instrument="Duty2Main"
				Note Time="13" Value="A#1" Duration="13" Instrument="Duty2Main"
				Note Time="26" Value="C#2" Duration="13" Instrument="Duty2Main"
				Note Time="39" Value="E2" Duration="13" Instrument="Duty2Main"
				Note Time="52" Value="A#2" Duration="14" Instrument="Duty2Main"
				Note Time="66" Value="C#3" Duration="14" Instrument="Duty2Main"
				Note Time="80" Value="E3" Duration="80" Instrument="Duty2Main"
			Pattern Name="Pattern 24"
				Note Time="0" Value="F3" Duration="40" Instrument="Duty2Main"
				Note Time="40" Value="F2" Duration="13" Instrument="Duty2Main"
				Note Time="53" Value="F2" Duration="13" Instrument="Duty2Main"
				Note Time="66" Value="F2" Duration="14" Instrument="Duty2Main"
				Note Time="80" Value="F2" Duration="80" Instrument="Duty2Main"
			Pattern Name="Pattern 25"
				Note Time="0" Value="E1" Duration="13" Instrument="Duty2Main"
				Note Time="13" Value="A#1" Duration="13" Instrument="Duty2Main"
				Note Time="26" Value="C#2" Duration="13" Instrument="Duty2Main"
				Note Time="39" Value="E2" Duration="13" Instrument="Duty2Main"
				Note Time="52" Value="A#2" Duration="14" Instrument="Duty2Main"
				Note Time="66" Value="C#3" Duration="14" Instrument="Duty2Main"
				Note Time="80" Value="E3" Duration="80" Instrument="Duty2Main"
			Pattern Name="Pattern 26"
				Note Time="0" Value="F3" Duration="40" Instrument="Duty2Main"
				Note Time="40" Value="F2" Duration="13" Instrument="Duty2Main"
				Note Time="53" Value="F2" Duration="13" Instrument="Duty2Main"
				Note Time="66" Value="F2" Duration="14" Instrument="Duty2Main"
				Note Time="80" Value="F2" Duration="80" Instrument="Duty2Main"
			Pattern Name="Pattern 27"
				Note Time="0" Value="F#3" Duration="120" Instrument="Duty2Main"
				Note Time="120" Value="B3" Duration="40" Instrument="Duty2Main"
			Pattern Name="Pattern 28"
				Note Time="0" Value="A#3" Duration="40" Instrument="Duty2Main"
				Note Time="40" Value="F3" Duration="80" Instrument="Duty2Main"
				Note Time="120" Value="C#3" Duration="40" Instrument="Duty2Main"
			Pattern Name="Pattern 29"
				Note Time="0" Value="E3" Duration="40" Instrument="Duty2Main"
				Note Time="40" Value="E3" Duration="20" Instrument="Duty2Main"
				Note Time="60" Value="E3" Duration="10" Instrument="Duty2Main"
				Note Time="70" Value="F3" Duration="10" Instrument="Duty2Main"
				Note Time="80" Value="G3" Duration="20" Instrument="Duty2Main"
				Note Time="100" Value="G3" Duration="10" Instrument="Duty2Main"
				Note Time="110" Value="A3" Duration="10" Instrument="Duty2Main"
				Note Time="120" Value="A#3" Duration="20" Instrument="Duty2Main"
				Note Time="140" Value="C4" Duration="20" Instrument="Duty2Main"
			Pattern Name="Pattern 30"
				Note Time="0" Value="A2" Duration="20" Instrument="Duty2Main"
				Note Time="20" Value="A2" Duration="10" Instrument="Duty2Main"
				Note Time="30" Value="A2" Duration="10" Instrument="Duty2Main"
				Note Time="40" Value="G#2" Duration="20" Instrument="Duty2Main"
				Note Time="60" Value="G#2" Duration="10" Instrument="Duty2Main"
				Note Time="70" Value="G#2" Duration="10" Instrument="Duty2Main"
				Note Time="80" Value="G2" Duration="20" Instrument="Duty2Main"
				Note Time="100" Value="G2" Duration="10" Instrument="Duty2Main"
				Note Time="110" Value="G2" Duration="10" Instrument="Duty2Main"
				Note Time="120" Value="F#2" Duration="20" Instrument="Duty2Main"
				Note Time="140" Value="F#2" Duration="20" Instrument="Duty2Main"
			PatternInstance Time="0" Pattern="Pattern 1"
			PatternInstance Time="1" Pattern="Pattern 2"
			PatternInstance Time="2" Pattern="Pattern 3"
			PatternInstance Time="3" Pattern="Pattern 4"
			PatternInstance Time="4" Pattern="Pattern 5"
			PatternInstance Time="5" Pattern="Pattern 6"
			PatternInstance Time="6" Pattern="Pattern 7"
			PatternInstance Time="7" Pattern="Pattern 8"
			PatternInstance Time="8" Pattern="Pattern 9"
			PatternInstance Time="9" Pattern="Pattern 10"
			PatternInstance Time="10" Pattern="Pattern 11"
			PatternInstance Time="11" Pattern="Pattern 12"
			PatternInstance Time="12" Pattern="Pattern 13"
			PatternInstance Time="13" Pattern="Pattern 14"
			PatternInstance Time="14" Pattern="Pattern 15"
			PatternInstance Time="15" Pattern="Pattern 16"
			PatternInstance Time="16" Pattern="Pattern 17"
			PatternInstance Time="17" Pattern="Pattern 18"
			PatternInstance Time="18" Pattern="Pattern 19"
			PatternInstance Time="19" Pattern="Pattern 20"
			PatternInstance Time="20" Pattern="Pattern 21"
			PatternInstance Time="21" Pattern="Pattern 22"
			PatternInstance Time="22" Pattern="Pattern 23"
			PatternInstance Time="23" Pattern="Pattern 24"
			PatternInstance Time="24" Pattern="Pattern 25"
			PatternInstance Time="25" Pattern="Pattern 26"
			PatternInstance Time="26" Pattern="Pattern 27"
			PatternInstance Time="27" Pattern="Pattern 28"
			PatternInstance Time="28" Pattern="Pattern 29"
			PatternInstance Time="29" Pattern="Pattern 30"
		Channel Type="Triangle"
			Pattern Name="Pattern 1"
				Note Time="0" Value="A#2" Duration="40" Instrument="BassVib"
				Note Time="40" Value="F3" Duration="40" Instrument="BassVib"
				Note Time="80" Value="A#3" Duration="80" Instrument="BassVib"
			Pattern Name="Pattern 2"
				Note Time="0" Value="G#2" Duration="40" Instrument="BassVib"
				Note Time="40" Value="D#3" Duration="40" Instrument="BassVib"
				Note Time="80" Value="G#3" Duration="80" Instrument="BassVib"
			Pattern Name="Pattern 3"
				Note Time="0" Value="F#2" Duration="40" Instrument="BassVib"
				Note Time="40" Value="C#3" Duration="40" Instrument="BassVib"
				Note Time="80" Value="F#3" Duration="80" Instrument="BassVib"
			Pattern Name="Pattern 4"
				Note Time="0" Value="F2" Duration="40" Instrument="BassVib"
				Note Time="40" Value="C3" Duration="40" Instrument="BassVib"
				Note Time="80" Value="F3" Duration="80" Instrument="BassVib"
			Pattern Name="Bass A#"
				Note Time="0" Value="A#2" Duration="8" Instrument="Bass"
				Note Time="20" Value="A#2" Duration="8" Instrument="Bass"
				Note Time="30" Value="A#2" Duration="8" Instrument="Bass"
				Note Time="40" Value="A#2" Duration="8" Instrument="Bass"
				Note Time="60" Value="A#2" Duration="8" Instrument="Bass"
				Note Time="70" Value="A#2" Duration="8" Instrument="Bass"
				Note Time="80" Value="A#2" Duration="8" Instrument="Bass"
				Note Time="100" Value="A#2" Duration="8" Instrument="Bass"
				Note Time="110" Value="A#2" Duration="8" Instrument="Bass"
				Note Time="120" Value="A#2" Duration="8" Instrument="Bass"
				Note Time="140" Value="A#2" Duration="8" Instrument="Bass"
				Note Time="150" Value="A#2" Duration="8" Instrument="Bass"
			Pattern Name="Bass G#"
				Note Time="0" Value="G#2" Duration="8" Instrument="Bass"
				Note Time="20" Value="G#2" Duration="8" Instrument="Bass"
				Note Time="30" Value="G#2" Duration="8" Instrument="Bass"
				Note Time="40" Value="G#2" Duration="8" Instrument="Bass"
				Note Time="60" Value="G#2" Duration="8" Instrument="Bass"
				Note Time="70" Value="G#2" Duration="8" Instrument="Bass"
				Note Time="80" Value="G#2" Duration="8" Instrument="Bass"
				Note Time="100" Value="G#2" Duration="8" Instrument="Bass"
				Note Time="110" Value="G#2" Duration="8" Instrument="Bass"
				Note Time="120" Value="G#2" Duration="8" Instrument="Bass"
				Note Time="140" Value="G#2" Duration="8" Instrument="Bass"
				Note Time="150" Value="G#2" Duration="8" Instrument="Bass"
			Pattern Name="Bass F#"
				Note Time="0" Value="F#2" Duration="8" Instrument="Bass"
				Note Time="20" Value="F#2" Duration="8" Instrument="Bass"
				Note Time="30" Value="F#2" Duration="8" Instrument="Bass"
				Note Time="40" Value="F#2" Duration="8" Instrument="Bass"
				Note Time="60" Value="F#2" Duration="8" Instrument="Bass"
				Note Time="70" Value="F#2" Duration="8" Instrument="Bass"
				Note Time="80" Value="F#2" Duration="8" Instrument="Bass"
				Note Time="100" Value="F#2" Duration="8" Instrument="Bass"
				Note Time="110" Value="F#2" Duration="8" Instrument="Bass"
				Note Time="120" Value="F#2" Duration="8" Instrument="Bass"
				Note Time="140" Value="F#2" Duration="8" Instrument="Bass"
				Note Time="150" Value="F#2" Duration="8" Instrument="Bass"
			Pattern Name="Bass F"
				Note Time="0" Value="F2" Duration="8" Instrument="Bass"
				Note Time="20" Value="F2" Duration="8" Instrument="Bass"
				Note Time="30" Value="F2" Duration="8" Instrument="Bass"
				Note Time="40" Value="F2" Duration="8" Instrument="Bass"
				Note Time="60" Value="F2" Duration="8" Instrument="Bass"
				Note Time="70" Value="F2" Duration="8" Instrument="Bass"
				Note Time="80" Value="F2" Duration="8" Instrument="Bass"
				Note Time="100" Value="F2" Duration="8" Instrument="Bass"
				Note Time="110" Value="F2" Duration="8" Instrument="Bass"
				Note Time="120" Value="F2" Duration="8" Instrument="Bass"
				Note Time="140" Value="F2" Duration="8" Instrument="Bass"
				Note Time="150" Value="F2" Duration="8" Instrument="Bass"
			Pattern Name="Bass C#"
				Note Time="0" Value="C#3" Duration="8" Instrument="Bass"
				Note Time="20" Value="C#3" Duration="8" Instrument="Bass"
				Note Time="30" Value="C#3" Duration="8" Instrument="Bass"
				Note Time="40" Value="C#3" Duration="8" Instrument="Bass"
				Note Time="60" Value="C#3" Duration="8" Instrument="Bass"
				Note Time="70" Value="C#3" Duration="8" Instrument="Bass"
				Note Time="80" Value="C#3" Duration="8" Instrument="Bass"
				Note Time="100" Value="C#3" Duration="8" Instrument="Bass"
				Note Time="110" Value="C#3" Duration="8" Instrument="Bass"
				Note Time="120" Value="C#3" Duration="8" Instrument="Bass"
				Note Time="140" Value="C#3" Duration="8" Instrument="Bass"
				Note Time="150" Value="C#3" Duration="8" Instrument="Bass"
			Pattern Name="Bass B"
				Note Time="0" Value="B2" Duration="8" Instrument="Bass"
				Note Time="20" Value="B2" Duration="8" Instrument="Bass"
				Note Time="30" Value="B2" Duration="8" Instrument="Bass"
				Note Time="40" Value="B2" Duration="8" Instrument="Bass"
				Note Time="60" Value="B2" Duration="8" Instrument="Bass"
				Note Time="70" Value="B2" Duration="8" Instrument="Bass"
				Note Time="80" Value="B2" Duration="8" Instrument="Bass"
				Note Time="100" Value="B2" Duration="8" Instrument="Bass"
				Note Time="110" Value="B2" Duration="8" Instrument="Bass"
				Note Time="120" Value="B2" Duration="8" Instrument="Bass"
				Note Time="140" Value="B2" Duration="8" Instrument="Bass"
				Note Time="150" Value="B2" Duration="8" Instrument="Bass"
			Pattern Name="Bass C"
				Note Time="0" Value="C3" Duration="8" Instrument="Bass"
				Note Time="20" Value="C3" Duration="8" Instrument="Bass"
				Note Time="30" Value="C3" Duration="8" Instrument="Bass"
				Note Time="40" Value="C3" Duration="8" Instrument="Bass"
				Note Time="60" Value="C3" Duration="8" Instrument="Bass"
				Note Time="70" Value="C3" Duration="8" Instrument="Bass"
				Note Time="80" Value="C3" Duration="8" Instrument="Bass"
				Note Time="100" Value="C3" Duration="8" Instrument="Bass"
				Note Time="110" Value="C3" Duration="8" Instrument="Bass"
				Note Time="120" Value="C3" Duration="8" Instrument="Bass"
				Note Time="140" Value="C3" Duration="8" Instrument="Bass"
				Note Time="150" Value="C3" Duration="8" Instrument="Bass"
			Pattern Name="Bass Walk"
				Note Time="0" Value="F3" Duration="8" Instrument="Bass"
				Note Time="20" Value="F2" Duration="8" Instrument="Bass"
				Note Time="30" Value="F2" Duration="8" Instrument="Bass"
				Note Time="40" Value="F2" Duration="8" Instrument="Bass"
				Note Time="60" Value="F2" Duration="8" Instrument="Bass"
				Note Time="70" Value="F2" Duration="8" Instrument="Bass"
				Note Time="80" Value="F2" Duration="8" Instrument="Bass"
				Note Time="100" Value="F2" Duration="8" Instrument="Bass"
				Note Time="110" Value="F2" Duration="8" Instrument="Bass"
				Note Time="120" Value="F2" Duration="8" Instrument="Bass"
				Note Time="140" Value="G2" Duration="8" Instrument="Bass"
				Note Time="150" Value="A2" Duration="8" Instrument="Bass"
			Pattern Name="Bass E"
				Note Time="0" Value="E2" Duration="8" Instrument="Bass"
				Note Time="20" Value="E2" Duration="8" Instrument="Bass"
				Note Time="30" Value="E2" Duration="8" Instrument="Bass"
				Note Time="40" Value="E2" Duration="8" Instrument="Bass"
				Note Time="60" Value="E2" Duration="8" Instrument="Bass"
				Note Time="70" Value="E2" Duration="8" Instrument="Bass"
				Note Time="80" Value="E2" Duration="8" Instrument="Bass"
				Note Time="100" Value="E2" Duration="8" Instrument="Bass"
				Note Time="110" Value="E2" Duration="8" Instrument="Bass"
				Note Time="120" Value="E2" Duration="8" Instrument="Bass"
				Note Time="140" Value="E2" Duration="8" Instrument="Bass"
				Note Time="150" Value="E2" Duration="8" Instrument="Bass"
			PatternInstance Time="0" Pattern="Pattern 1"
			PatternInstance Time="1" Pattern="Pattern 2"
			PatternInstance Time="2" Pattern="Pattern 3"
			PatternInstance Time="3" Pattern="Pattern 4"
			PatternInstance Time="4" Pattern="Bass A#"
			PatternInstance Time="5" Pattern="Bass A#"
			PatternInstance Time="6" Pattern="Bass A#"
			PatternInstance Time="7" Pattern="Bass G#"
			PatternInstance Time="8" Pattern="Bass F#"
			PatternInstance Time="9" Pattern="Bass F"
			PatternInstance Time="10" Pattern="Bass A#"
			PatternInstance Time="11" Pattern="Bass G#"
			PatternInstance Time="12" Pattern="Bass F#"
			PatternInstance Time="13" Pattern="Bass C#"
			PatternInstance Time="14" Pattern="Bass B"
			PatternInstance Time="15" Pattern="Bass A#"
			PatternInstance Time="16" Pattern="Bass C"
			PatternInstance Time="17" Pattern="Bass Walk"
			PatternInstance Time="18" Pattern="Bass A#"
			PatternInstance Time="19" Pattern="Bass G#"
			PatternInstance Time="20" Pattern="Bass F#"
			PatternInstance Time="21" Pattern="Bass F"
			PatternInstance Time="22" Pattern="Bass E"
			PatternInstance Time="23" Pattern="Bass F"
			PatternInstance Time="24" Pattern="Bass E"
			PatternInstance Time="25" Pattern="Bass F"
			PatternInstance Time="26" Pattern="Bass B"
			PatternInstance Time="27" Pattern="Bass A#"
			PatternInstance Time="28" Pattern="Bass C"
			PatternInstance Time="29" Pattern="Bass Walk"
		Channel Type="Noise"
			Pattern Name="Drum Loop"
				Note Time="0" Value="G3" Duration="1" Instrument="Snare" Volume="7"
				Note Time="20" Value="G3" Duration="1" Instrument="Snare"
				Note Time="30" Value="G3" Duration="1" Instrument="Snare"
				Note Time="40" Value="G3" Duration="1" Instrument="Snare"
				Note Time="60" Value="G3" Duration="1" Instrument="Snare"
				Note Time="70" Value="G3" Duration="1" Instrument="Snare"
				Note Time="80" Value="G3" Duration="1" Instrument="Snare"
				Note Time="100" Value="G3" Duration="1" Instrument="Snare"
				Note Time="110" Value="G3" Duration="1" Instrument="Snare"
				Note Time="120" Value="G3" Duration="1" Instrument="Snare"
				Note Time="140" Value="G3" Duration="1" Instrument="Snare"
				Note Time="150" Value="G3" Duration="1" Instrument="Snare"
			PatternInstance Time="4" Pattern="Drum Loop"
			PatternInstance Time="5" Pattern="Drum Loop"
			PatternInstance Time="6" Pattern="Drum Loop"
			PatternInstance Time="7" Pattern="Drum Loop"
			PatternInstance Time="8" Pattern="Drum Loop"
			PatternInstance Time="9" Pattern="Drum Loop"
			PatternInstance Time="10" Pattern="Drum Loop"
			PatternInstance Time="11" Pattern="Drum Loop"
			PatternInstance Time="12" Pattern="Drum Loop"
			PatternInstance Time="13" Pattern="Drum Loop"
			PatternInstance Time="14" Pattern="Drum Loop"
			PatternInstance Time="15" Pattern="Drum Loop"
			PatternInstance Time="16" Pattern="Drum Loop"
			PatternInstance Time="17" Pattern="Drum Loop"
			PatternInstance Time="18" Pattern="Drum Loop"
			PatternInstance Time="19" Pattern="Drum Loop"
			PatternInstance Time="20" Pattern="Drum Loop"
			PatternInstance Time="21" Pattern="Drum Loop"
			PatternInstance Time="22" Pattern="Drum Loop"
			PatternInstance Time="23" Pattern="Drum Loop"
			PatternInstance Time="24" Pattern="Drum Loop"
			PatternInstance Time="25" Pattern="Drum Loop"
			PatternInstance Time="26" Pattern="Drum Loop"
			PatternInstance Time="27" Pattern="Drum Loop"
			PatternInstance Time="28" Pattern="Drum Loop"
			PatternInstance Time="29" Pattern="Drum Loop"
		Channel Type="DPCM"
	Song Name="Overworld" Length="24" LoopPoint="4" PatternLength="16" BeatLength="4" NoteLength="6" Groove="6" GroovePaddingMode="Middle"
		Channel Type="Square1"
			Pattern Name="Pattern 1"
				Note Time="0" Value="D3" Duration="32" Instrument="Lead"
				Note Time="64" Value="D3" Duration="8" Instrument="Lead"
				Note Time="72" Value="D3" Duration="8" Instrument="Lead"
				Note Time="80" Value="D3" Duration="8" Instrument="Lead"
				Note Time="88" Value="D3" Duration="8" Instrument="Lead"
			Pattern Name="Pattern 2"
				Note Time="0" Value="C3" Duration="8" Instrument="Lead"
				Note Time="16" Value="C3" Duration="8" Instrument="Lead"
				Note Time="24" Value="C3" Duration="24" Instrument="Lead"
				Note Time="72" Value="C3" Duration="8" Instrument="Lead"
				Note Time="80" Value="C3" Duration="8" Instrument="Lead"
				Note Time="88" Value="C3" Duration="8" Instrument="Lead"
			Pattern Name="Pattern 3"
				Note Time="0" Value="C#3" Duration="8" Instrument="Lead"
				Note Time="16" Value="C#3" Duration="8" Instrument="Lead"
				Note Time="24" Value="C#3" Duration="24" Instrument="Lead"
				Note Time="64" Value="C#3" Duration="8" Instrument="Lead"
				Note Time="72" Value="C#3" Duration="8" Instrument="Lead"
				Note Time="80" Value="C#3" Duration="8" Instrument="Lead"
				Note Time="88" Value="C#3" Duration="8" Instrument="Lead"
			Pattern Name="Pattern 4"
				Note Time="0" Value="C#3" Duration="6" Instrument="Lead"
				Note Time="12" Value="A2" Duration="6" Instrument="Lead" FinePitch="1"
				Note Time="18" Value="A2" Duration="6" Instrument="Lead"
				Note Time="24" Value="A2" Duration="12" Instrument="Lead"
				Note Time="36" Value="A2" Duration="6" Instrument="Lead"
				Note Time="42" Value="A2" Duration="6" Instrument="Lead"
				Note Time="48" Value="A2" Duration="12" Instrument="Lead"
				Note Time="60" Value="A2" Duration="6" Instrument="Lead"
				Note Time="66" Value="A2" Duration="6" Instrument="Lead"
				Note Time="72" Value="A2" Duration="12" Instrument="Lead"
				Note Time="84" Value="A2" Duration="12" Instrument="Lead"
			Pattern Name="Pattern 5"
				Note Time="0" Value="D3" Duration="12" Instrument="Lead" FinePitch="0"
				Note Time="24" Value="D3" Duration="8" Instrument="Lead"
				Note Time="32" Value="D3" Duration="8" Instrument="Lead"
				Note Time="40" Value="C3" Duration="8" Instrument="Lead"
				Note Time="48" Value="D3" Duration="12" Instrument="Lead"
				Note Time="66" Value="D3" Duration="6" Instrument="Lead"
				Note Time="72" Value="D3" Duration="6" Instrument="Lead"
				Note Time="78" Value="D#3" Duration="6" Instrument="Lead"
				Note Time="84" Value="F3" Duration="6" Instrument="Lead" FinePitch="1"
				Note Time="90" Value="G3" Duration="6" Instrument="Lead"
			Pattern Name="Pattern 6"
				Note Time="0" Value="G#3" Duration="12" Instrument="Lead"
				Note Time="18" Value="A#3" Duration="6" Instrument="Lead" FinePitch="0"
				Note Time="24" Value="A#3" Duration="6" Instrument="Lead"
				Note Time="30" Value="C4" Duration="6" Instrument="Lead"
				Note Time="36" Value="D4" Duration="6" Instrument="Lead" FinePitch="1"
				Note Time="42" Value="D#4" Duration="6" Instrument="Lead" FinePitch="0"
				Note Time="48" Value="F4" Duration="24" Instrument="Lead" FinePitch="1"
				Note Time="72" Value="G#3" Duration="8" Instrument="Lead"
				Note Time="80" Value="A#3" Duration="8" Instrument="Lead" FinePitch="0"
				Note Time="88" Value="C4" Duration="8" Instrument="Lead"
			Pattern Name="Pattern 7"
				Note Time="0" Value="C#4" Duration="12" Instrument="Lead"
				Note Time="18" Value="F#3" Duration="6" Instrument="Lead" FinePitch="1"
				Note Time="24" Value="F#3" Duration="6" Instrument="Lead"
				Note Time="30" Value="G#3" Duration="6" Instrument="Lead"
				Note Time="36" Value="A#3" Duration="6" Instrument="Lead" FinePitch="0"
				Note Time="42" Value="C4" Duration="6" Instrument="Lead"
				Note Time="48" Value="C#4" Duration="8" Instrument="Lead"
				Note Time="64" Value="C#4" Duration="8" Instrument="Lead"
				Note Time="72" Value="C#4" Duration="8" Instrument="Lead"
				Note Time="80" Value="C4" Duration="8" Instrument="Lead"
				Note Time="88" Value="A#3" Duration="8" Instrument="Lead"
			Pattern Name="Pattern 8"
				Note Time="0" Value="C#4" Duration="8" Instrument="Lead"
				Note Time="16" Value="G#3" Duration="8" Instrument="Lead" FinePitch="1"
				Note Time="24" Value="G#3" Duration="8" Instrument="Lead"
				Note Time="32" Value="G#3" Duration="8" Instrument="Lead"
				Note Time="40" Value="F#3" Duration="8" Instrument="Lead"
				Note Time="48" Value="G#3" Duration="8" Instrument="Lead"
				Note Time="64" Value="G#3" Duration="8" Instrument="Lead"
				Note Time="72" Value="G#3" Duration="8" Instrument="Lead"
				Note Time="80" Value="F#3" Duration="8" Instrument="Lead"
				Note Time="88" Value="G#3" Duration="8" Instrument="Lead"
			Pattern Name="Pattern 9"
				Note Time="0" Value="F#3" Duration="12" Instrument="Lead"
				Note Time="12" Value="F#3" Duration="6" Instrument="Lead"
				Note Time="18" Value="F3" Duration="6" Instrument="Lead"
				Note Time="24" Value="F#3" Duration="12" Instrument="Lead"
				Note Time="36" Value="F#3" Duration="6" Instrument="Lead"
				Note Time="42" Value="G#3" Duration="6" Instrument="Lead"
				Note Time="48" Value="A#3" Duration="24" Instrument="Lead" FinePitch="0"
				Note Time="72" Value="G#3" Duration="12" Instrument="Lead" FinePitch="1"
				Note Time="84" Value="F#3" Duration="12" Instrument="Lead"
			Pattern Name="Pattern 10"
				Note Time="0" Value="F3" Duration="12" Instrument="Lead"
				Note Time="12" Value="F3" Duration="6" Instrument="Lead"
				Note Time="18" Value="D#3" Duration="6" Instrument="Lead" FinePitch="0"
				Note Time="24" Value="F3" Duration="12" Instrument="Lead" FinePitch="1"
				Note Time="36" Value="F3" Duration="6" Instrument="Lead"
				Note Time="42" Value="F#3" Duration="6" Instrument="Lead"
				Note Time="48" Value="G#3" Duration="24" Instrument="Lead"
				Note Time="72" Value="F#3" Duration="12" Instrument="Lead"
				Note Time="84" Value="F3" Duration="12" Instrument="Lead"
			Pattern Name="Bridge1"
				Note Time="0" Value="E3" Duration="24" Instrument="Lead"
				Note Time="24" Value="E3" Duration="12" Instrument="Lead"
				Note Time="36" Value="E3" Duration="6" Instrument="Lead"
				Note Time="42" Value="F3" Duration="6" Instrument="Lead"
				Note Time="48" Value="G3" Duration="12" Instrument="Lead"
				Note Time="60" Value="G3" Duration="6" Instrument="Lead"
				Note Time="66" Value="A3" Duration="6" Instrument="Lead"
				Note Time="72" Value="A#3" Duration="12" Instrument="Lead" FinePitch="0"
				Note Time="84" Value="C4" Duration="12" Instrument="Lead"
			Pattern Name="Bridge2"
				Note Time="0" Value="A3" Duration="12" Instrument="Lead" FinePitch="1"
				Note Time="12" Value="A2" Duration="6" Instrument="Lead"
				Note Time="18" Value="A2" Duration="6" Instrument="Lead"
				Note Time="24" Value="A2" Duration="12" Instrument="Lead"
				Note Time="36" Value="A2" Duration="6" Instrument="Lead"
				Note Time="42" Value="A2" Duration="6" Instrument="Lead"
				Note Time="48" Value="A2" Duration="12" Instrument="Lead"
				Note Time="60" Value="A2" Duration="6" Instrument="Lead"
				Note Time="66" Value="A2" Duration="6" Instrument="Lead"
				Note Time="72" Value="A2" Duration="12" Instrument="Lead"
				Note Time="84" Value="A2" Duration="12" Instrument="Lead"
			Pattern Name="Pattern 15"
				Note Time="0" Value="C#4" Duration="32" Instrument="Lead"
				Note Time="72" Value="E4" Duration="24" Instrument="Lead"
			Pattern Name="Pattern 16"
				Note Time="0" Value="D#4" Duration="12" Instrument="Lead"
				Note Time="24" Value="C4" Duration="32" Instrument="Lead"
				Note Time="72" Value="A3" Duration="24" Instrument="Lead" FinePitch="1"
			Pattern Name="Pattern 17"
				Note Time="0" Value="B3" Duration="32" Instrument="Lead"
				Note Time="72" Value="C#4" Duration="24" Instrument="Lead" FinePitch="0"
			Pattern Name="Pattern 18"
				Note Time="0" Value="C4" Duration="12" Instrument="Lead"
				Note Time="24" Value="A3" Duration="32" Instrument="Lead" FinePitch="1"
				Note Time="72" Value="A3" Duration="24" Instrument="Lead"
			Pattern Name="Pattern 21"
				Note Time="0" Value="F#3" Duration="32" Instrument="Lead"
				Note Time="72" Value="B3" Duration="24" Instrument="Lead"
			Pattern Name="Pattern 22"
				Note Time="0" Value="A#3" Duration="12" Instrument="Lead" FinePitch="0"
				Note Time="24" Value="F3" Duration="32" Instrument="Lead" FinePitch="1"
				Note Time="72" Value="C#3" Duration="24" Instrument="Lead" FinePitch="0"
			PatternInstance Time="0" Pattern="Pattern 1"
			PatternInstance Time="1" Pattern="Pattern 2"
			PatternInstance Time="2" Pattern="Pattern 3"
			PatternInstance Time="3" Pattern="Pattern 4"
			PatternInstance Time="4" Pattern="Pattern 5"
			PatternInstance Time="5" Pattern="Pattern 6"
			PatternInstance Time="6" Pattern="Pattern 7"
			PatternInstance Time="7" Pattern="Pattern 8"
			PatternInstance Time="8" Pattern="Pattern 9"
			PatternInstance Time="9" Pattern="Pattern 10"
			PatternInstance Time="10" Pattern="Bridge1"
			PatternInstance Time="11" Pattern="Bridge2"
			PatternInstance Time="12" Pattern="Pattern 5"
			PatternInstance Time="13" Pattern="Pattern 6"
			PatternInstance Time="14" Pattern="Pattern 15"
			PatternInstance Time="15" Pattern="Pattern 16"
			PatternInstance Time="16" Pattern="Pattern 17"
			PatternInstance Time="17" Pattern="Pattern 18"
			PatternInstance Time="18" Pattern="Pattern 17"
			PatternInstance Time="19" Pattern="Pattern 18"
			PatternInstance Time="20" Pattern="Pattern 21"
			PatternInstance Time="21" Pattern="Pattern 22"
			PatternInstance Time="22" Pattern="Bridge1"
			PatternInstance Time="23" Pattern="Bridge2"
		Channel Type="Square2"
			Pattern Name="Pattern 1"
				Note Time="0" Value="A#3" Duration="32" Instrument="Lead"
				Note Time="64" Value="A#3" Duration="8" Instrument="Lead"
				Note Time="72" Value="A#3" Duration="8" Instrument="Lead"
				Note Time="80" Value="A#3" Duration="8" Instrument="Lead"
				Note Time="88" Value="A#3" Duration="8" Instrument="Lead"
			Pattern Name="Pattern 2"
				Note Time="0" Value="A#3" Duration="8" Instrument="Lead"
				Note Time="16" Value="G#3" Duration="8" Instrument="Lead" FinePitch="1"
				Note Time="24" Value="A#3" Duration="24" Instrument="Lead" FinePitch="0"
				Note Time="64" Value="A#3" Duration="8" Instrument="Lead"
				Note Time="72" Value="A#3" Duration="8" Instrument="Lead"
				Note Time="80" Value="A#3" Duration="8" Instrument="Lead"
				Note Time="88" Value="A#3" Duration="8" Instrument="Lead"
			Pattern Name="Pattern 3"
				Note Time="0" Value="A#3" Duration="8" Instrument="Lead"
				Note Time="16" Value="G#3" Duration="8" Instrument="Lead" FinePitch="1"
				Note Time="24" Value="A#3" Duration="24" Instrument="Lead" FinePitch="0"
				Note Time="64" Value="A#3" Duration="8" Instrument="Lead"
				Note Time="72" Value="A#3" Duration="8" Instrument="Lead"
				Note Time="80" Value="A#3" Duration="8" Instrument="Lead"
				Note Time="88" Value="A#3" Duration="8" Instrument="Lead"
			Pattern Name="Pattern 4"
				Note Time="0" Value="A#3" Duration="6" Instrument="Lead"
				Note Time="12" Value="F3" Duration="6" Instrument="Lead" FinePitch="1"
				Note Time="18" Value="F3" Duration="6" Instrument="Lead"
				Note Time="24" Value="F3" Duration="6" Instrument="Lead"
				Note Time="36" Value="F3" Duration="6" Instrument="Lead"
				Note Time="42" Value="F3" Duration="6" Instrument="Lead"
				Note Time="48" Value="F3" Duration="6" Instrument="Lead"
				Note Time="60" Value="F3" Duration="6" Instrument="Lead"
				Note Time="66" Value="F3" Duration="6" Instrument="Lead"
				Note Time="72" Value="F3" Duration="12" Instrument="Lead"
				Note Time="84" Value="F3" Duration="12" Instrument="Lead"
			Pattern Name="Pattern 5"
				Note Time="0" Value="A#3" Duration="12" Instrument="Lead" FinePitch="0"
				Note Time="24" Value="F3" Duration="32" Instrument="Lead" FinePitch="1"
				Note Time="66" Value="A#3" Duration="6" Instrument="Lead" FinePitch="0"
				Note Time="72" Value="A#3" Duration="6" Instrument="Lead"
				Note Time="78" Value="C4" Duration="6" Instrument="Lead"
				Note Time="84" Value="D4" Duration="6" Instrument="Lead" FinePitch="1"
				Note Time="90" Value="D#4" Duration="6" Instrument="Lead" FinePitch="0"
			Pattern Name="Pattern 6"
				Note Time="0" Value="F4" Duration="32" Instrument="Lead" FinePitch="1"
				Note Time="60" Value="F4" Duration="12" Instrument="Lead"
				Note Time="72" Value="F4" Duration="8" Instrument="Lead"
				Note Time="80" Value="F#4" Duration="8" Instrument="Lead"
				Note Time="88" Value="G#4" Duration="8" Instrument="Lead" FinePitch="0"
			Pattern Name="Pattern 7"
				Note Time="0" Value="A#4" Duration="32" Instrument="Lead"
				Note Time="56" Value="A#4" Duration="8" Instrument="Lead"
				Note Time="64" Value="A#4" Duration="8" Instrument="Lead"
				Note Time="72" Value="A#4" Duration="8" Instrument="Lead"
				Note Time="80" Value="G#4" Duration="8" Instrument="Lead"
				Note Time="88" Value="F#4" Duration="8" Instrument="Lead" FinePitch="1"
			Pattern Name="Pattern 8"
				Note Time="0" Value="G#4" Duration="8" Instrument="Lead" FinePitch="0"
				Note Time="16" Value="F#4" Duration="8" Instrument="Lead" FinePitch="1"
				Note Time="24" Value="F4" Duration="32" Instrument="Lead"
				Note Time="72" Value="F4" Duration="24" Instrument="Lead"
			Pattern Name="Pattern 9"
				Note Time="0" Value="D#4" Duration="12" Instrument="Lead" FinePitch="0"
				Note Time="12" Value="D#4" Duration="6" Instrument="Lead"
				Note Time="18" Value="F4" Duration="6" Instrument="Lead" FinePitch="1"
				Note Time="24" Value="F#4" Duration="32" Instrument="Lead"
				Note Time="72" Value="F4" Duration="12" Instrument="Lead"
				Note Time="84" Value="D#4" Duration="12" Instrument="Lead" FinePitch="0"
			Pattern Name="Pattern 10"
				Note Time="0" Value="C#4" Duration="12" Instrument="Lead"
				Note Time="12" Value="C#4" Duration="6" Instrument="Lead"
				Note Time="18" Value="D#4" Duration="6" Instrument="Lead"
				Note Time="24" Value="F4" Duration="32" Instrument="Lead" FinePitch="1"
				Note Time="72" Value="D#4" Duration="12" Instrument="Lead" FinePitch="0"
				Note Time="84" Value="C#4" Duration="12" Instrument="Lead"
			Pattern Name="Bridge1"
				Note Time="0" Value="C4" Duration="12" Instrument="Lead"
				Note Time="12" Value="C4" Duration="6" Instrument="Lead"
				Note Time="18" Value="D4" Duration="6" Instrument="Lead" FinePitch="1"
				Note Time="24" Value="E4" Duration="32" Instrument="Lead" FinePitch="0"
				Note Time="72" Value="G4" Duration="24" Instrument="Lead"
			Pattern Name="Bridge2"
				Note Time="0" Value="F4" Duration="6" Instrument="Lead" FinePitch="1"
				Note Time="12" Value="F3" Duration="6" Instrument="Lead"
				Note Time="18" Value="F3" Duration="6" Instrument="Lead"
				Note Time="24" Value="F3" Duration="6" Instrument="Lead"
				Note Time="36" Value="F3" Duration="6" Instrument="Lead"
				Note Time="42" Value="F3" Duration="6" Instrument="Lead"
				Note Time="48" Value="F3" Duration="6" Instrument="Lead"
				Note Time="60" Value="F3" Duration="6" Instrument="Lead"
				Note Time="66" Value="F3" Duration="6" Instrument="Lead"
				Note Time="72" Value="F3" Duration="12" Instrument="Lead"
				Note Time="84" Value="F3" Duration="12" Instrument="Lead"
			Pattern Name="Pattern 15"
				Note Time="0" Value="A#4" Duration="32" Instrument="Lead"
				Note Time="72" Value="C#5" Duration="24" Instrument="Lead"
			Pattern Name="Pattern 16"
				Note Time="0" Value="C5" Duration="12" Instrument="Lead"
				Note Time="24" Value="A4" Duration="32" Instrument="Lead"
				Note Time="72" Value="F4" Duration="24" Instrument="Lead" FinePitch="1"
			Pattern Name="Pattern 17"
				Note Time="0" Value="F#4" Duration="32" Instrument="Lead"
				Note Time="72" Value="A#4" Duration="24" Instrument="Lead" FinePitch="0"
			Pattern Name="Pattern 18"
				Note Time="0" Value="A4" Duration="12" Instrument="Lead"
				Note Time="24" Value="F4" Duration="32" Instrument="Lead" FinePitch="1"
				Note Time="72" Value="F4" Duration="24" Instrument="Lead"
			Pattern Name="Pattern 20"
				Note Time="0" Value="A4" Duration="12" Instrument="Lead"
				Note Time="24" Value="F4" Duration="32" Instrument="Lead" FinePitch="1"
				Note Time="72" Value="D4" Duration="24" Instrument="Lead"
			Pattern Name="Pattern 21"
				Note Time="0" Value="D#4" Duration="32" Instrument="Lead" FinePitch="0"
				Note Time="72" Value="F#4" Duration="24" Instrument="Lead" FinePitch="1"
			Pattern Name="Pattern 22"
				Note Time="0" Value="F4" Duration="12" Instrument="Lead"
				Note Time="24" Value="C#4" Duration="32" Instrument="Lead" FinePitch="0"
				Note Time="72" Value="A#3" Duration="24" Instrument="Lead"
			PatternInstance Time="0" Pattern="Pattern 1"
			PatternInstance Time="1" Pattern="Pattern 2"
			PatternInstance Time="2" Pattern="Pattern 3"
			PatternInstance Time="3" Pattern="Pattern 4"
			PatternInstance Time="4" Pattern="Pattern 5"
			PatternInstance Time="5" Pattern="Pattern 6"
			PatternInstance Time="6" Pattern="Pattern 7"
			PatternInstance Time="7" Pattern="Pattern 8"
			PatternInstance Time="8" Pattern="Pattern 9"
			PatternInstance Time="9" Pattern="Pattern 10"
			PatternInstance Time="10" Pattern="Bridge1"
			PatternInstance Time="11" Pattern="Bridge2"
			PatternInstance Time="12" Pattern="Pattern 5"
			PatternInstance Time="13" Pattern="Pattern 6"
			PatternInstance Time="14" Pattern="Pattern 15"
			PatternInstance Time="15" Pattern="Pattern 16"
			PatternInstance Time="16" Pattern="Pattern 17"
			PatternInstance Time="17" Pattern="Pattern 18"
			PatternInstance Time="18" Pattern="Pattern 17"
			PatternInstance Time="19" Pattern="Pattern 20"
			PatternInstance Time="20" Pattern="Pattern 21"
			PatternInstance Time="21" Pattern="Pattern 22"
			PatternInstance Time="22" Pattern="Bridge1"
			PatternInstance Time="23" Pattern="Bridge2"
		Channel Type="Triangle"
			Pattern Name="Intro1"
				Note Time="0" Value="A#2" Duration="8" Instrument="Bass"
				Note Time="24" Value="A#2" Duration="32" Instrument="Bass"
				Note Time="72" Value="A#2" Duration="24" Instrument="Bass"
			Pattern Name="Intro2"
				Note Time="0" Value="G#2" Duration="8" Instrument="Bass"
				Note Time="24" Value="G#2" Duration="32" Instrument="Bass"
				Note Time="72" Value="G#2" Duration="24" Instrument="Bass"
			Pattern Name="Intro3"
				Note Time="0" Value="F#2" Duration="8" Instrument="Bass"
				Note Time="24" Value="F#2" Duration="32" Instrument="Bass"
				Note Time="72" Value="F#2" Duration="24" Instrument="Bass"
			Pattern Name="Bridge1"
				Note Time="0" Value="F2" Duration="8" Instrument="Bass"
				Note Time="24" Value="F2" Duration="8" Instrument="Bass"
				Note Time="48" Value="F2" Duration="8" Instrument="Bass"
				Note Time="72" Value="G2" Duration="8" Instrument="Bass"
				Note Time="84" Value="A2" Duration="8" Instrument="Bass" FinePitch="1"
			Pattern Name="Bass A#"
				Note Time="0" Value="A#2" Duration="8" Instrument="Bass" FinePitch="0"
				Note Time="24" Value="A#2" Duration="16" Instrument="Bass"
				Note Time="40" Value="G#2" Duration="8" Instrument="Bass"
				Note Time="48" Value="A#2" Duration="8" Instrument="Bass"
				Note Time="72" Value="A#2" Duration="8" Instrument="Bass"
			Pattern Name="Bass G#"
				Note Time="0" Value="G#2" Duration="8" Instrument="Bass"
				Note Time="24" Value="G#2" Duration="16" Instrument="Bass"
				Note Time="40" Value="F#2" Duration="8" Instrument="Bass"
				Note Time="48" Value="G#2" Duration="8" Instrument="Bass"
				Note Time="72" Value="G#2" Duration="8" Instrument="Bass"
			Pattern Name="Bass F#"
				Note Time="0" Value="F#2" Duration="8" Instrument="Bass"
				Note Time="24" Value="F#2" Duration="16" Instrument="Bass"
				Note Time="40" Value="E2" Duration="8" Instrument="Bass"
				Note Time="48" Value="F#2" Duration="8" Instrument="Bass"
				Note Time="72" Value="F#2" Duration="8" Instrument="Bass"
			Pattern Name="Bass C#"
				Note Time="0" Value="C#3" Duration="8" Instrument="Bass"
				Note Time="24" Value="C#3" Duration="16" Instrument="Bass"
				Note Time="40" Value="C3" Duration="8" Instrument="Bass"
				Note Time="48" Value="C#3" Duration="8" Instrument="Bass"
				Note Time="72" Value="C#3" Duration="8" Instrument="Bass"
			Pattern Name="Bass B2"
				Note Time="0" Value="B2" Duration="8" Instrument="Bass"
				Note Time="24" Value="B2" Duration="16" Instrument="Bass"
				Note Time="40" Value="A#2" Duration="8" Instrument="Bass"
				Note Time="48" Value="B2" Duration="8" Instrument="Bass"
				Note Time="72" Value="B2" Duration="24" Instrument="Bass"
			Pattern Name="Bass A#2"
				Note Time="0" Value="A#2" Duration="8" Instrument="Bass"
				Note Time="24" Value="A#2" Duration="16" Instrument="Bass"
				Note Time="40" Value="G#2" Duration="8" Instrument="Bass"
				Note Time="48" Value="A#2" Duration="8" Instrument="Bass"
				Note Time="72" Value="A#2" Duration="24" Instrument="Bass"
			Pattern Name="Bass C2"
				Note Time="0" Value="C3" Duration="8" Instrument="Bass"
				Note Time="24" Value="C3" Duration="16" Instrument="Bass"
				Note Time="40" Value="B2" Duration="8" Instrument="Bass"
				Note Time="48" Value="C3" Duration="8" Instrument="Bass"
				Note Time="72" Value="C3" Duration="24" Instrument="Bass"
			Pattern Name="Bass F"
				Note Time="0" Value="F2" Duration="8" Instrument="Bass"
				Note Time="24" Value="F2" Duration="16" Instrument="Bass"
				Note Time="40" Value="D#2" Duration="8" Instrument="Bass" FinePitch="1"
				Note Time="48" Value="F2" Duration="8" Instrument="Bass" FinePitch="0"
				Note Time="72" Value="F2" Duration="8" Instrument="Bass"
			Pattern Name="Bass Walk"
				Note Time="0" Value="E2" Duration="8" Instrument="Bass"
				Note Time="8" Value="A#2" Duration="8" Instrument="Bass"
				Note Time="16" Value="C#3" Duration="8" Instrument="Bass"
				Note Time="24" Value="E3" Duration="8" Instrument="Bass" FinePitch="1"
				Note Time="32" Value="A#3" Duration="8" Instrument="Bass" FinePitch="0"
				Note Time="40" Value="C#4" Duration="8" Instrument="Bass"
				Note Time="48" Value="E4" Duration="8" Instrument="Bass"
			Pattern Name="Bass Walk2"
				Note Time="0" Value="F4" Duration="8" Instrument="Bass" FinePitch="1"
				Note Time="15" FinePitch="0"
				Note Time="24" Value="F2" Duration="32" Instrument="Bass"
			PatternInstance Time="0" Pattern="Intro1"
			PatternInstance Time="1" Pattern="Intro2"
			PatternInstance Time="2" Pattern="Intro3"
			PatternInstance Time="3" Pattern="Bridge1"
			PatternInstance Time="4" Pattern="Bass A#"
			PatternInstance Time="5" Pattern="Bass G#"
			PatternInstance Time="6" Pattern="Bass F#"
			PatternInstance Time="7" Pattern="Bass C#"
			PatternInstance Time="8" Pattern="Bass B2"
			PatternInstance Time="9" Pattern="Bass A#2"
			PatternInstance Time="10" Pattern="Bass C2"
			PatternInstance Time="11" Pattern="Bridge1"
			PatternInstance Time="12" Pattern="Bass A#"
			PatternInstance Time="13" Pattern="Bass G#"
			PatternInstance Time="14" Pattern="Bass F#"
			PatternInstance Time="15" Pattern="Bass F"
			PatternInstance Time="16" Pattern="Bass Walk"
			PatternInstance Time="17" Pattern="Bass Walk2"
			PatternInstance Time="18" Pattern="Bass Walk"
			PatternInstance Time="19" Pattern="Bass Walk2"
			PatternInstance Time="20" Pattern="Bass B2"
			PatternInstance Time="21" Pattern="Bass A#2"
			PatternInstance Time="22" Pattern="Bass C2"
			PatternInstance Time="23" Pattern="Bridge1"
		Channel Type="Noise"
			Pattern Name="Intro"
				Note Time="0" Value="G3" Duration="5" Instrument="Snare" Volume="7"
				Note Time="72" Value="G3" Duration="1" Instrument="Snare"
				Note Time="80" Value="G3" Duration="1" Instrument="Snare"
				Note Time="88" Value="G3" Duration="1" Instrument="Snare"
			Pattern Name="Bridge1"
				Note Time="0" Value="G3" Duration="1" Instrument="Snare"
				Note Time="24" Value="G3" Duration="1" Instrument="Snare"
				Note Time="48" Value="G3" Duration="1" Instrument="Snare"
				Note Time="72" Value="G3" Duration="1" Instrument="Snare"
				Note Time="84" Value="G3" Duration="1" Instrument="Snare"
			Pattern Name="DrumLoop"
				Note Time="0" Value="G3" Duration="1" Instrument="Snare"
				Note Time="24" Value="G3" Duration="1" Instrument="Snare"
				Note Time="32" Value="G3" Duration="1" Instrument="Snare"
				Note Time="40" Value="G3" Duration="1" Instrument="Snare"
				Note Time="48" Value="G3" Duration="1" Instrument="Snare"
				Note Time="72" Value="G3" Duration="1" Instrument="Snare"
			PatternInstance Time="0" Pattern="Intro"
			PatternInstance Time="1" Pattern="Intro"
			PatternInstance Time="2" Pattern="Intro"
			PatternInstance Time="3" Pattern="Bridge1"
			PatternInstance Time="4" Pattern="DrumLoop"
			PatternInstance Time="5" Pattern="DrumLoop"
			PatternInstance Time="6" Pattern="DrumLoop"
			PatternInstance Time="7" Pattern="DrumLoop"
			PatternInstance Time="8" Pattern="DrumLoop"
			PatternInstance Time="9" Pattern="DrumLoop"
			PatternInstance Time="10" Pattern="DrumLoop"
			PatternInstance Time="11" Pattern="DrumLoop"
			PatternInstance Time="12" Pattern="DrumLoop"
			PatternInstance Time="13" Pattern="DrumLoop"
			PatternInstance Time="14" Pattern="DrumLoop"
			PatternInstance Time="15" Pattern="DrumLoop"
			PatternInstance Time="16" Pattern="DrumLoop"
			PatternInstance Time="17" Pattern="DrumLoop"
			PatternInstance Time="18" Pattern="DrumLoop"
			PatternInstance Time="19" Pattern="DrumLoop"
			PatternInstance Time="20" Pattern="DrumLoop"
			PatternInstance Time="21" Pattern="DrumLoop"
			PatternInstance Time="22" Pattern="DrumLoop"
			PatternInstance Time="23" Pattern="DrumLoop"
		Channel Type="DPCM"
	Song Name="Dungeon" Length="7" LoopPoint="0" PatternLength="16" BeatLength="4" NoteLength="10" Groove="10" GroovePaddingMode="Middle"
		PatternCustomSettings Time="6" Length="20" NoteLength="10" Groove="10" GroovePaddingMode="Middle" BeatLength="4"
		Channel Type="Square1"
			Pattern Name="Pattern 1"
				Note Time="10" Value="A#3" Duration="20" Instrument="Lead"
				Note Time="30" Value="D#4" Duration="20" Instrument="Lead"
				Note Time="50" Value="A#3" Duration="20" Instrument="Lead"
				Note Time="70" Value="D#4" Duration="20" Instrument="Lead"
				Note Time="90" Value="A#3" Duration="20" Instrument="Lead"
				Note Time="110" Value="D#4" Duration="20" Instrument="Lead"
				Note Time="130" Value="A#3" Duration="20" Instrument="Lead"
				Note Time="150" Value="D#4" Duration="20" Instrument="Lead"
			Pattern Name="Pattern 2"
				Note Time="10" Value="A3" Duration="20" Instrument="Lead" FinePitch="1"
				Note Time="30" Value="D#4" Duration="20" Instrument="Lead" FinePitch="0"
				Note Time="50" Value="A3" Duration="20" Instrument="Lead" FinePitch="1"
				Note Time="70" Value="D#4" Duration="20" Instrument="Lead" FinePitch="0"
				Note Time="90" Value="A3" Duration="20" Instrument="Lead" FinePitch="1"
				Note Time="110" Value="D#4" Duration="20" Instrument="Lead" FinePitch="0"
				Note Time="130" Value="A3" Duration="20" Instrument="Lead" FinePitch="1"
				Note Time="150" Value="D#4" Duration="20" Instrument="Lead" FinePitch="0"
			Pattern Name="Pattern 3"
				Note Time="10" Value="G#3" Duration="20" Instrument="Lead" FinePitch="1"
				Note Time="30" Value="D#4" Duration="20" Instrument="Lead" FinePitch="0"
				Note Time="50" Value="G#3" Duration="20" Instrument="Lead" FinePitch="1"
				Note Time="70" Value="D#4" Duration="20" Instrument="Lead" FinePitch="0"
				Note Time="90" Value="G#3" Duration="20" Instrument="Lead" FinePitch="1"
				Note Time="110" Value="D#4" Duration="20" Instrument="Lead" FinePitch="0"
				Note Time="130" Value="G#3" Duration="20" Instrument="Lead" FinePitch="1"
				Note Time="150" Value="D#4" Duration="20" Instrument="Lead" FinePitch="0"
			Pattern Name="Pattern 4"
				Note Time="10" Value="G3" Duration="20" Instrument="Lead" FinePitch="1"
				Note Time="30" Value="D#4" Duration="20" Instrument="Lead" FinePitch="0"
				Note Time="50" Value="G3" Duration="20" Instrument="Lead" FinePitch="1"
				Note Time="70" Value="D#4" Duration="20" Instrument="Lead" FinePitch="0"
				Note Time="90" Value="G3" Duration="20" Instrument="Lead" FinePitch="1"
				Note Time="110" Value="D#4" Duration="20" Instrument="Lead" FinePitch="0"
				Note Time="130" Value="G3" Duration="20" Instrument="Lead" FinePitch="1"
				Note Time="150" Value="D#4" Duration="20" Instrument="Lead" FinePitch="0"
			Pattern Name="Pattern 5"
				Note Time="10" Value="G3" Duration="20" Instrument="Lead" FinePitch="1"
				Note Time="30" Value="D4" Duration="20" Instrument="Lead"
				Note Time="50" Value="G3" Duration="20" Instrument="Lead"
				Note Time="70" Value="D4" Duration="20" Instrument="Lead"
				Note Time="90" Value="G3" Duration="20" Instrument="Lead"
				Note Time="110" Value="D4" Duration="20" Instrument="Lead"
				Note Time="130" Value="G3" Duration="20" Instrument="Lead"
				Note Time="150" Value="D4" Duration="20" Instrument="Lead"
			Pattern Name="Pattern 6"
				Note Time="10" Value="G3" Duration="20" Instrument="Lead"
				Note Time="30" Value="D4" Duration="20" Instrument="Lead"
				Note Time="50" Value="G3" Duration="20" Instrument="Lead"
				Note Time="70" Value="D4" Duration="20" Instrument="Lead"
				Note Time="90" Value="G3" Duration="20" Instrument="Lead"
				Note Time="110" Value="D4" Duration="20" Instrument="Lead"
				Note Time="130" Value="G3" Duration="20" Instrument="Lead"
				Note Time="150" Value="D4" Duration="20" Instrument="Lead"
			Pattern Name="Pattern 7"
				Note Time="10" Value="F#3" Duration="20" Instrument="Lead"
				Note Time="30" Value="C4" Duration="20" Instrument="Lead" FinePitch="0"
				Note Time="50" Value="A3" Duration="20" Instrument="Lead" FinePitch="1"
				Note Time="70" Value="D#4" Duration="20" Instrument="Lead" FinePitch="0"
				Note Time="90" Value="C4" Duration="20" Instrument="Lead"
				Note Time="110" Value="C4" Duration="20" Instrument="Lead"
				Note Time="130" Value="F#4" Duration="20" Instrument="Lead" FinePitch="1"
				Note Time="150" Value="F#4" Duration="20" Instrument="Lead"
				Note Time="170" Value="F#4" Duration="20" Instrument="Lead"
				Note Time="190" Value="C5" Duration="10" Instrument="Lead" FinePitch="0"
			PatternInstance Time="0" Pattern="Pattern 1"
			PatternInstance Time="1" Pattern="Pattern 2"
			PatternInstance Time="2" Pattern="Pattern 3"
			PatternInstance Time="3" Pattern="Pattern 4"
			PatternInstance Time="4" Pattern="Pattern 5"
			PatternInstance Time="5" Pattern="Pattern 6"
			PatternInstance Time="6" Pattern="Pattern 7"
		Channel Type="Square2"
			Pattern Name="Pattern 1"
				Note Time="0" Value="G3" Duration="20" Instrument="Lead" FinePitch="1"
				Note Time="20" Value="D4" Duration="20" Instrument="Lead"
				Note Time="40" Value="G3" Duration="20" Instrument="Lead"
				Note Time="60" Value="D4" Duration="20" Instrument="Lead"
				Note Time="80" Value="G3" Duration="20" Instrument="Lead"
				Note Time="100" Value="D4" Duration="20" Instrument="Lead"
				Note Time="120" Value="G3" Duration="20" Instrument="Lead"
				Note Time="140" Value="D4" Duration="20" Instrument="Lead"
			Pattern Name="Pattern 2"
				Note Time="0" Value="F#3" Duration="20" Instrument="Lead"
				Note Time="20" Value="D4" Duration="20" Instrument="Lead"
				Note Time="40" Value="F#3" Duration="20" Instrument="Lead"
				Note Time="60" Value="D4" Duration="20" Instrument="Lead"
				Note Time="80" Value="F#3" Duration="20" Instrument="Lead"
				Note Time="100" Value="D4" Duration="20" Instrument="Lead"
				Note Time="120" Value="F#3" Duration="20" Instrument="Lead"
				Note Time="140" Value="D4" Duration="20" Instrument="Lead"
			Pattern Name="Pattern 3"
				Note Time="0" Value="F3" Duration="20" Instrument="Lead"
				Note Time="20" Value="D4" Duration="20" Instrument="Lead"
				Note Time="40" Value="F3" Duration="20" Instrument="Lead"
				Note Time="60" Value="D4" Duration="20" Instrument="Lead"
				Note Time="80" Value="F3" Duration="20" Instrument="Lead"
				Note Time="100" Value="D4" Duration="20" Instrument="Lead"
				Note Time="120" Value="F3" Duration="20" Instrument="Lead"
				Note Time="140" Value="D4" Duration="20" Instrument="Lead"
			Pattern Name="Pattern 4"
				Note Time="0" Value="E3" Duration="20" Instrument="Lead"
				Note Time="20" Value="D4" Duration="20" Instrument="Lead"
				Note Time="40" Value="E3" Duration="20" Instrument="Lead"
				Note Time="60" Value="D4" Duration="20" Instrument="Lead"
				Note Time="80" Value="E3" Duration="20" Instrument="Lead"
				Note Time="100" Value="D4" Duration="20" Instrument="Lead"
				Note Time="120" Value="E3" Duration="20" Instrument="Lead"
				Note Time="140" Value="D4" Duration="20" Instrument="Lead"
			Pattern Name="Pattern 5"
				Note Time="0" Value="D#3" Duration="20" Instrument="Lead" FinePitch="0"
				Note Time="20" Value="C4" Duration="20" Instrument="Lead"
				Note Time="40" Value="D#3" Duration="20" Instrument="Lead"
				Note Time="60" Value="C4" Duration="20" Instrument="Lead"
				Note Time="80" Value="D#3" Duration="20" Instrument="Lead"
				Note Time="100" Value="C4" Duration="20" Instrument="Lead"
				Note Time="120" Value="D#3" Duration="20" Instrument="Lead"
				Note Time="140" Value="C4" Duration="20" Instrument="Lead"
			Pattern Name="Pattern 6"
				Note Time="0" Value="D3" Duration="20" Instrument="Lead"
				Note Time="20" Value="C4" Duration="20" Instrument="Lead"
				Note Time="40" Value="D3" Duration="20" Instrument="Lead"
				Note Time="60" Value="C4" Duration="20" Instrument="Lead"
				Note Time="80" Value="D3" Duration="20" Instrument="Lead"
				Note Time="100" Value="C4" Duration="20" Instrument="Lead"
				Note Time="120" Value="D3" Duration="20" Instrument="Lead"
				Note Time="140" Value="C4" Duration="20" Instrument="Lead"
			Pattern Name="Pattern 7"
				Note Time="0" Value="C3" Duration="20" Instrument="Lead"
				Note Time="20" Value="A3" Duration="20" Instrument="Lead" FinePitch="1"
				Note Time="40" Value="F#3" Duration="20" Instrument="Lead"
				Note Time="60" Value="C4" Duration="20" Instrument="Lead" FinePitch="0"
				Note Time="80" Value="A3" Duration="20" Instrument="Lead" FinePitch="1"
				Note Time="100" Value="D#4" Duration="20" Instrument="Lead" FinePitch="0"
				Note Time="120" Value="D#4" Duration="20" Instrument="Lead"
				Note Time="140" Value="D#4" Duration="20" Instrument="Lead"
				Note Time="160" Value="A4" Duration="20" Instrument="Lead"
				Note Time="180" Value="A4" Duration="20" Instrument="Lead"
			PatternInstance Time="0" Pattern="Pattern 1"
			PatternInstance Time="1" Pattern="Pattern 2"
			PatternInstance Time="2" Pattern="Pattern 3"
			PatternInstance Time="3" Pattern="Pattern 4"
			PatternInstance Time="4" Pattern="Pattern 5"
			PatternInstance Time="5" Pattern="Pattern 6"
			PatternInstance Time="6" Pattern="Pattern 7"
		Channel Type="Triangle"
			Pattern Name="Pattern 1"
				Note Time="0" Value="G3" Duration="40" Instrument="BassVib"
				Note Time="40" Value="G3" Duration="40" Instrument="BassVib"
				Note Time="80" Value="A#3" Duration="40" Instrument="BassVib"
				Note Time="120" Value="D4" Duration="40" Instrument="BassVib"
			Pattern Name="Pattern 2"
				Note Time="0" Value="C#4" Duration="40" Instrument="BassVib"
				Note Time="40" Value="F#3" Duration="40" Instrument="BassVib"
				Note Time="80" Value="F#3" Duration="40" Instrument="BassVib"
				Note Time="120" Value="F#3" Duration="40" Instrument="BassVib"
			Pattern Name="Pattern 3"
				Note Time="0" Value="F3" Duration="40" Instrument="BassVib"
				Note Time="40" Value="F3" Duration="40" Instrument="BassVib"
				Note Time="80" Value="F3" Duration="30" Instrument="BassVib"
				Note Time="110" Value="G#3" Duration="30" Instrument="BassVib"
				Note Time="140" Value="C#4" Duration="20" Instrument="BassVib"
			Pattern Name="Pattern 4"
				Note Time="0" Value="C4" Duration="40" Instrument="BassVib"
				Note Time="40" Value="E3" Duration="40" Instrument="BassVib"
				Note Time="80" Value="E3" Duration="40" Instrument="BassVib"
				Note Time="120" Value="E3" Duration="40" Instrument="BassVib"
			Pattern Name="Pattern 5"
				Note Time="0" Value="D#3" Duration="10" Instrument="BassVib"
				Note Time="10" Value="D3" Duration="10" Instrument="BassVib"
				Note Time="20" Value="D#3" Duration="40" Instrument="BassVib"
				Note Time="60" Value="D#3" Duration="20" Instrument="BassVib"
				Note Time="80" Value="G3" Duration="20" Instrument="BassVib"
				Note Time="100" Value="G3" Duration="10" Instrument="BassVib"
				Note Time="110" Value="D#4" Duration="30" Instrument="BassVib"
				Note Time="140" Value="D4" Duration="20" Instrument="BassVib"
			Pattern Name="Pattern 6"
				Note Time="0" Value="D3" Duration="10" Instrument="BassVib"
				Note Time="10" Value="C#3" Duration="10" Instrument="BassVib"
				Note Time="20" Value="D3" Duration="40" Instrument="BassVib"
				Note Time="60" Value="D3" Duration="20" Instrument="BassVib"
				Note Time="80" Value="G3" Duration="20" Instrument="BassVib"
				Note Time="100" Value="G3" Duration="10" Instrument="BassVib"
				Note Time="110" Value="D4" Duration="30" Instrument="BassVib"
				Note Time="140" Value="C#4" Duration="20" Instrument="BassVib"
			Pattern Name="Pattern 7"
				Note Time="0" Value="D3" Duration="10" Instrument="BassVib"
				Note Time="10" Value="F#3" Duration="10" Instrument="BassVib"
				Note Time="20" Value="A3" Duration="10" Instrument="BassVib"
				Note Time="30" Value="F#3" Duration="10" Instrument="BassVib"
				Note Time="40" Value="A3" Duration="10" Instrument="BassVib"
				Note Time="50" Value="C4" Duration="10" Instrument="BassVib"
				Note Time="60" Value="A3" Duration="10" Instrument="BassVib"
				Note Time="70" Value="C4" Duration="10" Instrument="BassVib"
				Note Time="80" Value="D#4" Duration="10" Instrument="BassVib"
				Note Time="90" Value="C4" Duration="10" Instrument="BassVib"
				Note Time="100" Value="D#4" Duration="10" Instrument="BassVib"
				Note Time="110" Value="F#4" Duration="10" Instrument="BassVib"
				Note Time="120" Value="A4" Duration="10" Instrument="BassVib"
				Note Time="130" Value="F#4" Duration="10" Instrument="BassVib"
				Note Time="140" Value="D#4" Duration="10" Instrument="BassVib"
				Note Time="150" Value="C4" Duration="10" Instrument="BassVib"
				Note Time="161" Value="D#4" Duration="10" Instrument="BassVib"
				Note Time="171" Value="C4" Duration="10" Instrument="BassVib"
				Note Time="181" Value="A3" Duration="10" Instrument="BassVib"
				Note Time="191" Value="F#3" Duration="10" Instrument="BassVib"
			PatternInstance Time="0" Pattern="Pattern 1"
			PatternInstance Time="1" Pattern="Pattern 2"
			PatternInstance Time="2" Pattern="Pattern 3"
			PatternInstance Time="3" Pattern="Pattern 4"
			PatternInstance Time="4" Pattern="Pattern 5"
			PatternInstance Time="5" Pattern="Pattern 6"
			PatternInstance Time="6" Pattern="Pattern 7"
		Channel Type="Noise"
		Channel Type="DPCM"
	Song Name="Sword" Length="1" LoopPoint="0" PatternLength="3" BeatLength="2" NoteLength="3" Groove="3" GroovePaddingMode="Middle"
		Channel Type="Square1"
		Channel Type="Square2"
		Channel Type="Triangle"
		Channel Type="Noise"
			Pattern Name="Pattern 1"
				Note Time="0" Value="C#3" Duration="2" Instrument="Duty 0" Volume="8"
				Note Time="1" Volume="9"
				Note Time="2" Value="D3" Duration="3" Instrument="Duty 0" Volume="5"
				Note Time="3" Volume="8"
				Note Time="4" Volume="9"
				Note Time="5" Value="D#3" Duration="1" Instrument="Duty 0" Volume="11"
				Note Time="6" Value="E3" Duration="1" Instrument="Duty 0" Volume="10"
				Note Time="7" Value="F3" Duration="2" Instrument="Duty 0" Volume="8"
				Note Time="8" Volume="6"
			PatternInstance Time="0" Pattern="Pattern 1"
		Channel Type="DPCM"
	Song Name="Boomerang" Length="1" LoopPoint="0" PatternLength="1" BeatLength="1" NoteLength="10" Groove="10" GroovePaddingMode="Middle"
		Channel Type="Square1"
		Channel Type="Square2"
		Channel Type="Triangle"
		Channel Type="Noise"
			Pattern Name="Pattern 1"
				Note Time="0" Value="G2" Duration="1" Instrument="Duty 0" Volume="3"
				Note Time="1" Value="G#2" Duration="1" Instrument="Duty 0" Volume="6"
				Note Time="2" Value="A2" Duration="1" Instrument="Duty 0" Volume="9"
				Note Time="3" Value="C#3" Duration="1" Instrument="Duty 0" Volume="15"
			PatternInstance Time="0" Pattern="Pattern 1"
		Channel Type="DPCM"
	Song Name="Magic" Length="1" LoopPoint="0" PatternLength="12" BeatLength="4" NoteLength="2" Groove="2" GroovePaddingMode="Middle"
		Channel Type="Square1"
			Pattern Name="Pattern 1"
				Note Time="0" Value="C3" Duration="1" Instrument="Duty 2"
				Note Time="1" Value="D3" Duration="1" Instrument="Duty 2"
				Note Time="2" Value="D#3" Duration="1" Instrument="Duty 2"
				Note Time="3" Value="E3" Duration="1" Instrument="Duty 2" FinePitch="1"
				Note Time="4" Value="F3" Duration="1" Instrument="Duty 2"
				Note Time="5" Value="F#3" Duration="1" Instrument="Duty 2"
				Note Time="6" Value="G3" Duration="1" Instrument="Duty 2"
				Note Time="7" Value="G#3" Duration="1" Instrument="Duty 2"
				Note Time="8" Value="F3" Duration="1" Instrument="Duty 2" Volume="10"
				Note Time="9" Value="F#3" Duration="1" Instrument="Duty 2"
				Note Time="10" Value="G3" Duration="1" Instrument="Duty 2"
				Note Time="11" Value="G#3" Duration="1" Instrument="Duty 2"
				Note Time="12" Value="F3" Duration="1" Instrument="Duty 2" Volume="12"
				Note Time="13" Value="F#3" Duration="1" Instrument="Duty 2"
				Note Time="14" Value="G3" Duration="1" Instrument="Duty 2"
				Note Time="15" Value="G#3" Duration="1" Instrument="Duty 2"
				Note Time="16" Value="F3" Duration="1" Instrument="Duty 2" Volume="6"
				Note Time="17" Value="F#3" Duration="1" Instrument="Duty 2"
				Note Time="18" Value="G3" Duration="1" Instrument="Duty 2"
				Note Time="19" Value="G#3" Duration="1" Instrument="Duty 2"
				Note Time="20" Value="F3" Duration="1" Instrument="Duty 2" Volume="8"
				Note Time="21" Value="F#3" Duration="1" Instrument="Duty 2"
				Note Time="22" Value="G3" Duration="1" Instrument="Duty 2"
				Note Time="23" Value="G#3" Duration="1" Instrument="Duty 2"
			PatternInstance Time="0" Pattern="Pattern 1"
		Channel Type="Square2"
		Channel Type="Triangle"
		Channel Type="Noise"
		Channel Type="DPCM"
	Song Name="Arrow" Length="1" LoopPoint="0" PatternLength="2" BeatLength="2" NoteLength="2" Groove="2" GroovePaddingMode="Middle"
		Channel Type="Square1"
			Pattern Name="Pattern 1"
				Note Time="0" Value="G4" Duration="1" Instrument="Duty 2" Volume="9"
				Note Time="1" Value="B4" Duration="1" Instrument="Duty 2" FinePitch="1"
				Note Time="2" Value="D5" Duration="1" Instrument="Duty 2"
				Note Time="3" Value="F5" Duration="1" Instrument="Duty 2"
			PatternInstance Time="0" Pattern="Pattern 1"
		Channel Type="Square2"
		Channel Type="Triangle"
		Channel Type="Noise"
		Channel Type="DPCM"
	Song Name="Bomb" Length="1" LoopPoint="0" PatternLength="1" BeatLength="1" NoteLength="5" Groove="5" GroovePaddingMode="Middle"
		Channel Type="Square1"
			Pattern Name="Pattern 1"
				Note Time="0" Value="F4" Duration="1" Instrument="Duty 2" FinePitch="1"
				Note Time="1" Value="A3" Duration="1" Instrument="Duty 2"
				Note Time="2" Value="F4" Duration="1" Instrument="Duty 2"
				Note Time="3" Value="D4" Duration="1" Instrument="Duty 2"
				Note Time="4" Value="F3" Duration="1" Instrument="Duty 2"
			PatternInstance Time="0" Pattern="Pattern 1"
		Channel Type="Square2"
		Channel Type="Triangle"
		Channel Type="Noise"
		Channel Type="DPCM"
	Song Name="BombExplode" Length="1" LoopPoint="0" PatternLength="12" BeatLength="4" NoteLength="2" Groove="2" GroovePaddingMode="Middle"
		Channel Type="Square1"
		Channel Type="Square2"
		Channel Type="Triangle"
		Channel Type="Noise"
			Pattern Name="Pattern 1"
				Note Time="0" Value="G#2" Duration="1" Instrument="Duty 0"
				Note Time="1" Value="G2" Duration="2" Instrument="Duty 0"
				Note Time="3" Value="G#2" Duration="1" Instrument="Duty 0"
				Note Time="4" Value="A2" Duration="1" Instrument="Duty 0"
				Note Time="5" Value="G#2" Duration="1" Instrument="Duty 0"
				Note Time="6" Value="G2" Duration="1" Instrument="Duty 0" Volume="14"
				Note Time="7" Value="G#2" Duration="1" Instrument="Duty 0" Volume="13"
				Note Time="8" Value="G2" Duration="1" Instrument="Duty 0" Volume="12"
				Note Time="9" Value="G#2" Duration="1" Instrument="Duty 0" Volume="11"
				Note Time="10" Value="G2" Duration="1" Instrument="Duty 0" Volume="10"
				Note Time="11" Value="G#2" Duration="1" Instrument="Duty 0" Volume="9"
				Note Time="12" Value="G2" Duration="1" Instrument="Duty 0" Volume="8"
				Note Time="13" Value="G#2" Duration="1" Instrument="Duty 0" Volume="7"
				Note Time="14" Value="G2" Duration="3" Instrument="Duty 0" Volume="6"
				Note Time="16" Volume="5"
				Note Time="17" Value="G#2" Duration="1" Instrument="Duty 0" Volume="4"
				Note Time="18" Value="A#2" Duration="1" Instrument="Duty 0"
				Note Time="19" Value="G2" Duration="2" Instrument="Duty 0" Volume="3"
				Note Time="21" Value="G#2" Duration="1" Instrument="Duty 0" Volume="2"
				Note Time="22" Value="G2" Duration="1" Instrument="Duty 0"
			PatternInstance Time="0" Pattern="Pattern 1"
		Channel Type="DPCM"
	Song Name="Flame" Length="1" LoopPoint="0" PatternLength="16" BeatLength="4" NoteLength="2" Groove="2" GroovePaddingMode="Middle"
		Channel Type="Square1"
		Channel Type="Square2"
		Channel Type="Triangle"
		Channel Type="Noise"
			Pattern Name="Pattern 1"
				Note Time="0" Value="G#2" Duration="31" Instrument="Duty 0" Volume="1"
				Note Time="3" Volume="3"
				Note Time="5" Volume="6"
				Note Time="7" Volume="9"
				Note Time="9" Volume="10"
				Note Time="11" Volume="14"
				Note Time="13" Volume="15"
				Note Time="17" Volume="14"
				Note Time="21" Volume="13"
				Note Time="25" Volume="12"
				Note Time="27" Volume="10"
			PatternInstance Time="0" Pattern="Pattern 1"
		Channel Type="DPCM"
	Song Name="Heart" Length="1" LoopPoint="0" PatternLength="3" BeatLength="2" NoteLength="2" Groove="2" GroovePaddingMode="Middle"
		Channel Type="Square1"
			Pattern Name="Pattern 1"
				Note Time="0" Value="G4" Duration="3" Instrument="Duty 2" Volume="10"
				Note Time="3" Value="G5" Duration="3" Instrument="Duty 2" FinePitch="1"
			PatternInstance Time="0" Pattern="Pattern 1"
		Channel Type="Square2"
		Channel Type="Triangle"
		Channel Type="Noise"
		Channel Type="DPCM"
	Song Name="Coin" Length="1" LoopPoint="0" PatternLength="16" BeatLength="4" NoteLength="2" Groove="2" GroovePaddingMode="Middle"
		Channel Type="Square1"
		Channel Type="Square2"
			Pattern Name="Pattern 1"
				Note Time="0" Value="C#6" Duration="10" Instrument="Duty 2" Volume="14" FinePitch="1"
				Note Time="2" Volume="13"
				Note Time="3" Volume="12"
				Note Time="5" Volume="11"
				Note Time="7" Volume="10"
				Note Time="9" Volume="9"
				Note Time="10" Value="G#6" Duration="20" Instrument="Duty 2" Volume="14" FinePitch="0"
				Note Time="12" Volume="13"
				Note Time="14" Volume="12"
				Note Time="16" Volume="11"
				Note Time="17" Volume="10"
				Note Time="19" Volume="9"
				Note Time="21" Volume="8"
				Note Time="23" Volume="7"
				Note Time="24" Volume="6"
				Note Time="26" Volume="5"
				Note Time="28" Volume="4"
			PatternInstance Time="0" Pattern="Pattern 1"
		Channel Type="Triangle"
		Channel Type="Noise"
		Channel Type="DPCM"
	Song Name="Fairy" Length="1" LoopPoint="0" PatternLength="16" BeatLength="4" NoteLength="3" Groove="3" GroovePaddingMode="Middle"
		Channel Type="Square1"
		Channel Type="Square2"
			Pattern Name="Pattern 1"
				Note Time="0" Value="F4" Duration="3" Instrument="Duty 2" Volume="14" FinePitch="1"
				Note Time="2" Volume="13"
				Note Time="3" Value="G4" Duration="3" Instrument="Duty 2" Volume="14" FinePitch="0"
				Note Time="5" Volume="13"
				Note Time="6" Value="A4" Duration="3" Instrument="Duty 2"
				Note Time="7" Volume="14"
				Note Time="9" Value="B4" Duration="3" Instrument="Duty 2" Volume="13" FinePitch="1"
				Note Time="10" Volume="14"
				Note Time="12" Value="C5" Duration="3" Instrument="Duty 2" FinePitch="0"
				Note Time="14" Volume="13"
				Note Time="15" Value="D5" Duration="3" Instrument="Duty 2" FinePitch="1"
				Note Time="16" Volume="14"
				Note Time="17" Volume="13"
				Note Time="18" Value="E5" Duration="3" Instrument="Duty 2" FinePitch="0"
				Note Time="19" Volume="14"
				Note Time="21" Value="F5" Duration="3" Instrument="Duty 2" FinePitch="1"
				Note Time="23" Volume="13"
				Note Time="24" Value="G5" Duration="20" Instrument="Duty 2" Volume="14"
				Note Time="26" Volume="13"
				Note Time="28" Volume="12"
				Note Time="30" Volume="11"
				Note Time="31" Volume="10"
				Note Time="33" Volume="9"
				Note Time="35" Volume="8"
				Note Time="37" Volume="7"
				Note Time="38" Volume="6"
				Note Time="40" Volume="5"
				Note Time="42" Volume="4"
			PatternInstance Time="0" Pattern="Pattern 1"
		Channel Type="Triangle"
		Channel Type="Noise"
		Channel Type="DPCM"
	Song Name="Stun" Length="1" LoopPoint="0" PatternLength="8" BeatLength="4" NoteLength="2" Groove="2" GroovePaddingMode="Middle"
		Channel Type="Square1"
			Pattern Name="Pattern 1"
				Note Time="0" Value="C2" Duration="1" Instrument="Duty 2" Volume="9" FinePitch="1"
				Note Time="1" Value="D2" Duration="1" Instrument="Duty 2" FinePitch="0"
				Note Time="2" Value="C2" Duration="1" Instrument="Duty 2" FinePitch="1"
				Note Time="3" Value="E2" Duration="1" Instrument="Duty 2" FinePitch="0"
				Note Time="4" Value="C2" Duration="1" Instrument="Duty 2" FinePitch="1"
				Note Time="5" Value="F2" Duration="1" Instrument="Duty 2" FinePitch="0"
				Note Time="6" Value="C2" Duration="1" Instrument="Duty 2" Volume="15" FinePitch="1"
				Note Time="7" Value="F#3" Duration="1" Instrument="Duty 2"
				Note Time="8" Value="F#2" Duration="1" Instrument="Duty 2" FinePitch="0"
				Note Time="9" Value="C3" Duration="1" Instrument="Duty 2"
				Note Time="10" Value="F#3" Duration="1" Instrument="Duty 2" FinePitch="1"
				Note Time="11" Value="C2" Duration="1" Instrument="Duty 2"
				Note Time="12" Value="C3" Duration="1" Instrument="Duty 2" FinePitch="0"
			PatternInstance Time="0" Pattern="Pattern 1"
		Channel Type="Square2"
		Channel Type="Triangle"
		Channel Type="Noise"
		Channel Type="DPCM"
	Song Name="ShieldDeflect" Length="1" LoopPoint="0" PatternLength="5" BeatLength="4" NoteLength="2" Groove="2" GroovePaddingMode="Middle"
		Channel Type="Square1"
			Pattern Name="Pattern 1"
				Note Time="0" Value="B4" Duration="1" Instrument="Duty 2" Volume="14" FinePitch="1"
				Note Time="1" Value="A4" Duration="1" Instrument="Duty 2" FinePitch="0"
				Note Time="2" Value="B4" Duration="7" Instrument="Duty 2" FinePitch="1"
				Note Time="3" Volume="13"
				Note Time="4" Volume="11"
				Note Time="5" Volume="10"
				Note Time="6" Volume="9"
				Note Time="7" Volume="7"
				Note Time="8" Volume="6"
			PatternInstance Time="0" Pattern="Pattern 1"
		Channel Type="Square2"
		Channel Type="Triangle"
		Channel Type="Noise"
		Channel Type="DPCM"
	Song Name="HeartBeat" Length="1" LoopPoint="0" PatternLength="9" BeatLength="4" NoteLength="2" Groove="2" GroovePaddingMode="Middle"
		Channel Type="Square1"
			Pattern Name="Pattern 1"
				Note Time="0" Value="D5" Duration="6" Instrument="Duty 2" Volume="8" FinePitch="1"
			PatternInstance Time="0" Pattern="Pattern 1"
		Channel Type="Square2"
		Channel Type="Triangle"
		Channel Type="Noise"
		Channel Type="DPCM"
	Song Name="Kill" Length="1" LoopPoint="0" PatternLength="5" BeatLength="4" NoteLength="2" Groove="2" GroovePaddingMode="Middle"
		Channel Type="Square1"
		Channel Type="Square2"
			Pattern Name="Pattern 1"
				Note Time="0" Value="F3" Duration="1" Instrument="Duty 2" Volume="14" FinePitch="1"
				Note Time="1" Value="E4" Duration="1" Instrument="Duty 2" FinePitch="0"
				Note Time="2" Value="D#3" Duration="1" Instrument="Duty 2"
				Note Time="3" Value="D4" Duration="2" Instrument="Duty 2" FinePitch="1"
				Note Time="5" Value="G#2" Duration="1" Instrument="Duty 2" FinePitch="0"
				Note Time="6" Value="A3" Duration="1" Instrument="Duty 2" FinePitch="1"
				Note Time="7" Value="A#2" Duration="1" Instrument="Duty 2" FinePitch="0"
				Note Time="8" Value="B3" Duration="2" Instrument="Duty 2" FinePitch="1"
			PatternInstance Time="0" Pattern="Pattern 1"
		Channel Type="Triangle"
		Channel Type="Noise"
		Channel Type="DPCM"
	Song Name="ItemGet" Length="1" LoopPoint="0" PatternLength="16" BeatLength="4" NoteLength="6" Groove="6" GroovePaddingMode="Middle"
		Channel Type="Square1"
			Pattern Name="Pattern 1"
				Note Time="0" Value="A3" Duration="12" Instrument="Duty 2" Volume="7" FinePitch="1"
				Note Time="2" Volume="8"
				Note Time="4" Volume="9"
				Note Time="7" Volume="8"
				Note Time="11" Volume="7"
				Note Time="12" Value="A#3" Duration="12" Instrument="Duty 2" FinePitch="0"
				Note Time="14" Volume="8"
				Note Time="16" Volume="9"
				Note Time="19" Volume="8"
				Note Time="23" Volume="7"
				Note Time="24" Value="B3" Duration="12" Instrument="Duty 2" FinePitch="1"
				Note Time="26" Volume="8"
				Note Time="28" Volume="9"
				Note Time="31" Volume="8"
				Note Time="35" Volume="7"
				Note Time="36" Value="C4" Duration="48" Instrument="Duty 2" FinePitch="0"
				Note Time="38" Volume="8"
				Note Time="40" Volume="9"
				Note Time="43" Volume="8"
				Note Time="47" Volume="7"
				Note Time="51" Volume="6"
				Note Time="59" Volume="5"
				Note Time="64" Volume="4"
			PatternInstance Time="0" Pattern="Pattern 1"
		Channel Type="Square2"
			Pattern Name="Pattern 1"
				Note Time="0" Value="C3" Duration="12" Instrument="Duty 2" Volume="7"
				Note Time="2" Volume="8"
				Note Time="4" Volume="9"
				Note Time="7" Volume="8"
				Note Time="11" Volume="7"
				Note Time="12" Value="C#3" Duration="12" Instrument="Duty 2"
				Note Time="14" Volume="8"
				Note Time="16" Volume="9"
				Note Time="19" Volume="8"
				Note Time="23" Volume="7"
				Note Time="24" Value="D3" Duration="12" Instrument="Duty 2"
				Note Time="26" Volume="8"
				Note Time="28" Volume="9"
				Note Time="31" Volume="8"
				Note Time="35" Volume="7"
				Note Time="36" Value="D#3" Duration="48" Instrument="Duty 2"
				Note Time="38" Volume="8"
				Note Time="40" Volume="9"
				Note Time="43" Volume="8"
				Note Time="47" Volume="7"
				Note Time="51" Volume="6"
				Note Time="59" Volume="5"
				Note Time="64" Volume="4"
			PatternInstance Time="0" Pattern="Pattern 1"
		Channel Type="Triangle"
			Pattern Name="Pattern 1"
				Note Time="0" Value="F3" Duration="12" Instrument="Duty 0" FinePitch="1"
				Note Time="12" Value="F#3" Duration="12" Instrument="Duty 0"
				Note Time="24" Value="G3" Duration="12" Instrument="Duty 0"
				Note Time="36" Value="G#3" Duration="48" Instrument="Duty 0"
				Note Time="51" FinePitch="2"
				Note Time="55" FinePitch="0"
				Note Time="59" FinePitch="2"
				Note Time="63" FinePitch="0"
				Note Time="67" FinePitch="2"
				Note Time="71" FinePitch="0"
				Note Time="75" FinePitch="2"
				Note Time="79" FinePitch="0"
				Note Time="83" FinePitch="2"
			PatternInstance Time="0" Pattern="Pattern 1"
		Channel Type="Noise"
		Channel Type="DPCM"
	Song Name="Secret" Length="1" LoopPoint="0" PatternLength="16" BeatLength="4" NoteLength="6" Groove="6" GroovePaddingMode="Middle"
		Channel Type="Square1"
		Channel Type="Square2"
			Pattern Name="Pattern 1"
				Note Time="0" Value="G4" Duration="10" Instrument="Duty 2" Volume="14"
				Note Time="2" Volume="13"
				Note Time="3" Volume="12"
				Note Time="5" Volume="11"
				Note Time="7" Volume="10"
				Note Time="9" Volume="9"
				Note Time="10" Value="F#4" Duration="10" Instrument="Duty 2" Volume="14" FinePitch="1"
				Note Time="12" Volume="13"
				Note Time="14" Volume="12"
				Note Time="16" Volume="11"
				Note Time="17" Volume="10"
				Note Time="19" Volume="9"
				Note Time="20" Value="D#4" Duration="10" Instrument="Duty 2" FinePitch="0"
				Note Time="21" Volume="14"
				Note Time="23" Volume="13"
				Note Time="24" Volume="12"
				Note Time="26" Volume="11"
				Note Time="28" Volume="10"
				Note Time="30" Value="A3" Duration="10" Instrument="Duty 2" Volume="9" FinePitch="1"
				Note Time="31" Volume="14"
				Note Time="33" Volume="13"
				Note Time="35" Volume="12"
				Note Time="37" Volume="11"
				Note Time="38" Volume="10"
				Note Time="40" Value="G#3" Duration="10" Instrument="Duty 2" Volume="14"
				Note Time="42" Volume="13"
				Note Time="44" Volume="12"
				Note Time="45" Volume="11"
				Note Time="47" Volume="10"
				Note Time="49" Volume="9"
				Note Time="50" Value="E4" Duration="10" Instrument="Duty 2" FinePitch="0"
				Note Time="51" Volume="14"
				Note Time="52" Volume="13"
				Note Time="54" Volume="12"
				Note Time="56" Volume="11"
				Note Time="58" Volume="10"
				Note Time="59" Volume="9"
				Note Time="60" Value="G#4" Duration="10" Instrument="Duty 2"
				Note Time="61" Volume="14"
				Note Time="63" Volume="13"
				Note Time="65" Volume="12"
				Note Time="66" Volume="11"
				Note Time="68" Volume="10"
				Note Time="70" Value="C5" Duration="24" Instrument="Duty 2" Volume="14"
				Note Time="72" Volume="13"
				Note Time="73" Volume="12"
				Note Time="75" Volume="11"
				Note Time="77" Volume="10"
				Note Time="79" Volume="9"
				Note Time="80" Volume="8"
				Note Time="82" Volume="7"
				Note Time="84" Volume="6"
				Note Time="86" Volume="5"
				Note Time="87" Volume="4"
				Note Time="89" Volume="3"
				Note Time="91" Volume="2"
				Note Time="93" Volume="1"
			PatternInstance Time="0" Pattern="Pattern 1"
		Channel Type="Triangle"
		Channel Type="Noise"
		Channel Type="DPCM"
	Song Name="Whistle" Length="1" LoopPoint="0" PatternLength="90" BeatLength="4" NoteLength="2" Groove="2" GroovePaddingMode="Middle"
		Channel Type="Square1"
		Channel Type="Square2"
			Pattern Name="Pattern 1"
				Note Time="0" Value="D4" Duration="20" Instrument="Whistle"
				Note Time="1" FinePitch="2"
				Note Time="5" FinePitch="1"
				Note Time="20" Value="E4" Duration="20" Instrument="Whistle" FinePitch="-1"
				Note Time="21" FinePitch="1"
				Note Time="25" FinePitch="0"
				Note Time="40" Value="D5" Duration="40" Instrument="Whistle" FinePitch="2"
				Note Time="41" FinePitch="0"
				Note Time="45" FinePitch="2"
				Note Time="49" FinePitch="0"
				Note Time="53" FinePitch="2"
				Note Time="57" FinePitch="0"
				Note Time="61" FinePitch="2"
				Note Time="65" FinePitch="1"
				Note Time="80" Value="C#5" Duration="10" Instrument="Whistle" FinePitch="0"
				Note Time="90" Value="C5" Duration="10" Instrument="Whistle"
				Note Time="100" Value="B4" Duration="76" Instrument="Whistle"
				Note Time="101" FinePitch="2"
				Note Time="105" FinePitch="0"
				Note Time="109" FinePitch="2"
				Note Time="113" FinePitch="0"
				Note Time="117" FinePitch="2"
				Note Time="121" FinePitch="0"
				Note Time="125" FinePitch="2"
				Note Time="129" FinePitch="0"
				Note Time="133" FinePitch="2"
				Note Time="137" FinePitch="0"
				Note Time="141" FinePitch="2"
				Note Time="145" FinePitch="0"
				Note Time="149" FinePitch="2"
				Note Time="153" FinePitch="0"
				Note Time="157" FinePitch="2"
				Note Time="161" FinePitch="1"
			PatternInstance Time="0" Pattern="Pattern 1"
		Channel Type="Triangle"
		Channel Type="Noise"
		Channel Type="DPCM"
	Song Name="Death" Length="1" LoopPoint="0" PatternLength="16" BeatLength="4" NoteLength="10" Groove="10" GroovePaddingMode="Middle"
		Channel Type="Square1"
		Channel Type="Square2"
			Pattern Name="Pattern 1"
				Note Time="0" Value="D#4" Duration="5" Instrument="Duty 2" Volume="6"
				Note Time="1" Volume="7"
				Note Time="2" Volume="8"
				Note Time="3" Volume="9"
				Note Time="4" Volume="10"
				Note Time="5" Value="D4" Duration="5" Instrument="Duty 2" Volume="6" FinePitch="1"
				Note Time="6" Volume="7"
				Note Time="7" Volume="8"
				Note Time="8" Volume="9"
				Note Time="9" Volume="10"
				Note Time="10" Value="C#4" Duration="5" Instrument="Duty 2" Volume="6" FinePitch="0"
				Note Time="11" Volume="7"
				Note Time="12" Volume="8"
				Note Time="13" Volume="9"
				Note Time="14" Volume="10"
				Note Time="15" Value="C4" Duration="5" Instrument="Duty 2" Volume="6"
				Note Time="16" Volume="7"
				Note Time="17" Volume="8"
				Note Time="18" Volume="9"
				Note Time="19" Volume="10"
				Note Time="20" Value="D4" Duration="5" Instrument="Duty 2" Volume="6" FinePitch="1"
				Note Time="21" Volume="7"
				Note Time="22" Volume="8"
				Note Time="23" Volume="9"
				Note Time="24" Volume="10"
				Note Time="25" Value="C#4" Duration="5" Instrument="Duty 2" Volume="6" FinePitch="0"
				Note Time="26" Volume="7"
				Note Time="27" Volume="8"
				Note Time="28" Volume="9"
				Note Time="29" Volume="10"
				Note Time="30" Value="C4" Duration="5" Instrument="Duty 2" Volume="6"
				Note Time="31" Volume="7"
				Note Time="32" Volume="8"
				Note Time="33" Volume="9"
				Note Time="34" Volume="10"
				Note Time="35" Value="B3" Duration="5" Instrument="Duty 2" Volume="6" FinePitch="1"
				Note Time="36" Volume="7"
				Note Time="37" Volume="8"
				Note Time="38" Volume="9"
				Note Time="39" Volume="10"
				Note Time="40" Value="C#4" Duration="5" Instrument="Duty 2" Volume="6" FinePitch="0"
				Note Time="41" Volume="7"
				Note Time="42" Volume="8"
				Note Time="43" Volume="9"
				Note Time="44" Volume="10"
				Note Time="45" Value="C4" Duration="5" Instrument="Duty 2" Volume="6"
				Note Time="46" Volume="7"
				Note Time="47" Volume="8"
				Note Time="48" Volume="9"
				Note Time="49" Volume="10"
				Note Time="50" Value="B3" Duration="5" Instrument="Duty 2" Volume="6" FinePitch="1"
				Note Time="51" Volume="7"
				Note Time="52" Volume="8"
				Note Time="53" Volume="9"
				Note Time="54" Volume="10"
				Note Time="55" Value="A#3" Duration="5" Instrument="Duty 2" Volume="6" FinePitch="0"
				Note Time="56" Volume="7"
				Note Time="57" Volume="8"
				Note Time="58" Volume="9"
				Note Time="59" Volume="10"
				Note Time="60" Value="C4" Duration="5" Instrument="Duty 2" Volume="6"
				Note Time="61" Volume="7"
				Note Time="62" Volume="8"
				Note Time="63" Volume="9"
				Note Time="64" Volume="10"
				Note Time="65" Value="B3" Duration="5" Instrument="Duty 2" Volume="6" FinePitch="1"
				Note Time="66" Volume="7"
				Note Time="67" Volume="8"
				Note Time="68" Volume="9"
				Note Time="69" Volume="10"
				Note Time="70" Value="A#3" Duration="5" Instrument="Duty 2" Volume="6" FinePitch="0"
				Note Time="71" Volume="7"
				Note Time="72" Volume="8"
				Note Time="73" Volume="9"
				Note Time="74" Volume="10"
				Note Time="75" Value="A3" Duration="5" Instrument="Duty 2" Volume="6" FinePitch="1"
				Note Time="76" Volume="7"
				Note Time="77" Volume="8"
				Note Time="78" Volume="9"
				Note Time="79" Volume="10"
				Note Time="80" Value="B3" Duration="5" Instrument="Duty 2" Volume="6"
				Note Time="81" Volume="7"
				Note Time="82" Volume="8"
				Note Time="83" Volume="9"
				Note Time="84" Volume="10"
				Note Time="85" Value="A#3" Duration="5" Instrument="Duty 2" Volume="6" FinePitch="0"
				Note Time="86" Volume="7"
				Note Time="87" Volume="8"
				Note Time="88" Volume="9"
				Note Time="89" Volume="10"
				Note Time="90" Value="A3" Duration="5" Instrument="Duty 2" Volume="6" FinePitch="1"
				Note Time="91" Volume="7"
				Note Time="92" Volume="8"
				Note Time="93" Volume="9"
				Note Time="94" Volume="10"
				Note Time="95" Value="G#3" Duration="5" Instrument="Duty 2" Volume="6"
				Note Time="96" Volume="7"
				Note Time="97" Volume="8"
				Note Time="98" Volume="9"
				Note Time="99" Volume="10"
				Note Time="100" Value="F#3" Duration="5" Instrument="Duty 2" Volume="6"
				Note Time="101" Volume="7"
				Note Time="102" Volume="8"
				Note Time="103" Volume="9"
				Note Time="104" Volume="10"
				Note Time="105" Value="F3" Duration="5" Instrument="Duty 2" Volume="6"
				Note Time="106" Volume="7"
				Note Time="107" Volume="8"
				Note Time="108" Volume="9"
				Note Time="109" Volume="10"
				Note Time="110" Value="E3" Duration="40" Instrument="Duty 2" Volume="6" FinePitch="2"
				Note Time="111" Volume="7" FinePitch="0"
				Note Time="112" Volume="8"
				Note Time="113" Volume="9"
				Note Time="114" Volume="10"
				Note Time="115" Volume="11" FinePitch="2"
				Note Time="116" Volume="12"
				Note Time="117" Volume="13"
				Note Time="118" Volume="14"
				Note Time="119" Volume="15" FinePitch="0"
				Note Time="123" FinePitch="2"
				Note Time="127" FinePitch="0"
				Note Time="131" FinePitch="2"
				Note Time="132" Volume="14"
				Note Time="133" Volume="13"
				Note Time="134" Volume="12"
				Note Time="135" Volume="11" FinePitch="1"
				Note Time="136" Volume="10"
				Note Time="137" Volume="9"
				Note Time="138" Volume="8"
				Note Time="139" Volume="7"
				Note Time="140" Volume="6"
				Note Time="141" Volume="5"
			PatternInstance Time="0" Pattern="Pattern 1"
		Channel Type="Triangle"
		Channel Type="Noise"
		Channel Type="DPCM"
	Song Name="Ocean" Length="1" LoopPoint="0" PatternLength="90" BeatLength="4" NoteLength="2" Groove="2" GroovePaddingMode="Middle"
		Channel Type="Square1"
		Channel Type="Square2"
		Channel Type="Triangle"
		Channel Type="Noise"
			Pattern Name="Pattern 1"
				Note Time="0" Value="G3" Duration="161" Instrument="Duty 0" Volume="1"
				Note Time="1" Volume="2"
				Note Time="2" Volume="3"
				Note Time="3" Volume="4"
				Note Time="4" Volume="5"
				Note Time="5" Volume="6"
				Note Time="6" Volume="7"
				Note Time="7" Volume="8"
				Note Time="8" Volume="9"
				Note Time="9" Volume="10"
				Note Time="12" Volume="9"
				Note Time="18" Volume="8"
				Note Time="25" Volume="7"
				Note Time="33" Volume="6"
				Note Time="41" Volume="10"
				Note Time="49" Volume="9"
				Note Time="57" Volume="8"
				Note Time="65" Volume="7"
				Note Time="73" Volume="6"
				Note Time="81" Volume="5"
				Note Time="89" Volume="4"
				Note Time="97" Volume="3"
				Note Time="105" Volume="3"
				Note Time="113" Volume="3"
				Note Time="121" Volume="2"
				Note Time="129" Volume="2"
				Note Time="137" Volume="2"
				Note Time="145" Volume="1"
				Note Time="153" Volume="1"
			PatternInstance Time="0" Pattern="Pattern 1"
		Channel Type="DPCM"
	Song Name="Stairs" Length="1" LoopPoint="0" PatternLength="16" BeatLength="4" NoteLength="4" Groove="4" GroovePaddingMode="Middle"
		Channel Type="Square1"
		Channel Type="Square2"
		Channel Type="Triangle"
		Channel Type="Noise"
			Pattern Name="Pattern 1"
				Note Time="0" Value="A2" Duration="1" Instrument="Duty 0" Volume="12"
				Note Time="1" Value="A#2" Duration="1" Instrument="Duty 0" Volume="8"
				Note Time="2" Value="A2" Duration="1" Instrument="Duty 0" Volume="6"
				Note Time="3" Value="A#2" Duration="1" Instrument="Duty 0" Volume="4"
				Note Time="12" Value="A2" Duration="1" Instrument="Duty 0" Volume="12"
				Note Time="13" Value="A#2" Duration="1" Instrument="Duty 0" Volume="8"
				Note Time="14" Value="A2" Duration="1" Instrument="Duty 0" Volume="6"
				Note Time="15" Value="A#2" Duration="1" Instrument="Duty 0" Volume="4"
				Note Time="24" Value="A2" Duration="1" Instrument="Duty 0" Volume="12"
				Note Time="25" Value="A#2" Duration="1" Instrument="Duty 0" Volume="8"
				Note Time="26" Value="A2" Duration="1" Instrument="Duty 0" Volume="6"
				Note Time="27" Value="A#2" Duration="1" Instrument="Duty 0" Volume="4"
				Note Time="36" Value="A2" Duration="1" Instrument="Duty 0" Volume="12"
				Note Time="37" Value="A#2" Duration="1" Instrument="Duty 0" Volume="8"
				Note Time="38" Value="A2" Duration="1" Instrument="Duty 0" Volume="6"
				Note Time="39" Value="A#2" Duration="1" Instrument="Duty 0" Volume="4"
				Note Time="48" Value="A2" Duration="1" Instrument="Duty 0" Volume="12"
			PatternInstance Time="0" Pattern="Pattern 1"
		Channel Type="DPCM"
	Song Name="Hurt" Length="1" LoopPoint="0" PatternLength="1" BeatLength="1" NoteLength="16" Groove="16" GroovePaddingMode="Middle"
		Channel Type="Square1"
		Channel Type="Square2"
			Pattern Name="Pattern 1"
				Note Time="0" Value="C3" Duration="1" Instrument="Duty 0" Volume="10"
				Note Time="1" Value="B2" Duration="1" Instrument="Duty 0"
				Note Time="2" Value="C#3" Duration="1" Instrument="Duty 0"
				Note Time="3" Value="F3" Duration="1" Instrument="Duty 0"
				Note Time="4" Value="D3" Duration="1" Instrument="Duty 0"
				Note Time="5" Value="B2" Duration="1" Instrument="Duty 0" Volume="14"
				Note Time="6" Value="A2" Duration="4" Instrument="Duty 0" Volume="13" FinePitch="-6"
				Note Time="7" FinePitch="-14"
				Note Time="8" Volume="14" FinePitch="-2"
				Note Time="9" Volume="7" FinePitch="1"
			PatternInstance Time="0" Pattern="Pattern 1"
		Channel Type="Triangle"
		Channel Type="Noise"
		Channel Type="DPCM"
	Song Name="Wasted" Length="2" LoopPoint="0" PatternLength="16" BeatLength="4" NoteLength="10" Groove="10" GroovePaddingMode="Middle"
		Channel Type="Square1"
		Channel Type="Square2"
		Channel Type="Triangle"
			Pattern Name="Pattern 1"
				Note Time="13" Value="G2" Duration="3" Instrument="Duty 0"
				Note Time="14" Volume="4"
				Note Time="16" Value="A2" Duration="3" Instrument="Duty 0"
				Note Time="17" Volume="6"
				Note Time="19" Value="G#2" Duration="1" Instrument="Duty 0" Volume="6"
				Note Time="20" Value="G2" Duration="1" Instrument="Duty 0"
				Note Time="21" Value="A2" Duration="1" Instrument="Duty 0" Volume="4"
				Note Time="22" Value="G#2" Duration="1" Instrument="Duty 0"
				Note Time="23" Value="G2" Duration="1" Instrument="Duty 0"
				Note Time="24" Value="A2" Duration="1" Instrument="Duty 0" Volume="1"
				Note Time="25" Value="G#2" Duration="1" Instrument="Duty 0"
				Note Time="26" Value="A2" Duration="1" Instrument="Duty 0"
				Note Time="27" Value="G2" Duration="1" Instrument="Duty 0"
				Note Time="28" Value="G#2" Duration="1" Instrument="Duty 0"
				Note Time="29" Value="G2" Duration="1" Instrument="Duty 0"
				Note Time="30" Value="G#2" Duration="1" Instrument="Duty 0"
				Note Time="31" Value="G2" Duration="1" Instrument="Duty 0"
				Note Time="33" Value="G#2" Duration="1" Instrument="Duty 0"
				Note Time="36" Value="G2" Duration="1" Instrument="Duty 0"
				Note Time="41" Value="G#2" Duration="1" Instrument="Duty 0"
				Note Time="46" Value="G2" Duration="1" Instrument="Duty 0"
			PatternInstance Time="0" Pattern="Pattern 1"
		Channel Type="Noise"
			Pattern Name="Pattern 1"
				Note Time="5" Volume="4"
				Note Time="6" Value="A2" Duration="1" Instrument="Duty 0"
				Note Time="8" Value="B2" Duration="1" Instrument="Duty 0"
				Note Time="9" Value="D3" Duration="1" Instrument="Duty 0"
				Note Time="10" Value="F#3" Duration="1" Instrument="Duty 0" Volume="5"
				Note Time="12" Value="A3" Duration="1" Instrument="Duty 0"
				Note Time="13" Value="A3" Duration="1" Instrument="Duty 0"
				Note Time="14" Volume="8"
				Note Time="15" Value="D#3" Duration="1" Instrument="Duty 0"
				Note Time="16" Value="A2" Duration="1" Instrument="Duty 0" Volume="8"
				Note Time="17" Value="G#2" Duration="3" Instrument="Duty 0"
				Note Time="20" Value="D3" Duration="1" Instrument="Duty 0"
				Note Time="21" Volume="3"
				Note Time="22" Value="D4" Duration="1" Instrument="Duty 0"
				Note Time="23" Value="F#4" Duration="1" Instrument="Duty 0"
				Note Time="24" Value="G#4" Duration="1" Instrument="Duty 0"
				Note Time="25" Value="G#4" Duration="1" Instrument="Duty 0" Volume="6"
				Note Time="26" Value="A4" Duration="1" Instrument="Duty 0"
				Note Time="27" Value="A4" Duration="1" Instrument="Duty 0" Volume="7"
				Note Time="28" Value="G#4" Duration="1" Instrument="Duty 0"
				Note Time="29" Value="G4" Duration="2" Instrument="Duty 0"
				Note Time="31" Value="F#4" Duration="1" Instrument="Duty 0" Volume="8"
				Note Time="32" Value="F4" Duration="1" Instrument="Duty 0"
				Note Time="33" Value="E4" Duration="1" Instrument="Duty 0"
				Note Time="34" Value="D#4" Duration="2" Instrument="Duty 0" Volume="8"
				Note Time="36" Value="D4" Duration="1" Instrument="Duty 0" Volume="7"
				Note Time="37" Value="C#4" Duration="1" Instrument="Duty 0" Volume="5"
				Note Time="39" Value="C#4" Duration="1" Instrument="Duty 0" Volume="5"
				Note Time="41" Value="C4" Duration="2" Instrument="Duty 0"
				Note Time="43" Value="B3" Duration="3" Instrument="Duty 0" Volume="4"
				Note Time="46" Value="A#3" Duration="24" Instrument="Duty 0" Volume="3"
				Note Time="48" Volume="2"
				Note Time="51" Volume="3"
				Note Time="60" Value="A#3" Duration="5" Instrument="Duty 0"
				Note Time="61" Volume="5"
				Note Time="65" Value="A3" Duration="7" Instrument="Duty 0"
				Note Time="67" Volume="6"
				Note Time="72" Value="A#3" Duration="6" Instrument="Duty 0"
				Note Time="78" Value="A3" Duration="5" Instrument="Duty 0"
				Note Time="81" Volume="7"
				Note Time="83" Value="A#3" Duration="5" Instrument="Duty 0"
				Note Time="88" Value="A#3" Duration="110" Instrument="Duty 0"
				Note Time="105" Volume="5"
				Note Time="114" Volume="4"
				Note Time="122" Volume="3"
				Note Time="158" Volume="2"
			Pattern Name="Pattern 2"
				Note Time="23" Volume="1"
			PatternInstance Time="0" Pattern="Pattern 1"
			PatternInstance Time="1" Pattern="Pattern 2"
		Channel Type="DPCM"
	Song Name="Chest" Length="3" LoopPoint="0" PatternLength="16" BeatLength="4" NoteLength="10" Groove="10" GroovePaddingMode="Middle"
		PatternCustomSettings Time="1" Length="18" NoteLength="10" Groove="10" GroovePaddingMode="Middle" BeatLength="4"
		Channel Type="Square1"
			Pattern Name="Pattern 1"
				Note Time="0" Value="A3" Duration="8" Instrument="Duty2IntroMuted" Volume="2"
				Note Time="10" Value="A#3" Duration="8" Instrument="Duty2IntroMuted" Volume="3"
				Note Time="20" Value="B3" Duration="7" Instrument="Duty2IntroMuted" Volume="4"
				Note Time="29" Value="C4" Duration="7" Instrument="Duty2IntroMuted" Volume="5"
				Note Time="38" Value="A#3" Duration="8" Instrument="Duty2IntroMuted" Volume="3"
				Note Time="48" Value="B3" Duration="7" Instrument="Duty2IntroMuted" Volume="4"
				Note Time="57" Value="C4" Duration="7" Instrument="Duty2IntroMuted" Volume="5"
				Note Time="66" Value="C#4" Duration="7" Instrument="Duty2IntroMuted" Volume="4"
				Note Time="75" Value="B3" Duration="8" Instrument="Duty2IntroMuted" Volume="5"
				Note Time="84" Value="C4" Duration="8" Instrument="Duty2IntroMuted" Volume="6"
				Note Time="93" Value="C#4" Duration="8" Instrument="Duty2IntroMuted" Volume="7"
				Note Time="102" Value="D4" Duration="8" Instrument="Duty2IntroMuted" Volume="8"
				Note Time="111" Value="C4" Duration="9" Instrument="Duty2IntroMuted" Volume="6"
				Note Time="120" Value="C#4" Duration="9" Instrument="Duty2IntroMuted" Volume="7"
				Note Time="129" Value="D4" Duration="9" Instrument="Duty2IntroMuted" Volume="8"
				Note Time="138" Value="D#4" Duration="8" Instrument="Duty2IntroMuted" Volume="9"
			Pattern Name="Pattern 2"
				Note Time="35" Volume="15"
				Note Time="36" Value="A4" Duration="7" Instrument="Duty 0 Env"
				Note Time="53" Value="A#4" Duration="6" Instrument="Duty 0 Env"
				Note Time="70" Value="B4" Duration="9" Instrument="Duty 0 Env"
				Note Time="86" Value="C5" Duration="62" Instrument="Duty 0 Env"
				Note Time="110" VibratoSpeed="8" VibratoDepth="2"
				Note Time="148" VibratoSpeed="0" VibratoDepth="0"
			PatternInstance Time="1" Pattern="Pattern 1"
			PatternInstance Time="2" Pattern="Pattern 2"
		Channel Type="Square2"
			Pattern Name="Pattern 1"
				Note Time="0" Value="B2" Duration="10" Instrument="Duty 0 Env" Volume="6"
				Note Time="10" Value="C3" Duration="10" Instrument="Duty 0 Env"
				Note Time="20" Value="C#3" Duration="10" Instrument="Duty 0 Env"
				Note Time="30" Value="D3" Duration="10" Instrument="Duty 0 Env"
				Note Time="40" Value="B2" Duration="10" Instrument="Duty 0 Env" Volume="7"
				Note Time="50" Value="C3" Duration="10" Instrument="Duty 0 Env"
				Note Time="60" Value="C#3" Duration="10" Instrument="Duty 0 Env"
				Note Time="70" Value="D3" Duration="10" Instrument="Duty 0 Env"
				Note Time="80" Value="C3" Duration="10" Instrument="Duty 0 Env" Volume="8"
				Note Time="90" Value="C#3" Duration="10" Instrument="Duty 0 Env"
				Note Time="100" Value="D3" Duration="10" Instrument="Duty 0 Env"
				Note Time="110" Value="D#3" Duration="10" Instrument="Duty 0 Env"
				Note Time="120" Value="C3" Duration="10" Instrument="Duty 0 Env" Volume="9"
				Note Time="130" Value="C#3" Duration="10" Instrument="Duty 0 Env"
				Note Time="140" Value="D3" Duration="10" Instrument="Duty 0 Env"
				Note Time="150" Value="D#3" Duration="10" Instrument="Duty 0 Env"
			Pattern Name="Pattern 2"
				Note Time="0" Value="C#3" Duration="10" Instrument="Duty 0 Env" Volume="10"
				Note Time="10" Value="D3" Duration="10" Instrument="Duty 0 Env"
				Note Time="20" Value="D#3" Duration="9" Instrument="Duty 0 Env"
				Note Time="29" Value="E3" Duration="9" Instrument="Duty 0 Env"
				Note Time="38" Value="D3" Duration="10" Instrument="Duty 0 Env" Volume="11"
				Note Time="48" Value="D#3" Duration="9" Instrument="Duty 0 Env"
				Note Time="57" Value="E3" Duration="9" Instrument="Duty 0 Env"
				Note Time="66" Value="F3" Duration="9" Instrument="Duty 0 Env"
				Note Time="75" Value="D#3" Duration="9" Instrument="Duty 0 Env" Volume="12"
				Note Time="84" Value="E3" Duration="9" Instrument="Duty 0 Env"
				Note Time="93" Value="F3" Duration="9" Instrument="Duty 0 Env"
				Note Time="102" Value="F#3" Duration="9" Instrument="Duty 0 Env"
				Note Time="111" Value="E3" Duration="9" Instrument="Duty 0 Env"
				Note Time="120" Value="F3" Duration="9" Instrument="Duty 0 Env"
				Note Time="129" Value="F#3" Duration="9" Instrument="Duty 0 Env"
				Note Time="138" Value="G3" Duration="8" Instrument="Duty 0 Env"
			Pattern Name="Pattern 3"
				Note Time="35" Volume="15"
				Note Time="38" Value="A3" Duration="11" Instrument="Duty 0 Env"
				Note Time="55" Value="A#3" Duration="13" Instrument="Duty 0 Env"
				Note Time="73" Value="B3" Duration="11" Instrument="Duty 0 Env"
				Note Time="89" Value="C4" Duration="51" Instrument="Duty 0 Env"
			PatternInstance Time="0" Pattern="Pattern 1"
			PatternInstance Time="1" Pattern="Pattern 2"
			PatternInstance Time="2" Pattern="Pattern 3"
		Channel Type="Triangle"
			Pattern Name="Pattern 1"
				Note Time="0" Value="B2" Duration="77" Instrument="Duty 0"
				Note Time="80" Value="C3" Duration="77" Instrument="Duty 0"
			Pattern Name="Pattern 2"
				Note Time="0" Value="C#3" Duration="35" Instrument="Duty 0"
				Note Time="38" Value="D3" Duration="34" Instrument="Duty 0"
				Note Time="75" Value="D#3" Duration="33" Instrument="Duty 0"
				Note Time="111" Value="E3" Duration="32" Instrument="Duty 0"
			Pattern Name="Pattern 3"
				Note Time="36" Value="E2" Duration="12" Instrument="Duty 0"
				Note Time="86" Value="E2" Duration="12" Instrument="Duty 0"
			PatternInstance Time="0" Pattern="Pattern 1"
			PatternInstance Time="1" Pattern="Pattern 2"
			PatternInstance Time="2" Pattern="Pattern 3"
		Channel Type="Noise"
			Pattern Name="Pattern 1"
				Note Time="36" Value="F3" Duration="1" Instrument="Duty 0" Volume="11"
				Note Time="37" Value="E3" Duration="1" Instrument="Duty 0" Volume="10"
				Note Time="38" Value="D3" Duration="24" Instrument="Duty 0"
				Note Time="39" Volume="8"
				Note Time="42" Volume="6"
				Note Time="45" Volume="3"
				Note Time="48" Volume="2"
				Note Time="86" Value="F3" Duration="1" Instrument="Duty 0" Volume="12"
				Note Time="87" Value="E3" Duration="1" Instrument="Duty 0" Volume="11"
				Note Time="88" Value="D3" Duration="32" Instrument="Duty 0"
				Note Time="89" Volume="9"
				Note Time="92" Volume="7"
				Note Time="95" Volume="3"
				Note Time="98" Volume="2"
			PatternInstance Time="2" Pattern="Pattern 1"
		Channel Type="DPCM"
