<svg viewBox="0 0 512 512">
<g>
  <path d="M 241.6 512 C 236.9 512 232.3 510.1 228.6 506.4 L 87.9 365.8 L 22.7 365.8 C 12.5 365.8 4.1 357.4 4.1 347.2 L 4.1 164.5 C 4.1 154.3 12.5 145.9 22.7 145.9 L 87.9 145.9 L 89.649 144.151 L 259.3 311.297 L 259.3 494.4 C 259.3 501.9 254.6 508.4 248.1 511.2 Z M 228.5 5.3 C 234.1 -0.3 241.5 -1.2 248.1 1.6 C 254.6 4.4 259.3 10.9 259.3 18.4 L 259.3 224.288 L 133.477 100.323 Z"></path>
  <path d="M -30.541 240.918 L 502.226 240.918 L 501.883 248.653 L -30.884 248.653 L -30.541 240.918 Z" style="stroke-linejoin: round; stroke: rgb(0, 0, 0); stroke-linecap: round; stroke-width: 24px;" transform="matrix(0.712346, 0.701829, -0.701829, 0.712346, 239.589293, -94.987078)"></path>
</g>
</svg>