<svg viewBox="254.59766055045876 82.40537614678904 79.03799999999998 110.634">
    <g>
      <path d="M255.6 98.41C255.6 106.08 255.6 167.37 255.6 175.03C255.6 183.32 262.32 190.04 270.61 190.04C278.89 190.04 285.61 183.32 285.61 175.03C285.61 167.37 285.61 106.07 285.61 98.41C285.61 90.12 278.89 83.41 270.61 83.41C262.32 83.41 255.6 90.12 255.6 98.41Z"></path>
      <path d="M300.62 98.41C300.62 106.08 300.62 167.37 300.62 175.03C300.62 183.32 307.34 190.04 315.63 190.04C323.92 190.04 330.64 183.32 330.64 175.03C330.64 167.37 330.64 106.07 330.64 98.41C330.64 90.12 323.92 83.41 315.63 83.41C307.34 83.41 300.62 90.12 300.62 98.41Z"></path>
    </g>
</svg>