<svg viewBox="443.17866055045874 82.25937614678904 98.99199999999996 110.779">
    <g>
      <path d="M453.58 190.04C455.2 190.04 456.82 189.62 458.27 188.78C465.89 184.38 526.85 149.18 534.47 144.79C537.38 143.11 539.17 140.01 539.17 136.65C539.17 133.29 537.38 130.19 534.47 128.51C526.85 124.11 465.89 88.92 458.27 84.52C456.82 83.68 455.2 83.26 453.57 83.26C451.95 83.26 450.33 83.68 448.88 84.52C445.97 86.2 444.18 89.3 444.18 92.65C444.18 101.45 444.18 171.84 444.18 180.64C444.18 184 445.97 187.1 448.88 188.78C450.33 189.62 451.95 190.04 453.58 190.04Z"></path>
    </g>

</svg>