<svg viewBox="-1.0015410733572594 -0.9981096448213975 104.00000000000003 80.27000000000002">
  <g>
    <path d="M12.7 0.29L13.18 0.39L13.64 0.51L14.11 0.65L14.56 0.81L15 0.99L15.43 1.19L15.85 1.41L16.26 1.65L16.66 1.9L17.05 2.17L17.42 2.46L17.78 2.76L18.13 3.08L18.46 3.41L18.78 3.76L19.08 4.12L19.37 4.49L19.64 4.88L19.89 5.28L20.13 5.69L20.35 6.11L20.55 6.54L20.73 6.98L20.89 7.44L21.03 7.9L21.15 8.37L21.25 8.84L21.33 9.33L21.39 9.82L21.42 10.32L21.44 10.82L21.44 65.55L21.42 66.06L21.39 66.56L21.33 67.05L21.25 67.53L21.15 68.01L21.03 68.48L20.89 68.94L20.73 69.39L20.55 69.83L20.35 70.27L20.13 70.69L19.89 71.1L19.64 71.5L19.37 71.88L19.08 72.26L18.78 72.62L18.46 72.96L18.13 73.3L17.78 73.61L17.42 73.92L17.05 74.2L16.66 74.47L16.26 74.73L15.85 74.96L15.43 75.18L15 75.38L14.56 75.56L14.11 75.73L13.64 75.87L13.18 75.99L12.7 76.09L12.21 76.17L11.72 76.23L11.22 76.26L10.72 76.27L10.21 76.26L9.71 76.23L9.22 76.17L8.74 76.09L8.26 75.99L7.79 75.87L7.33 75.73L6.88 75.56L6.44 75.38L6 75.18L5.58 74.96L5.17 74.73L4.77 74.47L4.39 74.2L4.01 73.92L3.65 73.61L3.31 73.3L2.97 72.96L2.66 72.62L2.35 72.26L2.07 71.88L1.8 71.5L1.54 71.1L1.31 70.69L1.09 70.27L0.89 69.83L0.71 69.39L0.54 68.94L0.4 68.48L0.28 68.01L0.18 67.53L0.1 67.05L0.04 66.56L0.01 66.06L0 65.55L0 10.82L0.01 10.32L0.04 9.82L0.1 9.33L0.18 8.84L0.28 8.37L0.4 7.9L0.54 7.44L0.71 6.98L0.89 6.54L1.09 6.11L1.31 5.69L1.54 5.28L1.8 4.88L2.07 4.49L2.35 4.12L2.66 3.76L2.97 3.41L3.31 3.08L3.65 2.76L4.01 2.46L4.39 2.17L4.77 1.9L5.17 1.65L5.58 1.41L6 1.19L6.44 0.99L6.88 0.81L7.33 0.65L7.79 0.51L8.26 0.39L8.74 0.29L9.22 0.21L9.71 0.15L10.21 0.12L10.72 0.1L11.22 0.12L11.72 0.15L12.21 0.21L12.21 0.21L12.7 0.29ZM39.21 0.01L39.3 0.02L39.39 0.02L39.47 0.03L39.56 0.04L39.65 0.05L39.73 0.06L39.82 0.07L39.9 0.08L39.99 0.1L40.08 0.11L40.16 0.13L40.25 0.15L40.33 0.16L40.42 0.18L40.5 0.2L40.59 0.23L40.67 0.25L40.76 0.27L40.84 0.3L40.92 0.33L41.01 0.35L41.09 0.38L41.17 0.41L41.26 0.44L41.34 0.47L41.42 0.51L41.5 0.54L41.58 0.58L41.66 0.61L41.74 0.65L41.82 0.69L41.9 0.73L41.98 0.77L42.06 0.81L42.14 0.86L42.22 0.9L96.64 32.33L96.8 32.42L96.95 32.51L97.1 32.61L97.24 32.71L97.38 32.82L97.52 32.93L97.66 33.04L97.79 33.16L97.92 33.28L98.04 33.4L98.17 33.53L98.28 33.66L98.4 33.79L98.51 33.92L98.62 34.06L98.72 34.2L98.82 34.34L98.92 34.49L99.01 34.63L99.1 34.78L99.18 34.93L99.27 35.09L99.34 35.24L99.42 35.4L99.48 35.56L99.55 35.72L99.61 35.89L99.67 36.05L99.72 36.22L99.77 36.39L99.81 36.56L99.85 36.73L99.88 36.9L99.91 37.07L99.94 37.25L99.96 37.42L99.98 37.6L99.99 37.78L100 37.96L100 38.14L100 38.32L99.99 38.49L99.98 38.67L99.96 38.85L99.94 39.03L99.91 39.2L99.88 39.37L99.85 39.55L99.81 39.72L99.77 39.89L99.72 40.06L99.67 40.22L99.61 40.39L99.55 40.55L99.48 40.71L99.42 40.87L99.34 41.03L99.27 41.19L99.18 41.34L99.1 41.49L99.01 41.64L98.92 41.79L98.82 41.93L98.72 42.08L98.62 42.21L98.51 42.35L98.4 42.49L98.28 42.62L98.17 42.75L98.04 42.87L97.92 42.99L97.79 43.11L97.66 43.23L97.52 43.34L97.38 43.45L97.24 43.56L97.1 43.66L96.95 43.76L96.8 43.86L96.64 43.95L42.22 75.37L42.14 75.42L42.06 75.46L41.98 75.5L41.9 75.54L41.82 75.58L41.74 75.62L41.66 75.66L41.58 75.7L41.5 75.73L41.42 75.77L41.34 75.8L41.26 75.83L41.17 75.86L41.09 75.89L41.01 75.92L40.92 75.95L40.84 75.97L40.76 76L40.67 76.02L40.59 76.05L40.5 76.07L40.42 76.09L40.33 76.11L40.25 76.13L40.16 76.15L40.08 76.16L39.99 76.18L39.9 76.19L39.82 76.2L39.73 76.22L39.65 76.23L39.56 76.24L39.47 76.24L39.39 76.25L39.3 76.26L39.21 76.26L39.13 76.27L39.04 76.27L38.95 76.27L38.86 76.27L38.78 76.27L38.69 76.27L38.6 76.27L38.52 76.26L38.43 76.26L38.34 76.25L38.26 76.24L38.17 76.24L38.08 76.23L38 76.22L37.91 76.2L37.83 76.19L37.74 76.18L37.65 76.16L37.57 76.15L37.48 76.13L37.4 76.11L37.31 76.09L37.23 76.07L37.14 76.05L37.06 76.02L36.97 76L36.89 75.97L36.81 75.95L36.72 75.92L36.64 75.89L36.56 75.86L36.47 75.83L36.39 75.8L36.31 75.77L36.23 75.73L36.15 75.7L36.06 75.66L35.98 75.62L35.9 75.58L35.82 75.54L35.74 75.5L35.67 75.46L35.59 75.42L35.51 75.37L35.36 75.28L35.2 75.19L35.06 75.09L34.91 74.98L34.77 74.88L34.63 74.77L34.5 74.65L34.36 74.54L34.23 74.42L34.11 74.3L33.99 74.17L33.87 74.04L33.75 73.91L33.64 73.78L33.54 73.64L33.43 73.5L33.33 73.36L33.24 73.21L33.14 73.07L33.05 72.92L32.97 72.76L32.89 72.61L32.81 72.46L32.74 72.3L32.67 72.14L32.6 71.98L32.54 71.81L32.49 71.65L32.43 71.48L32.39 71.31L32.34 71.14L32.3 70.97L32.27 70.8L32.24 70.62L32.21 70.45L32.19 70.27L32.18 70.1L32.16 69.92L32.16 69.74L32.15 69.56L32.15 6.71L32.16 6.53L32.16 6.35L32.18 6.18L32.19 6L32.21 5.82L32.24 5.65L32.27 5.48L32.3 5.3L32.34 5.13L32.39 4.96L32.43 4.79L32.49 4.63L32.54 4.46L32.6 4.3L32.67 4.14L32.74 3.98L32.81 3.82L32.89 3.66L32.97 3.51L33.05 3.36L33.14 3.21L33.23 3.06L33.33 2.92L33.43 2.77L33.54 2.63L33.64 2.5L33.75 2.36L33.87 2.23L33.99 2.1L34.11 1.98L34.23 1.86L34.36 1.74L34.5 1.62L34.63 1.51L34.77 1.4L34.91 1.29L35.06 1.19L35.2 1.09L35.36 0.99L35.51 0.9L35.59 0.86L35.67 0.81L35.74 0.77L35.82 0.73L35.9 0.69L35.98 0.65L36.06 0.61L36.15 0.58L36.23 0.54L36.31 0.51L36.39 0.47L36.47 0.44L36.56 0.41L36.64 0.38L36.72 0.35L36.81 0.33L36.89 0.3L36.97 0.27L37.06 0.25L37.14 0.23L37.23 0.2L37.31 0.18L37.4 0.16L37.48 0.15L37.57 0.13L37.65 0.11L37.74 0.1L37.83 0.08L37.91 0.07L38 0.06L38.08 0.05L38.17 0.04L38.26 0.03L38.34 0.02L38.43 0.02L38.52 0.01L38.6 0.01L38.69 0L38.78 0L38.86 0L38.95 0L39.04 0L39.13 0.01L39.13 0.01L39.21 0.01Z"></path>
  </g>
</svg>


