
<svg viewBox="0 0 512 512">
<g>
	<path d="M415.8,438.4c-7.5,0-14-2.8-19.6-8.4c-11.2-11.2-11.2-27.9,0-39.1c74.5-74.5,74.5-196.6,0-272
		c-11.2-11.2-11.2-27.9,0-39.1s27.9-11.2,39.1,0c46.6,46.6,72.7,109,72.7,175.1S481.9,382.5,435.3,430
		C429.7,435.6,422.3,438.4,415.8,438.4L415.8,438.4z M317.9,387.2c-7.5,0-14-2.8-19.6-8.4c-11.2-11.2-11.2-27.9,0-39.1
		c46.6-46.6,46.6-122,0-168.6c-11.2-11.2-11.2-27.9,0-39.1s27.9-11.2,39.1,0c68,68,68,177.9,0,245.9
		C331.9,384.4,324.5,387.2,317.9,387.2L317.9,387.2z"/>
	<path d="M241.6,512c-4.7,0-9.3-1.9-13-5.6L87.9,365.8H22.7c-10.2,0-18.6-8.4-18.6-18.6V164.5
		c0-10.2,8.4-18.6,18.6-18.6h65.2L228.5,5.3c5.6-5.6,13-6.5,19.6-3.7c6.5,2.8,11.2,9.3,11.2,16.8v476c0,7.5-4.7,14-11.2,16.8
		L241.6,512z"/>
</g>
</svg>
